<?xml version="1.0" encoding="UTF-8" standalone="no"?>
<svg
   xmlns:dc="http://purl.org/dc/elements/1.1/"
   xmlns:cc="http://creativecommons.org/ns#"
   xmlns:rdf="http://www.w3.org/1999/02/22-rdf-syntax-ns#"
   xmlns:svg="http://www.w3.org/2000/svg"
   xmlns="http://www.w3.org/2000/svg"
   id="svg26"
   version="1.1"
   viewBox="0 0 142.34891 35.000001"
   style="clip-rule:evenodd;fill-rule:evenodd;image-rendering:optimizeQuality;shape-rendering:geometricPrecision;text-rendering:geometricPrecision"
   height="35"
   width="142.34891"
   xml:space="preserve"><metadata
   id="metadata30"><rdf:RDF><cc:Work
       rdf:about=""><dc:format>image/svg+xml</dc:format><dc:type
         rdf:resource="http://purl.org/dc/dcmitype/StillImage" /><dc:title></dc:title></cc:Work></rdf:RDF></metadata>
 <defs
   id="defs4">
  <style
   id="style2"
   type="text/css">
   <![CDATA[
    .str0 {stroke:white;stroke-width:1.4}
    .fil0 {fill:#191919}
    .fil1 {fill:#ABF3D8}
    .fil2 {fill:white;fill-rule:nonzero}
   ]]>
  </style>
 </defs>
 <g
   transform="matrix(1.3714618,0,0,1.3714618,-72.823628,-137.18415)"
   id="Capa_x0020_1">
  <metadata
   id="CorelCorpID_0Corel-Layer" />
  <g
   id="_211680616">
   <path
   style="fill:#191919;stroke:#ffffff;stroke-width:1.39999998"
   d="m 76.0099,108.161 c -2.2745,4.8191 -4.5489,9.6383 -6.8234,14.4575 -0.5621,1.3981 -1.3567,2.1835 -2.4321,2.2294 -3.8733,0 -7.7467,0 -11.62,0 -1.148,-0.0621 -1.6328,-0.6169 -1.1485,-1.8916 3.3329,-6.8685 6.6658,-13.7369 9.9986,-20.6053 0.5333,-1.0012 1.484,-1.6639 2.5672,-1.6214 h 4.4589 c 1.0079,0.0737 1.7589,0.738 2.2969,1.8916 z"
   class="fil0 str0"
   id="_211680352" />
   <path
   style="fill:#abf3d8;stroke:#ffffff;stroke-width:1.39999998"
   d="m 79.9382,120.946 h -9.9621 l 6.0338,-12.7847 5.0427,10.3703 c 0.8655,1.6688 0.494,2.4735 -1.1144,2.4144 z"
   class="fil1 str0"
   id="_211680856" />
   <g
   id="g12">
    <path
   style="fill:#191919"
   d="m 85.9409,100.73 h 10.0662 c 0.8918,0 1.6214,0.7369 1.6214,1.6375 v 17.3303 c 0,0.9006 -0.7296,1.6375 -1.6214,1.6375 H 85.9409 c -0.8917,0 -1.6214,-0.7369 -1.6214,-1.6375 v -17.3303 c 0,-0.9006 0.7297,-1.6375 1.6214,-1.6375 z"
   class="fil0"
   id="_211680472" />
    <path
   style="fill:#ffffff;fill-rule:nonzero"
   d="m 96.0071,101.151 v 0 H 85.9409 v -0.8414 h 10.0662 z m 2.0421,1.2168 h -0.8414 v 0 l -5e-4,-0.0642 -0.0046,-0.0615 -0.0088,-0.0604 -0.0094,-0.059 -0.0149,-0.0594 -0.0153,-0.0578 -0.019,-0.0562 -0.0209,-0.0546 -0.0244,-0.0544 -0.0277,-0.0526 -0.0293,-0.0504 -0.0308,-0.0501 -0.0338,-0.0477 -0.0367,-0.0455 -0.038,-0.0447 -0.039,-0.0422 -0.0432,-0.0412 -0.0441,-0.0384 -0.0449,-0.0356 -0.0472,-0.0342 -0.0493,-0.0313 -0.0499,-0.0296 -0.0518,-0.0281 -0.052,-0.023 -0.0555,-0.0229 -0.0554,-0.0177 -0.0555,-0.0171 -0.0586,-0.0135 -0.0582,-0.0111 -0.0595,-0.007 -0.0608,-0.005 -0.0617,-4e-4 v -0.8414 l 0.1045,0.004 0.1034,0.008 0.1023,0.0138 0.101,0.0177 0.098,0.0233 0.0981,0.0271 0.095,0.0341 0.0917,0.0359 0.0914,0.0428 0.088,0.0445 0.0859,0.0494 0.0823,0.0543 0.08,0.0572 0.0777,0.0618 0.0737,0.0648 0.0696,0.0674 0.0686,0.0718 0.0642,0.0743 0.0597,0.0783 0.0568,0.0807 0.0538,0.0829 0.0491,0.0866 0.0441,0.0886 0.0408,0.0906 0.0373,0.094 0.0322,0.0958 0.0285,0.0972 0.0215,0.0988 0.0192,0.1018 0.012,0.103 0.008,0.1043 0.0037,0.1036 z m -0.8414,17.3303 v 0 -17.3303 h 0.8414 v 17.3303 z m -1.2007,2.0582 v -0.8414 0 l 0.0617,-4e-4 0.0608,-0.005 0.0595,-0.007 0.0582,-0.0111 0.0586,-0.0135 0.0555,-0.0171 0.0554,-0.0177 0.0555,-0.0229 0.052,-0.023 0.0518,-0.0281 0.0499,-0.0296 0.0493,-0.0313 0.0472,-0.0342 0.0449,-0.0356 0.0441,-0.0384 0.0432,-0.0412 0.039,-0.0422 0.038,-0.0447 0.0367,-0.0455 0.0338,-0.0477 0.0308,-0.0501 0.0293,-0.0504 0.0277,-0.0526 0.0244,-0.0544 0.0209,-0.0546 0.019,-0.0562 0.0153,-0.0578 0.0149,-0.0594 0.0094,-0.059 0.0088,-0.0604 0.0046,-0.0615 5e-4,-0.0642 h 0.8414 l -0.0037,0.1036 -0.008,0.1043 -0.012,0.103 -0.0192,0.1018 -0.0215,0.0988 -0.0285,0.0972 -0.0322,0.0958 -0.0373,0.094 -0.0408,0.0906 -0.0441,0.0886 -0.0491,0.0866 -0.0538,0.0829 -0.0568,0.0807 -0.0597,0.0783 -0.0642,0.0743 -0.0686,0.0718 -0.0696,0.0674 -0.0737,0.0648 -0.0777,0.0618 -0.08,0.0572 -0.0823,0.0543 -0.0859,0.0494 -0.088,0.0445 -0.0914,0.0428 -0.0917,0.0359 -0.095,0.0341 -0.0981,0.0271 -0.098,0.0233 -0.101,0.0177 -0.1023,0.0138 -0.1034,0.008 -0.1045,0.004 z m -10.0662,-0.8414 v 0 h 10.0662 v 0.8414 H 85.9409 Z m -2.0421,-1.2168 h 0.8414 v 0 l 5e-4,0.0642 0.0046,0.0615 0.0088,0.0604 0.0094,0.059 0.0149,0.0594 0.0153,0.0578 0.019,0.0562 0.0209,0.0546 0.0244,0.0544 0.0278,0.0526 0.0292,0.0504 0.0308,0.0501 0.0338,0.0477 0.0368,0.0455 0.0379,0.0447 0.039,0.0422 0.0432,0.0412 0.0441,0.0384 0.0449,0.0356 0.0472,0.0342 0.0493,0.0313 0.0499,0.0296 0.0518,0.0265 0.0521,0.0246 0.0554,0.0229 0.0554,0.0177 0.0555,0.0171 0.0586,0.0135 0.0582,0.0111 0.0595,0.007 0.0608,0.005 0.0617,4e-4 v 0.8414 l -0.1045,-0.004 -0.1034,-0.008 -0.1023,-0.0138 -0.101,-0.0177 -0.098,-0.0233 -0.0981,-0.0271 -0.095,-0.0341 -0.0916,-0.0359 -0.0915,-0.0412 -0.088,-0.0461 -0.0859,-0.0494 -0.0823,-0.0543 -0.08,-0.0572 -0.0777,-0.0618 -0.0737,-0.0648 -0.0696,-0.0674 -0.0686,-0.0718 -0.0641,-0.0743 -0.0598,-0.0783 -0.0568,-0.0807 -0.0538,-0.0829 -0.049,-0.0866 -0.0442,-0.0886 -0.0408,-0.0906 -0.0373,-0.094 -0.0322,-0.0958 -0.0285,-0.0972 -0.0215,-0.0988 -0.0192,-0.1018 -0.012,-0.103 -0.008,-0.1043 -0.0037,-0.1036 z m 0.8414,-17.3303 v 0 17.3303 h -0.8414 v -17.3303 z m 1.2007,-2.0582 v 0.8414 0 l -0.0617,4e-4 -0.0608,0.005 -0.0595,0.007 -0.0582,0.0111 -0.0586,0.0135 -0.0555,0.0171 -0.0554,0.0177 -0.0554,0.0229 -0.0521,0.0246 -0.0518,0.0265 -0.0499,0.0296 -0.0493,0.0313 -0.0472,0.0342 -0.0449,0.0356 -0.0441,0.0384 -0.0432,0.0412 -0.039,0.0422 -0.0379,0.0447 -0.0368,0.0455 -0.0338,0.0477 -0.0308,0.0501 -0.0292,0.0504 -0.0278,0.0526 -0.0244,0.0544 -0.0209,0.0546 -0.019,0.0562 -0.0153,0.0578 -0.0149,0.0594 -0.0094,0.059 -0.0088,0.0604 -0.0046,0.0615 -5e-4,0.0642 h -0.8414 l 0.0037,-0.1036 0.008,-0.1043 0.012,-0.103 0.0192,-0.1018 0.0215,-0.0988 0.0285,-0.0972 0.0322,-0.0958 0.0373,-0.094 0.0408,-0.0906 0.0442,-0.0886 0.049,-0.0866 0.0538,-0.0829 0.0568,-0.0807 0.0598,-0.0783 0.0641,-0.0743 0.0686,-0.0718 0.0696,-0.0674 0.0737,-0.0648 0.0777,-0.0618 0.08,-0.0572 0.0823,-0.0543 0.0859,-0.0494 0.088,-0.0461 0.0915,-0.0412 0.0916,-0.0359 0.095,-0.0341 0.0981,-0.0271 0.098,-0.0233 0.101,-0.0177 0.1023,-0.0138 0.1034,-0.008 0.1045,-0.004 z"
   class="fil2"
   id="path10" />
   </g>
   <path
   style="fill:#191919;stroke:#ffffff;stroke-width:1.39999998"
   id="path14"
   d="m 100.939,100.73 h 6.7929 c 0.8918,0 1.7287,0.8685 1.3381,1.6795 l -1.4936,3.1011 c -0.3905,0.8109 -1.1276,1.6375 -2.0189,1.6375 h -4.6185 c -0.8913,0 -1.6214,-0.7369 -1.6214,-1.6375 v -3.1431 c 0,-0.9006 0.7297,-1.6375 1.6214,-1.6375 z"
   class="fil0 str0" />
   <path
   style="fill:#191919;stroke:#ffffff;stroke-width:1.39999998"
   id="path16"
   d="m 100.939,108.883 h 2.8981 c 0.8918,0 1.7287,0.8686 1.3381,1.6795 l -1.4936,3.1011 c -0.3905,0.8108 -1.1277,1.6375 -2.0189,1.6375 h -0.7237 c -0.8913,0 -1.6214,-0.7369 -1.6214,-1.6375 v -3.1431 c 0,-0.9006 0.7297,-1.6375 1.6214,-1.6375 z"
   class="fil0 str0" />
   <path
   style="fill:#191919;stroke:#ffffff;stroke-width:1.39999998"
   id="path18"
   d="m 113.65,100.73 h 10.0662 c 0.8918,0 1.6214,0.7369 1.6214,1.6375 v 17.3303 c 0,0.9006 -0.7296,1.6375 -1.6214,1.6375 H 113.65 c -0.8918,0 -1.6214,-0.7369 -1.6214,-1.6375 v -17.3303 c 0,-0.9006 0.7296,-1.6375 1.6214,-1.6375 z"
   class="fil0 str0" />
   <path
   style="fill:#191919;stroke:#ffffff;stroke-width:1.39999998"
   id="path20"
   d="m 129.774,100.73 h 10.0662 c 0.8917,0 1.6214,0.7369 1.6214,1.6375 v 17.3303 c 0,0.9006 -0.7297,1.6375 -1.6214,1.6375 H 129.774 c -0.8918,0 -1.6214,-0.7369 -1.6214,-1.6375 v -17.3303 c 0,-0.9006 0.7296,-1.6375 1.6214,-1.6375 z"
   class="fil0 str0" />
   <path
   style="fill:#191919;stroke:#ffffff;stroke-width:1.39999998"
   id="path22"
   d="m 144.934,100.73 h 9.8296 c 0.8918,0 1.7309,0.8698 1.3381,1.6795 l -5.4681,11.2735 c -0.3927,0.8096 -1.1279,1.6375 -2.0189,1.6375 h -3.6807 c -0.8912,0 -1.6214,-0.7369 -1.6214,-1.6375 v -11.3155 c 0,-0.9006 0.7296,-1.6375 1.6214,-1.6375 z"
   class="fil0 str0" />
  </g>
 </g>
</svg>