<?xml version="1.0" encoding="UTF-8" standalone="no"?>
<svg
   xmlns:dc="http://purl.org/dc/elements/1.1/"
   xmlns:cc="http://creativecommons.org/ns#"
   xmlns:rdf="http://www.w3.org/1999/02/22-rdf-syntax-ns#"
   xmlns:svg="http://www.w3.org/2000/svg"
   xmlns="http://www.w3.org/2000/svg"
   xmlns:xlink="http://www.w3.org/1999/xlink"
   xml:space="preserve"
   enable-background="new 2.205 82.5 51.113 15.5"
   viewBox="2.205 82.5 134.79561 40"
   height="40"
   width="134.79559"
   y="0px"
   x="0px"
   id="Layer_1"
   version="1.1"><metadata
   id="metadata79"><rdf:RDF><cc:Work
       rdf:about=""><dc:format>image/svg+xml</dc:format><dc:type
         rdf:resource="http://purl.org/dc/dcmitype/StillImage" /><dc:title></dc:title></cc:Work></rdf:RDF></metadata><defs
   id="defs77" />
<g
   transform="matrix(2.756218,0,0,2.756218,-6.9125691,-146.24779)"
   id="g72">
	<g
   id="g50">
		<g
   id="g10">
			<defs
   id="defs3">
				<path
   d="m 17.568,82.994 h -7.043 c -4.059,0 -7.217,3.07 -7.217,7.128 v 7.044 c 0,0.169 0.005,0.34 0.174,0.34 h 7.043 c 4.06,0 7.595,-3.324 7.595,-7.383 v -6.979 c -0.001,-0.169 -0.383,-0.15 -0.552,-0.15 z"
   id="SVGID_1_" />
			</defs>
			<clipPath
   id="SVGID_2_">
				<use
   height="100%"
   width="100%"
   y="0"
   x="0"
   style="overflow:visible"
   id="use5"
   overflow="visible"
   xlink:href="#SVGID_1_" />
			</clipPath>
			<polygon
   style="fill:#b0d43f"
   id="polygon8"
   points="3.29,97.506 18.26,82.764 18.141,97.506 "
   clip-path="url(#SVGID_2_)" />
		</g>
		<g
   id="g20">
			<defs
   id="defs13">
				<path
   d="m 17.568,82.994 h -7.043 c -4.059,0 -7.217,3.07 -7.217,7.128 v 7.044 c 0,0.169 0.005,0.34 0.174,0.34 h 7.043 c 4.06,0 7.595,-3.324 7.595,-7.383 v -6.979 c -0.001,-0.169 -0.383,-0.15 -0.552,-0.15 z"
   id="SVGID_3_" />
			</defs>
			<clipPath
   id="SVGID_4_">
				<use
   height="100%"
   width="100%"
   y="0"
   x="0"
   style="overflow:visible"
   id="use15"
   overflow="visible"
   xlink:href="#SVGID_3_" />
			</clipPath>
			<polygon
   style="fill:#2f7e56"
   id="polygon18"
   points="18.526,82.57 3.308,97.591 3.308,82.659 "
   clip-path="url(#SVGID_4_)" />
		</g>
		<g
   id="g48">
			<defs
   id="defs23">
				<path
   d="m 17.568,82.994 h -7.043 c -4.059,0 -7.217,3.07 -7.217,7.128 v 7.044 c 0,0.169 0.005,0.34 0.174,0.34 h 7.043 c 4.06,0 7.595,-3.324 7.595,-7.383 v -6.979 c -0.001,-0.169 -0.383,-0.15 -0.552,-0.15 z"
   id="SVGID_5_" />
			</defs>
			<clipPath
   id="SVGID_6_">
				<use
   height="100%"
   width="100%"
   y="0"
   x="0"
   style="overflow:visible"
   id="use25"
   overflow="visible"
   xlink:href="#SVGID_5_" />
			</clipPath>
			<g
   id="g46"
   clip-path="url(#SVGID_6_)">
				<path
   style="fill:#fcfcfc"
   id="path28"
   d="m 4.389,86.681 c 0,0 2.476,0.695 2.885,0.695 0.41,0 1.781,-0.268 1.781,-0.268 0,0 1.229,0.071 1.871,0.659 0.641,0.588 3.812,3.705 3.812,3.705 0,0 0.347,0.739 -0.036,1.024 -0.383,0.284 -0.552,0.223 -0.552,0.223 0,0 -0.054,0.294 -0.33,0.534 -0.275,0.24 -0.561,0.124 -0.561,0.124 0,0 -0.009,0.205 -0.249,0.365 -0.241,0.16 -0.642,0.099 -0.642,0.099 0,0 -0.09,0.107 -0.24,0.258 -0.348,0.348 -0.855,0.071 -1.737,-0.543 -0.881,-0.614 -3.237,-2.592 -5.067,-3.02 -1.83,-0.428 -2.818,-0.08 -2.818,-0.08 0,0 -0.444,-4.579 1.883,-3.775 z" />
				<path
   style="fill:#222222"
   id="path30"
   d="m 14.906,91.3 c -0.411,-0.403 -0.822,-0.807 -1.234,-1.209 -0.664,-0.651 -1.33,-1.302 -2,-1.947 C 11.45,87.931 11.234,87.705 10.993,87.511 10.575,87.176 10.031,87.015 9.511,86.925 9.362,86.899 9.208,86.878 9.056,86.868 8.894,86.858 8.695,86.932 8.536,86.961 8.086,87.042 7.531,87.189 7.101,87.114 6.207,86.961 4.664,86.475 3.792,86.231 2.86,85.945 3.036,87.539 2.814,88.182 c -0.246,0.714 -0.422,1.464 -0.542,2.211 -0.026,0.165 0.105,0.361 0.296,0.296 0.621,-0.215 1.379,-0.144 2.011,-0.052 1.191,0.173 2.22,0.708 3.221,1.354 0.82,0.528 1.583,1.133 2.374,1.703 0.41,0.297 0.856,0.632 1.353,0.766 0.408,0.109 0.691,-0.092 0.945,-0.374 0.373,0.012 0.779,-0.112 0.949,-0.436 0.39,0.006 0.753,-0.323 0.903,-0.687 0.33,-0.051 0.667,-0.36 0.764,-0.631 0.092,-0.258 0.028,-0.824 -0.182,-1.032 z m -2.48,2.308 c 0.002,10e-4 0.004,10e-4 0.007,10e-4 -0.003,0 -0.005,0 -0.007,-10e-4 z m 2.198,-1.402 c -0.03,0.122 -0.212,0.206 -0.317,0.25 -0.018,0.008 -0.057,0.017 -0.102,0.029 -0.646,-0.646 -1.29,-1.29 -1.936,-1.935 -0.146,-0.146 -0.372,0.08 -0.227,0.227 0.625,0.625 1.251,1.25 1.876,1.875 -10e-4,0.001 -10e-4,0.002 -0.002,0.003 -0.047,0.233 -0.271,0.547 -0.532,0.507 -0.621,-0.621 -1.242,-1.242 -1.863,-1.863 -0.146,-0.146 -0.372,0.081 -0.227,0.227 0.584,0.584 1.168,1.168 1.752,1.752 -0.016,0.032 -0.025,0.066 -0.028,0.101 0.007,-0.087 -0.005,0.007 -0.014,0.026 -0.034,0.074 -0.104,0.136 -0.18,0.166 -0.112,0.047 -0.24,0.045 -0.359,0.04 -0.004,0 -0.024,-0.003 -0.043,-0.004 -0.004,-0.006 -0.007,-0.011 -0.013,-0.016 -0.385,-0.386 -0.771,-0.771 -1.155,-1.156 -0.146,-0.146 -0.373,0.08 -0.227,0.227 0.363,0.364 0.727,0.728 1.091,1.091 -0.031,0.037 -0.062,0.075 -0.092,0.106 -0.361,0.382 -0.939,-0.12 -1.27,-0.341 C 9.874,92.929 9.057,92.249 8.171,91.663 7.129,90.973 6.04,90.399 4.797,90.189 4.18,90.085 2.99,90.067 2.343,90.191 c -0.73,-0.465 0.11,-1.26 0.256,-1.745 0.127,-0.425 0.279,-0.6 0.652,-1.234 0.144,-0.243 0.274,-0.55 0.539,-0.468 0.672,0.188 1.879,0.539 2.558,0.701 0.306,0.073 0.64,0.177 0.957,0.172 0.452,-0.007 0.914,-0.112 1.356,-0.191 0.137,-0.023 0.272,-0.049 0.408,-0.075 0.005,0.001 0.011,0.002 0.021,0.003 0.065,0.005 0.131,0.013 0.195,0.021 0.512,0.073 1.071,0.216 1.469,0.564 0.562,0.491 1.083,1.037 1.618,1.558 0.629,0.612 1.256,1.227 1.883,1.842 0.08,0.079 0.16,0.158 0.24,0.236 0.021,0.021 0.035,0.036 0.043,0.046 0.076,0.182 0.133,0.392 0.086,0.585 z" />
				<path
   style="fill:#fcfcfc"
   id="path32"
   d="m 18.634,85.536 c 0,0 -3.839,1.995 -4.4,1.995 -0.561,0 -1.923,-1.188 -3.353,-1.202 -1.43,-0.013 -2.738,1.764 -2.726,1.87 0.014,0.107 0.655,0.775 1.604,-0.24 l 1.216,-0.16 3.66,3.54 c 0,0 1.402,-0.668 1.616,-1.002 0.214,-0.334 2.218,-0.814 2.218,-0.814 z" />
				<path
   style="fill:#222222"
   id="path34"
   d="m 18.908,85.489 c -0.063,-0.075 -0.104,-0.284 -0.807,-0.032 -0.021,0.007 -0.041,0.018 -0.059,0.03 -0.5,0.271 -1.004,0.535 -1.51,0.793 -0.702,0.358 -1.432,0.779 -2.196,0.991 -0.053,0.015 -0.096,0.02 -0.087,0.02 -0.06,0.004 -0.117,-0.017 -0.173,-0.033 -0.23,-0.071 -0.447,-0.202 -0.66,-0.314 -0.563,-0.298 -1.134,-0.588 -1.754,-0.749 -0.587,-0.152 -1.18,-0.138 -1.737,0.106 -0.498,0.218 -0.933,0.557 -1.317,0.938 -0.218,0.216 -0.423,0.453 -0.593,0.709 -0.121,0.18 -0.122,0.331 0.017,0.501 0.517,0.627 1.376,0.184 1.841,-0.264 0.338,-0.045 0.677,-0.09 1.016,-0.134 1.191,1.152 2.384,2.305 3.576,3.458 0.082,0.08 0.19,0.085 0.291,0.038 0.3,-0.144 0.595,-0.299 0.883,-0.464 0.19,-0.108 0.378,-0.224 0.552,-0.358 0.068,-0.053 0.135,-0.106 0.194,-0.17 0.068,-0.075 0.053,-0.081 0.106,-0.118 0.338,-0.231 0.788,-0.335 1.175,-0.449 0.286,-0.085 1.311,-0.37 1.602,-0.44 0.098,-0.025 -0.331,-4.028 -0.36,-4.059 z m -2.597,4.495 c -0.134,0.074 -0.214,0.181 -0.315,0.281 -0.155,0.152 -0.361,0.263 -0.547,0.372 -0.25,0.147 -0.507,0.283 -0.768,0.412 -0.914,-0.885 -1.828,-1.769 -2.742,-2.653 -0.212,-0.204 -0.423,-0.409 -0.635,-0.613 -0.106,-0.104 -0.209,-0.24 -0.373,-0.219 -0.359,0.047 -0.719,0.095 -1.077,0.142 -0.445,0.059 -0.671,0.645 -1.183,0.563 -0.087,-0.015 -0.164,-0.048 -0.229,-0.098 0.014,-0.02 0.027,-0.039 0.041,-0.059 0.255,-0.359 0.59,-0.686 0.938,-0.954 0.446,-0.344 0.965,-0.601 1.54,-0.586 0.67,0.016 1.314,0.321 1.898,0.621 0.404,0.208 0.845,0.523 1.307,0.574 0.259,0.027 0.534,-0.105 0.767,-0.2 0.826,-0.338 1.622,-0.753 2.412,-1.165 0.215,-0.112 0.763,-0.449 0.976,-0.563 0.076,1.092 0.521,2.229 0.597,3.32 -0.646,0.156 -2.03,0.506 -2.607,0.825 z" />
				<path
   style="fill:#fcfcfc"
   id="path36"
   d="m 7.654,90.559 c 0.188,0.188 0.188,0.492 0,0.68 L 7.2,91.692 c -0.188,0.188 -0.492,0.188 -0.68,0 v 0 c -0.188,-0.188 -0.188,-0.493 0,-0.681 l 0.453,-0.453 c 0.188,-0.187 0.493,-0.187 0.681,10e-4 z" />
				<path
   style="fill:#fcfcfc"
   id="path38"
   d="m 8.904,90.885 c 0.195,0.195 0.14,0.567 -0.125,0.832 L 8.141,92.355 C 7.876,92.62 7.504,92.676 7.309,92.481 v 0 C 7.114,92.286 7.169,91.913 7.434,91.649 L 8.072,91.01 c 0.264,-0.265 0.636,-0.321 0.832,-0.125 z" />
				<path
   style="fill:#fcfcfc"
   id="path40"
   d="m 10.573,92.487 c 0.214,0.214 0.198,0.576 -0.036,0.811 l -0.563,0.563 c -0.233,0.233 -0.596,0.249 -0.81,0.036 v 0 C 8.95,93.683 8.967,93.321 9.2,93.087 l 0.563,-0.564 c 0.234,-0.233 0.598,-0.249 0.81,-0.036 z" />
				<path
   style="fill:#fcfcfc"
   id="path42"
   d="m 10.006,91.399 c 0.213,0.214 0.138,0.636 -0.17,0.943 l -0.743,0.743 c -0.308,0.308 -0.73,0.384 -0.944,0.17 v 0 C 7.936,93.042 8.012,92.619 8.32,92.312 l 0.742,-0.743 c 0.308,-0.307 0.73,-0.383 0.944,-0.17 z" />
				<path
   style="fill:#222222"
   id="path44"
   d="M 10.805,92.397 C 10.792,92.369 10.772,92.342 10.743,92.318 10.72,92.29 10.693,92.27 10.667,92.257 10.548,92.173 10.411,92.119 10.271,92.103 10.396,91.851 10.424,91.582 10.241,91.313 10.228,91.284 10.207,91.254 10.177,91.229 10.151,91.198 10.122,91.177 10.093,91.165 9.809,90.971 9.525,91.014 9.26,91.156 9.256,91.04 9.22,90.923 9.142,90.803 9.129,90.772 9.108,90.741 9.076,90.714 9.048,90.681 9.017,90.659 8.986,90.648 8.645,90.421 8.313,90.547 8.019,90.766 7.995,90.659 7.948,90.555 7.885,90.465 7.872,90.439 7.853,90.412 7.825,90.388 7.802,90.361 7.776,90.342 7.75,90.329 7.535,90.176 7.264,90.122 7.013,90.244 c -0.174,0.084 -0.301,0.235 -0.435,0.37 -0.121,0.121 -0.248,0.234 -0.343,0.378 -0.184,0.277 -0.086,0.638 0.116,0.869 0.146,0.167 0.392,0.233 0.612,0.202 -0.034,0.191 0.007,0.387 0.176,0.587 0.163,0.193 0.42,0.215 0.656,0.158 -0.036,0.202 0.007,0.41 0.184,0.617 0.199,0.232 0.521,0.227 0.798,0.131 0.016,0.187 0.095,0.369 0.218,0.511 0.217,0.248 0.645,0.28 0.923,0.128 0.192,-0.105 0.337,-0.274 0.49,-0.428 0.15,-0.149 0.309,-0.291 0.431,-0.465 0.194,-0.277 0.149,-0.642 -0.034,-0.905 z M 6.691,91.521 C 6.467,91.326 6.79,91.083 6.918,90.955 7.064,90.808 7.26,90.532 7.484,90.728 7.68,90.953 7.405,91.148 7.257,91.294 7.11,91.442 6.914,91.718 6.691,91.521 Z m 0.788,0.79 C 7.224,92.095 7.786,91.637 7.923,91.499 8.087,91.335 8.473,90.835 8.734,91.055 8.955,91.316 8.454,91.702 8.29,91.866 8.125,92.029 7.74,92.53 7.479,92.311 Z M 8.32,93.086 C 8.022,92.831 8.696,92.275 8.861,92.11 9.054,91.918 9.532,91.307 9.837,91.569 10.098,91.874 9.488,92.35 9.295,92.544 9.102,92.738 8.624,93.347 8.32,93.086 Z m 1.785,0.305 c -0.188,0.187 -0.48,0.589 -0.771,0.337 -0.277,-0.243 0.141,-0.574 0.3,-0.733 0.187,-0.187 0.48,-0.589 0.77,-0.337 0.244,0.279 -0.118,0.551 -0.299,0.733 z" />
			</g>
		</g>
	</g>
	<g
   id="g70">
		<path
   style="fill:#2f7e56"
   id="path52"
   d="m 23.291,88.015 c 0.293,0.156 0.517,0.376 0.672,0.658 0.154,0.282 0.231,0.606 0.231,0.974 v 2.73 h -0.905 l -0.067,-0.6 C 23.083,92 22.883,92.17 22.62,92.289 c -0.264,0.118 -0.531,0.178 -0.805,0.178 -0.31,0 -0.588,-0.058 -0.836,-0.174 C 20.731,92.178 20.536,92.009 20.393,91.786 20.25,91.563 20.18,91.3 20.18,90.993 c 0,-0.46 0.161,-0.792 0.484,-0.996 0.323,-0.204 0.759,-0.306 1.309,-0.306 h 1.222 c -0.009,-0.231 -0.042,-0.415 -0.1,-0.553 -0.057,-0.137 -0.151,-0.236 -0.283,-0.302 -0.133,-0.064 -0.317,-0.097 -0.555,-0.097 -0.24,0 -0.45,0.06 -0.629,0.178 -0.179,0.119 -0.322,0.271 -0.43,0.458 l -0.843,-0.608 c 0.231,-0.315 0.499,-0.559 0.805,-0.73 0.305,-0.171 0.667,-0.257 1.088,-0.257 0.403,0 0.75,0.078 1.043,0.235 z m -0.677,3.383 c 0.168,-0.093 0.302,-0.217 0.401,-0.371 0.099,-0.155 0.16,-0.324 0.185,-0.507 v -0.036 h -1.163 c -0.237,0 -0.418,0.053 -0.543,0.157 -0.124,0.105 -0.187,0.234 -0.187,0.388 0,0.154 0.063,0.276 0.187,0.369 0.125,0.094 0.306,0.141 0.543,0.141 0.216,0 0.409,-0.047 0.577,-0.141 z" />
		<path
   style="fill:#2f7e56"
   id="path54"
   d="m 27.947,91.861 c 0.245,0.076 0.448,0.205 0.61,0.387 0.162,0.182 0.243,0.434 0.243,0.755 0,0.327 -0.086,0.604 -0.259,0.831 -0.173,0.228 -0.409,0.396 -0.71,0.508 -0.3,0.11 -0.642,0.166 -1.022,0.166 -0.46,0 -0.852,-0.068 -1.177,-0.205 -0.324,-0.137 -0.568,-0.326 -0.734,-0.567 -0.165,-0.242 -0.247,-0.519 -0.247,-0.831 0,-0.069 0.006,-0.135 0.018,-0.194 l 0.522,-0.441 c -0.294,-0.198 -0.441,-0.491 -0.441,-0.879 0,-0.192 0.035,-0.363 0.106,-0.514 0.07,-0.15 0.175,-0.285 0.313,-0.405 -0.12,-0.145 -0.212,-0.305 -0.277,-0.479 -0.064,-0.176 -0.097,-0.361 -0.097,-0.557 0,-0.318 0.084,-0.604 0.253,-0.854 0.168,-0.25 0.394,-0.446 0.676,-0.588 0.282,-0.141 0.589,-0.212 0.919,-0.212 0.195,0 0.383,0.025 0.563,0.074 0.181,0.05 0.347,0.121 0.5,0.215 l 0.689,-0.591 0.572,0.698 -0.653,0.527 c 0.129,0.231 0.193,0.493 0.193,0.784 0,0.324 -0.082,0.611 -0.247,0.86 -0.166,0.25 -0.388,0.442 -0.667,0.579 -0.279,0.137 -0.585,0.205 -0.915,0.205 -0.304,0 -0.589,-0.059 -0.856,-0.176 -0.087,0.058 -0.13,0.137 -0.13,0.239 0,0.102 0.041,0.181 0.123,0.236 0.083,0.056 0.192,0.096 0.329,0.122 0.137,0.025 0.341,0.053 0.61,0.083 0.055,0.009 0.106,0.016 0.156,0.021 0.049,0.004 0.095,0.01 0.137,0.016 0.355,0.048 0.654,0.11 0.9,0.187 z m -0.445,1.664 c 0.172,-0.09 0.257,-0.224 0.257,-0.4 0,-0.111 -0.038,-0.198 -0.114,-0.262 C 27.568,92.8 27.454,92.751 27.302,92.717 27.15,92.683 26.936,92.652 26.659,92.625 26.633,92.621 26.535,92.612 26.367,92.598 26.198,92.582 26.033,92.559 25.871,92.526 l -0.243,0.405 0.027,0.122 c 0.063,0.213 0.195,0.368 0.398,0.464 0.203,0.097 0.451,0.145 0.746,0.145 0.298,-0.001 0.532,-0.047 0.703,-0.137 z m -1.374,-4.67 c -0.132,0.148 -0.198,0.345 -0.198,0.588 0,0.237 0.065,0.429 0.196,0.574 0.13,0.146 0.314,0.219 0.552,0.219 0.238,0 0.42,-0.072 0.547,-0.219 0.128,-0.146 0.191,-0.337 0.191,-0.574 0,-0.243 -0.064,-0.439 -0.193,-0.588 -0.129,-0.149 -0.311,-0.224 -0.545,-0.224 -0.234,0 -0.418,0.076 -0.55,0.224 z" />
		<path
   style="fill:#2f7e56"
   id="path56"
   d="m 29.346,87.875 h 1.072 v 0.757 c 0.093,-0.264 0.252,-0.472 0.478,-0.624 0.226,-0.151 0.469,-0.228 0.73,-0.228 0.152,0 0.302,0.027 0.448,0.081 0.146,0.055 0.271,0.136 0.376,0.244 l -0.5,0.9 c -0.153,-0.102 -0.317,-0.152 -0.491,-0.152 -0.181,0 -0.351,0.058 -0.512,0.173 -0.16,0.116 -0.29,0.296 -0.39,0.539 -0.099,0.243 -0.148,0.547 -0.148,0.91 v 1.901 h -1.063 z" />
		<path
   style="fill:#2f7e56"
   id="path58"
   d="m 33.126,92.149 c -0.352,-0.212 -0.623,-0.497 -0.815,-0.856 -0.192,-0.359 -0.288,-0.752 -0.288,-1.179 0,-0.423 0.096,-0.813 0.288,-1.169 0.192,-0.356 0.464,-0.639 0.815,-0.85 0.352,-0.21 0.753,-0.315 1.203,-0.315 0.451,0 0.852,0.105 1.203,0.315 0.351,0.21 0.623,0.493 0.815,0.85 0.192,0.357 0.289,0.746 0.289,1.169 0,0.427 -0.097,0.819 -0.289,1.179 -0.192,0.358 -0.464,0.645 -0.815,0.856 -0.352,0.211 -0.752,0.317 -1.203,0.317 -0.45,0.001 -0.851,-0.106 -1.203,-0.317 z m 1.862,-0.82 c 0.174,-0.128 0.302,-0.298 0.383,-0.51 0.081,-0.211 0.122,-0.446 0.122,-0.704 0,-0.403 -0.096,-0.734 -0.286,-0.994 -0.191,-0.26 -0.483,-0.39 -0.877,-0.39 -0.265,0 -0.483,0.063 -0.657,0.188 -0.175,0.124 -0.303,0.29 -0.384,0.497 -0.081,0.208 -0.121,0.44 -0.121,0.699 0,0.258 0.04,0.493 0.121,0.704 0.081,0.212 0.209,0.382 0.384,0.51 0.174,0.128 0.393,0.191 0.657,0.191 0.264,0 0.483,-0.063 0.658,-0.191 z" />
		<path
   style="fill:#2f7e56"
   id="path60"
   d="m 37.666,92.298 c -0.26,-0.112 -0.479,-0.265 -0.657,-0.455 -0.178,-0.19 -0.306,-0.403 -0.381,-0.638 l 0.874,-0.388 c 0.078,0.21 0.19,0.386 0.338,0.527 0.147,0.141 0.354,0.212 0.622,0.212 0.159,0 0.293,-0.027 0.403,-0.081 0.109,-0.054 0.191,-0.122 0.245,-0.205 0.054,-0.083 0.081,-0.166 0.081,-0.25 0,-0.097 -0.035,-0.176 -0.105,-0.239 -0.071,-0.063 -0.159,-0.113 -0.264,-0.15 -0.105,-0.038 -0.257,-0.082 -0.455,-0.134 -0.298,-0.077 -0.542,-0.157 -0.732,-0.238 -0.191,-0.081 -0.356,-0.208 -0.496,-0.381 -0.14,-0.173 -0.209,-0.405 -0.209,-0.696 0,-0.304 0.076,-0.561 0.229,-0.771 0.153,-0.21 0.356,-0.368 0.61,-0.473 0.254,-0.105 0.531,-0.158 0.832,-0.158 0.381,0 0.718,0.086 1.009,0.257 0.291,0.172 0.524,0.412 0.698,0.721 l -0.852,0.465 c -0.093,-0.169 -0.209,-0.306 -0.349,-0.413 -0.14,-0.106 -0.321,-0.159 -0.543,-0.159 -0.175,0 -0.315,0.037 -0.422,0.112 -0.107,0.075 -0.159,0.167 -0.159,0.275 0,0.084 0.033,0.154 0.099,0.211 0.066,0.058 0.149,0.104 0.25,0.14 0.101,0.036 0.243,0.082 0.426,0.136 0.31,0.087 0.565,0.177 0.767,0.268 0.201,0.092 0.376,0.232 0.524,0.422 0.148,0.19 0.224,0.439 0.224,0.752 0,0.331 -0.085,0.608 -0.253,0.834 -0.168,0.226 -0.386,0.393 -0.653,0.502 -0.267,0.109 -0.551,0.165 -0.852,0.165 -0.306,-0.001 -0.589,-0.058 -0.849,-0.17 z" />
		<path
   style="fill:#2f7e56"
   id="path62"
   d="m 40.86,86.01 h 1.153 v 1.014 H 40.86 Z m 0.026,1.865 h 1.1 v 4.502 h -1.1 z" />
		<path
   style="fill:#2f7e56"
   id="path64"
   d="m 43.766,92.305 c -0.21,-0.108 -0.372,-0.263 -0.484,-0.462 -0.112,-0.2 -0.169,-0.437 -0.169,-0.71 v -2.338 h -0.726 v -0.92 h 0.744 v -1.117 l 1.081,-0.784 v 1.901 h 1.126 v 0.92 h -1.126 v 2.145 c 0,0.204 0.044,0.349 0.133,0.433 0.089,0.084 0.211,0.126 0.367,0.126 0.105,0 0.213,-0.016 0.324,-0.047 0.111,-0.032 0.212,-0.07 0.302,-0.115 v 0.996 c -0.096,0.035 -0.218,0.067 -0.367,0.094 -0.148,0.027 -0.3,0.041 -0.452,0.041 -0.292,-0.001 -0.543,-0.055 -0.753,-0.163 z" />
		<path
   style="fill:#2f7e56"
   id="path66"
   d="m 45.956,86.01 h 1.153 v 1.014 h -1.153 z m 0.027,1.865 h 1.1 v 4.502 h -1.1 z" />
		<path
   style="fill:#2f7e56"
   id="path68"
   d="m 48.705,92.149 c -0.352,-0.212 -0.624,-0.497 -0.815,-0.856 -0.192,-0.359 -0.289,-0.752 -0.289,-1.179 0,-0.423 0.097,-0.813 0.289,-1.169 0.191,-0.356 0.464,-0.639 0.815,-0.85 0.352,-0.21 0.752,-0.315 1.203,-0.315 0.45,0 0.852,0.105 1.203,0.315 0.351,0.21 0.623,0.493 0.815,0.85 0.192,0.357 0.288,0.746 0.288,1.169 0,0.427 -0.096,0.819 -0.288,1.179 -0.192,0.358 -0.464,0.645 -0.815,0.856 -0.352,0.211 -0.753,0.317 -1.203,0.317 -0.451,0.001 -0.851,-0.106 -1.203,-0.317 z m 1.861,-0.82 c 0.175,-0.128 0.302,-0.298 0.383,-0.51 0.081,-0.211 0.122,-0.446 0.122,-0.704 0,-0.403 -0.096,-0.734 -0.286,-0.994 -0.19,-0.26 -0.482,-0.39 -0.876,-0.39 -0.265,0 -0.484,0.063 -0.658,0.188 -0.174,0.124 -0.302,0.29 -0.383,0.497 -0.081,0.208 -0.122,0.44 -0.122,0.699 0,0.258 0.041,0.493 0.122,0.704 0.081,0.212 0.209,0.382 0.383,0.51 0.174,0.128 0.394,0.191 0.658,0.191 0.263,0.001 0.483,-0.063 0.657,-0.191 z" />
	</g>
</g>
</svg>