<?xml version="1.0" encoding="UTF-8" standalone="no"?>
<svg
   xmlns:dc="http://purl.org/dc/elements/1.1/"
   xmlns:cc="http://creativecommons.org/ns#"
   xmlns:rdf="http://www.w3.org/1999/02/22-rdf-syntax-ns#"
   xmlns:svg="http://www.w3.org/2000/svg"
   xmlns="http://www.w3.org/2000/svg"
   height="40"
   width="143.15022"
   id="logo-svg"
   xml:space="preserve"
   viewBox="0 0 143.15023 40.000001"
   y="0px"
   x="0px"
   version="1.1"><metadata
   id="metadata41"><rdf:RDF><cc:Work
       rdf:about=""><dc:format>image/svg+xml</dc:format><dc:type
         rdf:resource="http://purl.org/dc/dcmitype/StillImage" /><dc:title></dc:title></cc:Work></rdf:RDF></metadata><defs
   id="defs39" />
			<style
   id="style2"
   type="text/css">
				.st0{fill:#fff!important;}
				.logo-letter { transition: 1.4s all cubic-bezier(0.43, 0.3, 0.32, 1.02); }
				.letter1 { transform: translateX(15px) }
				.letter2 { transform: translateX(30px); transition-delay: 0.3s }
				.letter3 { transform: translateX(45px); transition-delay: 0.4s }
				.letter4 { transform: translateX(60px); transition-delay: 0.5s}
				.letter5 { transform: translateX(75px); transition-delay: 0.6s}
				.letter6 { transform: translateX(90px); transition-delay: 0.7s}
				.transitioned { width: 185px !important; transform: translateX(-20px); }
			</style>
			
			<path
   id="path4"
   d="m 44.105469,11.470703 c -3.949801,0 -6.472279,2.478969 -6.777344,5.275391 l -0.01172,0.111328 3.695313,0.822266 0.01563,-0.136719 c 0.08424,-0.770162 0.389099,-1.454859 0.908203,-1.947266 0.519103,-0.492407 1.253881,-0.796875 2.220703,-0.796875 1.009002,0 1.720436,0.260399 2.179688,0.669922 0.459251,0.409523 0.675781,0.971211 0.675781,1.613281 0,0.254334 -0.05668,0.474758 -0.208985,0.648438 -0.152304,0.17368 -0.411408,0.311613 -0.851562,0.371093 l -4.074219,0.621094 c -1.370649,0.201491 -2.591726,0.692619 -3.46875,1.50586 -0.876587,0.812835 -1.403175,1.951989 -1.378906,3.408203 v 0.002 c 1.2e-5,7.08e-4 -1.2e-5,0.0012 0,0.002 0.0022,2.55003 2.130509,4.888672 5.488281,4.888672 2.449287,0 3.949042,-1.204497 4.761719,-2.365235 0.02438,0.964496 0.105089,1.662543 0.132812,1.773438 l 0.02344,0.09375 h 3.761719 L 51.152344,27.875 c -0.01797,-0.06291 -0.07025,-0.344256 -0.113282,-0.771484 -0.04303,-0.427229 -0.08008,-1.012742 -0.08008,-1.728516 v -7.871094 c 0,-1.60107 -0.475231,-3.114123 -1.576172,-4.224609 -1.10094,-1.110486 -2.820664,-1.808594 -5.277343,-1.808594 z m 2.880859,9.306641 v 0.576172 c 0,1.515083 -0.441972,2.497805 -1.128906,3.107422 -0.686934,0.609616 -1.633075,0.852019 -2.667969,0.839843 h -0.002 c -1.436025,0 -2.185547,-0.907892 -2.185547,-1.912109 0,-0.615357 0.219956,-1.058628 0.578125,-1.384766 0.357759,-0.325764 0.861495,-0.5303 1.427734,-0.626953 z"
   style="color:#000000;font-style:normal;font-variant:normal;font-weight:normal;font-stretch:normal;font-size:medium;line-height:normal;font-family:sans-serif;font-variant-ligatures:normal;font-variant-position:normal;font-variant-caps:normal;font-variant-numeric:normal;font-variant-alternates:normal;font-feature-settings:normal;text-indent:0;text-align:start;text-decoration:none;text-decoration-line:none;text-decoration-style:solid;text-decoration-color:#000000;letter-spacing:normal;word-spacing:normal;text-transform:none;writing-mode:lr-tb;direction:ltr;text-orientation:mixed;dominant-baseline:auto;baseline-shift:baseline;text-anchor:start;white-space:normal;shape-padding:0;clip-rule:nonzero;display:inline;overflow:visible;visibility:visible;opacity:1;isolation:auto;mix-blend-mode:normal;color-interpolation:sRGB;color-interpolation-filters:linearRGB;solid-color:#000000;solid-opacity:1;vector-effect:none;fill:#008000;fill-opacity:1;fill-rule:nonzero;stroke:none;stroke-width:0.248;stroke-linecap:butt;stroke-linejoin:miter;stroke-miterlimit:4;stroke-dasharray:none;stroke-dashoffset:0;stroke-opacity:1;color-rendering:auto;image-rendering:auto;shape-rendering:auto;text-rendering:auto;enable-background:accumulate" /><path
   id="path8"
   d="m 59.773438,11.669922 c -4.435714,0 -7.449219,3.541465 -7.449219,7.820312 0,4.502172 3.164536,7.822266 7.449219,7.822266 2.166736,0 3.676739,-0.977677 4.445312,-2.150391 v 1.38086 c 0,1.581944 -0.373323,2.731113 -1.095703,3.486328 -0.72238,0.755215 -1.806988,1.130859 -3.275391,1.130859 -2.129553,0 -3.584131,-1.412443 -3.849609,-3.294922 l -0.01953,-0.138672 -0.134766,0.03711 -3.556641,0.947266 0.01367,0.107421 c 0.430792,3.243613 3.424362,5.892579 7.671875,5.892579 2.994599,0 5.066459,-1.001611 6.378906,-2.544922 1.312448,-1.543312 1.863282,-3.616161 1.863282,-5.748047 V 11.96875 h -3.898438 v 1.847656 c -0.76075,-1.204147 -2.220793,-2.146484 -4.542968,-2.146484 z m 0.595703,3.5 c 1.148935,0 2.130749,0.420617 2.830078,1.167969 0.699328,0.747351 1.117187,1.825312 1.117187,3.152343 0,1.340436 -0.406492,2.431373 -1.099609,3.1875 -0.693117,0.756127 -1.67369,1.183594 -2.847656,1.183594 -1.199825,0 -2.191789,-0.421004 -2.890625,-1.173828 -0.698837,-0.752824 -1.107422,-1.844189 -1.107422,-3.197266 0,-1.314375 0.419509,-2.392055 1.125,-3.142578 0.705491,-0.750523 1.69908,-1.177734 2.873047,-1.177734 z"
   style="color:#000000;font-style:normal;font-variant:normal;font-weight:normal;font-stretch:normal;font-size:medium;line-height:normal;font-family:sans-serif;font-variant-ligatures:normal;font-variant-position:normal;font-variant-caps:normal;font-variant-numeric:normal;font-variant-alternates:normal;font-feature-settings:normal;text-indent:0;text-align:start;text-decoration:none;text-decoration-line:none;text-decoration-style:solid;text-decoration-color:#000000;letter-spacing:normal;word-spacing:normal;text-transform:none;writing-mode:lr-tb;direction:ltr;text-orientation:mixed;dominant-baseline:auto;baseline-shift:baseline;text-anchor:start;white-space:normal;shape-padding:0;clip-rule:nonzero;display:inline;overflow:visible;visibility:visible;opacity:1;isolation:auto;mix-blend-mode:normal;color-interpolation:sRGB;color-interpolation-filters:linearRGB;solid-color:#000000;solid-opacity:1;vector-effect:none;fill:#008000;fill-opacity:1;fill-rule:nonzero;stroke:none;stroke-width:0.248;stroke-linecap:butt;stroke-linejoin:miter;stroke-miterlimit:4;stroke-dasharray:none;stroke-dashoffset:0;stroke-opacity:1;color-rendering:auto;image-rendering:auto;shape-rendering:auto;text-rendering:auto;enable-background:accumulate" /><path
   id="path12"
   d="m 79.140625,11.769531 c -1.989956,0 -3.630697,0.978814 -4.470703,2.541016 V 11.96875 h -3.921875 v 16.0625 h 4.021484 v -7.671875 c 0,-1.458934 0.325794,-2.586815 0.994141,-3.347656 0.668347,-0.760841 1.687796,-1.169922 3.128906,-1.169922 0.392101,0 0.805941,0.02285 1.21875,0.0957 l 0.01172,0.002 h 0.0098 0.150391 V 11.88481 l -0.107422,-0.01563 c -0.165621,-0.02366 -0.574451,-0.09961 -1.035156,-0.09961 z"
   style="color:#000000;font-style:normal;font-variant:normal;font-weight:normal;font-stretch:normal;font-size:medium;line-height:normal;font-family:sans-serif;font-variant-ligatures:normal;font-variant-position:normal;font-variant-caps:normal;font-variant-numeric:normal;font-variant-alternates:normal;font-feature-settings:normal;text-indent:0;text-align:start;text-decoration:none;text-decoration-line:none;text-decoration-style:solid;text-decoration-color:#000000;letter-spacing:normal;word-spacing:normal;text-transform:none;writing-mode:lr-tb;direction:ltr;text-orientation:mixed;dominant-baseline:auto;baseline-shift:baseline;text-anchor:start;white-space:normal;shape-padding:0;clip-rule:nonzero;display:inline;overflow:visible;visibility:visible;opacity:1;isolation:auto;mix-blend-mode:normal;color-interpolation:sRGB;color-interpolation-filters:linearRGB;solid-color:#000000;solid-opacity:1;vector-effect:none;fill:#008000;fill-opacity:1;fill-rule:nonzero;stroke:none;stroke-width:0.248;stroke-linecap:butt;stroke-linejoin:miter;stroke-miterlimit:4;stroke-dasharray:none;stroke-dashoffset:0;stroke-opacity:1;color-rendering:auto;image-rendering:auto;shape-rendering:auto;text-rendering:auto;enable-background:accumulate" /><path
   id="path16"
   d="m 88.525391,11.470703 c -4.779785,0 -8.316407,3.616514 -8.316407,8.517578 0,4.92559 3.536622,8.541016 8.316407,8.541016 4.804287,0 8.34375,-3.615426 8.34375,-8.541016 0,-4.901064 -3.539463,-8.517578 -8.34375,-8.517578 z m 0,3.675781 c 1.137076,0 2.207526,0.408218 2.996093,1.214844 0.788568,0.806627 1.300782,2.014522 1.300782,3.626953 0,3.250086 -2.024482,4.916016 -4.296875,4.916016 -2.246014,0 -4.294922,-1.691781 -4.294922,-4.916016 0,-1.612118 0.516822,-2.818176 1.308593,-3.625 0.791772,-0.806823 1.861988,-1.216797 2.986329,-1.216797 z"
   style="color:#000000;font-style:normal;font-variant:normal;font-weight:normal;font-stretch:normal;font-size:medium;line-height:normal;font-family:sans-serif;font-variant-ligatures:normal;font-variant-position:normal;font-variant-caps:normal;font-variant-numeric:normal;font-variant-alternates:normal;font-feature-settings:normal;text-indent:0;text-align:start;text-decoration:none;text-decoration-line:none;text-decoration-style:solid;text-decoration-color:#000000;letter-spacing:normal;word-spacing:normal;text-transform:none;writing-mode:lr-tb;direction:ltr;text-orientation:mixed;dominant-baseline:auto;baseline-shift:baseline;text-anchor:start;white-space:normal;shape-padding:0;clip-rule:nonzero;display:inline;overflow:visible;visibility:visible;opacity:1;isolation:auto;mix-blend-mode:normal;color-interpolation:sRGB;color-interpolation-filters:linearRGB;solid-color:#000000;solid-opacity:1;vector-effect:none;fill:#008000;fill-opacity:1;fill-rule:nonzero;stroke:none;stroke-width:0.248;stroke-linecap:butt;stroke-linejoin:miter;stroke-miterlimit:4;stroke-dasharray:none;stroke-dashoffset:0;stroke-opacity:1;color-rendering:auto;image-rendering:auto;shape-rendering:auto;text-rendering:auto;enable-background:accumulate" /><path
   id="path20"
   d="m 104.64062,11.470703 c -3.9498,0 -6.472274,2.478969 -6.777339,5.275391 l -0.01367,0.111328 3.695309,0.822266 0.0156,-0.136719 c 0.0842,-0.770162 0.3891,-1.454859 0.9082,-1.947266 0.5191,-0.492406 1.25388,-0.796875 2.2207,-0.796875 1.00901,0 1.72044,0.260399 2.17969,0.669922 0.45925,0.409523 0.67578,0.971211 0.67578,1.613281 0,0.254335 -0.0547,0.474758 -0.20703,0.648438 -0.1523,0.173679 -0.4114,0.311613 -0.85156,0.371093 h -0.002 l -4.07227,0.621094 c -1.37144,0.201313 -2.594185,0.692426 -3.474608,1.50586 -0.880423,0.813433 -1.411117,1.952089 -1.398438,3.410156 0.0011,2.54996 2.103308,4.890625 5.486326,4.890625 2.45145,0 3.95552,-1.205481 4.76758,-2.367188 0.03,0.970714 0.12876,1.680943 0.15234,1.775391 l 0.0234,0.09375 h 3.74219 l -0.0215,-0.140625 c -0.0138,-0.09672 -0.0613,-0.359502 -0.10742,-0.787109 -0.0461,-0.427608 -0.0898,-1.013455 -0.0898,-1.728516 v -7.871094 c 0,-1.60107 -0.47328,-3.114123 -1.57422,-4.224609 -1.10094,-1.110486 -2.82067,-1.808594 -5.27735,-1.808594 z m 2.87891,9.306641 v 0.576172 c 0,1.515083 -0.44002,2.497805 -1.12695,3.107422 -0.68694,0.609616 -1.63503,0.852019 -2.66992,0.839843 h -0.002 c -1.43602,0 -2.18359,-0.907892 -2.18359,-1.912109 0,-0.615357 0.218,-1.058628 0.57617,-1.384766 0.35776,-0.325764 0.86149,-0.5303 1.42774,-0.626953 z"
   style="color:#000000;font-style:normal;font-variant:normal;font-weight:normal;font-stretch:normal;font-size:medium;line-height:normal;font-family:sans-serif;font-variant-ligatures:normal;font-variant-position:normal;font-variant-caps:normal;font-variant-numeric:normal;font-variant-alternates:normal;font-feature-settings:normal;text-indent:0;text-align:start;text-decoration:none;text-decoration-line:none;text-decoration-style:solid;text-decoration-color:#000000;letter-spacing:normal;word-spacing:normal;text-transform:none;writing-mode:lr-tb;direction:ltr;text-orientation:mixed;dominant-baseline:auto;baseline-shift:baseline;text-anchor:start;white-space:normal;shape-padding:0;clip-rule:nonzero;display:inline;overflow:visible;visibility:visible;opacity:1;isolation:auto;mix-blend-mode:normal;color-interpolation:sRGB;color-interpolation-filters:linearRGB;solid-color:#000000;solid-opacity:1;vector-effect:none;fill:#008000;fill-opacity:1;fill-rule:nonzero;stroke:none;stroke-width:0.248;stroke-linecap:butt;stroke-linejoin:miter;stroke-miterlimit:4;stroke-dasharray:none;stroke-dashoffset:0;stroke-opacity:1;color-rendering:auto;image-rendering:auto;shape-rendering:auto;text-rendering:auto;enable-background:accumulate" /><path
   id="path24"
   d="M 125.07422,4.2460938 V 13.65625 c -0.59812,-1.008092 -1.94334,-2.111328 -4.51953,-2.111328 -4.53863,0 -7.67188,3.818193 -7.67188,8.417969 0,4.820184 3.11385,8.466797 7.72266,8.466797 2.14163,0 3.7127,-1.020611 4.53906,-2.291016 0.0149,0.639266 0.0598,1.463264 0.13086,1.794922 l 0.0215,0.09766 h 3.85156 l -0.0293,-0.146484 c -0.0212,-0.106219 -0.0665,-0.472272 -0.10352,-0.978516 -0.0346,-0.472571 -0.0607,-1.093045 -0.0645,-1.753906 h 0.0469 V 4.2460938 Z m -4.04688,10.8750002 c 1.21006,0 2.21259,0.455808 2.92188,1.279297 0.70928,0.823489 1.125,2.022122 1.125,3.513671 0,1.490872 -0.42664,2.726487 -1.14649,3.587891 -0.71984,0.861404 -1.73096,1.351563 -2.92578,1.351563 -1.25892,0 -2.28563,-0.485265 -3.00781,-1.339844 -0.72218,-0.85458 -1.13867,-2.084623 -1.13867,-3.576172 0,-1.489855 0.44523,-2.692837 1.18555,-3.523438 0.74031,-0.8306 1.77669,-1.292968 2.98632,-1.292968 z"
   style="color:#000000;font-style:normal;font-variant:normal;font-weight:normal;font-stretch:normal;font-size:medium;line-height:normal;font-family:sans-serif;font-variant-ligatures:normal;font-variant-position:normal;font-variant-caps:normal;font-variant-numeric:normal;font-variant-alternates:normal;font-feature-settings:normal;text-indent:0;text-align:start;text-decoration:none;text-decoration-line:none;text-decoration-style:solid;text-decoration-color:#000000;letter-spacing:normal;word-spacing:normal;text-transform:none;writing-mode:lr-tb;direction:ltr;text-orientation:mixed;dominant-baseline:auto;baseline-shift:baseline;text-anchor:start;white-space:normal;shape-padding:0;clip-rule:nonzero;display:inline;overflow:visible;visibility:visible;opacity:1;isolation:auto;mix-blend-mode:normal;color-interpolation:sRGB;color-interpolation-filters:linearRGB;solid-color:#000000;solid-opacity:1;vector-effect:none;fill:#008000;fill-opacity:1;fill-rule:nonzero;stroke:none;stroke-width:0.248;stroke-linecap:butt;stroke-linejoin:miter;stroke-miterlimit:4;stroke-dasharray:none;stroke-dashoffset:0;stroke-opacity:1;color-rendering:auto;image-rendering:auto;shape-rendering:auto;text-rendering:auto;enable-background:accumulate" /><path
   id="path28"
   d="m 136.89258,11.470703 c -3.33696,0 -5.9336,2.408218 -5.9336,5.240235 0,2.239462 1.49707,4.108483 4.34375,4.738281 l 2.33399,0.521484 c 0.61738,0.133161 1.06064,0.355467 1.3457,0.634766 0.28506,0.279298 0.41797,0.614891 0.41797,1.007812 0,0.450257 -0.18147,0.864322 -0.54883,1.173828 -0.36736,0.309507 -0.92573,0.513672 -1.68554,0.513672 -1.98359,0 -2.98421,-1.23359 -3.10352,-2.59375 l -0.0137,-0.148437 -0.14258,0.04102 -3.4043,0.947266 0.0117,0.103516 c 0.20574,1.851583 2.0053,4.878906 6.65235,4.878906 4.10143,0 6.10742,-2.714537 6.10742,-5.189453 0,-1.206802 -0.40317,-2.28348 -1.1875,-3.134766 -0.78433,-0.851286 -1.94429,-1.475819 -3.45313,-1.802734 v -0.002 l -2.41015,-0.496094 c -0.92875,-0.190512 -1.49024,-0.757604 -1.49024,-1.541016 0,-0.887796 0.87143,-1.689453 2.16016,-1.689453 1.02656,0 1.69021,0.351152 2.12109,0.808594 0.43088,0.457441 0.62837,1.029229 0.6875,1.466797 l 0.0176,0.142578 3.42187,-0.988281 -0.0176,-0.107422 c -0.12814,-0.807245 -0.55905,-1.935811 -1.52539,-2.867188 -0.96635,-0.931377 -2.46857,-1.658203 -4.70508,-1.658203 z"
   style="color:#000000;font-style:normal;font-variant:normal;font-weight:normal;font-stretch:normal;font-size:medium;line-height:normal;font-family:sans-serif;font-variant-ligatures:normal;font-variant-position:normal;font-variant-caps:normal;font-variant-numeric:normal;font-variant-alternates:normal;font-feature-settings:normal;text-indent:0;text-align:start;text-decoration:none;text-decoration-line:none;text-decoration-style:solid;text-decoration-color:#000000;letter-spacing:normal;word-spacing:normal;text-transform:none;writing-mode:lr-tb;direction:ltr;text-orientation:mixed;dominant-baseline:auto;baseline-shift:baseline;text-anchor:start;white-space:normal;shape-padding:0;clip-rule:nonzero;display:inline;overflow:visible;visibility:visible;opacity:1;isolation:auto;mix-blend-mode:normal;color-interpolation:sRGB;color-interpolation-filters:linearRGB;solid-color:#000000;solid-opacity:1;vector-effect:none;fill:#008000;fill-opacity:1;fill-rule:nonzero;stroke:none;stroke-width:0.248;stroke-linecap:butt;stroke-linejoin:miter;stroke-miterlimit:4;stroke-dasharray:none;stroke-dashoffset:0;stroke-opacity:1;color-rendering:auto;image-rendering:auto;shape-rendering:auto;text-rendering:auto;enable-background:accumulate" /><path
   id="path34"
   d="m 8.75,-0.12304688 c -2.3166433,0 -4.5106347,0.90689872 -6.171875,2.54296878 -1.63683642,1.6368364 -2.54296875,3.8307502 -2.54296875,6.171875 0,2.3166431 0.90689882,4.5086811 2.54296875,6.1699221 L 5.96875,18.126953 8.75,15.345703 5.4355469,11.929688 C 4.5397705,11.033911 4.0566406,9.8491104 4.0566406,8.6152344 c 0,-1.2593287 0.4831299,-2.4421143 1.3789063,-3.3378906 v -0.00195 H 5.4375 C 6.3076588,4.3568897 7.4906714,3.8730469 8.75,3.8730469 c 1.259328,0 2.442114,0.4831299 3.337891,1.3789062 l 6.191406,6.1914059 C 16.625772,11.77538 15.104844,12.561172 13.875,13.791016 l -3.376953,3.376953 -2.6562501,2.658203 -5.4375,5.412109 c -3.37457672,3.39976 -3.37419379,8.942213 0.025391,12.341797 1.6368364,1.636837 3.8298409,2.542969 6.1464844,2.542969 2.3166427,0 4.5076937,-0.906132 6.1445307,-2.542969 l 6.351563,-6.349609 -0.341797,0.03125 c -0.265699,0.02416 -0.53491,0.02344 -0.783203,0.02344 -1.470469,0 -2.746163,-0.343062 -3.753907,-0.736328 l -0.07422,-0.0293 -4.230469,4.203125 c -0.895776,0.895777 -2.0786238,1.378906 -3.3124997,1.378906 -1.2593288,0 -2.4440674,-0.483129 -3.3398438,-1.378906 -1.839725,-1.839725 -1.839725,-4.812618 0,-6.652344 l 5.3496095,-5.326171 3.339843,3.339843 c 1.636837,1.636836 3.828798,2.544922 6.169922,2.544922 2.316644,0 4.508681,-0.908852 6.169922,-2.544922 h 0.002 c 1.636836,-1.636836 2.542969,-3.828796 2.542969,-6.169922 0,-2.316643 -0.906899,-4.510634 -2.542969,-6.171874 L 14.919922,2.4199219 C 13.283086,0.78308535 11.091125,-0.12304687 8.75,-0.12304688 Z M 20.021484,15.244141 c 1.260918,0 2.495266,0.462062 3.388672,1.355468 0.895777,0.895777 1.378906,2.078562 1.378906,3.337891 0,1.259329 -0.483129,2.444067 -1.378906,3.339844 -0.895776,0.895776 -2.078561,1.378906 -3.33789,1.378906 -1.259328,0 -2.444068,-0.48313 -3.339844,-1.378906 l -3.337891,-3.339844 3.3125,-3.314453 c 0.895777,-0.895776 2.080577,-1.378906 3.314453,-1.378906 z"
   style="color:#000000;font-style:normal;font-variant:normal;font-weight:normal;font-stretch:normal;font-size:medium;line-height:normal;font-family:sans-serif;font-variant-ligatures:normal;font-variant-position:normal;font-variant-caps:normal;font-variant-numeric:normal;font-variant-alternates:normal;font-feature-settings:normal;text-indent:0;text-align:start;text-decoration:none;text-decoration-line:none;text-decoration-style:solid;text-decoration-color:#000000;letter-spacing:normal;word-spacing:normal;text-transform:none;writing-mode:lr-tb;direction:ltr;text-orientation:mixed;dominant-baseline:auto;baseline-shift:baseline;text-anchor:start;white-space:normal;shape-padding:0;clip-rule:nonzero;display:inline;overflow:visible;visibility:visible;opacity:1;isolation:auto;mix-blend-mode:normal;color-interpolation:sRGB;color-interpolation-filters:linearRGB;solid-color:#000000;solid-opacity:1;vector-effect:none;fill:#008000;fill-opacity:1;fill-rule:nonzero;stroke:none;stroke-width:0.248;stroke-linecap:butt;stroke-linejoin:miter;stroke-miterlimit:4;stroke-dasharray:none;stroke-dashoffset:0;stroke-opacity:1;color-rendering:auto;image-rendering:auto;shape-rendering:auto;text-rendering:auto;enable-background:accumulate" />
			</svg>