<?xml version="1.0" encoding="UTF-8" standalone="no"?>
<svg
   height="25"
   width="90.512642"
   id="svg12"
   version="1.1"
   viewBox="-4395.636 39.849 90.512638 24.999999"
   sodipodi:docname="ambito.svg"
   inkscape:version="1.2.2 (b0a8486541, 2022-12-01)"
   xmlns:inkscape="http://www.inkscape.org/namespaces/inkscape"
   xmlns:sodipodi="http://sodipodi.sourceforge.net/DTD/sodipodi-0.dtd"
   xmlns="http://www.w3.org/2000/svg"
   xmlns:svg="http://www.w3.org/2000/svg"
   xmlns:rdf="http://www.w3.org/1999/02/22-rdf-syntax-ns#"
   xmlns:cc="http://creativecommons.org/ns#"
   xmlns:dc="http://purl.org/dc/elements/1.1/">
  <sodipodi:namedview
     id="namedview307"
     pagecolor="#505050"
     bordercolor="#eeeeee"
     borderopacity="1"
     inkscape:showpageshadow="0"
     inkscape:pageopacity="0"
     inkscape:pagecheckerboard="0"
     inkscape:deskcolor="#505050"
     showgrid="false"
     inkscape:zoom="3.4530528"
     inkscape:cx="8.9775633"
     inkscape:cy="-13.176746"
     inkscape:window-width="1600"
     inkscape:window-height="826"
     inkscape:window-x="0"
     inkscape:window-y="0"
     inkscape:window-maximized="1"
     inkscape:current-layer="svg12" />
  <metadata
     id="metadata16">
    <rdf:RDF>
      <cc:Work
         rdf:about="">
        <dc:format>image/svg+xml</dc:format>
        <dc:type
           rdf:resource="http://purl.org/dc/dcmitype/StillImage" />
      </cc:Work>
    </rdf:RDF>
  </metadata>
  <defs
     id="defs4">
    <style
       id="style2">
      .cls-1 {
        fill: #fff;
      }
    </style>
  </defs>
  <g
     transform="matrix(0.07850526,0,0,0.07850526,-4395.636,39.849)"
     id="g836">
    <path
       style="fill:#0088cd"
       class="cls-1"
       d="m 202.33,78.31 h 67.49 V 106 h 0.86 c 9.95,-20.76 30.29,-33.74 56.25,-33.74 20.33,0 47.15,3.89 57.54,35.9 16.44,-27.26 32,-35.9 58,-35.9 39.81,0 61,19.89 61,64.89 V 312.37 H 433.36 V 152.73 c 0,-16.88 -7.35,-26.83 -20.34,-26.83 -13.4,0 -25.1,10.38 -25.1,33.31 V 312.37 H 317.84 V 152.73 c 0,-16.88 -7.36,-26.83 -20.34,-26.83 -13.41,0 -25.09,10.38 -25.09,33.31 v 153.16 h -70.08 z"
       id="path8" />
    <path
       style="fill:#0088cd"
       class="cls-1"
       d="m 525.6,3.46 h 70.09 v 100.37 h 0.86 c 11.68,-25.09 32.88,-31.57 52.36,-31.57 57.54,0 67.92,52.34 67.92,125 0,87.39 -25.09,121.15 -72.24,121.15 -31.16,0 -45.44,-18.62 -50.63,-34.63 h -0.86 v 28.56 h -67.5 z m 93.89,263.91 c 26.39,0 27.26,-35.9 27.26,-73.54 0,-42.4 -1.3,-70.53 -26.82,-70.53 -23.81,0 -25.54,32 -25.54,73.56 0,45.42 4.34,70.51 25.1,70.51 z"
       id="path10" />
    <path
       style="fill:#0088cd"
       class="cls-1"
       d="m 738.08,0 h 70.09 v 53.65 h -70.09 z m 0,78.31 h 70.09 v 234.06 h -70.09 z"
       id="path12" />
    <path
       style="fill:#0088cd"
       class="cls-1"
       d="m 849.28,126.76 h -29 V 78.31 h 29 V 9.52 h 70.08 v 68.79 h 32.45 v 48.45 h -32.45 v 118.12 c 0,16.44 6.07,21.63 22.51,21.63 a 75.77,75.77 0 0 0 9.94,-0.86 v 46.72 A 314,314 0 0 1 911.57,315 c -48.45,0 -62.29,-8.64 -62.29,-63.15 z"
       id="path14" />
    <path
       style="fill:#0088cd"
       class="cls-1"
       d="m 960,196 c 0,-70.1 15.57,-123.74 96.48,-123.74 85.66,0 96.47,52.34 96.47,122.44 0,70.1 -15.56,123.74 -96.47,123.74 C 970.85,318.44 960,266.09 960,196 Z m 97,-77.88 c -20.76,0 -26.83,20.33 -26.83,77 0,57.1 6.07,77.44 26.83,77.44 21.64,0 26,-19.47 26,-77 -0.09,-57.98 -4.41,-77.44 -26,-77.44 z"
       id="path16" />
    <path
       style="fill:#0088cd"
       class="cls-1"
       d="M 181.43,261.68 V 141.32 c 0,-44.27 -20.55,-64.84 -66.28,-68.63 L 159.35,8.4 H 91.79 L 67.88,74.07 c -13.76,2.19 -25,6.29 -35,13.11 C 16.45,98.44 6.93,117.93 6.5,150 h 62.35 c 0.43,-20.34 6.06,-32 25.54,-32 15.59,0 22.09,9.09 22.09,23.39 0,17.73 -3.9,21.21 -25.12,26.83 -19.49,5.2 -45.46,9.53 -62.78,19 C 11.26,196.69 0,219.68 0,247 c 0,50.67 23,71.45 62.36,71.45 23.37,0 45.46,-12.13 55,-32.91 h 0.87 c 0.43,9.09 1.3,18.61 3.9,26.84 h 67.54 c -8.24,-10.38 -8.24,-32.93 -8.24,-50.7 z m -65.38,-23.81 c 0,23.38 -13.42,32 -28.15,32 -13,0 -20.35,-11.26 -20.35,-29.88 0,-13 3.46,-20.35 10.82,-26 6.5,-5.21 16,-5.63 38.11,-17.32 0,9.58 -0.43,21.72 -0.43,41.2 z"
       id="path18" />
  </g>
</svg>
