<?xml version="1.0" encoding="UTF-8" standalone="no"?>
<svg
   xmlns:dc="http://purl.org/dc/elements/1.1/"
   xmlns:cc="http://creativecommons.org/ns#"
   xmlns:rdf="http://www.w3.org/1999/02/22-rdf-syntax-ns#"
   xmlns:svg="http://www.w3.org/2000/svg"
   xmlns="http://www.w3.org/2000/svg"
   height="32"
   width="136.89362"
   id="svg12"
   version="1.1"
   viewBox="-4395.636 39.849 136.89361 31.999999">
  <metadata
     id="metadata16">
    <rdf:RDF>
      <cc:Work
         rdf:about="">
        <dc:format>image/svg+xml</dc:format>
        <dc:type
           rdf:resource="http://purl.org/dc/dcmitype/StillImage" />
        <dc:title></dc:title>
      </cc:Work>
    </rdf:RDF>
  </metadata>
  <defs
     id="defs4">
    <style
       id="style2">
      .cls-1 {
        fill: #fff;
      }
    </style>
  </defs>
  <g
     style="stroke:#000000;stroke-width:2.74793363;stroke-miterlimit:4;stroke-dasharray:none"
     transform="matrix(0.62946556,0,0,0.62946556,-4394.7711,40.71454)"
     data-name="Group 1480"
     id="Group_1480">
    <path
       style="fill:#ffffff;stroke:#000000;stroke-width:2.74793363;stroke-miterlimit:4;stroke-dasharray:none"
       transform="translate(-80.2,-0.185)"
       d="m 194.252,19.149 c -4.728,-1.5 -8.757,-2.794 -8.757,-5.426 0,0 -0.161,-3.868 5.587,-3.868 a 19.956,19.956 0 0 1 6.93,1.5 v 0 c 6.232,2.471 8.81,-2.417 9.563,-4.513 A 1.331,1.331 0 0 0 207.199,5.342 13.061,13.061 0 0 0 203.385,2.978 31.347,31.347 0 0 0 191.3,0.4 c -9.831,0 -16.654,5.909 -16.654,14.344 V 14.9 c 0,10.476 14.612,13.914 15.526,14.075 0.054,0 0.054,0 0.107,0.054 4.513,1.343 8.434,2.579 8.434,5.265 0,0 0.161,4.3 -6.285,4.3 a 21.082,21.082 0 0 1 -9.724,-2.579 c -5.695,-2.256 -8.434,2.256 -9.294,4.19 a 1.312,1.312 0 0 0 0.322,1.5 c 0.322,0.269 0.7,0.645 1.289,1.074 a 31.681,31.681 0 0 0 17.137,5.265 c 10.691,0 17.352,-5.641 17.352,-14.774 v -0.161 c 0.052,-9.34 -15.258,-13.96 -15.258,-13.96 z"
       class="cls-1"
       data-name="Path 258"
       id="Path_258" />
    <path
       style="fill:#ffffff;stroke:#000000;stroke-width:2.74793363;stroke-miterlimit:4;stroke-dasharray:none"
       transform="translate(-153.782,-0.139)"
       d="m 353.252,19.1 c -4.728,-1.5 -8.757,-2.794 -8.757,-5.426 0,0 -0.161,-3.868 5.587,-3.868 a 19.956,19.956 0 0 1 6.93,1.5 v 0 c 6.232,2.471 8.81,-2.417 9.562,-4.513 A 1.331,1.331 0 0 0 366.198,5.293 13.061,13.061 0 0 0 362.384,2.929 30.47,30.47 0 0 0 350.3,0.3 c -9.831,0 -16.654,5.909 -16.654,14.344 V 14.8 c 0,10.476 14.612,13.914 15.526,14.075 0.054,0 0.054,0 0.107,0.054 4.513,1.343 8.434,2.579 8.434,5.265 0,0 0.161,4.3 -6.285,4.3 a 21.082,21.082 0 0 1 -9.724,-2.579 c -5.695,-2.256 -8.434,2.256 -9.294,4.19 a 1.312,1.312 0 0 0 0.322,1.5 c 0.322,0.269 0.7,0.645 1.289,1.074 a 31.681,31.681 0 0 0 17.137,5.265 c 10.691,0 17.352,-5.641 17.352,-14.774 V 33.009 C 368.509,23.723 353.252,19.1 353.252,19.1 Z"
       class="cls-1"
       data-name="Path 259"
       id="Path_259" />
    <path
       style="fill:#ffffff;stroke:#000000;stroke-width:2.74793363;stroke-miterlimit:4;stroke-dasharray:none"
       transform="translate(-41.049)"
       d="M 113.52,0 A 16.246,16.246 0 0 0 102.937,3.761 8.574,8.574 0 0 0 101.916,4.621 1.562,1.562 0 0 1 99.66,4.406 C 99.445,4.084 99.23,3.815 99.015,3.546 96.866,0.322 92.3,0.215 90.043,0.376 A 1.462,1.462 0 0 0 88.7,1.827 l 0.054,44.052 a 1.458,1.458 0 0 0 1.289,1.45 c 3.008,0.215 10.207,0 10.207,-7.629 V 21.113 c 0,-6.339 3.653,-10.422 9.348,-10.422 5.695,0 8.864,3.653 8.864,10.261 v 24.927 a 1.462,1.462 0 0 0 1.343,1.45 c 3.008,0.215 10.207,-0.161 10.207,-7.629 V 17.836 C 130.066,6.823 123.727,0 113.52,0 Z"
       class="cls-1"
       data-name="Path 260"
       id="Path_260" />
    <path
       style="fill:#ffffff;stroke:#000000;stroke-width:2.74793363;stroke-miterlimit:4;stroke-dasharray:none"
       transform="translate(-113.705)"
       d="m 284.81,28.311 a 5.5,5.5 0 0 0 5.533,-5.587 C 290.343,11.711 282.607,0 268.317,0 255.424,0 245.7,10.315 245.7,23.96 v 0.215 c 0,13.86 9.992,23.906 23.745,23.906 a 24.09,24.09 0 0 0 14.236,-4.244 16.24,16.24 0 0 0 3.062,-2.955 1.457,1.457 0 0 0 0.054,-1.665 c -1.182,-1.827 -4.459,-5.695 -9.079,-3.116 a 16.457,16.457 0 0 1 -8.112,2.256 c -6.285,0 -10.852,-3.814 -12.087,-9.992 h 27.291 z m -27.4,-8.112 v -0.107 0 c 1.128,-6.285 5.318,-10.315 10.8,-10.315 5.963,0 9.079,4.083 10.261,8.6 a 1.442,1.442 0 0 1 -1.4,1.773 z"
       class="cls-1"
       data-name="Path 261"
       id="Path_261" />
    <path
       style="fill:#ffffff;stroke:#000000;stroke-width:2.74793363;stroke-miterlimit:4;stroke-dasharray:none"
       transform="translate(0,-0.278)"
       d="M 36.209,5.811 C 32.932,2.427 27.721,0.6 21.113,0.6 A 38.475,38.475 0 0 0 7.951,2.8 21.164,21.164 0 0 0 3.707,5 1.453,1.453 0 0 0 3.116,6.665 c 0.752,2.2 3.116,6.984 9.724,5.1 v 0 a 26.035,26.035 0 0 1 6.93,-0.913 c 4.351,0 9.509,1.4 10.153,7.629 0,0 -4.889,-0.107 -9.939,0 C 8.166,18.758 0,24.13 0,33.585 v 0.161 c 0,9.939 8.434,14.5 16.278,14.5 6.876,0 10.906,-2.74 12.732,-4.459 a 1.388,1.388 0 0 1 2.1,0.269 c 2.256,3.223 6.447,3.546 8.6,3.492 a 1.434,1.434 0 0 0 1.4,-1.45 l 0.054,-26 C 41.151,13.869 39.486,9.088 36.209,5.811 Z m -17.084,33.63 c -4.781,0 -7.9,-2.364 -7.9,-6.071 v -0.161 c 0,-3.922 3.546,-6.447 9.294,-6.715 3.6,-0.161 9.616,-0.054 9.616,-0.054 l 0.054,4.137 c 0.003,5.103 -4.671,8.864 -11.064,8.864 z"
       class="cls-1"
       data-name="Path 262"
       id="Path_262" />
  </g>
</svg>
