<?xml version="1.0" encoding="UTF-8" standalone="no"?>
<svg
   height="30.006529"
   width="136.89395"
   id="svg12"
   version="1.1"
   viewBox="-4395.636 39.849 136.89395 30.006528"
   sodipodi:docname="anses.svg"
   xml:space="preserve"
   inkscape:version="1.2.2 (b0a8486541, 2022-12-01)"
   xmlns:inkscape="http://www.inkscape.org/namespaces/inkscape"
   xmlns:sodipodi="http://sodipodi.sourceforge.net/DTD/sodipodi-0.dtd"
   xmlns="http://www.w3.org/2000/svg"
   xmlns:svg="http://www.w3.org/2000/svg"
   xmlns:rdf="http://www.w3.org/1999/02/22-rdf-syntax-ns#"
   xmlns:cc="http://creativecommons.org/ns#"
   xmlns:dc="http://purl.org/dc/elements/1.1/"><sodipodi:namedview
     id="namedview12"
     pagecolor="#505050"
     bordercolor="#eeeeee"
     borderopacity="1"
     inkscape:showpageshadow="0"
     inkscape:pageopacity="0"
     inkscape:pagecheckerboard="0"
     inkscape:deskcolor="#505050"
     showgrid="false"
     inkscape:zoom="2.4197622"
     inkscape:cx="104.55573"
     inkscape:cy="-74.594106"
     inkscape:window-width="1600"
     inkscape:window-height="826"
     inkscape:window-x="0"
     inkscape:window-y="0"
     inkscape:window-maximized="1"
     inkscape:current-layer="svg12" /><metadata
     id="metadata16"><rdf:RDF><cc:Work
         rdf:about=""><dc:format>image/svg+xml</dc:format><dc:type
           rdf:resource="http://purl.org/dc/dcmitype/StillImage" /></cc:Work></rdf:RDF></metadata><defs
     id="defs4"><style
       id="style2">
      .cls-1 {
        fill: #fff;
      }
    </style></defs><path
     style="fill:#000000"
     id="path307"
     d="" /><path
     style="fill:#00589e;fill-opacity:1;stroke-width:0.583008"
     d="m -4323.7156,69.614903 c -2.829,-0.50557 -6.5856,-2.07609 -7.9763,-3.33466 -0.7576,-0.68562 -0.8767,-1.19874 -0.4592,-1.9788 0.913,-1.70595 2.6053,-1.85205 6.7225,-0.58036 5.1145,1.57968 6.9718,1.52997 8.7355,-0.23376 0.7871,-0.78706 1.4311,-1.7053 1.4311,-2.04053 0,-1.28442 -2.4196,-2.93371 -5.6614,-3.85903 -9.028,-2.57692 -11.0718,-4.53307 -10.5381,-10.086657 0.4851,-5.049091 3.9336,-7.652106 10.1373,-7.652106 3.9721,0 7.1425,0.876836 9.2242,2.551066 1.4555,1.170532 1.4891,1.310461 0.6134,2.550254 -1.0929,1.547348 -2.8764,1.660336 -6.9069,0.43757 -4.1726,-1.265904 -7.3627,-0.263864 -7.3627,2.312745 0,1.94612 1.5251,2.938947 7.1043,4.624919 6.7985,2.054419 8.6369,3.819879 8.6369,8.294029 0,1.75486 -0.3989,3.96211 -0.8865,4.905 -1.619,3.13087 -7.5641,5.02857 -12.8141,4.09032 z m 50.8972,-0.0423 c -3.2151,-0.54924 -8.6292,-3.33617 -8.6292,-4.44194 0,-0.42263 0.6725,-1.209 1.4943,-1.74749 1.4171,-0.92848 1.7153,-0.90975 5.7721,0.36253 5.855,1.83621 9.6409,1.04498 9.6409,-2.0149 0,-1.87183 -1.7519,-3.18472 -5.5855,-4.18581 -4.8029,-1.25418 -8.1767,-2.97475 -9.3559,-4.771268 -1.4284,-2.176002 -1.3538,-6.657653 0.1443,-8.664162 2.301,-3.081928 4.0745,-3.934835 8.6638,-4.166583 3.6593,-0.184787 4.7867,0.0048 7.5495,1.269678 3.3539,1.535453 3.6703,2.004719 2.6443,3.921772 -0.7401,1.382892 -2.4188,1.426928 -6.9002,0.181004 -2.9492,-0.819975 -3.6308,-0.838432 -5.0925,-0.137897 -1.3839,0.663327 -1.6875,1.174368 -1.6875,2.84146 0,2.00191 0.062,2.052707 4.0811,3.356301 6.5524,2.12517 9.6395,3.728145 10.5424,5.474275 1.117,2.16002 1.0436,6.6464 -0.1415,8.65266 -1.9641,3.32507 -7.4877,5.03605 -13.1404,4.07038 z m -122.8015,-0.47487 c 0.1068,-0.26659 2.949,-6.95129 6.3159,-14.8549 l 6.1215,-14.370189 2.3321,-0.0029 c 1.2826,-0.0016 2.6717,0.212616 3.0869,0.475998 0.5965,0.378415 12.9458,28.032901 12.9458,28.990351 0,0.13547 -1.3314,0.24631 -2.9587,0.24631 h -2.9587 l -1.5169,-3.51566 -1.5169,-3.51566 -6.6727,0.16336 -6.6728,0.16337 -1.0009,2.56268 c -0.5505,1.40947 -1.4868,2.918 -2.0807,3.35229 -1.1622,0.84974 -5.7457,1.10741 -5.4239,0.30491 z m 19.384,-11.67836 c 0.2097,-0.33919 -3.4052,-9.850812 -3.9514,-10.396903 -0.3713,-0.371357 -4.4814,9.798623 -4.1661,10.308743 0.3386,0.54799 7.7834,0.62885 8.1175,0.0882 z m 14.3332,-2.04775 c 0,-7.896119 0,-14.553342 0,-14.793833 0,-0.240491 1.2352,-0.437256 2.7448,-0.437256 3.0828,0 1.7621,-1.329252 11.8037,11.88072 2.7109,3.566219 5.1377,6.484039 5.3929,6.484039 0.2551,0 0.4679,-3.73854 0.4728,-8.307869 0.01,-4.569327 0.2185,-8.638006 0.4747,-9.04151 0.2562,-0.403505 1.4984,-0.797035 2.7604,-0.874512 l 2.2946,-0.140868 v 14.575199 14.5752 l -2.227,0.18337 c -1.2248,0.10086 -2.5805,-0.11005 -3.0126,-0.46868 -0.4321,-0.35863 -3.89,-4.75572 -7.6842,-9.77131 l -6.8985,-9.119245 -0.2915,8.548465 c -0.32,9.3851 -0.5501,10.00866 -3.9431,10.68727 l -1.887,0.37739 z m 55.9202,13.96876 c -0.1336,-0.13313 -0.1685,-6.82314 -0.078,-14.8667 l 0.1653,-14.624653 h 10.7661 10.7661 v 1.923926 c 0,3.070047 -0.6527,3.323146 -8.5702,3.323146 h -7.171 v 3.49805 3.498048 h 5.7003 c 6.5879,0 8.2919,0.72567 8.2919,3.531103 v 1.71597 h -6.9961 -6.9961 v 3.49805 3.49805 h 6.9961 c 6.2188,0 7.1256,0.12955 8.1621,1.16601 0.6413,0.64131 1.166,1.8219 1.166,2.62354 v 1.45752 h -10.98 c -6.039,0 -11.0893,-0.10893 -11.2229,-0.24206 z"
     id="path351" /></svg>
