<?xml version="1.0" encoding="UTF-8" standalone="no"?>
<svg
   xmlns:dc="http://purl.org/dc/elements/1.1/"
   xmlns:cc="http://creativecommons.org/ns#"
   xmlns:rdf="http://www.w3.org/1999/02/22-rdf-syntax-ns#"
   xmlns:svg="http://www.w3.org/2000/svg"
   xmlns="http://www.w3.org/2000/svg"
   height="41.923214"
   width="110.26087"
   xml:space="preserve"
   enable-background="new 0 0 214 114"
   viewBox="0 0 110.26087 41.923214"
   y="0px"
   x="0px"
   id="Layer_1"
   version="1.1"><metadata
   id="metadata46"><rdf:RDF><cc:Work
       rdf:about=""><dc:format>image/svg+xml</dc:format><dc:type
         rdf:resource="http://purl.org/dc/dcmitype/StillImage" /><dc:title></dc:title></cc:Work></rdf:RDF></metadata><defs
   id="defs44">
	
	
	


		
		
		
		
		
		
		</defs>

<g
   transform="matrix(0.49835902,0,0,0.49835902,-21.461897,38.40521)"
   id="g2766"><g
     id="text2783"
     style="font-style:normal;font-variant:normal;font-weight:bold;font-stretch:normal;font-size:41.67306519px;line-height:1.25;font-family:sans-serif;-inkscape-font-specification:'sans-serif Bold';letter-spacing:0px;word-spacing:0px;fill:#000000;fill-opacity:1;stroke:none;stroke-width:1.04182649"
     aria-label="i"><path
       id="path4402"
       style="font-style:normal;font-weight:400;font-size:34.375px;font-family:'MS Shell Dlg 2';display:inline;fill:#000000;fill-opacity:1;fill-rule:evenodd;stroke:#000000;stroke-width:4.0131712;stroke-linecap:square;stroke-linejoin:bevel;stroke-miterlimit:3.88640833;stroke-dasharray:none;stroke-opacity:1"
       d="m 226.53282,-29.627914 -0.2967,0.25265 -0.6764,0.61382 -0.1295,0.11761 0.017,0.0277 0.017,0.0281 0.018,0.0277 0.018,0.0277 0.018,0.0277 0.017,0.0281 0.017,0.0281 0.017,0.0281 0.016,0.0285 0.016,0.0289 0.015,0.0289 0.015,0.0293 0.015,0.0293 0.015,0.0297 0.015,0.0297 0.014,0.0301 0.013,0.0305 0.012,0.0305 0.011,0.0309 0.01,0.0309 0.01,0.0317 0.01,0.0316 0.01,0.0321 0.01,0.0324 0.01,0.032 0.01,0.0324 0.01,0.0324 v 0.0833 0.0328 0.0324 0.0328 0.0328 0.0324 0.0328 0.0324 0.032 l -4e-4,0.0324 v 0.032 l -0.01,0.0316 -0.01,0.0321 -0.011,0.0316 -0.011,0.0317 -0.01,0.0313 -0.01,0.0316 -0.01,0.0313 -0.01,0.0313 -0.011,0.0313 -0.011,0.0309 -0.011,0.0313 -0.01,0.0313 -0.01,0.0312 -0.01,0.0313 -0.01,0.0313 -0.01,0.0317 -0.01,0.032 -0.01,0.032 -0.01,0.0324 v 0.0324 0.0328 0.0328 0.0328 0.0328 0.0328 l -3e-4,0.0328 4e-4,0.0328 v 0.0324 0.0328 0.0328 0.0336 0.0332 0.0332 l 0.01,0.0328 0.01,0.0328 0.01,0.032 0.01,0.0309 0.011,0.0301 0.013,0.0289 0.016,0.027 0.019,0.0258 0.022,0.0246 0.024,0.0242 0.019,0.0176 0.031,0.0289 0.024,0.0235 0.024,0.0238 0.022,0.025 0.035,0.052 0.022,0.0254 0.022,0.0254 0.021,0.0254 0.02,0.0262 v 0.004 l 0.016,0.0234 0.018,0.0273 0.016,0.0285 0.015,0.0293 0.014,0.0297 0.013,0.0301 0.013,0.0309 0.012,0.0309 0.011,0.0309 0.012,0.0309 0.012,0.0309 0.012,0.0305 0.012,0.0309 0.012,0.0305 0.012,0.0309 0.011,0.0313 0.01,0.0316 0.01,0.0317 0.01,0.032 v 0.0324 0.032 0.0328 0.0328 l 0.001,0.0324 0.001,0.0332 7e-4,0.0328 0.001,0.0328 v 0.0328 0.043 l -0.1003,0.60027 0.058,0.11019 -0.034,0.13596 -0.017,0.0676 -0.1419,0.56927 0.089,0.23326 0.1089,0.28561 0.017,0.0195 0.3697,0.41664 0.1436,0.16606 0.5836,0.38407 0.2059,0.13519 0.1712,0.0973 0.1354,0.51317 0.1879,0.62319 0.046,0.11328 0.045,0.0633 0.1899,0.26491 -0.017,0.14651 0.019,0.0262 0.02,0.0258 0.019,0.0258 0.019,0.0258 0.019,0.0262 0.019,0.0258 0.019,0.0258 0.019,0.0262 0.019,0.0262 0.019,0.0266 0.019,0.0262 0.021,0.0254 0.022,0.0235 0.023,0.0227 0.024,0.0227 0.023,0.0231 0.023,0.0234 0.023,0.0235 0.023,0.0234 0.022,0.0238 0.021,0.025 0.019,0.0258 0.017,0.027 0.016,0.0277 0.015,0.0285 0.015,0.0289 0.014,0.0289 0.014,0.0293 0.014,0.0289 0.014,0.0289 0.013,0.0297 0.011,0.0301 0.011,0.0305 0.01,0.0305 0.01,0.0305 0.01,0.0305 0.01,0.0305 0.01,0.0305 0.01,0.0309 0.01,0.0309 0.01,0.0305 0.01,0.0309 0.01,0.0313 0.01,0.0309 0.01,0.0309 0.01,0.0309 0.01,0.0309 0.01,0.0312 0.01,0.0309 0.01,0.0313 0.01,0.0312 0.01,0.0313 0.01,0.0309 0.012,0.0313 0.01,0.0309 v 0.0305 l -0.01,0.0313 -0.013,0.0309 -0.016,0.0285 -0.02,0.0242 -0.024,0.0219 -0.026,0.0207 -0.026,0.0203 -0.03,0.0184 -0.022,0.0211 v 0.0332 l 0.015,0.0285 0.027,0.0164 0.031,0.0129 0.033,0.0105 0.032,0.006 0.034,-0.002 0.019,0.002 0.013,10e-4 0.032,0.0133 0.014,0.009 0.016,0.027 0.011,0.0309 v 0.008 l 0.01,0.0246 v 0.0317 0.0324 l -0.01,0.0313 -0.011,0.0301 -0.015,0.0289 -0.017,0.0273 -0.024,0.0227 -0.026,0.0199 -0.026,0.0188 -0.026,0.0195 -0.028,0.0199 -0.019,0.025 -0.01,0.034 v 0.0309 l 0.023,0.0191 0.034,0.0121 0.033,0.005 0.033,-4e-4 0.033,-0.004 0.033,-0.003 0.033,-0.005 0.033,-0.005 0.032,-0.002 0.034,0.005 0.027,0.0191 0.01,0.0289 v 0.032 l 7e-4,0.0336 3e-4,0.0332 4e-4,0.032 -4e-4,0.032 v 0.0321 0.0316 l -0.01,0.0317 -0.01,0.0313 -0.014,0.0289 -0.019,0.0254 -0.025,0.0219 -0.027,0.0184 -0.031,0.0125 -0.032,0.004 -0.033,8e-4 -0.033,-8e-4 -0.046,-7.7e-4 -0.3967,0.25084 -0.01,0.0317 -0.01,0.0316 -0.01,0.0313 v 0.0316 l 0.01,0.0316 v 0.032 l -0.01,0.0317 -0.01,0.0316 -0.01,0.0313 v 0.032 l -0.01,0.034 v 0.0309 l 0.02,0.0219 0.027,0.0184 0.03,0.0176 0.028,0.0191 0.024,0.0219 0.024,0.0219 0.026,0.0203 0.027,0.0191 0.028,0.0229 0.029,0.0152 0.03,0.0145 0.03,0.0137 0.03,0.0129 0.031,0.0113 0.031,0.0105 0.032,0.008 0.033,0.005 0.033,0.003 0.033,0.001 h 0.033 l 0.033,-0.001 0.033,-0.005 0.033,-0.007 0.018,-7.7e-4 0.015,-8e-4 0.032,0.006 0.032,0.01 0.032,0.01 0.032,0.007 h 0.034 l 0.034,-0.003 0.01,4e-4 0.023,4e-4 0.027,0.0121 0.021,0.0254 0.01,0.009 0.013,0.0199 0.015,0.0289 0.015,0.0285 0.02,0.0258 0.021,0.0246 0.022,0.0246 0.022,0.0242 0.021,0.0246 0.02,0.025 0.019,0.0258 0.017,0.027 0.014,0.0289 0.012,0.0301 0.01,0.0309 0.011,0.0305 0.01,0.0238 v 0.006 l 0.011,0.0301 0.011,0.0301 0.011,0.0301 0.011,0.0305 0.01,0.032 0.012,0.0293 0.021,0.0234 0.026,0.0191 0.029,0.0164 0.029,0.0164 0.029,0.016 0.029,0.0156 0.029,0.0152 0.029,0.0156 0.027,0.0176 0.027,0.0187 0.024,0.0215 0.021,0.025 0.017,0.0277 0.012,0.0293 v 0.0316 l 3e-4,0.0328 0.01,0.0312 0.01,0.0305 0.01,0.0328 0.018,0.0246 0.029,0.0168 0.028,0.0184 0.017,0.0262 0.01,0.0321 v 0.0316 0.032 0.032 l -3e-4,0.032 v 0.032 l 0.01,0.0316 0.01,0.0313 0.01,0.0313 0.01,0.0312 0.01,0.0309 0.01,0.0309 0.01,0.0312 0.01,0.0313 -10e-4,0.032 v 0.0317 0.0317 0.032 0.032 0.0316 l -0.016,0.0488 -0.01,0.0316 -0.01,0.0309 -0.01,0.0305 -0.01,0.0309 -0.01,0.0309 -0.01,0.0313 -0.01,0.0312 -0.01,0.0305 -0.013,0.0297 -0.014,0.0289 -0.014,0.0297 -0.013,0.0305 0.013,0.0258 0.024,0.0246 0.015,0.0285 0.014,0.0289 0.014,0.0297 0.014,0.0289 0.015,0.0285 0.017,0.0274 0.019,0.0266 0.017,0.0277 0.014,0.0289 0.012,0.0301 0.01,0.0313 0.01,0.0317 v 0.0317 0.0316 l -0.01,0.0317 -0.01,0.0262 -0.01,0.0363 -0.01,0.0309 -0.011,0.0305 -0.01,0.0301 -0.01,0.0316 v 0.0328 l -0.01,0.0301 -0.022,0.0246 -0.023,0.0242 -0.01,0.0297 v 0.0324 0.0328 0.0317 l -0.01,0.0313 -0.01,0.0309 -0.01,0.0309 -0.01,0.0312 -0.01,0.0309 v 0.032 l 7e-4,0.0215 7e-4,0.0105 v 0.0316 l -0.01,0.0313 -0.01,0.0312 v 0.0313 l 0.01,0.0313 0.01,0.0312 -0.01,0.0313 -0.01,0.0312 -8e-4,0.0293 v 0.006 l 0.01,0.0246 0.011,0.0301 0.017,0.0289 0.01,0.0301 v 0.0312 l -0.01,0.0321 -0.01,0.0316 -0.01,0.0317 -0.01,0.0313 -0.01,0.0313 -0.01,0.032 v 0.0328 l -0.01,0.0313 -0.016,0.0266 -0.02,0.0246 -0.023,0.0231 -0.024,0.0227 -0.032,0.0154 -0.042,0.0366 -0.024,0.0215 -0.015,0.0289 -0.016,0.0277 -0.024,0.0215 -0.026,0.0203 -0.019,0.015 -0.024,0.0227 -0.025,0.0211 -0.025,0.0211 -0.026,0.0199 -0.028,0.0176 -0.03,0.0145 -0.03,0.0149 -0.026,0.0184 -0.022,0.0242 -0.021,0.0254 -0.027,0.0199 -0.025,0.0199 -0.01,0.0313 -0.01,0.0309 -0.02,0.0246 -0.025,0.0219 -0.025,0.0207 -0.028,0.018 -0.026,0.0203 -0.025,0.0215 -0.024,0.0223 -0.021,0.025 -0.016,0.0277 -0.014,0.0293 -0.014,0.0293 -0.015,0.0285 -0.015,0.0289 -0.016,0.0281 -0.017,0.0273 -0.018,0.0266 -0.02,0.0258 -0.022,0.0242 -0.023,0.0235 -0.024,0.0219 -0.025,0.0203 -0.028,0.0172 -0.029,0.0152 -0.029,0.0156 -0.028,0.0172 -0.027,0.018 -0.027,0.0184 -0.028,0.0176 -0.027,0.018 -0.028,0.0172 -0.028,0.0164 -0.03,0.0145 -0.06,0.0242 -0.4961,0.8194905 -0.013,0.0234 -0.018,0.0317 -0.2793,0.49778 -0.1487,0.26569 -0.04,0.0711 -0.4543,0.69704 -0.4436,0.76541 -0.1133,0.1731 -0.024,0.0359 -0.047,0.0719 -0.3165,0.48409 -0.5012,0.76464 -0.1487,0.22701 -0.3561,0.53605 -0.383,0.57554 -0.1239,0.18598 -0.096,0.14417 -0.4115,0.61772 -0.5081,0.7615 -0.1445,0.21608 -0.3604,0.54739 -0.3078,0.46691 -0.1961,0.29771 -0.2878,0.43605 -0.2225,0.32468 -0.167,0.24341 -0.3047,0.44387 -0.046,0.0688 -0.1226,0.18128 -0.4624,0.61187 -0.13,0.19848 -0.5031,0.7658 -0.072,0.10901 -0.4439,0.64937 -0.1851,0.27077 -0.3213,0.49347 -0.2284,0.35086 -0.2768,0.41456 -0.1384,0.20707 -0.2842,0.44229 -0.019,0.0258 -0.018,0.0262 -0.018,0.0262 -0.019,0.0254 -0.02,0.0246 -0.022,0.0238 -0.023,0.023 -0.024,0.0219 -0.024,0.0215 -0.025,0.0199 -0.026,0.0188 -0.027,0.0183 -0.027,0.0176 -0.027,0.0176 -0.028,0.0168 -0.028,0.0422 h 0.1685 l 0.9366,-0.003 0.9292,-0.004 h 0.021 l 0.2425,-10e-4 0.7072,-0.005 0.9497,-0.007 0.5389,-0.004 h 0.087 l 0.3239,8e-4 0.9497,7.7e-4 h 0.7025 l 0.2472,-0.001 0.9498,-0.005 0.4424,-0.002 0.5074,0.004 0.9494,0.007 h 0.035 l 0.3314,-0.005 0.5836,-0.009 0.9171,-0.0141 0.032,-8e-4 0.2512,-0.004 0.048,-8.1e-4 0.1565,-0.003 0.4935,-0.008 0.1412,-0.003 0.3092,-0.002 0.181,-0.19224 0.2583,-0.27467 0.067,-0.0711 0.225,-0.23365 0.3481,-0.36218 0.5293,-0.51223 0.1283,-0.13949 0.2937,-0.31921 0.3134,-0.37431 0.062,-0.0668 0.571,-0.61771 0.4696,-0.51652 0.1507,-0.16606 0.5507,-0.6234 0.047,-0.0524 0.2209,-0.24343 0.4965,-0.52824 0.6309,-0.67319 0.03,-0.0317 0.6099,-0.65214 0.01,-0.006 0.024,-0.0254 0.1148,-0.12426 0.026,-0.044 0.3699,-0.41289 0.1821,-0.19535 0.2048,-0.21333 0.2488,-0.25904 0.638,-0.6654 0.6371,-0.70912 v -0.0489 -0.0371 -0.0371 l -0.01,-0.0738 -0.01,-0.0742 0.01,-0.0735 0.012,-0.0738 v -0.0375 -0.0375 l 0.019,-0.0707 0.037,-0.0656 0.019,-0.0258 0.01,-0.0129 0.016,-0.0226 0.046,-0.0496 0.01,-0.006 0.054,-0.0528 0.028,-0.0254 0.029,-0.0254 0.054,-0.0531 0.053,-0.0535 0.028,-0.0266 0.027,-0.0266 0.057,-0.0504 0.031,-0.0223 0.032,-0.0211 0.033,-0.0203 0.034,-0.0188 0.034,-0.0164 0.035,-0.0141 0.038,-0.01 0.039,-0.006 0.038,-0.004 0.039,-0.003 0.039,-7.7e-4 0.039,4e-4 0.039,0.002 0.039,0.003 0.039,0.004 0.038,0.007 0.035,0.0137 0.038,0.0289 0.044,0.0508 0.03,0.0692 0.068,0.0875 0.031,0.0234 0.032,0.0207 0.033,0.018 0.035,0.0152 0.036,0.0133 0.037,0.0125 0.037,0.0117 0.037,0.01 0.038,0.009 0.037,0.01 0.037,0.0117 0.036,0.0141 0.035,0.0156 0.036,0.0148 0.036,0.0129 0.037,0.009 0.038,0.007 0.038,0.005 0.039,0.003 0.038,8e-4 0.039,-0.002 0.039,-0.005 0.038,-0.007 0.037,-0.0102 0.036,-0.0148 0.036,-0.0137 0.037,-0.01 0.038,-0.009 0.038,-0.007 0.038,-0.002 0.038,0.005 0.037,0.009 0.037,0.0121 0.037,0.0137 0.036,0.0141 0.035,0.0156 0.034,0.0172 0.034,0.0184 0.034,0.018 0.034,0.0184 0.034,0.0191 0.032,0.0203 0.053,0.052 0.023,0.091 0.06,0.0477 0.031,0.0231 0.031,0.0223 0.061,0.0461 0.053,0.0559 0.054,0.0504 0.037,0.0102 0.04,0.004 0.038,0.007 0.05,0.0543 0.036,0.007 0.04,-8.1e-4 0.04,-0.002 0.072,0.008 0.057,0.0488 0.039,0.003 0.04,0.002 0.027,0.006 0.011,0.003 0.036,0.0137 0.035,0.016 0.034,0.0172 0.034,0.0184 0.033,0.0188 0.034,0.0176 0.034,0.0172 0.035,0.0168 0.036,0.0133 0.037,0.008 0.038,0.005 0.039,0.002 0.039,-4e-4 0.038,-0.003 0.038,-0.008 0.037,-0.0113 0.037,-0.0109 0.05,-0.0144 0.018,-0.005 0.01,-0.002 0.037,-0.009 0.038,-0.005 0.039,4e-4 0.038,-0.001 0.037,-0.009 0.036,-0.0137 0.035,-0.016 0.065,-0.0402 0.039,0.002 0.037,-0.007 0.065,-0.0399 0.063,-0.0102 v -0.002 l 0.023,-0.0305 0.013,-0.0695 -0.02,-0.0746 v -0.0707 l -0.022,-0.0633 0.024,-0.032 0.01,-0.0731 0.001,-0.0254 3e-4,-0.0117 v -0.0371 -0.0371 l 0.01,-0.0371 0.05,-0.0957 0.077,-0.0844 0.053,-0.0535 0.029,-0.0254 0.031,-0.0219 0.035,-0.0133 0.04,-0.004 0.069,-0.025 0.024,-0.0309 0.023,-0.0305 0.035,-0.0656 v -0.0746 l -0.02,-0.0711 -0.022,-0.0547 -0.01,-0.0148 -0.014,-0.0731 0.01,-0.0738 v -0.0738 -0.0735 l 0.01,-0.0371 0.01,-0.0367 0.013,-0.0731 0.018,-0.0723 0.022,-0.0715 0.015,-0.0445 0.019,-0.0617 0.019,-0.0719 v -0.0234 l 0.01,-0.0504 0.027,-0.0692 0.049,-0.0574 0.037,-0.0137 0.035,-0.0145 0.029,-0.0695 0.038,-0.0594 0.037,-0.0113 0.04,-0.008 0.06,-0.0445 0.044,-0.0602 0.039,-0.002 0.032,-0.0215 0.052,-0.0559 0.036,-0.005 0.036,-0.0113 0.035,-0.0164 0.061,-0.0449 0.05,-0.0567 0.035,-0.0664 0.035,-0.0668 0.038,-0.0641 0.029,-0.0258 0.014,-0.0438 0.01,-0.0254 0.028,-0.0688 0.035,-0.066 0.019,-0.0731 -0.017,-0.0711 -0.027,-0.0719 -3e-4,-0.0676 0.03,-0.0242 0.012,-0.0727 0.043,-0.0621 0.014,-0.0363 0.014,-0.036 0.047,-0.052 0.038,-0.0113 0.038,-0.0109 0.054,-0.0489 0.043,-0.0629 0.034,-0.0207 0.064,-0.0399 -3e-4,-0.0383 -4e-4,-0.0348 0.021,-0.0699 0.034,-0.0676 0.025,-0.0703 0.048,-0.0578 0.022,-0.0684 0.037,-0.0574 7e-4,-0.0762 v -0.0426 -0.0414 l 0.04,-0.0192 0.073,0.006 0.043,-0.0586 0.02,-0.0422 0.01,-0.0113 -0.035,-0.0164 -0.034,-0.0176 -0.035,-0.0168 -0.035,-0.0156 -0.036,-0.0133 -0.037,-0.0117 -0.037,-0.0106 -0.036,-0.0113 -0.036,-0.0133 -0.036,-0.0137 -0.036,-0.0141 -0.035,-0.016 -0.033,-0.018 -0.031,-0.0215 -0.029,-0.0254 -0.026,-0.0285 -0.021,-0.0309 -0.015,-0.0336 -0.01,-0.0367 -0.01,-0.0371 -0.01,-0.0367 v -0.0371 -0.0371 -0.0371 -0.0371 -0.0371 l -0.001,-0.0367 v -0.0371 -0.0371 -0.0371 -0.0375 -0.0234 -0.0141 -0.0367 l -0.01,-0.036 -0.013,-0.0355 -0.017,-0.034001 -0.01,-0.0106 -0.013,-0.0211 -0.024,-0.0297 -0.027,-0.0274 -0.03,-0.0227 -0.033,-0.0188 -0.036,-0.0152 -0.036,-0.0137 -0.036,-0.0133 -0.037,-0.0105 -0.038,-0.006 -0.038,-0.002 -0.039,10e-4 -0.039,0.005 -0.037,0.008 -0.036,0.0129 -0.034,0.0172 -0.033,0.0195 -0.033,0.0203 -0.031,0.0223 -0.029,0.0246 -0.03,0.0242 -0.032,0.0203 -0.034,0.0176 -0.035,0.016 -0.035,0.0164 -0.043,-0.0211 -0.034,-0.0168 -0.034,-0.0168 -0.034,-0.0168 -0.034,-0.0168 -0.034,-0.0168 -0.034,-0.0172 -0.022,-0.0105 -0.013,-0.006 -0.034,-0.0168 -0.034,-0.0168 -0.034,-0.0176 -0.034,-0.0176 -0.034,-0.0176 -0.033,-0.018 -0.033,-0.0191 -0.032,-0.0207 -0.03,-0.0235 -0.029,-0.025 -0.028,-0.0254 -0.03,-0.0238 -0.031,-0.0215 -0.033,-0.0191 -0.034,-0.018 -0.034,-0.0172 -0.034,-0.0176 -0.033,-0.0192 -0.032,-0.0203 -0.032,-0.0207 -0.031,-0.0219 -0.031,-0.0223 -0.031,-0.0223 -0.031,-0.0226 -0.026,-0.0199 v -0.003 l -0.03,-0.0231 -0.032,-0.0254 -0.027,-0.0226 -0.028,-0.0254 -0.028,-0.0258 -0.027,-0.0262 -0.028,-0.0258 -0.029,-0.0246 -0.03,-0.0231 -0.031,-0.0227 -0.03,-0.0231 -0.028,-0.0254 -0.02,-0.0207 -0.01,-0.007 -0.025,-0.0281 -0.024,-0.0289 -0.024,-0.0293 -0.023,-0.0297 -0.022,-0.0301 -0.022,-0.0305 -0.021,-0.0309 -0.021,-0.0313 -0.021,-0.0309 -0.022,-0.0309 -0.021,-0.0313 -0.019,-0.0324 -0.015,-0.0336 -0.013,-0.0352 -0.01,-0.027 v -0.009 l -0.013,-0.0356 -0.013,-0.0348 -0.015,-0.0348 -0.02,-0.0309 -0.025,-0.0281 -0.027,-0.027 -0.017,-0.0176 -0.01,-0.009 -0.025,-0.0285 -0.025,-0.0281 -0.016,-0.0191 -0.01,-0.009 -0.024,-0.0289 -0.024,-0.0293 -0.022,-0.0309 -0.02,-0.0312 -0.021,-0.0313 -0.021,-0.0309 -0.021,-0.0313 -0.021,-0.0309 -0.023,-0.0301 -0.024,-0.0289 -0.01,-0.007 -0.02,-0.0211 -0.026,-0.0273 -0.025,-0.0281 -0.023,-0.0293 -0.021,-0.0309 -0.01,-0.0129 -0.012,-0.0195 -0.018,-0.0332 -0.017,-0.0336 -0.016,-0.0336 -0.017,-0.0344 -0.016,-0.0352 -0.013,-0.0352 -0.01,-0.0355 v -0.0348 l 0.013,-0.0355 0.017,-0.0352 0.014,-0.0352 0.016,-0.0356 0.013,-0.0355 v -0.0356 l -0.01,-0.0356 -0.013,-0.0355 -0.016,-0.0352 -0.017,-0.0336 -0.019,-0.0324 -0.021,-0.0313 -0.022,-0.0305 -0.023,-0.0301 -0.023,-0.0297 -0.024,-0.0289 -0.025,-0.0281 -0.026,-0.0266 -0.028,-0.0254 -0.029,-0.0238 -0.03,-0.0231 -0.031,-0.0223 -0.031,-0.0215 -0.032,-0.0199 -0.034,-0.0184 -0.034,-0.018 -0.033,-0.0192 -0.031,-0.0215 -0.031,-0.0223 -0.03,-0.0227 -0.03,-0.0238 -0.029,-0.0246 -0.028,-0.0254 -0.027,-0.0266 -0.028,-0.027 -0.026,-0.0285 -0.025,-0.0355 -0.014,-0.0274 -0.01,-0.0348 -0.01,-0.0356 v -0.0371 -0.0375 -0.0379 -0.0379 -0.0375 -0.0375 -0.0371 l 4e-4,-0.0371 v -0.0231 -0.0141 -0.0371 l 0.01,-0.0363 0.01,-0.0367 0.01,-0.0363 0.01,-0.0367 0.01,-0.0363 0.01,-0.0367 0.01,-0.0367 0.01,-0.0363 0.01,-0.0375 v -0.0172 -0.0199 -0.0371 -0.006 -0.0188 -0.0117 -0.0363 l -0.01,-0.036 -0.013,-0.0359 -0.016,-0.034 -0.017,-0.0332 -0.019,-0.0324 -0.021,-0.0309 -0.023,-0.0301 -0.025,-0.0281 -0.028,-0.025 -0.03,-0.0242 -0.029,-0.0242 -0.031,-0.0227 -0.031,-0.0227 -0.028,-0.025 -0.022,-0.0297 -0.018,-0.0328 -0.015,-0.0348 -0.013,-0.0356 -0.012,-0.0352 v -0.009 l -0.01,-0.027 -0.01,-0.0367 -0.01,-0.0363 -0.012,-0.0352 -0.013,-0.0352 -0.011,-0.0356 -0.01,-0.0363 v -0.0367 -0.0375 -0.0371 -0.0371 -0.0375 l 3e-4,-0.0375 v -0.0371 l 0.01,-0.0363 0.01,-0.0363 0.015,-0.0355 0.02,-0.0313 0.027,-0.025 0.033,-0.0199 0.033,-0.0199 0.03,-0.0246 0.01,-0.006 0.022,-0.0207 0.024,-0.0297 0.014,-0.0324 v -0.0371 -0.0387 l -0.01,-0.036 -0.015,-0.0336 -0.019,-0.0328 -0.02,-0.032 -0.021,-0.032 -0.02,-0.0313 -0.022,-0.0305 -0.022,-0.0305 -0.02,-0.0312 -0.017,-0.0332 -0.014,-0.0344 -0.013,-0.0352 -0.013,-0.034 -3e-4,-0.001 -0.012,-0.0356 -0.012,-0.0359 -0.012,-0.0352 -0.015,-0.034 -0.02,-0.0313 -0.024,-0.0293 -0.024,-0.0293 -0.02,-0.0317 -0.017,-0.0328 -0.016,-0.034 -0.017,-0.0332 -0.023,-0.0406 -0.015,-0.0242 -0.02,-0.0313 -0.02,-0.032 -0.018,-0.0324 -0.017,-0.0336 -0.015,-0.034 -0.014,-0.0352 -0.011,-0.0355 -0.01,-0.0367 -0.01,-0.0375 v -0.0371 -0.0356 l 0.013,-0.0344 0.018,-0.0332 0.019,-0.0336 0.015,-0.0344 0.01,-0.0359 v -0.0371 -0.0375 -0.0375 -0.0371 -0.0371 l 0.001,-0.0375 -3e-4,-0.0371 v -0.0367 -0.0367 l -0.01,-0.0367 -0.01,-0.0367 -0.01,-0.0363 -0.01,-0.0363 -0.01,-0.0359 -0.011,-0.0356 -0.013,-0.0352 -0.012,-0.0352 -0.011,-0.0356 -0.01,-0.0363 -0.01,-0.0359 -0.01,-0.0367 -0.01,-0.0363 -0.01,-0.0363 -0.01,-0.0367 -0.01,-0.0367 v -0.0371 -0.0371 -0.0371 -0.0371 -0.0371 -0.0375 -0.0371 l -0.001,-0.0293 -3e-4,-0.008 7e-4,-0.0371 v -0.0371 -0.0379 l 0.01,-0.0375 0.01,-0.0371 0.012,-0.0344 0.017,-0.0316 0.026,-0.0266 0.031,-0.0231 0.032,-0.0223 0.03,-0.0238 0.03,-0.0226 0.031,-0.0231 0.029,-0.0234 0.027,-0.0266 0.024,-0.0285 0.023,-0.0301 0.021,-0.0317 0.019,-0.0324 0.016,-0.0336 0.012,-0.0344 0.01,-0.0363 0.01,-0.0395 v -0.0352 -0.0371 l 0.01,-0.0367 0.01,-0.0367 0.01,-0.0371 0.01,-0.0367 0.01,-0.0367 0.01,-0.0367 0.01,-0.0371 0.01,-0.0367 v -0.0367 -0.0371 -0.0371 -0.0375 -0.0371 l 7e-4,-0.0371 v -0.0363 l -0.011,-0.0352 -0.016,-0.0344 -0.016,-0.0344 -0.011,-0.0356 -0.01,-0.0363 v -0.0371 -0.0371 -0.0375 -0.0371 -0.0367 l -0.01,-0.0371 v -0.0367 l 6e-4,-0.0375 v -0.0379 -0.0375 -0.0363 l -0.011,-0.0348 -0.017,-0.0332 -0.02,-0.0324 -0.021,-0.0313 -0.024,-0.0293 -0.026,-0.0281 -0.024,-0.0289 -0.016,-0.0332 -0.013,-0.0359 -0.01,-0.0375 -0.01,-0.0375 -4e-4,-0.0359 0.01,-0.036 0.018,-0.0355 0.024,-0.0293 0.03,-0.0203 0.038,-0.0125 0.039,-0.005 0.037,0.003 0.036,0.0113 0.036,0.0156 0.034,0.0164 0.033,0.0192 0.032,0.0199 0.033,0.018 0.034,0.0176 0.035,0.0184 0.035,0.016 0.035,0.0106 0.037,0.002 0.041,-0.01 0.034,-0.0195 0.02,-0.0277 0.013,-0.0348 0.01,-0.0391 v -0.0387 l -3e-4,-0.0367 v -0.0367 l -4e-4,-7.7e-4 -0.01,-0.0359 -0.01,-0.0367 -0.01,-0.0371 -0.01,-0.0367 -0.01,-0.0367 -0.01,-0.0367 -0.01,-0.0367 v -0.0367 l 4e-4,-0.0371 v -0.0371 -0.0371 -0.0371 -0.0371 -0.0371 -0.0367 l 0.01,-0.0367 0.01,-0.0359 0.01,-0.0359 0.01,-0.0363 v -0.0367 -0.0375 l 0.001,-0.0379 v -0.0371 l -0.01,-0.0359 -0.012,-0.0348 -0.016,-0.0344 -0.018,-0.0332 -0.019,-0.0328 -0.019,-0.0324 -0.02,-0.0324 -0.023,-0.0297 -0.027,-0.0254 -0.032,-0.0195 -0.035,-0.0172 -0.034,-0.0164 -0.034,-0.0168 -0.034,-0.016 -0.034,-0.0164 -0.034,-0.0172 -0.034,-0.018 -0.033,-0.0184 -0.032,-0.0191 -0.031,-0.0215 -0.03,-0.0238 -0.026,-0.0266 -0.025,-0.0289 -0.023,-0.0305 -0.018,-0.032 -0.012,-0.0348 -0.01,-0.043 v -0.0324 -0.0363 l 0.01,-0.0367 0.014,-0.0359 0.018,-0.0324 0.025,-0.0266 0.031,-0.0215 0.032,-0.0219 0.027,-0.0258 0.026,-0.0281 0.024,-0.0285 0.025,-0.0273 0.028,-0.0258 0.027,-0.0262 0.025,-0.027 0.023,-0.0297 0.022,-0.0305 0.023,-0.0301 0.024,-0.0289 0.024,-0.0289 0.024,-0.0285 0.024,-0.0289 0.024,-0.0285 0.025,-0.0281 0.024,-0.0285 0.024,-0.0289 0.023,-0.0297 0.021,-0.0309 0.02,-0.0313 0.02,-0.032 0.02,-0.032 0.02,-0.0317 7e-4,-8e-4 0.02,-0.0305 0.022,-0.0305 0.022,-0.0312 0.02,-0.0313 0.017,-0.0328 0.013,-0.0348 0.01,-0.0367 v -0.0371 l 0.001,-0.0367 v -0.0371 -0.0375 -0.0371 l -0.01,-0.0371 v -0.0367 l -0.01,-0.0375 -0.01,-0.0367 -0.01,-0.0359 -0.012,-0.0348 -0.017,-0.0328 -0.02,-0.0309 -6e-4,-0.001 -0.022,-0.0309 -0.022,-0.0305 -0.022,-0.0301 -0.024,-0.0293 -0.024,-0.0293 -0.022,-0.0305 -0.019,-0.0324 -0.017,-0.0332 -0.017,-0.0336 -0.019,-0.0317 -0.025,-0.0277 -0.032,-0.0223 -0.03,-0.0234 -0.023,-0.0289 -0.019,-0.032 -0.063,0.007 -0.068,0.009 -0.066,0.008 -0.05,-0.006 -0.032,-0.0211 -0.019,-0.0312 0.014,-0.0578 0.01,-0.0317 0.01,-0.032 0.01,-0.0316 0.01,-0.0317 0.01,-0.0313 0.01,-0.032 0.01,-0.0317 0.01,-0.032 0.01,-0.032 v -0.0324 -0.0328 -0.0324 -0.0152 -0.0164 l 0.01,-0.0313 0.011,-0.0309 0.011,-0.0309 0.01,-0.0324 0.01,-0.0328 0.01,-0.0317 0.014,-0.0281 0.02,-0.0254 0.024,-0.0227 0.025,-0.0219 0.026,-0.0215 0.035,-0.0309 0.028,-0.0258 0.024,-0.0223 0.025,-0.0215 0.026,-0.0203 0.027,-0.018 0.03,-0.0156 0.03,-0.0156 0.028,-0.0172 0.026,-0.0199 0.026,-0.0219 0.023,-0.0238 0.019,-0.0262 0.016,-0.0289 0.014,-0.0305 0.011,-0.0316 0.01,-0.0317 v -0.032 -0.0328 l -0.01,-0.0324 -0.01,-0.0313 -0.013,-0.0297 -0.015,-0.0293 -0.016,-0.0293 -0.014,-0.0297 -0.014,-0.0301 -0.01,-0.0309 -0.01,-0.032 -0.01,-0.0328 v -0.0324 -0.0324 l 0.01,-0.0324 0.01,-0.0324 0.01,-0.0312 0.012,-0.0305 0.013,-0.0301 0.014,-0.0297 0.014,-0.0297 0.014,-0.0297 0.013,-0.0305 0.013,-0.0301 0.014,-0.0309 0.013,-0.0305 0.011,-0.0309 0.01,-0.0312 v -0.0317 l -0.01,-0.0328 -0.01,-0.0324 -0.013,-0.0301 -0.02,-0.0274 -0.021,-0.0273 -0.016,-0.0281 -0.01,-0.0309 v -0.032 l -4e-4,-0.0328 v -0.0328 -0.0332 -0.0332 -0.0328 -0.0324 -0.004 l 0.01,-0.0281 0.01,-0.0317 0.01,-0.0317 0.01,-0.0317 0.01,-0.032 0.01,-0.032 v -0.0324 -0.0328 l 3e-4,-0.0328 v -0.0328 -0.0324 l -0.01,-0.032 -0.01,-0.0317 -0.01,-0.0317 -0.01,-0.0313 -0.01,-0.0312 -0.01,-0.0317 -0.011,-0.0317 -0.011,-0.0313 -0.01,-0.0317 -0.01,-0.0317 -3e-4,-0.032 v -0.0324 l 0.01,-0.0324 0.01,-0.032 0.011,-0.0317 0.011,-0.0309 0.013,-0.0309 0.014,-0.0313 0.01,-0.0145 0.01,-0.0156 0.019,-0.0266 0.021,-0.0227 0.029,-0.0117 0.035,-0.003 0.035,4.09e-4 0.033,0.002 0.033,0.004 0.033,0.005 0.033,0.006 0.033,0.009 0.032,0.009 0.033,0.007 0.033,0.003 0.033,-4e-4 0.034,-0.004 0.033,-0.006 0.032,-0.009 0.032,-0.0109 0.031,-0.0141 0.029,-0.0172 0.026,-0.0199 0.024,-0.0223 0.023,-0.0238 0.022,-0.025 0.021,-0.0254 0.021,-0.0254 0.019,-0.027 0.018,-0.0274 0.019,-0.0273 0.021,-0.0254 0.022,-0.0246 0.024,-0.0246 0.024,-0.0231 0.026,-0.0199 0.028,-0.0156 0.031,-0.009 0.034,-0.006 0.034,-0.004 0.033,-0.004 0.033,-0.002 0.033,-7.6e-4 0.033,7.6e-4 0.033,0.003 0.033,0.006 0.033,0.007 0.032,0.008 0.032,0.009 0.032,0.0102 0.031,0.0113 0.029,0.0164 0.027,0.0211 0.028,0.0164 0.032,0.006 v 3.99e-4 l 0.03,0.003 0.033,7.7e-4 0.034,-4.1e-4 0.034,-0.002 0.033,-0.003 0.033,-0.004 0.033,-0.006 0.033,-0.007 0.032,-0.008 0.033,-0.008 0.032,-0.008 0.032,-0.008 0.033,-0.007 0.033,-0.007 0.033,-0.007 0.032,-0.007 0.032,-0.008 0.032,-0.009 0.031,-0.0113 0.01,-0.002 0.026,-0.01 0.031,-0.0113 0.031,-0.0109 0.035,-0.0133 0.027,-0.0109 0.03,-0.0129 0.031,-0.0137 0.03,-0.0137 0.03,-0.0141 0.03,-0.0145 0.029,-0.0156 0.028,-0.0172 0.028,-0.018 0.027,-0.0192 0.027,-0.0195 0.027,-0.0195 0.026,-0.0211 0.024,-0.0219 0.024,-0.0231 0.023,-0.0238 0.022,-0.0246 0.02,-0.0258 0.018,-0.0277 0.018,-0.0277 0.02,-0.0258 0.023,-0.0238 0.024,-0.0231 0.024,-0.0235 0.023,-0.0238 0.023,-0.0242 0.023,-0.0238 0.023,-0.0238 0.022,-0.0246 0.022,-0.0246 0.024,-0.0227 0.027,-0.0195 0.028,-0.0164 0.01,-0.005 0.02,-0.0102 0.03,-0.0148 0.03,-0.0145 0.029,-0.0156 0.03,-0.0156 0.029,-0.0152 0.029,-0.0152 0.03,-0.0156 0.029,-0.0156 0.029,-0.0152 0.03,-0.0152 0.03,-0.0156 0.029,-0.0164 0.028,-0.018 0.028,-0.0184 0.027,-0.0188 0.027,-0.0195 0.025,-0.0211 0.023,-0.023 0.021,-0.0262 0.018,-0.0289 0.024,-0.0606 3e-4,-0.0207 v -0.0109 l -0.01,-0.0332 -0.01,-0.0324 v -0.0332 l -0.01,-0.0324 -0.012,-0.0297 -0.019,-0.027 -0.021,-0.0262 -0.019,-0.0273 -0.012,-0.0297 -0.01,-0.0313 -0.01,-0.0324 v -0.0328 -0.0328 -0.0328 -0.0336 -0.0336 l 0.01,-0.0324 0.01,-0.0305 0.016,-0.027 0.023,-0.0246 0.026,-0.0227 0.025,-0.0215 0.027,-0.0195 0.028,-0.0184 0.028,-0.0176 0.029,-0.0168 0.018,-0.0105 0.04,-0.0219 0.03,-0.0145 0.03,-0.0133 0.031,-0.0133 0.031,-0.0117 0.032,-0.0102 0.032,-0.007 0.033,-0.004 0.033,-7.7e-4 0.034,-4e-4 0.033,-4e-4 0.033,-0.003 0.033,-0.004 0.033,-0.004 0.033,-0.004 0.033,-0.005 0.033,-0.006 0.032,-0.007 0.032,-0.009 0.032,-0.0102 0.031,-0.0125 0.03,-0.0145 0.028,-0.0168 0.028,-0.0184 0.027,-0.0195 0.026,-0.0211 0.024,-0.0223 0.023,-0.0234 0.023,-0.0254 0.02,-0.0273 0.016,-0.0285 0.01,-0.0301 7e-4,-0.0328 v -0.034 l 3e-4,-0.0328 0.01,-0.0317 0.011,-0.0305 0.015,-0.0301 0.016,-0.0289 0.017,-0.0281 0.02,-0.0262 0.021,-0.0258 0.02,-0.0262 0.019,-0.0274 0.018,-0.0277 0.019,-0.0269 0.02,-0.0258 0.023,-0.0234 0.025,-0.0219 0.026,-0.0207 0.025,-0.0215 0.023,-0.0238 0.021,-0.0258 0.019,-0.0273 0.019,-0.0273 0.021,-0.025 0.023,-0.0215 0.031,-0.0121 0.033,-0.007 0.032,-0.0102 0.032,-0.0109 0.031,-0.0102 0.032,-0.009 0.033,-0.005 0.033,-0.004 0.033,-0.004 0.033,-0.005 0.014,-0.003 0.018,-0.003 0.032,-0.009 0.032,-0.0117 0.031,-0.0137 0.028,-0.0176 0.023,-0.0223 0.021,-0.0254 0.019,-0.0274 0.018,-0.0281 0.016,-0.0289 0.012,-0.0301 v -0.0144 -0.0176 l 0.01,-0.032 0.011,-0.0309 0.015,-0.0289 0.017,-0.0281 0.018,-0.0277 0.018,-0.0277 0.016,-0.0285 0.014,-0.0297 0.012,-0.0305 0.011,-0.0305 0.011,-0.0313 0.01,-0.0313 0.01,-0.0312 0.01,-0.0317 0.01,-0.032 0.01,-0.0317 0.01,-0.0313 0.012,-0.0309 0.014,-0.0293 0.016,-0.0289 0.016,-0.0289 0.015,-0.0297 0.014,-0.0297 0.013,-0.0301 0.013,-0.0301 v -0.008 -0.005 l 0.019,-0.0477 0.012,-0.0305 0.011,-0.0309 0.012,-0.0363 0.01,-0.0266 0.01,-0.0313 0.01,-0.0313 0.01,-0.0316 0.01,-0.0317 0.01,-0.0317 0.01,-0.032 0.01,-0.032 0.01,-0.0324 0.01,-0.0324 v -0.0328 -0.0324 l -10e-4,-0.0324 -0.01,-0.032 -0.01,-0.032 -0.01,-0.032 -0.01,-0.0309 -0.012,-0.0309 -0.013,-0.0301 -0.011,-0.0309 -0.01,-0.032 -0.01,-0.0328 v -0.0336 -0.032 l 0.01,-0.0301 0.016,-0.0289 0.019,-0.0281 0.019,-0.0266 0.02,-0.0274 0.021,-0.0254 0.025,-0.0215 0.03,-0.0121 0.033,-0.006 0.032,-0.0102 0.03,-0.0152 0.029,-0.0164 0.03,-0.0137 0.032,-0.009 0.011,-0.002 0.022,-0.003 0.033,-0.003 0.033,-0.004 0.032,-0.007 0.031,-0.0121 0.03,-0.0152 0.028,-0.0176 0.025,-0.0211 0.024,-0.0227 0.027,-0.0192 0.03,-0.0141 0.031,-0.0113 0.031,-0.0121 0.029,-0.0152 0.026,-0.0195 0.025,-0.0219 0.028,-0.0297 0.017,-0.0184 0.021,-0.0258 0.02,-0.0262 0.019,-0.0273 0.018,-0.0277 0.017,-0.0281 0.016,-0.0285 0.015,-0.0289 0.014,-0.0297 0.013,-0.0305 0.012,-0.0305 0.011,-0.0309 0.01,-0.0316 0.01,-0.0317 0.01,-0.0324 v -0.0324 -0.0324 -0.0328 -0.0328 -0.0328 l -4e-4,-0.004 v -0.0289 -0.034 -0.0336 -0.0324 -0.0305 l 0.014,-0.027 0.023,-0.0242 0.026,-0.0231 0.023,-0.0246 0.019,-0.0266 0.018,-0.0277 0.017,-0.0281 0.015,-0.0297 0.012,-0.0301 0.01,-0.0316 0.01,-0.032 0.01,-0.0328 0.01,-0.032 0.01,-0.0317 0.011,-0.0309 0.001,-0.002 0.011,-0.0281 0.012,-0.0305 0.01,-0.0313 0.01,-0.0312 0.01,-0.0317 0.01,-0.0316 0.011,-0.0305 0.012,-0.0305 0.013,-0.0305 0.014,-0.0297 0.014,-0.0301 0.014,-0.0293 0.014,-0.0301 0.014,-0.0305 0.014,-0.0301 0.015,-0.0297 0.016,-0.0285 0.018,-0.027 0.02,-0.025 0.014,-0.0129 0.01,-0.009 0.027,-0.0195 0.029,-0.0176 0.03,-0.0156 0.029,-0.0149 0.031,-0.0113 0.032,-0.009 0.032,-0.009 0.032,-0.0102 0.032,-0.01 0.033,-0.009 0.031,-0.0121 0.027,-0.0172 0.023,-0.0227 0.02,-0.0254 0.019,-0.0277 0.019,-0.0277 0.02,-0.0273 0.021,-0.025 0.022,-0.0246 0.022,-0.0242 0.023,-0.0238 0.023,-0.0238 0.023,-0.0242 0.022,-0.027 0.021,-0.0254 0.021,-0.0255 0.021,-0.0257 0.02,-0.026 0.019,-0.0267 0.019,-0.027 0.019,-0.0269 0.019,-0.027 0.019,-0.0272 0.018,-0.0273 0.018,-0.0275 0.018,-0.0276 0.017,-0.028 0.016,-0.0281 0.016,-0.0284 0.013,-0.0298 0.01,-0.0325 v -0.0332 l 0.01,-0.0318 0.015,-0.0284 0.02,-0.0263 0.021,-0.0255 0.02,-0.0261 0.02,-0.0263 0.02,-0.0264 0.019,-0.0269 0.017,-0.0279 0.016,-0.0287 0.015,-0.0292 0.014,-0.0294 0.014,-0.0296 0.015,-0.0294 0.015,-0.0291 0.016,-0.0284 0.017,-0.0277 0.018,-0.0277 0.017,-0.0278 0.017,-0.0279 0.019,-0.0271 0.02,-0.0262 0.021,-0.0257 0.022,-0.0249 0.023,-0.0233 0.026,-0.0197 0.029,-0.0169 0.026,-0.0199 0.024,-0.0229 0.023,-0.0243 0.021,-0.0254 0.019,-0.0268 0.016,-0.0287 0.014,-0.0296 0.016,-0.029 0.017,-0.0277 0.019,-0.0271 0.021,-0.0302 0.015,-0.0211 v -0.003 l 0.018,-0.0274 0.017,-0.0283 0.016,-0.0286 0.017,-0.0283 0.018,-0.0276 0.02,-0.026 0.024,-0.0229 0.025,-0.0222 0.021,-0.0246 0.017,-0.0277 0.015,-0.0295 0.013,-0.0303 0.012,-0.0304 0.01,-0.0313 0.01,-0.0317 0.011,-0.0312 0.01,-0.0317 0.012,-0.0306 0.016,-0.0278 0.021,-0.0248 0.024,-0.0231 0.025,-0.0224 0.024,-0.0233 0.022,-0.0244 0.022,-0.025 0.02,-0.0257 0.018,-0.0273 0.016,-0.0286 0.014,-0.0296 0.013,-0.0302 0.013,-0.0303 0.012,-0.0304 0.011,-0.0308 0.01,-0.0313 0.01,-0.0314 0.01,-0.0322 v -0.0121 -0.0202 -0.0325 -0.0326 l 7e-4,-0.0328 7e-4,-0.0329 v -0.0327 -0.0329 -0.0329 l 0.01,-0.0322 0.01,-0.0313 0.011,-0.032 0.012,-0.0319 0.014,-0.0305 0.017,-0.0275 0.02,-0.023 0.029,-0.0146 0.034,-0.008 0.042,-0.002 0.024,0.003 0.033,0.008 0.033,0.005 0.032,-0.003 0.033,-0.006 0.032,-0.009 0.032,-0.0109 0.03,-0.0131 0.029,-0.0163 0.027,-0.0191 0.026,-0.0206 0.025,-0.0212 0.025,-0.0217 0.024,-0.0222 0.024,-0.0234 0.022,-0.0245 0.019,-0.0259 0.017,-0.0287 0.014,-0.0308 0.011,-0.0318 v -0.0315 -0.0311 l -0.012,-0.0313 -0.013,-0.0316 -0.01,-0.0318 v -0.0326 l -4e-4,-0.0333 v -0.0332 -0.0327 l 0.01,-0.0314 0.013,-0.0292 0.018,-0.0278 0.02,-0.027 0.018,-0.0279 0.015,-0.0293 0.012,-0.0304 0.012,-0.0307 0.013,-0.0302 0.015,-0.0289 0.018,-0.0273 0.02,-0.0264 0.02,-0.0259 0.02,-0.0257 0.02,-0.0263 0.019,-0.0264 0.017,-0.0225 v -0.004 l 0.019,-0.0265 0.019,-0.027 0.017,-0.0277 0.016,-0.029 0.015,-0.0298 0.015,-0.0293 0.017,-0.0277 0.02,-0.0255 0.048,-0.0449 0.025,-0.0216 0.024,-0.0223 0.022,-0.0242 0.02,-0.0257 0.021,-0.0263 v -0.005 l 0.018,-0.0221 0.018,-0.027 0.018,-0.0277 0.016,-0.0284 0.014,-0.029 0.011,-0.0297 0.01,-0.0316 v -0.0331 -0.0338 -0.0336 -0.0127 -0.0198 l -0.01,-0.0318 -0.011,-0.0315 -0.015,-0.0301 -0.019,-0.0271 -0.022,-0.0232 -0.025,-0.0203 -0.028,-0.0185 -0.028,-0.0178 -0.028,-0.0182 -0.026,-0.0195 -0.027,-0.0202 -0.026,-0.02 -0.027,-0.02 -0.026,-0.0208 -0.025,-0.0214 -0.024,-0.0227 -0.021,-0.0241 -0.019,-0.0263 -0.016,-0.0285 -0.014,-0.03 -0.013,-0.0307 -0.013,-0.0309 -0.013,-0.0302 -0.014,-0.0305 -0.013,-0.0309 -0.01,-0.0313 v -0.0315 l 0.001,-0.0324 0.01,-0.0327 0.01,-0.0325 0.01,-0.0317 0.01,-0.0316 0.01,-0.0315 0.011,-0.0312 0.012,-0.0306 0.013,-0.0298 0.016,-0.0284 0.039,-0.0531 0.019,-0.0268 0.017,-0.0281 0.015,-0.0292 0.014,-0.0299 0.013,-0.03 0.013,-0.0302 0.014,-0.0296 0.017,-0.0289 0.017,-0.0285 0.013,-0.0297 0.01,-0.0314 v -0.0323 l 7e-4,-0.033 -0.001,-0.0331 v -0.0331 -0.0328 -0.0326 -0.0326 -0.0327 -0.0326 -0.0326 -0.0327 -0.0327 -0.0326 -0.0326 -0.0324 -0.0324 -0.0324 -0.0326 -0.0327 -0.0328 -0.0324 l -0.01,-0.0318 -0.01,-0.0311 -0.012,-0.0306 -0.012,-0.0307 -0.011,-0.031 -0.01,-0.0314 -0.01,-0.0315 -0.01,-0.0316 -0.01,-0.0318 -0.01,-0.0319 -0.01,-0.0322 -0.01,-0.0323 -0.01,-0.0323 -0.01,-0.0323 -0.01,-0.0321 -0.01,-0.0321 -0.01,-0.0317 -0.01,-0.0313 -0.011,-0.0306 -0.012,-0.0304 -0.013,-0.0303 -0.012,-0.0306 -0.012,-0.0305 -0.012,-0.0308 -0.01,-0.0311 -0.01,-0.032 v -0.0324 -0.0327 -0.0328 -0.0327 -0.0335 -0.0343 l -0.01,-0.0314 -0.017,-0.025 -0.027,-0.0187 -0.031,-0.0166 -0.028,-0.0167 -0.029,-0.0155 -0.029,-0.016 -0.027,-0.0186 -0.024,-0.0216 -0.023,-0.0235 -0.022,-0.0248 -0.021,-0.025 -0.022,-0.025 -0.023,-0.025 -0.021,-0.0261 -0.016,-0.0276 -0.01,-0.0301 v -0.0384 -0.0282 -0.0331 -0.0328 l 0.01,-0.0329 0.01,-0.0323 0.01,-0.0308 0.015,-0.0286 0.019,-0.0266 0.022,-0.0247 0.024,-0.0228 0.026,-0.0199 0.028,-0.0165 0.029,-0.0167 0.027,-0.0191 0.026,-0.0201 0.025,-0.021 0.024,-0.0225 0.022,-0.024 0.022,-0.0251 0.02,-0.0258 0.02,-0.0255 0.021,-0.0251 0.023,-0.0244 0.023,-0.0244 0.022,-0.0249 0.02,-0.0257 0.017,-0.0273 0.011,-0.0301 0.01,-0.0324 0.01,-0.0331 0.01,-0.0324 0.01,-0.0316 0.01,-0.0315 0.01,-0.0318 0.01,-0.0324 0.01,-0.0335 0.01,-0.0336 v -0.0326 -0.0304 l -0.014,-0.0277 -0.021,-0.0257 -0.025,-0.024 -0.025,-0.0231 -0.025,-0.0209 -0.028,-0.0182 -0.027,-0.0195 -0.022,-0.0239 -0.019,-0.027 -0.018,-0.0275 -0.019,-0.0265 -0.023,-0.0316 -0.016,-0.0212 -0.02,-0.0263 -0.021,-0.0252 -0.023,-0.0247 -0.016,-0.0278 -0.01,-0.0319 v -0.0337 -0.0322 l 0.01,-0.0309 0.015,-0.0299 0.019,-0.0276 0.021,-0.0245 0.024,-0.0228 0.025,-0.0214 0.025,-0.0209 0.026,-0.0202 0.026,-0.0192 0.027,-0.0188 0.027,-0.0189 0.026,-0.0198 0.025,-0.021 0.024,-0.022 0.024,-0.0223 0.024,-0.0223 0.024,-0.0216 0.026,-0.0207 0.026,-0.0191 0.029,-0.0154 0.03,-0.0134 0.03,-0.0137 0.029,-0.0163 0.028,-0.0181 0.028,-0.0182 0.028,-0.0195 0.025,-0.021 0.022,-0.0231 0.018,-0.0262 0.013,-0.0295 0.01,-0.032 0.01,-0.0329 0.01,-0.0325 0.01,-0.0321 0.01,-0.0326 v -0.033 -0.0328 l -4e-4,-0.005 -7e-4,-0.0277 -0.01,-0.0315 -0.011,-0.0308 -0.014,-0.0306 -0.012,-0.0308 -0.01,-0.0316 v -0.0324 -0.0329 -0.0329 -0.0652 -0.0327 -0.0327 -0.0327 -0.0328 -0.0328 l 3e-4,-0.0326 v -0.0323 l 0.01,-0.0323 0.01,-0.032 0.01,-0.032 0.01,-0.0322 0.01,-0.0326 0.01,-0.0325 0.01,-0.0318 0.01,-0.0308 0.017,-0.0275 0.021,-0.0259 0.018,-0.0276 0.016,-0.0285 0.016,-0.029 0.015,-0.0288 0.016,-0.0285 0.017,-0.0282 0.017,-0.0281 0.017,-0.0281 0.016,-0.0285 0.015,-0.0292 0.014,-0.0297 0.013,-0.03 0.013,-0.0302 0.013,-0.0304 0.013,-0.0303 0.013,-0.0307 0.01,-0.0311 v -0.0319 l -7e-4,-0.0329 v -0.0328 -0.0327 -0.0325 l -0.01,-0.0324 -0.01,-0.0322 -0.01,-0.0315 -0.011,-0.0308 -0.012,-0.0308 -0.01,-0.031 -0.01,-0.0321 -0.01,-0.0328 v -0.0325 l 0.01,-0.0308 0.014,-0.03 0.015,-0.0297 0.01,-0.0155 0.01,-0.0156 0.012,-0.0316 0.014,-0.0296 0.019,-0.0249 0.028,-0.0164 0.02,-0.006 0.013,-0.004 0.032,-0.004 0.033,0.002 0.032,-0.007 0.032,-0.0116 0.028,-0.0172 0.023,-0.0228 0.022,-0.0256 0.019,-0.0274 0.016,-0.0286 0.011,-0.03 v -0.0328 l -4e-4,-0.0337 -7e-4,-0.0328 -0.001,-0.025 -4e-4,-0.008 v -0.0328 -0.0327 -0.0324 l -0.01,-0.032 -0.01,-0.0318 -0.01,-0.0317 -0.084,-0.0122 -0.073,-0.0115 -0.061,-0.0141 -0.024,-0.0256 -0.01,-0.0309 -0.012,-0.0594 -0.01,-0.0327 -0.01,-0.0317 -0.013,-0.0309 -0.01,-0.0327 v -0.0336 l -3e-4,-0.0336 v -0.0332 l -0.01,-0.0315 -0.017,-0.0293 -0.014,-0.0306 -0.013,-0.0309 -0.011,-0.0316 -0.01,-0.0325 -0.01,-0.0329 -0.01,-0.0329 -0.01,-0.0327 -0.01,-0.0318 -0.011,-0.0315 -0.01,-0.0321 -0.01,-0.0321 -0.01,-0.0321 -0.01,-0.032 -0.01,-0.032 -0.01,-0.032 -0.01,-0.0327 -0.01,-0.0328 -0.01,-0.0325 -0.01,-0.0321 -0.01,-0.032 -0.01,-0.0321 -0.01,-0.0326 v -0.0331 -0.0334 -0.0331 l -0.01,-0.0324 -0.01,-0.0318 -0.011,-0.0316 -0.013,-0.0308 -0.013,-0.031 -0.01,-0.032 -0.01,-0.0324 -0.011,-0.0314 -0.014,-0.0301 -0.017,-0.029 -0.02,-0.0266 -0.024,-0.0223 -0.028,-0.0179 -0.029,-0.0177 -0.029,-0.0172 -0.029,-0.0179 -0.026,-0.0206 -0.024,-0.0229 -0.027,-0.0201 -0.028,-0.0178 -0.029,-0.017 -0.029,-0.0175 -0.028,-0.0182 -0.027,-0.0189 -0.028,-0.019 -0.027,-0.0195 -0.027,-0.0201 -0.028,-0.0197 -0.023,-0.0231 -0.016,-0.0282 -0.013,-0.0309 -0.012,-0.0318 -0.011,-0.0319 -0.011,-0.0316 -0.01,-0.032 -0.01,-0.0323 -0.01,-0.0327 -0.001,-0.0335 v -0.0333 l 0.01,-0.0329 0.01,-0.0322 0.014,-0.0302 0.019,-0.031 0.016,-0.0258 0.019,-0.0274 0.021,-0.0256 0.023,-0.0245 0.024,-0.0238 0.024,-0.0236 0.024,-0.0234 0.024,-0.0237 0.023,-0.0238 0.024,-0.0237 0.024,-0.023 0.025,-0.0223 0.028,-0.0191 0.028,-0.0181 0.025,-0.0218 0.023,-0.024 0.022,-0.0253 0.022,-0.0253 0.022,-0.025 0.022,-0.0252 0.021,-0.0257 0.02,-0.0269 0.018,-0.0278 0.018,-0.0284 0.017,-0.0289 0.016,-0.0293 0.018,-0.035 0.013,-0.0249 0.015,-0.0312 0.01,-0.0313 3e-4,-0.0314 -0.013,-0.0319 -0.015,-0.0305 -0.018,-0.0283 -0.016,-0.0291 -0.014,-0.0305 -0.013,-0.0311 -0.01,-0.0317 -0.01,-0.0326 v -0.0331 -0.0331 l -0.01,-0.0326 -0.01,-0.0319 -0.012,-0.0314 -0.011,-0.0314 -0.011,-0.0316 -0.011,-0.0316 -0.012,-0.0318 -0.01,-0.0319 -0.01,-0.0323 v -0.0331 l -7e-4,-0.0337 v -0.0339 l 0.01,-0.0399 0.01,-0.0248 0.015,-0.0302 0.017,-0.0293 0.017,-0.0288 0.017,-0.0288 0.018,-0.0281 0.02,-0.027 0.021,-0.0253 0.024,-0.0236 0.024,-0.0227 0.024,-0.0228 0.023,-0.024 0.021,-0.0257 0.02,-0.0267 0.019,-0.0274 0.018,-0.0279 0.018,-0.0288 0.016,-0.0294 0.013,-0.0306 0.01,-0.0319 v -0.0334 -0.0338 -0.0331 l -0.01,-0.0324 -0.01,-0.0322 -0.01,-0.0324 -0.01,-0.066 v -0.033 -0.033 -0.0331 l -0.01,-0.0331 v -0.0331 -0.0223 -0.0107 l -0.01,-0.0325 -0.01,-0.0316 -0.014,-0.0305 -0.015,-0.0302 -0.014,-0.0303 -0.01,-0.0313 v -0.0331 l 4e-4,-0.0339 v -0.0334 l 0.01,-0.0319 0.014,-0.0308 0.016,-0.0294 0.019,-0.0278 0.017,-0.0285 0.012,-0.0307 0.01,-0.0324 0.01,-0.033 v -0.0331 l -7e-4,-0.0331 -0.01,-0.0666 v -0.0332 l -0.01,-0.0329 -0.01,-0.0329 v -0.033 -0.0334 l -4e-4,-0.0334 v -0.0334 l 4e-4,-0.0333 10e-4,-0.0333 v -0.0334 -0.0334 l 0.001,-0.0334 0.001,-0.0333 7e-4,-0.0335 4e-4,-0.0333 -7e-4,-0.0333 v -0.0334 -0.0333 -0.0334 l 7e-4,-0.0332 v -0.0332 -0.0333 -0.033 -0.0333 -0.0333 -0.0332 l 0.01,-0.0329 0.01,-0.0322 0.01,-0.032 0.01,-0.0321 0.01,-0.0324 0.01,-0.033 v -0.0331 -0.0334 -0.0332 -0.0331 l 0.01,-0.0328 0.01,-0.0381 0.01,-0.0265 0.01,-0.0322 0.01,-0.0323 0.01,-0.0328 0.01,-0.0329 0.01,-0.033 v -0.0328 -0.0324 l -0.01,-0.0322 -0.013,-0.0316 -0.014,-0.0302 -0.016,-0.0291 -0.016,-0.0293 -0.014,-0.0301 -0.013,-0.0309 -0.011,-0.0314 -0.011,-0.0317 -0.01,-0.0318 -0.01,-0.0324 -0.01,-0.0328 v -0.0326 -0.032 l 0.01,-0.0319 0.013,-0.0317 0.011,-0.0316 0.012,-0.0312 0.012,-0.031 0.012,-0.031 0.013,-0.031 0.013,-0.0308 0.013,-0.031 0.012,-0.0311 0.011,-0.0317 0.013,-0.0306 0.014,-0.0313 0.014,-0.0312 0.016,-0.0296 0.02,-0.0257 0.024,-0.0201 0.03,-0.0149 0.032,-0.0124 0.031,-0.0134 0.029,-0.0157 0.029,-0.0165 0.029,-0.0169 0.029,-0.0172 0.028,-0.0175 0.028,-0.0177 0.028,-0.0182 0.027,-0.0186 0.028,-0.0188 0.027,-0.0193 0.027,-0.0189 0.027,-0.0194 0.026,-0.02 0.025,-0.0212 0.024,-0.0227 0.023,-0.0241 0.022,-0.0251 0.021,-0.026 0.02,-0.0263 0.02,-0.0269 0.019,-0.0274 0.018,-0.0281 0.017,-0.0284 0.017,-0.0288 0.015,-0.0294 0.014,-0.0305 0.013,-0.0306 v -0.005 l 0.011,-0.0252 0.013,-0.0309 0.013,-0.0308 0.013,-0.0308 0.014,-0.0303 0.015,-0.0301 0.013,-0.0305 0.012,-0.0312 0.011,-0.0315 0.011,-0.0317 0.01,-0.0318 0.01,-0.0322 0.01,-0.0325 0.01,-0.033 v -0.0333 -0.0332 -0.0331 -0.033 -0.0332 -0.0332 -0.0334 -0.0334 -0.0333 -0.0332 -0.0334 -0.033 l 0.01,-0.0324 0.01,-0.0314 0.014,-0.0306 0.015,-0.0302 0.014,-0.0305 0.015,-0.0303 0.017,-0.0286 0.021,-0.0258 0.025,-0.0227 0.028,-0.0178 0.03,-0.0124 0.032,-0.009 0.033,-0.007 0.033,-0.005 0.033,-7.8e-4 0.015,0.002 0.018,0.002 0.033,10e-4 0.033,-10e-4 0.033,-0.002 0.033,-10e-4 0.033,-3.3e-4 0.033,0.002 0.033,0.003 0.033,0.002 0.033,-8.6e-4 0.033,-0.004 0.033,-0.006 0.032,-0.008 0.032,-0.009 0.031,-0.013 0.03,-0.014 0.032,-0.008 0.033,3.6e-4 0.033,-0.002 0.032,-0.008 0.032,-0.01 0.032,-0.01 0.032,-0.008 0.033,-0.008 0.029,-0.0138 0.024,-0.0214 0.022,-0.0256 0.021,-0.0262 0.023,-0.0241 0.024,-0.0229 0.024,-0.0227 0.024,-0.0228 0.024,-0.0231 0.023,-0.0238 0.022,-0.0254 0.018,-0.0276 0.015,-0.0297 0.014,-0.0307 0.012,-0.0311 0.01,-0.0317 0.01,-0.0323 v -0.0337 l 4e-4,-0.0334 v -0.0336 l 0.01,-0.0312 0.018,-0.0281 0.019,-0.0279 0.015,-0.0299 0.015,-0.0295 0.018,-0.028 0.019,-0.0275 0.019,-0.0272 0.02,-0.0269 0.02,-0.0266 v -0.002 l 0.021,-0.0231 0.026,-0.0213 0.026,-0.0203 0.027,-0.0197 0.024,-0.0229 0.022,-0.0255 0.019,-0.0273 0.015,-0.0296 v -0.004 l 0.01,-0.027 0.011,-0.0315 0.01,-0.0324 0.01,-0.0331 v -0.033 -0.0331 -0.0331 -0.0334 -0.0335 l 0.01,-0.0324 0.014,-0.0307 0.021,-0.0252 0.024,-0.0229 0.026,-0.0211 0.027,-0.019 0.029,-0.0159 0.032,-0.0113 0.032,-0.007 0.033,-0.004 0.033,-0.003 0.033,-0.002 h 0.033 l 0.033,10e-4 0.033,0.002 0.033,10e-4 h 0.033 l 0.033,-0.002 0.033,-0.002 0.033,-10e-4 0.033,-0.002 0.033,-0.004 0.032,-0.006 0.033,-0.007 0.06,-0.0126 0.033,-0.004 0.033,-0.006 0.032,-0.008 0.032,-0.009 0.021,-0.009 0.01,-0.004 0.028,-0.0181 0.027,-0.0198 0.029,-0.0158 0.062,-0.025 0.029,-0.0158 0.025,-0.0151 v -0.002 l 0.027,-0.0194 0.025,-0.0221 0.024,-0.0232 0.024,-0.0237 0.022,-0.0249 0.01,-0.0102 0.013,-0.0166 0.019,-0.0277 0.017,-0.0289 0.014,-0.0302 0.011,-0.0315 0.011,-0.0315 0.014,-0.0304 0.014,-0.0301 0.01,-0.032 0.01,-0.0326 0.01,-0.0328 0.01,-0.0329 0.01,-0.0324 0.011,-0.0315 0.013,-0.0309 0.011,-0.0315 0.01,-0.0318 0.01,-0.0318 0.01,-0.032 0.01,-0.0321 0.01,-0.0324 0.01,-0.0326 0.01,-0.0329 0.01,-0.0331 0.01,-0.0329 0.01,-0.0329 0.01,-0.0323 0.01,-0.0322 0.01,-0.0326 v -0.0334 l 6e-4,-0.0333 v -0.0335 l 10e-4,-0.0333 v -0.0335 -0.0331 -0.0332 -0.0331 -0.0333 -0.0332 -0.0333 -0.0334 -0.0333 -0.0332 -0.0331 -0.0329 -0.0332 -0.0331 -0.0331 -0.0331 l 0.01,-0.0325 0.01,-0.0322 0.01,-0.0321 0.01,-0.0324 0.01,-0.0326 0.01,-0.0329 0.01,-0.0326 0.01,-0.0321 0.01,-0.0319 0.01,-0.0319 0.01,-0.0319 0.01,-0.0318 0.01,-0.0318 0.01,-0.0317 0.01,-0.0319 0.01,-0.0317 0.011,-0.0318 0.01,-0.0315 0.011,-0.0315 0.011,-0.0317 0.01,-0.0318 0.01,-0.0319 0.01,-0.032 0.01,-0.0319 0.01,-0.0321 0.01,-0.0321 0.01,-0.0326 v -0.0332 -0.033 -0.0332 -0.0333 -0.0331 -0.0335 l 7e-4,-0.0333 -7e-4,-0.0334 v -0.0334 -0.0332 -0.0329 l -0.01,-0.0328 -0.01,-0.0328 -0.01,-0.0326 -0.01,-0.0325 v -0.0324 l 0.01,-0.0322 0.011,-0.0323 0.01,-0.0325 0.01,-0.0327 0.01,-0.0322 0.01,-0.0318 0.01,-0.0326 v -0.0332 -0.0332 -0.0334 -0.0334 l -7e-4,-0.0331 -0.01,-0.0327 -0.01,-0.0324 v -0.0331 -0.0334 l -0.01,-0.0323 v -0.0328 l -3e-4,-0.0339 v -0.0335 l 0.01,-0.031 0.017,-0.0245 v -0.003 l 0.02,-0.0262 0.023,-0.0245 0.025,-0.0223 0.027,-0.0181 0.031,-0.0125 0.028,-0.0175 0.025,-0.0219 0.023,-0.0238 0.02,-0.0268 0.019,-0.0275 0.018,-0.028 0.018,-0.0282 0.018,-0.0283 0.017,-0.0286 0.016,-0.029 0.014,-0.0304 0.012,-0.0313 0.011,-0.0317 0.01,-0.0319 0.01,-0.0319 0.01,-0.0322 0.01,-0.0327 v -0.033 -0.0341 -0.033 l 0.016,-0.028 0.022,-0.0256 0.022,-0.0257 0.02,-0.0265 0.021,-0.0261 0.022,-0.0253 0.022,-0.0246 0.026,-0.0199 0.025,-0.016 0.01,-0.0312 0.01,-0.0327 0.01,-0.0335 0.01,-0.0338 0.01,-0.0336 0.01,-0.0329 0.01,-0.0329 0.01,-0.0329 v -0.0333 -0.033 l 0.01,-0.0316 0.017,-0.0288 0.024,-0.0231 0.024,-0.0229 v -0.005 l 0.016,-0.0219 0.019,-0.0272 0.024,-0.022 0.031,-0.0134 0.018,-0.0254 0.011,-0.0318 0.01,-0.0329 0.01,-0.032 0.01,-0.0326 v -0.0328 -0.034 l -0.01,-0.0312 -0.021,-0.0267 -0.024,-0.0229 -0.026,-0.0209 -0.025,-0.0214 -0.026,-0.021 -0.03,-0.0154 -0.027,-0.0194 -0.027,-0.0229 -0.026,-0.0175 -0.03,-0.0153 -0.022,-0.024 -0.019,-0.0278 -0.016,-0.0297 -0.013,-0.0306 -0.01,-0.0328 v -0.0334 -0.0332 l -7e-4,-0.0335 v -0.0332 l 0.01,-0.0331 0.01,-0.0324 0.01,-0.0316 0.013,-0.0306 0.015,-0.0299 0.017,-0.0289 0.017,-0.0286 0.014,-0.0299 0.011,-0.0315 0.01,-0.0325 0.01,-0.0323 0.01,-0.0323 0.01,-0.0325 0.01,-0.0326 0.01,-0.0328 0.01,-0.0368 0.01,-0.0284 0.01,-0.0325 0.01,-0.0321 0.011,-0.0315 0.012,-0.0312 0.012,-0.0312 0.011,-0.0317 0.01,-0.0317 0.011,-0.0313 0.012,-0.0313 0.012,-0.0311 0.013,-0.0309 0.014,-0.03 0.016,-0.0293 0.017,-0.0289 0.016,-0.0291 0.016,-0.0293 0.016,-0.0292 0.017,-0.0286 0.02,-0.0267 0.018,-0.028 0.015,-0.0298 0.014,-0.0302 0.015,-0.0296 0.017,-0.029 0.018,-0.0286 0.019,-0.0359 0.01,-0.0233 0.01,-0.0325 0.01,-0.0331 0.01,-0.033 v -0.0332 -0.0327 l -0.01,-0.0323 -0.014,-0.0302 -0.018,-0.0279 -0.018,-0.0279 -0.017,-0.0288 -0.016,-0.0292 -0.015,-0.0297 -0.015,-0.0297 -0.018,-0.0281 -0.023,-0.0243 -0.013,-0.03 -0.01,-0.0323 -0.01,-0.0327 -0.01,-0.0318 -0.015,-0.0297 -0.016,-0.0294 -0.011,-0.0315 -0.01,-0.0326 -0.01,-0.033 v -0.0331 l 0.01,-0.0667 0.01,-0.0318 0.02,-0.0272 0.02,-0.0275 0.016,-0.0287 v -0.0323 l -4e-4,-0.0333 v -0.0338 -0.0338 l -4e-4,-0.0335 -7e-4,-0.0333 v -0.0206 -0.0125 l -0.01,-0.0328 -0.01,-0.0327 -0.01,-0.0328 v -0.0332 -0.0331 l -0.01,-0.0326 -0.01,-0.0326 -0.01,-0.0325 -0.01,-0.0326 -0.01,-0.0323 -0.01,-0.0319 -0.015,-0.0294 -0.018,-0.0277 -0.02,-0.0269 -0.043,-0.0501 -0.022,-0.0249 -0.018,-0.0279 -0.014,-0.0304 -0.017,-0.0286 -0.014,-0.0299 -0.011,-0.0316 -0.01,-0.0327 v -0.0335 l 7e-4,-0.0335 v -0.0332 l 0.01,-0.0328 0.01,-0.0329 v -0.0332 -0.0334 l 7e-4,-0.0333 v -0.0334 -0.0332 -0.0333 -0.0332 l 0.01,-0.0329 0.01,-0.0327 0.01,-0.0326 0.01,-0.0328 v -0.0332 -0.0333 -0.0333 l -7e-4,-0.0335 v -0.0334 -0.0333 -0.0334 -0.0334 -0.0333 -0.0331 l -0.01,-0.0329 -0.01,-0.0327 -0.01,-0.0327 -0.01,-0.033 -0.01,-0.0326 -0.01,-0.0327 v -0.033 -0.0336 -0.033 l -0.01,-0.0318 -0.01,-0.0326 v -0.0331 -0.0334 -0.0331 -0.0331 l 0.01,-0.0329 v -0.033 -0.0333 -0.0332 l 0.01,-0.033 0.01,-0.033 0.01,-0.0328 0.01,-0.0331 0.01,-0.0325 0.011,-0.0313 0.013,-0.0309 0.013,-0.031 0.01,-0.0316 v -0.0339 l 0.013,-0.0294 0.02,-0.0265 0.022,-0.0255 0.022,-0.0254 0.021,-0.0258 0.022,-0.0249 0.024,-0.0219 0.028,-0.0175 0.028,-0.0173 0.024,-0.0216 0.021,-0.0262 0.018,-0.028 0.012,-0.031 0.01,-0.0327 v -0.0332 -0.0334 l -4e-4,-0.018 v -0.0154 l -10e-4,-0.0334 v -0.0334 -0.0331 -0.0333 -0.0333 l 3e-4,-0.0334 v -0.0334 l 0.01,-0.0328 0.011,-0.0314 0.015,-0.0299 0.022,-0.0244 0.013,-0.0306 0.016,-0.0282 0.023,-0.0241 0.024,-0.0228 0.027,-0.0201 0.03,-0.0123 0.032,-0.008 0.032,-0.005 0.033,-0.003 0.033,-0.002 0.033,-4e-4 0.033,0.002 0.032,0.005 0.032,0.007 0.032,0.007 0.031,0.009 0.031,0.0127 0.03,0.0159 0.031,0.008 0.033,-0.001 0.033,-0.006 0.032,-0.008 0.031,-0.0114 0.03,-0.0127 0.03,-0.0135 0.029,-0.0162 0.029,-0.0156 0.031,-0.0102 0.032,-0.006 0.033,-0.004 0.033,-0.003 0.033,-0.002 0.033,-9.1e-4 0.033,0.002 0.033,0.005 0.032,0.006 0.032,0.009 0.032,0.008 0.032,0.002 0.033,-0.004 0.033,-0.007 0.031,-0.0101 0.03,-0.0132 0.03,-0.0151 0.029,-0.0153 0.03,-0.0132 0.031,-0.0111 0.031,-0.0115 0.029,-0.0152 0.025,-0.0209 0.024,-0.0238 0.024,-0.0231 0.024,-0.023 0.024,-0.0232 0.023,-0.0237 0.022,-0.0246 0.021,-0.0256 0.02,-0.0261 0.019,-0.027 0.018,-0.0278 0.016,-0.0289 0.014,-0.0303 0.014,-0.0305 0.016,-0.0294 0.018,-0.028 0.019,-0.0274 0.018,-0.028 0.017,-0.0287 0.016,-0.0295 0.012,-0.0307 0.01,-0.0323 0.011,-0.0314 0.014,-0.0303 0.014,-0.0301 0.013,-0.0306 0.012,-0.0311 0.012,-0.0313 0.01,-0.0317 0.01,-0.033 0.01,-0.0324 0.015,-0.0293 0.018,-0.0278 0.062,-0.0645 -0.028,-0.0649 -0.015,-0.0295 -0.015,-0.0301 -0.013,-0.0307 -0.011,-0.0313 -0.01,-0.0329 v -0.0338 l -0.01,-0.033 -0.011,-0.0308 -0.02,-0.0267 -0.026,-0.0217 -0.028,-0.0166 -0.03,-0.0143 -0.03,-0.0208 -0.053,0.006 -0.704,-0.006 -0.1838,3.7e-4 -0.8882,8e-4 -0.6452,3.7e-4 h -0.2426 l -0.2559,-1e-5 -0.6322,-8.8e-4 -0.8879,-0.002 -0.8912,-0.002 h -0.2855 l -0.5993,4e-4 h -0.8881 l -0.6044,-3.6e-4 -0.2834,-4.4e-4 -0.8882,-0.002 -0.8882,-0.002 -0.2254,-6.9e-4 -0.5324,-0.002 -0.13,-3.7e-4 -0.8882,-0.002 -0.2827,-9.1e-4 -0.1926,-6.3e-4 -0.1038,-3.6e-4 -0.099,-3.7e-4 -0.21,-6.5e-4 -0.6901,-0.003 -0.024,3.6e-4 -0.1735,0.002 -0.8882,0.008 -0.2916,0.003 -0.5962,0.005 -0.8882,0.007 -0.2916,0.002 -0.5965,-0.001 -0.8879,-0.002 -0.8881,-0.003 -0.5169,-0.002 -0.2672,-9.5e-4 h -0.1038 l -0.4321,4e-4 h -0.1484 l -0.3076,3.6e-4 h -0.2896 -0.5982 l -0.8457,-3.6e-4 h -0.043 l -0.7592,-8.1e-4 h -0.1286 l -0.8878,-4.4e-4 -0.8882,-0.001 -0.2025,-3.7e-4 -0.3811,-6.9e-4 -0.3042,-5.9e-4 -0.4074,-9.5e-4 -0.4805,-8.8e-4 -0.8878,-0.002 -0.1977,-0.003 -0.7102,-0.012 -0.8745,-0.003 -0.013,-4e-5 -0.8878,0.0133 -0.5738,-0.0558 -0.047,0.34562 -0.1314,0.9278 -0.1296,0.89504 -0.13,0.89517 -4e-4,0.001 -0.096,0.65816 -0.034,0.23607 -0.1011,0.71251 -0.026,0.18313 -0.016,0.11627 -0.1109,0.77917 -0.1276,0.89552 -0.1276,0.89553 -0.128,0.89544 -0.1279,0.89548 -0.093,0.65015 -0.035,0.24521 -0.053,0.37314 -0.059,0.39572 -0.019,0.12627 -0.012,0.0801 -0.1218,0.81461 -0.1334,0.89458 -0.1341,0.89462 -0.134,0.89467 -0.1205,0.80561 -0.013,0.0886 -0.1293,0.89466 -0.1293,0.89529 -0.039,0.26811 -0.084,0.58428 -0.01,0.044 -0.1296,0.89536 -0.1971,1.35876 -0.086,0.58947 -0.07,0.48023 -0.035,0.25705 -0.1215,0.89654 -0.1068,0.78901 -0.014,0.10749 -0.1219,0.89646 -0.086,0.56603 -0.047,0.33586 -0.079,0.56005 -0.057,0.40549 v 0.02 l -0.025,0.18794 -0.037,0.28299 -0.1191,0.89689 -0.013,0.0989 -0.1099,0.79734 -0.1242,0.89614 -0.026,0.18579 -0.1082,0.70899 -0.1011,0.60064 -0.017,0.11436 0.075,0.0939 0.295,0.36755 0.2944,0.32105 0.215,0.23419 0.2587,0.29031 0.199,0.0286 0.2957,0.0425 -0.048,0.6049 0.9004,0.1468 0.066,0.0108 0.1599,0.026 0.5149,0.15754 -0.029,0.13952 -0.1852,0.74048 -0.02,0.0953 -0.011,0.054 -0.01,0.0318 -0.099,0.4714 -0.1164,0.40704 -0.2215,0.77647 -0.027,0.094 -0.2481,0.87048 -0.053,0.18551 -0.1956,0.68496 -0.1198,0.41912 -0.13,0.45104 -0.2392,0.882 -0.2314,0.7998 -0.02,0.0699 -0.2229,0.79315 -0.022,0.0785 -0.1698,0.60327 -0.076,0.26842 -0.065,0.22974 -0.058,0.20005 -0.1055,0.36376 -0.022,0.0766 -0.2529,0.86934 -0.053,0.1813 -0.114,0.35867 -0.1031,0.32469 -0.08,0.25123 -0.1309,0.13219 z" /><g
       transform="matrix(0.8,0,0,0.8,36.705224,-9.0481242)"
       id="g1036"><path
         id="path1023"
         style="font-style:normal;font-variant:normal;font-weight:bold;font-stretch:normal;font-size:80.2634201px;line-height:1.25;font-family:sans-serif;-inkscape-font-specification:'sans-serif Bold';letter-spacing:0px;word-spacing:0px;fill:#e10b17;fill-opacity:1;stroke:#000000;stroke-width:4.0131712;stroke-miterlimit:4;stroke-dasharray:none"
         d="M 88.431348,-13.846259 H 64.838292 L 61.115135,-3.1862731 H 45.94817 L 67.620861,-61.69862 H 85.609587 L 107.28228,-3.1862731 H 92.115313 Z M 68.60064,-24.7022 H 84.629809 L 76.63482,-47.981727 Z" /><path
         id="path1025"
         style="font-style:normal;font-variant:normal;font-weight:bold;font-stretch:normal;font-size:80.2634201px;line-height:1.25;font-family:sans-serif;-inkscape-font-specification:'sans-serif Bold';letter-spacing:0px;word-spacing:0px;fill:#ffffff;fill-opacity:1;stroke:#000000;stroke-width:4.0131712;stroke-miterlimit:4;stroke-dasharray:none"
         d="m 115.00293,-61.69862 h 25.04313 q 11.16947,0 17.12652,4.977273 5.99624,4.938081 5.99624,14.108804 0,9.209914 -5.99624,14.187187 -5.95705,4.938081 -17.12652,4.938081 h -9.95455 v 20.3010019 h -15.08858 z m 15.08858,10.934323 v 16.342699 h 8.34771 q 4.38941,0 6.78007,-2.116321 2.39065,-2.155512 2.39065,-6.074624 0,-3.919112 -2.39065,-6.035433 -2.39066,-2.116321 -6.78007,-2.116321 z" /><path
         id="path1027"
         style="font-style:normal;font-variant:normal;font-weight:bold;font-stretch:normal;font-size:80.2634201px;line-height:1.25;font-family:sans-serif;-inkscape-font-specification:'sans-serif Bold';letter-spacing:0px;word-spacing:0px;fill:#056fb9;fill-opacity:1;stroke:#000000;stroke-width:4.0131712;stroke-miterlimit:4;stroke-dasharray:none"
         d="M 173.78962,-61.69862 H 188.8782 V -3.1862731 H 173.78962 Z" /></g><flowRoot
       transform="matrix(2.0065855,0,0,2.0065855,29.070863,-76.165446)"
       style="font-style:normal;font-variant:normal;font-weight:bold;font-stretch:normal;font-size:40px;line-height:1.25;font-family:sans-serif;-inkscape-font-specification:'sans-serif Bold';letter-spacing:0px;word-spacing:0px;fill:#000000;fill-opacity:1;stroke:none"
       id="flowRoot1015"
       xml:space="preserve"><flowRegion
         id="flowRegion1017"><rect
           y="79.740829"
           x="6.1139736"
           height="114.637"
           width="110.05152"
           id="rect1019" /></flowRegion><flowPara
         id="flowPara1021" /></flowRoot></g></g></svg>