<?xml version="1.0" encoding="UTF-8" standalone="no"?>
<svg
   height="41.923214"
   width="110.26087"
   xml:space="preserve"
   enable-background="new 0 0 214 114"
   viewBox="0 0 110.26087 41.923214"
   y="0px"
   x="0px"
   id="Layer_1"
   version="1.1"
   sodipodi:docname="api.svg"
   inkscape:version="1.3 (0e150ed6c4, 2023-07-21)"
   xmlns:inkscape="http://www.inkscape.org/namespaces/inkscape"
   xmlns:sodipodi="http://sodipodi.sourceforge.net/DTD/sodipodi-0.dtd"
   xmlns="http://www.w3.org/2000/svg"
   xmlns:svg="http://www.w3.org/2000/svg"
   xmlns:rdf="http://www.w3.org/1999/02/22-rdf-syntax-ns#"
   xmlns:cc="http://creativecommons.org/ns#"
   xmlns:dc="http://purl.org/dc/elements/1.1/"><sodipodi:namedview
   id="namedview1"
   pagecolor="#ffffff"
   bordercolor="#eeeeee"
   borderopacity="1"
   inkscape:showpageshadow="0"
   inkscape:pageopacity="0"
   inkscape:pagecheckerboard="0"
   inkscape:deskcolor="#d1d1d1"
   inkscape:zoom="6.6054256"
   inkscape:cx="45.41721"
   inkscape:cy="10.975826"
   inkscape:window-width="1600"
   inkscape:window-height="827"
   inkscape:window-x="0"
   inkscape:window-y="0"
   inkscape:window-maximized="1"
   inkscape:current-layer="Layer_1" /><metadata
   id="metadata46"><rdf:RDF><cc:Work
       rdf:about=""><dc:format>image/svg+xml</dc:format><dc:type
         rdf:resource="http://purl.org/dc/dcmitype/StillImage" /></cc:Work></rdf:RDF></metadata><defs
   id="defs44">&#10;	&#10;	&#10;	&#10;&#10;&#10;		&#10;		&#10;		&#10;		&#10;		&#10;		&#10;		</defs>&#10;&#10;<flowRoot
   transform="translate(-6.9741702,0.44747297)"
   style="font-style:normal;font-variant:normal;font-weight:bold;font-stretch:normal;font-size:40px;line-height:1.25;font-family:sans-serif;-inkscape-font-specification:'sans-serif Bold';letter-spacing:0px;word-spacing:0px;fill:#000000;fill-opacity:1;stroke:none;stroke-width:1.04183"
   id="flowRoot1015"
   xml:space="preserve"><flowRegion
     id="flowRegion1017"><rect
       y="79.740829"
       x="6.1139736"
       height="114.637"
       width="110.05152"
       id="rect1019" /></flowRegion><flowPara
     id="flowPara1021" /></flowRoot><g
   id="g21"
   transform="translate(-5.5861394)"><path
     id="path4402"
     style="font-style:normal;font-variant:normal;font-weight:400;font-stretch:normal;font-size:34.375px;line-height:1.25;font-family:'MS Shell Dlg 2';-inkscape-font-specification:'sans-serif Bold';letter-spacing:0px;word-spacing:0px;display:inline;fill:#000000;fill-opacity:1;fill-rule:evenodd;stroke:#000000;stroke-width:2;stroke-linecap:square;stroke-linejoin:bevel;stroke-miterlimit:3.88641;stroke-dasharray:none;stroke-opacity:1"
     d="m 85.432777,23.639514 -0.147863,0.12591 -0.33709,0.305903 -0.06454,0.05861 0.0085,0.01381 0.0085,0.014 0.009,0.01381 0.009,0.0138 0.009,0.0138 0.0085,0.014 0.0085,0.014 0.0085,0.014 0.008,0.0142 0.008,0.0144 0.0075,0.0144 0.0075,0.0146 0.0075,0.0146 0.0075,0.0148 0.0075,0.0148 0.007,0.015 0.0065,0.0152 0.006,0.0152 0.0055,0.0154 0.005,0.0154 0.005,0.0158 0.005,0.01575 0.005,0.016 0.005,0.01615 0.005,0.01595 0.005,0.01615 0.005,0.01615 v 0.04151 0.01635 0.01615 0.01635 0.01635 0.01615 0.01635 0.01615 0.01595 l -2e-4,0.01615 v 0.01595 l -0.005,0.01575 -0.005,0.016 -0.0055,0.01575 -0.0055,0.0158 -0.005,0.0156 -0.005,0.01575 -0.005,0.0156 -0.005,0.0156 -0.0055,0.0156 -0.0055,0.0154 -0.0055,0.0156 -0.005,0.0156 -0.005,0.01555 -0.005,0.0156 -0.005,0.0156 -0.005,0.0158 -0.005,0.01595 -0.005,0.01595 -0.005,0.01615 v 0.01615 0.01635 0.01635 0.01635 0.01635 0.01635 l -1.49e-4,0.01635 1.99e-4,0.01635 v 0.01615 0.01635 0.01635 0.01675 0.01655 0.01655 l 0.005,0.01635 0.005,0.01635 0.005,0.01595 0.005,0.0154 0.0055,0.015 0.0065,0.0144 0.008,0.01346 0.0095,0.01286 0.01096,0.01226 0.01196,0.01206 0.0095,0.0088 0.01545,0.0144 0.01196,0.01171 0.01196,0.01186 0.01096,0.01246 0.01744,0.02591 0.01096,0.01266 0.01096,0.01266 0.01047,0.01266 0.01,0.01306 v 0.002 l 0.008,0.01166 0.009,0.01361 0.008,0.0142 0.0075,0.0146 0.007,0.0148 0.0065,0.015 0.0065,0.0154 0.006,0.0154 0.0055,0.0154 0.006,0.0154 0.006,0.0154 0.006,0.0152 0.006,0.0154 0.006,0.0152 0.006,0.0154 0.0055,0.0156 0.005,0.01575 0.005,0.0158 0.005,0.01595 v 0.01615 0.01595 0.01635 0.01635 l 4.98e-4,0.01615 4.98e-4,0.01655 3.49e-4,0.01635 4.99e-4,0.01635 v 0.01635 0.02143 l -0.04999,0.29915 0.0289,0.05491 -0.01694,0.06776 -0.0085,0.03369 -0.07072,0.283701 0.04435,0.116247 0.05427,0.142336 0.0085,0.0097 0.184243,0.207637 0.07157,0.08276 0.290842,0.191405 0.102612,0.06737 0.08532,0.04849 0.06748,0.255743 0.09364,0.310573 0.02292,0.05645 0.02243,0.03155 0.09464,0.13202 -0.0085,0.07302 0.0095,0.01306 0.01,0.01286 0.0095,0.01286 0.0095,0.01286 0.0095,0.01306 0.0095,0.01286 0.0095,0.01286 0.0095,0.01306 0.0095,0.01306 0.0095,0.01326 0.0095,0.01306 0.01047,0.01266 0.01096,0.01171 0.01146,0.01131 0.01196,0.01131 0.01146,0.01151 0.01146,0.01166 0.01146,0.01171 0.01146,0.01166 0.01096,0.01186 0.01047,0.01246 0.0095,0.01286 0.0085,0.01346 0.008,0.0138 0.0075,0.0142 0.0075,0.0144 0.007,0.0144 0.007,0.0146 0.007,0.0144 0.007,0.0144 0.0065,0.0148 0.0055,0.015 0.0055,0.0152 0.005,0.0152 0.005,0.0152 0.005,0.0152 0.005,0.0152 0.005,0.0152 0.005,0.0154 0.005,0.0154 0.005,0.0152 0.005,0.0154 0.005,0.0156 0.005,0.0154 0.005,0.0154 0.005,0.0154 0.005,0.0154 0.005,0.01555 0.005,0.0154 0.005,0.0156 0.005,0.01555 0.005,0.0156 0.005,0.0154 0.006,0.0156 0.005,0.0154 v 0.0152 l -0.005,0.0156 -0.0065,0.0154 -0.008,0.0142 -0.01,0.01206 -0.01196,0.01091 -0.01296,0.01032 -0.01296,0.01012 -0.01495,0.0092 -0.01096,0.01052 v 0.01655 l 0.0075,0.0142 0.01346,0.0082 0.01545,0.0064 0.01644,0.0052 0.01595,0.003 0.01694,-9.96e-4 0.0095,9.96e-4 0.0065,4.99e-4 0.01595,0.0066 0.007,0.0045 0.008,0.01346 0.0055,0.0154 v 0.004 l 0.005,0.01226 v 0.0158 0.01615 l -0.005,0.0156 -0.0055,0.015 -0.0075,0.0144 -0.0085,0.01361 -0.01196,0.01131 -0.01296,0.0099 -0.01296,0.0094 -0.01296,0.0097 -0.01395,0.0099 -0.0095,0.01246 -0.005,0.01694 v 0.0154 l 0.01146,0.0095 0.01694,0.006 0.01645,0.0025 0.01645,-1.99e-4 0.01645,-0.002 0.01645,-0.0015 0.01645,-0.0025 0.01645,-0.0025 0.01595,-9.97e-4 0.01694,0.0025 0.01346,0.0095 0.005,0.0144 v 0.01595 l 3.49e-4,0.01675 1.49e-4,0.01655 2e-4,0.01595 -2e-4,0.01595 v 0.016 0.01575 l -0.005,0.0158 -0.005,0.0156 -0.007,0.0144 -0.0095,0.01266 -0.01246,0.01091 -0.01345,0.0092 -0.01545,0.0062 -0.01595,0.002 -0.01645,3.98e-4 -0.01645,-3.98e-4 -0.02292,-3.84e-4 -0.197699,0.125008 -0.005,0.0158 -0.005,0.01575 -0.005,0.0156 v 0.01575 l 0.005,0.01575 v 0.01595 l -0.005,0.0158 -0.005,0.01575 -0.005,0.0156 v 0.01595 l -0.005,0.01694 v 0.0154 l 0.01,0.01092 0.01346,0.0092 0.01495,0.0088 0.01395,0.0095 0.01196,0.01091 0.01196,0.01091 0.01296,0.01012 0.01346,0.0095 0.01395,0.01141 0.01445,0.0076 0.01495,0.0072 0.01495,0.0068 0.01495,0.0064 0.01545,0.0056 0.01545,0.0052 0.01595,0.004 0.01644,0.0025 0.01645,0.0015 0.01645,4.98e-4 h 0.01645 l 0.01645,-4.98e-4 0.01645,-0.0025 0.01645,-0.0035 0.009,-3.83e-4 0.0075,-3.99e-4 0.01595,0.003 0.01595,0.005 0.01595,0.005 0.01595,0.0035 h 0.01695 l 0.01694,-0.0015 0.005,1.99e-4 0.01146,1.99e-4 0.01345,0.006 0.01047,0.01266 0.005,0.0045 0.0065,0.0099 0.0075,0.0144 0.0075,0.0142 0.01,0.01286 0.01047,0.01226 0.01096,0.01226 0.01096,0.01206 0.01047,0.01226 0.01,0.01246 0.0095,0.01286 0.0085,0.01346 0.007,0.0144 0.006,0.015 0.005,0.0154 0.0055,0.0152 0.005,0.01186 v 0.003 l 0.0055,0.015 0.0055,0.015 0.0055,0.015 0.0055,0.0152 0.005,0.01595 0.006,0.0146 0.01047,0.01166 0.01296,0.0095 0.01445,0.0082 0.01445,0.0082 0.01445,0.008 0.01445,0.0078 0.01445,0.0076 0.01445,0.0078 0.01346,0.0088 0.01346,0.0093 0.01196,0.01071 0.01047,0.01246 0.0085,0.01381 0.006,0.0146 v 0.01575 l 1.49e-4,0.01635 0.005,0.01555 0.005,0.0152 0.005,0.01635 0.009,0.01226 0.01445,0.0084 0.01395,0.0092 0.0085,0.01306 0.005,0.016 v 0.01575 0.01595 0.01595 l -1.49e-4,0.01595 v 0.01595 l 0.005,0.01575 0.005,0.0156 0.005,0.0156 0.005,0.01555 0.005,0.0154 0.005,0.0154 0.005,0.01555 0.005,0.0156 -4.99e-4,0.01595 v 0.0158 0.0158 0.01595 0.01595 0.01575 l -0.008,0.02432 -0.005,0.01575 -0.005,0.0154 -0.005,0.0152 -0.005,0.0154 -0.005,0.0154 -0.005,0.0156 -0.005,0.01555 -0.005,0.0152 -0.0065,0.0148 -0.007,0.0144 -0.007,0.0148 -0.0065,0.0152 0.0065,0.01286 0.01196,0.01226 0.0075,0.0142 0.007,0.0144 0.007,0.0148 0.007,0.0144 0.0075,0.0142 0.0085,0.01365 0.0095,0.01326 0.0085,0.01381 0.007,0.0144 0.006,0.015 0.005,0.0156 0.005,0.0158 v 0.0158 0.01575 l -0.005,0.0158 -0.005,0.01306 -0.005,0.01809 -0.005,0.0154 -0.0055,0.0152 -0.005,0.015 -0.005,0.01575 v 0.01635 l -0.005,0.015 -0.01096,0.01226 -0.01146,0.01206 -0.005,0.0148 v 0.01615 0.01635 0.0158 l -0.005,0.0156 -0.005,0.0154 -0.005,0.0154 -0.005,0.01555 -0.005,0.0154 v 0.01595 l 3.49e-4,0.01071 3.49e-4,0.0052 v 0.01575 l -0.005,0.0156 -0.005,0.01555 v 0.0156 l 0.005,0.0156 0.005,0.01555 -0.005,0.0156 -0.005,0.01555 -3.99e-4,0.0146 v 0.003 l 0.005,0.01226 0.0055,0.015 0.0085,0.0144 0.005,0.015 v 0.01555 l -0.005,0.016 -0.005,0.01575 -0.005,0.0158 -0.005,0.0156 -0.005,0.0156 -0.005,0.01595 v 0.01635 l -0.005,0.0156 -0.008,0.01326 -0.01,0.01226 -0.01146,0.01151 -0.01196,0.01131 -0.01595,0.0077 -0.02093,0.01824 -0.01196,0.01071 -0.0075,0.0144 -0.008,0.0138 -0.01196,0.01071 -0.01296,0.01012 -0.0095,0.0075 -0.01196,0.01131 -0.01246,0.01052 -0.01246,0.01052 -0.01296,0.0099 -0.01395,0.0088 -0.01495,0.0072 -0.01495,0.0074 -0.01296,0.0092 -0.01096,0.01206 -0.01047,0.01266 -0.01346,0.0099 -0.01246,0.0099 -0.005,0.0156 -0.005,0.0154 -0.01,0.01226 -0.01246,0.01091 -0.01246,0.01032 -0.01395,0.009 -0.01296,0.01012 -0.01246,0.01071 -0.01196,0.01111 -0.01046,0.01246 -0.008,0.01381 -0.007,0.0146 -0.007,0.0146 -0.0075,0.0142 -0.0075,0.0144 -0.008,0.014 -0.0085,0.01361 -0.009,0.01326 -0.01,0.01286 -0.01096,0.01206 -0.01146,0.01171 -0.01196,0.01091 -0.01246,0.01012 -0.01395,0.0086 -0.01445,0.0076 -0.01445,0.0078 -0.01395,0.0086 -0.01346,0.009 -0.01346,0.0092 -0.01395,0.0088 -0.01346,0.009 -0.01395,0.0086 -0.01395,0.0082 -0.01495,0.0072 -0.0299,0.01206 -0.247236,0.408401 -0.0065,0.01166 -0.009,0.0158 -0.139191,0.248074 -0.07411,0.132409 -0.01993,0.03543 -0.226404,0.347376 -0.221072,0.381449 -0.05646,0.08627 -0.01196,0.01789 -0.02342,0.03583 -0.15773,0.241251 -0.249778,0.381065 -0.07411,0.113132 -0.177466,0.267146 -0.190871,0.286825 -0.06175,0.09268 -0.04784,0.07185 -0.205075,0.307846 -0.253216,0.3795 -0.07201,0.107686 -0.179609,0.272796 -0.153395,0.232689 -0.09773,0.148367 -0.143428,0.217309 -0.110884,0.161807 -0.08323,0.121306 -0.15185,0.221207 -0.02293,0.03429 -0.0611,0.09034 -0.230441,0.304931 -0.06479,0.09891 -0.250724,0.381644 -0.03588,0.05433 -0.221221,0.323619 -0.09225,0.134941 -0.160122,0.245925 -0.113826,0.174854 -0.137945,0.2066 -0.06897,0.103195 -0.141634,0.22042 -0.0095,0.01286 -0.009,0.01306 -0.009,0.01306 -0.0095,0.01266 -0.01,0.01226 -0.01096,0.01186 -0.01146,0.01146 -0.01196,0.01091 -0.01196,0.01071 -0.01246,0.0099 -0.01296,0.0094 -0.01346,0.0091 -0.01346,0.0088 -0.01346,0.0088 -0.01395,0.0084 -0.01395,0.02103 h 0.08397 l 0.466763,-0.0015 0.463075,-0.002 h 0.01047 l 0.120852,-4.99e-4 0.352439,-0.0025 0.473292,-0.0035 0.268565,-0.002 h 0.04336 l 0.161418,3.99e-4 0.473292,3.84e-4 h 0.350097 l 0.123194,-4.98e-4 0.473342,-0.0025 0.220474,-9.97e-4 0.252867,0.002 0.473142,0.0035 h 0.01744 l 0.165156,-0.0025 0.290842,-0.0045 0.457045,-0.007 0.01595,-3.99e-4 0.125188,-0.002 0.02392,-4.04e-4 0.07799,-0.0015 0.24594,-0.004 0.07037,-0.0015 0.154093,-9.96e-4 0.0902,-0.0958 0.128726,-0.136884 0.03339,-0.03543 0.112131,-0.116441 0.173479,-0.180496 0.263781,-0.255274 0.06394,-0.06952 0.146368,-0.159082 0.156185,-0.18654 0.0309,-0.03329 0.284563,-0.307841 0.234029,-0.257412 0.0751,-0.08276 0.274446,-0.310677 0.02342,-0.02611 0.110088,-0.121316 0.247435,-0.263253 0.314414,-0.33549 0.01495,-0.0158 0.303949,-0.325 0.005,-0.003 0.01196,-0.01266 0.05721,-0.06193 0.01296,-0.02193 0.184343,-0.205768 0.09075,-0.09735 0.102064,-0.106315 0.123991,-0.129095 0.317953,-0.331608 0.317505,-0.353396 v -0.02437 -0.01849 -0.01849 l -0.005,-0.03678 -0.005,-0.03698 0.005,-0.03663 0.006,-0.03678 v -0.01869 -0.01869 l 0.0095,-0.03523 0.01844,-0.03269 0.0095,-0.01286 0.005,-0.0064 0.008,-0.01126 0.02292,-0.02472 0.005,-0.003 0.02691,-0.02631 0.01395,-0.01266 0.01445,-0.01266 0.02691,-0.02646 0.02641,-0.02666 0.01395,-0.01326 0.01346,-0.01326 0.02841,-0.02512 0.01545,-0.01111 0.01595,-0.01052 0.01645,-0.01012 0.01694,-0.0094 0.01694,-0.0082 0.01744,-0.007 0.01894,-0.005 0.01944,-0.003 0.01894,-0.002 0.01944,-0.0015 0.01944,-3.84e-4 0.01944,1.99e-4 0.01944,9.97e-4 0.01944,0.0015 0.01944,0.002 0.01894,0.0035 0.01744,0.0068 0.01894,0.0144 0.02193,0.02532 0.01495,0.03449 0.03389,0.04361 0.01545,0.01166 0.01595,0.01032 0.01645,0.009 0.01744,0.0076 0.01794,0.0066 0.01844,0.0062 0.01844,0.0058 0.01844,0.005 0.01894,0.0045 0.01844,0.005 0.01844,0.0058 0.01794,0.007 0.01744,0.0078 0.01794,0.0074 0.01794,0.0064 0.01844,0.0045 0.01894,0.0035 0.01894,0.0025 0.01944,0.0015 0.01894,3.99e-4 0.01944,-9.97e-4 0.01944,-0.0025 0.01894,-0.0035 0.01844,-0.0051 0.01794,-0.0074 0.01794,-0.0068 0.01844,-0.005 0.01894,-0.0045 0.01894,-0.0035 0.01894,-9.97e-4 0.01894,0.0025 0.01844,0.0045 0.01844,0.006 0.01844,0.0068 0.01794,0.007 0.01744,0.0078 0.01694,0.0086 0.01694,0.0092 0.01694,0.009 0.01694,0.0092 0.01695,0.0095 0.01595,0.01012 0.02641,0.02591 0.01146,0.04535 0.0299,0.02377 0.01545,0.01151 0.01545,0.01111 0.0304,0.02297 0.02641,0.02786 0.02691,0.02512 0.01844,0.0051 0.01993,0.002 0.01894,0.0035 0.02492,0.02706 0.01794,0.0035 0.01993,-4.03e-4 0.01993,-9.97e-4 0.03588,0.004 0.02841,0.02432 0.01944,0.0015 0.01993,9.97e-4 0.01346,0.003 0.0055,0.0015 0.01794,0.0068 0.0174,0.008 0.0169,0.0086 0.0169,0.0092 0.0164,0.0094 0.0169,0.0088 0.0169,0.0086 0.0174,0.0084 0.018,0.0066 0.0184,0.004 0.0189,0.0025 0.0194,9.97e-4 0.0194,-2e-4 0.0189,-0.0015 0.0189,-0.004 0.0184,-0.0056 0.0184,-0.0054 0.0249,-0.0072 0.009,-0.0025 0.005,-9.97e-4 0.0184,-0.0045 0.0189,-0.0025 0.0194,1.99e-4 0.0189,-4.98e-4 0.0184,-0.0045 0.0179,-0.0068 0.0174,-0.008 0.0324,-0.02003 0.0194,9.97e-4 0.0184,-0.0035 0.0324,-0.01988 0.0314,-0.0051 v -9.97e-4 l 0.0115,-0.0152 0.006,-0.03464 -0.01,-0.03718 v -0.03523 l -0.011,-0.03155 0.012,-0.01595 0.005,-0.03643 4.9e-4,-0.01266 1.5e-4,-0.0058 v -0.01849 -0.01849 l 0.005,-0.01849 0.0249,-0.04769 0.0384,-0.04206 0.0264,-0.02666 0.0144,-0.01266 0.0155,-0.01091 0.0174,-0.0066 0.0199,-0.002 0.0344,-0.01246 0.012,-0.0154 0.0115,-0.0152 0.0174,-0.03269 v -0.03718 l -0.01,-0.03543 -0.011,-0.02726 -0.005,-0.0074 -0.007,-0.03643 0.005,-0.03678 v -0.03678 -0.03663 l 0.005,-0.01849 0.005,-0.01829 0.006,-0.03643 0.009,-0.03603 0.011,-0.03563 0.007,-0.02218 0.009,-0.03075 0.009,-0.03583 v -0.01166 l 0.005,-0.02512 0.0135,-0.03449 0.0244,-0.02861 0.0184,-0.0068 0.0174,-0.0072 0.0145,-0.03464 0.0189,-0.0296 0.0184,-0.0056 0.0199,-0.004 0.0299,-0.02218 0.0219,-0.03 0.0194,-9.97e-4 0.016,-0.01071 0.0259,-0.02786 0.0179,-0.0025 0.0179,-0.0056 0.0174,-0.0082 0.0304,-0.02238 0.0249,-0.02826 0.0174,-0.03309 0.0174,-0.03329 0.0189,-0.03195 0.0144,-0.01286 0.007,-0.02183 0.005,-0.01266 0.0139,-0.03429 0.0174,-0.03289 0.009,-0.03643 -0.008,-0.03543 -0.0134,-0.03583 -1.5e-4,-0.03369 0.0149,-0.01206 0.006,-0.03623 0.0214,-0.03095 0.007,-0.01809 0.007,-0.01794 0.0234,-0.02591 0.0189,-0.0056 0.0189,-0.0054 0.0269,-0.02437 0.0214,-0.03135 0.0169,-0.01032 0.0319,-0.01988 -1.5e-4,-0.01909 -2e-4,-0.01734 0.0105,-0.03484 0.0169,-0.03369 0.0125,-0.03504 0.0239,-0.0288 0.011,-0.03409 0.0184,-0.02861 3.5e-4,-0.03798 v -0.02123 -0.02063 l 0.0199,-0.0096 0.0364,0.003 0.0214,-0.0292 0.01,-0.02103 0.005,-0.0056 -0.0175,-0.0082 -0.0169,-0.0088 -0.0174,-0.0084 -0.0174,-0.0078 -0.0179,-0.0066 -0.0184,-0.0058 -0.0184,-0.0053 -0.0179,-0.0056 -0.0179,-0.0066 -0.0179,-0.0068 -0.0179,-0.007 -0.0174,-0.008 -0.0165,-0.009 -0.0155,-0.01071 -0.0144,-0.01266 -0.013,-0.0142 -0.0105,-0.0154 -0.007,-0.01675 -0.005,-0.01829 -0.005,-0.01849 -0.005,-0.01829 v -0.01849 -0.01849 -0.01849 -0.01849 -0.01849 l -5e-4,-0.01829 v -0.01849 -0.01849 -0.01849 -0.01869 -0.01166 -0.007 -0.01829 l -0.005,-0.01794 -0.006,-0.01769 -0.008,-0.01694 -0.005,-0.0053 -0.006,-0.01051 -0.012,-0.0148 -0.0135,-0.01365 -0.0149,-0.01131 -0.0164,-0.0094 -0.0179,-0.0076 -0.0179,-0.0068 -0.0179,-0.0066 -0.0184,-0.0052 -0.0189,-0.003 -0.0189,-9.97e-4 -0.0194,4.99e-4 -0.0194,0.0025 -0.0184,0.004 -0.0179,0.0064 -0.0169,0.0086 -0.0164,0.0097 -0.0164,0.01012 -0.0155,0.01111 -0.0145,0.01226 -0.0149,0.01206 -0.0159,0.01012 -0.0169,0.0088 -0.0174,0.008 -0.0174,0.0082 -0.0214,-0.01052 -0.0169,-0.0084 -0.0169,-0.0084 -0.0169,-0.0084 -0.0169,-0.0084 -0.0169,-0.0084 -0.0169,-0.0086 -0.011,-0.0052 -0.006,-0.003 -0.0169,-0.0084 -0.017,-0.0084 -0.0169,-0.0088 -0.0169,-0.0088 -0.0169,-0.0088 -0.0164,-0.009 -0.0165,-0.0095 -0.0159,-0.01032 -0.0149,-0.01171 -0.0145,-0.01246 -0.0139,-0.01266 -0.015,-0.01186 -0.0154,-0.01071 -0.0165,-0.0095 -0.0169,-0.009 -0.017,-0.0086 -0.0169,-0.0088 -0.0165,-0.0096 -0.016,-0.01012 -0.0159,-0.01032 -0.0155,-0.01091 -0.0154,-0.01111 -0.0155,-0.01111 -0.0155,-0.01126 -0.013,-0.0099 v -0.0015 l -0.0149,-0.01151 -0.016,-0.01266 -0.0134,-0.01126 -0.014,-0.01266 -0.014,-0.01286 -0.0135,-0.01306 -0.014,-0.01286 -0.0144,-0.01226 -0.0149,-0.01151 -0.0155,-0.01131 -0.0149,-0.01151 -0.014,-0.01266 -0.01,-0.01032 -0.005,-0.0035 -0.0125,-0.014 -0.012,-0.0144 -0.012,-0.0146 -0.0115,-0.0148 -0.011,-0.015 -0.011,-0.0152 -0.0105,-0.0154 -0.0105,-0.0156 -0.0105,-0.0154 -0.011,-0.0154 -0.0105,-0.0156 -0.009,-0.01615 -0.007,-0.01675 -0.006,-0.01754 -0.005,-0.01346 v -0.0045 l -0.006,-0.01774 -0.006,-0.01734 -0.007,-0.01734 -0.01,-0.0154 -0.0125,-0.014 -0.0135,-0.01346 -0.008,-0.0088 -0.005,-0.0045 -0.0125,-0.0142 -0.0125,-0.014 -0.008,-0.0095 -0.005,-0.0045 -0.012,-0.0144 -0.012,-0.0146 -0.011,-0.0154 -0.01,-0.01555 -0.01046,-0.0156 -0.01047,-0.0154 -0.01047,-0.0156 -0.01047,-0.0154 -0.01146,-0.015 -0.01196,-0.0144 -0.005,-0.0035 -0.01,-0.01052 -0.01296,-0.01361 -0.01246,-0.014 -0.01146,-0.0146 -0.01047,-0.0154 -0.005,-0.0064 -0.006,-0.0097 -0.009,-0.01655 -0.0085,-0.01675 -0.008,-0.01675 -0.0085,-0.01714 -0.008,-0.01754 -0.0065,-0.01754 -0.005,-0.01769 v -0.01734 l 0.0065,-0.01769 0.0085,-0.01754 0.007,-0.01754 0.008,-0.01774 0.0065,-0.01769 v -0.01774 l -0.005,-0.01774 -0.0065,-0.01769 -0.008,-0.01754 -0.0085,-0.01675 -0.0095,-0.01615 -0.01046,-0.0156 -0.01096,-0.0152 -0.01146,-0.015 -0.01146,-0.0148 -0.01196,-0.0144 -0.01246,-0.014 -0.01296,-0.01326 -0.01395,-0.01266 -0.01445,-0.01186 -0.01495,-0.01151 -0.01545,-0.01111 -0.01545,-0.01071 -0.01595,-0.0099 -0.01694,-0.0092 -0.01694,-0.009 -0.01645,-0.0096 -0.01545,-0.01072 -0.01545,-0.01111 -0.01495,-0.01131 -0.01495,-0.01186 -0.01445,-0.01226 -0.01395,-0.01266 -0.01346,-0.01326 -0.01395,-0.01346 -0.01296,-0.0142 -0.01246,-0.01769 -0.007,-0.01365 -0.005,-0.01734 -0.005,-0.01774 v -0.01849 -0.01869 -0.01889 -0.01889 -0.01869 -0.01869 -0.01849 l 1.99e-4,-0.01849 v -0.01151 -0.007 -0.01849 l 0.005,-0.01809 0.005,-0.01829 0.005,-0.01809 0.005,-0.01829 0.005,-0.01809 0.005,-0.01829 0.005,-0.01829 0.005,-0.01809 0.005,-0.01869 v -0.0086 -0.0099 -0.01849 -0.003 -0.0094 -0.0058 -0.01809 l -0.005,-0.01794 -0.0065,-0.01789 -0.008,-0.01694 -0.0085,-0.01654 -0.0095,-0.01615 -0.01046,-0.0154 -0.01146,-0.015 -0.01246,-0.014 -0.01395,-0.01246 -0.01495,-0.01206 -0.01445,-0.01206 -0.01545,-0.01131 -0.01545,-0.01131 -0.01395,-0.01246 -0.01096,-0.0148 -0.009,-0.01635 -0.0075,-0.01734 -0.0065,-0.01774 -0.006,-0.01754 v -0.0045 l -0.005,-0.01346 -0.005,-0.01829 -0.005,-0.01809 -0.006,-0.01754 -0.0065,-0.01754 -0.0055,-0.01774 -0.005,-0.01809 v -0.01829 -0.01869 -0.01849 -0.01849 -0.01869 l 1.5e-4,-0.01869 v -0.01849 l 0.005,-0.01809 0.005,-0.01809 0.0075,-0.01769 0.01,-0.0156 0.01346,-0.01246 0.01645,-0.0099 0.01645,-0.0099 0.01495,-0.01226 0.005,-0.003 0.01096,-0.01032 0.01196,-0.0148 0.007,-0.01615 v -0.01849 -0.01929 l -0.005,-0.01794 -0.0075,-0.01675 -0.0095,-0.01635 -0.01,-0.01595 -0.01047,-0.01595 -0.01,-0.0156 -0.01096,-0.0152 -0.01096,-0.0152 -0.01,-0.01555 -0.0085,-0.01655 -0.007,-0.01714 -0.0065,-0.01754 -0.0065,-0.01694 -1.49e-4,-4.98e-4 -0.006,-0.01774 -0.006,-0.01789 -0.006,-0.01754 -0.0075,-0.01694 -0.01,-0.0156 -0.01196,-0.0146 -0.01196,-0.0146 -0.01,-0.0158 -0.0085,-0.01635 -0.008,-0.01694 -0.0085,-0.01655 -0.01146,-0.02023 -0.0075,-0.01206 -0.01,-0.0156 -0.01,-0.01595 -0.009,-0.01615 -0.0085,-0.01674 -0.0075,-0.01694 -0.007,-0.01754 -0.0055,-0.01769 -0.005,-0.01829 -0.005,-0.01869 v -0.01849 -0.01774 l 0.0065,-0.01714 0.009,-0.01655 0.0095,-0.01675 0.0075,-0.01714 0.005,-0.01789 v -0.01849 -0.01869 -0.01869 -0.01849 -0.01849 l 4.98e-4,-0.01869 -1.49e-4,-0.01849 v -0.01829 -0.01829 l -0.005,-0.01829 -0.005,-0.01829 -0.005,-0.01809 -0.005,-0.01809 -0.005,-0.01789 -0.0055,-0.01774 -0.0065,-0.01754 -0.006,-0.01754 -0.0055,-0.01774 -0.005,-0.01809 -0.005,-0.01789 -0.005,-0.01829 -0.005,-0.01809 -0.005,-0.01809 -0.005,-0.01829 -0.005,-0.01829 v -0.01849 -0.01849 -0.01849 -0.01849 -0.01849 -0.01869 -0.01849 l -4.99e-4,-0.0146 -1.49e-4,-0.004 3.49e-4,-0.01849 v -0.01849 -0.01889 l 0.005,-0.01869 0.005,-0.01849 0.006,-0.01714 0.0085,-0.01575 0.01296,-0.01326 0.01545,-0.01151 0.01595,-0.01111 0.01495,-0.01186 0.01495,-0.01126 0.01545,-0.01151 0.01445,-0.01166 0.01346,-0.01326 0.01196,-0.0142 0.01146,-0.015 0.01046,-0.0158 0.0095,-0.01615 0.008,-0.01674 0.006,-0.01714 0.005,-0.01809 0.005,-0.01969 v -0.01754 -0.01849 l 0.005,-0.01829 0.005,-0.01829 0.005,-0.01849 0.005,-0.01829 0.005,-0.01829 0.005,-0.01829 0.005,-0.01849 0.005,-0.01829 v -0.01829 -0.01849 -0.01849 -0.01869 -0.01849 l 3.49e-4,-0.01849 v -0.01809 l -0.0055,-0.01754 -0.008,-0.01714 -0.008,-0.01714 -0.0055,-0.01774 -0.005,-0.01809 v -0.01849 -0.01849 -0.01869 -0.01849 -0.01829 l -0.005,-0.01849 v -0.01829 l 2.99e-4,-0.01869 v -0.01889 -0.01869 -0.01809 l -0.0055,-0.01734 -0.0085,-0.01655 -0.01,-0.01615 -0.01047,-0.0156 -0.01196,-0.0146 -0.01296,-0.014 -0.01196,-0.0144 -0.008,-0.01655 -0.0065,-0.01789 -0.005,-0.01869 -0.005,-0.01869 -2e-4,-0.01789 0.005,-0.01794 0.009,-0.01769 0.01196,-0.0146 0.01495,-0.01012 0.01894,-0.0062 0.01944,-0.0025 0.01844,0.0015 0.01794,0.0056 0.01794,0.0078 0.01695,0.0082 0.01645,0.0096 0.01595,0.0099 0.01645,0.009 0.01694,0.0088 0.01744,0.0092 0.01744,0.008 0.01744,0.0053 0.01844,9.97e-4 0.02043,-0.005 0.01694,-0.0097 0.01,-0.0138 0.0065,-0.01734 0.005,-0.01949 v -0.01929 l -1.49e-4,-0.01829 v -0.01829 l -1.99e-4,-3.84e-4 -0.005,-0.01789 -0.005,-0.01829 -0.005,-0.01849 -0.005,-0.01829 -0.005,-0.01829 -0.005,-0.01829 -0.005,-0.01829 v -0.01829 l 2e-4,-0.01849 v -0.01849 -0.01849 -0.01849 -0.01849 -0.01849 -0.01829 l 0.005,-0.01829 0.005,-0.01789 0.005,-0.01789 0.005,-0.01809 v -0.01829 -0.01869 l 4.99e-4,-0.01889 v -0.01849 l -0.005,-0.01789 -0.006,-0.01734 -0.008,-0.01714 -0.009,-0.01655 -0.0095,-0.01635 -0.0095,-0.01615 -0.01,-0.01615 -0.01146,-0.0148 -0.01345,-0.01266 -0.01595,-0.0097 -0.01744,-0.0086 -0.01695,-0.0082 -0.01694,-0.0084 -0.01694,-0.008 -0.01694,-0.0082 -0.01694,-0.0086 -0.01695,-0.009 -0.01645,-0.0092 -0.01595,-0.0095 -0.01545,-0.01072 -0.01495,-0.01186 -0.01296,-0.01326 -0.01246,-0.0144 -0.01146,-0.0152 -0.009,-0.01595 -0.006,-0.01734 -0.005,-0.02143 v -0.01615 -0.01809 l 0.005,-0.01829 0.007,-0.01789 0.009,-0.01615 0.01246,-0.01326 0.01545,-0.01071 0.01595,-0.01091 0.01346,-0.01286 0.01296,-0.014 0.01196,-0.0142 0.01246,-0.0136 0.01395,-0.01286 0.01346,-0.01306 0.01246,-0.01346 0.01146,-0.0148 0.01096,-0.0152 0.01146,-0.015 0.01196,-0.0144 0.01196,-0.0144 0.01196,-0.0142 0.01196,-0.0144 0.01196,-0.0142 0.01246,-0.014 0.01196,-0.0142 0.01196,-0.0144 0.01146,-0.0148 0.01047,-0.0154 0.01,-0.0156 0.01,-0.01595 0.01,-0.01595 0.01,-0.0158 3.49e-4,-3.98e-4 0.01,-0.0152 0.01096,-0.0152 0.01096,-0.01555 0.01,-0.0156 0.0085,-0.01635 0.0065,-0.01734 0.005,-0.01829 v -0.01849 l 4.98e-4,-0.01829 v -0.01849 -0.01869 -0.01849 l -0.005,-0.01849 v -0.01829 l -0.005,-0.01869 -0.005,-0.01829 -0.005,-0.01789 -0.006,-0.01734 -0.0085,-0.01635 -0.01,-0.0154 -2.99e-4,-4.98e-4 -0.01096,-0.0154 -0.01096,-0.0152 -0.01096,-0.015 -0.01196,-0.0146 -0.01196,-0.0146 -0.01096,-0.0152 -0.0095,-0.01615 -0.0085,-0.01654 -0.0085,-0.01675 -0.0095,-0.0158 -0.01246,-0.0138 -0.01595,-0.01111 -0.01495,-0.01166 -0.01146,-0.0144 -0.0095,-0.01595 -0.0314,0.0035 -0.03389,0.0045 -0.03289,0.004 -0.02492,-0.003 -0.01595,-0.01052 -0.0095,-0.01555 0.007,-0.0288 0.005,-0.0158 0.005,-0.01595 0.005,-0.01575 0.005,-0.0158 0.005,-0.0156 0.005,-0.01595 0.005,-0.0158 0.005,-0.01595 0.005,-0.01595 v -0.01615 -0.01635 -0.01615 -0.0076 -0.0082 l 0.005,-0.0156 0.0055,-0.0154 0.0055,-0.0154 0.005,-0.01615 0.005,-0.01635 0.005,-0.0158 0.007,-0.014 0.01,-0.01266 0.01196,-0.01131 0.01246,-0.01091 0.01296,-0.01072 0.01744,-0.0154 0.01395,-0.01286 0.01196,-0.01111 0.01246,-0.01072 0.01296,-0.01012 0.01346,-0.009 0.01495,-0.0078 0.01495,-0.0078 0.01395,-0.0086 0.01296,-0.0099 0.01296,-0.01091 0.01146,-0.01186 0.0095,-0.01306 0.008,-0.0144 0.007,-0.0152 0.0055,-0.01575 0.005,-0.0158 v -0.01595 -0.01635 l -0.005,-0.01615 -0.005,-0.0156 -0.0065,-0.0148 -0.0075,-0.0146 -0.008,-0.0146 -0.007,-0.0148 -0.007,-0.015 -0.005,-0.0154 -0.005,-0.01595 -0.005,-0.01635 v -0.01615 -0.01615 l 0.005,-0.01615 0.005,-0.01615 0.005,-0.01555 0.006,-0.0152 0.0065,-0.015 0.007,-0.0148 0.007,-0.0148 0.007,-0.0148 0.0065,-0.0152 0.0065,-0.015 0.007,-0.0154 0.0065,-0.0152 0.0055,-0.0154 0.005,-0.01555 v -0.0158 l -0.005,-0.01635 -0.005,-0.01615 -0.0065,-0.015 -0.01,-0.01365 -0.01046,-0.01361 -0.008,-0.014 -0.005,-0.0154 v -0.01595 l -2e-4,-0.01635 v -0.01635 -0.01655 -0.01655 -0.01635 -0.01615 -0.002 l 0.005,-0.014 0.005,-0.0158 0.005,-0.0158 0.005,-0.0158 0.005,-0.01595 0.005,-0.01595 v -0.01615 -0.01635 l 1.49e-4,-0.01635 v -0.01635 -0.01615 l -0.005,-0.01595 -0.005,-0.0158 -0.005,-0.0158 -0.005,-0.0156 -0.005,-0.01555 -0.005,-0.0158 -0.0055,-0.0158 -0.0055,-0.0156 -0.005,-0.0158 -0.005,-0.0158 -1.5e-4,-0.01595 v -0.01615 l 0.005,-0.01615 0.005,-0.01595 0.0055,-0.0158 0.0055,-0.0154 0.0065,-0.0154 0.007,-0.0156 0.005,-0.0072 0.005,-0.0078 0.0095,-0.01326 0.01046,-0.01131 0.01445,-0.0058 0.01744,-0.0015 0.01744,2.04e-4 0.01645,9.97e-4 0.01645,0.002 0.01645,0.0025 0.01645,0.003 0.01645,0.0045 0.01595,0.0045 0.01645,0.0035 0.01645,0.0015 0.01645,-1.99e-4 0.01694,-0.002 0.01645,-0.003 0.01595,-0.0045 0.01595,-0.0054 0.01545,-0.007 0.01445,-0.0086 0.01296,-0.0099 0.01196,-0.01111 0.01146,-0.01186 0.01096,-0.01246 0.01046,-0.01266 0.01047,-0.01266 0.0095,-0.01346 0.009,-0.01365 0.0095,-0.01361 0.01047,-0.01266 0.01096,-0.01226 0.01196,-0.01226 0.01196,-0.01151 0.01296,-0.0099 0.01395,-0.0078 0.01545,-0.0045 0.0169,-0.003 0.0169,-0.002 0.0165,-0.002 0.0164,-9.97e-4 0.0164,-3.79e-4 0.0165,3.79e-4 0.0164,0.0015 0.0165,0.003 0.0165,0.0035 0.0159,0.004 0.0159,0.0045 0.016,0.0051 0.0155,0.0056 0.0144,0.0082 0.0135,0.01052 0.0139,0.0082 0.016,0.003 v 1.99e-4 l 0.0149,0.0015 0.0164,3.84e-4 0.0169,-2.04e-4 0.0169,-9.97e-4 0.0164,-0.0015 0.0164,-0.002 0.0165,-0.003 0.0164,-0.0035 0.0159,-0.004 0.0165,-0.004 0.0159,-0.004 0.0159,-0.004 0.0165,-0.0035 0.0164,-0.0035 0.0164,-0.0035 0.016,-0.0035 0.016,-0.004 0.0159,-0.0045 0.0155,-0.0056 0.005,-9.97e-4 0.013,-0.005 0.0155,-0.0056 0.0155,-0.0054 0.0174,-0.0066 0.0135,-0.0054 0.0149,-0.0064 0.0155,-0.0068 0.0149,-0.0068 0.0149,-0.007 0.0149,-0.0072 0.0144,-0.0078 0.014,-0.0086 0.014,-0.009 0.0135,-0.0096 0.0135,-0.0097 0.0135,-0.0097 0.013,-0.01052 0.012,-0.01091 0.012,-0.01151 0.0115,-0.01186 0.011,-0.01226 0.01,-0.01286 0.009,-0.0138 0.009,-0.01381 0.01,-0.01286 0.0115,-0.01186 0.012,-0.01151 0.012,-0.01171 0.0115,-0.01186 0.0115,-0.01206 0.0115,-0.01186 0.0115,-0.01186 0.011,-0.01226 0.011,-0.01226 0.012,-0.01131 0.0135,-0.0097 0.014,-0.0082 0.005,-0.0025 0.01,-0.0051 0.0149,-0.0074 0.0149,-0.0072 0.0145,-0.0078 0.0149,-0.0078 0.0144,-0.0076 0.0145,-0.0076 0.0149,-0.0078 0.0144,-0.0078 0.0145,-0.0076 0.0149,-0.0076 0.0149,-0.0078 0.0144,-0.0082 0.014,-0.009 0.014,-0.0092 0.0135,-0.0094 0.0135,-0.0097 0.0125,-0.01051 0.0115,-0.01146 0.0105,-0.01306 0.009,-0.0144 0.012,-0.0302 1.5e-4,-0.01032 v -0.0054 l -0.005,-0.01654 -0.005,-0.01615 v -0.01655 l -0.005,-0.01615 -0.006,-0.0148 -0.009,-0.01346 -0.0105,-0.01306 -0.009,-0.01361 -0.006,-0.0148 -0.005,-0.0156 -0.005,-0.01615 v -0.01635 -0.01635 -0.01635 -0.01675 -0.01674 l 0.005,-0.01615 0.005,-0.0152 0.008,-0.01346 0.0115,-0.01226 0.013,-0.01131 0.0125,-0.01071 0.0134,-0.0097 0.014,-0.0092 0.014,-0.0088 0.0144,-0.0084 0.009,-0.0052 0.0199,-0.01091 0.0149,-0.0072 0.0149,-0.0066 0.0155,-0.0066 0.0155,-0.0058 0.0159,-0.0051 0.016,-0.0035 0.0165,-0.002 0.0164,-3.83e-4 0.0169,-2e-4 0.0164,-1.99e-4 0.0164,-0.0015 0.0164,-0.002 0.0165,-0.002 0.0164,-0.002 0.0164,-0.0025 0.0165,-0.003 0.0159,-0.0035 0.0159,-0.0045 0.016,-0.0051 0.0155,-0.0062 0.0149,-0.0072 0.014,-0.0084 0.014,-0.0092 0.0134,-0.0097 0.013,-0.01052 0.012,-0.01111 0.0115,-0.01166 0.0115,-0.01266 0.01,-0.0136 0.008,-0.0142 0.005,-0.015 3.5e-4,-0.01635 v -0.01694 l 1.5e-4,-0.01635 0.005,-0.0158 0.005,-0.0152 0.007,-0.015 0.008,-0.0144 0.008,-0.014 0.01,-0.01306 0.0105,-0.01286 0.01,-0.01306 0.009,-0.01365 0.009,-0.0138 0.009,-0.01341 0.01,-0.01286 0.0115,-0.01166 0.0125,-0.01091 0.013,-0.01032 0.0125,-0.01072 0.0115,-0.01186 0.0105,-0.01286 0.009,-0.01361 0.009,-0.0136 0.0105,-0.01246 0.0115,-0.01072 0.0155,-0.006 0.0164,-0.0035 0.0159,-0.0051 0.016,-0.0054 0.0155,-0.0051 0.016,-0.0045 0.0164,-0.0025 0.0165,-0.002 0.0165,-0.002 0.0164,-0.0025 0.007,-0.0015 0.009,-0.0015 0.016,-0.0045 0.0159,-0.0058 0.0155,-0.0068 0.014,-0.0088 0.0115,-0.01111 0.0105,-0.01266 0.009,-0.01365 0.009,-0.014 0.008,-0.0144 0.006,-0.015 v -0.0072 -0.0088 l 0.005,-0.01595 0.005,-0.0154 0.007,-0.0144 0.008,-0.014 0.009,-0.0138 0.009,-0.0138 0.008,-0.0142 0.007,-0.0148 0.006,-0.0152 0.005,-0.0152 0.005,-0.0156 0.005,-0.0156 0.005,-0.01555 0.005,-0.0158 0.005,-0.01595 0.005,-0.0158 0.005,-0.0156 0.006,-0.0154 0.007,-0.0146 0.008,-0.0144 0.008,-0.0144 0.007,-0.0148 0.007,-0.0148 0.006,-0.015 0.006,-0.015 v -0.004 -0.0025 l 0.009,-0.02377 0.006,-0.0152 0.005,-0.0154 0.006,-0.01809 0.005,-0.01326 0.005,-0.0156 0.005,-0.0156 0.005,-0.01575 0.005,-0.0158 0.005,-0.0158 0.005,-0.01595 0.005,-0.01595 0.005,-0.01615 0.005,-0.01615 v -0.01635 -0.01615 l -5e-4,-0.01615 -0.005,-0.01595 -0.005,-0.01595 -0.005,-0.01595 -0.005,-0.0154 -0.006,-0.0154 -0.006,-0.015 -0.005,-0.0154 -0.005,-0.01595 -0.005,-0.01635 v -0.01675 -0.01595 l 0.005,-0.015 0.008,-0.0144 0.009,-0.014 0.009,-0.01326 0.01,-0.01365 0.0105,-0.01266 0.0125,-0.01072 0.0149,-0.006 0.0164,-0.003 0.016,-0.0051 0.0149,-0.0076 0.0144,-0.0082 0.0149,-0.0068 0.016,-0.0045 0.005,-9.97e-4 0.011,-0.0015 0.0164,-0.0015 0.0165,-0.002 0.016,-0.0035 0.0155,-0.006 0.0149,-0.0076 0.0139,-0.0088 0.0125,-0.01052 0.012,-0.01131 0.0135,-0.0096 0.0149,-0.007 0.0155,-0.0056 0.0155,-0.006 0.0144,-0.0076 0.013,-0.0097 0.0125,-0.01091 0.014,-0.0148 0.008,-0.0092 0.0105,-0.01286 0.01,-0.01306 0.009,-0.0136 0.009,-0.01381 0.008,-0.014 0.008,-0.0142 0.007,-0.0144 0.007,-0.0148 0.006,-0.0152 0.006,-0.0152 0.005,-0.0154 0.005,-0.01575 0.005,-0.0158 0.005,-0.01615 v -0.01615 -0.01615 -0.01635 -0.01635 -0.01635 l -2e-4,-0.002 v -0.0144 -0.01694 -0.01675 -0.01615 -0.0152 l 0.007,-0.01346 0.0115,-0.01206 0.013,-0.01151 0.0115,-0.01226 0.009,-0.01326 0.009,-0.01381 0.008,-0.014 0.007,-0.0148 0.006,-0.015 0.005,-0.01575 0.005,-0.01595 0.005,-0.01635 0.005,-0.01595 0.005,-0.0158 0.005,-0.0154 5e-4,-9.97e-4 0.005,-0.014 0.006,-0.0152 0.005,-0.0156 0.005,-0.01555 0.005,-0.0158 0.005,-0.01575 0.005,-0.0152 0.006,-0.0152 0.006,-0.0152 0.007,-0.0148 0.007,-0.015 0.007,-0.0146 0.007,-0.015 0.007,-0.0152 0.007,-0.015 0.007,-0.0148 0.008,-0.0142 0.009,-0.01346 0.01,-0.01246 0.007,-0.0064 0.005,-0.0045 0.0135,-0.0097 0.0144,-0.0088 0.0149,-0.0078 0.0145,-0.0074 0.0155,-0.0056 0.0159,-0.0045 0.016,-0.0045 0.016,-0.0051 0.0159,-0.005 0.0164,-0.0045 0.0155,-0.006 0.0135,-0.0086 0.0115,-0.01131 0.01,-0.01266 0.009,-0.01381 0.009,-0.0138 0.01,-0.01361 0.0105,-0.01246 0.011,-0.01226 0.011,-0.01206 0.0115,-0.01186 0.0115,-0.01186 0.0115,-0.01206 0.011,-0.01346 0.0105,-0.01266 0.0105,-0.01271 0.0105,-0.01281 0.01,-0.01296 0.009,-0.01331 0.009,-0.01346 0.009,-0.01341 0.009,-0.01346 0.009,-0.01356 0.009,-0.0136 0.009,-0.01371 0.009,-0.01375 0.008,-0.01395 0.008,-0.014 0.008,-0.01415 0.006,-0.01485 0.005,-0.0162 v -0.01655 l 0.005,-0.01585 0.007,-0.01415 0.01,-0.01311 0.0105,-0.01271 0.01,-0.01301 0.01,-0.01311 0.01,-0.01316 0.009,-0.01341 0.008,-0.0139 0.008,-0.0143 0.007,-0.01455 0.007,-0.01465 0.007,-0.01475 0.007,-0.01465 0.007,-0.0145 0.008,-0.01415 0.008,-0.0138 0.009,-0.01381 0.008,-0.01385 0.008,-0.0139 0.009,-0.01351 0.01,-0.01306 0.0105,-0.01281 0.011,-0.01241 0.0115,-0.01161 0.013,-0.0098 0.0144,-0.0084 0.013,-0.0099 0.012,-0.01141 0.0115,-0.01211 0.0105,-0.01266 0.009,-0.01336 0.008,-0.0143 0.007,-0.01475 0.008,-0.01445 0.008,-0.0138 0.009,-0.01351 0.0105,-0.01505 0.007,-0.01051 v -0.0015 l 0.009,-0.01365 0.008,-0.0141 0.008,-0.01425 0.008,-0.0141 0.009,-0.01375 0.01,-0.01296 0.012,-0.01141 0.0125,-0.01106 0.0105,-0.01226 0.008,-0.01381 0.007,-0.0147 0.006,-0.0151 0.006,-0.01515 0.005,-0.0156 0.005,-0.0158 0.005,-0.01555 0.005,-0.0158 0.006,-0.01525 0.008,-0.01385 0.0105,-0.01236 0.012,-0.01151 0.0125,-0.01116 0.012,-0.01161 0.011,-0.01216 0.011,-0.01246 0.01,-0.01281 0.009,-0.0136 0.008,-0.01425 0.007,-0.01475 0.006,-0.01505 0.006,-0.0151 0.006,-0.01515 0.005,-0.01535 0.005,-0.0156 0.005,-0.01565 0.005,-0.01605 v -0.006 -0.01007 -0.0162 -0.01625 l 3.5e-4,-0.01635 3.5e-4,-0.0164 v -0.0163 -0.0164 -0.0164 l 0.005,-0.01605 0.005,-0.0156 0.005,-0.01595 0.006,-0.0159 0.007,-0.0152 0.008,-0.01371 0.01,-0.01146 0.0144,-0.0073 0.0169,-0.004 0.0209,-9.97e-4 0.012,0.0015 0.0164,0.004 0.0164,0.0025 0.016,-0.0015 0.0164,-0.003 0.0159,-0.0045 0.016,-0.0054 0.0149,-0.0065 0.0144,-0.0081 0.0135,-0.0095 0.013,-0.01027 0.0125,-0.01056 0.0125,-0.01081 0.012,-0.01106 0.012,-0.01166 0.011,-0.01221 0.009,-0.01291 0.008,-0.0143 0.007,-0.01535 0.005,-0.01585 v -0.0157 -0.0155 l -0.006,-0.0156 -0.006,-0.01575 -0.005,-0.01585 v -0.01625 l -2e-4,-0.0166 V 18.4216 18.4053 l 0.005,-0.01565 0.006,-0.01455 0.009,-0.01385 0.01,-0.01346 0.009,-0.0139 0.007,-0.0146 0.006,-0.01515 0.006,-0.0153 0.006,-0.01505 0.007,-0.0144 0.009,-0.01361 0.01,-0.01316 0.01,-0.01291 0.01,-0.01281 0.01,-0.01311 0.009,-0.01316 0.008,-0.01121 v -0.002 l 0.009,-0.01321 0.009,-0.01345 0.008,-0.01381 0.008,-0.01445 0.007,-0.01485 0.007,-0.0146 0.008,-0.01381 0.01,-0.01271 0.0239,-0.02238 0.0125,-0.01076 0.012,-0.01111 0.011,-0.01206 0.01,-0.01281 0.0105,-0.01311 v -0.0025 l 0.009,-0.01101 0.009,-0.01346 0.009,-0.0138 0.008,-0.01415 0.007,-0.01445 0.005,-0.0148 0.005,-0.01575 v -0.0165 -0.01685 -0.01674 -0.0063 -0.0099 l -0.005,-0.01585 -0.005,-0.0157 -0.007,-0.015 -0.009,-0.0135 -0.011,-0.01156 -0.0125,-0.01012 -0.0139,-0.0092 -0.014,-0.0089 -0.014,-0.0091 -0.013,-0.0097 -0.0135,-0.01007 -0.013,-0.01 -0.0135,-0.01 -0.013,-0.01037 -0.0125,-0.01066 -0.012,-0.01131 -0.0105,-0.01201 -0.009,-0.01311 -0.008,-0.0142 -0.007,-0.01495 -0.006,-0.0153 -0.006,-0.0154 -0.006,-0.01505 -0.007,-0.0152 -0.006,-0.0154 -0.005,-0.0156 v -0.0157 l 5e-4,-0.01615 0.005,-0.0163 0.005,-0.0162 0.005,-0.0158 0.005,-0.01575 0.005,-0.0157 0.005,-0.01555 0.006,-0.01525 0.006,-0.01485 0.008,-0.01415 0.0194,-0.02646 0.009,-0.01336 0.008,-0.014 0.007,-0.01455 0.007,-0.0149 0.006,-0.01495 0.006,-0.01505 0.007,-0.01475 0.008,-0.0144 0.008,-0.0142 0.006,-0.0148 0.005,-0.01565 v -0.0161 l 3.5e-4,-0.01645 -5e-4,-0.0165 v -0.0165 -0.01635 -0.01625 -0.01625 -0.0163 -0.01625 -0.01625 -0.0163 -0.0163 -0.01625 -0.01625 -0.01615 -0.01615 -0.01615 -0.01625 -0.0163 -0.01635 -0.01615 l -0.005,-0.01585 -0.005,-0.0155 -0.006,-0.01525 -0.006,-0.0153 -0.005,-0.01545 -0.005,-0.01565 -0.005,-0.0157 -0.005,-0.01575 -0.005,-0.01585 -0.005,-0.0159 -0.005,-0.01605 -0.005,-0.0161 -0.005,-0.0161 -0.005,-0.0161 -0.005,-0.016 -0.005,-0.016 -0.005,-0.0158 -0.005,-0.0156 -0.005,-0.01525 -0.006,-0.01515 -0.006,-0.0151 -0.006,-0.01525 -0.006,-0.0152 -0.006,-0.01535 -0.005,-0.0155 -0.005,-0.01595 v -0.01615 -0.0163 -0.01635 -0.0163 -0.0167 -0.01709 l -0.005,-0.01565 -0.008,-0.01246 -0.0135,-0.0093 -0.0155,-0.0083 -0.0139,-0.0083 -0.0144,-0.0077 -0.0145,-0.008 -0.0135,-0.0093 -0.012,-0.01077 -0.0115,-0.01171 -0.011,-0.01236 -0.0105,-0.01246 -0.011,-0.01246 -0.0115,-0.01246 -0.0105,-0.01301 -0.008,-0.01375 -0.005,-0.015 v -0.01914 -0.01405 -0.0165 -0.01635 l 0.005,-0.0164 0.005,-0.0161 0.005,-0.01535 0.007,-0.01425 0.009,-0.01326 0.011,-0.01231 0.012,-0.01136 0.013,-0.0099 0.0139,-0.0082 0.0145,-0.0083 0.0135,-0.0095 0.013,-0.01002 0.0125,-0.01047 0.012,-0.01121 0.011,-0.01196 0.011,-0.01251 0.01,-0.01286 0.01,-0.01271 0.0105,-0.01251 0.0115,-0.01216 0.0115,-0.01216 0.011,-0.01241 0.01,-0.01281 0.008,-0.01361 0.005,-0.015 0.005,-0.01615 0.005,-0.0165 0.005,-0.01615 0.005,-0.01575 0.005,-0.0157 0.005,-0.01585 0.005,-0.01615 0.005,-0.01669 0.005,-0.01675 v -0.01625 -0.01515 l -0.007,-0.0138 -0.0105,-0.01281 -0.0125,-0.01196 -0.0125,-0.01151 -0.0125,-0.01042 -0.014,-0.0091 -0.0135,-0.0097 -0.011,-0.01191 -0.009,-0.01346 -0.009,-0.0137 -0.009,-0.01321 -0.0115,-0.01575 -0.008,-0.01056 -0.01,-0.01311 -0.0105,-0.01256 -0.0115,-0.01231 -0.008,-0.01385 -0.005,-0.0159 v -0.01679 -0.01605 l 0.005,-0.0154 0.007,-0.0149 0.009,-0.01375 0.0105,-0.01221 0.012,-0.01136 0.0125,-0.01066 0.0125,-0.01042 0.013,-0.01007 0.013,-0.0096 0.0135,-0.0094 0.0135,-0.0094 0.013,-0.0099 0.0125,-0.01047 0.012,-0.01096 0.012,-0.01111 0.012,-0.01111 0.012,-0.01076 0.013,-0.01032 0.013,-0.0095 0.0144,-0.0077 0.0149,-0.0067 0.0149,-0.0068 0.0144,-0.0081 0.014,-0.009 0.0139,-0.0091 0.0139,-0.0097 0.0125,-0.01046 0.011,-0.01151 0.009,-0.01306 0.006,-0.0147 0.005,-0.01595 0.005,-0.0164 0.005,-0.0162 0.005,-0.016 0.005,-0.01625 v -0.01645 -0.01635 l -1.9e-4,-0.0025 -3.5e-4,-0.0138 -0.005,-0.0157 -0.005,-0.01535 -0.007,-0.01525 -0.006,-0.01535 -0.005,-0.01575 v -0.01615 -0.0164 -0.0164 -0.03249 -0.0163 -0.0163 -0.0163 -0.01635 -0.01635 l 1.5e-4,-0.01625 v -0.0161 l 0.005,-0.0161 0.005,-0.01595 0.005,-0.01595 0.005,-0.01605 0.005,-0.01625 0.005,-0.0162 0.005,-0.01585 0.005,-0.01535 0.008,-0.01371 0.0105,-0.01291 0.009,-0.01376 0.008,-0.0142 0.008,-0.01445 0.007,-0.01435 0.008,-0.0142 0.008,-0.01405 0.008,-0.014 0.008,-0.014 0.008,-0.0142 0.007,-0.01455 0.007,-0.0148 0.006,-0.01495 0.006,-0.01505 0.006,-0.01515 0.006,-0.0151 0.006,-0.0153 0.005,-0.0155 v -0.0159 l -3.5e-4,-0.0164 v -0.01635 -0.0163 -0.0162 l -0.005,-0.01615 -0.005,-0.01605 -0.005,-0.0157 -0.005,-0.01535 -0.006,-0.01535 -0.005,-0.01545 -0.005,-0.016 -0.005,-0.01635 v -0.0162 l 0.005,-0.01535 0.007,-0.01495 0.007,-0.0148 0.005,-0.0077 0.005,-0.0078 0.006,-0.01575 0.007,-0.01475 0.009,-0.01241 0.014,-0.0082 0.01,-0.003 0.006,-0.002 0.016,-0.002 0.0164,9.97e-4 0.016,-0.0035 0.0159,-0.0058 0.014,-0.0086 0.0115,-0.01136 0.011,-0.01276 0.009,-0.01365 0.008,-0.01425 0.005,-0.01495 v -0.01635 l -2e-4,-0.01679 -3.5e-4,-0.01635 -4.9e-4,-0.01246 -2e-4,-0.004 v -0.01635 -0.0163 -0.01615 l -0.005,-0.01595 -0.005,-0.01585 -0.005,-0.0158 -0.0419,-0.0061 -0.0364,-0.0057 -0.0304,-0.007 -0.012,-0.01276 -0.005,-0.0154 -0.006,-0.0296 -0.005,-0.0163 -0.005,-0.0158 -0.006,-0.0154 -0.005,-0.0163 v -0.01675 l -1.5e-4,-0.01675 v -0.01655 l -0.005,-0.0157 -0.008,-0.0146 -0.007,-0.01525 -0.006,-0.0154 -0.005,-0.01575 -0.005,-0.0162 -0.005,-0.0164 -0.005,-0.0164 -0.005,-0.0163 -0.005,-0.01585 -0.005,-0.0157 -0.005,-0.016 -0.005,-0.016 -0.005,-0.016 -0.005,-0.01595 -0.005,-0.01595 -0.005,-0.01595 -0.005,-0.0163 -0.005,-0.01635 -0.005,-0.0162 -0.005,-0.016 -0.005,-0.01595 -0.005,-0.016 -0.005,-0.01625 v -0.0165 -0.01664 -0.0165 l -0.005,-0.01615 -0.005,-0.01585 -0.005,-0.01575 -0.006,-0.01535 -0.006,-0.01545 -0.005,-0.01595 -0.005,-0.01615 -0.005,-0.01565 -0.007,-0.015 -0.008,-0.01445 -0.01,-0.01326 -0.012,-0.01111 -0.014,-0.0089 -0.0144,-0.0088 -0.0145,-0.0086 -0.0144,-0.0089 -0.013,-0.01027 -0.012,-0.01141 -0.0135,-0.01002 -0.0139,-0.0089 -0.0144,-0.0085 -0.0145,-0.0087 -0.014,-0.0091 -0.0135,-0.0094 -0.0139,-0.0095 -0.0135,-0.0097 -0.0134,-0.01002 -0.014,-0.0098 -0.0115,-0.01151 -0.008,-0.01405 -0.006,-0.0154 -0.006,-0.01585 -0.005,-0.0159 -0.005,-0.01575 -0.005,-0.01595 -0.005,-0.0161 -0.005,-0.0163 -4.9e-4,-0.0167 v -0.0166 l 0.005,-0.0164 0.005,-0.01605 0.007,-0.01505 0.009,-0.01545 0.008,-0.01286 0.009,-0.01365 0.0105,-0.01276 0.0115,-0.01221 0.012,-0.01186 0.012,-0.01176 0.012,-0.01166 0.012,-0.01181 0.0115,-0.01186 0.012,-0.01181 0.012,-0.01146 0.0125,-0.01111 0.014,-0.0095 0.014,-0.009 0.0125,-0.01086 0.0115,-0.01196 0.011,-0.01261 0.011,-0.01261 0.011,-0.01246 0.011,-0.01256 0.0105,-0.01281 0.01,-0.01341 0.009,-0.01385 0.009,-0.01415 0.008,-0.0144 0.008,-0.0146 0.009,-0.01744 0.006,-0.01241 0.007,-0.01555 0.005,-0.0156 1.5e-4,-0.01565 -0.006,-0.0159 -0.007,-0.0152 -0.009,-0.0141 -0.008,-0.0145 -0.007,-0.0152 -0.006,-0.0155 -0.005,-0.0158 -0.005,-0.01625 v -0.0165 -0.0165 l -0.005,-0.01625 -0.005,-0.0159 -0.006,-0.01565 -0.005,-0.01565 -0.005,-0.01575 -0.005,-0.01575 -0.006,-0.01585 -0.005,-0.0159 -0.005,-0.0161 v -0.01649 l -3.4e-4,-0.0168 v -0.01689 l 0.005,-0.01989 0.005,-0.01236 0.007,-0.01505 0.008,-0.0146 0.008,-0.01435 0.008,-0.01435 0.009,-0.014 0.01,-0.01346 0.0105,-0.01261 0.012,-0.01176 0.012,-0.01131 0.012,-0.01136 0.0115,-0.01196 0.0105,-0.01281 0.01,-0.01331 0.009,-0.01365 0.009,-0.0139 0.009,-0.01435 0.008,-0.01465 0.006,-0.01525 0.005,-0.0159 v -0.01664 -0.01684 -0.0165 l -0.005,-0.01615 -0.005,-0.01605 -0.005,-0.01615 -0.005,-0.03289 v -0.01645 -0.01645 -0.0165 l -0.005,-0.0165 v -0.01649 -0.01111 -0.0053 l -0.005,-0.0162 -0.005,-0.01575 -0.007,-0.0152 -0.007,-0.01505 -0.007,-0.0151 -0.005,-0.0156 v -0.0165 l 2e-4,-0.01689 v -0.01665 l 0.005,-0.0159 0.007,-0.01535 0.008,-0.01465 0.009,-0.01385 0.008,-0.0142 0.006,-0.0153 0.005,-0.01615 0.005,-0.01645 v -0.0165 l -3.4e-4,-0.0165 -0.005,-0.03319 v -0.01655 l -0.005,-0.0164 -0.005,-0.0164 v -0.01645 -0.01665 l -1.9e-4,-0.01665 v -0.01664 l 1.9e-4,-0.0166 5e-4,-0.01659 v -0.01665 -0.01665 l 5e-4,-0.01665 5e-4,-0.0166 3.5e-4,-0.01669 2e-4,-0.0166 -3.5e-4,-0.0166 v -0.01665 -0.01659 -0.01665 l 3.5e-4,-0.01655 v -0.01655 -0.0166 -0.01645 -0.0166 -0.01659 -0.01655 l 0.005,-0.0164 0.005,-0.01605 0.005,-0.01595 0.005,-0.016 0.005,-0.01615 0.005,-0.01645 v -0.0165 -0.01665 -0.01655 -0.0165 l 0.005,-0.01635 0.005,-0.01899 0.005,-0.01321 0.005,-0.01605 0.005,-0.0161 0.005,-0.01635 0.005,-0.0164 0.005,-0.01645 v -0.01635 -0.01615 l -0.005,-0.01605 -0.006,-0.015748 -0.007,-0.01505 -0.008,-0.014502 -0.008,-0.014602 -0.007,-0.015001 -0.006,-0.015399 -0.005,-0.015648 -0.005,-0.015798 -0.005,-0.015848 -0.005,-0.016147 -0.005,-0.016346 V 9.819741 9.803794 l 0.005,-0.015898 0.006,-0.015798 0.005,-0.015748 0.006,-0.015549 0.006,-0.015449 0.006,-0.015449 0.006,-0.015449 0.006,-0.015349 0.006,-0.015449 0.006,-0.015499 0.005,-0.015798 0.006,-0.01525 0.007,-0.015599 0.007,-0.015549 0.008,-0.014751 0.01,-0.012808 0.012,-0.010017 0.015,-0.00743 0.0159,-0.00618 0.0155,-0.00668 0.0144,-0.00782 0.0145,-0.00822 0.0144,-0.00842 0.0145,-0.00857 0.0139,-0.00872 0.014,-0.00882 0.014,-0.00907 0.0135,-0.00927 0.014,-0.00937 0.0134,-0.00962 0.0135,-0.00942 0.0134,-0.00967 0.013,-0.00997 0.0125,-0.010565 0.012,-0.011313 0.0115,-0.012011 0.011,-0.012509 0.0105,-0.012957 0.01,-0.013107 0.01,-0.013406 0.009,-0.013655 0.009,-0.014004 0.008,-0.014153 0.008,-0.014353 0.007,-0.014652 0.007,-0.0152 0.006,-0.01525 V 9.22151 l 0.005,-0.012559 0.006,-0.015399 0.006,-0.01535 0.006,-0.015349 0.007,-0.0151 0.007,-0.015001 0.006,-0.0152 0.006,-0.015549 0.005,-0.015698 0.005,-0.015798 0.005,-0.015848 0.005,-0.016047 0.005,-0.016197 0.005,-0.016446 V 8.990125 8.97358 8.957084 8.940638 8.924093 8.907548 8.890903 8.874258 8.857663 8.841117 8.824472 8.808026 l 0.005,-0.016147 0.005,-0.015648 0.007,-0.01525 0.007,-0.01505 0.007,-0.0152 0.007,-0.0151 0.008,-0.014253 0.0105,-0.012858 0.0125,-0.011313 0.014,-0.00887 0.0149,-0.00618 0.0159,-0.00449 0.0165,-0.00349 0.0164,-0.00249 0.0164,-3.887e-4 0.007,9.967e-4 0.009,9.967e-4 0.0165,4.984e-4 0.0164,-4.984e-4 0.0164,-9.967e-4 0.0165,-4.984e-4 0.0164,-1.644e-4 0.0165,9.967e-4 0.0164,0.0015 0.0164,9.967e-4 0.0165,-4.286e-4 0.0164,-0.00199 0.0164,-0.00299 0.016,-0.00399 0.0159,-0.00449 0.0155,-0.00648 0.0149,-0.00698 0.016,-0.00399 0.0164,1.794e-4 0.0164,-9.967e-4 0.016,-0.00399 0.016,-0.00498 0.0159,-0.00498 0.0159,-0.00399 0.0165,-0.00399 0.0144,-0.00688 0.012,-0.010665 0.011,-0.012758 0.0105,-0.013057 0.0115,-0.01201 0.012,-0.011412 0.012,-0.011313 0.012,-0.011363 0.012,-0.011512 0.0115,-0.011861 0.011,-0.012658 0.009,-0.013755 0.007,-0.014801 0.007,-0.0153 0.006,-0.015499 0.005,-0.015798 0.005,-0.016097 v -0.016795 l 2e-4,-0.016645 v -0.016745 l 0.005,-0.015549 0.009,-0.014004 0.009,-0.013904 0.007,-0.014901 0.007,-0.014702 0.009,-0.013954 0.009,-0.013705 0.009,-0.013555 0.01,-0.013406 0.01,-0.013256 v -9.809e-4 l 0.0105,-0.011512 0.013,-0.010615 0.013,-0.010117 0.0134,-0.00982 0.012,-0.011412 0.011,-0.012708 0.009,-0.013605 0.007,-0.014751 v -0.00199 l 0.005,-0.013456 0.005,-0.015698 0.005,-0.016147 0.005,-0.016496 v -0.016446 -0.016496 -0.016496 -0.016645 -0.016695 l 0.005,-0.016147 0.007,-0.0153 0.0105,-0.012559 0.012,-0.011412 0.013,-0.010515 0.0134,-0.00947 0.0145,-0.00792 0.0159,-0.00563 0.016,-0.00349 0.0165,-0.00199 0.0164,-0.0015 0.0165,-9.967e-4 h 0.0164 l 0.0164,4.983e-4 0.0165,9.967e-4 0.0164,4.984e-4 h 0.0164 l 0.0164,-9.967e-4 0.0165,-9.967e-4 0.0164,-4.984e-4 0.0164,-9.967e-4 0.0165,-0.00199 0.0159,-0.00299 0.0164,-0.00349 0.0299,-0.00628 0.0165,-0.00199 0.0164,-0.00299 0.0159,-0.00399 0.016,-0.00449 0.0105,-0.00449 0.005,-0.00199 0.0139,-0.00902 0.0135,-0.00987 0.0144,-0.00787 0.0309,-0.012459 0.0144,-0.00787 0.0125,-0.00753 v -9.967e-4 l 0.0135,-0.00967 0.0125,-0.011014 0.012,-0.011562 0.012,-0.011811 0.011,-0.012409 0.005,-0.00508 0.006,-0.00827 0.009,-0.013804 0.008,-0.014403 0.007,-0.01505 0.005,-0.015698 0.005,-0.015698 0.007,-0.01515 0.007,-0.015001 0.005,-0.015948 0.005,-0.016246 0.005,-0.016346 0.005,-0.016396 0.005,-0.016147 0.005,-0.015698 0.006,-0.015399 0.005,-0.015698 0.005,-0.015848 0.005,-0.015848 0.005,-0.015948 0.005,-0.015997 0.005,-0.016147 0.005,-0.016246 0.005,-0.016396 0.005,-0.016496 0.005,-0.016396 0.005,-0.016396 0.005,-0.016097 0.005,-0.016047 0.005,-0.016247 v -0.016649 l 2.9e-4,-0.016595 v -0.016695 l 5e-4,-0.016595 v -0.016696 -0.016496 -0.016545 -0.016496 -0.016595 -0.016546 -0.016595 -0.016645 -0.016595 -0.016546 -0.016496 -0.016396 -0.016546 -0.016496 -0.016496 -0.016496 l 0.005,-0.016197 0.005,-0.016047 0.005,-0.015997 0.005,-0.016147 0.005,-0.016247 0.005,-0.016396 0.005,-0.016247 0.005,-0.015997 0.005,-0.015898 0.005,-0.015898 0.005,-0.015898 0.005,-0.015848 0.005,-0.015848 0.005,-0.015798 0.005,-0.015898 0.005,-0.015798 0.005,-0.015848 0.005,-0.015698 0.005,-0.015698 0.005,-0.015798 0.005,-0.015848 0.005,-0.015898 0.005,-0.015947 0.005,-0.015898 0.005,-0.015997 0.005,-0.015997 0.005,-0.016247 v -0.016546 -0.016446 -0.016545 -0.016595 -0.016496 -0.016695 l 3.5e-4,-0.016595 -3.5e-4,-0.016645 v -0.016645 -0.016546 -0.016396 l -0.005,-0.016346 -0.005,-0.016346 -0.005,-0.016247 -0.005,-0.016197 v -0.016147 l 0.005,-0.016047 0.005,-0.016097 0.005,-0.016197 0.005,-0.016296 0.005,-0.016047 0.005,-0.015848 0.005,-0.016247 v -0.016545 -0.016546 -0.016645 -0.016645 l -3.4e-4,-0.016496 -0.005,-0.016296 -0.005,-0.016147 v -0.016496 -0.016645 l -0.005,-0.016097 v -0.016346 l -1.5e-4,-0.016894 v -0.016695 l 0.005,-0.015449 0.008,-0.01221 v -0.00149 l 0.01,-0.013057 0.0115,-0.01221 0.0125,-0.011113 0.0135,-0.00902 0.0155,-0.00623 0.014,-0.00872 0.0125,-0.010914 0.0115,-0.011861 0.01,-0.013356 0.009,-0.013705 0.009,-0.013954 0.009,-0.014054 0.009,-0.014104 0.008,-0.014253 0.008,-0.014452 0.007,-0.01515 0.006,-0.015599 0.005,-0.015798 0.005,-0.015898 0.005,-0.015898 0.005,-0.016047 0.005,-0.016296 v -0.016446 -0.016994 -0.016446 l 0.008,-0.013954 0.011,-0.012758 0.011,-0.012808 0.01,-0.013206 0.0105,-0.013007 0.011,-0.012608 0.011,-0.01226 0.013,-0.00992 0.0125,-0.00797 0.005,-0.015549 0.005,-0.016296 0.005,-0.016695 0.005,-0.016845 0.005,-0.016745 0.005,-0.016396 0.005,-0.016396 0.005,-0.016396 v -0.016595 -0.016446 l 0.005,-0.015748 0.008,-0.014353 0.012,-0.011512 0.012,-0.011412 v -0.00249 l 0.008,-0.010914 0.009,-0.013555 0.012,-0.010964 0.0155,-0.00668 0.009,-0.012658 0.005,-0.015848 0.005,-0.016396 0.005,-0.015947 0.005,-0.016246 v -0.016346 -0.016944 l -0.005,-0.015549 -0.0105,-0.013306 -0.012,-0.011412 -0.013,-0.010416 -0.0125,-0.010665 -0.013,-0.010466 -0.0149,-0.00767 -0.0135,-0.00967 -0.0135,-0.011412 -0.013,-0.00872 -0.0149,-0.00762 -0.011,-0.011961 -0.009,-0.013854 -0.008,-0.014801 -0.006,-0.01525 -0.005,-0.016346 v -0.016645 -0.016546 l -3.5e-4,-0.016695 v -0.016546 l 0.005,-0.016496 0.005,-0.016147 0.005,-0.015748 0.006,-0.01525 0.007,-0.014901 0.008,-0.014403 0.008,-0.014253 0.007,-0.014901 0.005,-0.015698 0.005,-0.016197 0.005,-0.016097 0.005,-0.016097 0.005,-0.016197 0.005,-0.016246 0.005,-0.016346 0.005,-0.01834 0.005,-0.014153 0.005,-0.016197 0.005,-0.015997 0.005,-0.015698 0.006,-0.015549 0.006,-0.015549 0.005,-0.015798 0.005,-0.015798 0.005,-0.015599 0.006,-0.015599 0.006,-0.015499 0.006,-0.015399 0.007,-0.014951 0.008,-0.014602 0.008,-0.014403 0.008,-0.014502 0.008,-0.014602 0.008,-0.014552 0.008,-0.014253 0.01,-0.013306 0.009,-0.013954 0.007,-0.014851 0.007,-0.01505 0.007,-0.014751 0.008,-0.014452 0.009,-0.014253 0.009,-0.017891 0.005,-0.011612 0.005,-0.016197 0.005,-0.016496 0.005,-0.016446 v -0.016546 -0.016296 l -0.005,-0.016097 -0.007,-0.01505 -0.009,-0.013904 -0.009,-0.013904 -0.008,-0.014353 -0.008,-0.014552 -0.007,-0.014801 -0.007,-0.014801 -0.009,-0.014004 -0.0115,-0.01211 -0.006,-0.014951 -0.005,-0.016097 -0.005,-0.016296 -0.005,-0.015848 -0.007,-0.014801 -0.008,-0.014652 -0.005,-0.015698 -0.005,-0.016246 -0.005,-0.016446 v -0.016496 l 0.005,-0.033241 0.005,-0.015848 0.01,-0.013555 0.01,-0.013705 0.008,-0.014303 v -0.016097 l -2e-4,-0.016595 v -0.01686 -0.016844 l -2e-4,-0.016695 -3.5e-4,-0.016595 v -0.010266 -0.00623 l -0.005,-0.016346 -0.005,-0.016296 -0.005,-0.016346 v -0.016545 -0.016496 l -0.005,-0.016246 -0.005,-0.016247 -0.005,-0.016197 -0.005,-0.016247 -0.005,-0.016097 -0.005,-0.015898 -0.007,-0.014652 -0.009,-0.013804 -0.01,-0.013406 -0.0214,-0.024968 -0.011,-0.012409 -0.009,-0.013904 -0.007,-0.01515 -0.008,-0.014253 -0.007,-0.014901 -0.005,-0.015748 -0.005,-0.016296 v -0.016695 l 3.5e-4,-0.016695 v -0.016546 l 0.005,-0.016346 0.005,-0.016396 v -0.016545 -0.016645 l 3.5e-4,-0.016595 v -0.016645 -0.016545 -0.016595 -0.016546 l 0.005,-0.016396 0.005,-0.016296 0.005,-0.016247 0.005,-0.016346 v -0.016545 -0.016595 -0.016595 l -3.5e-4,-0.016695 v -0.016645 -0.016595 -0.016645 -0.016645 -0.016595 -0.016496 l -0.005,-0.016396 -0.005,-0.016296 -0.005,-0.016296 -0.005,-0.016446 -0.005,-0.016246 -0.005,-0.016296 v -0.016452 -0.016745 -0.016446 l -0.005,-0.015848 -0.005,-0.016247 v -0.016496 -0.016645 -0.016496 -0.016496 l 0.005,-0.016396 v -0.016446 -0.016595 -0.016546 l 0.005,-0.016446 0.005,-0.016446 0.005,-0.016346 0.005,-0.016496 0.005,-0.016197 0.005,-0.015599 0.006,-0.015399 0.006,-0.015449 0.005,-0.015748 v -0.016892 l 0.006,-0.014652 0.01,-0.013206 0.011,-0.012708 0.011,-0.012658 0.0105,-0.012858 0.011,-0.012409 0.012,-0.010914 0.014,-0.00872 0.0139,-0.00862 0.012,-0.010764 0.0105,-0.013057 0.009,-0.013954 0.006,-0.015449 0.005,-0.016296 v -0.016546 -0.016645 l -2e-4,-0.00897 v -0.00767 l -5e-4,-0.016645 v -0.016645 -0.016496 -0.016595 -0.016595 l 1.5e-4,-0.016645 v -0.016645 l 0.005,-0.016346 0.005,-0.015648 0.007,-0.014901 0.011,-0.01216 0.006,-0.01525 0.008,-0.014054 0.0115,-0.01201 0.012,-0.011363 0.0135,-0.010017 0.0149,-0.00613 0.016,-0.00399 0.016,-0.00249 0.0164,-0.0015 0.0165,-9.967e-4 0.0164,-1.993e-4 0.0164,9.967e-4 0.016,0.00249 0.0159,0.00349 0.016,0.00349 0.0155,0.00449 0.0155,0.00633 0.0149,0.00792 0.0155,0.00399 0.0164,-4.984e-4 0.0165,-0.00299 0.016,-0.00399 0.0155,-0.00568 0.0149,-0.00633 0.0149,-0.00673 0.0144,-0.00807 0.0144,-0.00777 0.0155,-0.00508 0.016,-0.00299 0.0165,-0.00199 0.0164,-0.0015 0.0165,-9.968e-4 0.0164,-4.535e-4 0.0164,9.967e-4 0.0165,0.00249 0.0159,0.00299 0.016,0.00449 0.0159,0.00399 0.016,9.967e-4 0.0164,-0.00199 0.0164,-0.00349 0.0155,-0.00503 0.0149,-0.00658 0.0149,-0.00753 0.0145,-0.00762 0.0149,-0.00658 0.0155,-0.00553 0.0155,-0.00573 0.0144,-0.00758 0.0125,-0.010416 0.012,-0.011861 0.012,-0.011512 0.012,-0.011462 0.012,-0.011562 0.0115,-0.011811 0.011,-0.01226 0.0105,-0.012758 0.01,-0.013007 0.009,-0.013456 0.009,-0.013854 0.008,-0.014403 0.007,-0.0151 0.007,-0.0152 0.008,-0.014652 0.009,-0.013954 0.009,-0.013655 0.009,-0.013954 0.008,-0.014303 0.008,-0.014702 0.006,-0.0153 0.005,-0.016097 0.005,-0.015648 0.007,-0.0151 0.007,-0.015001 0.006,-0.01525 0.006,-0.015499 0.006,-0.015599 0.005,-0.015798 0.005,-0.016446 0.005,-0.016147 0.007,-0.014602 0.009,-0.013854 0.0309,-0.032144 -0.0139,-0.032344 -0.007,-0.014702 -0.007,-0.015001 -0.006,-0.0153 -0.005,-0.015599 -0.005,-0.016396 v -0.016862 l -0.005,-0.016446 -0.005,-0.015349 -0.01,-0.013306 -0.013,-0.010814 -0.0139,-0.00827 -0.0149,-0.00713 -0.015,-0.010366 -0.0264,0.00299 -0.35084,-0.00299 -0.0916,1.844e-4 -0.44264,3.987e-4 -0.32154,1.844e-4 h -0.1209 l -0.12753,-5e-6 -0.31507,-4.385e-4 -0.44249,-9.967e-4 -0.44414,-9.968e-4 h -0.14228 l -0.29867,1.994e-4 h -0.4426 l -0.30121,-1.794e-4 -0.14123,-2.193e-4 -0.44264,-9.967e-4 -0.44265,-9.967e-4 -0.11233,-3.439e-4 -0.265322,-9.967e-4 -0.0648,-1.844e-4 -0.44264,-9.967e-4 -0.14089,-4.535e-4 -0.096,-3.14e-4 -0.0517,-1.794e-4 -0.0493,-1.844e-4 -0.10465,-3.239e-4 -0.34392,-0.0015 -0.012,1.794e-4 -0.0865,9.967e-4 -0.44264,0.00399 -0.145322,0.0015 -0.29712,0.00249 -0.44265,0.00349 -0.14532,9.967e-4 -0.29727,-4.984e-4 -0.44249,-9.967e-4 -0.442596,-0.0015 -0.257602,-9.967e-4 -0.133161,-4.734e-4 h -0.05173 l -0.215341,1.993e-4 h -0.07396 l -0.153296,1.794e-4 h -0.14432 -0.298119 l -0.421462,-1.794e-4 h -0.02143 l -0.378354,-4.037e-4 h -0.06409 l -0.442443,-2.192e-4 -0.442642,-4.984e-4 -0.100918,-1.844e-4 -0.189925,-3.439e-4 -0.1516,-2.94e-4 -0.203032,-4.734e-4 -0.239461,-4.386e-4 -0.442444,-9.967e-4 -0.09852,-0.0015 -0.353935,-0.00598 -0.435815,-0.0015 -0.0065,-1.99e-5 -0.442443,0.00663 -0.285959,-0.0278084 -0.02342,0.1722428 -0.06548,0.4623775 -0.06459,0.4460512 -0.06479,0.4461161 -1.99e-4,4.983e-4 -0.04784,0.328 -0.01694,0.1176476 -0.05038,0.3550858 -0.01296,0.091264 -0.008,0.057944 -0.05527,0.3883064 -0.06359,0.4462905 -0.06359,0.4462954 -0.06379,0.4462506 -0.06374,0.4462706 -0.04635,0.3240081 -0.01744,0.1222026 -0.02641,0.1859577 -0.0294,0.1972106 -0.0095,0.062928 -0.006,0.039919 -0.0607,0.4059682 -0.06648,0.445822 -0.06683,0.445842 -0.06678,0.4458668 -0.06005,0.401483 -0.0065,0.044155 -0.06444,0.4458619 -0.06444,0.4461759 -0.01944,0.133615 -0.04186,0.2911805 -0.005,0.02193 -0.06459,0.446211 -0.09823,0.67715 -0.04286,0.293768 -0.03489,0.239327 -0.01744,0.128103 -0.06055,0.446799 -0.05322,0.39321 -0.007,0.05357 -0.06075,0.446759 -0.04286,0.282086 -0.02342,0.167379 -0.03937,0.279106 -0.02841,0.202079 v 0.01 l -0.01246,0.09366 -0.01844,0.141031 -0.05936,0.446973 -0.0065,0.04929 -0.05477,0.397361 -0.0619,0.4466 -0.01296,0.09259 -0.05392,0.353331 -0.05038,0.299335 -0.0085,0.05699 0.03738,0.0468 0.147016,0.183172 0.146717,0.159998 0.107147,0.116711 0.128925,0.144678 0.09917,0.01425 0.147364,0.02118 -0.02392,0.301457 0.448723,0.07316 0.03289,0.0054 0.07969,0.01296 0.256605,0.07851 -0.01445,0.06953 -0.0923,0.369025 -0.01,0.04749 -0.0055,0.02691 -0.005,0.01585 -0.04934,0.234926 -0.05801,0.202852 -0.110386,0.386961 -0.01346,0.04685 -0.123643,0.433812 -0.02641,0.09245 -0.09748,0.341356 -0.0597,0.208872 -0.06479,0.22478 -0.119207,0.439553 -0.115321,0.398587 -0.01,0.03484 -0.111084,0.395273 -0.01096,0.03912 -0.08462,0.300645 -0.03788,0.13377 -0.03239,0.114493 -0.0289,0.0997 -0.05258,0.181283 -0.01096,0.03817 -0.126035,0.433243 -0.02641,0.09035 -0.05681,0.178746 -0.05138,0.161813 -0.03987,0.125202 -0.06524,0.06588 z" /><g
     id="g20"
     transform="matrix(1.0850237,0,0,1.0850237,22.445093,115.43364)"
     style="stroke-width:0.921639"><path
       style="font-weight:bold;font-size:122.672px;line-height:1.25;font-family:'DejaVu Sans';-inkscape-font-specification:'DejaVu Sans Bold';fill:#2b5faa;stroke-width:0.921639"
       d="m 36.867895,-99.533104 h 6.428185 v 24.928 h -6.428185 z"
       id="path17" /><path
       d="m 17.938838,-99.532994 v 24.92782 h 5.912529 v -8.64882 h 3.900957 c 0.182369,0 0.361772,-0.003 0.538822,-0.008 0.177051,-0.005 0.351568,-0.0136 0.523299,-0.0245 0.171732,-0.011 0.340863,-0.0249 0.507275,-0.0414 0.166412,-0.0165 0.330157,-0.0353 0.49125,-0.0572 0.161093,-0.0219 0.319452,-0.0466 0.475226,-0.074 0.155774,-0.0274 0.308746,-0.0575 0.459201,-0.0904 0.150455,-0.0329 0.298542,-0.0689 0.443678,-0.10726 0.145135,-0.0384 0.287335,-0.0792 0.427152,-0.12304 0.139816,-0.0438 0.277131,-0.0906 0.411629,-0.13992 0.134497,-0.0493 0.266425,-0.10092 0.395604,-0.1557 0.129178,-0.0548 0.25572,-0.11233 0.379579,-0.17259 0.12386,-0.0603 0.245015,-0.12372 0.363555,-0.18946 0.118541,-0.0657 0.234309,-0.13403 0.347532,-0.20525 0.11322,-0.0712 0.224104,-0.14488 0.332006,-0.22158 0.107903,-0.0767 0.212898,-0.15629 0.315482,-0.23847 0.102583,-0.0822 0.202693,-0.16713 0.299958,-0.25479 0.0979,-0.0884 0.19265,-0.17917 0.284433,-0.27221 0.09179,-0.0931 0.180241,-0.18863 0.265906,-0.28637 0.08567,-0.0978 0.168334,-0.19754 0.24788,-0.29998 0.07955,-0.10244 0.156424,-0.20755 0.229852,-0.31469 0.07343,-0.10713 0.143513,-0.21646 0.210821,-0.32829 0.06731,-0.11183 0.131605,-0.22592 0.192793,-0.34244 0.06119,-0.11653 0.119197,-0.23538 0.174267,-0.3566 0.05507,-0.12123 0.107287,-0.24484 0.15624,-0.37076 0.04895,-0.12592 0.09488,-0.2543 0.13771,-0.38491 0.04283,-0.13062 0.08247,-0.26321 0.119181,-0.39853 0.03671,-0.13531 0.07056,-0.27321 0.101154,-0.41322 0.0306,-0.14001 0.05815,-0.28213 0.08263,-0.42683 0.02448,-0.14471 0.04574,-0.29214 0.0641,-0.44153 0.01836,-0.1494 0.03383,-0.30106 0.04607,-0.45515 0.01223,-0.15409 0.02144,-0.31051 0.02754,-0.4693 0.0061,-0.15879 0.009,-0.31996 0.009,-0.48345 0,-0.16279 -0.0029,-0.32318 -0.009,-0.48128 -0.0061,-0.15809 -0.01531,-0.31372 -0.02754,-0.46712 -0.01223,-0.1534 -0.02771,-0.3048 -0.04607,-0.45351 -0.01836,-0.1487 -0.03962,-0.2948 -0.0641,-0.43881 -0.02449,-0.14401 -0.05203,-0.28589 -0.08263,-0.4252 -0.0306,-0.13931 -0.06444,-0.27588 -0.101154,-0.4105 -0.03672,-0.13462 -0.07635,-0.26697 -0.119181,-0.39689 -0.04283,-0.12992 -0.08876,-0.25751 -0.13771,-0.38273 -0.04895,-0.12523 -0.10117,-0.24806 -0.15624,-0.36858 -0.05507,-0.12053 -0.113076,-0.2386 -0.174267,-0.35443 -0.06119,-0.11583 -0.125485,-0.22967 -0.192793,-0.34081 -0.06731,-0.11114 -0.137396,-0.21967 -0.210821,-0.32611 -0.07343,-0.10644 -0.150304,-0.21076 -0.229852,-0.31251 -0.07955,-0.10174 -0.162214,-0.2013 -0.24788,-0.29835 -0.08566,-0.097 -0.17412,-0.19129 -0.265906,-0.28364 -0.09178,-0.0924 -0.18653,-0.18238 -0.284433,-0.27004 -0.09727,-0.0883 -0.197375,-0.17414 -0.299958,-0.25697 -0.102584,-0.0828 -0.207579,-0.16279 -0.315482,-0.2401 -0.107902,-0.0773 -0.218786,-0.15197 -0.332006,-0.22376 -0.113223,-0.0718 -0.228991,-0.14062 -0.347532,-0.20688 -0.11854,-0.0663 -0.239695,-0.12981 -0.363555,-0.19055 -0.123859,-0.0607 -0.250401,-0.119 -0.379579,-0.17422 -0.129179,-0.0552 -0.261107,-0.10764 -0.395604,-0.15734 -0.134498,-0.0497 -0.271813,-0.0963 -0.411629,-0.14046 -0.139817,-0.0442 -0.282017,-0.086 -0.427152,-0.12468 -0.145136,-0.0386 -0.293223,-0.0741 -0.443678,-0.10725 -0.150455,-0.0331 -0.303427,-0.0639 -0.459201,-0.0915 -0.155774,-0.0276 -0.314133,-0.0525 -0.475226,-0.0746 -0.161093,-0.0221 -0.324838,-0.0411 -0.49125,-0.0577 -0.166412,-0.0166 -0.335543,-0.0303 -0.507275,-0.0414 -0.171731,-0.011 -0.346248,-0.0195 -0.523299,-0.025 -0.17705,-0.006 -0.356453,-0.008 -0.538822,-0.008 z m 5.912529,4.65814 h 3.270995 c 0.143336,0 0.282961,0.005 0.418138,0.0142 0.135178,0.009 0.266082,0.0237 0.3931,0.0425 0.127019,0.0188 0.250204,0.0421 0.369064,0.0702 0.11886,0.0282 0.233324,0.061 0.344025,0.0985 0.110702,0.0376 0.217446,0.0799 0.319989,0.12686 0.102543,0.047 0.201067,0.0988 0.295451,0.15516 0.09438,0.0563 0.184688,0.11718 0.270914,0.18293 0.08623,0.0657 0.168309,0.1361 0.246376,0.21123 0.07807,0.0751 0.151026,0.15424 0.219335,0.23738 0.06831,0.0831 0.13174,0.17019 0.19029,0.26132 0.05855,0.0911 0.112455,0.18669 0.161247,0.28583 0.04879,0.0991 0.09267,0.2021 0.131701,0.30924 0.03903,0.10713 0.07338,0.21805 0.102657,0.33319 0.02927,0.11513 0.05359,0.23455 0.07311,0.35769 0.01952,0.12314 0.03381,0.24996 0.04357,0.3811 0.0098,0.13114 0.01502,0.26646 0.01502,0.4056 0,0.13914 -0.0053,0.27429 -0.01502,0.4056 -0.0098,0.13131 -0.02405,0.25871 -0.04357,0.38219 -0.01951,0.12348 -0.04384,0.24312 -0.07311,0.35878 -0.02928,0.11566 -0.06362,0.22754 -0.102657,0.33537 -0.03903,0.10783 -0.08291,0.21195 -0.131701,0.31196 -0.04879,0.1 -0.102696,0.19582 -0.161247,0.288 -0.05855,0.0922 -0.121982,0.18024 -0.19029,0.26459 -0.06831,0.0844 -0.141268,0.16521 -0.219335,0.24173 -0.07807,0.0751 -0.16015,0.1455 -0.246376,0.21124 -0.08623,0.0657 -0.17653,0.12658 -0.270914,0.18293 -0.09438,0.0564 -0.192908,0.1082 -0.295451,0.15516 -0.102543,0.047 -0.209287,0.0893 -0.319989,0.12685 -0.110701,0.0376 -0.225165,0.0704 -0.344025,0.0985 -0.11886,0.0282 -0.242045,0.0514 -0.369064,0.0702 -0.127018,0.0188 -0.257922,0.0331 -0.3931,0.0425 -0.135177,0.009 -0.274802,0.0142 -0.418138,0.0142 h -3.270995 z"
       style="font-weight:bold;font-size:122.672px;line-height:1.25;font-family:'DejaVu Sans';-inkscape-font-specification:'DejaVu Sans Bold';fill:#2b5faa;stroke-width:0.921639"
       id="path18" /><path
       d="m 4.4260821,-99.532994 -9.233535,24.92782 h 6.461841 l 1.585925,-4.54163 H 13.291582 l 1.569593,4.54163 h 6.461841 l -9.233535,-24.92782 z m 3.839866,5.84391 3.4064989,9.91734 H 4.8431161 Z"
       style="font-weight:bold;font-size:122.672px;line-height:1.25;font-family:'DejaVu Sans';-inkscape-font-specification:'DejaVu Sans Bold';fill:#2b5faa;stroke-width:0.921639"
       id="path19" /><path
       id="path18-8"
       style="font-weight:bold;font-size:122.672px;line-height:1.25;font-family:'DejaVu Sans';-inkscape-font-specification:'DejaVu Sans Bold';fill:#cb060f;fill-opacity:1;stroke-width:0.921639"
       d="m 17.938838,-83.741254 v 9.13608 h 3.384178 z" /></g></g></svg>
