<?xml version="1.0" encoding="UTF-8" standalone="no"?>
<!-- Generator: Adobe Illustrator 16.0.0, SVG Export Plug-In . SVG Version: 6.00 Build 0)  -->

<svg
   version="1.1"
   id="Capa_1"
   x="0px"
   y="0px"
   width="169.299"
   height="40.786999"
   viewBox="0 0 169.299 40.786999"
   enable-background="new 0 0 590.459 60"
   xml:space="preserve"
   sodipodi:docname="arca.svg"
   inkscape:version="1.4.4 (dcaf3e7d9e, 2026-05-05)"
   xmlns:inkscape="http://www.inkscape.org/namespaces/inkscape"
   xmlns:sodipodi="http://sodipodi.sourceforge.net/DTD/sodipodi-0.dtd"
   xmlns="http://www.w3.org/2000/svg"
   xmlns:svg="http://www.w3.org/2000/svg"><defs
   id="defs32" /><sodipodi:namedview
   id="namedview32"
   pagecolor="#ffffff"
   bordercolor="#000000"
   borderopacity="0.25"
   inkscape:showpageshadow="2"
   inkscape:pageopacity="0.0"
   inkscape:pagecheckerboard="0"
   inkscape:deskcolor="#d1d1d1"
   inkscape:zoom="3.4346162"
   inkscape:cx="96.662911"
   inkscape:cy="31.590138"
   inkscape:window-width="1536"
   inkscape:window-height="792"
   inkscape:window-x="0"
   inkscape:window-y="0"
   inkscape:window-maximized="1"
   inkscape:current-layer="g31" />
<g
   id="g32"
   style="fill:#000000"
   transform="translate(-2.5,-10.161)">
	
	<g
   id="g31"
   style="fill:#000000">
		
		
		<g
   id="g33"
   transform="translate(-13.898001,-3.3482646)"><path
     fill="#FFFFFF"
     d="M 30.295998,50.384659 44.987991,17.421704 h 7.534056 l 14.738799,32.962955 h -8.00462 L 47.200399,21.282343 H 50.21352 L 38.112559,50.384659 Z m 7.345996,-7.064325 2.024349,-5.791378 h 16.95288 l 2.07199,5.791378 z"
     id="path1"
     style="fill:#000000;stroke-width:1" /><path
     fill="#FFFFFF"
     d="M 70.697726,50.383824 V 17.421704 H 84.96596 c 2.950434,0 5.493826,0.478088 7.628503,1.435098 2.134677,0.957847 3.782908,2.332765 4.94553,4.123085 1.16095,1.787813 1.741007,3.924162 1.741007,6.403195 0,2.44978 -0.580057,4.56189 -1.741007,6.331315 -1.161786,1.775276 -2.810017,3.133479 -4.94553,4.075445 -2.134677,0.941965 -4.678069,1.41253 -7.628503,1.41253 H 74.936154 l 3.39091,-3.343268 v 12.52472 z m 7.629338,-11.678037 -3.39091,-3.578969 h 9.606047 c 2.354496,0 4.113056,-0.509012 5.274841,-1.529546 1.16095,-1.019696 1.741008,-2.424705 1.741008,-4.21419 0,-1.820409 -0.580893,-3.23294 -1.741008,-4.237592 -1.161785,-1.004653 -2.920345,-1.506979 -5.274841,-1.506979 h -9.606047 l 3.39091,-3.627445 z M 91.652497,50.383824 83.412176,38.423281 h 8.146709 l 8.335605,11.960543 z"
     id="path2"
     style="fill:#000000;stroke-width:1" /><path
     fill="#FFFFFF"
     d="m 121.08329,50.948 c -2.54256,0 -4.90541,-0.4154 -7.08689,-1.246203 -2.18316,-0.83331 -4.07378,-2.016826 -5.67437,-3.555566 -1.60142,-1.53874 -2.8493,-3.344105 -3.74362,-5.416095 -0.89433,-2.071155 -1.34149,-4.347085 -1.34149,-6.826954 0,-2.479034 0.44716,-4.754964 1.34149,-6.828626 0.89516,-2.071991 2.14972,-3.87652 3.76703,-5.41526 1.6173,-1.537067 3.50876,-2.723092 5.67436,-3.555566 2.16644,-0.830801 4.53681,-1.246202 7.11029,-1.246202 2.85683,0 5.43951,0.493967 7.74719,1.482739 2.30686,0.987935 4.24512,2.441421 5.81478,4.354607 l -4.89621,4.520935 c -1.13087,-1.286322 -2.38543,-2.252527 -3.76786,-2.896942 -1.38078,-0.642743 -2.88776,-0.965369 -4.52011,-0.965369 -1.53874,0 -2.95127,0.252417 -4.23843,0.753907 -1.28882,0.503162 -2.40213,1.224472 -3.34326,2.165602 -0.9428,0.942802 -1.67247,2.056946 -2.19068,3.344941 -0.51737,1.286322 -0.77731,2.714734 -0.77731,4.284398 0,1.571336 0.25994,2.998912 0.77731,4.285235 0.51737,1.287157 1.24704,2.401302 2.19068,3.343268 0.94113,0.94113 2.05444,1.664111 3.34326,2.165602 1.28716,0.503997 2.69886,0.75307 4.23843,0.75307 1.63235,0 3.13933,-0.320953 4.52011,-0.964531 1.38243,-0.642744 2.63699,-1.623158 3.76786,-2.942913 l 4.89621,4.520935 c -1.56966,1.914857 -3.50792,3.374193 -5.81478,4.378846 -2.30768,1.004652 -4.9054,1.506142 -7.79399,1.506142"
     id="path3"
     style="fill:#000000;stroke-width:1" /><path
     fill="#FFFFFF"
     d="m 134.83248,50.384659 14.69283,-32.962955 h 7.5349 L 171.799,50.384659 h -8.00546 L 151.73772,21.282343 h 3.01312 l -12.10179,29.102316 z m 7.346,-7.064325 2.02519,-5.791378 h 16.95287 l 2.07115,5.791378 z"
     id="path4"
     style="fill:#000000;stroke-width:1" /></g>
		
		
		
		
		
		
		
		
		
		
		
		
		
		
		
		
		
		
		
		
		
		
		
		
		
		
		
		
		
		
		
		
		
		
		
		
		
	</g>
</g>
</svg>
