<?xml version="1.0" encoding="UTF-8" standalone="no"?>
<svg
   xmlns:dc="http://purl.org/dc/elements/1.1/"
   xmlns:cc="http://creativecommons.org/ns#"
   xmlns:rdf="http://www.w3.org/1999/02/22-rdf-syntax-ns#"
   xmlns:svg="http://www.w3.org/2000/svg"
   xmlns="http://www.w3.org/2000/svg"
   height="40"
   width="52.724537"
   xml:space="preserve"
   viewBox="0 0 52.724537 40"
   y="0px"
   x="0px"
   id="Layer_1"
   version="1.1"><metadata
   id="metadata11"><rdf:RDF><cc:Work
       rdf:about=""><dc:format>image/svg+xml</dc:format><dc:type
         rdf:resource="http://purl.org/dc/dcmitype/StillImage" /><dc:title></dc:title></cc:Work></rdf:RDF></metadata><defs
   id="defs9" />
<style
   id="style2"
   type="text/css">
	.st0{fill:#D00202;}
</style>
<g
   transform="matrix(0.14445648,0,0,0.14445648,-9.7466093,-16.120425)"
   id="XMLID_1_">
	<path
   style="fill:#d00202"
   d="m 279.1,112.1 c 29.1,-1.9 59,1.4 86.1,12.4 12.1,5 23.6,11.7 33.6,20.1 16.8,13.5 28.6,33.2 32.2,54.5 3.9,21.9 -0.3,44.6 -9.4,64.6 -9,20.1 -22.7,38 -38.4,53.3 -17,16.5 -36.6,30.2 -57.6,41.1 -21.9,11.3 -45.2,19.8 -69.3,24.9 -29.8,6.3 -60.9,7.6 -90.9,1.7 -23.1,-4.6 -45.8,-13.7 -64,-28.9 -15,-12.6 -26.5,-29.7 -31.2,-48.8 -4.8,-19.2 -3,-39.7 3.3,-58.3 7.2,-21.3 19.7,-40.5 34.9,-56.9 28.6,-31 65.9,-53.2 105.7,-66.5 21,-7.2 42.9,-11.8 65,-13.2 z m 46.1,30.3 c -1.6,0.2 -3.6,0.4 -4.4,2.1 -0.8,2 -0.9,4.1 -1.4,6.2 -9.4,51.1 -18.8,102.2 -28.3,153.3 -0.2,1.2 -0.5,2.4 -0.2,3.6 0.6,0.8 1.8,0.3 2.6,0.3 6.6,-1 13.3,-2.1 19.9,-3.2 1.5,-0.1 1.7,-1.8 1.9,-3 2.9,-15.4 6,-30.7 8.8,-46.1 4.8,13.8 9.8,27.6 14.7,41.5 0.4,1 0.6,2.1 1.4,2.9 2.1,0.5 4.3,-0.4 6.5,-0.6 5.3,-1 10.8,-1.4 16,-2.9 0,-2 -0.9,-3.9 -1.5,-5.7 -4.7,-13.4 -9.3,-26.9 -14,-40.3 9.3,-15.3 18.6,-30.5 28,-45.7 0.5,-0.9 1.4,-2.2 0,-2.8 -6.6,0.4 -13.2,1.3 -19.8,1.9 -1.6,0 -3.2,0.8 -3.9,2.3 -8.8,14.7 -17.4,29.5 -26.2,44.2 6.5,-35 13.1,-70.1 19.6,-105.1 0.1,-1 0.3,-2.1 0.1,-3.1 -0.3,-1.4 -2,-1.3 -3,-1.3 -5.6,0.2 -11.2,0.9 -16.8,1.5 z m -123.8,20.4 c -27.4,56.5 -54.7,113.1 -82.1,169.6 -0.3,0.9 -0.9,1.9 -0.4,2.9 1.2,0.6 2.5,0.2 3.7,0.1 7.6,-1.2 15.1,-2.4 22.7,-3.6 1.1,-0.2 2.5,-0.4 2.8,-1.7 4.1,-9.7 8.3,-19.3 12.3,-29.1 11.1,-1.8 22.3,-3.5 33.5,-5.3 0.1,8.7 0.2,17.3 0.4,26 -0.2,1.5 1.3,2 2.5,1.7 5.7,-0.8 11.4,-1.8 17.1,-2.7 1.5,-0.3 3.2,-0.3 4.5,-1.4 0.6,-1 0.5,-2.1 0.4,-3.2 -3.8,-50.9 -7.6,-101.9 -11.5,-152.8 -0.1,-1.5 -0.6,-3.8 -2.5,-3.7 -1.7,0.4 -2.7,1.8 -3.4,3.2 z m 62.7,49.4 c -7.2,1.3 -14.3,4.5 -19.2,10 -6.6,7.3 -8.6,18 -6.7,27.5 1.5,6.6 5.9,12.1 10.7,16.7 4.6,4.1 9.1,8.7 11.3,14.5 1.3,3.5 1.6,7.7 -0.6,10.9 -2.7,3.8 -7.5,5.5 -12,5.4 -5.9,-0.1 -12.1,-2.7 -15.2,-7.9 -1.5,5.6 -3.1,11.2 -4.8,16.7 -0.4,1.6 -1,3.3 -0.5,4.9 1,1.8 3.2,2.3 5,3 9.2,3 19.1,2.2 28.4,0.2 13.6,-3.8 24.6,-16.3 25.7,-30.5 0.8,-8.1 -1.8,-16.5 -7.2,-22.7 -5.2,-5.8 -11.8,-10.3 -16.4,-16.6 -4.3,-5.8 0,-15.5 7.2,-15.9 5.2,-0.6 9.4,3 13.5,5.6 1.8,-5.3 3.8,-10.6 5.5,-16 0.6,-1.4 0.1,-3.2 -1.4,-3.7 -7.4,-2.8 -15.6,-3.6 -23.3,-2.1 z m -72.2,13.2 c -7.5,17.7 -15,35.4 -22.5,53.1 8.2,-1.2 16.3,-2.6 24.5,-3.8 0,-17.9 -0.2,-35.9 -0.2,-53.8 -0.5,1.6 -1.1,3 -1.8,4.5 z"
   class="st0"
   id="XMLID_8_" />
</g>
</svg>