<?xml version="1.0" encoding="UTF-8" standalone="no"?>
<svg
   xmlns:dc="http://purl.org/dc/elements/1.1/"
   xmlns:cc="http://creativecommons.org/ns#"
   xmlns:rdf="http://www.w3.org/1999/02/22-rdf-syntax-ns#"
   xmlns:svg="http://www.w3.org/2000/svg"
   xmlns="http://www.w3.org/2000/svg"
   viewBox="0 0 87.86232 40"
   height="40"
   width="87.86232"
   xml:space="preserve"
   id="svg2"
   version="1.1"><metadata
     id="metadata8"><rdf:RDF><cc:Work
         rdf:about=""><dc:format>image/svg+xml</dc:format><dc:type
           rdf:resource="http://purl.org/dc/dcmitype/StillImage" /><dc:title></dc:title></cc:Work></rdf:RDF></metadata><defs
     id="defs6"><clipPath
       id="clipPath20"
       clipPathUnits="userSpaceOnUse"><path
         id="path18"
         d="M 0,136 H 285 V 0 H 0 Z" /></clipPath></defs><g
     transform="matrix(1.3333333,0,0,-1.3333333,-10.213333,68.28)"
     id="g10"><g
       transform="matrix(0.31462372,0,0,0.31462372,5.2499823,14.536831)"
       id="g924"><g
         id="g14"><g
           id="g16"
           clip-path="url(#clipPath20)"><path
             d="M 22.756,21.21 H 7.66 v 95.352 h 15.096 z"
             style="fill:#f18e24;fill-opacity:1;fill-rule:nonzero;stroke:none"
             id="path78" /><g
             id="g80"
             transform="translate(102.0273,69.4609)"><path
               d="m 0,0 c 0,0 -3.161,-0.657 -2.927,4.502 0.294,6.526 0.155,13.102 0.228,19.632 0.035,3.237 -0.788,5.54 -2.74,8.103 -1.832,2.404 -4.632,3.646 -7.559,3.959 -2.949,0.315 -6.293,0.524 -9.192,-0.193 -3.988,-0.985 -6.884,-3.801 -8.36,-7.598 -0.219,-0.564 -1.323,-6.315 -0.987,-6.315 h 8.676 c 0,0 -1.172,8.441 6.097,8.441 4.455,0 4.925,-4.328 4.925,-8.91 V 4.502 c 0,0 -1.409,-5.627 -7.036,-5.627 -5.626,0 -5.886,8.707 -3.283,11.021 2.918,2.593 8.208,3.752 8.911,4.69 v 5.628 c 0,0 -1.875,-0.703 -4.454,-1.642 -4.735,-1.722 -11.314,-2.631 -13.658,-7.788 -0.809,-1.78 -0.94,-3.938 -0.829,-5.867 0.185,-3.218 0.577,-6.976 2.856,-9.468 2.024,-2.213 4.977,-2.906 7.879,-2.906 0,0 5.628,-0.938 10.786,5.628 0,0 -0.335,-5.628 6.566,-5.628 1.835,0 2.81,0.52 4.343,1.408 z"
               style="fill:#008266;fill-opacity:1;fill-rule:nonzero;stroke:none"
               id="path82" /></g><g
             id="g84"
             transform="translate(125.1758,105.6753)"><path
               d="m 0,0 c -4.686,0 -7.748,-3.123 -9.194,-5.05 v 4.292 h -8.848 V -42.03 h 8.848 v 29.137 c 0.375,1.804 1.633,5.083 5.887,6.118 5.888,0 5.667,-5.004 5.667,-5.004 V -42.03 h 8.848 v 30.251 C 11.208,-2.346 6.775,0 0,0"
               style="fill:#008266;fill-opacity:1;fill-rule:nonzero;stroke:none"
               id="path86" /></g><g
             id="g88"
             transform="translate(177.3599,68.332)"><path
               d="m 0,0 c -7.244,0 -7.217,9.563 -7.188,14.588 0.011,2.019 0.174,4.037 0.183,6.055 0.016,4.332 0.714,10.571 6.36,10.571 7.244,0 7.287,-8.517 7.396,-13.786 C 6.808,14.717 6.873,11.922 6.632,9.22 6.405,6.677 5.966,3.449 3.999,1.598 3.029,0.684 1.345,0 0,0 m 11.373,32.343 c -4.114,4.946 -9.437,5 -10.244,5 h -3.871 c 0,0 -5.634,-0.449 -9.114,-5 -2.624,-3.43 -3.723,-7.781 -3.904,-12.01 -0.301,-6.982 -1.26,-15.916 3.742,-21.624 2.119,-2.416 4.932,-4.438 8.176,-4.914 7.05,-1.03 12.937,1.219 16.49,7.584 0.788,1.411 1.581,3.018 2.008,4.584 1.054,3.88 0.981,7.958 0.901,11.945 -0.103,5.163 -0.768,10.328 -4.184,14.435"
               style="fill:#008266;fill-opacity:1;fill-rule:nonzero;stroke:none"
               id="path90" /></g><g
             id="g92"
             transform="translate(205.3252,99.6157)"><path
               d="M 0,0 V 5.301 H -8.849 V -35.971 H 0 v 26.944 c 4.346,10.251 11.781,6.166 11.781,6.166 V 5.982 C 5.246,7.104 1.229,1.898 0,0"
               style="fill:#008266;fill-opacity:1;fill-rule:nonzero;stroke:none"
               id="path94" /></g><g
             id="g96"
             transform="translate(156.4224,68.4209)"><path
               d="m 0,0 c -4.805,0 -6.111,6.827 -6.352,10.328 -0.218,3.154 0.116,6.275 0.116,9.423 0,4.377 0.681,11.107 6.479,11.107 h 2.369 l -0.059,6.378 c 0,0 -7.957,1.762 -14.093,-4.982 -4.819,-5.782 -3.648,-14.143 -3.544,-21.095 0.058,-3.9 0.631,-9.464 3.542,-12.375 3.25,-3.25 5.102,-5.163 14.215,-5.163 V 0 Z"
               style="fill:#008266;fill-opacity:1;fill-rule:nonzero;stroke:none"
               id="path98" /></g><g
             id="g100"
             transform="translate(50.623,68.627)"><path
               d="m 0,0 c -3.97,0 -5.835,3.582 -6.655,6.089 -0.08,0.242 -0.149,0.473 -0.209,0.69 v 17.124 c 0.124,0.332 0.25,0.649 0.376,0.95 1.317,3.145 3.012,6.005 6.731,6.005 4.724,0 5.982,-5.401 6.289,-10.045 V 10.939 C 6.514,10.576 6.494,10.21 6.466,9.84 6.114,5.097 4.815,0 0,0 m 15.38,18.854 v 1.959 h -0.093 c -0.256,4.979 -1.54,10.289 -5.637,13.476 -2.531,1.967 -6.18,3.177 -9.374,2.795 -3.151,-0.376 -5.52,-2.557 -7.15,-5.175 0.042,1.217 -0.011,15.871 0.01,15.871 h -8.849 V -4.982 h 8.849 v 2.929 c 0,-0.769 2.005,-2.417 2.56,-2.864 1.102,-0.882 2.381,-1.444 3.774,-1.668 4.649,-0.751 9.372,1.658 12.313,5.189 2.565,3.077 3.462,7.092 3.707,11.225 0.181,3.061 0.01,6.168 -0.11,9.025"
               style="fill:#008266;fill-opacity:1;fill-rule:nonzero;stroke:none"
               id="path102" /></g></g></g></g></g></svg>