<?xml version="1.0" encoding="UTF-8" standalone="no"?>
<svg
   xmlns:dc="http://purl.org/dc/elements/1.1/"
   xmlns:cc="http://creativecommons.org/ns#"
   xmlns:rdf="http://www.w3.org/1999/02/22-rdf-syntax-ns#"
   xmlns:svg="http://www.w3.org/2000/svg"
   xmlns="http://www.w3.org/2000/svg"
   height="40"
   width="97.709106"
   xml:space="preserve"
   viewBox="0 0 97.709106 40"
   y="0px"
   x="0px"
   id="layer"
   version="1.1"><metadata
   id="metadata49"><rdf:RDF><cc:Work
       rdf:about=""><dc:format>image/svg+xml</dc:format><dc:type
         rdf:resource="http://purl.org/dc/dcmitype/StillImage" /><dc:title></dc:title></cc:Work></rdf:RDF></metadata><defs
   id="defs47" />
<style
   id="style2"
   type="text/css">
	.st0{fill:#4B4B4D;}
</style>
<path
   style="fill:#4b4b4d;stroke-width:0.16280016"
   id="path4"
   d="m 41.022089,0 h 5.095645 c 1.302401,0 2.311762,0.35816 2.962963,1.00936 0.50468,0.50468 0.765161,1.12332 0.765161,1.88848 v 0.0326 c 0,1.36752 -0.781441,2.10013 -1.628002,2.53969 1.334961,0.45584 2.246642,1.221 2.246642,2.75132 v 0.0326 c 0,2.035 -1.660561,3.10948 -4.200244,3.10948 H 41.005809 V 0 Z m 4.688645,4.78632 c 1.286121,0 2.132682,-0.50468 2.132682,-1.5466 v -0.0326 c 0,-0.8954 -0.716321,-1.44892 -2.002442,-1.44892 H 42.975691 V 4.77 h 2.735043 z m 0.58608,4.78633 c 1.367522,0 2.181522,-0.53724 2.181522,-1.56288 v -0.0326 c 0,-0.96052 -0.76516,-1.53032 -2.328042,-1.53032 h -3.158323 v 3.10948 h 3.304843 z"
   class="st0" />
<path
   style="fill:#4b4b4d;stroke-width:0.16280016"
   id="path6"
   d="M 52.23902,8.23769 V 2.78388 h 1.969882 v 4.86773 c 0,1.33496 0.667481,2.10012 1.823362,2.10012 1.139601,0 1.921042,-0.79772 1.921042,-2.1164 V 2.80016 h 1.969882 v 8.56329 h -1.969882 v -1.33496 c -0.553521,0.814 -1.351242,1.51404 -2.669923,1.51404 -1.921042,-0.0163 -3.044363,-1.31868 -3.044363,-3.30484"
   class="st0" />
<path
   style="fill:#4b4b4d;stroke-width:0.16280016"
   id="path8"
   d="m 61.600029,7.09809 v -0.0326 c 0,-2.44201 1.741962,-4.46073 4.183965,-4.46073 2.718762,0 4.102564,2.14896 4.102564,4.60725 0,0.17908 -0.01628,0.35816 -0.03256,0.55352 h -6.284087 c 0.211641,1.40008 1.204722,2.16524 2.458283,2.16524 0.960521,0 1.644282,-0.35816 2.328042,-1.02564 l 1.155881,1.02564 c -0.814,0.9768 -1.921042,1.61172 -3.500203,1.61172 -2.507123,0 -4.411885,-1.80708 -4.411885,-4.44444 m 6.332927,-0.63492 c -0.13024,-1.26984 -0.879121,-2.24665 -2.181522,-2.24665 -1.204722,0 -2.035002,0.92797 -2.214083,2.24665 z"
   class="st0" />
<path
   style="fill:#4b4b4d;stroke-width:0.16280016"
   id="path10"
   d="m 71.530839,2.78388 h 1.953602 v 1.33496 c 0.553521,-0.814 1.351242,-1.51404 2.669922,-1.51404 1.93732,0 3.04436,1.3024 3.04436,3.28857 v 5.4538 h -1.96988 V 6.47945 c 0,-1.33496 -0.66748,-2.08385 -1.82336,-2.08385 -1.139601,0 -1.937322,0.79773 -1.937322,2.11641 v 4.83516 H 71.514559 V 2.78388 Z"
   class="st0" />
<path
   style="fill:#4b4b4d;stroke-width:0.16280016"
   id="path12"
   d="m 80.794173,7.11437 v -0.0326 c 0,-2.44201 1.9536,-4.47701 4.57468,-4.47701 2.62108,0 4.5584,1.98616 4.5584,4.44445 v 0.0326 c 0,2.42572 -1.93732,4.46072 -4.59096,4.46072 -2.62108,0 -4.54212,-2.00244 -4.54212,-4.42816 m 7.1632,0 v -0.0326 c 0,-1.51404 -1.09076,-2.75133 -2.62108,-2.75133 -1.57916,0 -2.57224,1.23729 -2.57224,2.71877 v 0.0326 c 0,1.49776 1.09076,2.75132 2.6048,2.75132 1.57916,0 2.58852,-1.23728 2.58852,-2.71876"
   class="st0" />
<path
   style="fill:#4b4b4d;stroke-width:0.16280016"
   id="path14"
   d="m 90.904063,10.22385 0.87912,-1.33496 c 0.92796,0.70004 1.92104,1.0582 2.80016,1.0582 0.84656,0 1.33496,-0.35816 1.33496,-0.92796 v -0.0326 c 0,-0.66748 -0.91168,-0.8954 -1.92104,-1.20472 -1.26984,-0.35816 -2.66992,-0.87912 -2.66992,-2.50712 v -0.0326 c 0,-1.61173 1.35124,-2.60481 3.04436,-2.60481 1.07448,0 2.23036,0.37444 3.14204,0.9768 l -0.78144,1.40009 c -0.83028,-0.50469 -1.7094,-0.81401 -2.40944,-0.81401 -0.76516,0 -1.20472,0.35816 -1.20472,0.86285 v 0.0326 c 0,0.61864 0.92796,0.87912 1.93732,1.20472 1.23728,0.39072 2.65364,0.96052 2.65364,2.49084 v 0.0326 c 0,1.80708 -1.40008,2.6862 -3.1746,2.6862 -1.221,0 -2.57224,-0.43956 -3.63044,-1.28612"
   class="st0" />
<path
   style="fill:#4b4b4d;stroke-width:0.16280016"
   id="path16"
   d="m 44.782773,14.17989 h 1.855922 l 4.997965,11.42858 h -2.100123 l -1.155881,-2.73505 h -5.372405 l -1.172161,2.73505 h -2.035002 z m 2.865283,6.91901 -1.953602,-4.54212 -1.953602,4.54212 z"
   class="st0" />
<path
   style="fill:#4b4b4d;stroke-width:0.16280016"
   id="path18"
   d="m 52.20646,13.87057 h 2.100122 v 1.87221 H 52.20646 Z m 0.09768,3.17461 h 1.953602 v 8.56329 H 52.30414 Z"
   class="st0" />
<path
   style="fill:#4b4b4d;stroke-width:0.16280016"
   id="path20"
   d="m 56.504384,17.04518 h 1.953602 v 1.92104 c 0.537241,-1.28612 1.530322,-2.16524 3.028083,-2.10012 v 2.06756 h -0.11396 c -1.725681,0 -2.914123,1.12332 -2.914123,3.38624 v 3.25601 h -1.953602 z"
   class="st0" />
<path
   style="fill:#4b4b4d;stroke-width:0.16280016"
   id="path22"
   d="m 62.10471,21.35938 v -0.0326 c 0,-2.442 1.725682,-4.46072 4.183964,-4.46072 2.718763,0 4.102564,2.14896 4.102564,4.60724 0,0.17908 -0.01628,0.35816 -0.03256,0.55352 h -6.284086 c 0.21164,1.40008 1.204721,2.16524 2.458282,2.16524 0.960521,0 1.644282,-0.35816 2.328043,-1.02564 l 1.155881,1.02564 c -0.814001,0.97681 -1.937322,1.61173 -3.500204,1.61173 -2.490842,0 -4.411884,-1.80709 -4.411884,-4.44445 m 6.332926,-0.63492 c -0.13024,-1.26984 -0.879121,-2.24664 -2.165242,-2.24664 -1.204721,0 -2.051282,0.92796 -2.230362,2.24664 z"
   class="st0" />
<path
   style="fill:#4b4b4d;stroke-width:0.16280016"
   id="path24"
   d="m 71.351759,24.48514 0.879121,-1.33496 c 0.927961,0.70004 1.921042,1.0582 2.800163,1.0582 0.84656,0 1.33496,-0.35816 1.33496,-0.92796 v -0.0326 c 0,-0.66748 -0.91168,-0.8954 -1.92104,-1.20472 -1.269842,-0.35816 -2.686203,-0.87912 -2.686203,-2.50712 v -0.0326 c 0,-1.628 1.351241,-2.6048 3.044363,-2.6048 1.07448,0 2.23036,0.37444 3.14204,0.9768 l -0.78144,1.40008 c -0.83028,-0.50468 -1.7094,-0.814 -2.40944,-0.814 -0.765161,0 -1.204722,0.35816 -1.204722,0.86284 v 0.0326 c 0,0.61864 0.927962,0.87912 1.937322,1.20472 1.25356,0.39072 2.65364,0.96052 2.65364,2.49084 v 0.0326 c 0,1.80708 -1.40008,2.68621 -3.1746,2.68621 -1.204721,0 -2.539683,-0.43956 -3.614164,-1.28613"
   class="st0" />
<path
   style="fill:#4b4b4d;stroke-width:0.16280016"
   id="path26"
   d="m 40.012728,34.15547 v -0.0326 c 0,-3.22344 2.409442,-5.87708 5.860806,-5.87708 2.083842,0 3.353683,0.7326 4.444444,1.77452 l -1.286121,1.4652 c -0.911681,-0.84656 -1.888482,-1.41636 -3.174603,-1.41636 -2.181522,0 -3.744404,1.7908 -3.744404,4.00488 v 0.0326 c 0,2.21409 1.579162,4.03745 3.744404,4.03745 1.383801,0 2.295482,-0.5698 3.256003,-1.4652 l 1.286121,1.3024 C 49.210937,39.21856 47.924816,40 45.792134,40 42.47101,40 40.012728,37.41148 40.012728,34.15547"
   class="st0" />
<path
   style="fill:#4b4b4d;stroke-width:0.16280016"
   id="path28"
   d="m 52.20646,28.06675 h 2.100122 v 1.8722 H 52.20646 Z m 0.09768,3.1746 h 1.953602 v 8.56329 H 52.30414 Z"
   class="st0" />
<path
   style="fill:#4b4b4d;stroke-width:0.16280016"
   id="path30"
   d="m 56.406704,36.67888 v -5.45381 h 1.953602 v 4.86773 c 0,1.33496 0.667481,2.10012 1.839642,2.10012 1.139601,0 1.921042,-0.79772 1.921042,-2.1164 v -4.83517 h 1.969882 v 8.56329 H 62.12099 v -1.33496 c -0.553521,0.814 -1.334961,1.51404 -2.669923,1.51404 -1.937322,0 -3.044363,-1.3024 -3.044363,-3.30484"
   class="st0" />
<path
   style="fill:#4b4b4d;stroke-width:0.16280016"
   id="path32"
   d="m 65.783994,35.53928 v -0.0326 c 0,-2.83273 1.937322,-4.44445 3.972324,-4.44445 1.416361,0 2.295482,0.71632 2.914123,1.51404 v -4.60724 h 1.969882 V 39.8046 H 72.670441 V 38.372 c -0.634921,0.8954 -1.530322,1.61172 -2.914123,1.61172 -2.002442,0 -3.972324,-1.61172 -3.972324,-4.44444 m 6.919007,0 v -0.0326 c 0,-1.66057 -1.172162,-2.73505 -2.490843,-2.73505 -1.351241,0 -2.458282,1.04192 -2.458282,2.73505 v 0.0326 c 0,1.66056 1.139601,2.73504 2.458282,2.73504 1.334961,0 2.490843,-1.10704 2.490843,-2.73504"
   class="st0" />
<path
   style="fill:#4b4b4d;stroke-width:0.16280016"
   id="path34"
   d="m 81.998893,39.80464 v -1.0582 c -0.58608,0.70004 -1.48148,1.23728 -2.76761,1.23728 -1.61172,0 -3.04436,-0.92796 -3.04436,-2.63736 v -0.0326 c 0,-1.88848 1.48148,-2.80017 3.46764,-2.80017 1.04193,0 1.70941,0.14652 2.36061,0.35816 v -0.1628 c 0,-1.18844 -0.74888,-1.83964 -2.10013,-1.83964 -0.96052,0 -1.67684,0.21164 -2.442,0.53724 l -0.53724,-1.57916 c 0.94424,-0.42328 1.85592,-0.71632 3.25601,-0.71632 2.5234,0 3.76068,1.33496 3.76068,3.61416 v 5.07937 h -1.9536 z m 0.0488,-3.5816 c -0.50468,-0.19536 -1.20472,-0.34188 -1.96989,-0.34188 -1.23728,0 -1.96988,0.50468 -1.96988,1.33496 v 0.0326 c 0,0.814 0.7326,1.26984 1.66056,1.26984 1.30241,0 2.26293,-0.7326 2.26293,-1.80708 v -0.4884 z"
   class="st0" />
<path
   style="fill:#4b4b4d;stroke-width:0.16280016"
   id="path36"
   d="m 85.515373,35.53928 v -0.0326 c 0,-2.83273 1.93732,-4.44445 3.97232,-4.44445 1.41637,0 2.29549,0.71632 2.91413,1.51404 v -4.60724 h 1.9536 V 39.8046 h -1.9536 V 38.372 c -0.63492,0.8954 -1.53032,1.61172 -2.91413,1.61172 -2.00244,0 -3.97232,-1.61172 -3.97232,-4.44444 m 6.93529,0 v -0.0326 c 0,-1.66057 -1.17216,-2.73505 -2.47457,-2.73505 -1.35124,0 -2.45828,1.04192 -2.45828,2.73505 v 0.0326 c 0,1.66056 1.12332,2.73504 2.45828,2.73504 1.30241,0 2.47457,-1.10704 2.47457,-2.73504"
   class="st0" />
<path
   style="fill:#4b4b4d;stroke-width:0.16280016"
   id="path38"
   d="m 16.227624,6.51201 c -0.09768,0 -0.17908,0.0814 -0.17908,0.17908 0,0.0977 0.0814,0.19536 0.17908,0.19536 0.09768,0 0.17908,-0.0814 0.17908,-0.19536 0,-0.0977 -0.06512,-0.17908 -0.17908,-0.17908"
   class="st0" />
<path
   style="fill:#4b4b4d;stroke-width:0.16280016"
   id="path40"
   d="m 25.686314,9.40985 h -0.03256 C 24.676953,9.37725 23.748992,9.01913 22.853591,8.67725 22.49543,8.53073 22.10471,8.40049 21.73027,8.28653 20.997669,8.04233 20.330188,7.92837 19.711548,7.89581 c -0.162801,-0.0163 -0.309321,-0.0163 -0.472121,-0.0163 -0.407,0 -0.993081,0.0488 -1.367521,0.39072 -0.11396,-0.45584 -0.22792,-0.9768 -0.423281,-1.4652 -0.17908,-0.47212 -0.45584,-1.00936 -0.944241,-1.17216 -0.0814,-0.0163 -0.1628,-0.0326 -0.2442,-0.0326 -0.4884,0 -0.862841,0.43956 -1.041921,0.70004 l -0.0814,0.11396 c -0.21164,0.30932 -0.3256,0.45584 -0.29304,0.60236 0.03256,0.14652 0.21164,0.26048 0.61864,0.4884 0.162801,0.0977 0.211641,0.35816 0.227921,0.53724 v 0.0163 c 0.04884,0.27676 0.04884,0.55352 0.04884,0.814 -0.569801,-0.58608 -1.432642,-0.814 -2.214083,-0.96052 -0.21164,-0.0488 -0.42328,-0.0651 -0.6512,-0.0651 -0.895401,0 -1.790802,0.34188 -2.360603,0.58608 -0.3256,0.14652 -0.6674797,0.29304 -0.9768007,0.45584 -0.61864,0.29304 -1.253561,0.60236 -1.904761,0.79772 -0.211641,0.0651 -0.423281,0.11396 -0.683761,0.1628 h -0.01628 c 0,0 0,0 -0.01628,0 h -0.01628 c -0.09768,0.0163 -0.27676,0.0814 -0.309321,0.22792 -0.03256,0.14652 -0.01628,0.26048 0.195361,0.42328 0.4884,0.27676 1.074481,0.407 1.790801,0.407 0.146521,0 0.309321,0 0.472121,-0.0163 0.21164,-0.0163 0.43956,-0.0488 0.667481,-0.0651 0.3255997,-0.0488 0.6674797,-0.0814 0.9930807,-0.0814 0.22792,0 0.42328,0.0163 0.60236,0.0651 0.537241,0.13024 0.862841,0.6512 1.139601,1.12332 0.06512,0.11396 0.13024,0.22792 0.211641,0.3256 v 0.0163 c 0.13024,0.19536 0.34188,0.52096 0.34188,0.76516 -0.01628,0.2442 -0.34188,0.43956 -0.586081,0.58608 -0.06512,0.0488 -0.13024,0.0814 -0.1628,0.11396 -0.0814,0.0488 -0.1628,0.11396 -0.26048,0.1628 -0.537241,0.34188 -1.269841,0.814 -1.188441,1.44893 0.03256,0.30932 0.29304,0.55352 0.61864,0.60236 0.03256,0 0.04884,0 0.0814,0 0.227921,0 0.423281,-0.0977 0.618641,-0.21164 0.0814,-0.0488 0.1628,-0.0814 0.2442,-0.11396 0.260481,-0.0977 0.520961,-0.1628 0.765161,-0.1628 0.43956,0 0.846561,0.14652 1.237281,0.43956 0.13024,0.0977 0.244201,0.21164 0.341881,0.3256 0.13024,0.11396 0.2442,0.2442 0.39072,0.34188 0.11396,0.0814 0.3256,0.1628 0.504681,0.1628 0.17908,0 0.29304,-0.0814 0.3256,-0.2442 0.06512,-0.30932 0.06512,-0.63492 0.06512,-0.96052 0,-0.26048 0,-0.52096 0.03256,-0.76517 0.01628,-0.14652 0.06512,-0.45584 0.26048,-0.55352 0.06512,-0.0326 0.14652,-0.0488 0.22792,-0.0488 0.09768,0 0.211641,0.0163 0.309321,0.0326 0.14652,0.0326 0.29304,0.0488 0.407,0.0326 0.569801,-0.0814 1.041921,-0.53724 1.269841,-1.25356 0.113961,-0.22792 0.227921,-0.34188 0.472121,-0.39072 0.29304,-0.0651 0.47212,-0.30932 0.634921,-0.52096 0.04884,-0.0651 0.09768,-0.11396 0.13024,-0.1628 0.35816,-0.42328 0.78144,-0.61864 1.400081,-0.61864 0.11396,0 0.22792,0 0.37444,0.0163 0.130241,0.0163 0.244201,0.0326 0.374441,0.0488 0.3256,0.0326 0.6512,0.0814 0.960521,0.0814 0.34188,0 0.6512,-0.0488 0.927961,-0.13024 0.7326,-0.2442 1.383801,-0.7326 1.986162,-1.20472 l 0.0814,-0.0651 c 0.1628,-0.13024 0.21164,-0.22792 0.1628,-0.39072 -0.03256,-0.17908 -0.2442,-0.22792 -0.3256,-0.22792 m -12.714693,2.1978 c -0.14652,-0.2442 -0.29304,-0.4884 -0.472121,-0.71632 -0.43956,-0.52096 -1.009361,-0.74888 -1.855921,-0.74888 -0.358161,0 -0.7326007,0.0326 -1.0907617,0.0814 -0.35816,0.0326 -0.7326,0.0814 -1.074481,0.0814 -0.17908,0 -0.35816,-0.0163 -0.50468,-0.0326 0.61864,-0.19536 1.204721,-0.4884 1.774522,-0.76516 0.6186397,-0.29304 1.2535607,-0.60236 1.9047617,-0.79772 0.407,-0.13024 0.83028,-0.19536 1.269841,-0.19536 0.797721,0 1.530321,0.21164 2.116402,0.60236 0.4884,0.3256 0.634921,0.68376 0.47212,1.17216 -0.17908,0.52096 -0.4884,1.02564 -0.911681,1.51404 -0.03256,0.0326 -0.06512,0.0651 -0.09768,0.11396 -0.19536,0.22792 -0.50468,0.60236 -0.76516,0.60236 -0.0814,0 -0.146521,-0.0326 -0.211641,-0.0977 -0.22792,-0.27676 -0.39072,-0.55352 -0.55352,-0.814 m 4.997965,0.71632 c -0.06512,0.43956 -0.22792,0.79772 -0.488401,1.04192 -0.22792,0.21164 -0.4884,0.26048 -0.83028,0.26048 -0.04884,0 -0.113961,0 -0.179081,0 -0.04884,0 -0.13024,0 -0.17908,0 -0.21164,0 -0.39072,0.0651 -0.53724,0.21164 -0.407001,0.407 -0.407001,1.31869 -0.390721,1.92105 v 0.19536 l -0.04884,-0.0326 c -0.52096,-0.4884 -1.009361,-0.94425 -1.725682,-1.05821 -0.11396,-0.0163 -0.22792,-0.0326 -0.35816,-0.0326 -0.21164,0 -0.45584,0.0326 -0.683761,0.0814 -0.21164,0.0488 -0.39072,0.13025 -0.5698,0.21165 -0.0814,0.0326 -0.14652,0.0651 -0.21164,0.0977 -0.0814,0.0326 -0.211641,0.0651 -0.276761,0.0651 -0.01628,0 -0.03256,0 -0.04884,-0.0163 0,0 0,-0.0163 0,-0.0326 0.06512,-0.24421 0.341881,-0.42329 0.553521,-0.56981 l 0.04884,-0.0326 c 0.55352,-0.37444 1.058201,-0.7326 1.562881,-1.12332 0.911681,-0.71632 1.921042,-1.61172 2.425723,-2.81644 0.29304,-0.68376 0.407,-1.4652 0.35816,-2.26292 v -0.0488 c -0.01628,-0.3256 -0.04884,-0.66748 -0.17908,-0.9768 -0.11396,-0.2442 -0.30932,-0.37444 -0.50468,-0.4884 -0.03256,-0.0163 -0.06512,-0.0488 -0.113961,-0.0651 0.09768,-0.17908 0.374441,-0.6512 0.683761,-0.6512 0.11396,0 0.2442,0.0651 0.341881,0.21164 0.35816,0.50468 0.53724,1.10704 0.68376,1.628 0.01628,0.0977 0.04884,0.19536 0.0814,0.29304 0.244201,1.0582 0.732601,2.7676 0.586081,3.9886 m 6.267806,-1.93732 c -0.50468,0.27676 -0.944241,0.42328 -1.367521,0.42328 h -0.03256 c -0.276761,0 -0.553521,-0.0488 -0.830281,-0.0814 -0.22792,-0.0326 -0.472121,-0.0488 -0.716321,-0.0651 -0.58608,-0.0326 -1.041921,0.0651 -1.416361,0.27676 -0.2442,0.14652 -0.423281,0.37444 -0.602361,0.58608 -0.13024,0.14652 -0.2442,0.30932 -0.407,0.43956 -0.04884,0.0326 -0.09768,0.0814 -0.1628,0.0814 v 0 c -0.06512,0 -0.0814,-0.0488 -0.06512,-0.14652 v -0.0651 c -0.01628,-0.22792 -0.04884,-0.43956 -0.06512,-0.6512 l -0.01628,-0.11396 c -0.04884,-0.37444 -0.09768,-0.76516 -0.19536,-1.15588 -0.01628,-0.0651 -0.03256,-0.14652 -0.06512,-0.22792 -0.11396,-0.34188 -0.2442,-0.76516 0.01628,-0.9768 0.1628,-0.13024 0.423281,-0.1628 0.618641,-0.17908 0,0 0.21164,-0.0163 0.42328,-0.0163 h 0.0814 c 0.244201,0 0.504681,0.0163 0.748881,0.0488 0.455841,0.0651 0.944241,0.17908 1.546602,0.37444 0.3256,0.11396 0.63492,0.22792 0.944241,0.34188 0.71632,0.26048 1.448921,0.53724 2.230362,0.68376 -0.2442,0.1628 -0.455841,0.30932 -0.667481,0.42328"
   class="st0" />
<path
   style="fill:#4b4b4d;stroke-width:0.16280016"
   id="path42"
   d="M 32.2146,16.10094 C 32.00296,14.73341 31.66108,13.39845 31.205239,12.09605 30.765679,10.85877 30.212158,9.63777 29.544677,8.49817 29.023717,7.61905 28.437636,6.75621 27.802716,5.97477 26.972435,4.9654 26.028194,4.03744 24.986273,3.22344 23.976912,2.442 22.869871,1.7908 21.69771,1.28612 20.525548,0.78144 19.288267,0.43956 18.018426,0.27676 16.732305,0.11396 15.429903,0.13024 14.143782,0.32556 12.890221,0.52092 11.65294,0.89536 10.497058,1.4326 9.3248973,1.96984 8.2341363,2.6536 7.2410553,3.45132 6.2316943,4.2816 5.3037333,5.22585 4.4897323,6.25149 c -0.79772,1.00936 -1.481481,2.10012 -2.067562,3.23972 -0.60236,1.18844 -1.107041,2.442 -1.48148105,3.72812 -0.390721,1.33496 -0.667481,2.71877 -0.814001,4.10257 -0.14652,1.44892 -0.1628,2.89784 -0.06512,4.34676 0.09768,1.40008 0.3256,2.80016 0.683761,4.15141 0.34188005,1.3024 0.79772005,2.57224 1.36752105,3.79324 0.553521,1.17216 1.204721,2.29548 1.969882,3.3374 0.862841,1.17216 3.044363,3.23973 3.060643,3.23973 2.588523,2.1164 5.7142857,3.35368 9.0842487,3.35368 v 0 c 1.286121,0 2.572243,-0.17908 3.809524,-0.53724 1.221001,-0.35816 2.393162,-0.87912 3.467643,-1.5466 1.107042,-0.66748 2.132683,-1.48148 3.044363,-2.40944 0.911681,-0.91169 1.725682,-1.92105 2.442003,-3.01181 0.716321,-1.09076 1.318681,-2.26292 1.807082,-3.46764 0.52096,-1.25356 0.911681,-2.57224 1.188441,-3.90721 0.29304,-1.40008 0.45584,-2.81644 0.4884,-4.24908 C 32.5402,18.96618 32.4588,17.51726 32.2146,16.1009 M 3.4640913,25.51075 h -0.407 l 0.37444,-1.41637 c 0.03256,-0.0977 0.04884,-0.0977 0.06512,-0.0488 -0.01628,0.50468 -0.03256,0.99309 -0.03256,1.46521 m 0.195361,-3.84209 -0.830281,-0.39072 c -0.04884,-0.0163 -0.04884,-0.0326 0,-0.0326 h 1.790802 c 0.04884,0 0.04884,0.0163 0,0.0326 l -0.797721,0.39072 c -0.03256,0.0326 -0.11396,0.0326 -0.1628,0 m -1.041921,-0.78144 0.92796,-0.6512 c -0.01628,0.21164 -0.01628,0.43956 -0.01628,0.6512 z m 0.30932,-2.23036 h 1.595441 c 0.04884,0 0.04884,0.0163 0.01628,0.0326 l -0.71632,0.34188 c -0.04884,0.0163 -0.11396,0.0163 -0.1628,0 L 2.9268513,18.6895 c -0.04884,-0.0163 -0.03256,-0.0326 0,-0.0326 m -0.19536,-0.3256 0.86284,-0.5698 c 0,0.17908 0,0.35816 -0.01628,0.5698 z m 1.155881,-0.55352 0.846561,0.55352 h -0.846561 c 0.01628,-0.17908 0,-0.37444 0,-0.55352 m 0.04884,2.45828 0.944241,0.6512 h -0.927961 c -0.01628,-0.22792 -0.01628,-0.43956 -0.01628,-0.6512 m 0.0814,5.27473 c 0,-0.45584 -0.01628,-0.96053 -0.01628,-1.46521 0,-0.0326 0.03256,-0.0651 0.06512,0.0488 l 0.37444,1.41637 z M 16.260184,38.11152 c -2.474562,0 -4.818885,-0.74888 -6.8701667,-2.08384 1.5954417,-0.0163 3.1746027,0.19536 4.7537647,0.43956 1.579162,0.22792 3.158323,0.50468 4.753765,0.6512 0.61864,0.0651 1.221001,0.11396 1.839642,0.13024 -1.400082,0.55352 -2.914123,0.86284 -4.477005,0.86284 M 23.537351,35.7672 C 21.97447,35.93 20.379028,35.8649 18.816147,35.6858 17.253265,35.523 15.690384,35.24624 14.143782,35.01832 12.53206,34.79039 10.920339,34.57875 9.2923373,34.59503 c -0.55352,0 -1.090761,0.0326 -1.644281,0.0814 -0.520961,-0.45584 -1.009361,-0.96052 -1.465202,-1.48148 1.628002,-0.2442 3.288563,-0.22792 4.9165647,-0.11396 1.644282,0.11396 3.288563,0.35816 4.916565,0.60236 0.814001,0.11396 1.644282,0.2442 2.458282,0.35816 0.407001,0.0488 2.035002,0.17908 2.425723,0.17908 1.644281,0 3.288563,-0.13024 4.900285,-0.39072 -0.716321,0.7326 -1.465202,1.38381 -2.262923,1.93733 m 3.728124,-3.67929 c -1.562881,0.37444 -3.174603,0.58608 -4.802605,0.66748 -0.79772,0.0488 -1.611721,0.0651 -2.425722,0.0326 -0.814001,-0.0326 -1.628002,-0.1628 -2.442003,-0.29304 -1.628001,-0.22792 -3.256003,-0.4884 -4.884004,-0.68376 -1.628002,-0.17908 -3.2722837,-0.27676 -4.9165647,-0.19536 -0.879121,0.0488 -1.774522,0.14652 -2.653643,0.3256 -0.29304,-0.42328 -0.586081,-0.84656 -0.846561,-1.3024 1.448922,-0.29304 2.914123,-0.4884 4.379325,-0.53724 1.4977607,-0.0488 2.9792427,0.0488 4.4607237,0.2442 1.432641,0.17908 2.849003,0.45584 4.281644,0.6512 1.302402,0.17908 2.621083,0.29304 3.939764,0.29304 v 0 c 1.367522,0 2.751323,-0.13024 4.102564,-0.34188 0.993081,-0.1628 1.969882,-0.35816 2.930403,-0.61864 -0.3256,0.60236 -0.71632,1.18844 -1.123321,1.75824 M 5.4502533,27.07367 c -0.68376,-0.45584 -0.78144,-1.18844 -0.74888,-1.33496 l 2.116402,-4.99797 c 0.04884,-0.0814 0.06512,-0.0651 0.04884,0 z m 1.400082,-4.72121 c -0.03256,2.23036 -0.06512,4.31421 -0.06512,5.30729 -0.390721,-0.11396 -0.765161,-0.22792 -1.090761,-0.47212 l 1.123321,-4.94913 c 0.01628,-0.0326 0.03256,0.0488 0.03256,0.11396 m -0.553521,-4.37932 h 1.595442 c 0.04884,0 0.04884,0.0163 0.01628,0.0326 l -0.716321,0.34188 c -0.03256,0.0163 -0.09768,0.0163 -0.14652,0 l -0.748881,-0.34188 c -0.04884,-0.0163 -0.04884,-0.0326 0,-0.0326 m -0.19536,-0.30932 0.846561,-0.55352 c 0,0.17908 0,0.35816 0,0.55352 z m 1.172161,-0.55352 0.830281,0.53724 h -0.814001 c -0.01628,-0.17908 -0.01628,-0.35816 -0.01628,-0.53724 m 1.693122,7.326 c -0.03256,1.07449 -0.04884,2.13269 -0.06512,2.96297 0,0 -0.01628,0.0163 -0.03256,0.0163 l -0.700041,-3.09321 0.37444,-0.8954 z m -0.27676,-1.33496 0.27676,-0.66748 c 0.03256,-0.0488 0.04884,-0.0326 0.04884,0 -0.01628,0.43956 -0.01628,0.8954 -0.03256,1.36752 z m -0.700041,1.66056 0.683761,2.80017 c -0.244201,0.0977 -0.537241,0.1628 -0.797721,0.19536 -0.09768,0.0163 -0.17908,0.0163 -0.276761,0.0326 -0.06512,0 -0.11396,0.0163 -0.1628,0 0,-0.37444 -0.01628,-0.94424 -0.01628,-1.64428 z m -0.602361,0.71633 c -0.01628,-0.92797 -0.03256,-2.01873 -0.04884,-3.14205 0,-0.0977 0.03256,-0.1628 0.0814,-0.0163 l 0.455841,2.00244 z m 0.667481,-1.57917 -0.732601,-3.14204 c 0,-0.0651 0,-0.0977 0.04884,0 l 1.009361,2.34432 z m 1.400081,0.9768 v -0.45584 c -0.01628,-0.814 -0.04884,-1.20472 -0.06512,-1.9536 0,-0.0488 0.01628,-0.0977 0.06512,-0.0326 l 1.2698417,3.15833 c -0.211641,0.407 -0.244201,0.55352 -0.569801,0.8954 z m 0.488401,1.80709 c -0.13024,0.14652 -0.29304,0.27676 -0.439561,0.407 -0.01628,-0.42328 -0.03256,-0.99308 -0.04884,-1.49776 z m 1.2861207,-1.20472 1.448922,-3.10949 c -0.03256,0.8954 -0.04884,2.16524 -0.0814,3.10949 h -0.58608 c -0.22792,0 -0.569801,0.0163 -0.781441,0 M 21.58375,21.5059 h 2.083843 c 0.04884,0 0.06512,0.0163 0.01628,0.0326 0,0 -0.944241,0.45584 -0.944241,0.45584 -0.06512,0.0326 -0.146521,0.0326 -0.195361,0 L 21.56747,21.5385 c -0.04884,-0.0163 -0.04884,-0.0326 0.01628,-0.0326 m -0.2442,-0.42328 1.090761,-0.78144 c 0,0.22792 -0.01628,0.74888 -0.01628,0.78144 z m 0.390721,-3.07692 c 0,0 0.01628,-0.0163 0.03256,-0.0163 h 1.741961 c 0.01628,0 0.03256,0 0.03256,0 v 0 0 c 0.01628,0 0,0.0163 -0.01628,0.0326 l -0.78144,0.37444 c -0.04884,0.0163 -0.11396,0.0163 -0.162801,0 l -0.814,-0.37444 c -0.03256,0 -0.03256,-0.0163 -0.03256,-0.0163 m -0.179081,-0.37444 0.927961,-0.66748 c 0,0.21164 0,0.43956 -0.01628,0.66748 z m 1.253562,-0.6512 0.944241,0.6512 h -0.927961 c -0.01628,-0.22792 -0.01628,-0.43956 -0.01628,-0.6512 m 0.04884,3.32112 1.090761,0.78144 h -1.074481 c -0.01628,-0.26048 -0.01628,-0.52096 -0.01628,-0.78144 m 3.158323,-0.83028 h 1.790802 c 0.04884,0 0.04884,0.0163 0.01628,0.0326 l -0.814001,0.39072 c -0.04884,0.0163 -0.11396,0.0163 -0.1628,0 L 26.011915,19.5035 c -0.04884,-0.0163 -0.04884,-0.0326 0,-0.0326 m -0.22792,-0.37444 0.927961,-0.66748 c 0,0.22792 -0.01628,0.43956 -0.01628,0.66748 z m 1.302401,-0.6512 0.960521,0.66748 h -0.944241 c 0,-0.2442 -0.01628,-0.45584 -0.01628,-0.66748 m -0.407,3.8258 c -0.03256,2.16524 -0.06512,4.49329 -0.09768,6.12129 -0.52096,0.17908 -0.976801,0.22792 -1.383801,0.19536 l 0.895401,-3.97233 0.520961,-2.32804 c 0.03256,-0.0488 0.04884,-0.0814 0.06512,-0.0163 m -0.130241,-0.92796 -1.546601,6.87017 -0.667481,-1.83964 v -0.0163 l 2.116402,-5.07937 c 0.06512,-0.0977 0.13024,-0.1628 0.09768,0.0651 m -1.709401,7.19577 c -0.488401,-0.11396 -0.862841,-0.34188 -1.172161,-0.60236 l 0.50468,-1.20472 z m -1.351242,-0.79772 c -0.29304,-0.30932 -0.47212,-0.63492 -0.53724,-0.76516 -0.01628,-1.04192 -0.03256,-2.58853 -0.06512,-4.26537 l 1.172161,3.63045 z m -2.555962,-0.83028 h -2.555963 l 3.809524,-4.29793 z m 1.448921,-4.20025 c -0.01628,0.9768 -0.04884,4.07001 -0.04884,4.18397 H 21.193031 Z M 27.135237,22.271 c 0,-0.0651 0.03256,-0.0488 0.04884,0.0163 l 1.074481,4.60725 c -0.22792,0.55352 -0.700041,0.94424 -1.041921,1.17216 0,-0.83028 -0.06512,-5.77941 -0.0814,-5.79569 m 1.400081,4.60725 -1.302401,-5.47009 c -0.04884,-0.3256 0.04884,-0.21164 0.11396,-0.0977 l 2.393163,5.56777 h -1.204722 z m 2.132683,-2.66993 C 30.48892,25.08747 30.261,25.93403 29.98424,26.78059 l -2.865283,-6.78877 1.253561,-0.55352 c 0.13024,-0.0651 0.13024,-0.2442 0,-0.30932 0,0 -1.237281,-0.87912 -1.302401,-0.92796 l -0.03256,-2.08384 c 0.14652,-0.0163 0.29304,-0.0814 0.43956,-0.11396 0.162801,-0.0163 0.325601,0 0.488401,0.0326 0.14652,0.0326 0.29304,0.0326 0.43956,0 0.14652,-0.0326 0.260481,-0.11396 0.374441,-0.21164 -0.325601,-0.0163 -0.586081,-0.21164 -0.879121,-0.34188 -0.14652,-0.0651 -0.293041,-0.0977 -0.455841,-0.13024 -0.1628,-0.0163 -0.34188,-0.0326 -0.4884,0.0163 -0.01628,-0.13024 -0.03256,-0.2442 -0.04884,-0.39073 h -0.06512 c -0.09768,0.56981 -0.09768,1.18845 -0.09768,1.77453 0,0.407 -0.01628,0.814 -0.01628,1.221 0,0.0814 0,0.14652 0,0.21164 l -1.286122,0.92796 c -0.13024,0.0651 -0.13024,0.26048 0,0.3256 v 0 l 1.221002,0.55352 -2.458283,5.99105 -1.269841,-3.84209 1.400081,-0.66748 c 0.14652,-0.0814 0.14652,-0.29304 0,-0.37444 0,0 -1.318681,-0.92796 -1.497761,-1.0582 0,-0.4884 -0.01628,-1.00936 -0.01628,-1.4652 l 1.286121,-0.60236 v 0 c 0.13024,-0.0651 0.13024,-0.2442 0,-0.30932 0,0 -1.155881,-0.814 -1.318681,-0.92796 -0.01628,-0.94424 -0.01628,-1.88849 -0.03256,-2.83273 0.06512,0 0.14652,-0.0163 0.21164,-0.0488 0.0814,-0.0163 0.1628,-0.0488 0.2442,-0.0651 0.1628,-0.0326 0.3256,0 0.488401,0.0326 0.1628,0.0326 0.30932,0.0488 0.47212,0 0.14652,-0.0488 0.26048,-0.11396 0.37444,-0.21164 -0.3256,0 -0.58608,-0.21164 -0.87912,-0.34188 -0.146521,-0.0651 -0.309321,-0.0977 -0.455841,-0.13024 -0.1628,-0.0163 -0.34188,-0.0326 -0.4884,0.0163 -0.01628,-0.13024 -0.03256,-0.2442 -0.04884,-0.39072 h -0.06512 v 0 c -0.09768,0.52096 -0.09768,1.04192 -0.09768,1.57916 0,0.4884 0,0.96053 -0.01628,1.44893 -0.01628,0.30932 -0.01628,0.61864 -0.01628,0.92796 l -1.302401,0.92796 c -0.13024,0.0651 -0.13024,0.26048 0,0.3256 l 1.269841,0.60236 v 0 c 0,0.45584 -0.01628,0.99308 -0.01628,1.4652 l -1.497761,1.04192 c -0.14652,0.0814 -0.14652,0.29304 0,0.37444 l 1.383801,0.6512 -4.297924,4.77005 c -0.0814,0 -0.618641,0 -0.700041,0.0977 -0.11396,0.0814 -0.11396,0.22792 -0.06512,0.34188 0.06512,0.1628 0.19536,0.26048 0.34188,0.34188 0.06512,0.0488 0.146521,0.0814 0.227921,0.11396 0.01628,0 0.01628,0.0163 0.01628,0.0163 0,0 0.39072,1.28612 2.051282,1.88848 0,0 0.04884,0.0163 0.03256,0.0488 0,0 0,0.0163 -0.01628,0.0163 -0.01628,0 -0.03256,0 -0.04884,0.0163 -1.579162,-0.0977 -3.142043,-0.35816 -4.704925,-0.60236 -0.602361,-0.0977 -1.188441,-0.19536 -1.790802,-0.26048 -0.407,-0.0488 -0.814001,-0.0977 -1.204721,-0.17908 -0.04884,-0.0163 -0.06512,-0.0163 -0.06512,-0.0326 v 0 0 -0.0163 0 c 0,-0.0163 0.01628,-0.0163 0.01628,-0.0326 0,0 0.01628,0 0.01628,0 2.197802,-0.6512 2.653643,-2.26292 2.653643,-2.26292 0.03256,-0.0163 0.06512,-0.0326 0.0814,-0.0488 0.06512,-0.0326 0.11396,-0.0651 0.17908,-0.0814 0.14652,-0.0814 0.27676,-0.19536 0.34188,-0.34188 0.04884,-0.11396 0.04884,-0.26048 -0.06512,-0.34188 -0.0814,-0.11396 -0.70004,-0.0977 -0.70004,-0.0977 v 0 h -0.09768 c 0,-0.34188 -0.01628,-1.23729 -0.03256,-1.80709 0.06512,0.0326 0.146521,0 0.211641,-0.0163 0.0814,-0.0326 0.1628,-0.0488 0.2442,-0.0651 0.1628,-0.0488 0.3256,-0.0326 0.50468,0 0.162801,0.0326 0.325601,0.0488 0.488401,0.0163 0.14652,-0.0326 0.27676,-0.11396 0.39072,-0.21164 -0.3256,-0.0163 -0.60236,-0.22792 -0.895401,-0.35816 -0.1628,-0.0651 -0.3256,-0.11396 -0.4884,-0.11396 -0.1628,-0.0163 -0.358161,-0.0326 -0.488401,0.0326 -0.01628,-0.13024 -0.03256,-0.26048 -0.03256,-0.34188 h -0.06512 c -0.0814,0.4884 -0.0814,2.1978 -0.0814,2.86529 h -1.107041 c -0.03256,-1.20473 -0.0814,-2.81645 -0.11396,-3.84209 l 0.960521,-2.05128 c 0.13024,0.0651 0.27676,0.0651 0.42328,0.11396 0.14652,0.0488 0.276761,0.14652 0.390721,0.2442 0.11396,0.0977 0.2442,0.19536 0.37444,0.22792 0.1628,0.0488 0.3256,0.0488 0.472121,0.0163 -0.276761,-0.1628 -0.407001,-0.45584 -0.586081,-0.71632 -0.09768,-0.13024 -0.21164,-0.2442 -0.3256,-0.34188 -0.13024,-0.0977 -0.293041,-0.19536 -0.455841,-0.2442 0.03256,-0.11396 0.0814,-0.26048 0.09768,-0.3256 0,-0.0163 0,-0.0326 -0.03256,-0.0488 0,0 -0.01628,0 -0.01628,0 -0.04884,0 -0.04884,0.0326 -0.0814,0.0651 -0.0814,0.0977 -0.19536,0.30932 -0.21164,0.34188 l -1.025641,2.18152 c -0.01628,-0.34188 -0.01628,-0.68376 -0.01628,-1.04192 0,-0.43956 -0.01628,-0.86284 -0.09768,-1.28612 h -0.06512 c -0.0814,0.52096 -0.09768,1.04192 -0.09768,1.57916 0,0.47212 -0.01628,0.94424 -0.03256,1.41636 l -1.758242,3.64673 -1.5791617,-3.85837 c -0.01628,-0.47212 -0.01628,-0.96052 -0.03256,-1.43264 -0.01628,-0.53724 -0.01628,-1.09076 -0.09768,-1.628 h -0.06512 c -0.09768,0.52096 -0.09768,1.0582 -0.09768,1.59544 0,0.4884 -0.01628,0.9768 -0.03256,1.4652 l -0.504681,1.18844 -1.237281,-2.86528 c 0,-0.47212 -0.01628,-0.94424 -0.01628,-1.40008 l 1.123321,-0.53724 c 0.11396,-0.0488 0.11396,-0.22792 0,-0.27676 0,0 -0.944241,-0.68376 -1.155881,-0.814 -0.01628,-0.99308 -0.01628,-1.96989 -0.03256,-2.96297 0.06512,0 0.14652,-0.0163 0.21164,-0.0488 0.0814,-0.0163 0.162801,-0.0488 0.244201,-0.0651 0.17908,-0.0326 0.3256,0 0.4884,0.0326 0.1628,0.0326 0.30932,0.0488 0.472121,0 0.14652,-0.0488 0.26048,-0.11396 0.37444,-0.21164 -0.30932,0 -0.586081,-0.21164 -0.862841,-0.34188 -0.14652,-0.0651 -0.29304,-0.11396 -0.45584,-0.13024 -0.162801,-0.0163 -0.341881,-0.0326 -0.504681,0.0163 -0.01628,-0.13024 -0.03256,-0.26048 -0.04884,-0.39072 h -0.06512 c -0.11396,0.63492 -0.09768,1.26984 -0.11396,1.90476 0,0.61865 -0.01628,1.22101 -0.01628,1.83965 0,0.11396 0,0.22792 0,0.34188 l -1.139601,0.814 c -0.11396,0.0651 -0.11396,0.22792 0,0.27676 l 1.123321,0.53724 c 0,0.50468 -0.01628,1.35124 -0.01628,1.40008 l -2.279202,5.35613 -0.341881,-1.23729 h 0.29304 v 0 h 0.146521 c 0.06512,0 0.13024,-0.0163 0.19536,-0.0488 0.04884,-0.0163 0.14652,-0.0488 0.14652,-0.11396 0,-0.0488 -0.09768,-0.0814 -0.13024,-0.0977 -0.06512,-0.0326 -0.13024,-0.0488 -0.21164,-0.0488 h -0.520961 l -0.22792,-0.84656 c 0,-0.34188 -0.01628,-0.70004 -0.01628,-1.04192 l 1.253561,-0.60236 c 0.13024,-0.0651 0.13024,-0.2442 0,-0.30932 0,0 -1.204721,-0.86284 -1.302401,-0.91168 0,-0.2442 -0.01628,-0.60236 -0.01628,-0.83028 l 1.139601,-0.53724 c 0.11396,-0.0488 0.11396,-0.22792 0,-0.29304 0,0 -1.009361,-0.71632 -1.172161,-0.83028 -0.01628,-0.83028 -0.01628,-1.3838 -0.01628,-1.43264 0.13024,0.0163 0.27676,-0.0651 0.39072,-0.0977 0.14652,-0.0163 0.27676,-0.0163 0.423281,0.0163 0.13024,0.0326 0.27676,0.0488 0.407,0.0163 0.13024,-0.0326 0.2442,-0.0977 0.35816,-0.19536 -0.29304,0 -0.52096,-0.17908 -0.78144,-0.30932 -0.130241,-0.0651 -0.276761,-0.0977 -0.407001,-0.11396 -0.14652,-0.0163 -0.30932,-0.0326 -0.43956,0.0326 -0.01628,-0.11396 -0.03256,-0.22792 -0.04884,-0.34188 h -0.06512 c -0.09768,0.45584 -0.09768,0.91168 -0.09768,1.36752 0,0.39072 0,0.66748 -0.01628,1.0582 l -1.155881,0.83028 c -0.11396,0.0651 -0.11396,0.22792 0,0.29304 l 1.139601,0.53724 c 0,0.22792 0,0.58608 -0.01628,0.83028 l -1.269841,0.91168 c -0.13024,0.0651 -0.13024,0.2442 0,0.30932 l 1.253561,0.60236 c 0,0.34188 -0.01628,0.68376 -0.01628,1.02564 l -0.22792,0.86284 h -0.52096 c -0.06512,0 -0.13024,0.0163 -0.195361,0.0326 -0.04884,0.0163 -0.14652,0.0488 -0.14652,0.11396 0,0.0488 0.0814,0.0977 0.13024,0.0977 0.06512,0.0163 0.130241,0.0488 0.211641,0.0488 h 0.14652 c 0,0 0,0 0,0 h 0.29304 l -0.39072,1.49777 h -0.634921 c -0.39072,-1.43265 -0.618641,-2.91413 -0.700041,-4.39561 -0.0814,-1.48148 -0.03256,-2.97924 0.179081,-4.44444 0.19536,-1.36752 0.52096,-2.71877 0.976801,-4.02117 0.43956,-1.23728 0.976801,-2.442 1.660561,-3.56532 0.358161,-0.60236 0.732601,-1.17216 1.155881,-1.72568 1.709402,0.5698 3.923484,0.0488 3.923484,0.0488 C 11.376184,6.98455 12.613466,7.03339 13.346066,7.14735 l 0.390721,0.0651 c 0.04884,-0.2442 0.06512,-0.42328 0.14652,-0.6512 -2.083842,-0.6512 -4.4281647,-0.34188 -4.4281647,-0.34188 -1.416361,0.13024 -2.295482,-0.1628 -2.735042,-0.407 0,0 0.895401,-0.94425 1.628001,-1.48149 0.634921,0.45584 1.448922,0.70005 2.2140817,0.83029 0.504681,0.0977 1.009361,0.13024 1.514042,0.2442 0.50468,0.11396 1.009361,0.26048 1.497761,0.43956 0.179081,0.0651 0.407001,0.17908 0.504681,0.22792 0.09768,-0.19536 0.22792,-0.39072 0.34188,-0.5698 l -0.3256,-0.21164 C 13.460026,4.93324 12.841386,4.73788 12.173905,4.52624 11.718065,4.37972 11.278504,4.2332 10.855224,4.02156 10.269143,3.72852 9.9272633,3.3378 9.8947033,3.30524 c 0,0 0.9930807,-0.60236 1.9210417,-0.94424 0.42328,0.61864 1.237281,0.96052 1.774521,1.41636 0.765161,0.6512 1.188442,1.26985 1.221002,1.33497 0.17908,-0.13025 0.35816,-0.22793 0.58608,-0.32561 -0.30932,-0.68376 -0.74888,-1.44892 -1.269841,-1.9536 -0.2442,-0.22792 -0.602361,-0.60236 -0.700041,-0.99308 0,0 1.237282,-0.30932 2.197803,-0.3256 l 0.35816,3.14204 c 0.13024,-0.0326 0.34188,-0.0163 0.34188,-0.0163 0,0 0.13024,0 0.341881,0.0163 l 0.35816,-3.14204 c 0,0 0.846561,0.0326 1.530321,0.17908 0.374441,0.0814 0.667481,0.14652 0.667481,0.14652 -0.11396,0.39072 -0.45584,0.78144 -0.700041,0.99308 -0.53724,0.50468 -0.944241,1.26984 -1.269841,1.9536 0.17908,0.0814 0.390721,0.1628 0.586081,0.32561 0.35816,-0.53725 0.814001,-0.99309 1.221001,-1.33497 0.53724,-0.47212 1.334961,-0.83028 1.774522,-1.41636 0.11396,0.0488 0.58608,0.22792 1.367521,0.61864 l 0.569801,0.3256 c -0.01628,0.0163 -0.651201,0.53724 -0.976801,0.71632 -0.407001,0.2442 -0.862841,0.37444 -1.318682,0.50468 -0.68376,0.21164 -1.286121,0.39072 -1.937322,0.76517 l -0.3256,0.19536 c 0.13024,0.1628 0.2442,0.35816 0.35816,0.5698 0.113961,-0.0488 0.341881,-0.1628 0.504681,-0.21164 0.4884,-0.17908 0.993081,-0.3256 1.497761,-0.43956 0.488401,-0.11396 1.009361,-0.14652 1.514042,-0.2442 0.748881,-0.13024 1.562882,-0.37445 2.197802,-0.83029 0.814001,0.63492 1.628002,1.48149 1.628002,1.48149 -0.455841,0.2442 -1.318682,0.53724 -2.735043,0.407 0,0 -2.344322,-0.3256 -4.428164,0.3256 0.06512,0.19536 0.0814,0.34188 0.13024,0.63492 l 0.407,-0.0651 c 0.732601,-0.0977 1.953602,-0.14652 3.939764,0.21164 0,0 2.197802,0.52096 3.907204,-0.0488 0.1628,0.21164 0.34188,0.43956 0.488401,0.66748 0.7326,1.0582 1.351241,2.1978 1.855921,3.40252 0.520961,1.25356 0.927961,2.55596 1.204722,3.89093 0.29304,1.40008 0.43956,2.83272 0.45584,4.26536 -0.03256,1.628 -0.17908,3.1746 -0.47212,4.70492"
   class="st0" />
</svg>