<?xml version="1.0" encoding="UTF-8" standalone="no"?>
<svg
   xmlns:dc="http://purl.org/dc/elements/1.1/"
   xmlns:cc="http://creativecommons.org/ns#"
   xmlns:rdf="http://www.w3.org/1999/02/22-rdf-syntax-ns#"
   xmlns:svg="http://www.w3.org/2000/svg"
   xmlns="http://www.w3.org/2000/svg"
   height="41.732681"
   width="134.71463"
   xml:space="preserve"
   viewBox="0 0 134.71463 41.73268"
   y="0px"
   x="0px"
   id="Capa_1"
   version="1.1"><metadata
   id="metadata21"><rdf:RDF><cc:Work
       rdf:about=""><dc:format>image/svg+xml</dc:format><dc:type
         rdf:resource="http://purl.org/dc/dcmitype/StillImage" /><dc:title>Mesa de trabajo 1 copia</dc:title></cc:Work></rdf:RDF></metadata><defs
   id="defs19" />
<style
   id="style2"
   type="text/css">
	.st0{fill:#FFFFFF;}
</style>
<title
   id="title4">Mesa de trabajo 1 copia</title>
<g
   transform="matrix(0.22122415,0,0,0.22122415,1,0.9565806)"
   style="stroke:#000000;stroke-width:9.04060459;stroke-miterlimit:4;stroke-dasharray:none"
   id="g14">
	<path
   style="fill:#ffffff;stroke:#000000;stroke-width:9.04060459;stroke-miterlimit:4;stroke-dasharray:none"
   id="path6"
   d="m 432.2,24.4 -51.6,98.2 c -1.1,2.1 -4.3,2.1 -5.4,0 L 323.6,24.4 c -0.5,-1 -1.5,-1.6 -2.6,-1.6 h -25 c -1.7,0 -2.8,1.8 -2,3.3 l 81.3,152.2 c 1.1,2.1 4.1,2.1 5.3,0 L 461.9,26.1 c 0.8,-1.5 -0.3,-3.3 -2,-3.3 h -25 c -1.2,0 -2.2,0.6 -2.7,1.6 z"
   class="st0" />
	<path
   style="fill:#ffffff;stroke:#000000;stroke-width:9.04060459;stroke-miterlimit:4;stroke-dasharray:none"
   id="path8"
   d="m 461.5,155.5 51.6,-98.2 c 1.1,-2.1 4.3,-2.1 5.4,0 l 51.6,98.2 c 0.5,1 1.5,1.6 2.6,1.6 h 25 c 1.7,0 2.8,-1.8 2,-3.3 L 518.4,1.6 c -1.1,-2.1 -4.1,-2.1 -5.3,0 l -81.3,152.2 c -0.8,1.5 0.3,3.3 2,3.3 h 25 c 1.1,-0.1 2.2,-0.7 2.7,-1.6 z"
   class="st0" />
	<path
   style="fill:#ffffff;stroke:#000000;stroke-width:9.04060459;stroke-miterlimit:4;stroke-dasharray:none"
   id="path10"
   d="m 108.8,95.2 c 10.8,-5.4 17.5,-17.1 17.5,-31.4 0,-24.5 -19.1,-41.1 -46,-41.1 H 3 c -1.7,0 -3,1.3 -3,3 v 151.1 c 0,1.7 1.3,3 3,3 h 74 c 37,0 56.5,-15.9 56.5,-47.1 0,-30.4 -24.7,-37.5 -24.7,-37.5 z M 29,45.5 h 45.9 c 16.9,0 25.5,7.2 25.5,20.6 0,13.4 -8.6,20.6 -25.5,20.6 H 29 c -1.6,0 -3,-1.3 -3,-3 V 48.5 c 0,-1.7 1.3,-3 3,-3 z M 75.5,157 H 29 c -1.7,0 -3,-1.3 -3,-3 v -41.7 c 0,-1.6 1.3,-3 3,-3 h 46.5 c 22.2,0 32.1,6.3 32.1,23.8 -0.1,17.7 -9.7,23.9 -32.1,23.9 z"
   class="st0" />
	<path
   style="fill:#ffffff;stroke:#000000;stroke-width:9.04060459;stroke-miterlimit:4;stroke-dasharray:none"
   id="path12"
   d="M 267.5,95.2 C 278.3,89.8 285,78.1 285,63.8 285,39.3 265.9,22.7 239,22.7 h -77.4 c -1.7,0 -3,1.3 -3,3 v 151.1 c 0,1.7 1.3,3 3,3 h 74 c 37,0 56.5,-15.9 56.5,-47.1 0.1,-30.4 -24.6,-37.5 -24.6,-37.5 z M 187.7,45.5 h 45.9 c 16.9,0 25.5,7.2 25.5,20.6 0,13.4 -8.6,20.6 -25.5,20.6 h -45.9 c -1.7,0 -3,-1.3 -3,-3 V 48.5 c 0,-1.7 1.3,-3 3,-3 z M 234.1,157 h -46.5 c -1.6,0 -3,-1.3 -3,-3 v -41.7 c 0,-1.6 1.3,-3 3,-3 h 46.5 c 22.2,0 32.1,6.3 32.1,23.8 0,17.7 -9.7,23.9 -32.1,23.9 z"
   class="st0" />
</g>
</svg>