<?xml version="1.0" encoding="UTF-8" standalone="no"?>
<svg
   xmlns:dc="http://purl.org/dc/elements/1.1/"
   xmlns:cc="http://creativecommons.org/ns#"
   xmlns:rdf="http://www.w3.org/1999/02/22-rdf-syntax-ns#"
   xmlns:svg="http://www.w3.org/2000/svg"
   xmlns="http://www.w3.org/2000/svg"
   height="44"
   width="132.60612"
   version="1.1"
   viewBox="0 0 132.60613 44"
   data-name="Layer 1"
   id="Layer_1">
  <metadata
     id="metadata61">
    <rdf:RDF>
      <cc:Work
         rdf:about="">
        <dc:format>image/svg+xml</dc:format>
        <dc:type
           rdf:resource="http://purl.org/dc/dcmitype/StillImage" />
        <dc:title>logo-bcr</dc:title>
      </cc:Work>
    </rdf:RDF>
  </metadata>
  <defs
     id="defs4">
    <style
       id="style2">.cls-1{fill:#041e41;}</style>
  </defs>
  <title
     id="title6">logo-bcr</title>
  <path
     style="fill:#041e41;stroke-width:0.44897959"
     id="path8"
     d="M 0,22 A 22,22 0 1 1 22,44 22,22 0 0 1 0,22 m 0.64204082,0 A 21.357959,21.357959 0 1 0 22,0.637551 21.357959,21.357959 0 0 0 0.64204082,22 M 6.3261224,22 A 15.678367,15.678367 0 1 1 22,37.673878 15.673878,15.673878 0 0 1 6.3261224,22 m 0.2604082,0 A 15.40449,15.40449 0 1 0 21.99102,6.59551 15.40449,15.40449 0 0 0 6.5865306,22 M 20.68,10.694694 A 1.2885714,1.2885714 0 1 0 21.968571,9.406122 1.2885714,1.2885714 0 0 0 20.68,10.694694 M 16.733469,20.9 a 4.4583673,4.4583673 0 0 1 -1.611836,-0.408571 1.5669388,1.5669388 0 0 1 -1.091021,0.758775 l 0.206531,0.781225 a 3.0665306,3.0665306 0 0 0 0.511837,-0.134694 c 0.242449,-0.103266 0.745306,-0.417551 0.781224,-0.417551 0.03592,0 0.202041,0.0449 0.300816,0.05837 l 0.516327,0.05388 0.390612,0.02245 a 0.9922449,0.9922449 0 0 1 0.170612,0 h 0.610613 0.830612 1.867755 l 1.795918,-0.04041 1.234694,0.04041 a 0.7677551,0.7677551 0 0 0 0.157143,-0.08082 3.5155102,3.5155102 0 0 0 1.091021,-0.897959 7.1836735,7.1836735 0 0 1 -1.917143,-0.767755 2.1102041,2.1102041 0 0 1 -0.606123,-0.502857 1.7420408,1.7420408 0 0 1 -0.525306,0.448979 8.2657143,8.2657143 0 0 1 -3.587347,1.082041 h -0.359184 a 3.9106122,3.9106122 0 0 0 -0.758775,0 v 0 z m 6.011837,-8.80449 v 1.248163 a 2.9138776,2.9138776 0 0 0 1.198776,0.67347 0.12122449,0.12122449 0 0 0 0.134694,-0.152653 c 0,-0.327755 -0.66449,-0.624082 -0.66449,-1.117959 v -0.139184 c 0,-0.05388 0,-0.103265 0.02245,-0.157143 a 1.4232653,1.4232653 0 0 1 0.05837,-0.202041 1.0640816,1.0640816 0 0 1 0.933878,-0.628571 h 0.341224 a 8.0816327,8.0816327 0 0 1 2.63551,0.794694 c 0.871021,0.395102 1.76,0.947347 2.631021,1.391836 0.87102,0.44449 1.764489,0.839592 2.63551,1.198776 L 33.121224,15.18 A 13.85102,13.85102 0 0 0 34.917143,15.759184 0.27836735,0.27836735 0 0 1 35.2,16.05551 c 0,0.269388 -0.408571,0.336735 -0.547755,0.336735 H 34.32 34.113469 a 1.1269388,1.1269388 0 0 1 -0.839591,0.448979 h -0.148164 -0.291836 l -0.269388,-0.04041 a 1.98,1.98 0 0 1 -0.938368,0.350204 h -0.296326 a 3.1428571,3.1428571 0 0 1 -0.588163,-0.09428 0.5477551,0.5477551 0 0 1 -0.44898,0.264898 2.6085714,2.6085714 0 0 0 -0.273877,0.03592 1.5040816,1.5040816 0 0 1 -0.206531,0 2.5995918,2.5995918 0 0 1 -0.700408,-0.157143 1.7959184,1.7959184 0 0 1 -0.525306,0.143674 l -0.341225,0.04041 H 27.868163 A 3.344898,3.344898 0 0 1 26.970204,17.09266 c -0.03592,0.103265 -0.06735,0.08082 -0.148163,0.107755 a 1.54,1.54 0 0 1 -0.511837,0.134694 1.8767347,1.8767347 0 0 1 -0.848571,-0.246939 0.49387755,0.49387755 0 0 1 -0.354694,0.23347 c -0.07633,0 -0.197551,0.02245 -0.22898,0.02245 a 1.3918367,1.3918367 0 0 1 -0.794694,-0.399592 0.50285714,0.50285714 0 0 1 -0.157143,0.130204 0.93387755,0.93387755 0 0 1 -0.309795,0.0449 1.4232653,1.4232653 0 0 1 -0.89796,-0.44898 v 0.897959 1.11796 a 1.3738776,1.3738776 0 0 1 0.691429,-0.175102 h 0.179592 l -0.592653,-0.143674 a 2.7297959,2.7297959 0 0 1 1.302041,-0.404082 h 0.296326 c 0.700408,0 1.795918,0.404082 2.029388,1.391837 a 3.3808163,3.3808163 0 0 1 0.07184,0.422041 v 0.44898 l -0.06735,0.399591 h 0.448979 a 4.1979592,4.1979592 0 0 0 1.894694,-0.525306 1.4277551,1.4277551 0 0 0 0.974286,0.857551 0.44897959,0.44897959 0 0 1 0.502857,-0.336734 0.44897959,0.44897959 0 0 1 0.493877,0.341224 0.84857143,0.84857143 0 0 1 0,0.130204 h 0.188572 a 3.8567347,3.8567347 0 0 0 1.189796,-0.354694 l -0.09878,0.327755 A 1.144898,1.144898 0 0 1 32.12,21.295102 1.7959184,1.7959184 0 0 1 31.67102,21.847347 c -0.09428,0.07184 -0.502857,0.287347 -0.502857,0.291837 l 1.171837,4.355102 0.197551,0.736326 0.170612,0.633061 c 0.202041,0.731837 0.794694,2.851021 0.794694,2.981225 a 3.7085714,3.7085714 0 0 1 -0.0898,0.570204 3.2595918,3.2595918 0 0 1 -0.296326,0.754286 2.6938776,2.6938776 0 0 1 -1.248164,1.117959 4.1620408,4.1620408 0 0 1 -1.1,0.22898 H 30.476735 30.184898 A 4.1395918,4.1395918 0 0 1 29.071429,33.282857 2.7208163,2.7208163 0 0 1 27.823265,32.187347 3.2955102,3.2955102 0 0 1 27.450612,30.970612 5.0779592,5.0779592 0 0 1 27.630204,30.14 l 0.951837,-3.551429 1.149388,-4.265306 A 1.1,1.1 0 0 0 29.48,22.260408 1.8228571,1.8228571 0 0 1 29.246531,22.184082 l -0.161633,-0.05837 -0.134694,-0.05837 c -0.246939,-0.112245 -0.516326,-0.282857 -0.538775,-0.282857 -0.02245,0 -0.166123,0.03592 -0.246939,0.0449 l -0.556735,0.05837 h -0.489388 l -1.028163,0.03143 a 4.1485714,4.1485714 0 0 1 -1.656735,1.31102 1.9395918,1.9395918 0 0 1 0.929388,1.53551 v 0.139184 a 1.8722449,1.8722449 0 0 1 -0.332245,0.897959 3.0889796,3.0889796 0 0 1 -1.059592,0.947347 2.1371429,2.1371429 0 0 1 0.556735,1.297551 v 0.624082 c 0,0.05388 -0.06735,0.341224 -0.06735,0.345714 a 3.3134694,3.3134694 0 0 1 -1.436735,1.881225 2.8510204,2.8510204 0 0 1 0.89796,1.30204 7.2240816,7.2240816 0 0 1 0.246938,0.862041 v 0.152653 a 0.38612245,0.38612245 0 0 1 -0.359183,0.408572 0.3322449,0.3322449 0 0 1 -0.260408,-0.134694 10.277143,10.277143 0 0 0 -0.489388,-0.965306 3.1428571,3.1428571 0 0 0 -0.561225,-0.565715 l -0.03143,2.43347 A 0.44897959,0.44897959 0 0 1 21.99102,34.840816 0.49836735,0.49836735 0 0 1 21.474694,34.369388 L 21.452245,31.9 a 6.0163265,6.0163265 0 0 0 -0.839592,0.844082 c -0.112245,0.157142 -0.188571,0.327755 -0.291837,0.480408 -0.103265,0.152653 -0.134694,0.511837 -0.368163,0.511837 -0.318775,0 -0.381633,-0.44898 -0.381633,-0.610613 a 4.0812245,4.0812245 0 0 1 1.001225,-2.267347 3.6546939,3.6546939 0 0 1 -1.189796,-2.316734 v -0.314286 l 0.02245,-0.143674 a 2.3032653,2.3032653 0 0 1 0.601633,-1.324489 4.0408163,4.0408163 0 0 1 -1.266123,-1.046123 1.935102,1.935102 0 0 1 -0.377143,-0.969796 V 24.496327 A 2.1146939,2.1146939 0 0 1 19.14,23.073061 4.4538776,4.4538776 0 0 1 17.451837,21.905714 l -0.695919,-0.02694 h -0.448979 l -0.44898,-0.04041 c -0.09877,0 -0.291837,-0.05388 -0.300816,-0.05388 -0.009,0 -0.471429,0.278367 -0.686939,0.368163 A 2.1910204,2.1910204 0 0 1 14.29551,22.31428 c 0.372653,1.432245 0.754286,2.85551 1.140408,4.283265 l 0.188572,0.713878 0.157143,0.597142 0.134694,0.502858 c 0.161632,0.615102 0.65102,2.357142 0.65102,2.464898 a 3.6232653,3.6232653 0 0 1 -0.0898,0.588163 2.6444898,2.6444898 0 0 1 -1.31102,1.688163 c -0.07633,0.03592 -0.152653,0.08531 -0.23347,0.116735 a 3.6277551,3.6277551 0 0 1 -1.09551,0.228979 H 13.54571 13.253874 a 3.4706122,3.4706122 0 0 1 -1.11347,-0.233469 2.3436735,2.3436735 0 0 1 -0.727347,-0.44898 2.6040816,2.6040816 0 0 1 -0.615102,-0.826122 3.3,3.3 0 0 1 -0.273877,-1.028163 5.1857143,5.1857143 0 0 1 0.184081,-0.848572 l 0.965306,-3.591837 1.162858,-4.337142 c 0,0 -0.350205,-0.193062 -0.44898,-0.273878 a 2.7971429,2.7971429 0 0 1 -0.794694,-1.162857 4.5481633,4.5481633 0 0 0 1.266123,0.377143 h 0.21551 a 0.41755102,0.41755102 0 0 1 0.484898,-0.44898 0.44897959,0.44897959 0 0 1 0.493877,0.336735 1.3469388,1.3469388 0 0 0 0.866531,-0.709388 1.1269388,1.1269388 0 0 1 0.07633,-0.148163 3.7534694,3.7534694 0 0 0 1.728572,0.520816 h 0.354694 v -0.193061 a 6.1285714,6.1285714 0 0 1 0.09877,-0.66 2.1640816,2.1640816 0 0 1 2.123674,-1.881225 h 0.237959 a 1.7061224,1.7061224 0 0 1 1.221224,0.507347 2.8779592,2.8779592 0 0 0 -1.203265,0.323266 c 0,0 0.103265,-0.03143 0.152653,-0.04041 a 3.2102041,3.2102041 0 0 1 0.399592,-0.04939 h 0.327755 a 2.7836735,2.7836735 0 0 1 0.87102,0.20653 V 17.613469 16.71551 a 1.4367347,1.4367347 0 0 1 -0.87551,0.44898 0.56571429,0.56571429 0 0 1 -0.448979,-0.175102 1.3873469,1.3873469 0 0 1 -0.790204,0.399592 0.70489796,0.70489796 0 0 1 -0.588164,-0.255919 2.0293878,2.0293878 0 0 1 -0.848571,0.246939 1.562449,1.562449 0 0 1 -0.516327,-0.134694 0.38163265,0.38163265 0 0 0 -0.148163,0 c -0.309796,0.04041 -0.619592,0.157143 -0.920408,0.193061 h -0.242449 l -0.363674,-0.0449 a 3.3942857,3.3942857 0 0 1 -0.64204,-0.112245 0.7677551,0.7677551 0 0 0 -0.296327,0.06286 2.5322449,2.5322449 0 0 1 -0.399592,0.06286 1.1493878,1.1493878 0 0 1 -0.21102,0 c -0.06735,0 -0.188572,-0.03592 -0.202041,-0.03592 a 0.89795918,0.89795918 0 0 1 -0.570204,-0.21551 c -0.251429,0 -0.404082,0.02694 -0.547755,0.0449 h -0.260403 a 1.6657143,1.6657143 0 0 1 -0.853062,-0.31429 H 10.77551 A 1.3469388,1.3469388 0 0 1 9.9359184,16.513469 L 9.7473469,16.459592 H 9.3926531 A 0.50285714,0.50285714 0 0 1 8.844898,16.100408 c 0,-0.260408 0.4040816,-0.282857 0.5208163,-0.314286 a 19.660816,19.660816 0 0 0 2.0159187,-0.722857 c 0.86204,-0.350204 1.75551,-0.754285 2.62204,-1.194285 0.866531,-0.44 1.751021,-0.992245 2.631021,-1.387347 a 8.0187755,8.0187755 0 0 1 2.622041,-0.794694 h 0.341224 a 1.1853061,1.1853061 0 0 1 0.633061,0.22 0.86204082,0.86204082 0 0 1 0.341225,0.597143 l 0.02694,0.166122 v 0.143674 c 0,0.502857 -0.66449,0.826122 -0.66449,1.113469 a 0.13020408,0.13020408 0 0 0 0.148163,0.157143 2.9004082,2.9004082 0 0 0 1.194286,-0.66898 v -1.221224 a 1.5983673,1.5983673 0 1 1 1.508571,-0.03143 m -1.216734,5.410204 v 1.795919 a 2.3616327,2.3616327 0 0 0 0.327755,-0.381633 h 0.148163 a 2.0383673,2.0383673 0 0 0 0.314286,0.368163 l 0.02245,-1.724081 0.05837,-5.428164 a 1.5714286,1.5714286 0 0 1 -0.502857,0.08082 1.5893878,1.5893878 0 0 1 -0.44898,-0.06286 l 0.03143,3.511021 z m 5.553877,4.040817 0.543265,-0.02245 0.475919,-0.05388 c 0.107755,0 0.314286,-0.05837 0.327755,-0.05837 0.01347,0 0.152653,0.09428 0.22449,0.139183 a 4.62,4.62 0 0 0 0.422041,0.211021 3.1069388,3.1069388 0 0 0 0.682449,0.21551 l 0.21102,-0.767755 a 1.9081633,1.9081633 0 0 1 -1.144898,-0.776735 4.884898,4.884898 0 0 1 -1.629796,0.417551 h -0.633061 a 2.8959184,2.8959184 0 0 1 -0.278368,0.713878 h 0.731837 0.06286 z m -4.880408,9.877551 a 1.4502041,1.4502041 0 0 0 -0.502857,0.574693 l 0.02694,2.312245 a 0.22897959,0.22897959 0 0 0 0.246938,0.211021 0.19306122,0.19306122 0 0 0 0.197551,-0.206531 z m 0.736327,-0.260409 a 2.244898,2.244898 0 0 0 -0.44898,0.112245 v 0.278368 a 3.6457143,3.6457143 0 0 1 0.781224,0.758775 6.7346939,6.7346939 0 0 1 0.493878,0.960816 0.1122449,0.1122449 0 0 0 0.116735,-0.134693 1.2346939,1.2346939 0 0 0 -0.02245,-0.152653 1.2885714,1.2885714 0 0 1 -0.161633,0.06735 0.19755102,0.19755102 0 0 1 0.139184,-0.166122 l -0.03592,-0.134694 a 0.89795918,0.89795918 0 0 1 -0.184081,0.08531 0.25591837,0.25591837 0 0 1 0.157143,-0.179592 l -0.03592,-0.134693 c -0.07633,0.03592 -0.21102,0.107755 -0.22449,0.107755 A 0.34571429,0.34571429 0 0 1 23.742039,32.48368 L 23.692653,32.34 23.459184,32.474694 a 0.50285714,0.50285714 0 0 1 0.193061,-0.23347 0.60163265,0.60163265 0 0 0 -0.05837,-0.130204 L 23.32,32.259184 l 0.237959,-0.246939 -0.08082,-0.148163 a 1.737551,1.737551 0 0 0 -0.327755,0.175102 0.48489796,0.48489796 0 0 1 0.273877,-0.269388 L 23.31551,31.594694 a 1.584898,1.584898 0 0 0 -0.368163,0.22449 0.52979592,0.52979592 0 0 1 0.300816,-0.327755 0.77673469,0.77673469 0 0 0 -0.121224,-0.139184 2.5457143,2.5457143 0 0 0 -0.404082,0.251428 0.55673469,0.55673469 0 0 1 0.332245,-0.327755 z m 0.157142,-1.908163 a 0.89795918,0.89795918 0 0 0 -0.305306,0.242449 0.2155102,0.2155102 0 0 0 0.06286,0.21551 2.1146939,2.1146939 0 0 0 0.413062,-0.318775 1.4502041,1.4502041 0 0 0 -0.170613,-0.139184 m 0.300817,-0.529796 a 0.33673469,0.33673469 0 0 0 -0.260408,0.323266 0.40408163,0.40408163 0 0 0 0.20653,0.278367 2.7342857,2.7342857 0 0 0 0.368163,-0.484898 0.57918367,0.57918367 0 0 0 -0.314285,-0.116735 m 0.826122,-0.525306 a 2.5008163,2.5008163 0 0 1 -0.956326,1.566939 2.2897959,2.2897959 0 0 1 -0.597143,0.336735 6.1510204,6.1510204 0 0 0 -1.625306,0.682449 0.95632653,0.95632653 0 0 1 0.345714,0.278367 1.4636735,1.4636735 0 0 1 -0.44898,-0.21551 1.3469388,1.3469388 0 0 0 -0.175102,0.148163 1.1493878,1.1493878 0 0 1 0.296327,0.188571 1.32,1.32 0 0 1 -0.377143,-0.112245 l -0.134694,0.134694 a 1.2885714,1.2885714 0 0 1 0.246939,0.130204 0.86204082,0.86204082 0 0 1 -0.327755,-0.0449 1.297551,1.297551 0 0 0 -0.09429,0.139184 0.6644898,0.6644898 0 0 1 0.233469,0.09429 0.55673469,0.55673469 0 0 1 -0.287347,0 l -0.08082,0.139184 a 0.79469388,0.79469388 0 0 1 0.206531,0.0449 l -0.22449,0.04939 -0.103265,0.161633 a 0.44897959,0.44897959 0 0 1 0.175102,0.0449 l -0.21551,0.04939 -0.06735,0.152653 h 0.148163 a 0.32326531,0.32326531 0 0 0 -0.246939,0.278367 l -0.07184,0.282857 -0.0449,0.336735 a 0.5477551,0.5477551 0 0 0 0.08082,0.314286 3.5334694,3.5334694 0 0 1 0.475918,-0.862041 5.7559184,5.7559184 0 0 1 1.373878,-1.248163 12.966531,12.966531 0 0 0 1.248163,-0.781225 2.5097959,2.5097959 0 0 0 -0.278367,-0.314286 0.58367347,0.58367347 0 0 1 0.359183,0.255919 0.31428571,0.31428571 0 0 0 -0.112245,-0.381633 l 0.323266,0.206531 -0.103266,-0.341225 0.300817,0.148163 0.143673,-0.161632 -0.197551,-0.188572 0.260408,0.112245 0.103266,-0.139183 a 1.297551,1.297551 0 0 0 -0.134694,-0.143674 l 0.197551,0.05837 a 1.2077551,1.2077551 0 0 0 0.0898,-0.152653 0.96081633,0.96081633 0 0 0 -0.130204,-0.112245 h 0.179591 a 1.7959184,1.7959184 0 0 0 0.09429,-0.197551 l -0.04939,-0.157142 0.143674,-0.188572 0.04939,-0.287347 v -0.332245 z m -0.615102,-0.03592 A 0.29183673,0.29183673 0 0 0 23.351429,28.6 3.3179592,3.3179592 0 0 1 23.800408,28.82449 3.3179592,3.3179592 0 0 0 23.98,28.344082 0.5522449,0.5522449 0 0 0 23.647755,28.231837 m -1.09102,-0.103266 v 0.987756 a 1.0102041,1.0102041 0 0 0 0.188571,-0.525307 0.81714286,0.81714286 0 0 0 -0.179592,-0.448979 m -1.140408,-0.188572 a 1.4906122,1.4906122 0 0 0 -0.246939,0.66 v 0.260409 a 1.76,1.76 0 0 0 0.264898,0.722857 z m 2.312245,-0.264898 c -0.0898,0 -0.44898,0 -0.44898,0.23796 a 0.37265306,0.37265306 0 0 0 0.121225,0.278367 c 0,0 0.09429,-0.04041 0.139184,-0.04939 a 0.95632653,0.95632653 0 0 1 0.448979,0.08531 v -0.237959 c 0,0 0,-0.184081 0,-0.273877 z m -2.038367,-0.116734 0.02694,2.370612 a 2.8555102,2.8555102 0 0 0 0.547756,-0.44898 l 0.02245,-1.575918 a 3.4077551,3.4077551 0 0 0 -0.597143,-0.332245 m -0.408572,-0.166122 a 2.0697959,2.0697959 0 0 0 -0.619592,1.346938 v 0.354694 a 2.1236735,2.1236735 0 0 0 0.574694,1.185306 0.23346939,0.23346939 0 0 1 0.211021,-0.20204 l -0.143674,-0.215511 a 1.6746939,1.6746939 0 0 0 -0.242449,0.0898 0.20653061,0.20653061 0 0 1 0.175102,-0.175102 L 21.12,29.587755 a 1.54,1.54 0 0 0 -0.246939,0.03143 0.18857143,0.18857143 0 0 1 0.197551,-0.130204 l -0.09428,-0.273878 a 0.72734694,0.72734694 0 0 0 -0.188572,0 l 0.152653,-0.112245 c 0,-0.09429 -0.02694,-0.175102 -0.03143,-0.251428 H 20.774286 A 0.23346939,0.23346939 0 0 1 20.90449,28.739184 V 28.59551 c 0,-0.121224 -0.06286,-0.112245 -0.0898,-0.130204 l 0.125714,-0.06735 0.05837,-0.20653 -0.08531,-0.157143 0.23347,-0.152653 -0.07184,-0.152653 a 0.28285714,0.28285714 0 0 1 0.125714,0.07184 l 0.130204,-0.175102 -0.04041,-0.161632 v -0.05388 z m -1.252653,-0.215511 -0.103265,0.179592 a 1.8857143,1.8857143 0 0 1 0.336735,-0.05837 h 0.152653 a 0.89795918,0.89795918 0 0 1 0.408571,0.152653 2.4918367,2.4918367 0 0 1 -0.413061,-0.05388 h -0.143674 a 1.1538776,1.1538776 0 0 0 -0.404081,0.09429 0.70938776,0.70938776 0 0 0 -0.107755,0.282857 1.3469388,1.3469388 0 0 1 0.448979,-0.08531 0.72734694,0.72734694 0 0 1 0.408572,0.103266 h -0.408572 a 1.2302041,1.2302041 0 0 0 -0.480408,0.116734 1.8228571,1.8228571 0 0 0 -0.0449,0.278368 0.9877551,0.9877551 0 0 1 0.44898,-0.116735 0.5522449,0.5522449 0 0 1 0.309796,0.09429 1.7240816,1.7240816 0 0 1 -0.309796,0 0.94285714,0.94285714 0 0 0 -0.44898,0.134693 v 0.287347 a 1.2257143,1.2257143 0 0 1 0.538776,-0.161632 1.0146939,1.0146939 0 0 1 0.152653,0.02694 l -0.157143,0.06735 a 1.0820408,1.0820408 0 0 0 -0.520817,0.179592 1.4995918,1.4995918 0 0 0 0.05388,0.296327 1.7644898,1.7644898 0 0 1 0.44898,-0.211021 2.9497959,2.9497959 0 0 1 -0.44898,0.314286 l 0.07184,0.22898 a 1.0730612,1.0730612 0 0 1 0.507347,-0.197551 4.6334694,4.6334694 0 0 0 -0.44898,0.300816 l 0.130204,0.264898 a 0.99673469,0.99673469 0 0 1 0.44898,-0.21102 c -0.107755,0.125714 -0.251429,0.170612 -0.381633,0.300816 a 2.7387755,2.7387755 0 0 0 0.161633,0.255918 1.077551,1.077551 0 0 1 0.332245,-0.193061 1.3469388,1.3469388 0 0 1 -0.278368,0.278367 2.4244898,2.4244898 0 0 0 0.175102,0.202041 2.3167347,2.3167347 0 0 1 0.273878,-0.202041 0.53877551,0.53877551 0 0 1 -0.21102,0.273878 1.4097959,1.4097959 0 0 0 0.161632,0.175102 1.2526531,1.2526531 0 0 1 0.188572,-0.161633 0.32326531,0.32326531 0 0 1 -0.121225,0.23347 l 0.377143,-0.264898 A 2.1012245,2.1012245 0 0 1 20.500408,29.04 a 0.93836735,0.93836735 0 0 1 0,-0.390612 2.0877551,2.0877551 0 0 1 0.66898,-1.266123 1.1,1.1 0 0 0 -0.211021,-0.04939 2.4738776,2.4738776 0 0 0 -0.65102,-0.121225 h -0.246939 z m 3.560408,-0.0449 c -0.08082,0 -0.601632,0.08979 -0.601632,0.309795 a 0.44897959,0.44897959 0 0 0 0.255918,0.314286 0.62857143,0.62857143 0 0 1 0.475918,-0.175102 l 0.23796,0.02245 a 1.3738776,1.3738776 0 0 0 -0.152653,-0.44898 z m -0.28286,-0.60612 a 1.7959184,1.7959184 0 0 0 -0.749796,0.278367 0.26040816,0.26040816 0 0 0 -0.107755,0.143674 0.89795918,0.89795918 0 0 0 0.44898,0.363673 0.83061224,0.83061224 0 0 1 0.673469,-0.323265 h 0.161633 a 0.99673469,0.99673469 0 0 0 -0.363674,-0.413061 z m -0.637551,-0.350204 a 1.4008163,1.4008163 0 0 0 -0.713877,0.287347 0.25591837,0.25591837 0 0 0 -0.08082,0.125714 0.69591837,0.69591837 0 0 0 0.44898,0.305306 1.6163265,1.6163265 0 0 1 0.87551,-0.448979 3.4346939,3.4346939 0 0 0 -0.516326,-0.269388 M 23.76,26.072245 a 0.96081633,0.96081633 0 0 0 -0.309796,0.22449 l 0.323265,0.251428 a 1.8453061,1.8453061 0 0 0 0.278368,-0.161632 C 23.962041,26.305714 23.791429,26.072245 23.76,26.072245 m -1.795918,-0.188572 c -0.0898,0.02694 -0.66449,0.211021 -0.66449,0.395103 a 0.89795918,0.89795918 0 0 0 0.448979,0.291836 1.2571429,1.2571429 0 0 1 0.781225,-0.448979 z M 24.159592,25.74 a 0.42204082,0.42204082 0 0 0 -0.296327,0.255918 0.74979592,0.74979592 0 0 0 0.206531,0.291837 1.0191837,1.0191837 0 0 0 0.44898,-0.309796 A 0.61061224,0.61061224 0 0 0 24.155102,25.74 m -2.909388,-0.188571 a 0.85306122,0.85306122 0 0 0 -0.475918,0.381632 0.7677551,0.7677551 0 0 0 0.395102,0.273878 2.5816327,2.5816327 0 0 1 0.296326,-0.21551 1.7510204,1.7510204 0 0 1 0.359184,-0.161633 z m -0.399592,-0.273878 a 0.69591837,0.69591837 0 0 0 -0.448979,0.296327 0.83959184,0.83959184 0 0 0 0.282857,0.264898 1.0281633,1.0281633 0 0 1 0.44898,-0.350205 c -0.09429,-0.05388 -0.269388,-0.20653 -0.296327,-0.20653 m 3.632245,-0.08531 a 0.38612245,0.38612245 0 0 0 -0.278367,0.327755 0.22897959,0.22897959 0 0 0 0.175102,0.193061 1.3873469,1.3873469 0 0 1 0.21102,0.188571 1.9306122,1.9306122 0 0 0 0.336735,-0.484898 0.82612245,0.82612245 0 0 0 -0.44898,-0.224489 m -3.874694,-0.193062 a 0.48938776,0.48938776 0 0 0 -0.417551,0.148164 0.44897959,0.44897959 0 0 0 0.179592,0.287347 0.95632653,0.95632653 0 0 1 0.408572,-0.23796 z M 20.284898,24.55469 a 0.23795918,0.23795918 0 0 0 -0.21102,0.242449 0.57469388,0.57469388 0 0 0 0.08082,0.202041 0.63755102,0.63755102 0 0 1 0.246939,-0.0898 H 20.5498 a 0.71836735,0.71836735 0 0 1 -0.06286,-0.251429 0.28285714,0.28285714 0 0 0 -0.202041,-0.09429 m 4.296735,-0.02694 a 0.29183673,0.29183673 0 0 0 -0.327755,0.314285 0.30081633,0.30081633 0 0 0 0.175102,0.246939 0.9877551,0.9877551 0 0 1 0.525306,0.23347 1.3469388,1.3469388 0 0 0 0.116734,-0.44898 0.50285714,0.50285714 0 0 0 -0.489387,-0.350204 m -1.99347,-0.305306 v 1.185306 a 1.0640816,1.0640816 0 0 0 0.610613,-0.66 c 0,-0.273878 -0.390613,-0.44898 -0.592654,-0.525306 m -2.141632,0 c -0.170612,0 -0.161633,0.05837 -0.251429,0.269388 a 0.89795918,0.89795918 0 0 1 0.305306,0.03143 0.70489796,0.70489796 0 0 1 0.112245,-0.255918 0.40857143,0.40857143 0 0 0 -0.166122,-0.0449 m 1.180816,-0.206531 v 1.450204 l 0.646531,0.278368 v -1.55347 z M 21.36245,23.908149 c -0.305306,0.278368 -0.583673,0.480408 -0.583673,0.767755 a 1.0146939,1.0146939 0 0 0 0.601632,0.651021 z m -0.637551,0 a 0.27387755,0.27387755 0 0 0 -0.255918,0.22898 c 0.0449,0 0.170612,0.05388 0.21102,0.05388 a 1.9665306,1.9665306 0 0 0 0.22449,-0.228979 0.32326531,0.32326531 0 0 0 -0.179592,-0.05388 m 3.924082,-0.09878 c -0.134694,0 -0.556735,0.121224 -0.556735,0.372653 a 0.44897959,0.44897959 0 0 0 0.228979,0.363673 1.2436735,1.2436735 0 0 1 0.287347,-0.08082 1.1134694,1.1134694 0 0 1 0.44898,0.143673 1.3469388,1.3469388 0 0 0 -0.300816,-0.668979 0.37714286,0.37714286 0 0 0 -0.125715,-0.130204 m -3.802857,-0.06286 a 0.18857143,0.18857143 0 0 0 0.130204,0.143673 z M 20.46,23.620816 a 1.5130612,1.5130612 0 0 0 -0.691429,1.131429 v 0.152653 a 1.6432653,1.6432653 0 0 0 0.785715,1.198775 7.6685714,7.6685714 0 0 0 0.763265,0.44898 4.6963265,4.6963265 0 0 1 1.499592,1.028163 1.8497959,1.8497959 0 0 1 0.305306,0.772245 v 0.260408 a 3.0755102,3.0755102 0 0 1 -1.252653,1.517551 6.0926531,6.0926531 0 0 0 0.933877,-0.332244 0.37265306,0.37265306 0 0 1 -0.08531,-0.188572 0.57469388,0.57469388 0 0 1 0.390613,-0.408571 0.71387755,0.71387755 0 0 1 0.170612,-0.502857 c 0,0 -0.02694,-0.112245 -0.02694,-0.130205 a 1.6073469,1.6073469 0 0 1 0.02694,-0.22 0.44897959,0.44897959 0 0 0 -0.03592,-0.228979 1.8857143,1.8857143 0 0 1 -0.05388,-0.23347 1.0416327,1.0416327 0 0 1 -0.291837,-0.448979 1.0057143,1.0057143 0 0 1 -0.525306,-0.408572 0.7677551,0.7677551 0 0 1 -0.570204,-0.354693 0.79918367,0.79918367 0 0 1 -0.588163,-0.372654 0.68693878,0.68693878 0 0 1 -0.511837,-0.287346 0.95183673,0.95183673 0 0 1 -0.381633,-0.44898 0.7677551,0.7677551 0 0 1 -0.22,-0.44898 c 0,-0.05837 -0.09428,-0.260408 -0.09428,-0.345714 a 3.7489796,3.7489796 0 0 1 0.224489,-0.583673 c 0.103266,-0.08531 0.143674,-0.07633 0.148164,-0.09878 a 0.42204082,0.42204082 0 0 1 0.354694,-0.341224 z m 3.52898,-0.336734 a 0.64653061,0.64653061 0 0 0 -0.408572,0.296326 0.56122449,0.56122449 0 0 0 0.399592,0.359184 1.8587755,1.8587755 0 0 1 0.565714,-0.22449 3.7085714,3.7085714 0 0 0 -0.561224,-0.44898 m -4.575102,-0.06286 a 2.1416327,2.1416327 0 0 0 0.448979,0.255919 c -0.152653,0 -0.448979,-0.06735 -0.592653,-0.06735 a 0.21102041,0.21102041 0 0 0 -0.202041,0.121224 h 0.22898 a 0.75428571,0.75428571 0 0 1 0.44898,0.175102 3.2012245,3.2012245 0 0 1 -0.44898,-0.07633 h -0.282857 a 0.31428571,0.31428571 0 0 0 -0.116735,0.139183 h 0.184082 a 1.055102,1.055102 0 0 1 0.525306,0.134694 c -0.143673,0 -0.395102,-0.04041 -0.520816,-0.04041 l -0.255919,0.03143 -0.103265,0.228979 a 1.0191837,1.0191837 0 0 1 0.296327,-0.07184 1.0012245,1.0012245 0 0 1 0.475918,0.07633 0.68244898,0.68244898 0 0 1 -0.372653,0 1.1044898,1.1044898 0 0 0 -0.44898,0.112245 l -0.04041,0.237959 a 1.2346939,1.2346939 0 0 1 0.574694,-0.152653 1.3065306,1.3065306 0 0 1 0.21551,0.03143 l -0.21551,0.06735 A 1.275102,1.275102 0 0 0 18.6551,24.563666 V 24.71632 L 18.682041,24.86 A 1.5804082,1.5804082 0 0 1 19.35102,24.581633 6.9008163,6.9008163 0 0 0 18.7,24.963265 c 0.02694,0.07184 0.05388,0.148164 0.08531,0.22449 a 1.5040816,1.5040816 0 0 1 0.520816,-0.300816 c -0.143673,0.112245 -0.327755,0.278367 -0.480408,0.395102 0.03143,0.05388 0.05837,0.103265 0.09429,0.157143 a 1.1493878,1.1493878 0 0 1 0.44898,-0.291837 c -0.09878,0.112245 -0.260409,0.264898 -0.377143,0.381633 l 0.125714,0.152653 a 1.3469388,1.3469388 0 0 1 0.323265,-0.314286 2.397551,2.397551 0 0 1 -0.255918,0.390612 2.1236735,2.1236735 0 0 0 0.175102,0.166123 1.2885714,1.2885714 0 0 1 0.197551,-0.269388 0.89795918,0.89795918 0 0 1 -0.125714,0.336735 l 0.152653,0.121224 a 1.2257143,1.2257143 0 0 1 0.157143,-0.242449 0.62408163,0.62408163 0 0 1 -0.07184,0.300816 l 0.161633,0.116735 a 2.1371429,2.1371429 0 0 1 0.09877,-0.21102 0.32326531,0.32326531 0 0 1 0,0.269387 l 0.152653,0.09429 a 0.51632653,0.51632653 0 0 1 0.06735,-0.166122 0.23346939,0.23346939 0 0 1 0,0.21551 l 0.143674,0.08082 0.255918,0.139184 0.251428,0.09878 a 1.2302041,1.2302041 0 0 0 0.363674,0.143674 4.7457143,4.7457143 0 0 1 1.638775,0.996735 0.92938776,0.92938776 0 0 1 0.188572,0.345714 1.4457143,1.4457143 0 0 0 -0.628572,-0.897959 8.6383673,8.6383673 0 0 0 -0.987755,-0.547755 3.9914286,3.9914286 0 0 1 -1.544489,-1.032653 1.7959184,1.7959184 0 0 1 -0.327756,-0.853062 v -0.282857 a 1.7959184,1.7959184 0 0 1 0.772245,-1.167347 z m 3.681632,-0.359183 c -0.04939,0.121224 -0.179591,0.305306 -0.179591,0.323265 a 0.56122449,0.56122449 0 0 0 0.448979,0.327755 0.15265306,0.15265306 0 0 0 0.134694,-0.02245 0.92489796,0.92489796 0 0 1 0.381633,-0.273877 7.1836735,7.1836735 0 0 0 -0.799184,-0.354694 m -0.686939,-0.260409 a 0.92938776,0.92938776 0 0 1 -0.175102,0.422041 0.67795918,0.67795918 0 0 0 0.390612,0.202041 0.40857143,0.40857143 0 0 0 0.332245,-0.291837 z m -0.66,-0.237959 A 0.89795918,0.89795918 0 0 1 21.577959,22.754286 0.85755102,0.85755102 0 0 0 22,22.992245 0.44897959,0.44897959 0 0 0 22.291837,22.565714 Z m -0.556734,-0.202041 a 1.055102,1.055102 0 0 1 -0.211021,0.44898 0.63306122,0.63306122 0 0 0 0.372653,0.188571 0.48040816,0.48040816 0 0 0 0.305306,-0.448979 z m -1.849796,-0.107755 c 0.745306,0.67347 2.137142,0.974286 3.237142,1.414286 0.22898,0.0898 0.44898,0.21102 0.695919,0.332245 a 1.4232653,1.4232653 0 0 1 0.758775,1.001224 v 0.22449 a 1.6477551,1.6477551 0 0 1 -0.857551,1.153878 l 0.152653,0.0898 a 0.70938776,0.70938776 0 0 1 0.413062,-0.273878 0.48489796,0.48489796 0 0 1 0.42204,-0.323265 0.50285714,0.50285714 0 0 1 0.197551,-0.507347 0.38163265,0.38163265 0 0 1 -0.161632,-0.291837 1.5579592,1.5579592 0 0 1 0.07633,-0.251428 0.59714286,0.59714286 0 0 1 -0.255918,-0.44898 0.66897959,0.66897959 0 0 1 0.03143,-0.139184 0.61959184,0.61959184 0 0 1 -0.516327,-0.448979 0.66,0.66 0 0 1 -0.65551,-0.341225 0.44897959,0.44897959 0 0 1 -0.211021,0.06735 1.0416327,1.0416327 0 0 1 -0.480408,-0.242449 1.0012245,1.0012245 0 0 1 -0.615102,-0.242449 1.0506122,1.0506122 0 0 1 -0.179592,0.05388 0.97877551,0.97877551 0 0 1 -0.448979,-0.23347 c -0.02694,0 -0.09878,0.02694 -0.134694,0.02694 A 0.68244898,0.68244898 0 0 1 20.46,22.547755 0.67346939,0.67346939 0 0 0 20.23102,22.399592 1.0820408,1.0820408 0 0 1 19.58,22.058367 0.61510204,0.61510204 0 0 1 19.382449,22.022449 m -1.194286,-0.02694 -0.22,0.03143 0.148164,0.121224 z m 2.464898,-0.02694 a 0.82163265,0.82163265 0 0 1 -0.300816,0.395102 0.84857143,0.84857143 0 0 0 0.448979,0.193062 0.38612245,0.38612245 0 0 0 0.323266,-0.359184 0.60163265,0.60163265 0 0 0 -0.44898,-0.22898 m -2.002449,-0.02245 a 0.98326531,0.98326531 0 0 0 -0.327755,0.03592 0.31428571,0.31428571 0 0 0 -0.125714,0.228979 l 0.197551,0.130204 a 1.1089796,1.1089796 0 0 1 0.148163,-0.287346 0.94734694,0.94734694 0 0 1 -0.05837,0.341224 l 0.21102,0.121225 a 1.0146939,1.0146939 0 0 1 0.0898,-0.273878 0.40857143,0.40857143 0 0 1 0,0.309796 0.70489796,0.70489796 0 0 0 0.175102,0.107755 1.1,1.1 0 0 1 0.06286,-0.251429 l 0.03592,0.242449 0.20204,0.148164 a 0.99673469,0.99673469 0 0 1 0.03592,-0.211021 0.25142857,0.25142857 0 0 1 0.06286,0.197551 l 0.184082,0.139184 a 1.4726531,1.4726531 0 0 1 0.03143,-0.193061 l 0.06735,0.20653 a 0.39061224,0.39061224 0 0 0 0.188572,0.107755 1.4457143,1.4457143 0 0 1 0.02694,-0.175102 l 0.07184,0.161633 0.188571,0.121225 a 0.34122449,0.34122449 0 0 1 0.04041,-0.148164 l 0.05388,0.184082 0.161633,0.05837 0.04041,-0.170612 a 0.20653061,0.20653061 0 0 1 0.06286,0.206531 l 0.175102,0.06286 0.03143,-0.134694 0.06286,0.166122 0.22898,0.07633 0.02694,-0.134694 a 0.13918367,0.13918367 0 0 1 0.07184,0.166122 l 0.233469,0.08082 a 1.2526531,1.2526531 0 0 1 0.02694,-0.157143 l 0.06735,0.184082 0.246939,0.07184 a 0.89795918,0.89795918 0 0 1 0.02694,-0.157143 l 0.06735,0.184082 0.269387,0.07184 a 0.61959184,0.61959184 0 0 1 0.03143,-0.152653 l 0.06286,0.179592 0.197551,0.05388 a 0.28734694,0.28734694 0 0 1 0.04041,-0.130204 0.14367347,0.14367347 0 0 1 0.05837,0.152653 l 0.251428,0.06735 a 2.9318367,2.9318367 0 0 1 0.309796,0.134694 c 0.0898,0.05388 0.202041,0.139184 0.21551,0.139184 a 1.0236735,1.0236735 0 0 1 0.211021,0.228979 l 0.157143,0.03143 a 0.35020408,0.35020408 0 0 0 -0.06735,0.251428 0.58816327,0.58816327 0 0 1 -0.103266,0.386123 0.71836735,0.71836735 0 0 1 0.143674,0.04939 0.22,0.22 0 0 1 -0.21551,0.03143 l -0.125715,0.130204 a 0.60163265,0.60163265 0 0 1 0.148164,0.05837 l -0.22898,0.02245 -0.179592,0.125714 0.211021,0.103265 -0.314286,-0.04041 0.09429,0.251429 -0.314286,-0.130205 a 0.35918367,0.35918367 0 0 0 0.148163,0.197551 1.0730612,1.0730612 0 0 0 0.21551,0.103266 c 0,0 0.161633,-0.112245 0.246939,-0.170612 a 1.2122449,1.2122449 0 0 0 0.637551,-0.965307 0.86204082,0.86204082 0 0 0 -0.202041,-0.579183 2.5591837,2.5591837 0 0 0 -1.08653,-0.67347 C 22.197551,23.472653 21.797959,23.346939 21.425306,23.221224 21.052653,23.09551 20.648571,22.974286 20.266939,22.821633 A 6.6044898,6.6044898 0 0 1 19.211837,22.323265 C 19.032245,22.21102 18.726939,21.937143 18.70449,21.937143 h -0.0449 z m 1.203266,-0.03143 c 0,0 -0.112245,0.08531 -0.161633,0.116735 a 0.85306122,0.85306122 0 0 0 0.484898,0.278367 0.44897959,0.44897959 0 0 0 0.372653,-0.345714 l -0.44898,-0.03592 z m -0.44898,0 a 0.37265306,0.37265306 0 0 0 0.143673,0.04939 0.44897959,0.44897959 0 0 0 0.161633,-0.04939 z m 2.244898,-0.03143 0.731837,0.363674 v -0.363674 z m 1.005714,0 v 0 m 1.346939,-2.904898 a 1.4636735,1.4636735 0 0 0 -0.170612,0.02245 2.024898,2.024898 0 0 1 0.776734,0.305306 0.80367347,0.80367347 0 0 0 -0.601632,-0.327755 m -3.52,-0.04041 a 1.4771429,1.4771429 0 0 1 0.332245,0.381633 h -0.44898 A 1.7285714,1.7285714 0 0 0 19.108571,20.446531 6.8828571,6.8828571 0 0 0 21.375918,19.58 V 19.153469 A 2.7477551,2.7477551 0 0 0 20.545306,18.92898 h -0.02694 z m 2.904898,-0.134694 a 1.2032653,1.2032653 0 0 0 -0.704898,0.22449 v 0.561225 a 4.9926531,4.9926531 0 0 0 0.794694,0.413061 9.3163265,9.3163265 0 0 0 1.180816,0.386122 0.64204082,0.64204082 0 0 0 0.08082,-0.327755 c 0,-0.556735 -0.808163,-0.817143 -1.149387,-0.817143 h -0.264898 c -0.09878,0 -0.251429,0 -0.296327,-0.02245 a 2.4559184,2.4559184 0 0 1 0.520816,-0.395102 z m 0.897959,-0.538775 a 4.7861224,4.7861224 0 0 0 -0.489388,0.06735 2.5906122,2.5906122 0 0 1 0.480408,0.264898 2.7163265,2.7163265 0 0 1 0.44898,0.448979 0.68244898,0.68244898 0 0 1 0.0898,0.134694 c 0,0 -0.139184,0.112245 -0.206531,0.170612 a 0.95632653,0.95632653 0 0 1 0.381633,0.727347 c 0,1.239184 -2.384082,2.186531 -2.384082,2.20898 a 5.5359184,5.5359184 0 0 0 1.836327,-0.897959 1.0461224,1.0461224 0 0 0 0.255918,-0.341225 0.89795918,0.89795918 0 0 0 0.05388,-0.264898 h 0.139183 c 0,0.965306 -1.764489,1.508572 -2.065306,1.670204 l 0.570204,0.22449 a 1.76,1.76 0 0 0 -0.193061,-0.197551 0.29183673,0.29183673 0 0 1 0.260408,0.125714 0.56122449,0.56122449 0 0 0 0.121225,0.152654 1.5534694,1.5534694 0 0 0 0.493877,0.08082 1.7285714,1.7285714 0 0 0 -0.489387,-0.547755 1.0730612,1.0730612 0 0 1 0.606122,0.552245 h 0.372653 a 1.297551,1.297551 0 0 0 -0.628571,-0.790204 1.0685714,1.0685714 0 0 1 0.722857,0.740816 L 24.9947,22.606122 a 1.0371429,1.0371429 0 0 0 -0.543265,-0.713877 0.9877551,0.9877551 0 0 1 -0.152653,-0.06735 0.89795918,0.89795918 0 0 1 0.785714,0.718367 l 0.269388,-0.21551 a 0.89795918,0.89795918 0 0 0 -0.556735,-0.691428 l -0.193061,-0.05388 a 0.78571429,0.78571429 0 0 1 0.830612,0.66898 3.0126531,3.0126531 0 0 0 0.983265,-2.015919 v -0.417551 a 1.5130612,1.5130612 0 0 0 -0.740816,-1.266122 2.6938776,2.6938776 0 0 0 -1.10898,-0.296327 h -0.287347 z m -4.970204,-0.08531 a 1.7959184,1.7959184 0 0 0 -1.531021,0.817143 2.9183673,2.9183673 0 0 0 -0.42653,1.486122 1.0102041,1.0102041 0 0 0 0,0.175102 h 0.395102 a 8.5306122,8.5306122 0 0 0 1.001224,-0.130204 2.0428571,2.0428571 0 0 1 1.405306,-1.432245 0.77673469,0.77673469 0 0 0 -0.296326,-0.05837 0.67346939,0.67346939 0 0 0 -0.134694,0 2.5412245,2.5412245 0 0 0 -0.996735,0.332245 l -0.166122,-0.22 a 3.0755102,3.0755102 0 0 1 1.423265,-0.89796 1.6253061,1.6253061 0 0 0 -0.475918,-0.08531 h -0.211021 z m 12.53102,3.057551 a 4.3595918,4.3595918 0 0 1 -0.682449,0.148163 h -0.188571 l 0.130204,0.498367 a 1.495102,1.495102 0 0 0 0.740816,-0.64653 m -1.346939,-0.399592 c -0.05837,0 -0.305306,0 -0.305306,0.148163 a 0.93387755,0.93387755 0 0 0 0.06286,0.206531 l -2.586122,9.66653 a 2.7342857,2.7342857 0 0 0 0.498367,1.459184 2.2897959,2.2897959 0 0 0 1.005715,0.781225 3.3897959,3.3897959 0 0 0 1.046122,0.22 h 0.561225 l 0.359183,-0.04041 a 3.1428571,3.1428571 0 0 0 0.67347,-0.175102 c 0.08082,-0.03143 0.152653,-0.07633 0.228979,-0.112245 a 2.4514286,2.4514286 0 0 0 1.198776,-1.598367 3.2910204,3.2910204 0 0 0 0.08082,-0.44898 l -2.64,-9.778775 a 0.60163265,0.60163265 0 0 0 0.06735,-0.197551 c 0,-0.134694 -0.233469,-0.152653 -0.300816,-0.152653 m -18.304898,0.408571 a 1.8273469,1.8273469 0 0 0 0.749796,0.66 l 0.134694,-0.507347 h -0.211021 a 4.1261224,4.1261224 0 0 1 -0.673469,-0.139183 m 1.391836,-0.408572 c -0.07184,0 -0.305306,0 -0.305306,0.157143 a 0.41755102,0.41755102 0 0 0 0.05837,0.193061 l -2.581633,9.666531 a 3.3493878,3.3493878 0 0 0 0.22449,0.983265 2.5861224,2.5861224 0 0 0 1.275102,1.257143 4.2967347,4.2967347 0 0 0 1.046122,0.22 h 0.561225 a 3.3404082,3.3404082 0 0 0 1.028163,-0.21551 c 0.08082,-0.03143 0.152653,-0.07633 0.233469,-0.112245 a 2.4559184,2.4559184 0 0 0 1.198776,-1.580408 3.8297959,3.8297959 0 0 0 0.08082,-0.44898 l -2.563673,-9.783265 a 0.58816327,0.58816327 0 0 0 0.06286,-0.175102 0.28285714,0.28285714 0 0 0 -0.291837,-0.179592 m 15.467347,-3.847755 a 1.2840816,1.2840816 0 0 0 0.633061,0.242449 3.5918367,3.5918367 0 0 1 -0.633061,-0.242449 M 22.718367,16.428163 A 0.80367347,0.80367347 0 0 0 23.1,16.827755 0.97877551,0.97877551 0 0 0 23.364898,16.94 2.4334694,2.4334694 0 0 1 22.713878,16.428163 m 2.024898,-1.346939 a 1.0326531,1.0326531 0 0 1 -0.363674,0.05837 h -0.233469 a 3.6546939,3.6546939 0 0 0 1.74204,1.593877 2.9273469,2.9273469 0 0 0 0.67796,0.170613 7.062449,7.062449 0 0 1 -1.822857,-1.795919 m -1.046123,-0.04939 a 4.18,4.18 0 0 0 0.633061,0.996734 c 0.525306,0.646531 1.346939,1.185306 1.957551,1.185306 a 1.0281633,1.0281633 0 0 0 0.282857,-0.0449 2.6938776,2.6938776 0 0 1 -0.785714,-0.193061 3.5918367,3.5918367 0 0 1 -1.09102,-0.695918 4.3146939,4.3146939 0 0 1 -0.722857,-0.897959 c -0.08082,-0.130204 -0.08082,-0.354694 -0.273878,-0.341225 m 1.207755,0 a 5.1228571,5.1228571 0 0 0 1.715102,1.751021 c 0.07633,0.0449 0.21551,0.139183 0.22449,0.139183 a 3.8567347,3.8567347 0 0 0 0.520816,0.22898 l 0.166123,0.04939 c 0.0449,0 0.09429,0.03143 0.139183,0.04041 0.0449,0.009 0.143674,0.02245 0.211021,0.03592 h 0.157143 c -0.143674,-0.04041 -0.296327,-0.0898 -0.44898,-0.139184 A 5.8367347,5.8367347 0 0 1 25.29102,15.543673 c -0.107755,-0.116734 -0.399591,-0.475918 -0.413061,-0.475918 m -1.53551,-0.121224 a 3.74,3.74 0 0 0 0.197551,0.511836 4.4179592,4.4179592 0 0 0 1.010204,1.378368 0.79918367,0.79918367 0 0 0 0.480408,0.233469 0.16612245,0.16612245 0 0 0 0.148164,-0.09429 4.6783673,4.6783673 0 0 1 -1.54,-1.74204 0.66,0.66 0 0 0 -0.0898,-0.197551 0.63755102,0.63755102 0 0 0 -0.202041,-0.0898 m 5.778367,-0.134694 c 0.763265,0.336734 3.349388,1.580408 4.489796,1.580408 h 0.161633 a 33.547755,33.547755 0 0 1 -4.63347,-1.575918 m -3.591836,0 a 20.886531,20.886531 0 0 0 3.06653,2.096734 1.9755102,1.9755102 0 0 0 0.287347,0.125715 C 27.85918,16.459584 26.700812,15.552645 25.551425,14.79387 M 25.317959,14.74 a 1.9126531,1.9126531 0 0 1 -0.170612,0.166122 c 0.704898,0.866531 1.643265,1.688164 2.442449,1.948572 a 4.5257143,4.5257143 0 0 0 0.776735,0.22 h 0.161632 l 0.21551,-0.02245 A 21.456735,21.456735 0 0 1 25.322449,14.73551 m -2.289796,0 0.03592,0.202041 a 3.8253061,3.8253061 0 0 0 1.158368,2.033878 0.96979592,0.96979592 0 0 0 0.448979,0.246938 2.5816327,2.5816327 0 0 1 -0.624081,-0.547755 4.6244898,4.6244898 0 0 1 -1.010204,-1.939592 m -0.287347,-0.228979 v 1.53551 a 2.177551,2.177551 0 0 0 1.005714,0.794694 0.33673469,0.33673469 0 0 1 0.179592,-0.03592 4.2518367,4.2518367 0 0 1 -0.960816,-1.926123 0.31428571,0.31428571 0 0 0 -0.211021,-0.368163 m 2.833061,-0.251429 -0.107755,0.179592 c 0.848572,0.475918 3.484082,2.608572 4.682857,2.608572 a 1.0955102,1.0955102 0 0 0 0.305306,-0.05837 c -1.643265,-0.493877 -3.28653,-1.885714 -4.938775,-2.747755 m 0.02694,-0.139184 c 0.66449,0.363674 1.257143,0.790204 1.818367,1.144898 l 0.44898,0.287347 0.448979,0.287347 c 0.246939,0.148163 0.493878,0.296327 0.736327,0.44898 0.242449,0.152653 0.448979,0.233469 0.695918,0.350204 a 6.7346939,6.7346939 0 0 0 0.844082,0.314286 2.8195918,2.8195918 0 0 0 0.754286,0.139183 h 0.242449 a 2.4065306,2.4065306 0 0 0 0.511836,-0.121224 l -0.21102,0.02245 h -0.417551 l -0.305306,-0.04939 a 8.4318367,8.4318367 0 0 1 -2.631021,-1.1 C 28.056738,15.566117 27.607758,15.29224 27.158779,15.022852 a 12.926122,12.926122 0 0 0 -1.620817,-0.897959 m 0,-0.372653 c 0.987755,0.484898 1.962041,1.203265 2.945306,1.76449 a 8.7057143,8.7057143 0 0 0 2.693878,1.144898 l 0.246939,0.04041 h 0.381632 a 23.046122,23.046122 0 0 1 -3.093469,-1.436735 21.061633,21.061633 0 0 0 -3.178776,-1.513061 m 0.08082,-0.300816 a 29.744898,29.744898 0 0 1 3.546938,1.74204 c 1.198776,0.606123 2.402041,1.243674 3.591837,1.396327 h 0.255919 a 1.495102,1.495102 0 0 0 0.502857,-0.103265 c -1.414286,-0.184082 -2.716327,-0.799184 -4.009388,-1.373878 -0.87102,-0.386122 -1.742041,-0.794694 -2.613061,-1.185306 a 7.5832653,7.5832653 0 0 0 -1.288572,-0.484898 m -0.924898,-1.522041 h -0.300816 a 0.75877551,0.75877551 0 0 0 -0.736326,0.583674 c 0,0.05388 0,0.103265 -0.02245,0.157142 0,0.484898 0.66,0.718368 0.66,1.239184 a 0.39061224,0.39061224 0 0 1 -0.399592,0.417551 2.9722449,2.9722449 0 0 1 -1.212245,-0.583673 v 0.372653 a 2.244898,2.244898 0 0 0 1.477143,0.790204 h 0.152653 a 0.94734694,0.94734694 0 0 0 0.965306,-0.897959 v -0.44898 a 0.42204082,0.42204082 0 0 1 0.448979,-0.44898 c 0.368164,0 1.917143,0.736327 2.119184,0.821633 l 1.266123,0.529796 0.853061,0.336735 c 1.405306,0.529796 2.833061,1.117959 4.242857,1.297551 a 0.96979592,0.96979592 0 0 0 0.368163,0 0.78571429,0.78571429 0 0 0 0.291837,-0.06735 19.391429,19.391429 0 0 1 -3.210204,-1.167347 C 31.02449,14.582857 30.391429,14.3 29.785306,13.981224 28.501224,13.298776 27.226122,12.517551 25.96,12.126939 a 4.8714286,4.8714286 0 0 0 -1.248163,-0.260408 m -9.787755,5.095918 a 3.8791837,3.8791837 0 0 1 -0.633062,0.237959 2.244898,2.244898 0 0 0 0.610613,-0.157143 z m 6.330612,-0.529796 a 2.5008163,2.5008163 0 0 1 -0.637551,0.502857 0.54326531,0.54326531 0 0 0 0.157143,-0.06286 1.144898,1.144898 0 0 0 0.480408,-0.368163 v -0.05388 z m -2.020408,-1.346939 a 6.2228571,6.2228571 0 0 1 -1.894694,1.795919 2.837551,2.837551 0 0 0 1.185306,-0.390613 3.6546939,3.6546939 0 0 0 1.302041,-1.378367 h -0.22449 a 1.3738776,1.3738776 0 0 1 -0.372653,-0.05837 m 1.041633,-0.04939 c -0.246939,0.314286 -0.408572,0.592653 -0.633062,0.87102 a 3.717551,3.717551 0 0 1 -0.556734,0.552245 4.7591837,4.7591837 0 0 1 -0.44898,0.309796 3.1114286,3.1114286 0 0 1 -0.44898,0.21551 2.7477551,2.7477551 0 0 1 -0.776734,0.193062 0.97428571,0.97428571 0 0 0 0.282857,0.0449 2.882449,2.882449 0 0 0 1.836326,-1.055102 3.9285714,3.9285714 0 0 0 0.745307,-1.126939 m -1.198776,0 c 0,0 -0.296326,0.354694 -0.44898,0.529796 l -0.139183,0.148163 c -0.103266,0.107755 -0.21551,0.22 -0.327755,0.323265 a 5.8367347,5.8367347 0 0 1 -0.826123,0.642041 c -0.116734,0.07184 -0.251428,0.143674 -0.377143,0.206531 a 4.0857143,4.0857143 0 0 1 -0.448979,0.20204 3.2595918,3.2595918 0 0 1 -0.565714,0.184082 h 0.157142 a 3.0844898,3.0844898 0 0 0 0.947347,-0.309796 5.7873469,5.7873469 0 0 0 0.848572,-0.547755 6.4563265,6.4563265 0 0 0 1.257143,-1.346939 z m 1.53551,-0.121225 -0.197551,0.08082 -0.103265,0.22 a 4.6065306,4.6065306 0 0 1 -1.53551,1.728571 0.17510204,0.17510204 0 0 0 0.152653,0.09429 c 0.543265,0 1.463673,-1.400817 1.602857,-1.890204 0,-0.08082 0.05388,-0.157143 0.08082,-0.23347 M 18.435102,14.74898 c -1.158367,0.740816 -2.312245,1.647755 -3.466122,2.19551 a 0.77673469,0.77673469 0 0 0 0.408571,-0.09878 21.263673,21.263673 0 0 0 3.062041,-2.096734 m -3.591837,0 a 28.927755,28.927755 0 0 1 -4.696326,1.562449 l 0.20653,0.02694 h 0.197551 c 1.423266,-0.228979 2.886939,-0.947347 4.292245,-1.580408 m 3.811837,-0.04041 a 21.55102,21.55102 0 0 1 -3.412245,2.312245 l 0.206531,0.02245 H 15.62 a 4.2563265,4.2563265 0 0 0 1.185306,-0.399592 6.4967347,6.4967347 0 0 0 2.029388,-1.773469 z m 2.280816,0 a 4.5391837,4.5391837 0 0 1 -1.010204,1.939592 2.7657143,2.7657143 0 0 1 -0.615102,0.543265 1.0685714,1.0685714 0 0 0 0.44898,-0.246939 3.8073469,3.8073469 0 0 0 1.019183,-1.562449 3.102449,3.102449 0 0 0 0.166123,-0.673469 m 0.291836,-0.22449 a 0.44897959,0.44897959 0 0 0 -0.179591,0.148163 7.5114286,7.5114286 0 0 1 -0.22449,0.89796 4.355102,4.355102 0 0 1 -0.754286,1.248163 0.18857143,0.18857143 0 0 0 0.139184,0.0449 1.9440816,1.9440816 0 0 0 1.037143,-0.785714 z m -2.828571,-0.251428 a 10.914694,10.914694 0 0 0 -1.477143,0.897959 c -1.153877,0.731837 -2.298775,1.517551 -3.448163,1.863265 a 0.74081633,0.74081633 0 0 0 0.300816,0.05837 c 1.194286,0 3.847755,-2.146122 4.682857,-2.608571 -0.02245,-0.06286 -0.0449,-0.130204 -0.06286,-0.193061 m -0.03143,-0.139184 c -0.983266,0.44898 -1.971021,1.140408 -2.940817,1.692653 a 8.3869388,8.3869388 0 0 1 -2.63551,1.1 l -0.296326,0.04939 H 12.113469 L 11.906939,16.94 a 2.375102,2.375102 0 0 0 0.511837,0.121224 h 0.242448 a 2.8420408,2.8420408 0 0 0 0.700409,-0.125714 8.4138776,8.4138776 0 0 0 1.221224,-0.484898 c 1.059592,-0.534285 2.128163,-1.293061 3.178776,-1.948571 0.161632,-0.09878 0.64653,-0.359184 0.64653,-0.363674 z m 0,-0.381632 a 20.976327,20.976327 0 0 0 -3.174286,1.513061 18.857143,18.857143 0 0 1 -3.169796,1.423265 h 0.44898 l 0.300816,-0.04939 a 8.6697959,8.6697959 0 0 0 2.64449,-1.126938 25.906122,25.906122 0 0 1 2.940816,-1.679184 v -0.0898 z M 18.3004,13.437958 c -0.408571,0 -3.389796,1.445714 -3.865714,1.656735 A 16.190204,16.190204 0 0 1 10.577951,16.46857 H 10.38938 a 1.2122449,1.2122449 0 0 0 0.363673,0.0898 c 0,0 0.327755,0 0.395102,0 1.198776,-0.139183 2.406531,-0.790204 3.591837,-1.391836 1.185306,-0.601633 2.402041,-1.346939 3.591837,-1.724082 z m 0.924898,-1.522041 a 5.7693878,5.7693878 0 0 0 -1.665714,0.413062 15.39102,15.39102 0 0 0 -1.98898,0.897959 c -0.471428,0.255918 -0.933877,0.543265 -1.414285,0.785714 a 25.102449,25.102449 0 0 1 -5.0644903,2.042857 0.96530612,0.96530612 0 0 0 0.2783674,0.06735 h 0.4085714 a 19.858367,19.858367 0 0 0 4.2338775,-1.293061 c 1.293061,-0.493878 2.572653,-1.077551 3.865714,-1.616327 a 0.89795918,0.89795918 0 0 1 0.377143,-0.07633 0.41306122,0.41306122 0 0 1 0.44898,0.448979 v 0.44898 a 0.96081633,0.96081633 0 0 0 0.969796,0.897959 h 0.152653 a 2.244898,2.244898 0 0 0 1.472653,-0.785714 v -0.368163 a 3.0036735,3.0036735 0 0 1 -1.203265,0.574694 0.40408163,0.40408163 0 0 1 -0.408572,-0.44898 c 0,-0.484898 0.66449,-0.731837 0.66449,-1.117959 a 1.3065306,1.3065306 0 0 0 -0.02245,-0.260408 0.63306122,0.63306122 0 0 0 -0.237959,-0.44898 0.96081633,0.96081633 0 0 0 -0.498368,-0.161633 h -0.296326 z m 2.186531,-1.189796 a 0.53428571,0.53428571 0 1 0 0.534285,-0.534285 0.53428571,0.53428571 0 0 0 -0.534285,0.534285 m -0.318776,0 a 0.85306122,0.85306122 0 1 1 0.853061,0.853062 0.85306122,0.85306122 0 0 1 -0.853061,-0.853062 m 0.273878,19.961633 a 1.1628571,1.1628571 0 0 1 0.345714,0.345714 1.3828571,1.3828571 0 0 1 -0.408571,-0.273877 z m 0.318775,-0.125714 a 1.2840816,1.2840816 0 0 1 0.386123,0.395102 3.9106122,3.9106122 0 0 1 -0.44898,-0.314286 z m 0.336735,-0.09878 a 1.5265306,1.5265306 0 0 1 0.350204,0.404082 1.54,1.54 0 0 1 -0.413061,-0.327755 z m 0.287347,-0.08082 a 2.6130612,2.6130612 0 0 1 0.305306,0.377143 0.9922449,0.9922449 0 0 1 -0.377143,-0.309796 z m 0.246939,-0.09429 A 2.244898,2.244898 0 0 1 22.848571,30.642857 0.89795918,0.89795918 0 0 1 22.489388,30.36 Z m 2.244898,-11.897959 a 0.44897959,0.44897959 0 0 1 0.193061,0.05388 0.40857143,0.40857143 0 0 1 0.296326,0.413061 2.4155102,2.4155102 0 0 0 -0.722857,-0.386123 0.86653061,0.86653061 0 0 1 0.237959,-0.08082 m -5.886122,0 a 0.70938776,0.70938776 0 0 1 0.233469,0.08082 1.4412245,1.4412245 0 0 0 -0.713877,0.507347 A 0.52081633,0.52081633 0 0 1 18.92,18.390204 m 11.799184,11.552245 v 0.139184 h 0.448979 a 4.9073469,4.9073469 0 0 1 1.795919,0.448979 3.2730612,3.2730612 0 0 0 -1.795919,-0.601632 z m 0,-7.632653 v 7.417143 h 0.448979 a 4.1755102,4.1755102 0 0 1 1.697143,0.448979 z m 0,-0.794694 2.505306,9.316327 a 0.44897959,0.44897959 0 0 1 -0.05837,0.166122 0.69591837,0.69591837 0 0 1 -0.184081,0.188571 3.4930612,3.4930612 0 0 1 -1.566939,0.404082 H 31.105306 30.530612 V 21.528571 Z m -0.538776,8.413878 h -0.341224 a 4.2563265,4.2563265 0 0 0 -1.387347,0.264898 C 28.308163,30.256735 27.94,30.324082 27.94,30.606939 a 3.9959184,3.9959184 0 0 1 1.795918,-0.525306 h 0.44898 v -0.134694 z m -0.02245,-7.574286 -2.069796,7.789796 a 4.2563265,4.2563265 0 0 1 1.620817,-0.413061 h 0.493877 v -7.385715 h -0.02245 z m 0.02694,-0.839592 h 0.193061 V 31.599184 L 29.48,31.567755 A 3.6187755,3.6187755 0 0 1 27.913061,31.163673 0.51183673,0.51183673 0 0 1 27.661633,30.80898 l 0.134694,-0.498368 z m -16.365306,8.382449 v 0.157143 h 0.448979 a 4.422449,4.422449 0 0 1 1.795919,0.498367 0.25591837,0.25591837 0 0 0 -0.04041,-0.143673 3.3359184,3.3359184 0 0 0 -1.746531,-0.520817 z m 0,-7.556327 v 7.354286 h 0.448979 a 4.3685714,4.3685714 0 0 1 1.656735,0.44898 z m 0,-0.835102 2.505306,9.316327 a 0.51632653,0.51632653 0 0 1 -0.05837,0.166122 0.73183673,0.73183673 0 0 1 -0.184082,0.188572 3.4795918,3.4795918 0 0 1 -1.566939,0.404081 H 14.205714 13.63102 V 21.528571 Z m -0.538776,8.382449 h -0.377143 a 4.4269388,4.4269388 0 0 0 -1.328979,0.255919 c -0.188572,0.07184 -0.529796,0.175102 -0.534286,0.448979 a 4.0408163,4.0408163 0 0 1 1.795919,-0.520816 h 0.42204 v -0.166122 z m 0,-7.596734 -2.105714,7.852653 a 4.2069388,4.2069388 0 0 1 1.643265,-0.426531 h 0.44898 v -7.421632 z m 0,-0.790204 h 0.193062 v 10.084081 l -0.89796,-0.03143 a 3.5244898,3.5244898 0 0 1 -1.566938,-0.40408 0.82163265,0.82163265 0 0 1 -0.193062,-0.193061 0.55673469,0.55673469 0 0 1 -0.05388,-0.161633 l 0.134694,-0.493877 z M 9.4779592,37.18449 10.209796,36.344898 9.944898,36.111429 C 9.5453061,35.761224 9.2220408,35.738776 8.9616327,36.044082 8.777551,36.255102 8.7371429,36.537959 9.1053061,36.861224 Z M 12.023673,35.083265 9.5677551,37.884898 8.755102,37.17102 C 8.1489796,36.641224 8.2073469,36.053061 8.5171429,35.698367 a 0.81714286,0.81714286 0 0 1 0.9608163,-0.233469 0.97877551,0.97877551 0 0 1 -0.031429,-1.32 c 0.3008163,-0.341225 0.8979598,-0.520816 1.6163268,0.09429 z m -1.490612,0.897959 0.772245,-0.897959 -0.507347,-0.448979 C 10.326531,34.221224 9.9942857,34.342449 9.8102041,34.553469 9.6261224,34.76449 9.6261224,35.164082 10.048163,35.532245 Z M 8.1220408,33.996735 a 1.4502041,1.4502041 0 1 0 -2.002449,-0.323266 1.3963265,1.3963265 0 0 0 2.002449,0.323266 m 0.3277551,0.448979 a 2.002449,2.002449 0 1 1 0.3591837,-2.734285 1.9081633,1.9081633 0 0 1 -0.3591837,2.734285 m -1.6657143,-5.06 -0.7004081,-1.53102 0.4489796,-0.202041 0.9114285,2.042857 -3.3897959,1.54898 -0.2244898,-0.489388 z M 3.1608163,26.444898 a 1.2526531,1.2526531 0 0 0 -0.1302041,0.947347 0.50734694,0.50734694 0 0 0 0.5881633,0.448979 c 0.6869388,-0.197551 0.2334694,-1.74204 1.3738776,-2.069795 a 0.99673469,0.99673469 0 0 1 1.2571428,0.722857 1.6297959,1.6297959 0 0 1 -0.044898,1.09551 l -0.6510204,0.188571 a 1.2526531,1.2526531 0 0 0 0.2469387,-1.09551 0.52979592,0.52979592 0 0 0 -0.615102,-0.448979 C 4.444898,26.444898 4.8040816,28.029796 3.8387755,28.299184 A 1.0012245,1.0012245 0 0 1 2.5681633,27.486531 1.4816327,1.4816327 0 0 1 2.595102,26.61551 Z M 2.7567347,24.033878 4.157551,24.451429 4.0408163,23.297551 Z m -0.835102,-0.112245 3.5604081,-2.038368 0.053878,0.543266 -1.0416327,0.606122 0.1616327,1.575918 1.1404081,0.354694 0.053878,0.543266 -3.8926531,-1.212245 z m 0.6061224,-4.880409 2.6938776,0.565715 0.175102,-0.835102 A 1.3469388,1.3469388 0 0 0 4.3506122,17.029796 C 3.6187755,16.877143 2.9004082,17.213878 2.684898,18.233061 Z M 5.5942857,20.23102 1.9485714,19.467755 2.244898,18.053469 A 1.8453061,1.8453061 0 0 1 4.4897959,16.49551 1.8812245,1.8812245 0 0 1 5.9085714,18.812245 Z M 4.3595918,13.240408 3.74,14.690612 l 1.0371429,0.44898 0.5971428,-1.400816 0.4489796,0.188571 -0.6061224,1.400816 1.0640816,0.44898 0.637551,-1.495102 0.4489796,0.188571 -0.8485714,1.98898 -3.4257143,-1.463674 0.8306122,-1.944081 z M 8.0142857,8.593469 A 2.4469388,2.4469388 0 0 0 6.9053061,9.343265 1.4187755,1.4187755 0 0 0 7.0804082,11.395102 1.3963265,1.3963265 0 0 0 9.1277551,11.112245 2.4379592,2.4379592 0 0 0 9.6216327,9.837143 l 0.4489793,0.368163 A 2.7297959,2.7297959 0 0 1 9.4779592,11.462449 1.9036735,1.9036735 0 0 1 6.7840816,11.857551 1.9395918,1.9395918 0 0 1 6.5416327,9.033469 3.2191837,3.2191837 0 0 1 7.5832653,8.229796 Z M 9.7697959,8.346531 A 1.4502041,1.4502041 0 1 0 10.061633,6.339592 1.3918367,1.3918367 0 0 0 9.7697959,8.346531 M 9.3208163,8.678776 A 2.002449,2.002449 0 1 1 12.059592,8.997551 1.9081633,1.9081633 0 0 1 9.3208163,8.678776 M 17.209388,6.209388 16.71551,6.415918 15.588571,3.722041 15.081224,5.517959 13.370612,4.678367 14.488571,7.372245 13.994694,7.578776 12.54898,4.144082 12.997959,3.95102 14.73102,4.880408 15.278776,2.990204 15.727755,2.797143 Z m 2.042857,-3.699592 -1.54898,0.305306 0.22,1.10449 1.495102,-0.300816 0.103266,0.484897 L 18.026531,4.4 18.25551,5.535918 19.853878,5.217143 19.948158,5.666122 17.824485,6.088163 17.097138,2.433469 19.171424,2.020408 Z m 1.54449,-0.152653 0.03143,1.167347 h 0.345715 c 0.574693,0 0.731836,-0.314286 0.718367,-0.624082 -0.01347,-0.309796 -0.22898,-0.556735 -0.745306,-0.543265 z m -0.547755,-0.44898 0.938367,-0.02694 c 0.749796,0 1.234694,0.372654 1.248163,1.014694 a 0.92938776,0.92938776 0 0 1 -0.601632,0.924898 3.057551,3.057551 0 0 1 0.853061,1.010204 c 0.166122,0.251429 0.260408,0.377143 0.525306,0.722858 H 22.574694 L 22.062857,4.799592 C 21.55102,4.049796 21.326531,3.96449 21.052653,3.973469 h -0.22449 l 0.03592,1.616327 H 20.329797 Z M 27.077959,3.30898 A 2.4559184,2.4559184 0 0 0 25.883673,2.698367 1.4187755,1.4187755 0 0 0 24.168571,3.834286 1.3918367,1.3918367 0 0 0 25.398776,5.49551 2.4334694,2.4334694 0 0 0 26.745714,5.315918 l -0.08531,0.583674 a 2.7208163,2.7208163 0 0 1 -1.387347,0.08082 1.9036735,1.9036735 0 0 1 -1.643265,-2.18653 1.9440816,1.9440816 0 0 1 2.361633,-1.566939 3.2146939,3.2146939 0 0 1 1.203265,0.529796 z M 27.567347,6.568571 27.06,6.393469 28.272245,2.86898 28.779592,3.044082 Z M 29.47102,5.27102 A 1.4502041,1.4502041 0 1 0 31.424082,4.718776 1.3963265,1.3963265 0 0 0 29.47102,5.27102 M 28.986122,5.006122 a 2.002449,2.002449 0 1 1 0.821633,2.631021 1.9081633,1.9081633 0 0 1 -0.821633,-2.631021 m 6.83347,2.990205 -2.047347,1.858775 0.574694,0.633061 a 1.3693878,1.3693878 0 0 0 2.024898,0.175102 c 0.552245,-0.502857 0.704898,-1.279592 0,-2.051836 z M 33.053878,9.792245 35.815102,7.286939 36.789388,8.36 a 1.8453061,1.8453061 0 0 1 -0.0449,2.720816 1.8857143,1.8857143 0 0 1 -2.693878,-0.21102 z m 6.393469,3.106939 -0.812653,-1.346939 -0.965306,0.579184 0.785714,1.30653 -0.413061,0.246939 -0.785714,-1.306531 -0.987756,0.583674 0.839592,1.391837 -0.413061,0.246938 -1.113469,-1.854285 3.192245,-1.917143 1.08653,1.795918 z m 1.270612,3.021632 -1.122449,0.323266 0.09429,0.332245 c 0.157143,0.552244 0.484898,0.628571 0.781224,0.534285 0.296327,-0.09428 0.480409,-0.359183 0.341225,-0.857551 z m 0.291837,-0.64204 0.260408,0.897959 c 0.21102,0.727347 -0.0449,1.288571 -0.66449,1.463673 a 0.93387755,0.93387755 0 0 1 -1.046122,-0.345714 3.0036735,3.0036735 0 0 1 -0.763265,1.082041 C 38.594286,18.601224 38.5,18.722449 38.226122,19.068163 l -0.184081,-0.597143 0.601632,-0.682449 c 0.597143,-0.682449 0.619592,-0.924898 0.547756,-1.185306 l -0.06286,-0.21551 -1.553469,0.44898 -0.148163,-0.516327 z m -0.897959,3.937551 a 1.4502041,1.4502041 0 1 0 1.52653,1.346938 1.3963265,1.3963265 0 0 0 -1.52653,-1.346938 m -0.04041,-0.552245 a 2.0069388,2.0069388 0 1 1 -1.76,2.123673 1.9126531,1.9126531 0 0 1 1.76,-2.123673 m 0.974285,6.703265 a 1.2481633,1.2481633 0 0 0 0.493878,-0.817143 0.51183673,0.51183673 0 0 0 -0.363674,-0.642041 c -0.709387,-0.08531 -0.897959,1.513061 -2.074285,1.346939 A 0.99673469,0.99673469 0 0 1 38.226122,24.092245 1.6567347,1.6567347 0 0 1 38.675102,23.1 l 0.673469,0.08531 a 1.2616327,1.2616327 0 0 0 -0.66,0.897959 0.53877551,0.53877551 0 0 0 0.390613,0.66 c 0.763265,0.09878 1.050612,-1.495102 2.065306,-1.346938 A 1.0012245,1.0012245 0 0 1 41.988571,24.64 1.4816327,1.4816327 0 0 1 41.624898,25.430204 Z m -0.574694,2.379592 -1.122449,-0.933878 -0.354693,1.086531 z m 0.722858,0.448979 -4.072245,0.475919 0.161632,-0.520817 1.194286,-0.148163 0.471429,-1.513061 -0.89796,-0.776735 0.161633,-0.520816 3.097959,2.64449 z m -1.611837,2.693878 -1.023674,-0.565714 -0.166122,0.300816 c -0.273878,0.502857 -0.09429,0.785714 0.179592,0.933878 0.273877,0.148163 0.592653,0.08531 0.844081,-0.368164 z m 0.66,-0.251429 -0.44898,0.826123 c -0.359183,0.66 -0.938367,0.897959 -1.504081,0.570204 a 0.93387755,0.93387755 0 0 1 -0.498368,-0.987755 3.0171429,3.0171429 0 0 1 -1.302041,0.228979 c -0.300816,0 -0.448979,0.03592 -0.897959,0.0898 l 0.309796,-0.561224 0.897959,-0.06286 c 0.89796,-0.06286 1.091021,-0.22 1.225715,-0.44898 l 0.107755,-0.193061 -1.414286,-0.803674 0.255918,-0.448979 z m -5.199184,1.346939 0.318776,-0.448979 2.999183,2.213469 -0.318775,0.44898 z m 0.66898,2.20449 a 1.4502041,1.4502041 0 1 0 -0.05837,2.029388 1.4008163,1.4008163 0 0 0 0.05837,-2.029388 m 0.399592,-0.381633 a 2.0069388,2.0069388 0 1 1 -2.761225,0 1.9081633,1.9081633 0 0 1 2.761225,0 m -7.673062,5.675102 a 18.69102,18.69102 0 0 1 -12.836326,0 l 0.09429,-0.255918 a 18.408163,18.408163 0 0 0 12.647755,0 z"
     class="cls-1" />
  <path
     style="fill:#041e41;stroke-width:0.44897959"
     id="path10"
     d="m 53.554286,8.732653 a 1.32,1.32 0 0 0 -0.399592,0.06286 0.22,0.22 0 0 0 -0.112245,0.197551 23.077551,23.077551 0 0 0 0,2.487347 0.35469388,0.35469388 0 0 0 0.336735,0.125714 3.9106122,3.9106122 0 0 0 1.346938,-0.197551 1.3963265,1.3963265 0 0 0 0.561225,-1.216734 c 0,-0.745306 -0.484898,-1.454694 -1.75551,-1.454694 m 0.22449,3.344898 a 2.9453061,2.9453061 0 0 0 -0.583674,0.06286 0.52979592,0.52979592 0 0 0 -0.161633,0.296326 14.933061,14.933061 0 0 0 0.04939,2.325715 c 0.09878,0.448979 0.808163,0.745306 1.032653,0.745306 a 1.8722449,1.8722449 0 0 0 1.391837,-0.731837 2.4738776,2.4738776 0 0 0 0.260408,-1.032653 c 0,-1.167347 -0.933877,-1.665714 -1.988979,-1.665714 m 2.289795,-0.956327 a 2.3212245,2.3212245 0 0 1 -0.709387,0.44898 0.15265306,0.15265306 0 0 0 0.07633,0.161633 2.0832653,2.0832653 0 0 1 1.616327,1.890204 2.1595918,2.1595918 0 0 1 -1.531021,2.087755 4.884898,4.884898 0 0 1 -1.692653,0.287347 c -0.785714,0 -1.441224,-0.04939 -1.939592,-0.06286 -0.42204,0 -0.64653,0.02245 -0.897959,0.02245 a 0.38612245,0.38612245 0 0 1 -0.408571,-0.21102 c 0,-0.184082 0.148163,-0.246939 0.471428,-0.323265 0.498368,-0.112245 0.758776,-0.134694 0.821633,-0.808163 a 27.72449,27.72449 0 0 0 0.04939,-3.008164 c 0,-0.668979 0,-1.827347 -0.02694,-2.2 C 51.848159,9.037959 51.726939,8.876327 51.04,8.79102 A 0.31877551,0.31877551 0 0 1 50.730204,8.530612 c 0,-0.125714 0.175102,-0.197551 0.484898,-0.197551 h 0.633061 c 0.44898,0 1.221225,-0.08531 2.051837,-0.08531 a 2.9677551,2.9677551 0 0 1 1.840816,0.498367 1.7195918,1.7195918 0 0 1 0.67347,1.346939 1.4187755,1.4187755 0 0 1 -0.386123,1.032653"
     class="cls-1" />
  <path
     style="fill:#041e41;stroke-width:0.44897959"
     id="path12"
     d="m 60.625714,9.343265 a 3.7085714,3.7085714 0 0 0 -0.920408,2.662449 c 0,1.742041 1.158367,3.591837 3.057551,3.591837 a 2.244898,2.244898 0 0 0 1.531021,-0.574694 c 0.498367,-0.471428 0.956326,-1.378367 0.956326,-2.895918 0,-1.76449 -1.158367,-3.52 -2.999184,-3.52 a 2.595102,2.595102 0 0 0 -1.629796,0.722857 m 5.993878,2.747755 A 4.0946939,4.0946939 0 0 1 64.549796,15.61102 4.377551,4.377551 0 0 1 62.47102,16.131837 3.9869388,3.9869388 0 0 1 59.462857,9.397143 4.444898,4.444898 0 0 1 62.47102,8.104082 3.9869388,3.9869388 0 0 1 66.615102,12.09551"
     class="cls-1" />
  <path
     style="fill:#041e41;stroke-width:0.44897959"
     id="path14"
     d="m 67.885714,8.274694 c 0.06286,0 0.844082,0.04939 1.346939,0.04939 0.502857,0 1.068571,-0.04939 1.32,-0.04939 0.251429,0 0.359184,0.07633 0.359184,0.22449 a 0.37265306,0.37265306 0 0 1 -0.336735,0.260408 c -0.561224,0.112245 -0.731837,0.246939 -0.785714,0.64653 a 22.951837,22.951837 0 0 0 -0.04939,2.375102 30.337551,30.337551 0 0 0 0.07633,3.142858 0.64204082,0.64204082 0 0 0 0.498367,0.448979 5.7469388,5.7469388 0 0 0 1.692653,0 1.935102,1.935102 0 0 0 1.180816,-1.167347 0.44897959,0.44897959 0 0 1 0.287347,-0.309796 0.37265306,0.37265306 0 0 1 0.211021,0.386123 7.7134694,7.7134694 0 0 1 -0.399592,1.418775 0.56122449,0.56122449 0 0 1 -0.547755,0.287347 c -0.44898,0 -1.966531,-0.06286 -3.506531,-0.06286 -0.844082,0 -1.293061,0.07633 -1.566939,0.07633 -0.273877,0 -0.417551,-0.116735 -0.417551,-0.22449 a 0.39510204,0.39510204 0 0 1 0.350204,-0.287347 c 0.821633,-0.197551 0.89796,-0.44898 0.942857,-0.722857 0.02245,-0.148163 0.04939,-1.032653 0.04939,-2.514286 0,-2.244898 -0.02694,-2.487347 -0.04939,-2.824082 -0.03592,-0.408571 -0.246938,-0.534285 -0.66,-0.66 -0.273877,-0.08531 -0.359183,-0.161632 -0.359183,-0.296326 a 0.30530612,0.30530612 0 0 1 0.350204,-0.197551"
     class="cls-1" />
  <path
     style="fill:#041e41;stroke-width:0.44897959"
     id="path16"
     d="m 78.742041,8.400408 a 0.42204082,0.42204082 0 0 1 0.161632,0.350204 c 0,0.148164 0.04939,0.709388 0.04939,0.897959 0,0.260409 -0.09878,0.422041 -0.260408,0.422041 A 0.40408163,0.40408163 0 0 1 78.481635,9.783265 1.4546939,1.4546939 0 0 0 76.964084,8.602449 1.2212245,1.2212245 0 0 0 75.73388,9.819184 c 0,0.731836 0.309795,1.104489 1.405306,1.74204 1.230204,0.709388 2.029387,1.293062 2.029387,2.464898 a 2.0473469,2.0473469 0 0 1 -0.956326,1.652245 3.542449,3.542449 0 0 1 -1.706123,0.471429 4.1126531,4.1126531 0 0 1 -1.795918,-0.44898 0.61510204,0.61510204 0 0 1 -0.175102,-0.246938 2.9453061,2.9453061 0 0 1 -0.197551,-1.10898 c 0,-0.273878 0.112245,-0.399592 0.21102,-0.399592 a 0.35469388,0.35469388 0 0 1 0.300817,0.309796 2.0922449,2.0922449 0 0 0 1.926122,1.346939 1.2616327,1.2616327 0 0 0 1.257143,-1.279592 c 0,-0.610612 -0.350204,-0.996735 -1.679184,-1.827347 -0.736326,-0.44898 -1.652245,-1.144898 -1.652245,-2.339184 A 1.9889796,1.9889796 0 0 1 75.697959,8.463265 3.0216327,3.0216327 0 0 1 77.22898,8.063673 6.0657143,6.0657143 0 0 1 78.773469,8.36"
     class="cls-1" />
  <path
     style="fill:#041e41;stroke-width:0.44897959"
     id="path18"
     d="m 84.673061,12.279592 a 26.292245,26.292245 0 0 0 -0.897959,-2.473878 0.08530612,0.08530612 0 0 0 -0.161633,0 c -0.273877,0.67347 -0.633061,1.652245 -0.897959,2.473878 a 0.09428571,0.09428571 0 0 0 0.08531,0.125714 18.111837,18.111837 0 0 0 1.840817,0 0.08979592,0.08979592 0 0 0 0.04939,-0.125714 m 0.02694,-2.999184 c 0.633061,1.795919 1.692653,4.489796 1.97551,5.262041 0.260409,0.646531 0.350204,0.709388 1.032653,0.947347 a 0.42204082,0.42204082 0 0 1 0.372654,0.359184 0.26489796,0.26489796 0 0 1 -0.296327,0.134693 c -0.66,0 -1.131429,-0.06286 -1.742041,-0.06286 -0.610612,0 -0.561224,0.02245 -0.956326,0.02245 -0.23796,0 -0.350204,-0.07633 -0.350204,-0.161632 a 0.3277551,0.3277551 0 0 1 0.287346,-0.296327 c 0.583674,-0.175102 0.633062,-0.260408 0.511837,-0.709388 -0.08531,-0.345714 -0.408571,-1.180816 -0.561224,-1.553469 a 0.37714286,0.37714286 0 0 0 -0.323266,-0.175102 c -0.246938,0 -1.74204,0 -2.128163,0.02245 A 0.33673469,0.33673469 0 0 0 82.342857,13.244898 10.968571,10.968571 0 0 0 81.83102,14.96 c 0,0.161633 0.02694,0.336735 0.619592,0.520816 a 0.29632653,0.29632653 0 0 1 0.273878,0.197551 0.35020408,0.35020408 0 0 1 -0.422041,0.273878 c -0.139184,0 -0.673469,-0.03592 -1.032653,-0.03592 -0.359184,0 -0.646531,0.06286 -1.117959,0.06286 -0.22449,0 -0.408572,-0.04939 -0.422041,-0.184082 a 0.39061224,0.39061224 0 0 1 0.372653,-0.309796 1.2436735,1.2436735 0 0 0 0.956327,-0.695918 c 0.386122,-0.821633 1.692653,-4.103674 2.298775,-5.72 a 1.737551,1.737551 0 0 0 0.08531,-0.350204 0.26040816,0.26040816 0 0 1 0.08531,-0.134694 c 0.139184,-0.09878 0.323266,-0.237959 0.44898,-0.350204 a 0.53428571,0.53428571 0 0 1 0.260408,-0.134694 c 0.125714,0 0.188571,0.350204 0.471429,1.180816"
     class="cls-1" />
  <path
     style="fill:#041e41;stroke-width:0.44897959"
     id="path20"
     d="m 53.356735,19.13551 a 0.44897959,0.44897959 0 0 0 -0.211021,0.246939 c 0,0.323265 -0.03592,1.293061 -0.03592,2.244898 v 0.835102 a 14.942041,14.942041 0 0 0 0.07633,2.2 1.0865306,1.0865306 0 0 0 0.422041,0.821633 3.1697959,3.1697959 0 0 0 1.144898,0.287347 3.8118367,3.8118367 0 0 0 1.966531,-0.89796 3.4346939,3.4346939 0 0 0 0.920408,-2.514285 3.3404082,3.3404082 0 0 0 -0.933878,-2.43796 3.6591837,3.6591837 0 0 0 -2.460408,-0.897959 4.8714286,4.8714286 0 0 0 -0.897959,0.125715 m 4.305714,0.386122 a 3.5918367,3.5918367 0 0 1 1.279592,2.797143 3.7220408,3.7220408 0 0 1 -1.854285,3.308979 6.2857143,6.2857143 0 0 1 -2.87347,0.66 c -0.511837,0 -1.643265,-0.09878 -2.038367,-0.09878 -0.395102,0 -1.117959,0.06286 -1.391837,0.06286 a 0.20204082,0.20204082 0 0 1 -0.197551,-0.161633 0.51183673,0.51183673 0 0 1 0.44898,-0.372653 c 0.359183,-0.09878 0.785714,-0.21102 0.844081,-0.772244 0.05837,-0.561225 0.08531,-1.207756 0.08531,-2.846531 a 19.086122,19.086122 0 0 0 -0.07633,-2.550204 c -0.02694,-0.134694 -0.09878,-0.359184 -0.772245,-0.44898 a 0.44897959,0.44897959 0 0 1 -0.44898,-0.273877 c 0,-0.134694 0.188572,-0.23796 0.511837,-0.23796 h 1.019184 c 0.448979,0 1.30653,-0.09878 2.177551,-0.09878 A 4.884898,4.884898 0 0 1 57.64,19.535102"
     class="cls-1" />
  <path
     style="fill:#041e41;stroke-width:0.44897959"
     id="path22"
     d="m 62.92898,18.587755 c 1.108979,0 1.481632,-0.04939 1.795918,-0.04939 a 0.29632653,0.29632653 0 0 1 0.287347,0.112245 5.7828571,5.7828571 0 0 1 0.197551,1.279592 0.31877551,0.31877551 0 0 1 -0.21102,0.300816 c -0.148164,0 -0.260409,-0.161632 -0.534286,-0.695918 a 0.61959184,0.61959184 0 0 0 -0.44898,-0.408571 c -0.709388,0 -1.679183,0.02694 -1.854286,0.02694 a 0.44897959,0.44897959 0 0 0 -0.134693,0.22449 c -0.03592,0.350204 -0.04939,1.481633 -0.04939,2.339184 a 0.36816327,0.36816327 0 0 0 0.161633,0.350204 c 0.112244,0 0.610612,0 0.808163,0 0.821632,-0.03592 0.969796,-0.175102 1.108979,-0.534286 0.09878,-0.260408 0.175102,-0.359183 0.296327,-0.359183 0.121224,0 0.22449,0.175102 0.197551,0.498367 0,0.134694 -0.03592,0.372653 -0.03592,0.597143 0,0.22449 0,0.633061 0.02694,0.835102 0.02694,0.323265 -0.125714,0.408571 -0.197551,0.408571 a 0.36367347,0.36367347 0 0 1 -0.296326,-0.309796 c -0.125715,-0.359183 -0.22449,-0.484898 -0.484898,-0.511836 -0.511837,-0.03592 -0.857551,-0.03592 -1.418776,-0.03592 a 0.38163265,0.38163265 0 0 0 -0.161632,0.309796 c 0,1.158367 0.02694,1.566939 0.03592,1.840816 a 1.3469388,1.3469388 0 0 0 0.148163,0.646531 c 0.112245,0.09878 0.471429,0.246939 1.432245,0.246939 a 2.6938776,2.6938776 0 0 0 0.942857,-0.09878 1.5444898,1.5444898 0 0 0 0.808164,-0.731836 c 0.197551,-0.336735 0.287347,-0.484898 0.448979,-0.484898 0.161633,0 0.188572,0.323265 0.139184,0.561224 a 6.8783673,6.8783673 0 0 1 -0.386123,1.068572 0.57469388,0.57469388 0 0 1 -0.408571,0.251428 c -0.511837,0 -0.857551,-0.06286 -3.142857,-0.06286 -0.785714,0 -1.593878,0.06286 -2.128163,0.06286 -0.309796,0 -0.44898,-0.04939 -0.44898,-0.148163 a 0.44897959,0.44897959 0 0 1 0.408571,-0.336735 c 0.794694,-0.188571 0.933878,-0.300816 0.969796,-0.772245 a 10.806939,10.806939 0 0 0 0.04939,-1.270612 c 0,-1.917143 -0.02694,-3.906122 -0.06286,-4.130612 C 60.751429,19.220816 60.5,19.122041 60.006122,18.996327 a 0.38612245,0.38612245 0 0 1 -0.336734,-0.260409 0.27836735,0.27836735 0 0 1 0.336734,-0.197551 c 0.211021,0 0.844082,0.06286 1.665715,0.06286 h 1.279592 z"
     class="cls-1" />
  <path
     style="fill:#041e41;stroke-width:0.44897959"
     id="path24"
     d="m 74.880816,18.601224 a 8.1983673,8.1983673 0 0 0 0.808164,0.22449 0.27387755,0.27387755 0 0 1 0.188571,0.197551 c 0,0.22449 0.06286,0.969796 0.06286,1.279592 0,0.309796 -0.139184,0.484898 -0.287347,0.484898 a 0.42204082,0.42204082 0 0 1 -0.246939,-0.359184 1.6567347,1.6567347 0 0 0 -0.857551,-1.194285 3.0755102,3.0755102 0 0 0 -1.468163,-0.336735 2.9857143,2.9857143 0 0 0 -1.867755,0.731837 3.7085714,3.7085714 0 0 0 -1.046122,2.572653 4.4897959,4.4897959 0 0 0 0.731836,2.375102 3.3134694,3.3134694 0 0 0 2.451429,1.243673 3.8118367,3.8118367 0 0 0 1.346939,-0.336734 2.464898,2.464898 0 0 0 0.682449,-0.794694 c 0.197551,-0.399592 0.300816,-0.561225 0.42204,-0.561225 a 0.35918367,0.35918367 0 0 1 0.22449,0.422041 c 0,0.112245 -0.21102,0.897959 -0.287347,1.167347 A 0.95183673,0.95183673 0 0 1 75.513878,25.977959 7.3273469,7.3273469 0 0 1 73.201633,26.4 a 4.4897959,4.4897959 0 0 1 -3.380817,-1.293061 3.9689796,3.9689796 0 0 1 -0.996734,-2.64898 3.8702041,3.8702041 0 0 1 1.715102,-3.308979 4.862449,4.862449 0 0 1 2.824081,-0.794694 5.8367347,5.8367347 0 0 1 1.531021,0.237959"
     class="cls-1" />
  <path
     style="fill:#041e41;stroke-width:0.44897959"
     id="path26"
     d="m 79.437959,19.606939 a 3.7085714,3.7085714 0 0 0 -0.920408,2.662449 c 0,1.742041 1.158367,3.591836 3.057551,3.591836 a 2.244898,2.244898 0 0 0 1.53102,-0.574693 c 0.498368,-0.471429 0.956327,-1.378368 0.956327,-2.895919 0,-1.76449 -1.158367,-3.52 -2.999184,-3.52 a 2.595102,2.595102 0 0 0 -1.629796,0.722857 m 5.993878,2.747755 a 4.0946939,4.0946939 0 0 1 -2.065306,3.53347 4.377551,4.377551 0 0 1 -2.078776,0.520816 3.9869388,3.9869388 0 0 1 -3.008163,-6.734694 4.444898,4.444898 0 0 1 3.008163,-1.293061 3.9869388,3.9869388 0 0 1 4.144082,3.991429"
     class="cls-1" />
  <path
     style="fill:#041e41;stroke-width:0.44897959"
     id="path28"
     d="m 86.935918,18.538367 c 0.309796,0 1.652245,0.04939 1.728572,0.04939 a 0.3277551,0.3277551 0 0 1 0.21102,0.175102 11.790204,11.790204 0 0 0 0.44898,1.09551 c 0.273877,0.633062 1.728571,3.668164 2.087755,4.341633 0.02694,0.04939 0.09878,0.03592 0.175102,-0.112245 l 2.150612,-4.292245 a 8.0816327,8.0816327 0 0 0 0.44898,-1.019183 0.30979592,0.30979592 0 0 1 0.22449,-0.184082 c 0.21102,0 1.207755,-0.06286 1.602857,-0.06286 a 0.35918367,0.35918367 0 0 1 0.399592,0.237959 c 0,0.112245 -0.07633,0.175102 -0.386123,0.246939 -0.745306,0.161632 -0.920408,0.386122 -0.920408,0.597143 0,2.015918 0.08531,4.144081 0.134694,4.974693 0.03592,0.89796 0.273877,1.005715 0.785714,1.180817 a 0.44897959,0.44897959 0 0 1 0.386123,0.273877 c 0,0.125715 -0.125715,0.22449 -0.359184,0.22449 -0.148163,0 -1.346939,-0.07633 -1.665714,-0.07633 -0.318776,0 -0.610613,0.03592 -0.89796,0.03592 a 0.34571429,0.34571429 0 0 1 -0.386122,-0.21102 0.44897959,0.44897959 0 0 1 0.422041,-0.287347 c 0.448979,-0.125715 0.520816,-0.260409 0.534285,-0.947347 0,-0.323266 0,-3.048572 0,-4.242857 0,-0.08531 -0.134693,-0.02245 -0.148163,0 -0.260408,0.471428 -1.602857,3.371836 -1.795918,3.757959 -0.148163,0.309796 -0.534286,1.180816 -0.66,1.54 a 0.53877551,0.53877551 0 0 1 -0.44898,0.448979 0.63306122,0.63306122 0 0 1 -0.309796,-0.422041 c -0.148163,-0.323265 -0.511836,-1.346938 -0.633061,-1.665714 -0.448979,-1.131428 -1.243673,-2.725306 -1.602857,-3.591837 0,0 -0.112245,-0.112244 -0.125714,0 -0.112245,1.095511 -0.22449,3.555919 -0.22449,4.19347 0,0.745306 0.161633,0.821633 0.745306,0.969796 0.287347,0.06286 0.336735,0.175102 0.336735,0.287347 a 0.35469388,0.35469388 0 0 1 -0.399592,0.21102 c -0.175102,0 -0.610612,-0.03592 -0.969796,-0.03592 -0.359184,0 -1.194286,0.06286 -1.346939,0.06286 -0.237959,0 -0.399592,-0.06286 -0.399592,-0.22449 0,-0.161633 0.08531,-0.197551 0.386123,-0.273877 a 1.0685714,1.0685714 0 0 0 0.897959,-0.956327 c 0.148163,-0.857551 0.44898,-4.489796 0.44898,-4.799592 0,-0.709388 -0.125715,-0.844081 -0.942858,-0.996735 a 0.35020408,0.35020408 0 0 1 -0.336734,-0.197551 0.36816327,0.36816327 0 0 1 0.359183,-0.260408"
     class="cls-1" />
  <path
     style="fill:#041e41;stroke-width:0.44897959"
     id="path30"
     d="m 100.37388,18.587755 c 1.10449,0 1.48163,-0.04939 1.79592,-0.04939 a 0.29183673,0.29183673 0 0 1 0.28734,0.112245 5.7514286,5.7514286 0 0 1 0.19755,1.279592 0.31877551,0.31877551 0 0 1 -0.21102,0.300816 c -0.14816,0 -0.2604,-0.161632 -0.53428,-0.695918 a 0.61959184,0.61959184 0 0 0 -0.44898,-0.408571 c -0.70939,0 -1.679186,0.02694 -1.854288,0.02694 a 0.44897959,0.44897959 0 0 0 -0.134693,0.22449 c -0.03592,0.350204 -0.04939,1.481633 -0.04939,2.339184 a 0.36816327,0.36816327 0 0 0 0.161632,0.350204 c 0.112245,0 0.610619,0 0.808169,0 0.82163,-0.03592 0.96979,-0.175102 1.10449,-0.534286 0.0988,-0.260408 0.1751,-0.359183 0.29632,-0.359183 0.12123,0 0.22449,0.175102 0.19755,0.498367 0,0.134694 -0.0359,0.372653 -0.0359,0.597143 0,0.22449 0,0.633061 0.0269,0.835102 0.0269,0.323265 -0.12571,0.408571 -0.19755,0.408571 a 0.36367347,0.36367347 0 0 1 -0.29632,-0.309796 c -0.12572,-0.359183 -0.22449,-0.484898 -0.4849,-0.511836 -0.51184,-0.03592 -0.85755,-0.03592 -1.418779,-0.03592 a 0.38163265,0.38163265 0 0 0 -0.161632,0.309796 c 0,1.158367 0.02694,1.566939 0.03592,1.840816 a 1.3469388,1.3469388 0 0 0 0.148163,0.646531 c 0.112245,0.09878 0.471428,0.246939 1.432248,0.246939 a 2.6938776,2.6938776 0 0 0 0.94734,-0.09878 1.5444898,1.5444898 0 0 0 0.80817,-0.731836 c 0.19755,-0.336735 0.28734,-0.484898 0.44898,-0.484898 0.16163,0 0.18857,0.323265 0.13918,0.561224 a 6.9277551,6.9277551 0 0 1 -0.38612,1.068572 0.57469388,0.57469388 0 0 1 -0.40857,0.251428 c -0.51184,0 -0.85755,-0.06286 -3.14286,-0.06286 -0.785714,0 -1.593878,0.06286 -2.128163,0.06286 -0.309796,0 -0.44898,-0.04939 -0.44898,-0.148163 a 0.44897959,0.44897959 0 0 1 0.408571,-0.336735 c 0.794694,-0.188571 0.933878,-0.300816 0.969796,-0.772245 a 10.806939,10.806939 0 0 0 0.04939,-1.270612 c 0,-1.917143 -0.02694,-3.906122 -0.06286,-4.130612 -0.03592,-0.386123 -0.287347,-0.484898 -0.781225,-0.610612 a 0.38612245,0.38612245 0 0 1 -0.336734,-0.260409 0.27836735,0.27836735 0 0 1 0.336734,-0.197551 c 0.211021,0 0.844082,0.06286 1.665715,0.06286 h 1.279596 z"
     class="cls-1" />
  <path
     style="fill:#041e41;stroke-width:0.44897959"
     id="path32"
     d="m 106.93796,18.996327 a 1.9485714,1.9485714 0 0 0 -0.56123,0.09878 0.26938776,0.26938776 0 0 0 -0.13469,0.246939 c -0.0269,0.682449 0,2.024898 0.0224,2.648979 a 0.15265306,0.15265306 0 0 0 0.0988,0.148164 2.7881633,2.7881633 0 0 0 0.7453,0.112245 2.6444898,2.6444898 0 0 0 1.15837,-0.471429 1.6612245,1.6612245 0 0 0 0.40857,-1.117959 c 0,-0.897959 -0.47143,-1.665714 -1.74204,-1.665714 m 2.33918,2.837551 a 5.7963265,5.7963265 0 0 1 -0.75877,0.511836 0.15714286,0.15714286 0 0 0 -0.0359,0.188572 17.555102,17.555102 0 0 0 1.66571,2.402041 2.5502041,2.5502041 0 0 0 1.46817,0.983265 0.19306122,0.19306122 0 0 1 0.1751,0.188571 c 0,0.237959 -0.5747,0.296327 -0.72286,0.296327 -0.54775,0 -1.27959,-0.07633 -2.2,-1.270612 -0.44898,-0.583674 -1.16735,-1.652245 -1.4053,-1.98898 a 1.0371429,1.0371429 0 0 0 -1.01919,-0.408571 0.19755102,0.19755102 0 0 0 -0.1751,0.184081 c 0,0.996735 0,1.629796 0.0494,2.065306 0.0494,0.43551 0.19755,0.610613 0.77224,0.758776 0.23796,0.06286 0.33674,0.134694 0.33674,0.273877 a 0.35020408,0.35020408 0 0 1 -0.39959,0.22449 c -0.3098,0 -0.95633,-0.04939 -1.39184,-0.04939 -0.43551,0 -0.59714,0.04939 -1.0551,0.04939 -0.30082,0 -0.44898,-0.08531 -0.44898,-0.21102 a 0.39061224,0.39061224 0 0 1 0.3502,-0.260408 c 0.4849,-0.161633 0.64653,-0.22449 0.67347,-0.844082 0,-0.44898 0,-0.857551 0,-3.097959 0,-1.531021 -0.0269,-2.038368 -0.0494,-2.298776 -0.0225,-0.260408 -0.21102,-0.386122 -0.68245,-0.471428 A 0.37265306,0.37265306 0 0 1 104.06,18.812245 c 0,-0.188572 0.23796,-0.237959 0.49837,-0.237959 h 1.09551 c 0.47143,0 0.98326,-0.06286 1.58041,-0.06286 1.09551,0 1.55347,0.246938 1.85428,0.471428 a 1.8228571,1.8228571 0 0 1 0.77225,1.531021 1.9216327,1.9216327 0 0 1 -0.58368,1.346938"
     class="cls-1" />
  <path
     style="fill:#041e41;stroke-width:0.44897959"
     id="path34"
     d="m 117.98286,18.601224 a 8.1983673,8.1983673 0 0 0 0.80816,0.22449 0.27387755,0.27387755 0 0 1 0.18857,0.197551 c 0,0.22449 0.0629,0.969796 0.0629,1.279592 0,0.309796 -0.13918,0.484898 -0.28735,0.484898 a 0.41755102,0.41755102 0 0 1 -0.24694,-0.359184 1.6612245,1.6612245 0 0 0 -0.85755,-1.194285 3.0755102,3.0755102 0 0 0 -1.46367,-0.314286 2.9857143,2.9857143 0 0 0 -1.86776,0.731837 3.7085714,3.7085714 0 0 0 -1.04612,2.572653 4.4897959,4.4897959 0 0 0 0.73184,2.375102 3.3134694,3.3134694 0 0 0 2.45143,1.243673 3.8118367,3.8118367 0 0 0 1.34694,-0.336734 2.464898,2.464898 0 0 0 0.68244,-0.794694 c 0.19756,-0.399592 0.30082,-0.561225 0.42205,-0.561225 a 0.35918367,0.35918367 0 0 1 0.22448,0.422041 c 0,0.112245 -0.21102,0.897959 -0.28734,1.167347 a 0.95183673,0.95183673 0 0 1 -0.22449,0.260408 7.3273469,7.3273469 0 0 1 -2.31225,0.422041 4.4897959,4.4897959 0 0 1 -3.38081,-1.293061 3.9689796,3.9689796 0 0 1 -0.99674,-2.64898 3.8702041,3.8702041 0 0 1 1.7151,-3.308979 4.862449,4.862449 0 0 1 2.82409,-0.794694 5.8367347,5.8367347 0 0 1 1.53102,0.237959"
     class="cls-1" />
  <path
     style="fill:#041e41;stroke-width:0.44897959"
     id="path36"
     d="m 121.29633,20.392653 c 0,-1.055102 -0.0629,-1.180816 -0.85755,-1.346939 a 0.34122449,0.34122449 0 0 1 -0.3098,-0.287347 0.44897959,0.44897959 0 0 1 0.39959,-0.188571 c 0.23796,0 0.69592,0.03592 1.24367,0.03592 0.74531,0 1.08205,-0.04939 1.44123,-0.04939 a 0.27836735,0.27836735 0 0 1 0.29633,0.224489 0.3277551,0.3277551 0 0 1 -0.26041,0.22449 c -0.72286,0.184082 -0.77225,0.323265 -0.7947,0.956327 -0.0225,0.507347 -0.0225,1.863265 -0.0225,2.693877 0,1.346939 0,2.051837 0,2.21347 0.0225,0.583673 0.18858,0.695918 0.93388,0.897959 a 0.3277551,0.3277551 0 0 1 0.32327,0.246939 0.38612245,0.38612245 0 0 1 -0.41306,0.237959 c -0.12572,0 -1.01919,-0.04939 -1.44123,-0.04939 -0.42204,0 -1.16734,0.07633 -1.39183,0.07633 a 0.31877551,0.31877551 0 0 1 -0.33674,-0.188572 0.44897959,0.44897959 0 0 1 0.3098,-0.287347 c 0.64653,-0.22449 0.7453,-0.336735 0.78122,-0.583673 0.0359,-0.246939 0.0853,-2.087755 0.0853,-3.111429 v -1.706122 z"
     class="cls-1" />
  <path
     style="fill:#041e41;stroke-width:0.44897959"
     id="path38"
     d="m 126.61673,19.606939 a 3.7085714,3.7085714 0 0 0 -0.9204,2.662449 c 0,1.742041 1.15836,3.591836 3.05755,3.591836 a 2.244898,2.244898 0 0 0 1.53102,-0.574693 c 0.49837,-0.471429 0.95632,-1.378368 0.95632,-2.895919 0,-1.76449 -1.15836,-3.52 -2.99918,-3.52 a 2.595102,2.595102 0 0 0 -1.6298,0.722857 m 5.99388,2.747755 a 4.0946939,4.0946939 0 0 1 -2.0653,3.53347 4.377551,4.377551 0 0 1 -2.07878,0.520816 3.9869388,3.9869388 0 0 1 -3.00816,-6.734694 4.444898,4.444898 0 0 1 3.00816,-1.293061 3.9869388,3.9869388 0 0 1 4.14408,3.991429"
     class="cls-1" />
  <path
     style="fill:#041e41;stroke-width:0.44897959"
     id="path40"
     d="m 53.356735,29.399184 a 0.44897959,0.44897959 0 0 0 -0.211021,0.246938 c 0,0.323266 -0.03592,1.293062 -0.03592,2.244898 v 0.835102 a 14.942041,14.942041 0 0 0 0.07633,2.2 1.0865306,1.0865306 0 0 0 0.422041,0.821633 3.1697959,3.1697959 0 0 0 1.144898,0.287347 3.8118367,3.8118367 0 0 0 1.966531,-0.897959 3.4346939,3.4346939 0 0 0 0.920408,-2.514286 3.3404082,3.3404082 0 0 0 -0.933878,-2.437959 3.6591837,3.6591837 0 0 0 -2.460408,-0.897959 4.8714286,4.8714286 0 0 0 -0.897959,0.125714 m 4.305714,0.386123 a 3.5918367,3.5918367 0 0 1 1.279592,2.797142 3.7220408,3.7220408 0 0 1 -1.854285,3.30898 6.2857143,6.2857143 0 0 1 -2.87347,0.66 c -0.511837,0 -1.643265,-0.09878 -2.038367,-0.09878 -0.395102,0 -1.117959,0.06286 -1.391837,0.06286 a 0.20204082,0.20204082 0 0 1 -0.197551,-0.161633 0.51183673,0.51183673 0 0 1 0.44898,-0.372653 c 0.359183,-0.09878 0.785714,-0.211021 0.844081,-0.772245 0.05837,-0.561225 0.08531,-1.207755 0.08531,-2.846531 a 19.086122,19.086122 0 0 0 -0.07633,-2.550204 c -0.02694,-0.134694 -0.09878,-0.359183 -0.772245,-0.448979 a 0.44897959,0.44897959 0 0 1 -0.44898,-0.273878 c 0,-0.139184 0.188572,-0.237959 0.511837,-0.237959 h 1.019184 c 0.448979,0 1.30653,-0.09878 2.177551,-0.09878 A 4.884898,4.884898 0 0 1 57.64,29.798776"
     class="cls-1" />
  <path
     style="fill:#041e41;stroke-width:0.44897959"
     id="path42"
     d="m 62.92898,28.851429 c 1.108979,0 1.481632,-0.04939 1.795918,-0.04939 a 0.29632653,0.29632653 0 0 1 0.287347,0.112245 5.7783673,5.7783673 0 0 1 0.197551,1.279592 0.31877551,0.31877551 0 0 1 -0.21102,0.300816 c -0.148164,0 -0.260409,-0.161633 -0.534286,-0.695918 a 0.61959184,0.61959184 0 0 0 -0.44898,-0.408572 c -0.709388,0 -1.679183,0.02694 -1.854286,0.02694 a 0.44897959,0.44897959 0 0 0 -0.134693,0.22449 c -0.03592,0.350204 -0.04939,1.481632 -0.04939,2.339183 a 0.36816327,0.36816327 0 0 0 0.161633,0.350204 c 0.112244,0 0.610612,0 0.808163,0 0.821632,-0.03592 0.969796,-0.175102 1.108979,-0.534285 0.09878,-0.260408 0.175102,-0.359184 0.296327,-0.359184 0.121224,0 0.22449,0.175102 0.197551,0.498367 0,0.139184 -0.03592,0.372653 -0.03592,0.597143 0,0.22449 0,0.633061 0.02694,0.835102 0.02694,0.323266 -0.125714,0.408572 -0.197551,0.408572 a 0.36367347,0.36367347 0 0 1 -0.296326,-0.309796 c -0.125715,-0.359184 -0.22449,-0.484898 -0.484898,-0.511837 -0.511837,-0.03592 -0.857551,-0.03592 -1.418776,-0.03592 a 0.38163265,0.38163265 0 0 0 -0.161632,0.309796 c 0,1.158367 0.02694,1.566938 0.03592,1.840816 a 1.3469388,1.3469388 0 0 0 0.148163,0.646531 c 0.112245,0.09877 0.471429,0.246938 1.432245,0.246938 a 2.6938776,2.6938776 0 0 0 0.942857,-0.09878 1.5444898,1.5444898 0 0 0 0.808164,-0.731837 c 0.197551,-0.336735 0.287347,-0.484898 0.448979,-0.484898 0.161633,0 0.188572,0.323265 0.139184,0.561225 a 6.8783673,6.8783673 0 0 1 -0.386123,1.068571 0.57469388,0.57469388 0 0 1 -0.408571,0.246939 c -0.511837,0 -0.857551,-0.06286 -3.142857,-0.06286 -0.785714,0 -1.593878,0.06286 -2.128163,0.06286 -0.309796,0 -0.44898,-0.04939 -0.44898,-0.148163 a 0.44897959,0.44897959 0 0 1 0.408571,-0.336735 c 0.794694,-0.188572 0.933878,-0.300816 0.969796,-0.772245 a 10.806939,10.806939 0 0 0 0.04939,-1.270612 c 0,-1.917143 -0.02694,-3.906123 -0.06286,-4.130613 C 60.751429,29.48 60.5,29.381224 60.006122,29.25551 a 0.38612245,0.38612245 0 0 1 -0.336734,-0.260408 0.27836735,0.27836735 0 0 1 0.336734,-0.197551 c 0.211021,0 0.844082,0.06286 1.665715,0.06286 h 1.279592 z"
     class="cls-1" />
  <path
     style="fill:#041e41;stroke-width:0.44897959"
     id="path44"
     d="m 71.594286,29.246531 a 1.9485714,1.9485714 0 0 0 -0.561225,0.09877 0.26938776,0.26938776 0 0 0 -0.134694,0.246939 c -0.02694,0.682449 0,2.024898 0.02245,2.648979 a 0.15265306,0.15265306 0 0 0 0.09878,0.148164 2.7881633,2.7881633 0 0 0 0.745306,0.112245 2.6444898,2.6444898 0 0 0 1.158367,-0.471429 1.6657143,1.6657143 0 0 0 0.408572,-1.117959 c 0,-0.897959 -0.471429,-1.665714 -1.742041,-1.665714 m 2.339184,2.837551 a 5.7963265,5.7963265 0 0 1 -0.758776,0.511836 0.15714286,0.15714286 0 0 0 -0.03592,0.188572 17.555102,17.555102 0 0 0 1.665714,2.402041 2.5502041,2.5502041 0 0 0 1.468163,0.983265 0.19306122,0.19306122 0 0 1 0.175102,0.188571 c 0,0.23796 -0.574694,0.296327 -0.722857,0.296327 -0.547755,0 -1.279592,-0.07633 -2.2,-1.270612 -0.448979,-0.583674 -1.167347,-1.652245 -1.405306,-1.98898 a 1.0371429,1.0371429 0 0 0 -1.019184,-0.413061 0.19755102,0.19755102 0 0 0 -0.175102,0.188571 c 0,0.996735 0,1.629796 0.04939,2.065306 0.04939,0.435511 0.197551,0.610613 0.772245,0.758776 0.237959,0.06286 0.336735,0.139184 0.336735,0.273877 a 0.35020408,0.35020408 0 0 1 -0.399592,0.22449 c -0.309796,0 -0.956327,-0.04939 -1.391837,-0.04939 -0.43551,0 -0.597143,0.04939 -1.055102,0.04939 -0.300816,0 -0.44898,-0.08531 -0.44898,-0.21102 a 0.39061224,0.39061224 0 0 1 0.350205,-0.260408 c 0.484898,-0.161633 0.64653,-0.22449 0.673469,-0.844082 0,-0.44898 0,-0.857551 0,-3.097959 0,-1.531021 -0.02694,-2.038368 -0.04939,-2.298776 -0.02245,-0.260408 -0.21102,-0.386122 -0.682449,-0.471428 A 0.37265306,0.37265306 0 0 1 68.71633,29.062444 c 0,-0.188571 0.237959,-0.237959 0.498367,-0.237959 h 1.09551 c 0.471429,0 0.983265,-0.06286 1.580408,-0.06286 1.09551,0 1.55347,0.246938 1.854286,0.471428 a 1.8228571,1.8228571 0 0 1 0.772245,1.531021 1.9216327,1.9216327 0 0 1 -0.583674,1.346938"
     class="cls-1" />
  <path
     style="fill:#041e41;stroke-width:0.44897959"
     id="path46"
     d="m 78.854286,29.870612 a 3.7085714,3.7085714 0 0 0 -0.920408,2.662449 c 0,1.742041 1.158367,3.591837 3.057551,3.591837 a 2.244898,2.244898 0 0 0 1.53102,-0.574694 c 0.498367,-0.471428 0.956327,-1.378367 0.956327,-2.895918 0,-1.76449 -1.158368,-3.52 -2.999184,-3.52 a 2.595102,2.595102 0 0 0 -1.629796,0.722857 m 5.993877,2.747755 a 4.0946939,4.0946939 0 0 1 -2.065306,3.533469 4.3820408,4.3820408 0 0 1 -2.078775,0.520817 3.9869388,3.9869388 0 0 1 -3.008163,-6.734694 4.444898,4.444898 0 0 1 3.008163,-1.293061 3.9869388,3.9869388 0 0 1 4.144081,3.991428"
     class="cls-1" />
  <path
     style="fill:#041e41;stroke-width:0.44897959"
     id="path48"
     d="m 90.231429,28.927755 a 0.42204082,0.42204082 0 0 1 0.161632,0.350204 c 0,0.148163 0.04939,0.709388 0.04939,0.897959 0,0.260409 -0.09878,0.422041 -0.260408,0.422041 A 0.40408163,0.40408163 0 0 1 89.97102,30.310612 1.4546939,1.4546939 0 0 0 88.453469,29.129796 1.2212245,1.2212245 0 0 0 87.223265,30.35102 c 0,0.731837 0.309796,1.10449 1.405306,1.742041 1.230205,0.709388 2.029388,1.293061 2.029388,2.464898 a 2.0473469,2.0473469 0 0 1 -0.956326,1.652245 3.542449,3.542449 0 0 1 -1.706123,0.471429 4.1126531,4.1126531 0 0 1 -1.795918,-0.44898 0.61510204,0.61510204 0 0 1 -0.175102,-0.246939 2.9453061,2.9453061 0 0 1 -0.197551,-1.108979 c 0,-0.273878 0.112245,-0.399592 0.21102,-0.399592 a 0.35469388,0.35469388 0 0 1 0.300817,0.309796 2.0922449,2.0922449 0 0 0 1.926122,1.346939 1.2571429,1.2571429 0 0 0 1.257143,-1.279592 c 0,-0.610613 -0.350204,-0.996735 -1.679184,-1.827347 -0.731837,-0.44898 -1.652245,-1.144898 -1.652245,-2.339184 a 1.9889796,1.9889796 0 0 1 0.996735,-1.692653 3.0216327,3.0216327 0 0 1 1.53102,-0.399592 6.0657143,6.0657143 0 0 1 1.54449,0.296327"
     class="cls-1" />
  <path
     style="fill:#041e41;stroke-width:0.44897959"
     id="path50"
     d="m 96.162449,32.806939 a 26.229388,26.229388 0 0 0 -0.897959,-2.473878 0.08530612,0.08530612 0 0 0 -0.161633,0 c -0.273877,0.67347 -0.633061,1.652245 -0.897959,2.473878 a 0.09428571,0.09428571 0 0 0 0.08531,0.125714 18.111837,18.111837 0 0 0 1.840816,0 0.08979592,0.08979592 0 0 0 0.04939,-0.125714 m 0.02694,-2.999184 c 0.633061,1.795918 1.692653,4.489796 1.97551,5.262041 0.260408,0.646531 0.350204,0.709388 1.032653,0.947347 a 0.42204082,0.42204082 0 0 1 0.372653,0.359184 0.26489796,0.26489796 0 0 1 -0.296326,0.134693 c -0.66,0 -1.131429,-0.06286 -1.742041,-0.06286 -0.610612,0 -0.561225,0.02245 -0.956327,0.02245 -0.237959,0 -0.350204,-0.07633 -0.350204,-0.161632 a 0.3277551,0.3277551 0 0 1 0.287347,-0.300817 c 0.583674,-0.175102 0.633061,-0.260408 0.511837,-0.709387 -0.08531,-0.350205 -0.408571,-1.180817 -0.561225,-1.55347 a 0.37714286,0.37714286 0 0 0 -0.323265,-0.175102 c -0.246939,0 -1.742041,0 -2.128163,0.02694 a 0.33673469,0.33673469 0 0 0 -0.197551,0.175102 10.968571,10.968571 0 0 0 -0.511837,1.715102 c 0,0.161633 0.02694,0.336735 0.619592,0.520816 a 0.29632653,0.29632653 0 0 1 0.273878,0.197551 0.35020408,0.35020408 0 0 1 -0.422041,0.273878 c -0.139184,0 -0.67347,-0.03592 -1.032653,-0.03592 -0.359184,0 -0.646531,0.06286 -1.11796,0.06286 a 0.36367347,0.36367347 0 0 1 -0.42204,-0.184082 0.39061224,0.39061224 0 0 1 0.372653,-0.309796 1.2436735,1.2436735 0 0 0 0.956326,-0.695918 c 0.386123,-0.821633 1.692653,-4.103674 2.298776,-5.72 a 1.737551,1.737551 0 0 0 0.08531,-0.350204 0.26040816,0.26040816 0 0 1 0.08531,-0.139184 c 0.139184,-0.09878 0.323265,-0.237959 0.44898,-0.350204 a 0.52979592,0.52979592 0 0 1 0.260408,-0.139184 c 0.125714,0 0.188571,0.350204 0.471428,1.180817"
     class="cls-1" />
  <path
     style="fill:#041e41;stroke-width:0.44897959"
     id="path52"
     d="m 102.71755,29.246531 a 1.9485714,1.9485714 0 0 0 -0.56122,0.09877 0.26938776,0.26938776 0 0 0 -0.1347,0.246939 c -0.0269,0.682449 0,2.024898 0.0224,2.648979 a 0.15265306,0.15265306 0 0 0 0.0988,0.148164 2.7881633,2.7881633 0 0 0 0.7453,0.112245 2.6444898,2.6444898 0 0 0 1.15837,-0.471429 1.6657143,1.6657143 0 0 0 0.40857,-1.117959 c 0,-0.897959 -0.47143,-1.665714 -1.74204,-1.665714 m 2.33918,2.837551 a 5.7963265,5.7963265 0 0 1 -0.75877,0.511836 0.15714286,0.15714286 0 0 0 -0.0359,0.188572 17.555102,17.555102 0 0 0 1.66572,2.402041 2.5502041,2.5502041 0 0 0 1.46816,0.983265 0.19306122,0.19306122 0 0 1 0.1751,0.188571 c 0,0.23796 -0.57469,0.296327 -0.72286,0.296327 -0.54775,0 -1.27959,-0.07633 -2.2,-1.270612 -0.44898,-0.583674 -1.16734,-1.652245 -1.4053,-1.98898 a 1.0371429,1.0371429 0 0 0 -1.01919,-0.413061 0.19755102,0.19755102 0 0 0 -0.1751,0.188571 c 0,0.996735 0,1.629796 0.0494,2.065306 0.0494,0.435511 0.19755,0.610613 0.77224,0.758776 0.23796,0.06286 0.33674,0.139184 0.33674,0.273877 a 0.35020408,0.35020408 0 0 1 -0.39959,0.22449 c -0.3098,0 -0.95633,-0.04939 -1.39184,-0.04939 -0.43551,0 -0.59714,0.04939 -1.0551,0.04939 -0.30082,0 -0.448981,-0.08531 -0.448981,-0.21102 a 0.39061224,0.39061224 0 0 1 0.350201,-0.260408 c 0.4849,-0.161633 0.64653,-0.22449 0.67347,-0.844082 0,-0.44898 0,-0.857551 0,-3.097959 0,-1.531021 -0.0269,-2.038368 -0.0494,-2.298776 -0.0224,-0.260408 -0.21102,-0.386122 -0.68244,-0.471428 a 0.37265306,0.37265306 0 0 1 -0.359188,-0.246939 c 0,-0.188571 0.237958,-0.237959 0.498368,-0.237959 h 1.09551 c 0.47143,0 0.98326,-0.06286 1.58041,-0.06286 1.09551,0 1.55347,0.246938 1.85428,0.471428 a 1.8228571,1.8228571 0 0 1 0.77225,1.531021 1.9216327,1.9216327 0 0 1 -0.58368,1.346938"
     class="cls-1" />
  <path
     style="fill:#041e41;stroke-width:0.44897959"
     id="path54"
     d="m 108.75184,30.656327 c 0,-1.055103 -0.0629,-1.180817 -0.85755,-1.346939 a 0.34122449,0.34122449 0 0 1 -0.3098,-0.287347 0.44897959,0.44897959 0 0 1 0.39959,-0.188572 c 0.23796,0 0.69592,0.03592 1.24368,0.03592 0.7453,0 1.08204,-0.04939 1.44122,-0.04939 a 0.27836735,0.27836735 0 0 1 0.29633,0.22449 0.3277551,0.3277551 0 0 1 -0.26041,0.22449 c -0.72286,0.188571 -0.77225,0.323265 -0.7947,0.956326 -0.0224,0.507347 -0.0224,1.863265 -0.0224,2.693878 0,1.346938 0,2.051836 0,2.213469 0.0224,0.583674 0.18857,0.695918 0.93387,0.897959 a 0.3277551,0.3277551 0 0 1 0.32327,0.246939 0.38612245,0.38612245 0 0 1 -0.40857,0.237959 c -0.12572,0 -1.01919,-0.04939 -1.44123,-0.04939 -0.42204,0 -1.16734,0.07633 -1.39183,0.07633 a 0.31877551,0.31877551 0 0 1 -0.33674,-0.188571 0.44897959,0.44897959 0 0 1 0.3098,-0.287347 c 0.64653,-0.22449 0.7453,-0.336735 0.78122,-0.583674 0.0359,-0.246939 0.0853,-2.087755 0.0853,-3.111428 v -1.706123 z"
     class="cls-1" />
  <path
     style="fill:#041e41;stroke-width:0.44897959"
     id="path56"
     d="m 114.07224,29.870612 a 3.7085714,3.7085714 0 0 0 -0.9204,2.662449 c 0,1.742041 1.15836,3.591837 3.05755,3.591837 a 2.244898,2.244898 0 0 0 1.53102,-0.574694 c 0.49837,-0.471428 0.95632,-1.378367 0.95632,-2.895918 0,-1.76449 -1.15836,-3.52 -2.99918,-3.52 a 2.595102,2.595102 0 0 0 -1.62979,0.722857 m 5.99387,2.747755 a 4.0946939,4.0946939 0 0 1 -2.0653,3.533469 4.3820408,4.3820408 0 0 1 -2.07878,0.520817 3.9869388,3.9869388 0 0 1 -3.00816,-6.734694 4.4404082,4.4404082 0 0 1 3.00816,-1.293061 3.9869388,3.9869388 0 0 1 4.14408,3.991428"
     class="cls-1" />
</svg>
