<?xml version="1.0" encoding="UTF-8" standalone="no"?>
<svg
   xmlns:dc="http://purl.org/dc/elements/1.1/"
   xmlns:cc="http://creativecommons.org/ns#"
   xmlns:rdf="http://www.w3.org/1999/02/22-rdf-syntax-ns#"
   xmlns:svg="http://www.w3.org/2000/svg"
   xmlns="http://www.w3.org/2000/svg"
   xml:space="preserve"
   enable-background="new 0 0 393.442 80"
   viewBox="0 0 196.72643 40"
   height="40"
   width="196.72643"
   y="0px"
   x="0px"
   id="Layer_1"
   version="1.1"><metadata
   id="metadata109"><rdf:RDF><cc:Work
       rdf:about=""><dc:format>image/svg+xml</dc:format><dc:type
         rdf:resource="http://purl.org/dc/dcmitype/StillImage" /><dc:title></dc:title></cc:Work></rdf:RDF></metadata><defs
   id="defs107" />
<g
   transform="matrix(0.5000125,0,0,0.5000125,0,-0.01300033)"
   id="g102">
	<path
   id="path2"
   d="m 95.657,34.682 c 1.012,-0.456 1.847,-1.369 1.847,-2.71 0,-1.746 -1.493,-2.681 -3.291,-2.885 v -0.05 c 1.013,-0.203 2.557,-0.935 2.557,-2.481 0,-0.935 -0.38,-1.595 -1.039,-2 -0.658,-0.429 -1.493,-0.581 -2.733,-0.581 H 87.28 v 0.556 c 1.543,0.127 1.695,0.253 1.695,2.102 v 5.949 c 0,1.847 -0.152,1.974 -1.797,2.1 v 0.583 h 5.037 c 1.265,0 2.48,-0.154 3.442,-0.583 z m -4.707,-9.34 c 0,-0.607 0.049,-0.657 1.29,-0.657 1.241,0 2.405,0.606 2.405,2.1 0,1.545 -1.089,2.1 -2.302,2.1 H 90.95 Z m 0,7.314 v -3.113 h 1.29 c 1.621,0 2.987,0.734 2.987,2.531 0,1.721 -1.089,2.481 -2.531,2.481 -1.215,10e-4 -1.746,-0.252 -1.746,-1.899 z" />
	<path
   id="path4"
   d="M 103.782,34.682 103.2,34.631 c -0.733,-0.051 -0.962,-0.304 -0.659,-1.164 0.253,-0.76 0.684,-1.949 0.861,-2.354 h 3.518 l 0.861,2.05 c 0.506,1.189 0.278,1.393 -0.43,1.468 l -0.482,0.051 v 0.583 h 5.113 v -0.583 c -1.113,-0.077 -1.594,-0.177 -2.202,-1.671 l -3.771,-9.339 -0.633,0.152 -3.746,8.884 c -0.734,1.746 -1.165,1.848 -2.278,1.975 v 0.583 h 4.429 v -0.584 z m 1.316,-8.277 h 0.051 l 1.468,3.848 h -2.936 z" />
	<path
   id="path6"
   d="m 116.969,33.719 c -0.077,-0.531 -0.152,-1.417 -0.152,-3.239 v -3.695 h 0.025 l 7.72,8.605 h 0.81 v -6.631 c 0,-1.822 0.076,-2.707 0.152,-3.265 0.101,-0.607 0.633,-0.886 1.695,-0.937 v -0.581 h -4.833 v 0.581 c 1.266,0.076 1.822,0.33 1.923,0.937 0.076,0.559 0.153,1.443 0.153,3.265 v 3.493 h -0.051 l -7.518,-8.276 h -3.113 v 0.581 c 1.721,0.128 2.125,0.507 2.125,2.531 v 3.392 c 0,1.823 -0.075,2.708 -0.152,3.239 -0.101,0.608 -0.632,0.912 -1.695,0.963 v 0.583 h 4.81 v -0.583 c -1.267,-0.077 -1.824,-0.355 -1.899,-0.963 z" />
	<path
   id="path8"
   d="m 139.723,35.087 c 0.277,-0.659 0.657,-2.203 0.936,-3.165 l -0.633,-0.102 c -0.937,1.975 -1.898,2.987 -3.771,2.987 -2.708,0 -4.479,-2.176 -4.479,-5.416 0,-2.835 1.518,-4.961 4.301,-4.961 1.746,0 3.012,0.633 3.543,2.785 l 0.634,-0.077 c -0.128,-1.14 -0.203,-2.05 -0.329,-3.011 -0.633,-0.152 -1.873,-0.457 -3.569,-0.457 -3.847,0 -6.859,2.455 -6.859,6.075 0,2.885 2.076,5.821 6.632,5.821 1.391,10e-4 3.062,-0.353 3.594,-0.479 z" />
	<path
   id="path10"
   d="m 148.936,23.671 c -2.683,0 -6.024,1.95 -6.024,6.201 0,2.734 2.125,5.695 6.049,5.695 2.961,0 5.973,-2.1 5.973,-6.075 0,-3.263 -2.353,-5.821 -5.998,-5.821 z m 0.227,11.137 c -2.505,0 -3.972,-2.251 -3.972,-5.543 0,-3.087 1.467,-4.834 3.517,-4.834 2.531,0 3.949,2.685 3.949,5.569 0,3.543 -1.545,4.808 -3.494,4.808 z" />
	<path
   id="path12"
   d="m 174.17,35.087 c 0.279,-0.659 0.658,-2.203 0.936,-3.165 l -0.632,-0.102 c -0.938,1.975 -1.899,2.987 -3.772,2.987 -2.708,0 -4.48,-2.176 -4.48,-5.416 0,-2.835 1.519,-4.961 4.303,-4.961 1.747,0 3.011,0.633 3.542,2.785 l 0.634,-0.077 c -0.127,-1.14 -0.204,-2.05 -0.33,-3.011 -0.633,-0.152 -1.873,-0.457 -3.568,-0.457 -3.848,0 -6.86,2.455 -6.86,6.075 0,2.885 2.076,5.821 6.632,5.821 1.393,10e-4 3.064,-0.353 3.595,-0.479 z" />
	<path
   id="path14"
   d="m 187.332,32.302 -0.658,-0.076 c -0.254,0.86 -0.607,1.417 -0.911,1.72 -0.406,0.405 -1.216,0.558 -2.278,0.558 -1.139,0 -1.67,-0.025 -2.025,-0.202 -0.354,-0.178 -0.481,-0.735 -0.481,-1.721 v -2.76 h 2 c 1.595,0 1.646,0.076 1.847,1.468 h 0.633 v -3.721 h -0.633 c -0.202,1.292 -0.252,1.393 -1.847,1.393 h -2 v -3.593 c 0,-0.633 0.026,-0.633 0.735,-0.633 h 1.417 c 1.214,0 1.771,0.252 2.024,0.506 0.253,0.253 0.455,0.734 0.632,1.62 l 0.633,-0.05 c -0.102,-1.165 -0.177,-2.354 -0.202,-2.834 h -8.934 v 0.581 c 1.594,0.102 1.721,0.228 1.721,2.101 v 5.899 c 0,1.873 -0.127,2 -1.899,2.126 v 0.583 h 9.568 c 0.152,-0.484 0.53,-2.308 0.658,-2.965 z" />
	<path
   id="path16"
   d="m 191.282,33.719 c -0.102,0.608 -0.633,0.912 -1.695,0.963 v 0.583 h 4.809 v -0.583 c -1.266,-0.077 -1.823,-0.355 -1.898,-0.963 -0.077,-0.531 -0.151,-1.417 -0.151,-3.239 v -3.695 h 0.023 l 7.721,8.605 h 0.809 v -6.631 c 0,-1.822 0.077,-2.707 0.153,-3.265 0.101,-0.607 0.632,-0.886 1.695,-0.937 v -0.581 h -4.833 v 0.581 c 1.265,0.076 1.822,0.33 1.923,0.937 0.075,0.559 0.152,1.443 0.152,3.265 v 3.493 h -0.052 l -7.517,-8.276 h -3.112 v 0.581 c 1.721,0.128 2.126,0.507 2.126,2.531 v 3.392 c -0.001,1.822 -0.078,2.708 -0.153,3.239 z" />
	<path
   id="path18"
   d="m 207.379,34.682 v 0.583 h 5.847 v -0.583 c -1.822,-0.126 -1.975,-0.253 -1.975,-2.1 v -7.847 h 1.14 c 1.089,0 1.696,0.152 2.024,0.48 0.279,0.279 0.457,0.734 0.66,1.771 l 0.632,-0.049 c -0.101,-1.088 -0.203,-2.684 -0.227,-3.392 h -0.33 c -0.278,0.328 -0.379,0.43 -0.861,0.43 h -7.847 c -0.48,0 -0.682,-0.051 -0.961,-0.43 h -0.328 c -0.027,0.885 -0.153,2.125 -0.228,3.441 h 0.606 c 0.229,-0.96 0.456,-1.417 0.684,-1.67 0.278,-0.303 0.785,-0.581 2.278,-0.581 h 0.784 v 7.847 c 0,1.847 -0.152,1.974 -1.898,2.1 z" />
	<path
   id="path20"
   d="m 223.953,34.682 c -1.617,-0.126 -1.771,-0.253 -1.771,-2.1 v -2.178 h 0.76 c 0.709,0 0.885,0.076 1.24,0.684 0.431,0.708 1.139,1.948 1.747,2.759 0.708,0.936 1.62,1.594 3.72,1.568 h 0.38 l 0.077,-0.505 c -0.558,-0.177 -1.014,-0.456 -1.317,-0.76 -0.43,-0.405 -0.887,-0.962 -1.494,-1.823 -0.532,-0.757 -1.367,-1.973 -1.645,-2.504 1.417,-0.507 2.455,-1.392 2.455,-2.938 0,-1.113 -0.53,-1.897 -1.241,-2.328 -0.734,-0.429 -1.721,-0.581 -2.884,-0.581 h -5.493 v 0.581 c 1.569,0.128 1.721,0.228 1.721,2.101 v 5.925 c 0,1.847 -0.152,1.974 -1.797,2.1 v 0.583 h 5.542 z m -1.771,-9.265 c 0,-0.708 0.051,-0.733 1.19,-0.733 1.392,0 2.606,0.76 2.606,2.43 0,0.785 -0.277,1.746 -0.936,2.176 -0.531,0.328 -1.165,0.404 -1.696,0.404 h -1.164 z" />
	<path
   id="path22"
   d="m 239.591,34.631 -0.482,0.051 v 0.583 h 5.114 v -0.583 c -1.115,-0.077 -1.595,-0.177 -2.202,-1.671 l -3.772,-9.339 -0.632,0.152 -3.746,8.884 c -0.735,1.746 -1.164,1.848 -2.277,1.975 v 0.583 h 4.429 v -0.583 l -0.583,-0.051 c -0.734,-0.051 -0.962,-0.304 -0.658,-1.164 0.253,-0.76 0.682,-1.949 0.859,-2.354 h 3.519 l 0.861,2.05 c 0.506,1.188 0.279,1.392 -0.43,1.467 z m -3.671,-4.378 1.418,-3.848 h 0.051 l 1.467,3.848 z" />
	<path
   id="path24"
   d="m 256.193,32.251 -0.659,-0.076 c -0.252,0.81 -0.555,1.392 -0.858,1.696 -0.406,0.455 -1.215,0.633 -2.204,0.633 -0.935,0 -1.467,-0.025 -1.821,-0.202 -0.354,-0.178 -0.482,-0.685 -0.482,-1.671 v -5.974 c 0,-1.897 0.153,-1.999 1.899,-2.101 v -0.581 h -5.646 v 0.581 c 1.62,0.102 1.773,0.204 1.773,2.101 v 5.899 c 0,1.897 -0.127,2.024 -1.899,2.126 v 0.583 h 9.238 c 0.154,-0.482 0.534,-2.432 0.659,-3.014 z" />
	<path
   id="path26"
   d="m 92.847,44.914 h -5.543 v 0.583 c 1.52,0.126 1.671,0.228 1.671,2.101 v 5.923 c 0,1.847 -0.152,1.973 -1.823,2.1 v 0.581 h 4.961 c 4.05,0 7.441,-1.848 7.441,-6.073 0,-1.595 -0.658,-2.91 -1.519,-3.695 -1.213,-1.114 -3.036,-1.52 -5.188,-1.52 z m -0.1,10.53 c -1.594,0 -1.797,-0.38 -1.797,-1.822 v -6.961 c 0,-0.48 0.049,-0.734 0.176,-0.834 0.126,-0.101 0.634,-0.202 1.266,-0.202 3.063,0 4.884,1.442 4.884,4.985 0,2.911 -1.416,4.834 -4.529,4.834 z" />
	<path
   id="path28"
   d="m 110.794,54.887 c -0.405,0.405 -1.215,0.558 -2.278,0.558 -1.139,0 -1.67,-0.027 -2.025,-0.203 -0.354,-0.177 -0.482,-0.734 -0.482,-1.72 v -2.76 h 2 c 1.595,0 1.646,0.077 1.849,1.469 h 0.633 V 48.51 h -0.633 c -0.203,1.291 -0.253,1.391 -1.849,1.391 h -2 v -3.593 c 0,-0.632 0.026,-0.632 0.735,-0.632 h 1.418 c 1.213,0 1.771,0.252 2.023,0.506 0.254,0.253 0.456,0.733 0.633,1.62 l 0.634,-0.051 c -0.103,-1.165 -0.178,-2.354 -0.203,-2.835 h -8.935 v 0.583 c 1.593,0.099 1.721,0.228 1.721,2.101 v 5.896 c 0,1.874 -0.127,2 -1.898,2.127 v 0.581 h 9.568 c 0.151,-0.48 0.531,-2.302 0.656,-2.961 l -0.656,-0.073 c -0.252,0.855 -0.608,1.413 -0.911,1.717 z" />
	<path
   id="path30"
   d="m 129.397,54.81 c -0.405,0.458 -1.215,0.635 -2.202,0.635 -0.937,0 -1.468,-0.027 -1.823,-0.203 -0.354,-0.177 -0.481,-0.684 -0.481,-1.67 v -5.973 c 0,-1.899 0.152,-2.001 1.898,-2.101 v -0.583 h -5.644 v 0.583 c 1.62,0.099 1.771,0.201 1.771,2.101 v 5.896 c 0,1.898 -0.126,2.024 -1.898,2.127 v 0.581 h 9.239 c 0.151,-0.48 0.531,-2.428 0.657,-3.011 l -0.657,-0.077 c -0.253,0.81 -0.555,1.392 -0.86,1.695 z" />
	<path
   id="path32"
   d="m 143.038,53.95 -3.771,-9.34 -0.633,0.152 -3.747,8.885 c -0.733,1.745 -1.164,1.847 -2.277,1.974 v 0.581 h 4.429 v -0.581 l -0.582,-0.05 c -0.733,-0.053 -0.962,-0.304 -0.659,-1.165 0.254,-0.759 0.685,-1.949 0.861,-2.355 h 3.518 l 0.86,2.05 c 0.507,1.189 0.279,1.392 -0.43,1.469 l -0.48,0.05 v 0.581 h 5.112 V 55.62 c -1.113,-0.075 -1.593,-0.176 -2.201,-1.67 z m -6.099,-2.759 1.417,-3.847 h 0.05 l 1.468,3.847 z" />
	<path
   id="path34"
   d="m 162.628,53.267 c -0.531,-0.759 -1.366,-1.973 -1.645,-2.506 1.417,-0.507 2.455,-1.392 2.455,-2.934 0,-1.114 -0.531,-1.9 -1.241,-2.329 -0.734,-0.43 -1.721,-0.583 -2.886,-0.583 h -5.491 v 0.583 c 1.568,0.126 1.72,0.228 1.72,2.101 v 5.923 c 0,1.847 -0.152,1.973 -1.797,2.1 v 0.581 h 5.543 v -0.581 c -1.619,-0.127 -1.771,-0.253 -1.771,-2.1 v -2.178 h 0.758 c 0.709,0 0.887,0.077 1.241,0.684 0.43,0.709 1.141,1.949 1.747,2.759 0.709,0.936 1.62,1.594 3.721,1.569 h 0.378 l 0.076,-0.507 c -0.555,-0.178 -1.011,-0.456 -1.315,-0.758 -0.43,-0.407 -0.885,-0.963 -1.493,-1.824 z m -2.253,-3.037 c -0.533,0.329 -1.165,0.404 -1.696,0.404 h -1.164 v -4.277 c 0,-0.708 0.05,-0.733 1.188,-0.733 1.392,0 2.607,0.759 2.607,2.428 0.002,0.785 -0.277,1.748 -0.935,2.178 z" />
	<path
   id="path36"
   d="m 175.639,54.887 c -0.406,0.405 -1.214,0.558 -2.278,0.558 -1.14,0 -1.67,-0.027 -2.025,-0.203 -0.355,-0.177 -0.481,-0.734 -0.481,-1.72 v -2.76 h 1.999 c 1.595,0 1.646,0.077 1.848,1.469 h 0.631 V 48.51 h -0.631 c -0.202,1.291 -0.253,1.391 -1.848,1.391 h -1.999 v -3.593 c 0,-0.632 0.025,-0.632 0.735,-0.632 h 1.416 c 1.215,0 1.774,0.252 2.026,0.506 0.253,0.253 0.456,0.733 0.633,1.62 l 0.632,-0.051 c -0.101,-1.165 -0.178,-2.354 -0.201,-2.835 h -8.935 v 0.583 c 1.594,0.099 1.719,0.228 1.719,2.101 v 5.896 c 0,1.874 -0.125,2 -1.896,2.127 v 0.581 h 9.567 c 0.152,-0.48 0.531,-2.302 0.659,-2.961 l -0.659,-0.073 c -0.255,0.855 -0.609,1.413 -0.912,1.717 z" />
	<path
   id="path38"
   d="m 185.333,44.914 h -5.593 v 0.583 c 1.517,0.126 1.67,0.228 1.67,2.101 v 5.923 c 0,1.847 -0.153,1.973 -1.772,2.1 v 0.581 h 5.72 v -0.581 c -1.821,-0.127 -1.975,-0.253 -1.975,-2.1 v -2.127 l 1.469,0.354 c 0.228,0 0.531,0 0.961,-0.051 2.051,-0.252 3.771,-1.416 3.771,-3.518 0.001,-2.304 -1.745,-3.265 -4.251,-3.265 z m -0.506,6.024 c -0.531,0 -1.063,-0.126 -1.443,-0.252 V 46.51 c 0,-0.861 0.026,-0.886 1.292,-0.886 1.62,0 2.732,0.783 2.732,2.556 -10e-4,2.303 -1.594,2.758 -2.581,2.758 z" />
	<path
   id="path40"
   d="m 200.62,45.498 c 1.266,0.075 1.823,0.329 1.923,0.937 0.077,0.556 0.152,1.441 0.152,3.264 v 1.139 c 0,2.733 -0.861,4.632 -3.391,4.632 -2.229,0 -3.215,-1.67 -3.215,-4.429 v -3.418 c 0,-1.872 0.151,-1.998 1.747,-2.125 v -0.583 h -5.519 v 0.583 c 1.671,0.126 1.798,0.252 1.798,2.125 v 3.923 c 0,2.026 0.456,3.292 1.393,4.026 0.886,0.708 2.102,0.936 3.264,0.936 1.418,0 2.685,-0.481 3.469,-1.266 1.011,-1.013 1.366,-2.556 1.366,-3.974 v -1.569 c 0,-1.823 0.075,-2.708 0.152,-3.264 0.1,-0.608 0.631,-0.886 1.696,-0.937 v -0.583 h -4.835 z" />
	<path
   id="path42"
   d="m 201.151,39.726 c -0.353,-0.202 -0.607,-0.253 -0.859,0.178 l -2.937,3.973 0.431,0.254 3.72,-3.215 c 0.456,-0.379 0.482,-0.682 -0.025,-0.989 z" />
	<path
   id="path44"
   d="m 214.794,50.027 v -0.051 c 1.012,-0.202 2.557,-0.936 2.557,-2.48 0,-0.937 -0.379,-1.594 -1.038,-1.999 -0.658,-0.43 -1.495,-0.583 -2.733,-0.583 h -5.72 v 0.558 c 1.542,0.125 1.695,0.254 1.695,2.1 v 5.949 c 0,1.847 -0.152,1.973 -1.796,2.1 v 0.581 h 5.036 c 1.266,0 2.48,-0.15 3.441,-0.581 1.014,-0.457 1.848,-1.366 1.848,-2.708 0,-1.746 -1.494,-2.683 -3.29,-2.886 z m -3.265,-3.746 c 0,-0.606 0.05,-0.657 1.29,-0.657 1.241,0 2.405,0.607 2.405,2.1 0,1.543 -1.089,2.1 -2.303,2.1 h -1.393 v -3.543 z m 1.747,9.213 c -1.215,0 -1.747,-0.253 -1.747,-1.899 v -3.112 h 1.29 c 1.621,0 2.987,0.733 2.987,2.531 0,1.721 -1.089,2.48 -2.53,2.48 z" />
	<path
   id="path46"
   d="m 229.374,54.81 c -0.406,0.458 -1.215,0.635 -2.203,0.635 -0.936,0 -1.468,-0.027 -1.823,-0.203 -0.354,-0.177 -0.48,-0.684 -0.48,-1.67 v -5.973 c 0,-1.899 0.152,-2.001 1.898,-2.101 v -0.583 h -5.644 v 0.583 c 1.62,0.099 1.771,0.201 1.771,2.101 v 5.896 c 0,1.898 -0.125,2.024 -1.897,2.127 v 0.581 h 9.238 c 0.153,-0.48 0.533,-2.428 0.658,-3.011 l -0.658,-0.077 c -0.253,0.81 -0.556,1.392 -0.86,1.695 z" />
	<path
   id="path48"
   d="m 232.967,45.498 c 1.62,0.126 1.772,0.228 1.772,2.101 v 5.923 c 0,1.847 -0.153,1.973 -1.772,2.1 v 0.581 h 5.517 v -0.581 c -1.62,-0.127 -1.77,-0.253 -1.77,-2.1 v -5.923 c 0,-1.873 0.15,-1.974 1.77,-2.101 v -0.583 h -5.517 z" />
	<path
   id="path50"
   d="m 248.027,55.748 c -2.709,0 -4.48,-2.177 -4.48,-5.417 0,-2.835 1.519,-4.96 4.304,-4.96 1.746,0 3.011,0.632 3.542,2.784 l 0.634,-0.077 c -0.128,-1.14 -0.204,-2.049 -0.33,-3.011 -0.632,-0.153 -1.873,-0.457 -3.569,-0.457 -3.847,0 -6.859,2.456 -6.859,6.075 0,2.885 2.074,5.821 6.631,5.821 1.393,0 3.062,-0.354 3.593,-0.481 0.28,-0.657 0.658,-2.201 0.938,-3.164 l -0.633,-0.101 c -0.936,1.975 -1.898,2.988 -3.771,2.988 z" />
	<path
   id="path52"
   d="m 264.581,53.95 -3.771,-9.34 -0.635,0.152 -3.744,8.885 c -0.735,1.745 -1.166,1.847 -2.278,1.974 v 0.581 h 4.429 v -0.581 l -0.583,-0.05 c -0.732,-0.053 -0.961,-0.304 -0.658,-1.165 0.254,-0.759 0.684,-1.949 0.861,-2.355 h 3.518 l 0.86,2.05 c 0.507,1.189 0.279,1.392 -0.429,1.469 l -0.482,0.05 v 0.581 h 5.112 V 55.62 c -1.113,-0.075 -1.594,-0.176 -2.2,-1.67 z m -6.101,-2.759 1.417,-3.847 h 0.051 l 1.467,3.847 z" />
	<path
   id="path54"
   d="m 285.055,53.95 -3.771,-9.34 -0.632,0.152 -3.748,8.885 c -0.732,1.745 -1.163,1.847 -2.278,1.974 v 0.581 h 4.431 v -0.581 l -0.582,-0.05 c -0.733,-0.053 -0.962,-0.304 -0.66,-1.165 0.253,-0.759 0.683,-1.949 0.861,-2.355 h 3.518 l 0.861,2.05 c 0.506,1.189 0.278,1.392 -0.43,1.469 l -0.48,0.05 v 0.581 h 5.112 V 55.62 c -1.112,-0.075 -1.593,-0.176 -2.202,-1.67 z m -6.1,-2.759 1.419,-3.847 h 0.05 l 1.469,3.847 z" />
	<path
   id="path56"
   d="m 298.318,53.267 c -0.531,-0.759 -1.367,-1.973 -1.646,-2.506 1.418,-0.507 2.457,-1.392 2.457,-2.934 0,-1.114 -0.533,-1.9 -1.241,-2.329 -0.733,-0.43 -1.723,-0.583 -2.885,-0.583 h -5.494 v 0.583 c 1.569,0.126 1.722,0.228 1.722,2.101 v 5.923 c 0,1.847 -0.152,1.973 -1.796,2.1 v 0.581 h 5.542 v -0.581 c -1.62,-0.127 -1.771,-0.253 -1.771,-2.1 v -2.178 h 0.759 c 0.708,0 0.885,0.077 1.239,0.684 0.431,0.709 1.14,1.949 1.748,2.759 0.708,0.936 1.621,1.594 3.722,1.569 h 0.378 l 0.076,-0.507 c -0.556,-0.178 -1.013,-0.456 -1.316,-0.758 -0.432,-0.407 -0.887,-0.963 -1.494,-1.824 z m -2.254,-3.037 c -0.531,0.329 -1.163,0.404 -1.695,0.404 h -1.164 v -4.277 c 0,-0.708 0.05,-0.733 1.189,-0.733 1.393,0 2.606,0.759 2.606,2.428 10e-4,0.785 -0.276,1.748 -0.936,2.178 z" />
	<path
   id="path58"
   d="m 309.458,51.394 c 2.151,0.178 2.229,0.303 2.229,1.468 v 1.771 c 0,0.988 -0.937,1.115 -1.822,1.115 -3.418,0 -4.76,-2.734 -4.76,-5.393 0,-3.113 1.824,-4.984 4.33,-4.984 1.643,0 3.163,0.531 3.669,2.833 l 0.632,-0.05 c -0.153,-1.494 -0.228,-2.506 -0.304,-3.087 -0.632,-0.153 -1.922,-0.457 -3.544,-0.457 -3.644,0 -7.063,2.103 -7.063,6.075 0,3.443 2.837,5.821 6.962,5.821 1.366,0 2.859,-0.405 4.049,-0.708 -0.127,-0.381 -0.177,-0.936 -0.177,-1.571 v -1.366 c 0,-1.24 0.077,-1.29 1.14,-1.468 V 50.81 h -5.341 z" />
	<path
   id="path60"
   d="m 325.759,54.887 c -0.405,0.405 -1.213,0.558 -2.278,0.558 -1.138,0 -1.669,-0.027 -2.023,-0.203 -0.355,-0.177 -0.483,-0.734 -0.483,-1.72 v -2.76 h 2 c 1.594,0 1.646,0.077 1.848,1.469 h 0.633 V 48.51 h -0.633 c -0.202,1.291 -0.253,1.391 -1.848,1.391 h -2 v -3.593 c 0,-0.632 0.026,-0.632 0.736,-0.632 h 1.416 c 1.215,0 1.772,0.252 2.025,0.506 0.254,0.253 0.456,0.733 0.632,1.62 l 0.632,-0.051 c -0.101,-1.165 -0.177,-2.354 -0.202,-2.835 h -8.935 v 0.583 c 1.594,0.099 1.722,0.228 1.722,2.101 v 5.896 c 0,1.874 -0.128,2 -1.899,2.127 v 0.581 h 9.566 c 0.154,-0.48 0.533,-2.302 0.661,-2.961 l -0.661,-0.073 c -0.251,0.855 -0.605,1.413 -0.909,1.717 z" />
	<path
   id="path62"
   d="m 337.911,45.498 c 1.266,0.075 1.821,0.329 1.924,0.937 0.075,0.556 0.151,1.441 0.151,3.264 v 3.493 h -0.05 l -7.519,-8.277 h -3.112 v 0.583 c 1.722,0.126 2.127,0.505 2.127,2.531 v 3.391 c 0,1.821 -0.077,2.709 -0.152,3.241 -0.101,0.607 -0.634,0.911 -1.696,0.96 v 0.581 h 4.81 v -0.581 c -1.266,-0.076 -1.823,-0.354 -1.898,-0.96 -0.078,-0.532 -0.153,-1.42 -0.153,-3.241 v -3.695 h 0.026 l 7.718,8.606 h 0.812 v -6.632 c 0,-1.823 0.076,-2.708 0.151,-3.264 0.102,-0.608 0.633,-0.886 1.695,-0.937 v -0.583 h -4.833 v 0.583 z" />
	<path
   id="path64"
   d="m 355.145,44.483 c -0.278,0.331 -0.379,0.431 -0.861,0.431 h -7.844 c -0.481,0 -0.684,-0.05 -0.961,-0.431 h -0.33 c -0.024,0.888 -0.152,2.128 -0.226,3.443 h 0.605 c 0.229,-0.961 0.458,-1.416 0.684,-1.67 0.278,-0.304 0.785,-0.582 2.278,-0.582 h 0.785 v 7.846 c 0,1.847 -0.151,1.973 -1.898,2.1 v 0.581 h 5.847 V 55.62 c -1.822,-0.127 -1.975,-0.253 -1.975,-2.1 v -7.846 h 1.139 c 1.089,0 1.696,0.151 2.025,0.479 0.279,0.28 0.455,0.734 0.656,1.772 l 0.636,-0.051 c -0.103,-1.088 -0.205,-2.682 -0.229,-3.393 h -0.331 z" />
	<path
   id="path66"
   d="m 358.359,45.498 c 1.619,0.126 1.771,0.228 1.771,2.101 v 5.923 c 0,1.847 -0.152,1.973 -1.771,2.1 v 0.581 h 5.519 v -0.581 c -1.622,-0.127 -1.773,-0.253 -1.773,-2.1 v -5.923 c 0,-1.873 0.151,-1.974 1.773,-2.101 v -0.583 h -5.519 z" />
	<path
   id="path68"
   d="m 374.962,45.498 c 1.266,0.075 1.823,0.329 1.924,0.937 0.077,0.556 0.153,1.441 0.153,3.264 v 3.493 h -0.052 l -7.517,-8.277 h -3.114 v 0.583 c 1.721,0.126 2.127,0.505 2.127,2.531 v 3.391 c 0,1.821 -0.076,2.709 -0.152,3.241 -0.102,0.607 -0.632,0.911 -1.695,0.96 v 0.581 h 4.808 v -0.581 c -1.266,-0.076 -1.823,-0.354 -1.898,-0.96 -0.076,-0.532 -0.152,-1.42 -0.152,-3.241 v -3.695 h 0.027 l 7.718,8.606 h 0.81 v -6.632 c 0,-1.823 0.077,-2.708 0.152,-3.264 0.101,-0.608 0.631,-0.886 1.695,-0.937 v -0.583 h -4.834 z" />
	<path
   id="path70"
   d="m 391.24,53.95 -3.771,-9.34 -0.634,0.152 -3.744,8.885 c -0.734,1.745 -1.165,1.847 -2.278,1.974 v 0.581 h 4.43 v -0.581 l -0.585,-0.05 c -0.731,-0.053 -0.96,-0.304 -0.657,-1.165 0.253,-0.759 0.684,-1.949 0.861,-2.355 h 3.519 l 0.861,2.05 c 0.506,1.189 0.278,1.392 -0.431,1.469 l -0.48,0.05 v 0.581 h 5.112 V 55.62 c -1.115,-0.075 -1.595,-0.176 -2.203,-1.67 z m -6.1,-2.759 1.417,-3.847 h 0.052 l 1.467,3.847 z" />
	<path
   id="path72"
   d="M 39.999,0.026 C 17.91,0.026 0,17.935 0,40.026 c 0,22.088 17.91,39.998 39.999,39.998 22.091,0 40,-17.91 40,-39.998 0.001,-22.091 -17.909,-40 -40,-40 z m 0,79.058 C 18.428,79.084 0.941,61.597 0.941,40.026 0.941,18.452 18.428,0.967 39.999,0.967 c 21.571,0 39.06,17.485 39.06,39.059 0,21.571 -17.489,39.058 -39.06,39.058 z" />
	<path
   id="path74"
   d="M 40,2.112 C 19.061,2.112 2.086,19.086 2.086,40.026 2.086,60.964 19.061,77.939 40,77.939 60.939,77.939 77.913,60.964 77.913,40.026 77.913,19.085 60.939,2.112 40,2.112 Z M 71.718,59.03 c -0.277,0.458 -0.506,0.524 -0.998,0.524 -1.143,0 -0.978,-2.087 -2.122,-2.087 -1.47,0 -1.034,2.012 -2.025,2.012 -1.077,0 -0.751,-1.305 -2.002,-1.305 -0.599,0 -1.958,0.871 -3.265,0.871 -0.709,0 -1.035,-0.327 -1.035,-1.197 0,-0.98 -0.925,-1.415 -1.903,-1.415 -0.949,0 -3,0 -4.027,0 -2.395,0 -3.591,-1.469 -3.864,-1.197 -0.708,0.707 1.14,2.066 3.046,2.938 1.826,0.833 2.354,2.308 2.776,2.308 0.326,0 0.399,-0.328 0.399,-0.513 0,-0.317 -0.085,-0.857 -0.727,-1.414 0,-0.243 0.107,-0.292 0.272,-0.292 1.85,0 1.523,2.469 4.517,2.469 1.124,0 2.231,-0.568 2.721,-0.568 1.523,0 1.198,3.125 2.885,3.125 0.489,0 0.592,-0.255 0.592,-0.855 0,-0.94 -0.158,-1.955 0.387,-1.955 0.544,0 1.115,1.033 2.746,1.033 -0.828,1.155 -1.657,2.321 -2.652,3.332 -0.543,0.556 -1.019,0.854 -1.78,0.854 -2.559,0 -2.068,-2.136 -3.973,-2.136 -0.97,0 -1.796,0.163 -2.231,0.598 -0.271,0.272 0.109,0.763 0.491,0.763 1.904,0 1.305,2.644 2.774,2.644 1.034,0 1.415,-0.822 1.415,-0.333 0,0.544 -0.434,1.877 -2.177,1.877 -2.24,0 -1.318,-1.74 -4.679,-1.74 -1.199,0 -2.45,-1.144 -2.45,-2.339 0,-0.546 0.816,0.053 2.45,0.053 0.87,0 1.413,-0.163 1.413,-0.599 0,-0.436 -0.639,-0.612 -1.413,-0.612 -3.048,0 -2.499,-2.106 -4.953,-3.688 -1.149,-0.74 -2.178,-1.521 -2.83,-2.503 -0.586,-0.876 -0.941,-1.667 -1.035,-2.61 -0.163,-1.648 -0.924,-3.539 -2.667,-3.539 -0.544,0 -0.544,0.545 -0.544,1.579 0,1.523 -1.033,2.068 -0.598,2.503 0.435,0.436 1.087,-0.651 1.742,-0.651 0.98,0 0.434,1.794 2.503,3.863 2.428,2.425 4.575,2.1 4.575,6.312 0,0.8 -0.33,1.523 -0.874,1.523 -0.98,0 -0.708,-1.849 -0.708,-2.994 0,-0.732 -0.58,-1.736 -1.633,-2.122 -0.201,-0.072 -0.651,-0.217 -0.651,0.219 0,0.543 1.36,0.871 1.36,1.903 0,0.917 -0.424,2.075 -0.375,2.994 0.152,2.846 5.178,1.232 5.178,3.94 0,0.687 0.419,1.666 1.259,2.238 -5.093,2.646 -10.889,4.158 -17.028,4.158 -2.653,0 -5.332,-0.249 -7.863,-0.841 0,0 1.636,-0.951 1.636,-3.237 0,-2.148 -0.469,-5.521 -0.469,-7.673 0,-2.226 0.41,-3.755 1.825,-4.957 0.799,-0.681 3.645,-3.149 4.861,-4.242 0.503,-0.453 0.961,-0.975 0.961,-1.357 0,-0.163 -0.312,-0.196 -0.452,-0.082 -3.575,2.91 -7.983,5.359 -12.444,5.359 -2.667,0 -6.469,-0.815 -6.469,-3.482 0,-1.414 1.259,-1.85 1.259,-3.1 0,-0.545 -0.451,-0.899 -0.996,-0.899 -0.671,0 -1.415,0.057 -1.415,-0.571 0,-0.544 0.489,-0.667 1.138,-0.667 1.964,0 2.018,0.722 2.944,0.722 0.217,0 0.354,-0.22 0.333,-0.419 -0.062,-0.561 -0.878,-0.888 -1.504,-0.932 -0.505,-0.038 -1.733,-1.335 -2.854,-1.643 0.488,-0.543 0.651,-1.523 0.204,-2.045 0.672,0.044 0.705,0.392 1.396,0.392 1.064,0 1.751,-0.688 1.751,-1.78 0,-0.812 -0.632,-1.682 -1.404,-1.833 -0.166,-0.031 -0.428,-0.034 -0.428,0.122 0,0.247 0.044,0.182 0.377,0.488 0.388,0.358 0.483,0.793 0.483,1.228 0,0.437 -0.313,0.671 -0.78,0.671 -0.513,0 -1.219,-0.779 -2.2,-0.779 -0.491,0 -0.871,0.435 -1.001,0.889 -1.013,-0.399 -1.958,-0.563 -1.958,-1.215 0,-0.653 0.604,-1.441 1.147,-2.993 1.104,-3.156 2.815,-6.095 2.815,-7.281 0,-0.587 -0.348,-0.557 -0.348,-1.102 0,-0.434 0.666,-2.424 1.359,-3.118 0.418,-0.418 1.633,-0.69 2.83,0.507 1.122,1.121 2.395,1.25 2.94,1.796 0.458,0.457 1.463,2.287 2.067,2.287 0.217,0 0.434,0.054 0.434,-0.11 0,-0.199 -0.407,-0.324 -0.855,-0.869 -0.591,-0.723 -1.104,-2.45 -2.139,-2.45 -1.197,0 -1.958,-2.448 -2.991,-2.448 -1.763,0 -2.48,-1.307 -2.48,-2.115 0,-0.714 0.521,-1.042 0.902,-1.042 0.325,0 0.34,0.219 0.34,0.544 0,0.558 0.058,0.584 0.425,0.951 0.299,0.301 1.226,0.625 1.628,0.844 0.491,0.272 0.653,0.709 0.871,0.925 0.217,0.219 0.576,0.039 0.707,0.164 0.245,0.234 0.394,0.722 0.654,0.979 0.489,0.49 1.143,0.436 1.688,0.98 0.652,0.652 0.434,1.847 1.362,2.775 0.385,0.385 0.731,0.666 1.086,0.98 0.359,0.317 0.526,0.99 0.816,1.233 0.667,0.555 1.197,0.562 1.416,0.345 0.163,-0.165 -0.431,-0.239 -0.849,-0.708 -0.26,-0.29 -0.251,-0.692 -0.588,-1.088 -0.356,-0.414 -0.908,-0.871 -1.293,-1.361 -0.745,-0.943 -0.642,-2.025 -1.447,-2.829 -0.6,-0.601 -1.313,-0.653 -1.802,-1.142 -0.493,-0.494 -0.278,-0.818 -0.768,-1.306 -0.493,-0.491 -3.184,-1.088 -2.287,-1.985 0.544,-0.544 1.414,0.679 1.74,0.353 0.22,-0.219 0.023,-0.327 0.273,-0.576 0.186,-0.187 0.811,0.319 1.061,0.319 0.246,0 0.365,-0.228 0.365,-0.333 0,-0.935 -2.456,-1.577 -3.058,-1.577 -0.273,0 -0.366,-0.228 -0.366,-0.556 0,-0.685 -0.668,-2.026 -0.668,-2.447 0,-0.373 0.708,-0.654 0.708,-1.035 0,-0.326 -0.301,-0.283 -0.544,-0.162 -0.219,0.107 -1.144,0.568 -1.144,1.197 0,1.034 0.708,1.197 0.708,2.447 0,0.708 -1.083,0.655 -1.852,0.927 -0.918,0.325 -1.632,0.819 -1.632,1.796 0,1.088 1.197,1.142 0.816,1.522 -0.326,0.327 -2.012,-0.49 -2.012,-1.849 0,-1.741 1.795,-2.068 1.795,-2.34 0,-0.273 -1.47,-0.816 -1.47,-2.232 0,-1.366 1.655,-1.415 1.655,-3.749 0.195,0 0.847,0.647 0.847,1.191 0,1.143 -1.304,1.741 -1.304,2.775 0,0.925 1.083,1.579 1.577,1.579 0.215,0 0.435,-0.055 0.435,-0.435 0,-0.547 -0.816,-0.662 -0.816,-1.632 0,-1.47 3.429,-2.231 3.429,-3.594 0,-1.086 -1.307,-1.086 -1.307,-1.903 0,-0.924 1.143,-0.707 1.143,-0.707 0,0 -0.109,0.217 -0.109,0.707 0,0.708 1.361,0.979 1.361,1.903 0,0.6 -0.872,1.308 -0.6,1.58 0.273,0.273 1.47,-0.98 1.851,-0.598 0.436,0.436 -2.503,1.686 -2.503,2.884 0,0.381 0.381,1.741 0.764,1.741 0.214,0 0.364,-0.111 0.357,-0.543 -0.002,-0.331 -0.141,-0.491 -0.141,-1.198 0,-0.87 2.667,-1.537 2.667,-2.94 0,-1.142 -2.776,-2.271 -2.776,-3.155 0,-0.762 0.156,-1.415 1.197,-1.578 0.432,-0.068 0.599,0 0.599,0.217 0,0.491 -0.544,0.6 -0.544,1.361 0,1.034 2.774,1.36 2.774,2.939 0,0.544 0.395,0.712 1.035,0.863 1.631,0.387 4.668,0.824 4.789,0.824 0.121,0 0.235,-0.174 0.235,-0.328 0,-0.191 -0.097,-0.374 -0.67,-0.498 -1.353,-0.297 -4.244,-0.774 -4.244,-1.025 0,-0.327 0.939,-0.852 3.046,-1.742 2.452,-1.035 5.598,-2.23 8.327,-2.23 3.222,0 10.993,3.101 10.993,3.568 0,0.567 1.034,1.001 1.197,1.165 0.925,0.926 1.96,3.159 2.558,4.463 0.199,0.436 0.545,0.6 0.596,0.599 0.358,-0.014 0.328,-0.599 0.328,-0.599 0,-1.089 -2.176,-4.191 -2.176,-4.516 0,-0.233 0.218,-0.454 0.218,-0.763 0,-0.328 -0.136,-0.542 -0.599,-0.761 -3.538,-1.687 -8.599,-3.157 -8.599,-3.64 0,-0.333 1.905,-0.331 1.905,-1.259 0,-0.52 -4.081,0.763 -6.421,0.763 -2.123,0 -5.399,0.708 -5.399,-1.6 0,-2.309 3.277,-2.958 5.589,-2.958 6.544,0 12.256,2.186 15.78,5.807 2.915,2.995 5.237,11.32 5.237,14.741 0,3.619 -0.996,6.998 -1.211,9.478 -0.127,1.473 0.738,2.339 2.045,2.339 1.414,0 1.251,-0.543 2.503,-0.543 0.692,0 1.143,0.434 1.143,1.087 0,1.47 0.435,2.394 1.632,2.394 0.598,0 1.47,-0.542 1.47,-1.577 0,-0.545 -0.218,-1.307 -0.818,-1.307 -0.598,0 0.382,1.797 -0.707,1.797 -0.653,0 -0.543,-0.599 -0.543,-1.307 0,-1.308 -1.088,-2.067 -2.231,-2.067 -1.307,0 -1.632,0.543 -2.449,0.489 -0.491,0 -0.98,-0.43 -0.955,-1.251 0.054,-1.758 1.193,-4.384 1.193,-9.532 0,-4.072 -2.417,-12.183 -5.269,-15.231 -3.72,-3.978 -9.825,-6.294 -16.822,-6.294 -3.183,0 -6.817,0.907 -6.817,3.935 0,0.852 0.424,1.488 0.988,2.089 0.167,0.178 0.246,0.625 -0.075,0.707 -1.584,0.405 -4.625,1.632 -6.094,2.559 -0.49,-0.491 -2.45,-1.361 -2.45,-1.579 0,-0.327 0.437,-0.762 0.437,-1.578 0,-0.816 -0.381,-1.798 -1.199,-1.798 -0.109,0 -0.275,0.121 -0.275,0.218 0,0.147 0.177,0.339 0.177,0.492 0,0.101 -0.076,0.129 -0.283,0.162 -0.323,0.055 -0.98,0.381 -1.741,1.253 -0.326,-0.035 -0.998,-0.117 -1.415,0.074 -0.526,0.242 -0.918,0.784 -0.918,1.503 0,0.869 1.244,1.143 1.244,1.903 0,0.491 -1.307,0.959 -1.307,0.959 -0.27,-0.631 -0.864,-2.426 -3.21,-2.209 -0.151,0.013 -0.266,0.151 -0.266,0.293 0,0.523 0.67,1.013 0.67,1.672 0,0.809 -1.71,1.472 -1.71,3.149 0,1.042 0.544,1.579 1.141,2.123 -0.814,0.326 -1.389,1.409 -1.389,2.395 0,1.53 0.943,2.318 1.717,2.772 0.653,0.383 0.925,0.98 0.735,1.581 -0.315,0.996 -0.878,2.275 -0.878,2.938 0,0.449 0.213,0.698 0.213,1.143 0,0.981 -0.504,1.481 -1.16,3.048 -1.171,2.796 -1.196,3.538 -2.734,6.584 -0.271,0.538 -0.116,1.362 0.287,1.649 0.435,0.311 1.958,1.126 2.54,1.126 0.117,0 0.345,0 0.508,0 0.762,0 0.925,1.088 0.319,1.649 -0.219,0.203 -0.395,0.499 -0.395,0.744 0,0.654 0.511,0.926 0.511,1.307 0,0.326 -0.173,0.543 -0.173,0.925 0,1.742 1.851,1.357 1.851,2.013 0,0.762 -0.834,1.088 -0.834,2.557 0,4.027 4.487,4.611 7.96,4.929 2.625,0.24 2.848,0.744 2.94,3.179 0.12,3.207 1.194,5.66 1.194,8.326 0,0.761 -0.313,1.688 -0.744,2.177 -0.514,0.581 -1.252,0.699 -1.963,0.497 C 14.055,71.041 3.027,56.72 3.027,40.026 3.027,19.606 19.581,3.052 40,3.052 c 20.418,0 36.973,16.554 36.973,36.974 0.001,6.955 -1.9,13.459 -5.255,19.004 z" />
	<path
   id="path76"
   d="m 71.414,47.345 c 0,-1.523 -1.782,-1.796 -1.782,-1.796 -0.707,-0.108 -1.306,0.11 -0.381,0.639 0.379,0.217 1.144,0.559 1.144,1.157 0,0.762 -0.652,0.872 -1.47,1.198 -0.295,0.117 -0.599,0.218 -0.599,0.68 0,0.461 0.71,0.572 2.231,0.833 0.912,0.156 1.663,0.39 1.663,1.099 0,0.613 -0.363,1.077 -0.138,1.077 0.49,0 1.076,-0.425 1.076,-1.077 0,-1.471 -1.187,-1.851 -3.145,-2.177 0,0 1.401,-0.217 1.401,-1.633 z" />
	<path
   id="path78"
   d="m 30.721,22.911 c 0.762,0 1.089,-0.925 1.904,-0.925 0.926,0 1.307,0.652 2.069,0.652 2.286,0 3.048,-0.924 4.898,-0.924 2.447,0 2.558,2.721 4.679,2.721 0.654,0 2.614,-0.218 3.211,-0.218 1.851,0 2.178,1.632 3.755,1.632 0.708,0 1.579,-0.435 1.579,-0.924 0,-0.164 -0.544,0.052 -1.634,0.052 -1.468,0 -1.351,-1.631 -3.7,-1.631 -0.412,0 -2.118,0.217 -2.72,0.217 -1.97,0 -1.797,-3.047 -5.17,-3.047 -1.688,0 -2.774,1.089 -4.898,1.089 -0.653,0 -0.925,-0.709 -2.069,-0.709 -0.761,0 -1.25,1.035 -1.904,1.035 -0.708,0 -0.762,-0.708 -2.067,-0.708 -0.708,0 -1.74,0.763 -1.74,1.416 0,0.545 0.053,1.469 0.597,1.469 0.436,0 0.49,-0.217 0.49,-0.597 0,-0.327 -0.109,-0.491 -0.109,-0.872 0,-0.326 0.361,-0.545 0.762,-0.545 0.599,-0.001 0.653,0.817 2.067,0.817 z" />
	<path
   id="path80"
   d="m 38.613,26.911 c 0.949,0 2.025,0.734 2.859,1.125 0.786,0.371 1.766,0.781 2.473,0.781 3.157,0 4.626,6.193 8.001,6.193 0.171,0 0.436,-0.071 0.436,-0.29 0,-0.326 -0.542,-0.598 -1.361,-0.979 C 50.51,33.505 50.15,32.97 50.15,32.76 c 0,-0.38 0.272,-0.325 0.6,-0.325 0.652,0 0.979,-0.055 0.979,-0.435 0,-0.219 -0.248,-0.347 -0.979,-0.545 -1.2,-0.327 -1.687,-2.124 -3.265,-2.843 -0.081,-0.038 -0.572,-0.26 -0.572,-0.476 0,-0.218 2.749,-0.328 4.381,-0.328 3.427,0 2.991,6.249 7.371,6.249 1.662,0 3.077,1.86 3.077,1.317 0,-0.654 -1.306,-2.068 -3.048,-2.068 -2.854,0 -3.265,-6.503 -7.4,-6.503 -1.96,0 -5.824,0.544 -7.349,0.544 -1.434,0 -4.815,-1.388 -4.815,-1.768 0,-0.281 1.01,-0.084 1.267,-0.34 0.148,-0.15 0.06,-0.475 -0.294,-0.726 -0.291,-0.207 -0.724,-0.378 -1.218,-0.378 -0.993,0 -1.869,0.845 -2.601,1.417 -0.88,0.688 -1.881,1.522 -3.33,1.522 -1.243,0 -1.785,-0.081 -2.86,-0.347 -0.222,-0.055 -0.569,-0.307 -0.774,-0.104 -0.338,0.339 -0.123,0.696 0.515,0.964 0.738,0.313 1.542,0.629 3.12,0.629 2.05,10e-4 3.609,-1.305 5.658,-1.305 z" />
	<path
   id="path82"
   d="m 61.251,44.788 c -0.541,-1.245 -1.128,-2.856 -1.796,-4.084 -0.979,-1.795 -2.395,-2.989 -3.918,-2.989 -0.307,0 -1.088,0.053 -1.088,0.434 0,0.544 1.744,-0.597 3.973,2.831 0.804,1.235 1.327,3.688 1.688,4.843 0.272,0.875 0.707,1.47 0.488,1.687 -0.379,0.381 -0.923,-0.162 -1.305,-0.979 -0.46,-0.991 -1.415,-2.286 -2.012,-2.286 -0.333,0 -0.6,-0.056 -0.6,0.218 0,0.557 1.052,1.016 0.653,1.415 -0.3,0.301 -0.757,-0.38 -2.394,-1.251 -0.994,-0.53 -2.017,-0.711 -2.721,-0.816 -0.317,-0.048 -0.599,0.034 -0.599,0.325 0,0.272 0.339,0.432 0.599,0.491 0.704,0.16 2.651,1.38 3.265,2.067 2.771,3.1 7.335,5.005 11.319,5.769 1.072,0.204 1.416,-0.38 1.416,-0.544 0,-0.272 -0.166,-0.272 -0.871,-0.544 -1.637,-0.629 -3.601,-1.951 -2.993,-2.557 0.38,-0.381 1.958,-0.055 2.34,-0.437 0.191,-0.19 -0.235,-0.832 -0.926,-1.524 -0.328,-0.326 -1.144,-0.706 -1.905,-0.706 -0.98,-0.002 -2.146,-0.289 -2.613,-1.363 z" />
	<path
   id="path84"
   d="m 46.273,39.846 c 1.151,0.629 4.101,0.701 5.583,0.818 0.577,0.043 1.015,0.097 1.243,0.171 0.315,0.104 0.751,0.337 1.104,0.472 0.471,0.181 0.816,0.142 0.816,-0.219 0,-0.543 -0.801,-1.168 -1.681,-1.385 -0.377,-0.091 -0.884,-0.151 -1.472,-0.196 -1.371,-0.11 -4.01,-0.167 -5.074,-0.822 -0.826,-0.507 -1.422,-1.272 -1.752,-1.806 -0.196,-0.317 -0.577,-0.695 -0.92,-0.351 -0.685,0.688 0.999,2.683 2.153,3.318 z" />
	<path
   id="path86"
   d="m 51.401,38.34 c 0.871,0 2.041,-0.464 2.041,-0.845 0,-0.288 -0.226,-0.34 -0.431,-0.34 -0.304,0 -1.024,0.096 -1.61,0.096 -4.411,0 -5.031,-8.109 -11.047,-8.109 -0.179,0 -0.551,0.009 -0.668,-0.184 l -0.033,-0.055 -0.035,-0.066 c -0.125,-0.247 -0.287,-0.457 -1.06,-0.457 -0.603,0 -1.354,0.289 -2.005,0.56 -0.318,0.131 -1.196,0.536 -1.531,0.536 -0.348,0 -0.565,-0.026 -0.7,-0.023 -0.199,0.005 -0.308,0.098 -0.308,0.316 0,0.419 1.086,0.897 1.823,0.897 0.463,0 0.928,-0.187 1.369,-0.303 0.548,-0.146 1.283,-0.294 2.441,-0.294 5.944,-0.002 6.204,8.271 11.754,8.271 z" />
	<path
   id="path88"
   d="m 70.939,52.949 c -1.688,0 -1.96,1.361 -4.082,1.361 -3.103,0 -3.756,-1.088 -7.347,-1.088 -1.415,0 -2.394,0.871 -4.517,0.871 -1.402,0 -4.517,-1.197 -4.517,-2.721 0,-0.091 0.229,-0.292 0.49,-0.11 1.092,0.764 1.306,0.805 1.74,0.817 0.336,0.011 0.598,-0.108 0.598,-0.381 0,-0.164 -1.169,-0.889 -1.85,-1.36 -1.411,-0.976 -3.7,-2.124 -3.7,-2.938 0,-0.273 0.275,-0.316 0.543,-0.308 0.888,0.031 2.559,0.689 3.102,0.689 0.218,0 0.436,0 0.436,-0.381 0,-0.365 -1.68,-1.088 -3.375,-1.489 -0.813,-0.191 -1.563,-0.406 -2.067,-0.587 -0.398,-0.142 -0.544,-0.265 -0.544,-0.646 0,-0.218 0.272,-0.436 0.597,-0.436 1.398,0 2.176,0 3.321,0 0.708,0 1.144,0.059 1.144,-0.273 0,-0.488 -1.144,-0.816 -2.286,-0.816 -2.558,0 -4.551,0.076 -6.095,-1.469 -1.633,-1.632 -2.014,-5.333 -3.374,-6.693 -1.47,-1.469 -2.612,-1.088 -2.612,-1.632 0,-0.381 1.194,-0.489 1.688,-0.489 0.925,0 1.605,0.762 2.013,0.762 0.327,0 0.327,-0.378 0.327,-0.436 0,-0.653 -1.518,-1.36 -2.339,-1.36 -0.981,0 -3.255,0.271 -3.974,0.271 -1.251,0 -1.579,-0.979 -2.122,-0.979 -0.331,0 -0.402,0.105 -0.381,0.381 0.051,0.645 1.305,1.687 2.503,2.339 0.877,0.479 3.459,1.329 4.028,1.852 0.708,0.651 0.326,1.032 -0.109,1.032 -0.49,0 -0.762,-0.217 -1.361,-0.217 -0.271,0 -0.388,0.162 -0.388,0.381 0,1.038 3.654,2.501 3.654,5.551 0,1.89 -0.925,2.955 -0.925,4.516 0,1.306 0.684,1.782 0.707,1.797 0.436,0.266 0.653,0.108 0.653,-0.272 0,-0.273 -0.489,-0.492 -0.489,-1.524 0,-1.197 0.814,-2.936 0.8,-2.986 0.147,-0.402 0.186,-1.04 0.561,-1.04 0.929,0 0.87,2.121 1.688,2.121 0.438,0 1.087,-0.222 1.087,0.109 0,0.653 -2.286,1.468 -1.742,2.014 0.382,0.381 1.796,-0.871 2.123,-0.871 0.381,0 0.555,0.369 0.164,0.761 -0.347,0.347 -1.85,1.791 -1.85,2.339 0,0.437 1.196,1.143 1.631,1.143 0.545,0 0.762,-0.542 1.306,-0.542 1.786,0 4.121,3.188 5.715,4.134 1.231,0.732 2.284,0.98 3.483,0.98 1.251,0 2.393,-0.5 3.483,-0.5 1.58,0 3.21,1.48 4.624,1.48 0.764,0 0.437,-1.271 1.198,-1.271 0.847,0 1.69,1.297 2.613,1.297 0.947,0 3.011,-1.85 4.028,-1.85 0.955,0 1.197,0.681 1.197,1.605 0,0.33 0.983,0.056 0.983,-1.038 -0.002,-1.027 -0.713,-1.9 -2.182,-1.9 z" />
	<path
   id="path90"
   d="m 30.83,25.636 c 0.661,0 1.672,0.368 2.068,0.368 0.489,0 1.688,-0.372 1.688,-0.645 0,-0.49 -1.137,-0.107 -1.798,-0.463 -0.708,-0.383 -1.142,-0.733 -1.958,-0.733 -0.436,0 -1.035,0.041 -1.307,0.312 -0.305,0.308 -0.87,0.123 -0.87,0.451 0,0.434 0.698,0.717 1.251,0.707 0.464,-0.01 0.274,0.003 0.926,0.003 z" />
	<path
   id="path92"
   d="m 52.504,47.694 c -0.63,0.63 2.214,2.306 2.214,2.687 0,0.992 0.651,1.5 1.634,1.5 0.274,0 0.531,-0.127 0.531,-0.368 10e-4,-1.067 -3.951,-4.246 -4.379,-3.819 z" />
	<path
   id="path94"
   d="m 34.694,37.714 c -0.246,-0.221 -0.493,0.052 -0.489,0.27 0.001,0.154 0.01,0.297 0.161,0.437 0.558,0.508 1.362,1.958 1.362,4.027 0,1.089 -1.141,3.155 -1.141,4.516 0,2.341 1.903,2.885 2.284,2.504 0.326,-0.328 -1.415,-0.925 -1.415,-2.504 0,-1.523 1.144,-3.368 1.144,-4.516 0,-0.406 -0.001,-0.869 -0.076,-1.415 -0.045,-0.325 0.229,-0.399 0.384,-0.219 0.459,0.538 0.67,1.023 0.67,1.634 0,1.522 -0.762,2.339 -0.762,2.992 0,0.218 -0.055,0.271 0.164,0.271 0.326,0 1.578,-1.523 1.578,-3.264 0,-1.959 -2.29,-3.326 -3.864,-4.733 z" />
	<path
   id="path96"
   d="m 28.979,37.248 c -1.214,-0.683 -5.631,-1.92 -5.631,-2.275 0,-0.361 0.408,-0.385 1.224,-0.385 0.311,0 0.707,0.024 0.707,-0.194 0,-0.266 -1.557,-0.926 -2.396,-0.926 -1.033,0 -1.157,0.596 -1.157,1.086 0,1.044 0.603,2.146 1.127,2.669 0.217,0.218 0.084,2.086 0.892,2.086 0.498,0 0.938,-0.291 0.938,-1.27 0,-0.325 2.798,0.218 2.798,0.544 0,0.172 -0.3,0.29 -0.3,0.425 0,0.228 0.022,0.287 0.437,0.287 0.762,0 2.212,-0.384 2.212,-1.189 0.002,-0.338 -0.302,-0.551 -0.851,-0.858 z m -5.616,-0.883 c 0,-0.339 0.558,-0.175 1.209,0.034 1.035,0.33 1.435,0.453 1.794,0.606 0.384,0.162 0.964,0.327 0.964,0.653 0.001,0.381 -3.967,-0.87 -3.967,-1.293 z" />
	<path
   id="path98"
   d="m 23.32,39.89 c -0.218,0.217 -0.196,0.585 -0.196,1.252 0,0.319 0.185,0.24 0.719,-0.089 1.272,-0.781 1.545,-0.917 1.318,-1.143 -0.181,-0.182 -1.606,-0.254 -1.841,-0.02 z" />
	<path
   id="path100"
   d="m 43.836,59.86 c 0,-1.25 0.685,-2.338 0.435,-2.338 -0.653,0 -1.413,1.197 -1.413,2.23 0,1.522 0.582,2.049 1.086,2.556 1.252,1.251 2.777,0.707 3.593,1.525 0.87,0.871 0.328,2.105 0.328,3.045 0,2.723 1.671,3.736 3.59,4.518 1.47,0.599 0.922,2.34 1.416,2.34 0.871,0 1.361,-0.762 1.361,-1.58 0,-0.716 -0.47,-1.47 -1.416,-1.848 -1.472,-0.59 -3.811,-0.762 -3.811,-3.43 0,-0.979 0.437,-2.112 0.437,-2.992 0,-1.251 -0.791,-1.741 -2.614,-1.741 -1.916,10e-4 -2.992,-0.858 -2.992,-2.285 z" />
</g>
</svg>