<?xml version="1.0" encoding="UTF-8" standalone="no"?>
<svg
   xmlns:dc="http://purl.org/dc/elements/1.1/"
   xmlns:cc="http://creativecommons.org/ns#"
   xmlns:rdf="http://www.w3.org/1999/02/22-rdf-syntax-ns#"
   xmlns:svg="http://www.w3.org/2000/svg"
   xmlns="http://www.w3.org/2000/svg"
   style="fill:none"
   id="svg34"
   version="1.1"
   viewBox="0 0 176.67592 30"
   height="30"
   width="176.67592">
  <metadata
     id="metadata40">
    <rdf:RDF>
      <cc:Work
         rdf:about="">
        <dc:format>image/svg+xml</dc:format>
        <dc:type
           rdf:resource="http://purl.org/dc/dcmitype/StillImage" />
        <dc:title></dc:title>
      </cc:Work>
    </rdf:RDF>
  </metadata>
  <defs
     id="defs38" />
  <path
     style="fill:#189d4a;stroke-width:0.96296901"
     id="path2"
     d="m 14.670256,16.619161 c 0,2.733869 0,5.475441 0,8.216918 0,0.602433 0,1.20477 0,1.804604 0.46704,0 0.93408,0 1.403623,0 0,-0.602434 0,-1.204771 0,-1.804604 0,-2.744077 0,-5.483049 0,-8.216918 2.567372,2.481571 5.142351,4.958038 7.709627,7.444713 C 22.494764,27.62657 19.133713,30 15.369468,30 11.607822,30 8.2493423,27.62657 6.9580201,24.063874 9.530457,21.577199 12.095277,19.100732 14.670256,16.619161 Z" />
  <path
     style="fill:#189d4a;stroke-width:0.96296901"
     id="path4"
     d="m 14.593796,14.997425 c -2.738299,2.60512 -5.481778,5.21024 -8.2252092,7.817863 -1.7659985,-0.208482 -3.5396622,-0.414462 -5.3082222,-0.622944 -1.41381947,-4.692837 -1.41381947,-9.699698 0,-14.3924675 1.76856,-0.2085117 3.5447756,-0.4144522 5.3082222,-0.617812 2.7459831,2.6051195 5.4869102,5.2128405 8.2252092,7.8153605 z" />
  <path
     style="fill:#189d4a;stroke-width:0.96296901"
     id="path6"
     d="m 16.148028,14.997425 c 2.740899,-2.60252 5.481797,-5.212841 8.2252,-7.8153605 1.768589,0.2059405 3.537177,0.4093003 5.30567,0.617812 1.411327,4.6927695 1.411327,9.6996305 0,14.3924675 -1.768493,0.205979 -3.539681,0.414462 -5.30567,0.622944 -2.743403,-2.60512 -5.484301,-5.21024 -8.2252,-7.817863 z" />
  <path
     style="fill:#189d4a;stroke-width:0.96296901"
     id="path8"
     d="M 6.9608416,5.9387271 C 8.2521638,2.3708595 11.610614,0 15.372357,0 c 3.761645,0 7.1252,2.3734306 8.414037,5.9387271 -2.567371,2.4815419 -5.14235,4.9604939 -7.709722,7.4420649 V 5.1844816 c 0.30112,-0.061784 0.556307,-0.3294991 0.515477,-0.6358388 0.29101,-0.020588 0.336943,-0.2883129 0.194039,-0.4247464 C 16.556423,3.9050906 16.326755,3.6837137 16.094583,3.459756 15.982301,3.3490627 15.869923,3.2383694 15.755137,3.1276761 15.688788,3.0633209 15.627543,2.9963945 15.558595,2.9346105 c -0.01021,-0.00515 -0.01531,-0.010294 -0.02292,-0.018017 -0.01281,-0.012875 -0.03062,-0.020598 -0.04593,-0.02574 -0.03833,-0.018027 -0.07405,-0.02575 -0.117385,-0.02575 -0.03833,0 -0.07405,0.00772 -0.114883,0.023169 -0.01531,0.00772 -0.03573,0.018027 -0.04844,0.028321 -0.0077,0.00772 -0.01281,0.012865 -0.01791,0.018017 -0.06635,0.061784 -0.132697,0.1287104 -0.199046,0.1930656 -0.114882,0.1081222 -0.227164,0.2213866 -0.34455,0.3320799 -0.227068,0.2239577 -0.456833,0.4427635 -0.686501,0.6641404 -0.145408,0.1390142 -0.09437,0.40931 0.199046,0.4273271 -0.04083,0.3011782 0.214453,0.5663221 0.51047,0.6229543 V 13.380792 C 12.095566,10.899221 9.5307266,8.417698 6.9608416,5.9387271 Z" />
  <path
     style="fill:#000000;fill-opacity:0.8;stroke-width:0.96296901"
     id="path10"
     d="m 38.662147,7.7406635 h 5.00715 c 1.847648,0 4.616569,0.5405815 4.616569,3.7197755 0,1.719574 -1.15094,2.926848 -2.85058,3.238369 v 0.04112 c 1.947123,0.187971 3.281894,1.513691 3.281894,3.302791 0,3.655334 -3.241065,4.198545 -5.047883,4.198545 h -5.00715 z m 2.876196,5.8615155 h 1.166251 c 1.209682,0 2.707677,-0.275506 2.707677,-1.768493 0,-1.683558 -1.454661,-1.804507 -2.768921,-1.804507 h -1.105007 z m 0,6.350588 h 1.349986 c 1.332171,0 2.955255,-0.332032 2.955255,-2.013087 0,-1.894545 -1.518505,-2.182858 -2.955255,-2.182858 h -1.349986 z" />
  <path
     style="fill:#000000;fill-opacity:0.8;stroke-width:0.96296901"
     id="path12"
     d="m 51.42476,12.538965 c 1.066777,-0.481389 2.503527,-0.777405 3.672379,-0.777405 3.220649,0 4.557925,1.297408 4.557925,4.337597 v 1.32052 c 0,1.037406 0.02041,1.820011 0.04083,2.576808 0.01791,0.777405 0.05874,1.500788 0.119986,2.3014 h -2.421867 c -0.102074,-0.543211 -0.102074,-1.220178 -0.119986,-1.536802 h -0.04333 c -0.63296,1.135244 -2.008465,1.776196 -3.258976,1.776196 -1.86556,0 -3.692794,-1.101829 -3.692794,-3.058197 0,-1.539402 0.757953,-2.440356 1.804315,-2.937151 1.046266,-0.501996 2.401452,-0.602434 3.547289,-0.602434 h 1.51841 c 0,-1.660351 -0.757953,-2.218969 -2.378437,-2.218969 -1.168852,0 -2.335104,0.440173 -3.26148,1.122436 z m 3.22325,8.04185 c 0.839613,0 1.497995,-0.360343 1.926805,-0.924065 0.451632,-0.576626 0.574122,-1.318016 0.574122,-2.118628 H 55.96227 c -1.2352,0 -3.059834,0.198179 -3.059834,1.776196 -0.0026,0.882947 0.760457,1.266497 1.745574,1.266497 z" />
  <path
     style="fill:#000000;fill-opacity:0.8;stroke-width:0.96296901"
     id="path14"
     d="m 62.357443,12.000954 h 2.608106 V 13.4014 h 0.04343 c 0.862627,-1.18166 2.031383,-1.63984 3.468229,-1.63984 2.503526,0 3.590718,1.719574 3.590718,4.036381 v 6.502448 H 69.31682 v -5.498457 c 0,-1.261393 -0.02041,-2.962959 -1.7839,-2.962959 -1.990553,0 -2.421867,2.100524 -2.421867,3.42114 v 5.040276 h -2.75361 z" />
  <path
     style="fill:#000000;fill-opacity:0.8;stroke-width:0.96296901"
     id="path16"
     d="m 81.597371,14.22002 c -0.489958,-0.223891 -1.023347,-0.383551 -1.868063,-0.383551 -1.69964,0 -2.784329,1.318016 -2.784329,3.258976 0,1.902345 0.921369,3.359414 2.850677,3.359414 0.780872,0 1.6409,-0.278009 2.113043,-0.481388 l 0.119986,2.224073 c -0.798783,0.239394 -1.62058,0.337231 -2.748602,0.337231 -3.470733,0 -5.213707,-2.296199 -5.213707,-5.43933 0,-2.975767 1.804219,-5.336293 5.109128,-5.336293 1.107607,0 1.908894,0.120949 2.669447,0.337136 z" />
  <path
     style="fill:#000000;fill-opacity:0.8;stroke-width:0.96296901"
     id="path18"
     d="m 88.498103,11.76156 c 3.138991,0 5.535339,2.059405 5.535339,5.457338 0,2.962959 -2.02888,5.320981 -5.535339,5.320981 -3.488644,0 -5.520123,-2.358022 -5.520123,-5.320981 0,-3.397933 2.401548,-5.457338 5.520123,-5.457338 z m 0,8.695706 c 2.110443,0 2.666847,-1.840522 2.666847,-3.560096 0,-1.578018 -0.862628,-3.058197 -2.666847,-3.058197 -1.7865,0 -2.649031,1.523898 -2.649031,3.058197 0,1.70407 0.558907,3.560096 2.649031,3.560096 z" />
  <path
     style="fill:#000000;fill-opacity:0.8;stroke-width:0.96296901"
     id="path20"
     d="m 107.33926,10.399922 c -0.90037,-0.396455 -1.90667,-0.620441 -2.91201,-0.620441 -0.97934,0 -2.25528,0.429869 -2.25528,2.01819 0,2.507283 6.28241,1.446765 6.28241,6.309469 0,3.179146 -2.48542,4.38642 -5.38203,4.38642 -1.55423,0 -2.25335,-0.213682 -3.666986,-0.561218 l 0.262891,-2.617927 c 0.985115,0.54061 2.112755,0.89325 3.243275,0.89325 1.08431,0 2.54224,-0.561219 2.54224,-1.868931 0,-2.762084 -6.278555,-1.619136 -6.278555,-6.417514 0,-3.243491 2.483495,-4.4250639 5.007435,-4.4250639 1.22779,0 2.37854,0.1647543 3.42432,0.5199936 z" />
  <path
     style="fill:#000000;fill-opacity:0.8;stroke-width:0.96296901"
     id="path22"
     d="m 110.94269,12.538965 c 1.06697,-0.481389 2.50084,-0.777405 3.67277,-0.777405 3.22594,0 4.55773,1.297408 4.55773,4.337597 v 1.32052 c 0,1.037406 0.0154,1.820011 0.0385,2.576808 0.0202,0.777405 0.0636,1.500788 0.11941,2.3014 h -2.41898 c -0.0992,-0.543211 -0.0992,-1.220178 -0.12037,-1.536802 h -0.0404 c -0.63556,1.135244 -2.01356,1.776196 -3.26157,1.776196 -1.87009,0 -3.6901,-1.101829 -3.6901,-3.058197 0,-1.539402 0.75497,-2.440356 1.79883,-2.937151 1.04963,-0.501996 2.40164,-0.602434 3.55046,-0.602434 h 1.52053 c 0,-1.660351 -0.76267,-2.218969 -2.37853,-2.218969 -1.17097,0 -2.34002,0.442773 -3.2635,1.122436 z m 3.22114,8.04185 c 0.84163,0 1.5003,-0.360343 1.92882,-0.924065 0.44682,-0.576626 0.5749,-1.318016 0.5749,-2.118628 h -1.18927 c -1.2326,0 -3.06032,0.198179 -3.06032,1.776196 0,0.882947 0.76267,1.266497 1.74587,1.266497 z" />
  <path
     style="fill:#000000;fill-opacity:0.8;stroke-width:0.96296901"
     id="path24"
     d="m 121.87817,12.000954 h 2.60579 V 13.4014 h 0.0414 c 0.86186,-1.18166 2.02898,-1.63984 3.47054,-1.63984 2.50083,0 3.59091,1.719574 3.59091,4.036381 v 6.502448 h -2.7512 v -5.498457 c 0,-1.261393 -0.0231,-2.962959 -1.78631,-2.962959 -1.99045,0 -2.42186,2.100524 -2.42186,3.42114 v 5.040276 h -2.74928 z" />
  <path
     style="fill:#000000;fill-opacity:0.8;stroke-width:0.96296901"
     id="path26"
     d="m 135.31737,13.957418 h -2.03091 V 11.99845 h 2.03091 V 9.936541 l 2.7512,-0.859835 v 2.921744 h 2.44016 v 1.958968 h -2.44016 v 4.798378 c 0,0.885547 0.24748,1.701566 1.29134,1.701566 0.49208,0 0.96489,-0.09784 1.25282,-0.278009 l 0.0819,2.118532 c -0.57393,0.15966 -1.20949,0.23949 -2.02898,0.23949 -2.16187,0 -3.34824,-1.297408 -3.34824,-3.341406 z" />
  <path
     style="fill:#000000;fill-opacity:0.8;stroke-width:0.96296901"
     id="path28"
     d="m 142.86897,12.538965 c 1.06697,-0.481389 2.50372,-0.777405 3.67276,-0.777405 3.22306,0 4.55773,1.297408 4.55773,4.337597 v 1.32052 c 0,1.037406 0.0154,1.820011 0.0404,2.576808 0.0183,0.777405 0.0664,1.500788 0.1223,2.3014 h -2.42187 c -0.10207,-0.540611 -0.10207,-1.220178 -0.1223,-1.536802 h -0.0404 c -0.63556,1.137748 -2.00876,1.776196 -3.26158,1.776196 -1.86816,0 -3.69587,-1.101829 -3.69587,-3.058197 0,-1.539402 0.76074,-2.440356 1.8046,-2.937151 1.04867,-0.501996 2.40165,-0.602434 3.5495,-0.602434 h 1.51861 c 0,-1.660351 -0.75786,-2.218969 -2.37854,-2.218969 -1.16808,0 -2.33712,0.442773 -3.26157,1.122436 z m 3.22113,8.04185 c 0.84164,0 1.49742,-0.360343 1.92883,-0.924065 0.45163,-0.576626 0.572,-1.318016 0.572,-2.118628 h -1.19215 c -1.23261,0 -3.05454,0.198179 -3.05454,1.776196 0,0.882947 0.76267,1.266497 1.74586,1.266497 z" />
  <path
     style="fill:#000000;fill-opacity:0.8;stroke-width:0.96296901"
     id="path30"
     d="m 157.57639,7.7406635 h 7.95991 v 2.2885155 h -5.08641 v 3.573 h 4.84374 v 2.283296 h -4.84374 v 6.355788 h -2.8735 z" />
  <path
     style="fill:#000000;fill-opacity:0.8;stroke-width:0.96296901"
     id="path32"
     d="m 175.88918,21.718659 c -1.00245,0.540611 -2.15128,0.81862 -3.63136,0.81862 -3.48306,0 -5.51492,-1.956464 -5.51492,-5.336389 0,-2.978367 1.62356,-5.43933 4.90247,-5.43933 3.92314,0 5.03055,2.618024 5.03055,6.216735 h -7.30412 c 0.12519,1.662951 1.31638,2.60252 3.01602,2.60252 1.32986,0 2.48061,-0.481292 3.50424,-1.04251 v 2.180354 z m -1.84505,-5.578383 c -0.0809,-1.299912 -0.69623,-2.422252 -2.23987,-2.422252 -1.53401,0 -2.31209,1.04251 -2.43727,2.422252 z" />
</svg>
