<?xml version="1.0" encoding="UTF-8" standalone="no"?>
<svg
   xmlns:dc="http://purl.org/dc/elements/1.1/"
   xmlns:cc="http://creativecommons.org/ns#"
   xmlns:rdf="http://www.w3.org/1999/02/22-rdf-syntax-ns#"
   xmlns:svg="http://www.w3.org/2000/svg"
   xmlns="http://www.w3.org/2000/svg"
   id="svg30"
   version="1.1"
   viewBox="0 0 135.90254 29.999999"
   height="30"
   width="135.90254">
  <metadata
     id="metadata36">
    <rdf:RDF>
      <cc:Work
         rdf:about="">
        <dc:format>image/svg+xml</dc:format>
        <dc:type
           rdf:resource="http://purl.org/dc/dcmitype/StillImage" />
        <dc:title></dc:title>
      </cc:Work>
    </rdf:RDF>
  </metadata>
  <defs
     id="defs34" />
  <g
     style="fill:#008000"
     transform="matrix(0.76336426,0,0,0.76336426,-7.6336426e-4,-6.7221857)"
     id="g872">
    <path
       style="fill:#008000"
       d="m 28.143,45.616 a 22.133,22.133 0 0 1 -10.72,2.472 c -12.648,0 -17.422,-8.251 -17.422,-17.8 0,-10.888 6.03,-19.262 18.385,-19.262 a 20.735,20.735 0 0 1 10.176,2.846 l -0.5,9.255 -3.561,-0.376 -0.711,-3.894 c -0.377,-2.43 -2.094,-3.9 -5.361,-3.9 -6.073,0 -9.8,5.445 -9.8,14.531 0,9.8 3.351,14.659 9.591,14.659 3.643,0 4.984,-0.879 5.7,-3.644 l 0.921,-3.223 h 3.769 z m 13.192,-4.69 c 0,3.224 0.169,3.642 1.927,3.936 l 1.172,0.169 v 2.471 h -13.9 v -2.471 l 1.256,-0.169 c 1.76,-0.251 1.926,-0.585 1.926,-3.894 V 16.259 c 0,-2.177 -0.544,-2.639 -2.262,-3.057 l -1.089,-0.252 0.294,-2.345 h 10.679 z m 28.856,6.45 a 15.642,15.642 0 0 1 -4.481,0.712 c -4.021,0 -5.067,-1.76 -5.445,-3.477 a 8.259,8.259 0 0 1 -7.287,3.477 c -6.031,0 -7.119,-4.23 -7.119,-7.161 0,-7.831 8,-8.209 14.031,-8.417 v -2.765 c 0,-2.472 -1.006,-4.1 -3.9,-4.1 a 17.859,17.859 0 0 0 -7.454,2.011 l -1.549,-3.182 a 19.931,19.931 0 0 1 11.014,-3.519 c 6.575,0 9.506,2.094 9.506,9.843 v 11.683 c 0,2.051 0.294,2.387 1.969,2.6 l 0.712,0.084 z M 59.891,35.524 C 55.703,35.398 53.4,36.57 53.4,39.712 c 0,2.3 1.213,3.475 3.182,3.475 1.884,0 3.309,-0.88 3.309,-2.764 z m 22.782,5.4 c 0,3.224 0.251,3.642 2.051,3.852 l 1.97,0.211 v 2.512 H 72.033 v -2.511 l 1.131,-0.169 c 1.76,-0.334 1.885,-0.585 1.885,-3.894 V 27.688 c 0,-1.969 -0.335,-2.932 -2.053,-3.266 l -1.255,-0.211 0.168,-2.555 h 9.379 l 0.5,0.294 0.628,3.685 c 1.591,-2.763 3.561,-4.691 6.283,-4.691 a 10.125,10.125 0 0 1 2.805,0.419 l -0.586,8.755 H 90.29 c -3.644,-2.18 -6.031,-2.723 -7.622,-2.011 z m 21.275,0 c 0,3.224 0.251,3.642 2.01,3.936 l 1.172,0.169 V 47.5 H 92.805 v -2.471 l 1.256,-0.169 c 1.8,-0.294 2.22,-0.585 2.22,-3.894 V 27.734 c 0,-2.3 -0.5,-2.931 -2.22,-3.349 l -0.92,-0.169 0.166,-2.555 h 10.135 l 0.5,0.294 z m 15.369,0 c 0,3.224 0,3.852 1.76,4.02 l 0.8,0.085 V 47.5 h -13.161 v -2.471 l 0.964,-0.169 c 1.8,-0.294 2.01,-0.627 2.01,-3.936 v -13.19 c 0,-2.177 -0.335,-2.931 -2.094,-3.307 l -1.215,-0.211 0.169,-2.555 h 9.589 l 0.5,0.294 0.376,2.973 a 11.794,11.794 0 0 1 8.5,-3.979 c 4.23,0 6.825,2.472 6.825,8.251 v 11.727 c 0,3.182 0.169,3.727 1.97,3.936 l 1.129,0.169 v 2.471 h -13.15 v -2.471 l 0.839,-0.127 c 1.507,-0.209 1.591,-0.8 1.591,-3.686 V 29.997 c 0,-2.85 -1.132,-3.687 -3.309,-3.687 a 8.5,8.5 0 0 0 -4.1,0.921 z M 106.626,12.7 l 0.042,-0.545 -5.445,-3.349 -6.575,7.789 2.345,2.092 z"
       data-name="Trazado 1123"
       id="Trazado_1123" />
    <path
       style="fill:#008000"
       d="m 162.736,28.723 c -6.354,2.143 0.041,-0.011 -6.38,2.159 0,0.028 0,0.044 0,0.068 a 5.382,5.382 0 1 1 -0.577,-2.391 c 0.079,0.16 12.845,-3.174 18.313,-10.488 a 18.425,18.425 0 0 0 -9.965,-6.5 18.671,18.671 0 0 0 -4.615,-0.585 18.138,18.138 0 0 0 -8.253,1.936 18.555,18.555 0 0 0 -5.079,3.717 17.1,17.1 0 0 0 -4.206,6.858 c -3.615,11.061 5.156,14.843 9.018,14.843 a 12.166,12.166 0 0 0 7.549,-2.669 11.748,11.748 0 0 0 4.195,-6.948 z m 15.265,-0.38 a 32.79,32.79 0 0 0 -9.357,-0.568 c -2.314,12.219 -15.932,19.433 -11.421,20.083 a 16.714,16.714 0 0 0 2.253,0.183 18.573,18.573 0 0 0 18.555,-18.5 c 0.005,-0.399 -0.008,-0.799 -0.033,-1.199 z"
       data-name="Trazado 1124"
       id="Trazado_1124" />
  </g>
</svg>
