<?xml version="1.0" encoding="UTF-8" standalone="no"?>
<svg
   height="35"
   width="158.55298"
   id="svg12"
   version="1.1"
   viewBox="-4395.636 39.849 158.55297 34.999999"
   sodipodi:docname="clarin.svg"
   inkscape:version="1.2.2 (b0a8486541, 2022-12-01)"
   xmlns:inkscape="http://www.inkscape.org/namespaces/inkscape"
   xmlns:sodipodi="http://sodipodi.sourceforge.net/DTD/sodipodi-0.dtd"
   xmlns="http://www.w3.org/2000/svg"
   xmlns:svg="http://www.w3.org/2000/svg"
   xmlns:rdf="http://www.w3.org/1999/02/22-rdf-syntax-ns#"
   xmlns:cc="http://creativecommons.org/ns#"
   xmlns:dc="http://purl.org/dc/elements/1.1/">
  <sodipodi:namedview
     id="namedview193"
     pagecolor="#505050"
     bordercolor="#eeeeee"
     borderopacity="1"
     inkscape:showpageshadow="0"
     inkscape:pageopacity="0"
     inkscape:pagecheckerboard="0"
     inkscape:deskcolor="#505050"
     showgrid="false"
     inkscape:zoom="4.8833541"
     inkscape:cx="71.057718"
     inkscape:cy="24.470886"
     inkscape:window-width="1600"
     inkscape:window-height="826"
     inkscape:window-x="0"
     inkscape:window-y="0"
     inkscape:window-maximized="1"
     inkscape:current-layer="svg12" />
  <metadata
     id="metadata16">
    <rdf:RDF>
      <cc:Work
         rdf:about="">
        <dc:format>image/svg+xml</dc:format>
        <dc:type
           rdf:resource="http://purl.org/dc/dcmitype/StillImage" />
      </cc:Work>
    </rdf:RDF>
  </metadata>
  <defs
     id="defs4">
    <style
       id="style2">
      .cls-1 {
        fill: #fff;
      }
    </style>
  </defs>
  <path
     style="fill:#cb001b;stroke-width:0.891;stroke-dasharray:none;stroke:none;stroke-opacity:1"
     d="m -4370.573,72.631678 a 19.711465,19.711465 0 0 1 -9.5471,2.201543 c -11.2642,0 -15.5159,-7.348272 -15.5159,-15.852531 0,-9.696762 5.3703,-17.154577 16.3735,-17.154577 a 18.466418,18.466418 0 0 1 9.0627,2.534624 l -0.4453,8.242426 -3.1714,-0.334863 -0.6332,-3.467963 c -0.3358,-2.164138 -1.8649,-3.473308 -4.7745,-3.473308 -5.4085,0 -8.7278,4.849272 -8.7278,12.941187 0,8.727798 2.9844,13.055183 8.5417,13.055183 3.2444,0 4.4387,-0.78283 5.0764,-3.245316 l 0.8202,-2.870377 h 3.3566 z m 11.7487,-4.176875 c 0,2.871268 0.1505,3.243535 1.7162,3.505369 l 1.0437,0.15051 v 2.200652 h -12.3792 v -2.200652 l 1.1186,-0.15051 c 1.5674,-0.223538 1.7153,-0.520996 1.7153,-3.467964 V 46.486579 c 0,-1.938818 -0.4845,-2.350271 -2.0145,-2.722538 l -0.9699,-0.224429 0.2618,-2.088438 h 9.5107 z m 25.6989,5.744317 a 13.930634,13.930634 0 0 1 -3.9907,0.634101 c -3.5811,0 -4.5127,-1.567442 -4.8493,-3.096587 a 7.3553964,7.3553964 0 0 1 -6.4897,3.096587 c -5.3712,0 -6.3402,-3.767203 -6.3402,-6.377527 0,-6.974223 7.1248,-7.310867 12.4959,-7.49611 v -2.462486 c 0,-2.201542 -0.8959,-3.651425 -3.4733,-3.651425 a 15.905076,15.905076 0 0 0 -6.6384,1.790979 l -1.3796,-2.833862 a 17.750382,17.750382 0 0 1 9.809,-3.133992 c 5.8556,0 8.466,1.864899 8.466,8.766093 v 10.404782 c 0,1.826604 0.2618,2.125843 1.7535,2.315539 l 0.6341,0.07481 z m -9.1731,-10.555293 c -3.7298,-0.112214 -5.7808,0.931559 -5.7808,3.729798 0,2.048361 1.0803,3.094806 2.8339,3.094806 1.6778,0 2.9469,-0.78372 2.9469,-2.461595 z m 20.2895,4.809195 c 0,2.871268 0.2235,3.243535 1.8266,3.430559 l 1.7545,0.187915 v 2.237166 h -13.057 v -2.236275 l 1.0072,-0.15051 c 1.5675,-0.297458 1.6788,-0.520996 1.6788,-3.467964 V 56.665151 c 0,-1.753575 -0.2983,-2.611214 -1.8284,-2.908672 l -1.1177,-0.187915 0.1497,-2.275461 h 8.3528 l 0.4453,0.261833 0.5593,3.281831 c 1.4169,-2.460705 3.1714,-4.177766 5.5956,-4.177766 a 9.0172404,9.0172404 0 0 1 2.4981,0.373158 l -0.5219,7.79713 h -0.5593 c -3.2453,-1.94149 -5.3711,-2.425081 -6.7881,-1.79098 z m 18.9473,0 c 0,2.871268 0.2236,3.243535 1.7901,3.505369 l 1.0438,0.15051 v 2.200652 h -12.7577 v -2.200652 l 1.1185,-0.15051 c 1.6031,-0.261834 1.9772,-0.520996 1.9772,-3.467964 V 56.706119 c 0,-2.048361 -0.4453,-2.610325 -1.9772,-2.982592 l -0.8193,-0.15051 0.1478,-2.275461 h 9.0262 l 0.4453,0.261833 z m 13.6875,0 c 0,2.871268 0,3.430559 1.5675,3.580179 l 0.7124,0.0757 v 2.200652 h -11.721 v -2.200652 l 0.8585,-0.15051 c 1.6031,-0.261834 1.7901,-0.558401 1.7901,-3.505369 V 56.706119 c 0,-1.938818 -0.2984,-2.610325 -1.8649,-2.945187 l -1.0821,-0.187915 0.1505,-2.275461 h 8.5399 l 0.4453,0.261833 0.3349,2.647729 a 10.503638,10.503638 0 0 1 7.57,-3.543664 c 3.7672,0 6.0783,2.201543 6.0783,7.348272 v 10.443968 c 0,2.833863 0.1505,3.319235 1.7544,3.505369 l 1.0055,0.15051 v 2.200652 h -11.7113 v -2.200652 l 0.7473,-0.113105 c 1.3421,-0.186134 1.4169,-0.712474 1.4169,-3.282721 v -9.99422 c 0,-2.538186 -1.0082,-3.283611 -2.947,-3.283611 a 7.5700289,7.5700289 0 0 0 -3.6514,0.820235 z m -11.3025,-25.136058 0.037,-0.485373 -4.8492,-2.982591 -5.8557,6.936818 2.0885,1.863118 z"
     data-name="Trazado 1123"
     id="Trazado_1123" />
  <path
     style="fill:#cc001b;stroke-width:0.890592"
     d="m -4250.7056,57.586914 c -5.6588,1.908538 0.037,-0.0098 -5.682,1.922787 0,0.02494 0,0.03919 0,0.06056 a 4.7931642,4.7931642 0 1 1 -0.5138,-2.129404 c 0.07,0.142494 11.4396,-2.826738 16.3094,-9.340525 a 16.409151,16.409151 0 0 0 -8.8748,-5.788846 16.628237,16.628237 0 0 0 -4.11,-0.520996 16.153551,16.153551 0 0 0 -7.3501,1.724185 16.524928,16.524928 0 0 0 -4.5233,3.310329 15.229117,15.229117 0 0 0 -3.7458,6.107678 c -3.2195,9.850834 4.5918,13.219051 8.0313,13.219051 a 10.834938,10.834938 0 0 0 6.7231,-2.376989 10.462671,10.462671 0 0 0 3.736,-6.18783 z m 13.5949,-0.338425 a 29.2025,29.2025 0 0 0 -8.3333,-0.505856 c -2.0608,10.882139 -14.1889,17.306867 -10.1714,17.885752 a 14.885349,14.885349 0 0 0 2.0065,0.162978 16.540959,16.540959 0 0 0 16.5249,-16.475945 c 0,-0.355346 -0.01,-0.711583 -0.029,-1.06782 z"
     data-name="Trazado 1124"
     id="Trazado_1124" />
</svg>
