<?xml version="1.0" encoding="UTF-8" standalone="no"?>
<svg
   xmlns:dc="http://purl.org/dc/elements/1.1/"
   xmlns:cc="http://creativecommons.org/ns#"
   xmlns:rdf="http://www.w3.org/1999/02/22-rdf-syntax-ns#"
   xmlns:svg="http://www.w3.org/2000/svg"
   xmlns="http://www.w3.org/2000/svg"
   xml:space="preserve"
   enable-background="new 0 0 542.667 78.667"
   viewBox="0 0 193.81071 25"
   height="25"
   width="193.8107"
   y="0px"
   x="0px"
   id="Layer_1"
   version="1.1"><metadata
   id="metadata43"><rdf:RDF><cc:Work
       rdf:about=""><dc:format>image/svg+xml</dc:format><dc:type
         rdf:resource="http://purl.org/dc/dcmitype/StillImage" /><dc:title></dc:title></cc:Work></rdf:RDF></metadata><defs
   id="defs41" />

















<g
   transform="matrix(0.36571094,0,0,0.36571094,-2.4224693,-1.5528087)"
   id="g868"><path
     style="fill:#359998"
     d="M 39.8,72.606 C 58.123,72.606 72.976,57.752 72.976,39.43 72.976,21.107 58.123,6.254 39.8,6.254 21.477,6.254 6.624,21.107 6.624,39.43 6.625,57.752 21.478,72.606 39.8,72.606"
     id="path2" /><line
     style="fill:none;stroke:#ffffff;stroke-width:1.19299996"
     x1="22.923"
     y1="39.415001"
     x2="52.719002"
     y2="39.415001"
     id="line4" /><line
     style="fill:none;stroke:#ffffff;stroke-width:1.19299996"
     x1="22.938"
     y1="36.625"
     x2="52.719002"
     y2="36.625"
     id="line6" /><path
     style="fill:#ffffff"
     d="m 33.041,17.504 h -1.469 -0.904 -1.649 c 0,0 -2.051,0 -2.051,2.051 v 39.75 c 0,0 0,2.051 2.051,2.051 h 1.649 0.904 1.469"
     id="path8" /><rect
     style="fill:#ffffff"
     x="36.806999"
     y="17.504"
     width="6.073"
     height="43.852001"
     id="rect10" /><rect
     style="fill:#ffffff"
     x="46.646"
     y="17.504"
     width="6.073"
     height="12.87"
     id="rect12" /><rect
     style="fill:#ffffff"
     x="46.646"
     y="45.873001"
     width="6.073"
     height="15.483"
     id="rect14" /><path
     style="fill:#359998"
     d="m 145.553,16.097 v 46.297 c 0,2.548 -0.189,4.233 -0.568,5.062 -0.379,0.826 -1.532,1.238 -3.46,1.238 v 2.17 h 26.645 v -2.17 c -1.927,0 -3.081,-0.412 -3.459,-1.238 -0.379,-0.828 -0.568,-2.514 -0.568,-5.062 V 8.203 h -23.651 v 2.169 c 1.928,0 3.254,0.327 3.977,0.981 0.723,0.654 1.084,2.197 1.084,4.744"
     id="path16" /><path
     style="fill:#359998"
     d="m 127.76,28.557 h -1.962 c -0.413,3.167 -1.016,5.353 -1.808,6.558 -0.791,1.205 -3.218,1.807 -7.281,1.807 h -7.745 V 11.207 h 7.539 c 6.196,0 10.328,0.826 12.393,2.478 2.066,1.653 3.443,5.198 4.131,10.638 h 1.962 L 134.978,8.212 H 85.623 v 2.375 c 2.548,0 4.217,0.379 5.009,1.136 0.792,0.757 1.188,2.41 1.188,4.957 v 45.648 c 0,2.547 -0.396,4.199 -1.188,4.957 -0.792,0.758 -2.461,1.137 -5.009,1.137 v 2.375 h 51.412 V 52.414 h -1.962 c -1.721,7.022 -3.89,11.342 -6.506,12.961 -2.617,1.617 -5.454,2.426 -11.238,2.426 h -2.685 c -1.79,0 -3.184,-0.31 -4.183,-0.93 -0.998,-0.619 -1.497,-1.962 -1.497,-4.027 V 39.916 h 7.745 c 4.063,0 6.49,0.604 7.281,1.809 0.792,1.205 1.395,3.391 1.808,6.558 h 1.962 z"
     id="path18" /><path
     style="fill:#359998"
     d="m 260.192,25.301 h -20.87 v 2.17 c 2.067,0 3.341,0.378 3.823,1.136 0.482,0.758 0.723,2.411 0.723,4.959 v 29.032 c 0,2.548 -0.241,4.201 -0.723,4.959 -0.482,0.757 -1.756,1.136 -3.823,1.136 v 2.17 h 27.482 v -2.17 c -2.962,-0.069 -4.804,-0.465 -5.527,-1.188 -0.723,-0.723 -1.085,-2.358 -1.085,-4.906 l -0.014,-8.746 v -4.594 c 0,-2.465 0.091,-5.78 0.273,-7.676 0.546,-5.59 3.548,-10.329 5.549,-10.329 1.273,0 1.546,1.99 2.456,4.169 1.001,2.748 2.82,4.548 6.55,4.548 3.911,0 6.55,-3.032 6.55,-7.391 0,-2.558 -0.819,-4.453 -1.911,-5.591 -1.637,-1.705 -3.91,-2.653 -6.549,-2.653 -3.548,0 -6.186,1.327 -7.733,2.748 -1.91,1.611 -3.639,3.885 -4.912,8.149 h -0.546"
     id="path20" /><path
     style="fill:#359998"
     d="m 312.736,48.085 c 0,7.022 -0.705,12.272 -2.116,15.75 -1.412,3.478 -3.287,5.215 -5.629,5.215 -2.341,0 -4.217,-1.737 -5.629,-5.215 -1.41,-3.478 -2.117,-8.728 -2.117,-15.75 0,-6.954 0.707,-12.187 2.117,-15.698 1.412,-3.511 3.288,-5.267 5.629,-5.267 2.342,0 4.217,1.756 5.629,5.267 1.411,3.511 2.116,8.744 2.116,15.698 m 16.318,0 c 0,-7.022 -2.479,-12.737 -7.437,-17.144 -4.957,-4.406 -10.5,-6.61 -16.627,-6.61 -6.128,0 -11.688,2.204 -16.679,6.61 -4.992,4.407 -7.487,10.122 -7.487,17.144 0,7.092 2.495,12.841 7.487,17.247 4.991,4.406 10.551,6.609 16.679,6.609 6.127,0 11.67,-2.203 16.627,-6.609 4.957,-4.406 7.437,-10.155 7.437,-17.247"
     id="path22" /><path
     style="fill:#359998"
     d="m 356.634,68.693 c -1.997,0 -3.253,-0.379 -3.771,-1.136 C 352.347,66.8 352.09,65.147 352.09,62.6 V 35.646 c 0.688,-1.377 1.515,-2.393 2.478,-3.047 0.964,-0.654 1.997,-0.981 3.099,-0.981 1.929,0 3.529,0.74 4.803,2.22 1.274,1.48 1.911,3.942 1.911,7.385 v 21.378 c 0,2.547 -0.241,4.2 -0.724,4.957 -0.481,0.757 -1.756,1.136 -3.82,1.136 v 2.169 h 25.404 v -2.169 c -2.064,0 -3.339,-0.379 -3.82,-1.136 -0.482,-0.757 -0.724,-2.41 -0.724,-4.957 V 39.26 c 0,-4.131 -1.256,-7.659 -3.769,-10.586 -2.513,-2.926 -6.146,-4.389 -10.896,-4.389 -3.236,0 -6.093,0.913 -8.572,2.737 -2.478,1.825 -4.269,3.873 -5.369,6.145 v -7.849 h -20.862 v 2.169 c 2.065,0 3.339,0.379 3.821,1.136 0.482,0.757 0.723,2.41 0.723,4.957 v 29.021 c 0,2.547 -0.24,4.2 -0.723,4.957 -0.483,0.757 -1.756,1.136 -3.821,1.136 v 2.169 h 25.406 v -2.17 z"
     id="path24" /><path
     style="fill:#359998"
     d="m 434.608,68.947 c -3.512,0 -6.628,-1.309 -9.347,-3.925 -2.72,-2.616 -4.354,-5.991 -4.906,-10.122 l -1.329,-0.007 -0.002,16.222 h 1.744 c 0.207,-0.619 0.482,-1.222 0.826,-1.808 0.344,-0.585 0.792,-0.877 1.343,-0.877 0.688,0 1.996,0.585 3.925,1.755 1.928,1.171 4.647,1.756 8.158,1.756 5.096,0 9.415,-1.429 12.961,-4.285 3.547,-2.857 5.319,-6.697 5.319,-11.516 0,-3.167 -0.861,-5.87 -2.582,-8.107 -1.721,-2.237 -4.028,-4.148 -6.919,-5.731 l -7.436,-3.925 c -1.446,-0.757 -2.668,-1.566 -3.667,-2.427 -0.998,-0.86 -1.497,-2.014 -1.497,-3.46 0,-1.514 0.533,-2.754 1.601,-3.717 1.067,-0.964 2.461,-1.446 4.183,-1.446 3.166,0 5.817,1.136 7.952,3.408 2.135,2.272 3.408,4.992 3.821,8.159 l 1.358,0.013 -0.009,-13.852 h -1.557 c -0.206,0.482 -0.447,0.946 -0.723,1.394 -0.275,0.447 -0.724,0.671 -1.342,0.671 -0.826,0 -2.101,-0.465 -3.821,-1.394 -1.722,-0.93 -4.028,-1.394 -6.92,-1.394 -4.406,0 -8.314,1.325 -11.723,3.976 -3.407,2.651 -5.111,6.214 -5.111,10.688 0,2.961 0.706,5.475 2.117,7.539 1.411,2.066 3.391,3.752 5.938,5.062 l 7.952,4.131 c 1.996,1.101 3.614,2.134 4.854,3.099 1.239,0.963 1.859,2.34 1.859,4.131 0,1.928 -0.637,3.408 -1.911,4.44 -1.271,1.033 -2.975,1.549 -5.109,1.549"
     id="path26" /><path
     style="fill:#359998"
     d="M 475.799,25.571 V 11.009 h -0.93 c -1.858,2.547 -4.75,5.456 -8.676,8.727 -3.924,3.27 -7.539,5.663 -10.844,7.178 v 1.755 h 4.338 l -0.31,28.918 c 0,4.198 1.377,7.642 4.131,10.327 2.754,2.685 6.231,4.027 10.431,4.027 3.512,0 6.696,-0.93 9.554,-2.787 2.856,-1.859 5.146,-4.305 6.867,-7.334 l -0.77,-2.098 c -1.103,1.377 -2.931,3.32 -3.929,4.112 -0.998,0.792 -2.255,1.187 -3.771,1.187 -1.996,0 -3.511,-0.757 -4.544,-2.271 -1.033,-1.514 -1.549,-3.512 -1.549,-5.99 V 28.772 h 12.393 l 0.014,-3.253"
     id="path28" /><path
     style="fill:#359998"
     d="M 513.241,46.639 V 62.75 c -0.688,0.688 -1.377,1.153 -2.065,1.395 -0.688,0.24 -1.343,0.361 -1.963,0.361 -1.651,0 -3.012,-0.705 -4.079,-2.117 -1.066,-1.412 -1.601,-3.149 -1.601,-5.215 0,-2.617 0.551,-4.58 1.651,-5.888 1.103,-1.308 2.651,-2.41 4.648,-3.305 z m 0,-4.441 v 1.446 l -8.778,3.511 c -4.476,1.858 -8.142,3.771 -10.999,5.731 -2.857,1.963 -4.286,4.803 -4.286,8.521 0,3.167 1.118,5.715 3.356,7.644 2.238,1.928 4.939,2.892 8.106,2.892 2.755,0 5.268,-0.741 7.539,-2.222 2.273,-1.479 3.994,-3.219 5.164,-5.215 0.896,2.686 2.428,4.596 4.597,5.731 2.169,1.137 4.458,1.705 6.867,1.705 2.823,0 5.25,-0.673 7.281,-2.015 2.031,-1.343 3.529,-2.806 4.492,-4.39 l -1.445,-1.549 c -0.551,0.688 -1.032,1.188 -1.445,1.498 -0.413,0.31 -0.896,0.465 -1.446,0.465 -0.826,0 -1.48,-0.328 -1.962,-0.981 -0.482,-0.654 -0.723,-1.533 -0.723,-2.634 V 41.991 c 0,-5.232 -1.637,-9.484 -4.906,-12.754 -3.271,-3.271 -7.797,-4.906 -13.581,-4.906 -5.37,0 -9.794,1.498 -13.271,4.493 -3.477,2.995 -5.973,6.627 -7.486,10.895 l 2.271,0.931 c 1.308,-2.961 2.909,-5.147 4.802,-6.558 1.895,-1.412 4.012,-2.117 6.353,-2.117 3.167,0 5.542,1.015 7.126,3.046 1.582,2.03 2.374,4.423 2.374,7.177"
     id="path30" /><path
     style="fill:#359998"
     d="m 213.287,8.397 c 6.434,0 14.029,9.025 19.569,19.658 h 0.893 l 0.034,-19.873 h -1.553 c -0.714,1.162 -1.161,1.787 -2.68,1.787 -1.162,0 -2.592,-0.053 -4.021,-0.5 -2.681,-0.804 -6.523,-1.966 -12.063,-1.966 -18.854,0 -31.096,11.527 -31.096,33.241 0,20.998 11.527,31.186 31.096,31.186 5.272,0 9.918,-0.715 12.867,-1.519 1.608,-0.446 2.949,-0.956 4.11,-0.956 0.983,0 1.92,-0.145 2.706,1.422 h 1.494 V 50.995 h -0.715 c -4.289,8.043 -12.42,19.862 -20.016,19.862 -7.863,0 -11.169,-8.4 -11.169,-23.055 V 32.344 c 0,-16.173 3.842,-23.947 10.544,-23.947"
     id="path32" /><path
     style="fill:#359998"
     d="m 393.609,33.58 v 29.021 c 0,2.547 -0.241,4.199 -0.723,4.957 -0.482,0.757 -1.756,1.136 -3.821,1.136 v 2.17 h 25.406 v -2.17 c -1.997,0 -3.253,-0.379 -3.771,-1.136 -0.516,-0.758 -0.773,-2.41 -0.773,-4.957 V 25.317 h -20.862 v 2.169 c 2.065,0 3.339,0.378 3.821,1.136 0.482,0.758 0.723,2.411 0.723,4.958"
     id="path34" /><path
     style="fill:#359998"
     d="m 401.074,21.906 c 4.877,0 8.83,-3.953 8.83,-8.83 0,-4.877 -3.953,-8.83 -8.83,-8.83 -4.877,0 -8.83,3.953 -8.83,8.83 0,4.877 3.953,8.83 8.83,8.83"
     id="path36" /></g>
</svg>