<?xml version="1.0" encoding="UTF-8" standalone="no"?>
<svg
   xmlns:dc="http://purl.org/dc/elements/1.1/"
   xmlns:cc="http://creativecommons.org/ns#"
   xmlns:rdf="http://www.w3.org/1999/02/22-rdf-syntax-ns#"
   xmlns:svg="http://www.w3.org/2000/svg"
   xmlns="http://www.w3.org/2000/svg"
   height="22"
   width="148.61366"
   id="svg12"
   version="1.1"
   viewBox="-4395.636 39.849 148.61365 21.999999">
  <metadata
     id="metadata16">
    <rdf:RDF>
      <cc:Work
         rdf:about="">
        <dc:format>image/svg+xml</dc:format>
        <dc:type
           rdf:resource="http://purl.org/dc/dcmitype/StillImage" />
        <dc:title></dc:title>
      </cc:Work>
    </rdf:RDF>
  </metadata>
  <defs
     id="defs4">
    <style
       id="style2">
      .cls-1 {
        fill: #fff;
      }
    </style>
  </defs>
  <path
     transform="matrix(0.97447876,0,0,0.97447876,-113.35194,-0.16363093)"
     d="m -4325.8281,41.060547 v 2.597656 2.607422 h 0.5312 c 0.5588,0 1.1033,0.05346 1.5879,0.150391 0.4847,0.09693 0.8464,0.05138 1.4297,0.634765 0.5314,0.531467 0.4521,0.7898 0.5234,1.132813 0.071,0.343013 0.1184,0.727083 0.1582,1.162109 0.08,0.870052 0.1172,1.931431 0.1172,2.996094 0,1.064663 -0.038,2.126042 -0.1172,2.996094 -0.04,0.435025 -0.087,0.819096 -0.1582,1.162109 -0.071,0.343013 0.01,0.601346 -0.5234,1.132812 -0.5833,0.583389 -0.945,0.537833 -1.4297,0.634766 -0.4846,0.09693 -1.0291,0.150391 -1.5879,0.150391 h -0.5312 v 2.615234 2.603516 l 11.3359,-0.113281 c 6.0914,-0.06047 9.2489,-0.100176 11.0645,-0.220704 1.8155,-0.120527 2.1681,-0.265881 3.1816,-0.669922 1.1647,-0.46438 2.5494,-1.379158 3.6582,-2.453124 l 1.916,-1.855469 a 1.201931,1.201931 0 0 1 0.7188,-0.332031 1.201931,1.201931 0 0 1 -0.2403,-1.107422 l 0.336,-1.171875 a 1.201931,1.201931 0 0 1 0,0 c 0.1263,-0.440183 0.2805,-2.110029 0.2774,-3.626953 -0,-0.758463 -0.029,-1.507526 -0.082,-2.113282 -0.053,-0.605755 -0.1665,-1.1177 -0.1796,-1.152344 -0.088,-0.23129 -0.168,-0.424346 -0.2247,-0.714843 -0.057,-0.290498 -0.059,-0.898617 0.3477,-1.330078 0.074,-0.07895 0.1225,-0.03388 0.1953,-0.08789 a 1.201931,1.201931 0 0 1 -1.123,-0.302734 l -1.9297,-1.869141 c -1.1091,-1.07426 -2.5216,-2.011434 -3.6758,-2.476563 -1.0231,-0.412289 -1.3524,-0.555056 -3.1562,-0.673828 -1.8039,-0.118771 -4.9589,-0.154428 -11.084,-0.207031 z m -68.6074,0.02539 v 2.589843 2.589844 h 0.5332 c 0.5586,0 1.1035,0.05341 1.5878,0.150391 0.4843,0.09698 0.8457,0.05285 1.4278,0.634765 0.5314,0.531467 0.452,0.7898 0.5234,1.132813 0.071,0.343013 0.1184,0.727083 0.1582,1.162109 0.08,0.870052 0.1172,1.931431 0.1172,2.996094 0,1.064663 -0.038,2.126042 -0.1172,2.996094 -0.04,0.435025 -0.087,0.819096 -0.1582,1.162109 -0.071,0.343013 0.01,0.601346 -0.5234,1.132812 -0.5821,0.581919 -0.9435,0.537785 -1.4278,0.634766 -0.4843,0.09698 -1.0292,0.150391 -1.5878,0.150391 h -0.5332 v 2.349609 c 0,0.953939 0.029,1.850939 0.07,2.501953 0,0.07207 0.011,0.100209 0.016,0.166016 0.1284,0.0054 0.1981,0.01032 0.3535,0.01563 0.8278,0.02824 2.0252,0.05448 3.4941,0.07617 2.9379,0.04338 6.9655,0.07031 11.3653,0.07031 h 14.7949 l -0.078,-5.007812 -0.082,-5.070313 -3.6269,-0.07813 -3.5566,-0.07422 v 1.130859 2.357422 a 1.201931,1.201931 0 0 1 -1.2012,1.201172 h -3.0703 c -1.4224,0 -2.1601,0.02502 -2.8711,-0.142579 -0.3555,-0.0838 -0.8221,-0.287638 -1.1114,-0.716796 -0.2892,-0.429159 -0.2871,-0.825869 -0.2871,-1.064454 0,-0.236971 -0,-0.591127 0.2422,-1.001953 0.2441,-0.410825 0.6956,-0.662553 1.0371,-0.759765 0.6831,-0.194425 1.3004,-0.16211 2.4629,-0.16211 h 1.2989 l -0.062,-1.917968 -0.067,-2.046875 -1.3261,-0.05859 c -1.0866,-0.0476 -1.6977,-0.0522 -2.3496,-0.269531 -0.326,-0.108665 -0.7324,-0.345038 -0.9746,-0.732422 -0.2423,-0.387385 -0.2618,-0.761001 -0.2618,-1.011719 0,-0.243154 0.01,-0.656844 0.3067,-1.078125 0.2998,-0.421281 0.7557,-0.606719 1.1074,-0.6875 0.7035,-0.161561 1.4446,-0.140625 2.8555,-0.140625 h 3.0703 a 1.201931,1.201931 0 0 1 1.2012,1.201172 v 1.804687 0.605469 h 3.6718 3.6739 v -4.396484 -4.394531 h -15.0469 z m 33.2207,0 v 2.572265 2.630859 l 0.9375,0.05078 2.0761,0.105468 a 1.201931,1.201931 0 0 1 1.1387,1.171876 l 0.1016,4.283203 c 0.034,1.44421 0.027,2.581713 -0.029,3.443359 -0.028,0.430823 -0.067,0.791051 -0.1309,1.115234 -0.064,0.324184 -0.083,0.603872 -0.4297,1.021485 a 1.201931,1.201931 0 0 1 -0,0 c -0.4729,0.569547 -0.9378,0.653737 -1.4375,0.769531 -0.4998,0.115794 -1.0566,0.167969 -1.6641,0.167969 h -0.5605 v 2.349609 c 0,0.954329 0.027,1.850742 0.068,2.501953 0,0.07191 0.011,0.100341 0.016,0.166016 0.124,0.0053 0.1907,0.01048 0.3399,0.01563 0.818,0.02823 2.0014,0.05448 3.4531,0.07617 2.9035,0.04337 6.8828,0.07031 11.2305,0.07031 h 14.6269 V 58.298828 53 h -3.1308 -3.1328 v 1.328125 2.527344 a 1.201931,1.201931 0 0 1 -1.2012,1.201172 h -3.2598 -3.2617 a 1.201931,1.201931 0 0 1 -1.2012,-1.228516 l 0.1016,-4.603516 0.1016,-4.605468 a 1.201931,1.201931 0 0 1 1.125,-1.171875 l 1.7148,-0.109375 0.5898,-0.03711 V 43.65625 41.085938 h -9.0898 z m 68.6074,0 v 1.617187 2.818359 a 1.201931,1.201931 0 0 1 -0.5176,0.986328 c 0.1588,-0.04663 0.3557,-0.201737 0.4746,-0.214843 0.2672,-0.02945 0.5075,-0.02734 0.8066,-0.02734 0.5904,0 1.0741,-0.02051 1.625,0.101563 0.551,0.122069 1.2192,0.5619 1.5137,1.140624 0.589,1.15745 0.4297,2.293651 0.4297,4.619141 0,1.422116 -0.035,2.538683 -0.1133,3.382813 -0.039,0.422065 -0.087,0.774725 -0.1621,1.09375 -0.075,0.319024 -0.088,0.607709 -0.5097,1.029296 -0.4785,0.478325 -0.8405,0.521331 -1.2657,0.625 -0.4252,0.10367 -0.8872,0.160157 -1.3633,0.160157 h -1.2246 a 1.201931,1.201931 0 0 1 0.2793,0.724609 l 0.1036,2.714844 0.061,1.574219 7.0703,0.08203 7,0.08398 v -7.02539 c 0,-2.971797 0.03,-5.071241 0.1016,-6.501954 0.036,-0.715356 0.08,-1.260177 0.1465,-1.697265 0.033,-0.218544 0.068,-0.409747 0.1289,-0.607422 0.061,-0.197675 0.1067,-0.413337 0.4082,-0.714844 0.5822,-0.582259 0.9434,-0.537782 1.4277,-0.634765 0.4843,-0.09698 1.0292,-0.150391 1.5879,-0.150391 h 0.5332 v -2.589844 -2.589843 h -9.2715 z m 25.0254,0.002 -3.7403,8.103515 -3.9531,8.560547 v 3.150391 c 0,0.915873 0.027,1.778593 0.068,2.404297 0,0.07124 0.011,0.09923 0.016,0.164062 0.3138,0.01985 0.6411,0.04019 1.1113,0.05664 1.2232,0.04279 2.8965,0.07031 4.7051,0.07031 h 5.418 v -2.589844 -2.589843 h -0.4532 c -0.6283,0 -1.0801,-0.0087 -1.5761,-0.158203 -0.248,-0.07478 -0.5578,-0.180927 -0.8457,-0.544922 -0.288,-0.363995 -0.3392,-0.984583 -0.2246,-1.330078 0.2245,-0.677787 0.6871,-0.836439 0.9863,-0.951172 0.2991,-0.114734 0.587,-0.17181 0.9336,-0.22461 0.6931,-0.105598 1.6051,-0.165018 2.8262,-0.201172 1.4841,-0.04393 2.3546,-0.06196 3.041,0.02734 0.3432,0.04465 0.6763,0.09312 1.0644,0.376953 0.3881,0.283833 0.6231,0.898398 0.6231,1.25 0,0.298563 -0.1,0.705252 -0.3438,1.011719 -0.2441,0.306467 -0.5579,0.467711 -0.8242,0.558594 -0.5325,0.181766 -1.0026,0.185547 -1.6582,0.185547 h -0.4238 v 2.589843 2.589844 h 9.4511 9.4512 v -2.570312 -2.646485 l -0.5781,-0.03711 -1.6992,-0.109375 a 1.201931,1.201931 0 0 1 -1.0196,-0.710937 l -3.8066,-8.570313 -3.4902,-7.855469 -7.5235,-0.0059 z m -42.8379,5.177734 h 1.2929 c 2.4628,0 4.3806,2.084242 4.7715,4.691406 0.1699,1.13289 0.09,2.321643 -0.1601,3.400391 -0.2498,1.078748 -0.6108,2.053426 -1.4043,2.771484 -0.4127,0.373419 -0.8112,0.535674 -1.2813,0.714844 -0.47,0.17917 -0.9851,0.325244 -1.5039,0.408203 l -1.5254,0.244141 a 1.201931,1.201931 0 0 1 -1.3906,-1.1875 v -4.921875 -4.919922 a 1.201931,1.201931 0 0 1 1.2012,-1.201172 z m 48.0254,0.361328 c 0.599,0 0.8122,0.259584 0.9687,0.408203 0.1565,0.148619 0.2545,0.283728 0.3477,0.425782 0.1863,0.284106 0.337,0.597945 0.4648,0.951171 0.1924,0.531547 0.4714,1.270432 0.5977,1.582032 0.081,0.199109 0.1969,0.428122 0.164,0.86914 -0.033,0.441019 -0.4515,1.00098 -0.8007,1.175781 -0.6985,0.349604 -1.0615,0.240235 -1.7422,0.240235 -0.681,0 -1.0455,0.109526 -1.7442,-0.240235 -0.3493,-0.17488 -0.7661,-0.736806 -0.7988,-1.177734 -0.033,-0.440928 0.083,-0.668196 0.1641,-0.867187 0.1261,-0.311267 0.4051,-1.050446 0.5976,-1.582032 v -0.002 c 0.1278,-0.352571 0.2788,-0.665613 0.4649,-0.949218 0.093,-0.142039 0.1912,-0.277201 0.3476,-0.425782 0.1565,-0.148581 0.3694,-0.408203 0.9688,-0.408203 z"
     id="path2731"
     style="fill:#008fbe;fill-opacity:1;stroke-width:0.36108804" />
</svg>
