<?xml version="1.0" encoding="UTF-8" standalone="no"?>
<svg
   xmlns:dc="http://purl.org/dc/elements/1.1/"
   xmlns:cc="http://creativecommons.org/ns#"
   xmlns:rdf="http://www.w3.org/1999/02/22-rdf-syntax-ns#"
   xmlns:svg="http://www.w3.org/2000/svg"
   xmlns="http://www.w3.org/2000/svg"
   viewBox="0 0 37.943054 40"
   id="svg22"
   height="40"
   width="37.943054"
   version="1.1">
  <metadata
     id="metadata28">
    <rdf:RDF>
      <cc:Work
         rdf:about="">
        <dc:format>image/svg+xml</dc:format>
        <dc:type
           rdf:resource="http://purl.org/dc/dcmitype/StillImage" />
        <dc:title></dc:title>
      </cc:Work>
    </rdf:RDF>
  </metadata>
  <defs
     id="defs26" />
  <g
     transform="matrix(0.08405564,0,0,0.08405564,-5.5248056,-5.8279961)"
     id="Layer1001">
    <path
       d="m 296.4961,427.2076 27.2695,-26.0119 C 265.7386,349.1721 203.3781,313.626 118.8214,292.0704 c -14.1632,-3.5235 -27.4809,-6.9434 -41.1157,-9.5342 -3.2765,-0.6218 -6.4474,0.829 -9.3012,0.3108 l 0.2114,37.3079 c 84.5567,15.234 158.2266,49.951 214.5625,97.8294 z"
       style="fill:#009035;fill-rule:evenodd"
       id="path2" />
    <path
       d="m 341.6811,389.8816 31.7087,-20.4157 C 313.0375,313.7114 257.0187,278.269 177.9582,249.3554 c -32.1315,-10.7778 -63.7345,-18.4466 -95.549,-23.6282 -4.7563,-0.7255 -9.0898,-1.4509 -13.4234,-1.5545 l -1.1626,37.1005 c 55.7017,9.1197 116.8996,27.9809 163.4057,53.06 39.5303,20.7266 72.6131,43.1113 108.5496,75.652 0,0 1.9026,-0.1036 1.9026,-0.1036 z"
       style="fill:#e30016;fill-rule:evenodd"
       id="path4" />
    <path
       d="m 393.0853,358.2882 34.3511,-15.4413 C 371.4177,286.9888 320.1552,251.5464 255.9978,220.9747 199.7677,194.5483 130.0084,174.7544 67.1194,168.1219 l -0.1057,34.1989 c 8.6671,2.3835 18.6025,2.9017 27.798,5.3889 4.5449,0.4145 8.4557,1.5545 12.6835,2.2799 24.31,4.3526 48.303,10.4669 72.0846,18.5503 81.7028,28.499 136.876,62.387 197.9682,116.0688 5.1791,4.0416 9.8297,9.5342 14.6917,13.6795 0,0 0.8456,0 0.8456,0 z"
       style="fill:#009035;fill-rule:evenodd"
       id="path6" />
    <path
       d="m 440.6818,338.2876 c 24.2044,-8.7052 49.4657,-15.7522 74.5156,-20.623 l 0.7399,-40.0023 c -5.8133,0.2073 -13.212,1.8654 -19.2367,2.7981 -29.5948,5.9071 -60.9865,15.7522 -88.3617,27.1518 l 31.3917,30.6754 c 0,0 0.9512,0 0.9512,0 z"
       style="fill:#009035;fill-rule:evenodd"
       id="path8" />
    <path
       d="m 396.0046,292.044 c 27.5866,-12.5395 58.8725,-22.9028 90.1585,-29.5353 10.3582,-2.1763 20.3993,-4.0417 30.229,-5.5962 l 0.7399,-39.1732 c -28.7493,2.9017 -59.1897,10.9851 -88.5731,19.5866 -24.3101,8.0834 -47.2461,16.374 -68.3852,26.0118 z"
       style="fill:#e30016;fill-rule:evenodd"
       id="path10" />
    <path
       d="m 342.1888,252.4249 c 15.1145,-7.876 32.8714,-14.9231 49.677,-21.8665 40.3758,-15.1304 83.1826,-25.5973 124.9324,-32.3334 v -35.3388 c -11.3094,0 -24.31,3.109 -35.8308,4.9744 -62.2549,11.7105 -125.6724,35.9606 -174.8209,63.3196 z"
       style="fill:#009035;fill-rule:evenodd"
       id="path12" />
    <path
       d="m 283.296,217.7742 c 21.7733,1.7617 45.5549,-6.0107 60.2466,-19.483 16.1715,-15.0268 24.2043,-37.6187 22.7246,-60.8325 -2.3253,-25.1828 -15.643,-44.873 -34.9853,-57.3089 -21.6677,-12.9541 -50.6283,-14.405 -74.0928,-3.6272 -20.9278,10.2597 -36.6764,29.1208 -41.6441,53.2673 -4.3336,25.9082 4.9677,53.1636 23.9929,69.434 11.3095,10.0524 27.0581,16.2703 43.7581,18.5503 z"
       style="fill:#e30016;fill-rule:evenodd"
       id="path14" />
  </g>
  <text
     style="font-size:2.03509784px;stroke-width:0.16959149"
     x="-0.81433719"
     y="37.644432"
     id="text19">
    <tspan
       font-size="66.0000"
       id="tspan17"
       style="font-size:11.19303799px;font-family:'Arial Black';fill:#009035;stroke-width:0.16959149">Epagri</tspan>
  </text>
</svg>
