<?xml version="1.0" encoding="UTF-8" standalone="no"?>
<svg
   xmlns:dc="http://purl.org/dc/elements/1.1/"
   xmlns:cc="http://creativecommons.org/ns#"
   xmlns:rdf="http://www.w3.org/1999/02/22-rdf-syntax-ns#"
   xmlns:svg="http://www.w3.org/2000/svg"
   xmlns="http://www.w3.org/2000/svg"
   height="40"
   width="128.45731"
   xml:space="preserve"
   enable-background="new 0 0 214 114"
   viewBox="0 0 128.4573 40"
   y="0px"
   x="0px"
   id="Layer_1"
   version="1.1"><metadata
   id="metadata46"><rdf:RDF><cc:Work
       rdf:about=""><dc:format>image/svg+xml</dc:format><dc:type
         rdf:resource="http://purl.org/dc/dcmitype/StillImage" /><dc:title></dc:title></cc:Work></rdf:RDF></metadata><defs
   id="defs44">
	
	
	

</defs>

<g
   transform="matrix(0.49835902,0,0,0.49835902,-14.487727,37.957737)"
   id="g2766"><path
     id="path2741"
     d="m 240.01282,-5.5606748 c 1.88775,7.1535846 14.10926,5.88328353 14.10926,-2.2022788 V -39.216081 c -0.40578,-1.115928 -11.52078,-15.106822 -28.34655,0.277262 -0.14658,0.134064 -0.28581,0.278788 -0.42932,0.421695 -2.6951,-16.948732 15.27774,-33.797828 28.77587,-33.988936"
     style="font-style:normal;font-variant:normal;font-weight:bold;font-stretch:normal;font-size:40px;line-height:1.25;font-family:sans-serif;-inkscape-font-specification:'sans-serif Bold';letter-spacing:0px;word-spacing:0px;fill:none;fill-opacity:1;stroke:#da251d;stroke-width:7.31657362;stroke-linecap:round;stroke-linejoin:bevel;stroke-miterlimit:4;stroke-dasharray:none;stroke-opacity:1" /><path
     style="font-style:normal;font-variant:normal;font-weight:bold;font-stretch:normal;font-size:40px;line-height:1.25;font-family:sans-serif;-inkscape-font-specification:'sans-serif Bold';letter-spacing:0px;word-spacing:0px;fill:none;fill-opacity:1;stroke:#da251d;stroke-width:7.31657362;stroke-linecap:round;stroke-linejoin:bevel;stroke-miterlimit:4;stroke-dasharray:none;stroke-opacity:1"
     d="m 254.12208,-39.216081 c 0.40577,-1.115928 11.52077,-15.106822 28.34655,0.277262 0.14657,0.134064 0.28581,0.278788 0.42931,0.421695 2.69511,-16.948732 -15.27774,-33.797828 -28.77586,-33.988936"
     id="path2743" /><g
     id="text2783"
     style="font-style:normal;font-variant:normal;font-weight:bold;font-stretch:normal;font-size:41.67306519px;line-height:1.25;font-family:sans-serif;-inkscape-font-specification:'sans-serif Bold';letter-spacing:0px;word-spacing:0px;fill:#000000;fill-opacity:1;stroke:none;stroke-width:1.04182649"
     aria-label="i"><path
       id="path2789"
       style="stroke-width:1.04182649"
       d="m 250.46986,-34.267099 h 7.28464 v 22.789958 h -7.28464 z m 0,-8.871805 h 7.28464 v 5.941668 h -7.28464 z" /></g><path
     id="path2718"
     d="m 29.070864,-40.637428 h 20.292968 v 5.683593 H 36.590395 v 5.429688 h 12.011719 v 5.683594 H 36.590395 v 12.363281 h -7.519531 z"
     style="font-style:normal;font-variant:normal;font-weight:bold;font-stretch:normal;font-size:40px;line-height:1.25;font-family:sans-serif;-inkscape-font-specification:'sans-serif Bold';letter-spacing:0px;word-spacing:0px;fill:#000000;fill-opacity:1;stroke:none" /><path
     id="path2720"
     d="m 63.563051,-21.321022 q -2.1875,0 -3.300781,0.742187 -1.09375,0.742188 -1.09375,2.1875 0,1.328125 0.878906,2.089844 0.898438,0.742188 2.480469,0.742188 1.972656,0 3.320312,-1.40625 1.347657,-1.425782 1.347657,-3.554688 v -0.800781 z m 10.683594,-2.636719 v 12.480469 h -7.050781 v -3.242188 q -1.40625,1.992188 -3.164063,2.910157 -1.757812,0.898437 -4.277344,0.898437 -3.398437,0 -5.527343,-1.972656 -2.109375,-1.992188 -2.109375,-5.15625 0,-3.847656 2.636718,-5.644531 2.65625,-1.796875 8.320313,-1.796875 h 4.121094 v -0.546875 q 0,-1.660157 -1.308594,-2.421875 -1.308594,-0.78125 -4.082031,-0.78125 -2.246094,0 -4.179688,0.449218 -1.933594,0.449219 -3.59375,1.347657 v -5.332032 q 2.246094,-0.546875 4.511719,-0.820312 2.265625,-0.292969 4.53125,-0.292969 5.917969,0 8.535156,2.34375 2.636719,2.324219 2.636719,7.578125 z"
     style="font-style:normal;font-variant:normal;font-weight:bold;font-stretch:normal;font-size:40px;line-height:1.25;font-family:sans-serif;-inkscape-font-specification:'sans-serif Bold';letter-spacing:0px;word-spacing:0px;fill:#000000;fill-opacity:1;stroke:none" /><path
     id="path2722"
     d="m 80.789614,-41.867897 h 6.992187 v 30.390625 h -6.992187 z"
     style="font-style:normal;font-variant:normal;font-weight:bold;font-stretch:normal;font-size:40px;line-height:1.25;font-family:sans-serif;-inkscape-font-specification:'sans-serif Bold';letter-spacing:0px;word-spacing:0px;fill:#000000;fill-opacity:1;stroke:none" /><path
     id="path2724"
     d="m 94.539614,-41.867897 h 6.992186 v 30.390625 h -6.992186 z"
     style="font-style:normal;font-variant:normal;font-weight:bold;font-stretch:normal;font-size:40px;line-height:1.25;font-family:sans-serif;-inkscape-font-specification:'sans-serif Bold';letter-spacing:0px;word-spacing:0px;fill:#000000;fill-opacity:1;stroke:none" /><path
     style="font-style:normal;font-variant:normal;font-weight:bold;font-stretch:normal;font-size:40px;line-height:1.25;font-family:sans-serif;-inkscape-font-specification:'sans-serif Bold';letter-spacing:0px;word-spacing:0px;fill:#0d98de;fill-opacity:1;stroke:none"
     id="path2726"
     d="m 111.81885,-33.352272 c 0.92146,6.230236 7.66603,21.862483 0.0955,21.875 -7.57051,0.01252 -0.95776,-15.791322 -0.0955,-21.875 z m 0,-9.948588 c 0,0 6.2001,7.072751 0,7.136088 -6.20011,0.06334 0,-7.136088 0,-7.136088 z" /><path
     id="path2728"
     d="m 144.0318,-24.797585 v 13.320313 h -7.03125 v -2.167969 -8.027344 q 0,-2.832031 -0.13672,-3.90625 -0.11719,-1.074218 -0.42969,-1.582031 -0.41015,-0.683594 -1.11328,-1.054687 -0.70312,-0.390625 -1.60156,-0.390625 -2.1875,0 -3.4375,1.699218 -1.25,1.679688 -1.25,4.667969 v 10.761719 h -6.99219 v -21.875 h 6.99219 v 3.203125 q 1.58203,-1.914063 3.35938,-2.8125 1.77734,-0.917969 3.92578,-0.917969 3.78906,0 5.74218,2.324219 1.97266,2.324219 1.97266,6.757812 z"
     style="font-style:normal;font-variant:normal;font-weight:bold;font-stretch:normal;font-size:40px;line-height:1.25;font-family:sans-serif;-inkscape-font-specification:'sans-serif Bold';letter-spacing:0px;word-spacing:0px;fill:#000000;fill-opacity:1;stroke:none" /><path
     id="path2730"
     d="m 165.43805,-15.18821 q -1.44531,1.914063 -3.18359,2.8125 -1.73828,0.898438 -4.02344,0.898438 -4.00391,0 -6.62109,-3.144531 -2.61719,-3.164063 -2.61719,-8.046875 0,-4.902344 2.61719,-8.027344 2.61718,-3.144531 6.62109,-3.144531 2.28516,0 4.02344,0.898437 1.73828,0.898438 3.18359,2.832031 v -3.242187 h 7.03125 v 19.667969 q 0,5.2734372 -3.33984,8.0468747 -3.32032,2.7929688 -9.64844,2.7929688 -2.05078,0 -3.96484,-0.3125 -1.91407,-0.3125 -3.84766,-0.9570313 v -5.4492187 q 1.83594,1.0546875 3.59375,1.5625 1.75781,0.5273437 3.53516,0.5273437 3.4375,0 5.03906,-1.5039062 1.60156,-1.503906 1.60156,-4.707031 z m -4.60937,-13.613281 q -2.16797,0 -3.37891,1.601563 -1.21094,1.601562 -1.21094,4.53125 0,3.007812 1.17188,4.570312 1.17187,1.542969 3.41797,1.542969 2.1875,0 3.39843,-1.601563 1.21094,-1.601562 1.21094,-4.511718 0,-2.929688 -1.21094,-4.53125 -1.21093,-1.601563 -3.39843,-1.601563 z"
     style="font-style:normal;font-variant:normal;font-weight:bold;font-stretch:normal;font-size:40px;line-height:1.25;font-family:sans-serif;-inkscape-font-specification:'sans-serif Bold';letter-spacing:0px;word-spacing:0px;fill:#000000;fill-opacity:1;stroke:none" /><path
     id="path2732"
     d="m 204.12946,-27.707741 q 2.36328,0 3.3789,-0.878906 1.03516,-0.878906 1.03516,-2.890625 0,-1.992188 -1.03516,-2.851563 -1.01562,-0.859375 -3.3789,-0.859375 h -3.16407 v 7.480469 z m -3.16407,5.195313 v 11.035156 h -7.51953 v -29.160156 h 11.48438 q 5.76172,0 8.4375,1.933593 2.69531,1.933594 2.69531,6.113282 0,2.890625 -1.40625,4.746093 -1.38672,1.855469 -4.19922,2.734375 1.54297,0.351563 2.75391,1.601563 1.23047,1.230469 2.48047,3.75 l 4.08203,8.28125 h -8.00781 l -3.55469,-7.246094 q -1.07422,-2.1875 -2.1875,-2.988281 -1.09375,-0.800781 -2.92969,-0.800781 z"
     style="font-style:normal;font-variant:normal;font-weight:bold;font-stretch:normal;font-size:40px;line-height:1.25;font-family:sans-serif;-inkscape-font-specification:'sans-serif Bold';letter-spacing:0px;word-spacing:0px;fill:#000000;fill-opacity:1;stroke:none" /><path
     id="path2734"
     d="m 233.7193,-21.321022 q -2.1875,0 -3.30078,0.742187 -1.09375,0.742188 -1.09375,2.1875 0,1.328125 0.87891,2.089844 0.89843,0.742188 2.48046,0.742188 1.97266,0 3.32032,-1.40625 1.34765,-1.425782 1.34765,-3.554688 v -0.800781 z m 10.68359,-2.636719 v 12.480469 h -7.05078 v -3.242188 q -1.40625,1.992188 -3.16406,2.910157 -1.75781,0.898437 -4.27734,0.898437 -3.39844,0 -5.52735,-1.972656 -2.10937,-1.992188 -2.10937,-5.15625 0,-3.847656 2.63672,-5.644531 2.65625,-1.796875 8.32031,-1.796875 h 4.12109 v -0.546875 q 0,-1.660157 -1.30859,-2.421875 -1.30859,-0.78125 -4.08203,-0.78125 -2.2461,0 -4.17969,0.449218 -1.93359,0.449219 -3.59375,1.347657 v -5.332032 q 2.24609,-0.546875 4.51172,-0.820312 2.26562,-0.292969 4.53125,-0.292969 5.91797,0 8.53516,2.34375 2.63671,2.324219 2.63671,7.578125 z"
     style="font-style:normal;font-variant:normal;font-weight:bold;font-stretch:normal;font-size:40px;line-height:1.25;font-family:sans-serif;-inkscape-font-specification:'sans-serif Bold';letter-spacing:0px;word-spacing:0px;fill:#000000;fill-opacity:1;stroke:none" /><path
     id="path2738"
     d="m 286.68805,-24.797585 v 13.320313 h -7.03125 v -2.167969 -8.027344 q 0,-2.832031 -0.13672,-3.90625 -0.11719,-1.074218 -0.42969,-1.582031 -0.41015,-0.683594 -1.11328,-1.054687 -0.70312,-0.390625 -1.60156,-0.390625 -2.1875,0 -3.4375,1.699218 -1.25,1.679688 -1.25,4.667969 v 10.761719 h -6.99219 v -21.875 h 6.99219 v 3.203125 q 1.58203,-1.914063 3.35938,-2.8125 1.77734,-0.917969 3.92578,-0.917969 3.78906,0 5.74218,2.324219 1.97266,2.324219 1.97266,6.757812 z"
     style="font-style:normal;font-variant:normal;font-weight:bold;font-stretch:normal;font-size:40px;line-height:1.25;font-family:sans-serif;-inkscape-font-specification:'sans-serif Bold';letter-spacing:0px;word-spacing:0px;fill:#000000;fill-opacity:1;stroke:none" /></g></svg>