<?xml version="1.0" encoding="UTF-8" standalone="no"?>
<svg
   xmlns:dc="http://purl.org/dc/elements/1.1/"
   xmlns:cc="http://creativecommons.org/ns#"
   xmlns:rdf="http://www.w3.org/1999/02/22-rdf-syntax-ns#"
   xmlns:svg="http://www.w3.org/2000/svg"
   xmlns="http://www.w3.org/2000/svg"
   xml:space="preserve"
   enable-background="new 0 0 590 132"
   viewBox="0 0 157.29414 35"
   height="35"
   width="157.29414"
   y="0px"
   x="0px"
   id="Layer_1"
   version="1.1"><metadata
   id="metadata23"><rdf:RDF><cc:Work
       rdf:about=""><dc:format>image/svg+xml</dc:format><dc:type
         rdf:resource="http://purl.org/dc/dcmitype/StillImage" /><dc:title></dc:title></cc:Work></rdf:RDF></metadata><defs
   id="defs21" />
<g
   transform="scale(0.26657269)"
   id="g16">
	<path
   style="clip-rule:evenodd;fill-rule:evenodd"
   id="path2"
   d="m 222.514,64.421 h 15.056 c 14.897,17.75 34.549,53.409 54.518,53.409 7.606,0 10.935,-3.17 10.935,-4.438 0,-0.635 -0.633,-0.951 -1.268,-0.951 -1.742,0.633 -3.328,0.633 -5.389,0.633 -11.727,0 -27.733,-20.285 -49.128,-50.555 12.837,-3.011 22.821,-10.776 22.821,-26.466 0,-19.81 -19.493,-25.198 -39.62,-25.198 h -22.504 c 4.596,6.498 5.071,5.864 5.071,17.75 v 71.475 c 0,11.885 -0.475,11.252 -5.071,17.75 h 19.652 c -4.596,-6.498 -5.072,-5.865 -5.072,-17.75 V 64.421 Z m 0,-4.754 V 15.61 h 9.667 c 19.969,0 28.368,9.667 28.368,21.395 0,16.007 -13.154,22.663 -29.478,22.663 h -8.557 z" />
	<path
   id="path4"
   d="m 377.41,96.594 c -4.438,3.961 -10.459,16.48 -35.023,16.48 -15.373,0 -16.482,-5.229 -16.482,-17.273 V 60.776 h 26.15 c 7.924,0 8.24,0.951 12.52,4.754 V 51.268 c -4.279,3.962 -5.863,4.754 -12.045,4.754 H 325.905 V 15.61 h 17.115 c 17.275,0 17.91,2.377 22.506,10.143 V 10.855 h -56.895 c 7.764,5.071 7.764,9.826 7.764,17.75 v 71.475 c 0,8.082 0,12.52 -7.764,17.75 h 61.174 z" />
	<path
   id="path6"
   d="m 481.578,99.762 c -4.596,5.23 -12.361,15.689 -32.172,15.689 -28.684,0 -49.604,-22.662 -49.604,-51.664 0,-29.477 19.652,-48.97 47.545,-48.97 22.662,0 29.793,11.886 33.279,16.482 V 12.916 c -3.01,-0.792 -19.176,-4.438 -29.951,-4.438 -28.053,0 -61.65,18.384 -61.65,57.053 0,33.44 29.32,54.676 56.42,54.676 18.066,0 23.139,-2.537 34.232,-6.023 z" />
	<path
   style="clip-rule:evenodd;fill-rule:evenodd"
   id="path8"
   d="m 539.98,8.478 -39.621,93.344 c -4.119,9.668 -4.596,10.461 -12.043,16.008 h 17.908 c -2.061,-1.586 -3.646,-2.061 -3.646,-5.865 0,-1.742 1.109,-5.389 2.219,-7.924 l 14.105,-33.598 h 36.449 l 14.264,35.816 c 0.635,1.586 1.27,3.17 1.27,4.754 0,3.646 -1.744,4.914 -3.328,6.816 h 22.504 c -5.072,-2.695 -6.656,-2.219 -11.412,-14.264 z m 13.629,57.211 h -32.646 l 16.641,-39.778 z" />
	<path
   id="path10"
   d="m 36.768,15.61 c 17.433,0 18.067,2.377 22.663,10.143 V 10.855 H 0 c 7.766,5.071 7.766,9.826 7.766,17.75 v 71.475 c 0,11.885 -0.476,11.252 -5.072,17.75 h 19.652 c -4.596,-6.498 -5.071,-5.865 -5.071,-17.75 V 62.995 h 28.21 c 7.923,0 8.241,0.951 12.52,4.755 V 53.486 C 53.726,57.448 52.142,58.24 45.961,58.24 H 17.274 V 15.61 Z" />
	<path
   style="fill:#e73137"
   id="path12"
   d="m 91.178,23.517 c -2.491,-4.024 -1.595,-9.179 2.112,-11.679 3.607,-2.433 8.564,-1.467 11.408,2.104 5.464,-2.781 11.437,-4.709 17.741,-5.608 0.263,-4.65 3.856,-8.334 8.273,-8.334 4.432,0 8.052,3.706 8.297,8.376 6.174,0.913 12.027,2.813 17.393,5.536 2.884,-3.65 7.934,-4.603 11.549,-2.071 3.633,2.544 4.472,7.664 1.986,11.631 3.838,3.647 7.17,7.822 9.88,12.409 4.387,-1.584 9.191,0.283 10.92,4.354 1.756,4.139 -0.326,9.001 -4.656,10.999 1.076,4.381 1.646,8.961 1.646,13.675 h -8.821 c 0,-26.691 -21.637,-48.329 -48.329,-48.329 -26.691,0 -48.313,21.637 -48.313,48.329 h -8.82 c 0,-4.703 0.567,-9.273 1.638,-13.646 -4.296,-1.951 -6.423,-6.714 -4.752,-10.851 1.676,-4.149 6.549,-6.116 11.006,-4.509 2.7,-4.576 6.019,-8.743 9.842,-12.386 z" />
	<path
   style="fill:#009fe3"
   id="path14"
   d="m 79.173,89.91 c -2.884,-1.168 -9.988,-4.043 -11.531,-4.658 -0.696,-0.279 -1.12,-1.379 -0.399,-2.17 l 7.114,-7.855 c -0.61,-3.348 -0.929,-6.795 -0.929,-10.318 h 8.821 c 0,26.691 21.637,48.328 48.329,48.328 26.692,0 48.344,-21.637 48.344,-48.328 h 8.821 c 0,3.502 -0.315,6.932 -0.918,10.26 1.938,2.879 5.631,8.359 6.491,9.623 0.421,0.621 0.157,1.77 -0.883,2.023 l -10.15,2.498 c -2.801,5.92 -6.589,11.281 -11.151,15.871 -0.003,3.457 -0.006,10.125 0,11.662 0.002,0.75 -0.859,1.555 -1.862,1.184 l -10.009,-3.678 c -6.4,3.719 -13.588,6.232 -21.251,7.227 -2.039,2.908 -5.603,7.994 -6.445,9.205 -0.427,0.617 -1.596,0.781 -2.204,-0.098 l -6.348,-9.125 c -7.561,-1 -14.654,-3.477 -20.982,-7.133 -3.372,1.158 -9.154,3.146 -10.536,3.629 -0.708,0.246 -1.75,-0.307 -1.725,-1.375 l 0.235,-11.525 C 85.61,100.727 81.936,95.58 79.173,89.91 Z" />
</g>
</svg>