<?xml version="1.0" encoding="UTF-8" standalone="no"?>
<svg
   xmlns:dc="http://purl.org/dc/elements/1.1/"
   xmlns:cc="http://creativecommons.org/ns#"
   xmlns:rdf="http://www.w3.org/1999/02/22-rdf-syntax-ns#"
   xmlns:svg="http://www.w3.org/2000/svg"
   xmlns="http://www.w3.org/2000/svg"
   height="20"
   width="170.54784"
   xml:space="preserve"
   viewBox="0 0 170.54784 20.000001"
   y="0px"
   x="0px"
   id="Capa_1"
   version="1.1"><metadata
   id="metadata51"><rdf:RDF><cc:Work
       rdf:about=""><dc:format>image/svg+xml</dc:format><dc:type
         rdf:resource="http://purl.org/dc/dcmitype/StillImage" /><dc:title></dc:title></cc:Work></rdf:RDF></metadata><defs
   id="defs49" />
<style
   id="style2"
   type="text/css">
	.st0{fill:#4579B2;}
	.st1{fill:#E8E8E8;}
	.st2{opacity:0.25;enable-background:new    ;}
	.st3{fill:#2D5B87;}
	.st4{fill:#324A63;}
	.st5{fill:#E0C136;}
	.st6{fill:#FFFFFF;}
	.st7{fill:#5592BF;}
	.st8{fill:#5592C0;}
</style>

<g
   transform="translate(-8.271004e-7,-20.292692)"
   id="text834-5"
   style="font-style:italic;font-variant:normal;font-weight:bold;font-stretch:normal;font-size:53.82391739px;line-height:1.25;font-family:sans-serif;-inkscape-font-specification:'sans-serif Bold Italic';letter-spacing:0px;word-spacing:0px;fill:#d40000;fill-opacity:1;stroke:none;stroke-width:1.34559798"
   aria-label="UTURNET"><path
     id="path862"
     style="fill:#d40000;stroke-width:0.66791165"
     d="m 32.08663,20.437975 h 5.022382 l -2.269856,11.662363 q -0.130451,0.626167 -0.195677,1.108838 -0.05218,0.482671 -0.05218,0.847935 0,1.278424 0.678348,1.917637 0.691392,0.626166 2.048088,0.626166 1.826321,0 2.804707,-1.017521 0.978386,-1.030567 1.448011,-3.47001 l 2.269856,-11.675408 h 5.022382 l -2.269856,11.675408 q -0.847935,4.304899 -3.222152,6.248627 -2.361172,1.930682 -6.770432,1.930682 -3.456964,0 -5.257195,-1.474102 -1.80023,-1.487147 -1.80023,-4.304899 0,-0.469626 0.06523,-1.043612 0.06523,-0.587032 0.208722,-1.356696 z" /><path
     id="path864"
     style="fill:#d40000;stroke-width:0.66791165"
     d="m 51.471723,20.437975 h 17.950124 l -0.743574,3.796139 H 62.207878 L 59.155314,39.914383 H 54.13293 l 3.052568,-15.680269 h -6.470394 z" /><path
     id="path866"
     style="fill:#d40000;stroke-width:0.66791165"
     d="m 72.004786,20.437975 h 5.022386 l -2.269866,11.662363 q -0.130447,0.626167 -0.195673,1.108838 -0.0522,0.482671 -0.0522,0.847935 0,1.278424 0.678346,1.917637 0.691394,0.626166 2.048087,0.626166 1.82632,0 2.804706,-1.017521 0.978393,-1.030567 1.44802,-3.47001 l 2.269853,-11.675408 h 5.022386 l -2.269866,11.675408 q -0.847927,4.304899 -3.222147,6.248627 -2.361173,1.930682 -6.770432,1.930682 -3.45696,0 -5.257193,-1.474102 -1.800233,-1.487147 -1.800233,-4.304899 0,-0.469626 0.0652,-1.043612 0.0652,-0.587032 0.20872,-1.356696 z" /><path
     id="path868"
     style="fill:#d40000;stroke-width:0.66791165"
     d="m 99.164784,29.073864 q 1.708916,0 2.582936,-0.795754 0.88708,-0.795754 0.88708,-2.335082 0,-0.96534 -0.61313,-1.408876 -0.60007,-0.45658 -1.90459,-0.45658 h -2.074183 l -0.991427,4.996292 z m -2.778614,3.470009 -1.448013,7.37051 h -5.022386 l 3.79614,-19.476408 h 7.422689 q 3.20911,0 4.86584,1.200154 1.65674,1.200154 1.65674,3.535235 0,2.361173 -1.30452,3.887454 -1.30452,1.526283 -3.53523,1.74805 1.01752,0.208723 1.69587,1.043613 0.67834,0.821844 1.1871,2.530758 l 1.65674,5.531144 h -4.99629 l -1.46106,-4.83975 q -0.44353,-1.448012 -1.082747,-1.982863 -0.626166,-0.547897 -1.826319,-0.547897 z" /><path
     id="path870"
     style="fill:#aa0000;stroke-width:0.66791165"
     d="m 114.27107,20.437975 h 5.60941 l 4.46145,13.488684 2.62207,-13.488684 h 4.74843 l -3.79614,19.476408 h -5.60941 l -4.46144,-13.488684 -2.60903,13.488684 h -4.76148 z" /><path
     id="path872"
     style="fill:#aa0000;stroke-width:0.66791165"
     d="m 136.65655,20.437975 h 13.54086 l -0.74357,3.796139 h -8.51849 l -0.70444,3.626551 h 8.02277 l -0.75662,3.796139 h -8.00972 l -0.86098,4.46144 h 8.79243 l -0.71748,3.796139 h -13.8409 z" /><path
     id="path874"
     style="fill:#aa0000;stroke-width:0.66791165"
     d="m 152.59771,20.437975 h 17.95013 l -0.74358,3.796139 h -6.47039 l -3.05257,15.680269 h -5.02238 l 3.05257,-15.680269 h -6.4704 z" /></g>
<g
   transform="matrix(0.680885,0,0,0.680885,15.08926,-62.945499)"
   id="text842"
   style="font-style:italic;font-variant:normal;font-weight:bold;font-stretch:normal;font-size:40px;line-height:1.25;font-family:sans-serif;-inkscape-font-specification:'sans-serif Bold Italic';letter-spacing:0px;word-spacing:0px;fill:#d40000;fill-opacity:1;stroke:none"
   aria-label="F"><path
     style="fill:#d40000"
     id="path844"
     d="M -2.2518317,92.446594 H 18.021605 l -1.113281,5.683594 H 4.1544183 l -1.054688,5.429682 H 15.111449 l -1.132813,5.6836 H 1.9864493 l -2.402344,12.36328 h -7.519531 l -14.2258203,-1.82251 14.9343399,-1.82251 -14.2258199,-1.82251 14.93434,-1.82251 -14.22582,-1.82251 14.9343401,-1.82251 -14.2258201,-1.82251 14.9343404,-1.82251 -14.2258194,-1.82251 14.9343395,-1.82251 -14.2258195,-1.82251 14.9343396,-1.822507 -14.2258196,-1.822508 14.9343397,-1.822512 -14.2258197,-1.822508 z" /></g></svg>