<?xml version="1.0" encoding="UTF-8" standalone="no"?>
<svg
   xmlns:dc="http://purl.org/dc/elements/1.1/"
   xmlns:cc="http://creativecommons.org/ns#"
   xmlns:rdf="http://www.w3.org/1999/02/22-rdf-syntax-ns#"
   xmlns:svg="http://www.w3.org/2000/svg"
   xmlns="http://www.w3.org/2000/svg"
   height="35"
   width="175.53448"
   xml:space="preserve"
   enable-background="new 0 0 214 114"
   viewBox="0 0 175.53448 35"
   y="0px"
   x="0px"
   id="Layer_1"
   version="1.1"><metadata
   id="metadata46"><rdf:RDF><cc:Work
       rdf:about=""><dc:format>image/svg+xml</dc:format><dc:type
         rdf:resource="http://purl.org/dc/dcmitype/StillImage" /><dc:title></dc:title></cc:Work></rdf:RDF></metadata><defs
   id="defs44" />
<g
   transform="translate(90.588785,-13.524659)"
   id="g39">
	
	
	
<path
   id="path862"
   d="m -73.609705,32.67275 c 0.34918,-1.02479 0.80339,-1.967399 1.00935,-2.094691 0.51665,-0.319304 0.4713,0.02533 -0.22154,1.683493 l -0.59602,1.426476 51.72349,0.109572 c 33.57829,0.07113 52.23077,-0.03537 53.16951,-0.30358 1.63785,-0.467956 3.12333,-2.758757 2.50519,-3.863312 -0.19276,-0.34444 -1.53247,-1.196408 -2.97714,-1.893258 -2.52543,-1.218164 -2.63139,-1.330962 -2.749,-2.926292 -0.30918,-4.193855 6.25294,-7.730789 10.81022,-5.826637 0.93674,0.391395 1.5909,0.444365 2.08348,0.168706 0.3949,-0.221003 0.80587,-0.313966 0.91325,-0.206588 0.31258,0.31259 -2.03762,4.838326 -2.51254,4.838326 -0.23682,0 -0.44784,-0.681184 -0.46892,-1.513745 -0.0514,-2.029178 -1.44221,-3.200413 -3.41943,-2.879551 -1.99992,0.324543 -3.42878,1.78036 -3.27496,3.336748 0.1071,1.083663 0.47327,1.410841 2.87544,2.569309 1.60109,0.772134 2.8601,1.665855 3.0094,2.136244 0.47016,1.48137 -0.97319,4.134343 -3.02428,5.558811 l -1.91152,1.327542 -53.78942,0.107836 -53.78943,0.107837 z m 113.37361,1.076032 c -0.61173,-1.143033 1.22356,-3.041762 2.76822,-2.863896 2.35922,0.27166 1.25714,3.642012 -1.1909,3.642012 -0.71408,0 -1.32117,-0.299485 -1.57732,-0.778116 z m 3.86616,0.418328 c 0.12231,-0.197883 0.74011,-0.463337 1.37291,-0.589898 1.11251,-0.222502 4.53506,-3.529527 11.88092,-11.479888 1.68712,-1.825965 3.36542,-3.248589 4.02822,-3.414565 0.62489,-0.156477 1.13254,-0.141525 1.12811,0.03322 -0.004,0.174754 -0.28145,2.734675 -0.6156,5.688706 -0.80232,7.092907 -0.80139,9.295905 0.004,9.295905 0.34085,0 0.61973,0.185918 0.61973,0.413151 0,0.247891 -1.65261,0.413151 -4.13152,0.413151 -2.4789,0 -4.13151,-0.16526 -4.13151,-0.413151 0,-0.227233 0.41832,-0.415998 0.92959,-0.419481 1.50368,-0.01025 1.97503,-0.562683 2.22558,-2.608522 l 0.23615,-1.929813 h -2.90756 -2.90754 l -1.50899,1.841518 c -1.46751,1.790905 -1.59614,2.703147 -0.38113,2.703147 0.32744,0 0.59534,0.185918 0.59534,0.413151 0,0.241255 -1.3853,0.413151 -3.32959,0.413151 -1.83128,0 -3.22953,-0.161906 -3.10724,-0.359788 z m 13.63483,-6.767072 c 0.37418,-1.829037 0.54929,-4.888682 0.27297,-4.769435 -0.38895,0.167851 -4.99206,5.229058 -4.99206,5.488859 0,0.115592 1.01901,0.210166 2.26446,0.210166 2.01655,0 2.28528,-0.101771 2.45463,-0.92959 z m 7.38684,6.442343 c -0.14447,-0.376488 0.008,-1.16664 0.33867,-1.755894 0.46638,-0.830921 0.92233,-1.071376 2.03153,-1.071376 1.1837,0 1.45372,0.166087 1.56668,0.963663 0.0751,0.530013 -0.18614,1.320165 -0.58047,1.755894 -0.89207,0.985726 -2.99361,1.053164 -3.35641,0.107713 z m -90.84791,-2.250944 c -2.47226,-0.573735 -4.10499,-2.437729 -4.05717,-4.631864 0.0829,-3.803354 3.088,-7.804631 7.52969,-10.025675 2.41916,-1.20969 4.37422,-1.38078 11.08469,-0.970038 l 2.12601,0.130135 -1.28509,2.60603 c -1.48913,3.019795 -2.3472,3.379302 -2.3472,0.983411 0,-2.302793 -1.5308,-3.486938 -4.18201,-3.234974 -2.42027,0.230014 -4.20845,1.497285 -5.91646,4.192956 -2.46891,3.89656 -3.07087,7.68526 -1.4536,9.148865 1.7193,1.555944 5.83959,0.741557 8.81518,-1.742337 1.49436,-1.247432 1.96684,-0.890952 0.66117,0.498859 -2.28354,2.43073 -7.44757,3.86328 -10.97521,3.044632 z m 17.18244,0.178667 c -0.56808,-0.09973 -1.6443,-0.373666 -2.3916,-0.608762 -1.00608,-0.316503 -1.51803,-0.295246 -1.97246,0.0819 -0.33754,0.280138 -0.71313,0.409937 -0.83462,0.288438 -0.31639,-0.316383 2.17759,-5.680962 2.64106,-5.680962 0.21245,0 0.49947,0.707963 0.63783,1.573251 0.14063,0.879434 0.69398,1.988869 1.25473,2.515674 1.98076,1.860821 6.9434404,0.889671 7.5369104,-1.474901 0.39787,-1.585257 -0.23405,-2.280913 -3.1366604,-3.452986 -3.00342,-1.212789 -4.319,-2.556336 -3.94851,-4.032478 1.00844,-4.017954 6.17733,-6.23349 11.7726204,-5.046089 1.98835,0.421956 2.59987,0.423253 3.10194,0.0066 0.8854501,-0.734855 0.7796101,-0.04313 -0.40231,2.629402 -1.19021,2.691286 -2.27754,3.124632 -2.27754,0.907698 0,-1.051987 -0.29211,-1.646548 -1.13617,-2.312623 -1.59179985,-1.256132 -4.43248,-0.943088 -5.7928004,0.638369 -1.79412,2.085798 -1.13672,2.917823 3.93600055,4.981536 2.16458985,0.880611 2.71455985,1.510667 2.67052985,3.059418 -0.10141,3.566371 -6.5193404,6.82878 -11.6589504,5.926543 z m -60.52665,-0.548417 c -0.14398,-0.232963 0.19102,-0.413151 0.76813,-0.413151 0.5629,0 1.32544,-0.115877 1.69452,-0.257505 0.76647,-0.294126 6.94494,-12.861529 6.59857,-13.421956 -0.12498,-0.202225 -0.48417,-0.367684 -0.7982,-0.367684 -0.31403,0 -0.68264,-0.180712 -0.81915,-0.401579 -0.15809,-0.255794 4.40779,-0.443278 12.57695,-0.516439 7.05383,-0.06318 12.82504,0.0037 12.82492,0.149024 -1.2e-4,0.145136 -0.67352,0.390192 -1.49643,0.544574 l -1.49621,0.280691 0.28205,2.55406 c 0.36249,3.28234 0.66067,4.479107 1.07835,4.327947 0.61353,-0.222035 7.41614,-6.157306 7.41614,-6.470578 0,-0.169504 -0.51128,-0.510217 -1.13617,-0.757145 -0.95342,-0.376745 -0.53811,-0.454533 2.5822,-0.483648 l 3.71836,-0.0347 -2.29703,1.126907 c -4.30079,2.109943 -10.40328,7.690242 -11.78561,10.777114 -1.05928,2.365481 -1.00642,2.950908 0.26646,2.950908 0.44105,0 0.80191,0.185919 0.80191,0.413152 0,0.551553 -9.36817,0.551553 -9.70905,0 -0.14398,-0.232964 0.19102,-0.413152 0.76813,-0.413152 1.78128,0 2.34022,-0.455962 3.58726,-2.926329 l 1.21615,-2.409193 -0.76473,-3.887344 c -0.42061,-2.138043 -0.89502,-4.098157 -1.05426,-4.355814 -0.62973,-1.018918 -1.88093,-0.459924 -2.7401,1.224179 -0.94237,1.847204 -1.18139,1.825798 -1.82435,-0.16336 -0.42322,-1.309313 -0.45774,-1.323935 -3.40873,-1.443811 l -2.98119,-0.121098 -1.46019,2.899557 c -0.80311,1.594756 -1.4602,3.074162 -1.4602,3.287567 0,0.47766 3.1642,0.150312 4.27059,-0.441812 0.44386,-0.237541 1.25533,-0.922207 1.80327,-1.521473 l 0.99626,-1.089579 -0.28373,1.032878 c -0.46792,1.703404 -2.63661,5.78412 -3.07397,5.78412 -0.22397,0 -0.40721,-0.537861 -0.40721,-1.195251 0,-1.299662 -0.58689,-1.696808 -2.5075,-1.696808 -1.07386,0 -1.3564,0.309636 -2.67902,2.936022 -1.55608,3.089959 -1.59831,4.087549 -0.17303,4.087549 0.47501,0 0.74875,0.185919 0.60831,0.413152 -0.14491,0.23448 -2.19963,0.413151 -4.75123,0.413151 -2.55161,0 -4.60633,-0.178671 -4.75124,-0.413151 z m 70.44228055,0.05164 c 0,-0.198829 0.60422985,-0.476925 1.34273985,-0.617992 1.05126,-0.200804 2.91229,-1.87307 8.5728896,-7.703333 5.60597,-5.773993 7.46217,-7.445012 8.26303,-7.438662 l 1.03287,0.0082 -0.14391,7.464984 c -0.14061,7.293269 -0.12398,7.470197 0.72301,7.691687 2.09337,0.547429 0.52019,0.956639 -3.67773,0.956639 -2.75434,0 -4.54466,-0.162757 -4.54466,-0.413151 0,-0.227233 0.35663,-0.413151 0.79251,-0.413151 1.73872,0 2.09955,-0.433615 2.09955,-2.523111 v -2.021553 l -3.20193,0.0074 -3.2019196,0.0074 -1.3427399,1.617372 c -1.6434501,1.979581 -1.7348901,2.912394 -0.28548,2.912394 0.59963,0 0.9467399,0.178828 0.8019199,0.413151 -0.3133299,0.50697 -7.23014985,0.556379 -7.23014985,0.05164 z M 15.694585,22.442219 c 0.084,-1.533826 -0.003,-2.786968 -0.19311,-2.784766 -0.19023,0.0021 -1.52833,1.31259 -2.97356,2.911975 l -2.6277096,2.907965 2.8208196,-0.123201 2.82082,-0.123202 z"
   style="fill:#d72621;fill-opacity:1;stroke-width:0.41315126" /><g
   id="text868"
   style="font-style:normal;font-variant:normal;font-weight:bold;font-stretch:normal;font-size:11.81538486px;line-height:1.25;font-family:sans-serif;-inkscape-font-specification:'sans-serif Bold';letter-spacing:0px;word-spacing:0px;fill:#000000;fill-opacity:1;stroke:none;stroke-width:0.29538462"
   aria-label="Estación Meteorológica"><path
     id="path815"
     style="stroke-width:0.29538462"
     d="m -79.67058,36.82305 h 5.994231 v 1.678846 h -3.773077 v 1.603847 h 3.548077 v 1.678846 h -3.548077 v 1.973077 h 3.9 v 1.678846 h -6.121154 z" /><path
     id="path817"
     style="stroke-width:0.29538462"
     d="m -66.637888,39.176896 v 1.569231 q -0.663461,-0.276923 -1.280769,-0.415384 -0.617307,-0.138462 -1.165384,-0.138462 -0.588462,0 -0.876923,0.15 -0.282693,0.144231 -0.282693,0.45 0,0.248077 0.213462,0.380769 0.219231,0.132693 0.778846,0.196154 l 0.363461,0.05192 q 1.586539,0.201923 2.134616,0.663462 0.548077,0.461538 0.548077,1.448077 0,1.032692 -0.761539,1.551923 -0.761538,0.519231 -2.273077,0.519231 -0.640384,0 -1.326923,-0.103846 -0.680769,-0.09808 -1.401923,-0.3 v -1.569231 q 0.617308,0.3 1.263462,0.45 0.651923,0.15 1.321154,0.15 0.605769,0 0.911538,-0.167308 0.305769,-0.167308 0.305769,-0.496154 0,-0.276923 -0.213461,-0.409615 -0.207693,-0.138462 -0.836539,-0.213462 l -0.363461,-0.04615 q -1.378846,-0.173077 -1.932693,-0.640384 -0.553846,-0.467308 -0.553846,-1.419231 0,-1.026923 0.703846,-1.523077 0.703847,-0.496154 2.157693,-0.496154 0.571154,0 1.2,0.08654 0.628846,0.08654 1.367307,0.271153 z" /><path
     id="path819"
     style="stroke-width:0.29538462"
     d="m -62.391734,37.140358 v 1.834615 h 2.128847 v 1.476924 h -2.128847 v 2.740384 q 0,0.45 0.178847,0.611539 0.178846,0.155769 0.709615,0.155769 h 1.061538 v 1.476923 h -1.771153 q -1.223077,0 -1.736539,-0.507692 -0.507692,-0.513462 -0.507692,-1.736539 v -2.740384 h -1.026923 v -1.476924 h 1.026923 v -1.834615 z" /><path
     id="path821"
     style="stroke-width:0.29538462"
     d="m -56.097502,42.52882 q -0.646154,0 -0.975,0.21923 -0.323077,0.219231 -0.323077,0.646154 0,0.392308 0.259615,0.617308 0.265385,0.219231 0.732693,0.219231 0.582692,0 0.980769,-0.415385 0.398077,-0.421154 0.398077,-1.05 V 42.52882 Z m 3.155769,-0.778847 v 3.686539 h -2.082692 V 44.47882 q -0.415385,0.588461 -0.934616,0.859615 -0.51923,0.265385 -1.263461,0.265385 -1.003846,0 -1.632693,-0.582693 -0.623077,-0.588461 -0.623077,-1.523077 0,-1.136538 0.778847,-1.667307 0.784615,-0.53077 2.457692,-0.53077 h 1.217308 v -0.161538 q 0,-0.490385 -0.386539,-0.715385 -0.386538,-0.230769 -1.205769,-0.230769 -0.663462,0 -1.234615,0.132692 -0.571154,0.132693 -1.061539,0.398077 v -1.575 q 0.663462,-0.161538 1.332692,-0.242307 0.669231,-0.08654 1.338462,-0.08654 1.748077,0 2.521154,0.692308 0.778846,0.686538 0.778846,2.238461 z" /><path
     id="path823"
     style="stroke-width:0.29538462"
     d="m -45.787887,39.176896 v 1.684616 q -0.421154,-0.288462 -0.848077,-0.426923 -0.421154,-0.138462 -0.876923,-0.138462 -0.865384,0 -1.35,0.507693 -0.478846,0.501923 -0.478846,1.407692 0,0.905769 0.478846,1.413461 0.484616,0.501924 1.35,0.501924 0.484616,0 0.917308,-0.144231 0.438461,-0.144231 0.807692,-0.426923 v 1.690384 q -0.484615,0.178847 -0.986538,0.265385 -0.496154,0.09231 -0.998077,0.09231 -1.748077,0 -2.734616,-0.894231 -0.986538,-0.9 -0.986538,-2.498077 0,-1.598077 0.986538,-2.492308 0.986539,-0.9 2.734616,-0.9 0.507692,0 0.998077,0.09231 0.496154,0.08654 0.986538,0.265384 z" /><path
     id="path825"
     style="stroke-width:0.29538462"
     d="m -43.993658,38.974973 h 2.065385 v 6.461539 h -2.065385 z m 0,-2.515384 h 2.065385 v 1.684615 h -2.065385 z" /><path
     id="path827"
     style="stroke-width:0.29538462"
     d="m -36.857119,40.296127 q -0.686539,0 -1.05,0.496154 -0.357693,0.490385 -0.357693,1.419231 0,0.928846 0.357693,1.425 0.363461,0.490385 1.05,0.490385 0.675,0 1.032692,-0.490385 0.357692,-0.496154 0.357692,-1.425 0,-0.928846 -0.357692,-1.419231 -0.357692,-0.496154 -1.032692,-0.496154 z m 0,-1.476923 q 1.667307,0 2.601923,0.9 0.940385,0.9 0.940385,2.492308 0,1.592308 -0.940385,2.492308 -0.934616,0.9 -2.601923,0.9 -1.673077,0 -2.619231,-0.9 -0.940385,-0.9 -0.940385,-2.492308 0,-1.592308 0.940385,-2.492308 0.946154,-0.9 2.619231,-0.9 z m 0.905769,-2.832692 h 1.632692 l -2.128846,2.169231 h -1.130769 z" /><path
     id="path829"
     style="stroke-width:0.29538462"
     d="m -25.312888,41.501897 v 3.934615 h -2.076923 v -0.640385 -2.371154 q 0,-0.836538 -0.04038,-1.153846 -0.03462,-0.317307 -0.126923,-0.467307 -0.121154,-0.201923 -0.328846,-0.311539 -0.207692,-0.115384 -0.473077,-0.115384 -0.646154,0 -1.015384,0.501923 -0.369231,0.496153 -0.369231,1.378846 v 3.178846 h -2.065385 v -6.461539 h 2.065385 v 0.946154 q 0.467307,-0.565384 0.992307,-0.830769 0.525,-0.271154 1.159616,-0.271154 1.119231,0 1.696154,0.686539 0.582692,0.686538 0.582692,1.996154 z" /><path
     id="path831"
     style="stroke-width:0.29538462"
     d="m -19.185965,36.82305 h 2.826923 l 1.961539,4.609616 1.973077,-4.609616 h 2.8211536 v 8.613462 h -2.0999996 v -6.3 l -1.984616,4.644231 h -1.407692 l -1.984616,-4.644231 v 6.3 h -2.105769 z" /><path
     id="path833"
     style="stroke-width:0.29538462"
     d="m -1.0590426,42.188435 v 0.588462 h -4.8288462 q 0.075,0.726923 0.525,1.090384 0.45,0.363462 1.2576923,0.363462 0.6519231,0 1.3326924,-0.190385 0.6865384,-0.196154 1.4076923,-0.588461 v 1.592307 q -0.7326923,0.276923 -1.4653846,0.415385 -0.7326924,0.144231 -1.4653847,0.144231 -1.7538462,0 -2.7288462,-0.888462 -0.9692308,-0.894231 -0.9692308,-2.503846 0,-1.580769 0.9519231,-2.486539 0.9576923,-0.905769 2.6307693,-0.905769 1.523077,0 2.4346154,0.917308 0.9173077,0.917308 0.9173077,2.451923 z m -2.1230769,-0.686538 q 0,-0.588462 -0.3461539,-0.946154 -0.3403846,-0.363462 -0.8942308,-0.363462 -0.6,0 -0.975,0.340385 -0.375,0.334615 -0.4673077,0.969231 z" /><path
     id="path835"
     style="stroke-width:0.29538462"
     d="m 2.754417,37.140358 v 1.834615 h 2.1288462 v 1.476924 H 2.754417 v 2.740384 q 0,0.45 0.1788462,0.611539 0.1788461,0.155769 0.7096154,0.155769 h 1.0615385 v 1.476923 H 2.9332632 q -1.223077,0 -1.7365385,-0.507692 -0.50769234,-0.513462 -0.50769234,-1.736539 v -2.740384 h -1.0269231 v -1.476924 h 1.0269231 v -1.834615 z" /><path
     id="path837"
     style="stroke-width:0.29538462"
     d="m 12.602495,42.188435 v 0.588462 H 7.7736484 q 0.075,0.726923 0.525,1.090384 0.45,0.363462 1.2576923,0.363462 0.6519233,0 1.3326923,-0.190385 0.686539,-0.196154 1.407692,-0.588461 v 1.592307 q -0.732692,0.276923 -1.465384,0.415385 -0.732693,0.144231 -1.4653849,0.144231 -1.7538462,0 -2.7288462,-0.888462 -0.9692308,-0.894231 -0.9692308,-2.503846 0,-1.580769 0.9519231,-2.486539 0.9576923,-0.905769 2.6307693,-0.905769 1.5230765,0 2.4346155,0.917308 0.917308,0.917308 0.917308,2.451923 z m -2.123077,-0.686538 q 0,-0.588462 -0.346154,-0.946154 -0.3403848,-0.363462 -0.894231,-0.363462 -0.6,0 -0.975,0.340385 -0.375,0.334615 -0.4673077,0.969231 z" /><path
     id="path839"
     style="stroke-width:0.29538462"
     d="m 17.235193,40.296127 q -0.686539,0 -1.05,0.496154 -0.357693,0.490385 -0.357693,1.419231 0,0.928846 0.357693,1.425 0.363461,0.490385 1.05,0.490385 0.675,0 1.032692,-0.490385 0.357692,-0.496154 0.357692,-1.425 0,-0.928846 -0.357692,-1.419231 -0.357692,-0.496154 -1.032692,-0.496154 z m 0,-1.476923 q 1.667307,0 2.601923,0.9 0.940384,0.9 0.940384,2.492308 0,1.592308 -0.940384,2.492308 -0.934616,0.9 -2.601923,0.9 -1.673077,0 -2.619231,-0.9 -0.940385,-0.9 -0.940385,-2.492308 0,-1.592308 0.940385,-2.492308 0.946154,-0.9 2.619231,-0.9 z" /><path
     id="path841"
     style="stroke-width:0.29538462"
     d="m 27.08327,40.734589 q -0.271154,-0.126923 -0.542308,-0.184616 -0.265384,-0.06346 -0.536538,-0.06346 -0.796154,0 -1.228846,0.513461 -0.426923,0.507693 -0.426923,1.459616 v 2.976923 H 22.28327 v -6.461539 h 2.065385 v 1.061539 q 0.398077,-0.634616 0.911538,-0.923077 0.519231,-0.294231 1.240385,-0.294231 0.103846,0 0.225,0.01154 0.121154,0.0058 0.351923,0.03462 z" /><path
     id="path843"
     style="stroke-width:0.29538462"
     d="m 31.196733,40.296127 q -0.686539,0 -1.05,0.496154 -0.357693,0.490385 -0.357693,1.419231 0,0.928846 0.357693,1.425 0.363461,0.490385 1.05,0.490385 0.675,0 1.032692,-0.490385 0.357692,-0.496154 0.357692,-1.425 0,-0.928846 -0.357692,-1.419231 -0.357692,-0.496154 -1.032692,-0.496154 z m 0,-1.476923 q 1.667308,0 2.601923,0.9 0.940385,0.9 0.940385,2.492308 0,1.592308 -0.940385,2.492308 -0.934615,0.9 -2.601923,0.9 -1.673077,0 -2.619231,-0.9 -0.940385,-0.9 -0.940385,-2.492308 0,-1.592308 0.940385,-2.492308 0.946154,-0.9 2.619231,-0.9 z" /><path
     id="path845"
     style="stroke-width:0.29538462"
     d="m 36.24481,36.459589 h 2.065385 v 8.976923 H 36.24481 Z" /><path
     id="path847"
     style="stroke-width:0.29538462"
     d="m 43.381349,40.296127 q -0.686539,0 -1.05,0.496154 -0.357692,0.490385 -0.357692,1.419231 0,0.928846 0.357692,1.425 0.363461,0.490385 1.05,0.490385 0.675,0 1.032692,-0.490385 0.357693,-0.496154 0.357693,-1.425 0,-0.928846 -0.357693,-1.419231 -0.357692,-0.496154 -1.032692,-0.496154 z m 0,-1.476923 q 1.667308,0 2.601923,0.9 0.940385,0.9 0.940385,2.492308 0,1.592308 -0.940385,2.492308 -0.934615,0.9 -2.601923,0.9 -1.673077,0 -2.619231,-0.9 -0.940385,-0.9 -0.940385,-2.492308 0,-1.592308 0.940385,-2.492308 0.946154,-0.9 2.619231,-0.9 z m 0.905769,-2.832692 h 1.632693 l -2.128847,2.169231 h -1.130769 z" /><path
     id="path849"
     style="stroke-width:0.29538462"
     d="m 52.825573,44.340358 q -0.426924,0.565385 -0.940385,0.830769 -0.513462,0.265385 -1.188462,0.265385 -1.182692,0 -1.955769,-0.928846 -0.773077,-0.934616 -0.773077,-2.376923 0,-1.448077 0.773077,-2.371154 0.773077,-0.928846 1.955769,-0.928846 0.675,0 1.188462,0.265384 0.513461,0.265385 0.940385,0.836539 v -0.957693 h 2.076923 v 5.809616 q 0,1.557692 -0.986539,2.376923 -0.980769,0.825 -2.85,0.825 -0.605769,0 -1.171154,-0.09231 -0.565384,-0.09231 -1.136538,-0.282692 v -1.609615 q 0.542307,0.311538 1.061538,0.461538 0.519231,0.155769 1.044231,0.155769 1.015385,0 1.488462,-0.44423 0.473077,-0.444231 0.473077,-1.390385 z m -1.361539,-4.021154 q -0.640385,0 -0.998077,0.473077 -0.357692,0.473077 -0.357692,1.338462 0,0.888461 0.346154,1.35 0.346154,0.455769 1.009615,0.455769 0.646154,0 1.003846,-0.473077 0.357693,-0.473077 0.357693,-1.332692 0,-0.865385 -0.357693,-1.338462 -0.357692,-0.473077 -1.003846,-0.473077 z" /><path
     id="path851"
     style="stroke-width:0.29538462"
     d="m 56.898657,38.974973 h 2.065385 v 6.461539 h -2.065385 z m 0,-2.515384 h 2.065385 v 1.684615 h -2.065385 z" /><path
     id="path853"
     style="stroke-width:0.29538462"
     d="m 66.18135,39.176896 v 1.684616 q -0.421154,-0.288462 -0.848077,-0.426923 -0.421154,-0.138462 -0.876923,-0.138462 -0.865385,0 -1.350001,0.507693 -0.478846,0.501923 -0.478846,1.407692 0,0.905769 0.478846,1.413461 0.484616,0.501924 1.350001,0.501924 0.484615,0 0.917307,-0.144231 0.438462,-0.144231 0.807693,-0.426923 v 1.690384 q -0.484616,0.178847 -0.986539,0.265385 -0.496154,0.09231 -0.998077,0.09231 -1.748077,0 -2.734615,-0.894231 -0.986539,-0.9 -0.986539,-2.498077 0,-1.598077 0.986539,-2.492308 0.986538,-0.9 2.734615,-0.9 0.507692,0 0.998077,0.09231 0.496154,0.08654 0.986539,0.265384 z" /><path
     id="path855"
     style="stroke-width:0.29538462"
     d="m 70.87173,42.52882 q -0.646154,0 -0.975,0.21923 -0.323077,0.219231 -0.323077,0.646154 0,0.392308 0.259616,0.617308 0.265384,0.219231 0.732692,0.219231 0.582692,0 0.980769,-0.415385 0.398077,-0.421154 0.398077,-1.05 V 42.52882 Z m 3.15577,-0.778847 v 3.686539 H 71.944807 V 44.47882 q -0.415384,0.588461 -0.934615,0.859615 -0.519231,0.265385 -1.263462,0.265385 -1.003846,0 -1.632692,-0.582693 -0.623077,-0.588461 -0.623077,-1.523077 0,-1.136538 0.778846,-1.667307 0.784616,-0.53077 2.457693,-0.53077 h 1.217307 v -0.161538 q 0,-0.490385 -0.386538,-0.715385 -0.386539,-0.230769 -1.205769,-0.230769 -0.663462,0 -1.234616,0.132692 -0.571154,0.132693 -1.061538,0.398077 v -1.575 q 0.663461,-0.161538 1.332692,-0.242307 0.669231,-0.08654 1.338462,-0.08654 1.748077,0 2.521153,0.692308 0.778847,0.686538 0.778847,2.238461 z" /></g>
</g>
</svg>