<?xml version="1.0" encoding="UTF-8" standalone="no"?>
<svg
   xmlns:dc="http://purl.org/dc/elements/1.1/"
   xmlns:cc="http://creativecommons.org/ns#"
   xmlns:rdf="http://www.w3.org/1999/02/22-rdf-syntax-ns#"
   xmlns:svg="http://www.w3.org/2000/svg"
   xmlns="http://www.w3.org/2000/svg"
   xmlns:sodipodi="http://sodipodi.sourceforge.net/DTD/sodipodi-0.dtd"
   xmlns:inkscape="http://www.inkscape.org/namespaces/inkscape"
   width="73.620689"
   height="35"
   viewBox="0 0 73.620689 35"
   fill="none"
   version="1.1"
   id="svg15"
   sodipodi:docname="fyo.svg"
   inkscape:version="1.0.2-2 (e86c870879, 2021-01-15)">
  <metadata
     id="metadata19">
    <rdf:RDF>
      <cc:Work
         rdf:about="">
        <dc:format>image/svg+xml</dc:format>
        <dc:type
           rdf:resource="http://purl.org/dc/dcmitype/StillImage" />
        <dc:title></dc:title>
      </cc:Work>
    </rdf:RDF>
  </metadata>
  <sodipodi:namedview
     pagecolor="#ffffff"
     bordercolor="#666666"
     borderopacity="1"
     objecttolerance="10"
     gridtolerance="10"
     guidetolerance="10"
     inkscape:pageopacity="0"
     inkscape:pageshadow="2"
     inkscape:window-width="1920"
     inkscape:window-height="1018"
     id="namedview17"
     showgrid="false"
     fit-margin-top="0"
     fit-margin-left="0"
     fit-margin-right="0"
     fit-margin-bottom="0"
     inkscape:zoom="5.8251366"
     inkscape:cx="91.5"
     inkscape:cy="20.636961"
     inkscape:window-x="-6"
     inkscape:window-y="-6"
     inkscape:window-maximized="1"
     inkscape:current-layer="svg15" />
  <g
     clip-path="url(#clip0)"
     id="g8"
     transform="scale(0.40229885)"
     style="stroke-width:2.48571">
    <path
       d="m 117.108,52.6089 h -0.283 L 103.394,21.6602 H 80.9963 v -6.922 c 0,-3.7704 1.6189,-5.89293 5.093,-5.89293 1.8676,0.19448 3.7077,0.59927 5.486,1.20673 C 92.1736,8.74982 92.6477,7.39312 92.9909,6.00033 93.3536,4.66695 93.6127,3.30706 93.7656,1.93305 91.0985,0.698108 88.2046,0.0396545 85.2701,0 79.2417,0 70.0143,2.66919 70.0143,15.5681 v 6.0921 h -6.3034 v 8.4684 h 6.3034 V 65.2285 H 80.9885 V 30.1286 h 14.6593 l 15.8792,34.8265 c -3.197,10.0364 -7.308,13.2777 -11.5879,13.2777 -2.4233,0.0471 -4.8189,-0.5274 -6.9618,-1.6694 -0.6574,1.2719 -1.2179,2.5925 -1.6769,3.9501 -0.4838,1.3824 -0.8283,2.8104 -1.0283,4.2625 3.288,1.1935 6.7209,1.9338 10.2059,2.2006 7.674,0 14.624,-2.3099 21.185,-20.0883 l 16.634,-45.2242 h -10.784 z m 44.333,4.9674 c -6.675,0 -10.603,-5.7055 -10.603,-14.1798 0,-8.1052 3.381,-14.0118 10.33,-14.0118 6.777,0 10.587,5.6274 10.587,14.0118 0,8.2009 -3.463,14.1798 -10.314,14.1798 z m 15.804,-30.6695 c -2.086,-2.0843 -4.573,-3.7156 -7.308,-4.7932 -2.735,-1.0777 -5.66,-1.5789 -8.595,-1.4726 -2.838,-0.0658 -5.66,0.4466 -8.296,1.5065 -2.637,1.0599 -5.034,2.6454 -7.049,4.6617 -4.22,4.5669 -6.486,10.6254 -6.309,16.8646 -0.115,3.1531 0.418,6.296 1.567,9.231 1.148,2.935 2.887,5.5985 5.106,7.823 4.098,3.6531 9.425,5.5905 14.892,5.4165 2.889,0.0858 5.765,-0.4253 8.452,-1.5019 2.686,-1.0765 5.125,-2.6958 7.168,-4.7581 2.054,-2.2208 3.653,-4.8292 4.704,-7.6752 1.051,-2.846 1.534,-5.8735 1.421,-8.9083 0.224,-6.0066 -1.834,-11.873 -5.753,-16.4018"
       fill="#008eaa"
       id="path2"
       style="stroke-width:8.65029" />
    <path
       d="m 46.1627,87 -2.1031,-0.8142 c -0.684,-0.2806 -1.3301,-0.6474 -1.9229,-1.0916 -0.4866,-0.3556 -0.9403,-0.755 -1.3556,-1.193 l -1.7157,-1.8842 1.3788,-2.06 c 2.5512,-4.4944 3.8933,-9.5831 3.8933,-14.7616 0,-5.1786 -1.3421,-10.2672 -3.8933,-14.7617 L 39.0731,48.3932 40.88,46.4016 c 0.3926,-0.4015 0.816,-0.7711 1.2664,-1.1053 0.5849,-0.4381 1.2226,-0.7995 1.8978,-1.0758 l 2.1146,-0.8318 1.4253,1.7788 c 4.1892,5.829 6.4437,12.8442 6.4413,20.0428 -0.0025,7.1985 -2.2618,14.212 -6.4549,20.0382 z"
       fill="#008eaa"
       id="path4"
       style="stroke-width:8.65029" />
    <path
       d="M 7.90298,86.9924 6.47188,85.2741 C 2.2683,79.4448 0.00264578,72.4234 -4.85032e-4,65.216 -0.00361584,58.0086 2.256,50.9852 6.4545,45.1522 l 1.44848,-1.7574 2.08946,0.824 c 0.67546,0.2822 1.31426,0.6468 1.90176,1.0857 0.5332,0.392 1.0256,0.8375 1.4698,1.3296 l 1.6112,1.7574 -1.4098,2.0736 c -2.5452,4.4963 -3.88186,9.5848 -3.87779,14.7619 0.00408,5.1771 1.34879,10.2633 3.90099,14.7555 l 1.3439,2.0542 -1.6402,1.81 c -0.4297,0.4673 -0.903,0.8918 -1.4136,1.2674 -0.619,0.4654 -1.2987,0.8425 -2.01982,1.1207 z"
       fill="#008eaa"
       id="path6"
       style="stroke-width:8.65029" />
  </g>
  <defs
     id="defs13">
    <clipPath
       id="clip0">
      <rect
         width="183"
         height="87"
         fill="#ffffff"
         id="rect10"
         x="0"
         y="0" />
    </clipPath>
  </defs>
</svg>
