<?xml version="1.0" encoding="UTF-8" standalone="no"?>
<svg
   xmlns:dc="http://purl.org/dc/elements/1.1/"
   xmlns:cc="http://creativecommons.org/ns#"
   xmlns:rdf="http://www.w3.org/1999/02/22-rdf-syntax-ns#"
   xmlns:svg="http://www.w3.org/2000/svg"
   xmlns="http://www.w3.org/2000/svg"
   height="40"
   width="147.17741"
   xml:space="preserve"
   viewBox="0 0 147.17741 40"
   y="0px"
   x="0px"
   id="Layer_1"
   version="1.1"><metadata
   id="metadata42"><rdf:RDF><cc:Work
       rdf:about=""><dc:format>image/svg+xml</dc:format><dc:type
         rdf:resource="http://purl.org/dc/dcmitype/StillImage" /><dc:title></dc:title></cc:Work></rdf:RDF></metadata><defs
   id="defs40" />
<style
   id="style2"
   type="text/css">
	.st0{fill:#FFFFFF;}
	.st1{fill:#EF945A;}
	.st2{fill:#CE4A63;}
	.st3{fill:#AD2931;}
	.st4{fill:#FF6600;}
	.st5{fill:#F7CEB5;}
	.st6{fill:#EFAD84;}
	.st7{fill:#EFAD7B;}
</style>
<g
   transform="matrix(0.40322581,0,0,0.40322581,-27.217742,-80.806452)"
   id="XMLID_1_">
	<path
   style="fill:#ffffff"
   d="m 67.5,299.6 c 0,-33.1 0,-66.2 0,-99.2 121.7,0 243.3,0 365,0 0,33.1 0,66.1 0,99.2 -121.7,0 -243.3,0 -365,0 z"
   class="st0"
   id="XMLID_3_" />
	<path
   style="fill:#ef945a"
   d="m 137.1,295.7 c 97,0 194,0 291.1,0.1 0,0.1 -0.1,0.1 -0.1,0.2 -97.1,-0.1 -194.2,-0.1 -291.2,-0.1 0,-0.1 0.1,-0.2 0.2,-0.2 z"
   class="st1"
   id="XMLID_4_" />
	<path
   style="fill:#ce4a63"
   d="m 71.8,295.9 v 0 c 15.7,0 31.4,0 47.1,0 -15.8,0 -31.5,0 -47.1,0 z"
   class="st2"
   id="XMLID_5_" />
	<path
   style="fill:#ce4a63"
   d="m 71.8,204.7 v 0 c 0,30.4 0,60.8 0,91.1 v 0 c -0.1,0 -0.1,0 -0.1,0 0,-30.4 0,-60.8 0,-91.2 0,0.1 0,0.1 0.1,0.1 z"
   class="st2"
   id="XMLID_6_" />
	<path
   style="fill:#ad2931"
   d="m 118.8,295.9 c -15.7,0 -31.4,0 -47.1,0 0,-30.4 0,-60.7 0,-91.1 15.7,0 31.4,-0.1 47.1,-0.1 1.6,0.1 3.3,0.2 4.9,0.3 0.1,0.1 2.1,0.3 2.2,0.5 8.9,1.6 16.1,5.8 22.9,11.6 3.3,3.4 5.9,6.8 8.5,10.8 0.9,1.9 1.8,3.8 2.7,5.7 1.3,4.2 2.2,8 2.9,12.2 0,2.3 0.1,4.6 0.2,6.9 -0.2,1.7 -0.4,3.5 -0.6,5.2 -1.4,6.9 -3.9,12.7 -7.7,18.5 -1.9,2.5 -1.9,2.5 -2.1,2.8 -5,5.3 -9.9,9.2 -16.4,12.5 -1.6,0.6 -3.2,1.2 -4.8,1.8 -4,1.4 -8.3,2.2 -12.7,2.4 z"
   class="st3"
   id="XMLID_7_" />
	<path
   style="fill:#ff6600"
   d="m 137.1,295.7 c 6,-2.7 11.2,-6.1 16.1,-10.5 0.2,-0.3 1.9,-2 4.8,-5.4 2.7,-3.7 5,-7.4 7.1,-11.6 0.6,-1.6 1.2,-3.2 1.8,-4.8 3.4,-11.3 3.2,-22.3 -0.3,-33.6 -0.6,-1.5 -1.2,-3 -1.7,-4.5 -3.4,-6.6 -7.4,-12.1 -12.7,-17.2 -1.4,-1.2 -2.7,-2.3 -4.1,-3.4 93.3,0 186.7,-0.1 280,-0.1 0,0 0.1,0.1 0.1,0.1 0,30.3 0,60.6 0,91 -97,0 -194.1,0 -291.1,0 z"
   class="st4"
   id="XMLID_8_" />
	<path
   style="fill:#ffffff"
   d="m 117.2,286.2 c -1.9,-13.4 -4.1,-27 -5.6,-40.4 2.1,-1.1 2.7,-3.4 3.4,-5.5 0.4,-2.3 1,-4.9 0.9,-7.3 -4.1,0.1 -8.5,0.5 -12.2,2.3 -4.6,0 -4.9,-6.4 -0.1,-6.9 4.1,1.6 8.2,2.2 12.5,2.3 -0.2,-4.3 -0.7,-8.3 -2.3,-12.3 0,-1.2 0.3,-1.8 1,-2.7 2.7,-1.8 5.3,-0.6 5.8,2.6 -1.7,4.1 -1.9,7.8 -2.3,12.2 0.1,0 0.1,0.1 0.2,0.1 4.2,-0.2 8.4,-0.6 12.3,-2.3 4.7,0.4 4.5,6.9 -0.1,6.9 -3.7,-1.9 -8.3,-2.1 -12.3,-2.2 0.3,2.5 0.5,11.8 4.5,12.8 -0.2,2.1 -0.3,2.2 -4.3,31.9 -0.2,0.1 -1.2,8.3 -1.4,8.5 z"
   class="st0"
   id="XMLID_9_" />
	<path
   style="fill:#ffffff"
   d="m 334.6,278.5 c -6,-0.5 -9.9,-2.6 -13.3,-7.7 -0.5,-1.1 -1,-2.1 -1.5,-3.2 -3.2,-12.4 2.9,-25.2 16.3,-26.8 3.7,0 7.2,0.9 10.8,2.1 -0.1,0.5 -0.1,0.5 -2.1,5.9 -1,-0.1 -1,-0.1 -3.3,-0.6 -1.3,0 -2.7,0 -4,0 -2.8,0.7 -4.7,1.5 -6.6,3.6 -3.8,5.6 -4.5,13.2 1.4,17.8 0.7,0.3 1.5,0.7 2.2,1 3.5,0.5 6.9,0.2 10.2,-0.8 0.7,-0.3 0.7,-0.3 1,-0.3 0.7,1.4 2,3.2 2.3,4.7 -4.3,2.3 -8.6,3.7 -13.4,4.3 z"
   class="st0"
   id="XMLID_10_" />
	<path
   style="fill:#ffffff"
   d="m 228.5,234.2 c -0.9,0 -1.9,0 -2.7,0 -6.1,0 -11.1,3.5 -14.5,8.3 -1,2.2 -1.5,3.7 -1.6,3.8 -1.2,5 -0.9,9.5 0.8,14.3 2.4,4.7 5.1,7.1 9.9,9 1,0.2 2.1,0.4 3.1,0.6 2.2,0 5.7,0.3 7.5,-0.7 0,-3.8 0,-7.7 0.1,-11.5 0,-0.1 0,-0.1 -8.8,-0.2 0,-2.4 0,-4.9 0,-7.3 v -0.1 c 5.9,0 11.8,0 17.8,0 0,8.1 0,16.2 0.1,24.4 -1.7,0.6 -3.4,1.2 -5.1,1.7 -2.9,0.7 -5.7,1.4 -8.7,1.7 -4.2,0.2 -7.7,-0.2 -11.7,-1.4 -7.7,-3.2 -12.2,-8.6 -14.5,-16.6 -1.2,-6.3 -1.2,-11.6 0.7,-17.8 1.2,-3.1 2.9,-5.6 4.9,-8.2 3.7,-3.7 7.3,-5.5 12.2,-7.3 7.1,-1.5 13.9,-0.7 20.9,1.2 -0.8,2.3 -1.6,4.6 -2.4,7 -5,-0.6 -5,-0.6 -8,-0.9 z"
   class="st0"
   id="XMLID_11_" />
	<path
   style="fill:#ffffff"
   d="m 262.3,240.9 c -4.4,0.2 -8.7,1.8 -13.1,3.6 0.7,1.7 1.3,3.5 2,5.3 1.9,-0.6 3.8,-1.2 5.8,-1.8 2.1,-0.5 4.5,-0.6 6.7,-0.2 3.4,1.4 3.5,4.1 3.6,7.4 -6.1,0.4 -11.8,0.5 -17,3.9 -1.1,1.1 -2.3,2.1 -3,3.5 -1.1,3 -1,5.5 -0.3,8.5 1.7,3.6 3.5,5.4 7.2,6.8 5.3,1 9.1,-1.1 13,-4.7 0.1,0 0.1,0.1 0.2,0.1 0.5,3.7 0.7,3.8 0.7,4 2.6,0 5.1,0 7.7,0.1 0,-8.7 -0.1,-17.3 -0.1,-26 -0.7,-3.9 -1.9,-6.6 -5.2,-8.9 -2.9,-1.3 -5.6,-1.7 -8.2,-1.6 z m 4.9,19.9 c 0,2.2 0.1,4.4 0.1,6.5 -1.5,2.6 -5.5,3.8 -8.3,4.1 -2,-0.5 -3.3,-1.1 -4.2,-3.1 -1.2,-7 7.3,-7.3 12.4,-7.5 z"
   class="st0"
   id="XMLID_14_" />
	<path
   style="fill:#ffffff"
   d="m 384.5,240.8 c -4.2,0.5 -8.3,1.9 -12.2,3.7 -0.3,0.8 1.3,4.2 2,5.3 3.9,-1.4 7.1,-2.4 11.2,-2.4 0.1,0.1 0.1,0.2 1.5,0.4 3,1.6 3,4.1 3.3,7.3 -7.4,0.5 -17.4,0.4 -20.5,8.8 -1.4,7 2.1,13.2 9.3,14.3 4.5,0 7.9,-2 11,-5.1 0.1,0 0.2,0 0.3,0 0.5,3.6 0.5,3.6 0.7,4.3 2.5,0 5,-0.1 7.5,-0.1 0,-8.2 0,-16.3 0,-24.5 -0.4,-5 -1.7,-7.9 -5.9,-10.7 -2.3,-0.9 -3.3,-1.1 -3.5,-1.2 -1.4,0.1 -3.1,0 -4.7,-0.1 z m 5.8,20 c 0,2.3 0,4.6 0.1,6.9 -3.1,2.5 -8.8,6.2 -12,1.7 -3.4,-7.5 7,-8.5 11.9,-8.6 z"
   class="st0"
   id="XMLID_17_" />
	<path
   style="fill:#ef945a"
   d="m 303.2,277.5 c 2.9,0 5.8,-0.1 8.7,-0.1 -0.5,0.5 -7.6,0.1 -8.7,0.1 z"
   class="st1"
   id="XMLID_18_" />
	<path
   style="fill:#ef945a"
   d="m 391.2,277.5 c 2.5,0 5,-0.1 7.5,-0.1 h 0.1 c -0.1,0 -0.2,0.1 -0.3,0.1 -2.4,0 -4.9,0 -7.3,0 z"
   class="st1"
   id="XMLID_19_" />
	<path
   style="fill:#ef945a"
   d="m 268,277.4 c 2.6,0 5.1,0 7.7,0.1 -7.8,-0.1 -7.8,-0.1 -7.7,-0.1 z"
   class="st1"
   id="XMLID_20_" />
	<path
   style="fill:#ef945a"
   d="m 284.5,223.2 c 0,18.1 0,36.1 0.1,54.2 2.9,0 5.9,0 8.9,0 -3.1,0 -6.1,0 -9.2,0 0.1,-18.1 0.2,-36.1 0.2,-54.2 z"
   class="st1"
   id="XMLID_21_" />
	<path
   style="fill:#ef945a"
   d="m 354.6,277.4 c 2.9,0 5.9,0 8.9,0 -8.9,0.1 -8.9,0.1 -8.9,0 z"
   class="st1"
   id="XMLID_22_" />
	<path
   style="fill:#ef945a"
   d="m 303,241.7 c 0,11.9 0,23.9 0,35.8 -0.1,0 -0.1,0 0,-35.8 z"
   class="st1"
   id="XMLID_23_" />
	<path
   style="fill:#ffffff"
   d="m 303,277.5 c 0,-11.9 0,-23.9 0,-35.8 0,0 0.1,0 0.1,0 2.9,0 5.8,0 8.7,0 0,11.9 0.1,23.8 0.1,35.7 -2.9,0 -5.8,0 -8.7,0.1 -0.1,0 -0.1,0 -0.2,0 z"
   class="st0"
   id="XMLID_24_" />
	<path
   style="fill:#ffffff"
   d="m 284.5,223.2 c 0,-0.1 0,-0.1 0,-0.2 3,0 6,0 9,0 0,18.1 0,36.3 0,54.4 -3,0 -6,0 -8.9,0 0,-18.1 -0.1,-36.1 -0.1,-54.2 z"
   class="st0"
   id="XMLID_25_" />
	<path
   style="fill:#ffffff"
   d="m 354.6,277.4 c 0,-11.9 0,-23.8 0,-35.6 2.9,0 5.9,-0.1 8.8,-0.1 0,11.9 0.1,23.8 0.1,35.7 -2.9,0 -5.9,0 -8.9,0 z"
   class="st0"
   id="XMLID_26_" />
	<path
   style="fill:#f7ceb5"
   d="m 398.7,277.4 c 0,-8.2 0,-16.3 0,-24.5 0,8.2 0,16.3 0.1,24.5 z"
   class="st5"
   id="XMLID_27_" />
	<path
   style="fill:#f7ceb5"
   d="m 239.9,274.8 c 0,-8.2 -0.1,-16.3 -0.1,-24.4 l 0.1,-0.1 c 0,8.1 0,16.3 0,24.5 z"
   class="st5"
   id="XMLID_28_" />
	<path
   style="fill:#efad84"
   d="m 390.3,267.7 c 0,-2.3 -0.1,-4.6 -0.1,-6.9 0,0 0.1,0 0.1,0.1 0.1,2.2 0,4.5 0,6.8 z"
   class="st6"
   id="XMLID_29_" />
	<path
   style="fill:#efad7b"
   d="m 222,257.7 h 0.1 c 8.8,0.1 8.8,0.1 8.8,0.2 -2.9,0 -5.9,0 -8.8,0 -0.1,0 -0.1,-0.1 -0.1,-0.2 z"
   class="st7"
   id="XMLID_30_" />
	<path
   style="fill:#f7ceb5"
   d="m 222,257.7 c 0,-2.4 0,-4.9 0.1,-7.3 0,2.4 0,4.9 0,7.3 z"
   class="st5"
   id="XMLID_31_" />
	<path
   style="fill:#efad84"
   d="m 222.1,250.4 c 0,-0.1 0,-0.1 17.8,-0.1 l -0.1,0.1 c -5.9,0 -11.8,0 -17.7,0 z"
   class="st6"
   id="XMLID_32_" />
	<path
   style="fill:#f7ceb5"
   d="m 354.6,241.8 c 0,-0.1 0,-0.1 8.8,-0.1 -2.9,0 -5.9,0.1 -8.8,0.1 z"
   class="st5"
   id="XMLID_33_" />
	<path
   style="fill:#ffffff"
   d="m 307.2,233.8 c -4.5,-0.5 -5.7,-5.4 -2.9,-8.6 4.5,-2.8 8.8,0.6 7.5,5.7 -1.2,1.9 -2.4,2.7 -4.6,2.9 z"
   class="st0"
   id="XMLID_34_" />
	<path
   style="fill:#ffffff"
   d="m 358.8,233.8 c -3.8,-0.8 -5.5,-4 -3.7,-7.6 2.2,-2.5 5.6,-2.7 7.8,-0.1 1.6,3.4 0.6,6.3 -2.8,7.6 -0.4,0 -0.9,0 -1.3,0.1 z"
   class="st0"
   id="XMLID_35_" />
	<path
   style="fill:#efad84"
   d="m 284.5,223 c 0,-0.1 0.1,-0.2 0.1,-0.2 2.9,0 5.8,0 8.7,0 0,0.1 0.1,0.1 0.1,0.2 -2.9,0 -5.9,0 -8.9,0 z"
   class="st6"
   id="XMLID_36_" />
	<path
   style="fill:#ce4a63"
   d="m 71.8,204.8 v 0 c 15.7,-0.1 31.4,-0.1 47.1,-0.1 -15.8,0 -31.5,0 -47.1,0.1 z"
   class="st2"
   id="XMLID_37_" />
	<path
   style="fill:#ef945a"
   d="m 148,204.8 c 0,-0.1 0,-0.1 280,-0.1 -93.3,0 -186.6,0 -280,0.1 z"
   class="st1"
   id="XMLID_38_" />
</g>
</svg>