<?xml version="1.0" encoding="UTF-8" standalone="no"?>
<svg
   xmlns:dc="http://purl.org/dc/elements/1.1/"
   xmlns:cc="http://creativecommons.org/ns#"
   xmlns:rdf="http://www.w3.org/1999/02/22-rdf-syntax-ns#"
   xmlns:svg="http://www.w3.org/2000/svg"
   xmlns="http://www.w3.org/2000/svg"
   version="1.1"
   viewBox="0 0 113.37025 40"
   height="40"
   width="113.37025"
   data-name="Layer 1"
   id="Layer_1">
  <metadata
     id="metadata49">
    <rdf:RDF>
      <cc:Work
         rdf:about="">
        <dc:format>image/svg+xml</dc:format>
        <dc:type
           rdf:resource="http://purl.org/dc/dcmitype/StillImage" />
        <dc:title>logo-hipotecario_02</dc:title>
      </cc:Work>
    </rdf:RDF>
  </metadata>
  <defs
     id="defs4">
    <style
       id="style2">.cls-1{fill:#6d6e70;}.cls-2{fill:#f1801f;}.cls-3{fill:#fff;}</style>
  </defs>
  <title
     id="title6">logo-hipotecario_02</title>
  <g
     transform="matrix(0.56193871,0,0,0.56193871,-4.4257057,-3.6014259)"
     id="g875">
    <path
       style="fill:#6d6e70"
       class="cls-1"
       d="m 53.31973,32.211 h 1.70336 c 1.33771,0 2.14935,-0.63747 2.14935,-1.85824 a 1.932,1.932 0 0 0 -2.16482,-1.87383 h -1.6879 z m 0,-4.52891 h 1.39559 a 1.64174,1.64174 0 0 0 1.72609,-1.648 1.557,1.557 0 0 0 -1.70151,-1.52539 h -1.42017 z m -0.95634,-3.54627 c 0,-0.33235 0.1595,-0.50519 0.58527,-0.50519 h 1.71446 c 2.057,0 2.73317,1.30137 2.73317,2.36475 a 1.91835,1.91835 0 0 1 -1.34075,1.97836 v 0.02775 a 2.24512,2.24512 0 0 1 2.07258,2.377 2.66313,2.66313 0 0 1 -3.001,2.70873 h -2.17846 c -0.4271,0 -0.58527,-0.17034 -0.58527,-0.50387 v -8.44757"
       id="path8" />
    <path
       style="fill:#6d6e70"
       class="cls-1"
       d="m 63.4688,24.799 h -0.02775 l -1.96488,5.35363 h 3.958 z m -2.93457,7.93074 c -0.12131,0.23945 -0.20073,0.4382 -0.53374,0.4382 a 0.37807,0.37807 0 0 1 -0.42445,-0.37239 1.2324,1.2324 0 0 1 0.09409,-0.39935 l 3.0424,-8.15459 c 0.11748,-0.30526 0.26456,-0.69112 0.74266,-0.69112 0.4781,0 0.624,0.38587 0.74332,0.69112 l 3.0424,8.15459 a 1.22784,1.22784 0 0 1 0.0929,0.39935 0.37867,0.37867 0 0 1 -0.42392,0.37239 c -0.33367,0 -0.44,-0.19875 -0.53308,-0.4382 l -0.62386,-1.70019 h -4.59551 l -0.6232,1.70019"
       id="path10" />
    <path
       style="fill:#6d6e70"
       class="cls-1"
       d="m 70.12182,32.55811 c 0,0.39816 -0.17166,0.61038 -0.4781,0.61038 -0.30513,0 -0.47678,-0.21223 -0.47678,-0.61038 v -8.45074 c 0,-0.36974 0.21289,-0.55752 0.47678,-0.55752 a 0.671,0.671 0 0 1 0.55937,0.34649 l 5.07491,7.42488 h 0.02326 v -7.159 c 0,-0.39935 0.17417,-0.61236 0.48061,-0.61236 0.3046,0 0.4781,0.213 0.4781,0.61236 v 8.42113 c 0,0.45234 -0.18514,0.58514 -0.45167,0.58514 -0.25161,0 -0.35745,-0.11933 -0.518,-0.34583 l -5.1414,-7.519 h -0.02709 v 7.25442"
       id="path12" />
    <path
       style="fill:#6d6e70"
       class="cls-1"
       d="m 85.42512,24.97134 a 0.45932,0.45932 0 0 1 -0.4271,0.50519 c -0.39683,0 -0.88855,-1.04911 -2.45712,-1.04911 -1.99,0 -3.0675,2.13839 -3.0675,4.06243 0,1.9551 0.95621,3.80118 3.24167,3.80118 1.659,0 2.16614,-0.9311 2.50932,-0.9311 0.23879,0 0.40014,0.1484 0.40014,0.48009 0,0.411 -1.22407,1.32846 -2.96166,1.32846 -2.89651,0 -4.22642,-2.15186 -4.22642,-4.67863 0,-2.48091 1.32992,-4.94 4.11793,-4.94 1.59447,0 2.87074,0.957 2.87074,1.42149"
       id="path14" />
    <path
       style="fill:#6d6e70"
       class="cls-1"
       d="m 94.07143,28.3589 c 0,-1.77895 -0.75693,-3.93081 -2.97527,-3.93081 -2.217,0 -2.97461,2.15186 -2.97461,3.93081 0,1.78027 0.75759,3.9328 2.97461,3.9328 2.21833,0 2.97527,-2.15253 2.97527,-3.9328 m -2.97527,-4.80906 c 2.6675,0 4.01089,2.40545 4.01089,4.80906 0,2.40361 -1.3434,4.81024 -4.01089,4.81024 -2.668,0 -4.01142,-2.40677 -4.01142,-4.81024 0,-2.40347 1.3434,-4.80906 4.01142,-4.80906"
       id="path16" />
    <path
       style="fill:#6d6e70"
       class="cls-1"
       d="m 55.26637,61.03212 c 0,1.1498 -0.55805,1.74274 -1.4466,1.74274 -0.88591,0 -1.44475,-0.59294 -1.44475,-1.74274 v -20.3033 c 0,-1.14716 0.55885,-1.74089 1.44475,-1.74089 0.88855,0 1.4466,0.59373 1.4466,1.74089 V 49.599 h 10.222 v -8.87018 c 0,-1.14716 0.5607,-1.74089 1.4466,-1.74089 0.88855,0 1.44409,0.59373 1.44409,1.74089 v 20.3033 c 0,1.1498 -0.55554,1.74274 -1.44409,1.74274 -0.88591,0 -1.4466,-0.59294 -1.4466,-1.74274 v -8.936 h -10.222 v 8.936"
       id="path18" />
    <path
       style="fill:#6d6e70"
       class="cls-1"
       d="m 75.69812,61.22955 a 1.45044,1.45044 0 1 1 -2.89466,0 V 46.4444 a 1.45031,1.45031 0 1 1 2.89466,0 z M 74.25006,38.9874 a 1.77406,1.77406 0 1 1 -1.77432,1.7756 1.76778,1.76778 0 0 1 1.77432,-1.77565"
       id="path20" />
    <path
       style="fill:#6d6e70"
       class="cls-1"
       d="m 87.459,60.27585 c 3.54878,0 4.796,-3.48165 4.796,-6.43881 0,-2.9565 -1.24719,-6.4396 -4.796,-6.4396 -3.54825,0 -4.79492,3.4831 -4.79492,6.4396 0,2.95716 1.24666,6.43881 4.79492,6.43881 M 80.06765,46.44374 a 1.44873,1.44873 0 1 1 2.89135,0 V 47.3 h 0.06449 c 0.82274,-1.57822 2.36541,-2.399 4.667,-2.399 4.72964,0 7.45713,4.30439 7.45713,8.936 0,4.63277 -2.72749,8.93716 -7.45713,8.93716 a 5.7084,5.7084 0 0 1 -4.667,-2.36673 H 82.959 v 7.721 a 1.44886,1.44886 0 1 1 -2.89135,0 V 46.44374"
       id="path22" />
    <path
       style="fill:#6d6e70"
       class="cls-1"
       d="m 105.38959,60.27585 c 3.54825,0 4.79677,-3.48165 4.79677,-6.43881 0,-2.9565 -1.24852,-6.4396 -4.79677,-6.4396 -3.54759,0 -4.79544,3.4831 -4.79544,6.4396 0,2.95716 1.24785,6.43881 4.79544,6.43881 m 0,-15.37479 c 4.92706,0 7.68746,4.30439 7.68746,8.936 0,4.63277 -2.7604,8.93716 -7.68746,8.93716 -4.929,0 -7.68746,-4.30439 -7.68746,-8.93716 0,-4.63158 2.75841,-8.936 7.68746,-8.936"
       id="path24" />
    <path
       style="fill:#6d6e70"
       class="cls-1"
       d="m 117.26886,41.32057 a 1.44772,1.44772 0 1 1 2.88911,0 v 3.77726 h 1.18588 c 0.95238,0 1.44475,0.46 1.44475,1.24918 0,0.78851 -0.49238,1.24719 -1.44475,1.24719 H 120.158 v 13.63469 a 1.44784,1.44784 0 1 1 -2.88911,0 V 47.5942 h -1.1831 c -0.95105,0 -1.44462,-0.45868 -1.44462,-1.24719 0,-0.78918 0.49357,-1.24918 1.44462,-1.24918 h 1.1831 v -3.77726"
       id="path26" />
    <path
       style="fill:#6d6e70"
       class="cls-1"
       d="m 136.7181,52.78648 c 0,-2.49769 -1.44343,-5.389 -4.63026,-5.389 -3.581,-0.131 -4.86376,2.72749 -4.96063,5.389 z m -9.59089,2.16878 a 4.97257,4.97257 0 0 0 5.15805,5.32059 c 3.84241,0 4.82835,-2.36356 5.91247,-2.36356 a 1.1455,1.1455 0 0 1 1.05294,1.28089 c 0,1.413 -3.583,3.58168 -7.00083,3.58168 -5.584,0 -8.014,-4.30505 -8.014,-8.93782 0,-4.7303 2.95716,-8.936 7.852,-8.936 4.76452,0 7.52228,4.30505 7.52228,8.51073 0,1.01752 -0.35944,1.54346 -1.60861,1.54346 h -10.8743"
       id="path28" />
    <path
       style="fill:#6d6e70"
       class="cls-1"
       d="m 150.25473,44.90107 c 2.95782,0 4.699,1.01885 4.699,2.20089 a 1.22818,1.22818 0 0 1 -1.18178,1.21759 c -1.11888,0 -1.54664,-0.92211 -3.5172,-0.92211 -3.57983,0 -4.99261,3.4831 -4.99261,6.4396 0,2.95716 1.41277,6.43881 4.99261,6.43881 2.035,0 2.561,-0.984 3.48112,-0.984 a 1.08271,1.08271 0 0 1 1.12007,1.21495 c 0,1.08465 -1.61112,2.26736 -4.60119,2.26736 -5.32324,0 -7.88555,-4.30439 -7.88555,-8.93716 0,-4.63158 2.56231,-8.936 7.88555,-8.936"
       id="path30" />
    <path
       style="fill:#6d6e70"
       class="cls-1"
       d="m 164.85977,60.27585 c 3.54891,0 4.79611,-3.48165 4.79611,-6.43881 0,-2.95531 -1.24719,-6.4396 -4.79611,-6.4396 -3.54812,0 -4.79544,3.48429 -4.79544,6.4396 0,2.95716 1.24733,6.43881 4.79544,6.43881 m 7.5236,1.08465 a 1.34178,1.34178 0 0 1 -1.3467,1.4137 1.32406,1.32406 0 0 1 -1.34723,-1.4137 v -1.2156 h -0.0638 a 5.6667,5.6667 0 0 1 -4.76584,2.62931 c -4.92706,0 -7.68614,-4.30307 -7.68614,-8.93716 0,-4.63158 2.75908,-8.93663 7.68614,-8.93663 a 6.11626,6.11626 0 0 1 4.76584,2.33383 h 0.0638 V 46.3141 a 1.32406,1.32406 0 0 1 1.34723,-1.4137 1.34178,1.34178 0 0 1 1.3467,1.4137 v 15.0464"
       id="path32" />
    <path
       style="fill:#6d6e70"
       class="cls-1"
       d="m 176.70189,46.44374 a 1.44829,1.44829 0 1 1 2.89043,0 v 1.47964 h 0.0674 c 0.65756,-1.34736 2.26551,-3.02231 3.93993,-3.02231 a 1.47012,1.47012 0 0 1 1.61152,1.48017 c 0,0.8201 -0.59082,1.34591 -1.80511,1.57624 -1.71248,0.29495 -3.81373,1.577 -3.81373,4.96195 v 8.30947 a 1.44846,1.44846 0 1 1 -2.89043,0 V 46.44374"
       id="path34" />
    <path
       style="fill:#6d6e70"
       class="cls-1"
       d="m 191.06246,61.22955 a 1.44858,1.44858 0 1 1 -2.89069,0 V 46.4444 a 1.44846,1.44846 0 1 1 2.89069,0 z M 189.61652,38.9874 a 1.77406,1.77406 0 1 1 -1.77313,1.77565 1.76805,1.76805 0 0 1 1.77313,-1.77565"
       id="path36" />
    <path
       style="fill:#6d6e70"
       class="cls-1"
       d="m 201.93675,60.27585 c 3.54957,0 4.79677,-3.48165 4.79677,-6.43881 0,-2.9565 -1.24719,-6.4396 -4.79677,-6.4396 -3.54878,0 -4.79663,3.4831 -4.79663,6.4396 0,2.95716 1.24785,6.43881 4.79663,6.43881 m 0,-15.37479 c 4.92719,0 7.68746,4.30439 7.68746,8.936 0,4.63277 -2.76026,8.93716 -7.68746,8.93716 -4.92891,0 -7.68865,-4.30439 -7.68865,-8.93716 0,-4.63158 2.75974,-8.936 7.68865,-8.936"
       id="path38" />
    <path
       style="fill:#f1801f"
       class="cls-2"
       d="m 7.87645,6.40893 v 50.61428 l 5.48776,-3.16556 5.18528,-2.9972 5.82711,-3.361 0.07559,-0.03621 c 0.0851,-0.04453 0.169,-0.07929 0.25676,-0.11483 0.07479,-0.02907 0.14708,-0.06066 0.22319,-0.08259 0.08206,-0.02445 0.162,-0.04 0.24262,-0.05682 0.08391,-0.01612 0.16783,-0.03092 0.24843,-0.04057 0.08523,-0.0078 0.16518,-0.0065 0.25042,-0.0065 0.08259,0 0.16518,-0.0013 0.24711,0.0065 0.08259,0.0097 0.1632,0.02445 0.24711,0.04057 0.08391,0.01678 0.16386,0.03238 0.24645,0.05682 0.07493,0.02194 0.14774,0.05352 0.22068,0.08259 a 2.70994,2.70994 0 0 1 0.25808,0.11483 l 0.07678,0.03621 5.82592,3.361 5.18461,2.9972 5.48644,3.16423 V 6.40893 H 7.87645"
       id="path40" />
    <path
       style="fill:#f1801f"
       class="cls-2"
       d="m 32.79508,56.85221 -5.83226,-3.36814 -0.02194,-0.01678 a 2.60423,2.60423 0 0 0 -2.56033,0.01678 l -5.83041,3.36814 -5.18528,2.99007 -5.48908,3.17 V 77.59107 H 43.46745 V 63.011 L 37.9797,59.84228 32.79509,56.85221"
       id="path42" />
    <path
       style="fill:#ffffff"
       class="cls-3"
       d="m 43.46679,63.01048 -5.48644,-3.1682 -5.1858,-2.99073 -5.83239,-3.36748 -0.02061,-0.01678 a 2.6051,2.6051 0 0 0 -2.56165,0.01678 l -5.83041,3.36748 -5.18528,2.99073 -5.48776,3.16939 v -5.98846 l 5.48776,-3.16556 5.18528,-2.9972 5.82777,-3.36166 0.07493,-0.03555 c 0.0851,-0.04453 0.169,-0.0781 0.25676,-0.11483 a 2.13734,2.13734 0 0 1 0.22319,-0.08127 2.19581,2.19581 0 0 1 0.24328,-0.05814 c 0.08325,-0.01612 0.16716,-0.03092 0.24777,-0.04057 a 2.29647,2.29647 0 0 1 0.25042,-0.0065 2.25682,2.25682 0 0 1 0.24777,0.0065 c 0.08259,0.0097 0.16254,0.02445 0.24645,0.04057 a 2.207,2.207 0 0 1 0.24645,0.05814 2.32235,2.32235 0 0 1 0.22134,0.08127 c 0.08774,0.03674 0.17417,0.0703 0.25808,0.11483 l 0.07612,0.03555 5.82473,3.36166 5.1858,2.9972 5.48644,3.16423 v 5.98859"
       id="path44" />
  </g>
</svg>
