<?xml version="1.0" encoding="UTF-8" standalone="no"?>
<svg
   xmlns:dc="http://purl.org/dc/elements/1.1/"
   xmlns:cc="http://creativecommons.org/ns#"
   xmlns:rdf="http://www.w3.org/1999/02/22-rdf-syntax-ns#"
   xmlns:svg="http://www.w3.org/2000/svg"
   xmlns="http://www.w3.org/2000/svg"
   xmlns:sodipodi="http://sodipodi.sourceforge.net/DTD/sodipodi-0.dtd"
   xmlns:inkscape="http://www.inkscape.org/namespaces/inkscape"
   id="svg28"
   version="1.1"
   viewBox="0 0 148 40"
   height="40"
   width="148"
   sodipodi:docname="hsbc.svg"
   inkscape:version="0.92.4 (5da689c313, 2019-01-14)">
  <sodipodi:namedview
     pagecolor="#ffffff"
     bordercolor="#666666"
     borderopacity="1"
     objecttolerance="10"
     gridtolerance="10"
     guidetolerance="10"
     inkscape:pageopacity="0"
     inkscape:pageshadow="2"
     inkscape:window-width="1024"
     inkscape:window-height="705"
     id="namedview20"
     showgrid="false"
     inkscape:pagecheckerboard="true"
     inkscape:zoom="2.6756757"
     inkscape:cx="74"
     inkscape:cy="20"
     inkscape:window-x="-8"
     inkscape:window-y="-8"
     inkscape:window-maximized="1"
     inkscape:current-layer="svg28" />
  <metadata
     id="metadata32">
    <rdf:RDF>
      <cc:Work
         rdf:about="">
        <dc:format>image/svg+xml</dc:format>
        <dc:type
           rdf:resource="http://purl.org/dc/dcmitype/StillImage" />
        <dc:title>Group</dc:title>
      </cc:Work>
    </rdf:RDF>
  </metadata>
  <!-- Generator: Sketch 51.1 (57501) - http://www.bohemiancoding.com/sketch -->
  <title
     id="title2">Group</title>
  <desc
     id="desc4">Created with Sketch.</desc>
  <defs
     id="defs6" />
  <rect
     id="Rectangle-path"
     x="19.813953"
     y="0"
     width="39.534882"
     height="39.534882"
     style="fill:#ffffff;fill-rule:nonzero;stroke:none;stroke-width:1.33333325" />
  <polygon
     id="Shape"
     points="59.337209,14.860465 44.511628,0 44.511628,29.686046 "
     style="fill:#db0011;fill-rule:nonzero;stroke:none;stroke-width:1"
     transform="scale(1.3333333)" />
  <polygon
     id="polygon11"
     points="29.686046,14.860465 44.511628,0 14.860465,0 "
     style="fill:#db0011;fill-rule:nonzero;stroke:none;stroke-width:1"
     transform="scale(1.3333333)" />
  <polygon
     id="polygon13"
     points="0,14.860465 14.860465,29.686046 14.860465,0 "
     style="fill:#db0011;fill-rule:nonzero;stroke:none;stroke-width:1"
     transform="scale(1.3333333)" />
  <polygon
     id="polygon15"
     points="29.686046,14.860465 14.860465,29.686046 44.511628,29.686046 "
     style="fill:#db0011;fill-rule:nonzero;stroke:none;stroke-width:1"
     transform="scale(1.3333333)" />
  <polygon
     id="polygon17"
     points="75.034884,8.6162791 75.034884,21.034884 72.348837,21.034884 72.348837,15.732558 66.976744,15.732558 66.976744,21.034884 64.290698,21.034884 64.290698,8.6162791 66.976744,8.6162791 66.976744,13.709302 72.348837,13.709302 72.348837,8.6162791 "
     style="fill:#000000;fill-rule:nonzero;stroke:none;stroke-width:1"
     transform="scale(1.3333333)" />
  <path
     inkscape:connector-curvature="0"
     d="m 108.69767,28.372093 c -3.58139,0 -6.51163,-1.441862 -6.55814,-5.39535 h 3.5814 c 0.0465,1.767442 1.06976,2.83721 3.02325,2.83721 1.44186,0 3.11628,-0.744186 3.11628,-2.372094 0,-1.302325 -1.11628,-1.674418 -2.97674,-2.232557 l -1.2093,-0.325581 c -2.60465,-0.744187 -5.20931,-1.767443 -5.20931,-4.744187 0,-3.674418 3.44186,-4.930232 6.55814,-4.930232 3.20931,0 6,1.116279 6.04652,4.790698 h -3.5814 c -0.13954,-1.488372 -1.02326,-2.372094 -2.69768,-2.372094 -1.34883,0 -2.65116,0.697675 -2.65116,2.186047 0,1.209303 1.11628,1.581396 3.44186,2.325581 l 1.39535,0.418606 c 2.83721,0.88372 4.65116,1.860465 4.65116,4.651162 -0.0465,3.720929 -3.67441,5.162791 -6.93023,5.162791 z"
     id="path19"
     style="fill:#000000;fill-rule:nonzero;stroke:none;stroke-width:1.33333325" />
  <path
     inkscape:connector-curvature="0"
     d="m 117.6279,11.534883 h 5.76745 c 1.06976,-0.04651 2.18604,0 3.25581,0.186047 2,0.465116 3.53488,1.767442 3.53488,4 0,2.139535 -1.34883,3.209302 -3.30232,3.72093 2.23256,0.418605 3.90697,1.534883 3.90697,3.999999 0,3.767443 -3.72093,4.604652 -6.60465,4.604652 h -6.51162 z m 5.76745,6.883722 c 1.58139,0 3.2093,-0.325583 3.2093,-2.232559 C 126.60465,14.465116 125.11628,14 123.6279,14 h -2.51162 v 4.418605 z m 0.32558,7.162789 c 1.67442,0 3.30232,-0.372092 3.30232,-2.418604 0,-2.046512 -1.39535,-2.418605 -3.11628,-2.418605 h -2.83721 v 4.837209 z"
     id="path21"
     style="fill:#000000;fill-rule:nonzero;stroke:none;stroke-width:1.33333325" />
  <path
     inkscape:connector-curvature="0"
     d="m 140.09302,28.372093 c -5.34884,0 -7.72093,-3.39535 -7.72093,-8.465116 0,-5.069768 2.65116,-8.744187 7.90697,-8.744187 3.30234,0 6.51163,1.488372 6.60466,5.209303 h -3.72094 c -0.18604,-1.674419 -1.30232,-2.511628 -2.88372,-2.511628 -3.25581,0 -4.23256,3.488372 -4.23256,6.139535 0,2.651162 0.97675,5.72093 4.09303,5.72093 1.62791,0 2.83721,-0.883721 3.06977,-2.55814 h 3.72092 c -0.37208,3.813953 -3.39534,5.209303 -6.8372,5.209303 z"
     id="path23"
     style="fill:#000000;fill-rule:nonzero;stroke:none;stroke-width:1.33333325" />
</svg>
