<?xml version="1.0" encoding="UTF-8" standalone="no"?>
<svg
   xmlns:dc="http://purl.org/dc/elements/1.1/"
   xmlns:cc="http://creativecommons.org/ns#"
   xmlns:rdf="http://www.w3.org/1999/02/22-rdf-syntax-ns#"
   xmlns:svg="http://www.w3.org/2000/svg"
   xmlns="http://www.w3.org/2000/svg"
   height="27"
   width="115.573"
   xml:space="preserve"
   viewBox="0 0 115.573 27"
   y="0px"
   x="0px"
   id="Capa_1"
   version="1.1"><metadata
   id="metadata29"><rdf:RDF><cc:Work
       rdf:about=""><dc:format>image/svg+xml</dc:format><dc:type
         rdf:resource="http://purl.org/dc/dcmitype/StillImage" /><dc:title></dc:title></cc:Work></rdf:RDF></metadata><defs
   id="defs27" />
<style
   id="style2"
   type="text/css">
	.st0{fill:#F68E1E;}
</style>
<g
   transform="matrix(0.48128342,0,0,0.48128342,-2.3582886,-0.86631016)"
   id="g22">
	<path
   style="fill:#f68e1e"
   id="path4"
   d="M 9.7,18.9 C 8,18.9 6.5,18.2 5.4,17.2 V 56.6 H 14 V 17.2 c -1.1,1 -2.6,1.7 -4.3,1.7 z"
   class="st0" />
	<ellipse
   style="fill:#f68e1e"
   id="ellipse6"
   ry="4.9000001"
   rx="4.8000002"
   cy="9.6000004"
   cx="9.6999998"
   class="st0" />
	<g
   id="g20">
		<path
   style="fill:#f68e1e"
   id="path8"
   d="m 21.1,16.9 h 8.2 v 5.8 l 0.2,0.2 c 1.3,-2.2 3,-3.9 5.1,-5.2 2.1,-1.3 4.5,-1.9 7,-1.9 4.3,0 7.7,1.1 10.1,3.4 2.5,2.2 3.7,5.6 3.7,10.1 V 56.5 H 46.8 V 31.6 c -0.1,-3.1 -0.8,-5.4 -2,-6.8 -1.2,-1.4 -3.1,-2.1 -5.7,-2.1 -1.5,0 -2.8,0.3 -3.9,0.8 -1.2,0.5 -2.1,1.3 -2.9,2.2 -0.8,0.9 -1.4,2.1 -1.9,3.3 -0.5,1.3 -0.7,2.6 -0.7,4.1 v 23.4 h -8.6 c 0,0 0,-39.6 0,-39.6 z"
   class="st0" />
		<path
   style="fill:#f68e1e"
   id="path10"
   d="m 58.2,16.9 h 6.4 v -3.3 c 0,-2.5 0.3,-4.5 0.9,-6.1 0.6,-1.6 1.4,-2.8 2.4,-3.6 1,-0.8 2.2,-1.4 3.4,-1.7 1.3,-0.3 2.6,-0.4 4,-0.4 2.8,0 4.8,0.2 6,0.5 V 9.1 C 80.7,8.9 80.2,8.8 79.5,8.8 c -0.4,0 -1.2,-0.1 -2,-0.1 -1.2,0 -2.2,0.3 -3,0.8 -0.8,0.6 -1.2,1.7 -1.2,3.3 v 4.1 h 7.3 v 6.5 H 73.3 V 56.5 H 64.7 V 23.4 h -6.4 z"
   class="st0" />
		<path
   style="fill:#f68e1e"
   id="path12"
   d="m 101.4,57.6 c -3.1,0 -5.9,-0.5 -8.3,-1.6 -2.4,-1 -4.5,-2.5 -6.2,-4.3 -1.7,-1.8 -3,-4 -3.9,-6.6 -0.9,-2.6 -1.3,-5.4 -1.3,-8.4 0,-3 0.4,-5.8 1.3,-8.4 0.9,-2.6 2.2,-4.8 3.9,-6.6 1.7,-1.8 3.7,-3.3 6.2,-4.3 2.4,-1 5.2,-1.6 8.3,-1.6 3.1,0 5.9,0.5 8.3,1.6 2.4,1 4.5,2.5 6.2,4.3 1.7,1.8 3,4 3.9,6.6 0.9,2.6 1.3,5.3 1.3,8.4 0,3.1 -0.4,5.9 -1.3,8.4 -0.9,2.6 -2.2,4.8 -3.9,6.6 -1.7,1.8 -3.8,3.3 -6.2,4.3 -2.4,1.1 -5.2,1.6 -8.3,1.6 z m 0,-6.9 c 1.9,0 3.6,-0.4 5,-1.2 1.4,-0.8 2.6,-1.9 3.5,-3.2 0.9,-1.3 1.6,-2.8 2,-4.5 0.4,-1.7 0.6,-3.4 0.6,-5.1 0,-1.7 -0.2,-3.4 -0.6,-5.1 -0.4,-1.7 -1.1,-3.2 -2,-4.5 -0.9,-1.3 -2.1,-2.4 -3.5,-3.2 -1.4,-0.8 -3.1,-1.2 -5,-1.2 -1.9,0 -3.6,0.4 -5,1.2 -1.4,0.8 -2.6,1.9 -3.5,3.2 -0.9,1.3 -1.6,2.8 -2,4.5 -0.4,1.7 -0.6,3.4 -0.6,5.1 0,1.7 0.2,3.4 0.6,5.1 0.4,1.7 1.1,3.2 2,4.5 0.9,1.3 2.1,2.4 3.5,3.2 1.4,0.8 3.1,1.2 5,1.2 z"
   class="st0" />
		<path
   style="fill:#f68e1e"
   id="path14"
   d="m 126.2,1.8 h 8.6 V 22 h 0.2 c 0.6,-1 1.3,-1.8 2.2,-2.6 0.9,-0.8 1.8,-1.4 2.8,-2 1,-0.5 2.1,-0.9 3.2,-1.2 1.1,-0.3 2.3,-0.4 3.4,-0.4 3.1,0 5.7,0.5 8,1.6 2.3,1.1 4.2,2.6 5.7,4.5 1.5,1.9 2.6,4.2 3.4,6.7 0.8,2.6 1.1,5.3 1.1,8.2 0,2.7 -0.3,5.2 -1,7.7 -0.7,2.5 -1.7,4.7 -3.1,6.6 -1.4,1.9 -3.1,3.5 -5.2,4.6 -2.1,1.2 -4.6,1.7 -7.5,1.7 -1.3,0 -2.6,-0.1 -4,-0.3 -1.3,-0.2 -2.6,-0.5 -3.8,-1 -1.2,-0.5 -2.3,-1.2 -3.3,-2 -1,-0.8 -1.8,-1.9 -2.5,-3.2 h -0.1 v 5.4 h -8.2 z m 30,35 c 0,-1.8 -0.2,-3.5 -0.7,-5.2 -0.5,-1.7 -1.1,-3.2 -2,-4.5 -0.9,-1.3 -2,-2.4 -3.4,-3.1 -1.4,-0.8 -2.9,-1.2 -4.7,-1.2 -3.6,0 -6.4,1.3 -8.2,3.8 -1.8,2.6 -2.8,6 -2.8,10.2 0,2 0.2,3.8 0.7,5.6 0.5,1.7 1.2,3.2 2.2,4.4 1,1.2 2.1,2.2 3.4,2.9 1.3,0.7 2.9,1.1 4.6,1.1 2,0 3.6,-0.4 5,-1.2 1.4,-0.8 2.5,-1.9 3.4,-3.2 0.9,-1.3 1.5,-2.8 1.9,-4.4 0.4,-1.8 0.6,-3.5 0.6,-5.2 z"
   class="st0" />
		<path
   style="fill:#f68e1e"
   id="path16"
   d="m 202.4,47.7 c 0,1.1 0.1,1.8 0.4,2.3 0.3,0.5 0.8,0.7 1.6,0.7 0.3,0 0.6,0 0.9,0 0.4,0 0.8,-0.1 1.2,-0.2 v 6.1 c -0.3,0.1 -0.7,0.2 -1.2,0.3 -0.5,0.1 -1,0.2 -1.5,0.3 -0.5,0.1 -1,0.2 -1.5,0.2 -0.5,0.1 -0.9,0.1 -1.3,0.1 -1.8,0 -3.2,-0.4 -4.4,-1.1 -1.2,-0.7 -1.9,-2 -2.3,-3.8 -1.7,1.7 -3.8,2.9 -6.3,3.7 -2.5,0.8 -4.9,1.1 -7.2,1.1 -1.8,0 -3.4,-0.2 -5.1,-0.7 -1.6,-0.5 -3,-1.2 -4.3,-2.1 -1.2,-0.9 -2.2,-2.1 -2.9,-3.6 -0.7,-1.5 -1.1,-3.2 -1.1,-5.1 0,-2.5 0.4,-4.4 1.3,-6 0.9,-1.5 2,-2.7 3.5,-3.6 1.4,-0.9 3,-1.5 4.8,-1.9 1.8,-0.4 3.6,-0.7 5.4,-0.9 1.6,-0.3 3,-0.5 4.5,-0.7 1.4,-0.1 2.7,-0.3 3.7,-0.7 1.1,-0.3 1.9,-0.8 2.6,-1.4 0.6,-0.6 0.9,-1.6 0.9,-2.9 0,-1.1 -0.3,-2 -0.8,-2.8 -0.5,-0.7 -1.2,-1.3 -2,-1.6 -0.8,-0.4 -1.6,-0.6 -2.6,-0.8 -1,-0.1 -1.9,-0.2 -2.7,-0.2 -2.4,0 -4.4,0.5 -6,1.5 -1.6,1 -2.4,2.6 -2.6,4.8 h -8.6 c 0.2,-2.6 0.8,-4.7 1.8,-6.4 1.1,-1.7 2.4,-3 4,-4.1 1.6,-1 3.5,-1.7 5.6,-2.1 2.1,-0.4 4.2,-0.6 6.3,-0.6 1.9,0 3.8,0.2 5.7,0.6 1.9,0.4 3.5,1.1 5,2 1.5,0.9 2.7,2.1 3.6,3.6 0.9,1.5 1.4,3.2 1.4,5.3 v 20.7 z m -8.6,-11 c -1.3,0.9 -2.9,1.4 -4.8,1.6 -1.9,0.2 -3.8,0.4 -5.7,0.8 -0.9,0.2 -1.8,0.4 -2.6,0.7 -0.9,0.3 -1.6,0.7 -2.3,1.2 -0.7,0.5 -1.2,1.1 -1.5,1.9 -0.4,0.8 -0.6,1.8 -0.6,2.9 0,1 0.3,1.8 0.8,2.5 0.6,0.7 1.2,1.2 2,1.6 0.8,0.4 1.6,0.7 2.6,0.8 0.9,0.2 1.8,0.2 2.5,0.2 1,0 2,-0.1 3.1,-0.4 1.1,-0.3 2.2,-0.7 3.1,-1.3 1,-0.6 1.8,-1.4 2.5,-2.3 0.7,-0.9 1,-2.1 1,-3.5 v -6.7 z"
   class="st0" />
		<path
   style="fill:#f68e1e"
   id="path18"
   d="m 216.1,39 c 0,1.5 0.2,3 0.6,4.4 0.4,1.4 1.1,2.7 1.9,3.8 0.9,1.1 1.9,1.9 3.2,2.6 1.3,0.6 2.9,1 4.7,1 2.5,0 4.5,-0.5 6.1,-1.6 1.5,-1.1 2.7,-2.7 3.4,-4.9 h 8.2 c -0.5,2.1 -1.2,4.1 -2.3,5.8 -1.1,1.7 -2.4,3.1 -4,4.3 -1.6,1.1 -3.3,2 -5.2,2.6 -1.9,0.6 -4,0.9 -6.1,0.9 -3.1,0 -5.8,-0.5 -8.2,-1.5 -2.4,-1 -4.4,-2.5 -6,-4.3 -1.6,-1.8 -2.9,-4 -3.7,-6.6 -0.8,-2.6 -1.2,-5.4 -1.2,-8.4 0,-2.8 0.4,-5.5 1.3,-8 0.9,-2.5 2.1,-4.8 3.8,-6.7 1.6,-1.9 3.6,-3.4 5.9,-4.6 2.3,-1.1 4.9,-1.7 7.9,-1.7 3.1,0 5.8,0.7 8.3,2 2.4,1.3 4.5,3 6.1,5.2 1.6,2.1 2.8,4.6 3.5,7.4 0.7,2.8 0.9,5.7 0.6,8.6 h -28.8 z m 20.1,-5.8 c -0.1,-1.4 -0.4,-2.7 -0.9,-4 -0.5,-1.3 -1.1,-2.4 -2,-3.3 -0.8,-0.9 -1.8,-1.7 -3,-2.3 -1.2,-0.6 -2.5,-0.9 -4,-0.9 -1.5,0 -2.9,0.3 -4.1,0.8 -1.2,0.5 -2.3,1.3 -3.2,2.2 -0.9,0.9 -1.6,2.1 -2.1,3.3 -0.5,1.3 -0.8,2.7 -0.9,4.1 z"
   class="st0" />
	</g>
</g>
</svg>