<?xml version="1.0" encoding="UTF-8" standalone="no"?>
<svg
   xmlns:dc="http://purl.org/dc/elements/1.1/"
   xmlns:cc="http://creativecommons.org/ns#"
   xmlns:rdf="http://www.w3.org/1999/02/22-rdf-syntax-ns#"
   xmlns:svg="http://www.w3.org/2000/svg"
   xmlns="http://www.w3.org/2000/svg"
   xmlns:xlink="http://www.w3.org/1999/xlink"
   id="svg8"
   version="1.1"
   viewBox="0 0 164.71511 30.000001"
   height="30"
   width="164.71512">
  <defs
     id="defs2">
    <linearGradient
       id="linearGradient954">
      <stop
         id="stop950"
         offset="0"
         style="stop-color:#ffef00;stop-opacity:1" />
      <stop
         id="stop952"
         offset="1"
         style="stop-color:#f7941e;stop-opacity:1" />
    </linearGradient>
    <radialGradient
       gradientUnits="userSpaceOnUse"
       gradientTransform="matrix(1.0373107,-1.2636286,1.0412472,0.85475768,-639.64411,-255.50554)"
       r="32.499535"
       fy="624.14294"
       fx="-274.53323"
       cy="624.14294"
       cx="-274.53323"
       id="radialGradient956"
       xlink:href="#linearGradient954" />
    <radialGradient
       gradientUnits="userSpaceOnUse"
       gradientTransform="matrix(-1.2968645e-7,-1.9666936,2.0000013,-1.3188281e-7,-1525.0708,84.970811)"
       r="22.511814"
       fy="625.26837"
       fx="-274.53323"
       cy="625.26837"
       cx="-274.53323"
       id="radialGradient958"
       xlink:href="#linearGradient954" />
    <radialGradient
       r="22.511814"
       fy="625.26837"
       fx="-274.53323"
       cy="625.26837"
       cx="-274.53323"
       gradientTransform="matrix(-1.2968645e-7,-1.9666936,2.0000013,-1.3188281e-7,-1525.0708,84.970811)"
       gradientUnits="userSpaceOnUse"
       id="radialGradient968"
       xlink:href="#linearGradient954" />
    <radialGradient
       r="32.499535"
       fy="624.14294"
       fx="-274.53323"
       cy="624.14294"
       cx="-274.53323"
       gradientTransform="matrix(1.0373107,-1.2636286,1.0412472,0.85475768,-639.64411,-255.50554)"
       gradientUnits="userSpaceOnUse"
       id="radialGradient970"
       xlink:href="#linearGradient954" />
  </defs>
  <metadata
     id="metadata5">
    <rdf:RDF>
      <cc:Work
         rdf:about="">
        <dc:format>image/svg+xml</dc:format>
        <dc:type
           rdf:resource="http://purl.org/dc/dcmitype/StillImage" />
        <dc:title></dc:title>
      </cc:Work>
    </rdf:RDF>
  </metadata>
  <g
     transform="translate(357.73776,-569.41848)"
     id="layer1">
    <g
       transform="translate(13.30756,24.928572)"
       id="g913" />
    <g
       transform="matrix(0.7317074,0,0,0.7317074,-95.978394,160.81954)"
       id="g893">
      <g
         transform="matrix(0.60150349,0,0,0.60150349,-142.55725,238.46768)"
         id="g868"
         style="font-style:normal;font-variant:normal;font-weight:bold;font-stretch:normal;font-size:78.1474762px;line-height:1.25;font-family:Impact;-inkscape-font-specification:'Impact Bold';letter-spacing:0px;word-spacing:0px;fill:#000000;fill-opacity:1;stroke:#000000;stroke-width:3.32500148;stroke-miterlimit:4;stroke-dasharray:none"
         aria-label="infoclima">
        <path
           id="path850"
           style="fill:#000000;stroke:#000000;stroke-width:3.32500148;stroke-miterlimit:4;stroke-dasharray:none"
           d="m -269.85011,535.72497 v 12.05133 h -15.87371 v -12.05133 z m 0,15.14212 v 46.6356 h -15.87371 v -46.6356 z" />
        <path
           id="path852"
           style="fill:#000000;stroke:#000000;stroke-width:3.32500148;stroke-miterlimit:4;stroke-dasharray:none"
           d="m -248.67245,546.86709 -0.26711,4.65527 q 1.67895,-2.78553 4.0829,-4.15922 2.44211,-1.41184 5.60922,-1.41184 3.96843,0 6.48685,1.86974 2.51843,1.86974 3.24343,4.73158 0.725,2.82369 0.725,9.46317 v 35.4869 h -15.41581 v -35.06716 q 0,-5.22764 -0.34342,-6.37238 -0.34343,-1.14473 -1.9079,-1.14473 -1.64079,0 -2.06053,1.33552 -0.41974,1.29737 -0.41974,7.02107 v 34.22768 h -15.41581 v -50.6356 z" />
        <path
           id="path854"
           style="fill:#000000;stroke:#000000;stroke-width:3.32500148;stroke-miterlimit:4;stroke-dasharray:none"
           d="m -203.79871,535.72497 v 7.82238 q -4.76974,0 -5.64737,0.45789 -0.83948,0.41974 -0.83948,2.48027 v 1.60263 h 6.48685 v 8.01317 h -3.66316 v 41.40138 h -15.41581 v -41.40138 h -3.16711 v -8.01317 h 3.16711 q 0,-4.99869 0.34342,-6.67764 0.34342,-1.67895 1.67895,-2.97632 1.37369,-1.33553 3.8158,-2.02237 2.4421,-0.68684 7.59343,-0.68684 z" />
        <path
           id="path856"
           style="fill:#000000;stroke:#000000;stroke-width:3.32500148;stroke-miterlimit:4;stroke-dasharray:none"
           d="m -165.98418,564.64869 v 12.40134 q 0,6.83027 -0.68684,10.03554 -0.68685,3.16711 -2.93817,5.95264 -2.25132,2.74737 -5.8,4.0829 -3.51054,1.29737 -8.08949,1.29737 -5.11316,0 -8.66185,-1.10658 -3.54869,-1.14474 -5.53291,-3.39606 -1.94605,-2.28948 -2.78553,-5.49475 -0.83947,-3.24342 -0.83947,-9.69211 v -12.97371 q 0,-7.05922 1.52632,-11.02764 1.52631,-3.96843 5.49474,-6.37238 3.96843,-2.40395 10.15002,-2.40395 5.18948,0 8.8908,1.56447 3.73948,1.52632 5.76185,4.00659 2.02237,2.48027 2.74737,5.11316 0.76316,2.6329 0.76316,8.01317 z m -15.41581,-3.81579 q 0,-3.89211 -0.41974,-4.88422 -0.41974,-1.03026 -1.79342,-1.03026 -1.37369,0 -1.83158,1.03026 -0.4579,0.99211 -0.4579,4.88422 v 22.85661 q 0,3.58685 0.4579,4.69343 0.45789,1.06842 1.79342,1.06842 1.37368,0 1.79342,-0.99211 0.4579,-0.9921 0.4579,-4.27369 z" />
        <path
           id="path858"
           style="fill:#000000;stroke:#000000;stroke-width:3.32500148;stroke-miterlimit:4;stroke-dasharray:none"
           d="m -126.79597,565.98422 h -14.53818 v -5.83816 q 0,-3.05264 -0.49606,-4.12106 -0.49605,-1.10658 -1.83158,-1.10658 -1.33552,0 -1.79342,0.95394 -0.4579,0.95395 -0.4579,4.2737 v 23.88687 q 0,2.70921 0.68685,4.0829 0.68684,1.33553 2.02237,1.33553 1.56447,0 2.09869,-1.41185 0.57237,-1.41184 0.57237,-5.34211 v -6.02895 h 13.73686 q -0.0382,6.06711 -0.4579,9.11975 -0.38158,3.01447 -2.55658,6.21974 -2.13685,3.16711 -5.60922,4.8079 -3.47237,1.60264 -8.58554,1.60264 -6.52501,0 -10.3408,-2.21316 -3.8158,-2.25132 -5.41843,-6.25791 -1.56448,-4.04474 -1.56448,-11.44738 v -14.38555 q 0,-6.44869 1.29737,-9.73027 1.29737,-3.28159 5.53291,-5.83817 4.23553,-2.59474 10.30264,-2.59474 6.02896,0 10.30265,2.55658 4.27369,2.55658 5.68553,6.44869 1.41185,3.89211 1.41185,11.02765 z" />
        <path
           id="path860"
           style="fill:#000000;stroke:#000000;stroke-width:3.32500148;stroke-miterlimit:4;stroke-dasharray:none"
           d="m -106.38147,535.72497 v 61.77772 h -15.87371 v -61.77772 z" />
        <path
           id="path862"
           style="fill:#000000;stroke:#000000;stroke-width:3.32500148;stroke-miterlimit:4;stroke-dasharray:none"
           d="m -85.013016,535.72497 v 12.05133 h -15.873704 v -12.05133 z m 0,15.14212 v 46.6356 h -15.873704 v -46.6356 z" />
        <path
           id="path864"
           style="fill:#000000;stroke:#000000;stroke-width:3.32500148;stroke-miterlimit:4;stroke-dasharray:none"
           d="m -64.293262,546.86709 -0.267106,4.8079 q 1.793424,-2.86185 4.27369,-4.27369 2.480267,-1.45 5.647376,-1.45 6.181588,0 9.730277,5.72369 1.946055,-2.86185 4.388164,-4.27369 2.442109,-1.45 5.418428,-1.45 3.930269,0 6.486851,1.9079 2.594741,1.90789 3.319742,4.69342 0.725001,2.74738 0.725001,8.96712 v 35.98295 h -14.957915 v -33.00663 q 0,-6.48685 -0.457896,-8.01317 -0.419737,-1.56447 -2.022371,-1.56447 -1.640792,0 -2.136845,1.52631 -0.457895,1.52632 -0.457895,8.05133 v 33.00663 h -14.957916 v -32.16715 q 0,-7.4408 -0.381579,-8.92896 -0.343422,-1.48816 -1.984214,-1.48816 -1.030264,0 -1.755265,0.80131 -0.725001,0.76316 -0.801317,1.9079 -0.07632,1.10658 -0.07632,4.76974 v 35.10532 h -14.957915 v -50.6356 z" />
        <path
           id="path866"
           style="fill:#000000;stroke:#000000;stroke-width:3.32500148;stroke-miterlimit:4;stroke-dasharray:none"
           d="m -5.453683,566.48027 h -14.461862 v -3.39605 q 0,-5.87633 1.335528,-9.04344 1.373686,-3.20526 5.456587,-5.64737 4.0828999,-2.44211 10.6079089,-2.44211 7.8223792,0 11.7908058,2.78553 3.9684263,2.74737 4.7697433,6.79211 0.801317,4.00659 0.801317,16.56055 v 25.4132 H -0.14972833 v -4.50264 q -1.41184407,2.70921 -3.66316297,4.0829 -2.2131609,1.33553 -5.3039547,1.33553 -4.044742,0 -7.4408,-2.25132 -3.357899,-2.28948 -3.357899,-9.95923 v -4.15921 q 0,-5.68554 1.793423,-7.74607 1.793424,-2.06053 8.8908022,-4.8079 7.5934315,-2.97632 8.1276428,-4.00658 0.53421125,-1.03027 0.53421125,-4.19738 0,-3.96842 -0.61052715,-5.15132 -0.5723692,-1.22105 -1.9460553,-1.22105 -1.5644759,0 -1.9460553,1.03026 -0.3815795,0.99211 -0.3815795,5.22764 z m 4.88421725,6.94475 q -3.70132085,2.70922 -4.31184805,4.5408 -0.5723692,1.83158 -0.5723692,5.26579 0,3.93027 0.4960533,5.07501 0.5342113,1.14474 2.0605292,1.14474 1.450002,0 1.8697394,-0.87763 0.45789535,-0.91579 0.45789535,-4.73159 z" />
      </g>
      <g
         id="g966"
         transform="matrix(0.60150349,0,0,0.60150349,-153.5079,222.54288)">
        <path
           style="fill:url(#radialGradient968);fill-opacity:0.97682465"
           d="m -274.53323,602.75654 v -22.13691 l -6.3112,0.5066 c -19.37003,1.55484 -35.05585,17.81836 -38.11355,39.51722 l -0.59888,4.25 h 22.51181 22.51182 z"
           id="path948" />
        <path
           id="path946"
           d="m -321.7131,617.7368 c 1.76105,-10.26965 6.34203,-19.1746 13.59533,-26.4279 7.25329,-7.25329 16.15824,-11.83427 26.42789,-13.59532 l 7.15665,-1.22723 -0.005,-9.04645 -0.005,-9.04645 -4.04994,6.75 c -2.22747,3.7125 -4.36251,6.73052 -4.74453,6.70671 -0.38202,-0.0238 -3.16959,-2.26505 -6.19459,-4.98053 l -5.5,-4.93723 -1.80934,7.91071 -1.80935,7.91072 -6.88584,-2.93019 c -3.78721,-1.61161 -7.09296,-2.93019 -7.3461,-2.93019 -0.25313,0 -0.21965,3.51025 0.0744,7.80055 l 0.53467,7.80055 -7.37923,-0.69007 c -4.05857,-0.37954 -7.54962,-0.53189 -7.75789,-0.33855 -0.20826,0.19334 0.87845,3.30941 2.41493,6.9246 1.64701,3.87527 2.41808,6.91092 1.87867,7.39624 -0.50321,0.45274 -3.72743,1.39845 -7.16493,2.10157 -3.4375,0.70312 -6.25,1.65189 -6.25,2.10837 0,0.45649 2.03519,3.12149 4.52264,5.92223 2.48745,2.80073 4.27794,5.48817 3.97887,5.97208 -0.29908,0.4839 -3.00926,2.29044 -6.02264,4.01452 -3.01338,1.72408 -5.47887,3.32666 -5.47887,3.5613 0,0.23464 3.7334,0.42661 8.29645,0.42661 h 8.29645 z"
           style="fill:url(#radialGradient970);fill-opacity:1" />
      </g>
      <g
         aria-label="infoclima"
         style="font-style:normal;font-variant:normal;font-weight:bold;font-stretch:normal;font-size:78.1474762px;line-height:1.25;font-family:Impact;-inkscape-font-specification:'Impact Bold';letter-spacing:0px;word-spacing:0px;fill:#ffffff;fill-opacity:1;stroke:none;stroke-width:1.95368671"
         id="text962"
         transform="matrix(0.60150349,0,0,0.60150349,-142.55725,238.46768)">
        <path
           d="m -269.85011,535.72497 v 12.05133 h -15.87371 v -12.05133 z m 0,15.14212 v 46.6356 h -15.87371 v -46.6356 z"
           style="fill:#ffffff;stroke-width:1.95368671"
           id="path972" />
        <path
           d="m -248.67245,546.86709 -0.26711,4.65527 q 1.67895,-2.78553 4.0829,-4.15922 2.44211,-1.41184 5.60922,-1.41184 3.96843,0 6.48685,1.86974 2.51843,1.86974 3.24343,4.73158 0.725,2.82369 0.725,9.46317 v 35.4869 h -15.41581 v -35.06716 q 0,-5.22764 -0.34342,-6.37238 -0.34343,-1.14473 -1.9079,-1.14473 -1.64079,0 -2.06053,1.33552 -0.41974,1.29737 -0.41974,7.02107 v 34.22768 h -15.41581 v -50.6356 z"
           style="fill:#ffffff;stroke-width:1.95368671"
           id="path974" />
        <path
           d="m -203.79871,535.72497 v 7.82238 q -4.76974,0 -5.64737,0.45789 -0.83948,0.41974 -0.83948,2.48027 v 1.60263 h 6.48685 v 8.01317 h -3.66316 v 41.40138 h -15.41581 v -41.40138 h -3.16711 v -8.01317 h 3.16711 q 0,-4.99869 0.34342,-6.67764 0.34342,-1.67895 1.67895,-2.97632 1.37369,-1.33553 3.8158,-2.02237 2.4421,-0.68684 7.59343,-0.68684 z"
           style="fill:#ffffff;stroke-width:1.95368671"
           id="path976" />
        <path
           d="m -165.98418,564.64869 v 12.40134 q 0,6.83027 -0.68684,10.03554 -0.68685,3.16711 -2.93817,5.95264 -2.25132,2.74737 -5.8,4.0829 -3.51054,1.29737 -8.08949,1.29737 -5.11316,0 -8.66185,-1.10658 -3.54869,-1.14474 -5.53291,-3.39606 -1.94605,-2.28948 -2.78553,-5.49475 -0.83947,-3.24342 -0.83947,-9.69211 v -12.97371 q 0,-7.05922 1.52632,-11.02764 1.52631,-3.96843 5.49474,-6.37238 3.96843,-2.40395 10.15002,-2.40395 5.18948,0 8.8908,1.56447 3.73948,1.52632 5.76185,4.00659 2.02237,2.48027 2.74737,5.11316 0.76316,2.6329 0.76316,8.01317 z m -15.41581,-3.81579 q 0,-3.89211 -0.41974,-4.88422 -0.41974,-1.03026 -1.79342,-1.03026 -1.37369,0 -1.83158,1.03026 -0.4579,0.99211 -0.4579,4.88422 v 22.85661 q 0,3.58685 0.4579,4.69343 0.45789,1.06842 1.79342,1.06842 1.37368,0 1.79342,-0.99211 0.4579,-0.9921 0.4579,-4.27369 z"
           style="fill:#ffffff;stroke-width:1.95368671"
           id="path978" />
        <path
           d="m -126.79597,565.98422 h -14.53818 v -5.83816 q 0,-3.05264 -0.49606,-4.12106 -0.49605,-1.10658 -1.83158,-1.10658 -1.33552,0 -1.79342,0.95394 -0.4579,0.95395 -0.4579,4.2737 v 23.88687 q 0,2.70921 0.68685,4.0829 0.68684,1.33553 2.02237,1.33553 1.56447,0 2.09869,-1.41185 0.57237,-1.41184 0.57237,-5.34211 v -6.02895 h 13.73686 q -0.0382,6.06711 -0.4579,9.11975 -0.38158,3.01447 -2.55658,6.21974 -2.13685,3.16711 -5.60922,4.8079 -3.47237,1.60264 -8.58554,1.60264 -6.52501,0 -10.3408,-2.21316 -3.8158,-2.25132 -5.41843,-6.25791 -1.56448,-4.04474 -1.56448,-11.44738 v -14.38555 q 0,-6.44869 1.29737,-9.73027 1.29737,-3.28159 5.53291,-5.83817 4.23553,-2.59474 10.30264,-2.59474 6.02896,0 10.30265,2.55658 4.27369,2.55658 5.68553,6.44869 1.41185,3.89211 1.41185,11.02765 z"
           style="fill:#ffffff;stroke-width:1.95368671"
           id="path980" />
        <path
           d="m -106.38147,535.72497 v 61.77772 h -15.87371 v -61.77772 z"
           style="fill:#ffffff;stroke-width:1.95368671"
           id="path982" />
        <path
           d="m -85.013016,535.72497 v 12.05133 h -15.873704 v -12.05133 z m 0,15.14212 v 46.6356 h -15.873704 v -46.6356 z"
           style="fill:#ffffff;stroke-width:1.95368671"
           id="path984" />
        <path
           d="m -64.293262,546.86709 -0.267106,4.8079 q 1.793424,-2.86185 4.27369,-4.27369 2.480267,-1.45 5.647376,-1.45 6.181588,0 9.730277,5.72369 1.946055,-2.86185 4.388164,-4.27369 2.442109,-1.45 5.418428,-1.45 3.930269,0 6.486851,1.9079 2.594741,1.90789 3.319742,4.69342 0.725001,2.74738 0.725001,8.96712 v 35.98295 h -14.957915 v -33.00663 q 0,-6.48685 -0.457896,-8.01317 -0.419737,-1.56447 -2.022371,-1.56447 -1.640792,0 -2.136845,1.52631 -0.457895,1.52632 -0.457895,8.05133 v 33.00663 h -14.957916 v -32.16715 q 0,-7.4408 -0.381579,-8.92896 -0.343422,-1.48816 -1.984214,-1.48816 -1.030264,0 -1.755265,0.80131 -0.725001,0.76316 -0.801317,1.9079 -0.07632,1.10658 -0.07632,4.76974 v 35.10532 h -14.957915 v -50.6356 z"
           style="fill:#ffffff;stroke-width:1.95368671"
           id="path986" />
        <path
           d="m -5.453683,566.48027 h -14.461862 v -3.39605 q 0,-5.87633 1.335528,-9.04344 1.373686,-3.20526 5.456587,-5.64737 4.0828999,-2.44211 10.6079089,-2.44211 7.8223792,0 11.7908058,2.78553 3.9684263,2.74737 4.7697433,6.79211 0.801317,4.00659 0.801317,16.56055 v 25.4132 H -0.14972833 v -4.50264 q -1.41184407,2.70921 -3.66316297,4.0829 -2.2131609,1.33553 -5.3039547,1.33553 -4.044742,0 -7.4408,-2.25132 -3.357899,-2.28948 -3.357899,-9.95923 v -4.15921 q 0,-5.68554 1.793423,-7.74607 1.793424,-2.06053 8.8908022,-4.8079 7.5934315,-2.97632 8.1276428,-4.00658 0.53421125,-1.03027 0.53421125,-4.19738 0,-3.96842 -0.61052715,-5.15132 -0.5723692,-1.22105 -1.9460553,-1.22105 -1.5644759,0 -1.9460553,1.03026 -0.3815795,0.99211 -0.3815795,5.22764 z m 4.88421725,6.94475 q -3.70132085,2.70922 -4.31184805,4.5408 -0.5723692,1.83158 -0.5723692,5.26579 0,3.93027 0.4960533,5.07501 0.5342113,1.14474 2.0605292,1.14474 1.450002,0 1.8697394,-0.87763 0.45789535,-0.91579 0.45789535,-4.73159 z"
           style="fill:#ffffff;stroke-width:1.95368671"
           id="path988" />
      </g>
    </g>
  </g>
</svg>
