<?xml version="1.0" encoding="UTF-8" standalone="no"?>
<svg
   xmlns:dc="http://purl.org/dc/elements/1.1/"
   xmlns:cc="http://creativecommons.org/ns#"
   xmlns:rdf="http://www.w3.org/1999/02/22-rdf-syntax-ns#"
   xmlns:svg="http://www.w3.org/2000/svg"
   xmlns="http://www.w3.org/2000/svg"
   id="svg12"
   version="1.1"
   viewBox="0 0 49.477177 40.000002"
   style="clip-rule:evenodd;fill-rule:evenodd;image-rendering:optimizeQuality;shape-rendering:geometricPrecision;text-rendering:geometricPrecision"
   height="40"
   width="49.477177"
   xml:space="preserve"><metadata
   id="metadata16"><rdf:RDF><cc:Work
       rdf:about=""><dc:format>image/svg+xml</dc:format><dc:type
         rdf:resource="http://purl.org/dc/dcmitype/StillImage" /><dc:title></dc:title></cc:Work></rdf:RDF></metadata>
 <defs
   id="defs4">
  <style
   id="style2"
   type="text/css">
   <![CDATA[
    .fil0 {fill:#FF6600}
    .fil2 {fill:black;fill-rule:nonzero}
    .fil1 {fill:#2F85F6;fill-rule:nonzero}
   ]]>
  </style>
 
  
  
 
   
   
   
  </defs>
 <g
   transform="matrix(0.7235768,0,0,0.7235768,-51.236901,-87.451177)"
   id="g844"><path
     id="_213318456"
     class="fil0"
     d="m 103.205,150.076 c 3.9336,0 7.1237,3.19 7.1237,7.1235 0,3.9336 -3.1901,7.1237 -7.1237,7.1237 -3.9335,0 -7.1236,-3.1901 -7.1236,-7.1237 0,-3.9335 3.1901,-7.1235 7.1236,-7.1235 z"
     style="fill:#ff9900;fill-opacity:1" /><path
     id="_213318504"
     class="fil1"
     d="m 113.559,141.346 -9.4579,8.7858 c -0.2933,-0.0371 -0.5921,-0.0562 -0.8952,-0.0562 -0.2234,0 -0.4442,0.0108 -0.6623,0.0311 l -7.9545,-8.8095 -1.1755,-1.3018 h 1.7547 2.0423 c -0.2887,-2.824 -1.7655,-4.8484 -3.8521,-5.9774 -1.3639,-0.738 -2.9948,-1.1041 -4.7351,-1.0724 -1.7627,0.0321 -3.6301,0.4731 -5.4418,1.3495 -4.6829,2.2656 -8.988,7.4305 -10.2195,15.9633 l -0.104,0.7204 c 6.787,13.6773 17.6528,18.6698 33.526,13.1979 10.5941,-4.9012 15.2126,-15.5073 14.5395,-26.5949 -1.3152,0 -2.6303,0 -3.9454,0 3.9454,-3.7018 7.8907,-7.4036 11.8361,-11.1055 3.4583,3.7019 6.9166,7.4037 10.3749,11.1055 -1.2664,0 -2.5328,0 -3.7992,0 -1.1208,21.8186 -13.5879,36.4386 -34.2664,38.431 -13.7693,1.3267 -27.1498,-7.7819 -29.0937,-22.7758 l -0.6013,-2.9329 c -0.1405,-0.6853 -0.2551,-1.3511 -0.3447,-1.9974 -1.1137,-8.0271 1.2922,-14.32 5.1098,-18.8407 3.8078,-4.5092 9.0311,-7.2447 13.5621,-8.1737 0.4108,-0.0842 0.8083,-0.1529 1.1912,-0.206 1.9789,-0.2745 3.8653,-0.2952 5.634,-0.0868 3.9722,0.4679 7.3639,2.082 9.902,4.5647 2.538,2.4827 4.2161,5.828 4.7614,9.7582 0.2056,1.4821 0.25,3.045 0.1183,4.673 h 1.6659 1.9844 z m -10.1944,7.3442 7.6796,-7.1339 h -0.5423 -0.8767 l 0.1023,-0.8689 c 0.2138,-1.8155 0.1978,-3.5403 -0.0258,-5.1517 -0.4959,-3.5749 -2.015,-6.6105 -4.3102,-8.8557 -2.2952,-2.2451 -5.3733,-3.7061 -8.9874,-4.1318 -1.6464,-0.1939 -3.402,-0.1747 -5.2437,0.0808 -0.3664,0.0508 -0.7315,0.1134 -1.0936,0.1876 -4.2314,0.8676 -9.1151,3.4291 -12.6841,7.6554 -3.1561,3.7374 -5.2751,8.7861 -4.9868,15.1283 1.9791,-6.5247 5.9006,-10.6716 10.1089,-12.7076 2.0242,-0.9792 4.1157,-1.472 6.0943,-1.508 2.0011,-0.0365 3.8945,0.3942 5.4972,1.2615 2.7594,1.493 4.6382,4.2497 4.7243,8.1144 l 0.0178,0.7957 H 98.0402 96.923 Z"
     style="fill:#0076bc;fill-opacity:1;fill-rule:nonzero" /><path
     id="_213317856"
     class="fil2"
     d="m 76.634,152.956 h -0.4613 c -0.2376,0 -0.4323,-0.2432 -0.3796,-0.4756 l 1.5323,-6.755 c 0.0336,-0.1481 0.2281,-0.3049 0.3796,-0.3049 h 0.4614 c 0.2375,0 0.4323,0.2432 0.3796,0.4756 l -1.5324,6.755 c -0.0335,0.1481 -0.2281,0.3049 -0.3796,0.3049 z m 7.4269,-0.6711 c -0.0587,0.2592 -0.1851,0.4575 -0.3787,0.5946 -0.1808,0.1281 -0.408,0.1922 -0.6813,0.1922 -0.2241,0 -0.4175,-0.0556 -0.5852,-0.1666 0,0 0,0 -1e-4,0 -1e-4,-1e-4 -2e-4,-2e-4 -3e-4,-2e-4 0,0 -1e-4,0 -2e-4,-1e-4 -10e-5,-1e-4 -10e-5,-1e-4 -2e-4,-2e-4 0,0 0,0 0,0 -2e-4,0 -3e-4,-10e-5 -3e-4,-2e-4 0,0 -10e-5,0 -10e-5,0 -1e-4,-2e-4 -2e-4,-2e-4 -3e-4,-3e-4 -0.0041,-0.003 -0.017,-0.0128 -0.0172,-0.013 l 8e-4,-0.001 0.2238,-0.2984 0.0067,-0.009 0.0019,-0.002 -0.0022,0.003 -0.2096,0.3165 -0.0031,0.005 c -1e-4,-1e-4 -1e-4,0 -2e-4,-1e-4 0,-1e-4 -10e-5,-1e-4 -2e-4,-2e-4 0,0 0,0 0,0 -1e-4,0 -2e-4,-1e-4 -3e-4,-2e-4 0,0 -10e-5,0 -10e-5,0 -1e-4,-2e-4 -1e-4,-2e-4 -3e-4,-3e-4 -0.0269,-0.0179 -0.0543,-0.039 -0.0819,-0.0632 -0.0287,-0.0252 -0.0533,-0.0491 -0.0731,-0.0713 -0.1001,-0.1123 -0.176,-0.2589 -0.2275,-0.4396 l -6e-4,1e-4 -1.5683,-5.1994 -1.2523,5.5204 c -0.0335,0.1481 -0.228,0.3049 -0.3795,0.3049 h -0.4614 c -0.2376,0 -0.4323,-0.2432 -0.3796,-0.4756 l 1.4361,-6.331 4e-4,1e-4 c 10e-5,-5e-4 3e-4,-0.001 4e-4,-0.001 l -4e-4,-1e-4 c 2e-4,-9e-4 4e-4,-0.002 6e-4,-0.003 -0.0011,0.003 -0.0039,0.0128 9e-4,-0.006 l 8e-4,1e-4 c 0.0075,-0.0321 0.0146,-0.0594 0.0218,-0.0822 0.0082,-0.026 0.0193,-0.0562 0.0333,-0.0903 0.0599,-0.1463 0.1484,-0.2755 0.2647,-0.3875 l -6e-4,-7e-4 c 0.0087,-0.009 0.0175,-0.0175 0.0327,-0.0296 l 2e-4,3e-4 c 0.0233,-0.021 0.0443,-0.0385 0.0633,-0.0523 h 0.0015 c 0.0299,-0.0217 0.0622,-0.0421 0.0965,-0.061 0.1582,-0.0872 0.3441,-0.1308 0.5571,-0.1308 0.108,0 0.2071,0.01 0.2974,0.0285 0.1122,0.0235 0.2082,0.0621 0.2876,0.1157 l -5e-4,7e-4 c 0.0855,0.0578 0.1596,0.1379 0.2221,0.2402 0.0491,0.0805 0.0924,0.1751 0.1297,0.2834 0,1e-4 0.0045,0.0137 0.0045,0.0138 l 1.602,5.2379 1.2738,-5.6152 c 0.0336,-0.1482 0.2281,-0.305 0.3796,-0.305 h 0.4613 c 0.2376,0 0.4323,0.2433 0.3796,0.4756 z m -1.6452,0.6202 c 0,0 -1e-4,0 -1e-4,0 m 0.4287,-0.6498 c 0,1e-4 0,1e-4 0,1e-4 0,0 0,-1e-4 0,-1e-4 z m -2.5536,-6.1175 c 5e-4,-5e-4 0.001,-9e-4 0.0015,-0.001 -4e-4,1e-4 -6e-4,2e-4 -9e-4,5e-4 0,0 -1e-4,3e-4 -6e-4,8e-4 z m 0.0018,-0.002 c 0,0 0,0 10e-5,-10e-5 -10e-5,10e-5 -10e-5,10e-5 -10e-5,10e-5 z m 10.9122,1.7257 c -0.0837,0.3686 -0.2225,0.699 -0.4165,0.9908 -0.1968,0.2961 -0.4462,0.5501 -0.7479,0.7617 -0.2961,0.2075 -0.617,0.364 -0.9621,0.4689 -0.3406,0.1035 -0.7024,0.1553 -1.0848,0.1553 h -1.4938 c -0.0321,0 -0.0632,-0.004 -0.0932,-0.0126 l -0.5501,2.4251 c -0.0336,0.1481 -0.2281,0.3049 -0.3796,0.3049 h -0.4613 c -0.2376,0 -0.4323,-0.2432 -0.3796,-0.4756 l 1.1082,-4.8856 4e-4,1e-4 c 1e-4,-5e-4 2e-4,-0.001 3e-4,-0.001 l -4e-4,-1e-4 c 2e-4,-8e-4 5e-4,-0.002 6e-4,-0.002 -0.0011,0.003 -0.0037,0.0117 0.001,-0.007 l 6e-4,2e-4 c 0.0203,-0.0883 0.0447,-0.1746 0.073,-0.2585 v -0.002 c 0.0281,-0.0829 0.0622,-0.1683 0.1022,-0.2556 0.1956,-0.4261 0.5026,-0.7965 0.9205,-1.1112 l 9e-4,-6e-4 c 0.0839,-0.0632 0.1675,-0.1202 0.2503,-0.1705 0.0866,-0.0528 0.1757,-0.1012 0.2667,-0.1451 0.4654,-0.2242 0.9906,-0.3365 1.5754,-0.3365 0.3873,0 0.7337,0.0539 1.0388,0.1615 0.3186,0.1123 0.5892,0.2829 0.8116,0.5115 0.2323,0.2388 0.3828,0.5226 0.4511,0.851 0.0645,0.3094 0.0536,0.6539 -0.0323,1.0331 z m -4.5411,1.23 h 1.4129 c 0.2399,0 0.4623,-0.0321 0.6667,-0.0962 0.2024,-0.0633 0.3903,-0.1586 0.5635,-0.2852 0.1697,-0.1242 0.3086,-0.2701 0.4165,-0.4373 0.11,-0.1705 0.1897,-0.3647 0.239,-0.582 0.0486,-0.2142 0.0581,-0.4001 0.0286,-0.5573 -0.0257,-0.1365 -0.0837,-0.2542 -0.1737,-0.3527 -0.0964,-0.1057 -0.2187,-0.1856 -0.3666,-0.2396 -0.1643,-0.06 -0.3637,-0.0901 -0.5981,-0.0901 h -0.0011 c -0.2323,1e-4 -0.4507,0.0322 -0.655,0.0963 -0.0428,0.0135 -0.0756,0.0244 -0.098,0.0327 -0.1665,0.0619 -0.3274,0.1476 -0.4822,0.2571 l -5e-4,2e-4 6e-4,8e-4 c -0.0503,0.0357 -0.099,0.0732 -0.1455,0.1124 l -7e-4,-8e-4 c -0.046,0.0388 -0.0879,0.0773 -0.1253,0.1153 -0.1917,0.1948 -0.3157,0.4155 -0.3715,0.6615 z m -0.9186,-1.5011 c 0,1e-4 -1e-4,1e-4 -1e-4,2e-4 0,-1e-4 1e-4,-1e-4 1e-4,-2e-4 z m 9.4202,5.3652 h -0.8788 c -1.1229,0 -2.033,-0.3411 -2.7301,-1.0234 l -0.003,-0.002 -0.0011,-0.001 7e-4,-7e-4 c -0.0982,-0.0966 -0.1886,-0.1999 -0.2709,-0.3095 -0.0857,-0.1144 -0.1591,-0.2299 -0.2199,-0.3461 -0.3173,-0.6063 -0.3809,-1.3284 -0.1909,-2.166 l 3e-4,2e-4 c 2e-4,-5e-4 3e-4,-0.001 4e-4,-0.001 l -4e-4,-1e-4 c 2e-4,-8e-4 4e-4,-0.001 5e-4,-0.002 -0.0011,0.003 -0.0036,0.0117 0.001,-0.007 l 7e-4,2e-4 c 0.0357,-0.1561 0.0782,-0.3082 0.1274,-0.4557 0.0514,-0.154 0.1085,-0.2999 0.1709,-0.4373 v -10e-4 c 0.3319,-0.7294 0.8476,-1.3321 1.5469,-1.8079 v -0.001 c 0.4732,-0.322 0.9698,-0.5647 1.4894,-0.7282 0.5189,-0.1631 1.0557,-0.2447 1.6104,-0.2447 h 0.8788 c 0.2375,0 0.4322,0.2432 0.3796,0.4756 l -0.0787,0.3469 c -0.0336,0.1482 -0.2281,0.3049 -0.3796,0.3049 H 95.762 c -0.4328,0 -0.8432,0.0648 -1.2313,0.1942 -0.392,0.1308 -0.7661,0.3277 -1.1218,0.5905 l -0.0015,0.001 -0.0017,0.001 -10e-5,-3e-4 c -0.0996,0.0737 -0.1949,0.1494 -0.2855,0.227 -0.0894,0.0765 -0.1726,0.1535 -0.2492,0.2306 -0.2371,0.2387 -0.4191,0.4857 -0.5463,0.7404 h 3.6669 c 0.2375,0 0.4323,0.2432 0.3795,0.4756 l -0.0787,0.3469 c -0.0335,0.1481 -0.2281,0.3049 -0.3795,0.3049 h -3.8914 c -0.0011,0.009 -0.0023,0.0176 -0.0033,0.0265 -0.0106,0.0989 -0.0147,0.1991 -0.012,0.3006 0.0121,0.466 0.1935,0.8495 0.5438,1.1502 0.2683,0.2304 0.5662,0.403 0.8934,0.5175 0.3303,0.1155 0.6962,0.1734 1.0975,0.1734 h 0.7031 c 0.2374,0 0.4322,0.2432 0.3795,0.4756 l -0.0786,0.3469 c -0.0336,0.1482 -0.2281,0.3049 -0.3796,0.3049 z m -4.2931,-3.8523 c 0,1e-4 0,2e-4 0,2e-4 0,0 0,-1e-4 0,-2e-4 z"
     style="fill:#000000;fill-rule:nonzero" /></g>
</svg>