<?xml version="1.0" encoding="UTF-8" standalone="no"?>
<svg
   xmlns:dc="http://purl.org/dc/elements/1.1/"
   xmlns:cc="http://creativecommons.org/ns#"
   xmlns:rdf="http://www.w3.org/1999/02/22-rdf-syntax-ns#"
   xmlns:svg="http://www.w3.org/2000/svg"
   xmlns="http://www.w3.org/2000/svg"
   id="svg8"
   version="1.1"
   viewBox="0 0 42.333442 40"
   height="40"
   width="42.333443">
  <defs
     id="defs2" />
  <metadata
     id="metadata5">
    <rdf:RDF>
      <cc:Work
         rdf:about="">
        <dc:format>image/svg+xml</dc:format>
        <dc:type
           rdf:resource="http://purl.org/dc/dcmitype/StillImage" />
        <dc:title></dc:title>
      </cc:Work>
    </rdf:RDF>
  </metadata>
  <g
     transform="translate(0,-257)"
     id="layer1">
    <g
       transform="matrix(0.37236705,0,0,0.37236705,0,186.40699)"
       id="g845">
      <path
         style="fill:#2593ce;fill-opacity:1;stroke-width:0.26458332"
         d="m 0.0685,273.25357 c -0.04566667,15.83095 -0.02283333,7.91548 0,0 z m 5.09322,16.07344 v -7.67292 l 52.91666,-0.022 c 29.104166,-0.0121 53.36316,-0.032 53.90886,-0.0442 l 0.99219,-0.0221 0.0701,7.7171 0.0701,7.71711 H 59.140709 5.16172 Z m 0,-28.31042 v -7.67291 h 53.974994 53.975006 v 7.67291 7.67292 H 59.136714 5.16172 Z"
         id="path826-6" />
      <path
         style="fill:#d82a27;fill-opacity:1;stroke-width:0.26458332"
         d="M 0,244.08327 C 0,211.99593 0.03081,198.86929 0.06848,214.91296 0.15069704,248.90956 0.00221506,304.68881 0,244.08327 Z m 4.103385,-26.32604 v -28.17812 h 6.35 6.35 v 28.17812 28.17812 h -6.35 -6.35 z m 15.08125,0 v -28.17812 h 6.573599 6.573599 l 0.531632,1.78593 c 0.292399,0.98227 2.067015,7.18793 3.943588,13.79035 l 3.411956,12.00441 0.06851,-13.79035 0.06851,-13.79034 h 5.421598 5.421598 v 28.17812 28.17812 h -6.684033 -6.684034 l -0.500493,-1.78593 c -0.629224,-2.24531 -1.63045,-5.851 -3.177543,-11.44323 -0.66426,-2.4011 -1.445508,-5.19906 -1.736106,-6.21771 -0.290594,-1.01865 -0.894606,-3.16177 -1.342247,-4.7625 -0.44764,-1.60073 -1.073623,-3.74385 -1.39107,-4.7625 l -0.577181,-1.85208 -0.06828,15.41197 -0.06828,15.41198 h -4.892664 -4.892659 z m 41.010414,3.96875 V 197.51661 H 56.623174 53.0513 v -3.96875 -3.96875 h 13.229167 13.22917 v 3.96128 3.96128 l -3.63803,0.0736 -3.63802,0.0736 -0.0675,24.14323 -0.0675,24.14322 h -5.95173 -5.951733 z m 19.967378,23.61406 c 0.0735,-0.32742 0.44013,-2.67891 0.81464,-5.22552 0.37452,-2.54661 0.97526,-6.59474 1.33498,-8.99583 0.35972,-2.4011 0.94193,-6.33016 1.2938,-8.73125 1.31166,-8.95057 1.98313,-13.48271 2.646,-17.85938 0.37467,-2.47385 0.913,-6.10526 1.19628,-8.06979 0.28328,-1.96453 0.63638,-4.28625 0.78466,-5.15937 0.14829,-0.87313 0.2703,-1.61899 0.27115,-1.65747 7.9e-4,-0.0385 3.65853,-0.0385 8.12819,0 l 8.126673,0.07 0.98606,6.21771 c 0.54233,3.41974 1.22803,7.70599 1.52377,9.525 0.29575,1.81901 0.95905,5.98619 1.47399,9.26041 0.51494,3.27422 1.11153,7.02469 1.32575,8.33438 0.21422,1.30968 0.68076,4.22671 1.03674,6.48229 0.35599,2.25557 1.01523,6.42276 1.46497,9.26041 0.44975,2.83766 0.88513,5.60586 0.96752,6.15157 l 0.1498,0.99218 h -6.34322 -6.34321 l -0.16576,-1.12448 c -0.0912,-0.61846 -0.39681,-3.32713 -0.67921,-6.01927 -0.282413,-2.69213 -0.594913,-5.5794 -0.694473,-6.41614 l -0.181,-1.52136 h -2.44707 -2.44707 l -0.14678,1.12448 c -0.0807,0.61847 -0.41804,4.01175 -0.74958,7.54063 l -0.60279,6.41614 h -6.42926 -6.42926 z m 18.13022,-23.28333 c -0.001,-0.47294 -0.17169,-2.34818 -0.37861,-4.16719 -0.20691,-1.81901 -0.5243,-4.82834 -0.7053,-6.6874 -0.18101,-1.85905 -0.40959,-3.2878 -0.50796,-3.175 -0.0984,0.11281 -0.4392,2.94355 -0.75737,6.29053 -0.31818,3.34698 -0.64477,6.65096 -0.72576,7.34218 l -0.14726,1.25677 h 1.61233 1.61233 z"
         id="path826" />
    </g>
  </g>
</svg>
