<?xml version="1.0" encoding="UTF-8" standalone="no"?>
<svg
   xmlns:dc="http://purl.org/dc/elements/1.1/"
   xmlns:cc="http://creativecommons.org/ns#"
   xmlns:rdf="http://www.w3.org/1999/02/22-rdf-syntax-ns#"
   xmlns:svg="http://www.w3.org/2000/svg"
   xmlns="http://www.w3.org/2000/svg"
   id="svg8"
   version="1.1"
   viewBox="0 0 70.180252 40.000002"
   height="40"
   width="70.180252">
  <defs
     id="defs2" />
  <metadata
     id="metadata5">
    <rdf:RDF>
      <cc:Work
         rdf:about="">
        <dc:format>image/svg+xml</dc:format>
        <dc:type
           rdf:resource="http://purl.org/dc/dcmitype/StillImage" />
        <dc:title></dc:title>
      </cc:Work>
    </rdf:RDF>
  </metadata>
  <g
     transform="translate(20.351888,-86.330237)"
     id="layer1">
    <g
       transform="matrix(0.40103002,0,0,0.40103002,-12.19017,75.66802)"
       id="g61">
      <path
         style="fill:#7f06f1;fill-opacity:1"
         d="m -20.351888,111.58708 v -11 h 4 4 v 6.5 6.5 h 6.4999999 6.50000001 v 4.5 4.5 H -9.8518881 -20.351888 Z m 141.121878,-3.90351 c -2.54177,-1.60993 -0.33893,-3.00469 2.84652,-1.80232 4.35133,1.64245 8.44003,-0.0369 8.85522,-3.63716 0.29209,-2.532823 0.12802,-2.701503 -1.68426,-1.73159 -3.08849,1.65291 -6.60365,1.28381 -9.5045,-0.998003 -2.13394,-1.67856 -2.63486,-2.90991 -2.63486,-6.47695 0,-3.58715 0.46098,-4.70641 2.48445,-6.03224 1.36644,-0.89532 3.50394,-1.58193 4.75,-1.52578 1.24605,0.0561 4.17805,0.16099 6.51555,0.233 l 4.25,0.13092 v 8.73696 c 0,7.324743 -0.335,9.162843 -2.07258,11.371813 -1.76611,2.24525 -2.83815,2.6326 -7.25,2.61955 -2.84758,-0.008 -5.79757,-0.40811 -6.55554,-0.8882 z m 11.32142,-11.319003 c 2.05737,-2.93731 1.96362,-4.37057 -0.4433,-6.77749 -5.30864,-5.30864 -13.36992,1.6188 -8.34501,7.17126 2.31166,2.55435 6.8663,2.35028 8.78831,-0.39377 z M -1.3518881,90.587077 c 0,-10 0.25,-12 1.50000001,-12 1.08333299,0 1.49999999,1.11111 1.49999999,4 0,4.25694 0.423756,4.54979 4.397485,3.03898 3.128425,-1.18943 8.2330151,0.40209 9.6236241,3.00046 1.463641,2.73484 1.18139,8.22644 -0.549851,10.69813 -1.904174,2.718593 -7.4509851,3.878833 -10.5681621,2.210573 -1.701065,-0.91038 -2.407662,-0.93444 -2.68863,-0.0915 -0.209623,0.62883 -1.01863299,1.14336 -1.79779899,1.14336 -1.14351901,0 -1.41666701,-2.31373 -1.41666701,-12.000003 z m 13.1712591,7.34501 c 2.400012,-2.17198 2.324547,-5.8492 -0.171259,-8.34501 -5.6418931,-5.64189 -12.6841111,2.3375 -7.7223211,8.75 1.371641,1.772683 5.734637,1.54883 7.8935801,-0.40499 z m 10.578741,3.574893 c -2.424734,-1.41228 -2.304607,-6.552723 0.184259,-7.884723 1.063842,-0.56935 3.763842,-1.03518 6.000001,-1.03518 2.78671,0 4.06574,-0.43336 4.06574,-1.37756 0,-2.62338 -2.82484,-3.90607 -7.097605,-3.22282 -3.001128,0.4799 -3.978557,0.32887 -3.679421,-0.56854 1.115394,-3.34618 11.847436,-2.69595 13.188596,0.79908 0.32364,0.84338 0.58843,4.42161 0.58843,7.95163 0,5.038413 -0.32247,6.418213 -1.5,6.418213 -0.825,0 -1.5,-0.46583 -1.5,-1.03518 0,-0.71358 -0.60093,-0.71358 -1.93426,0 -2.43105,1.30106 -6.038293,1.28157 -8.31574,-0.0449 z m 8.42126,-2.574893 c 2.74427,-2.48352 2.27751,-4.34501 -1.08947,-4.34501 -5.572626,0 -7.644564,2.03723 -4.88179,4.8 1.663017,1.663023 3.81181,1.499293 5.97126,-0.45499 z m 11.82874,-4.96164 c 0,-8.27058 0.0846,-8.5945 2.10732,-8.06556 1.15903,0.3031 3.18403,0.14172 4.5,-0.35861 2.59009,-0.98476 7.30401,0.30414 8.60702,2.35336 0.41527,0.65309 0.76193,4.22494 0.77035,7.93744 0.0119,5.246103 -0.30871,6.750003 -1.439,6.750003 -1.09905,0 -1.52654,-1.64391 -1.75,-6.729563 -0.27723,-6.30947 -0.46547,-6.78904 -3.01541,-7.68239 -4.46583,-1.56457 -6.78028,1.35976 -6.78028,8.56694 0,4.528903 -0.33775,5.845013 -1.5,5.845013 -1.21728,0 -1.5,-1.62407 -1.5,-8.616633 z m 23,-3.38337 c 0,-10 0.25,-12 1.5,-12 1.19048,0 1.5,1.44444 1.5,7 0,3.85 0.36172,7 0.80383,7 0.44211,0 2.33039,-1.575 4.19617,-3.5 1.86578,-1.925 4.28825,-3.5 5.38326,-3.5 1.82242,0 1.7635,0.23738 -0.69617,2.80472 -1.4779,1.54259 -2.68709,3.27788 -2.68709,3.8562 0,0.57831 1.59561,3.14119 3.54581,5.69528 3.11175,4.075343 3.30566,4.643803 1.58403,4.643803 -1.09778,0 -3.37308,-1.78191 -5.16626,-4.045983 -3.05698,-3.85976 -3.29099,-3.96769 -5.08403,-2.34502 -1.03375,0.93554 -1.87955,2.75623 -1.87955,4.045993 0,1.41779 -0.5931,2.34501 -1.5,2.34501 -1.25,0 -1.5,-2 -1.5,-12.000003 z m 21,3.5 c 0,-6.88889 0.28431,-8.5 1.5,-8.5 1.21569,0 1.5,1.61111 1.5,8.5 0,6.888893 -0.28431,8.500003 -1.5,8.500003 -1.21569,0 -1.5,-1.61111 -1.5,-8.500003 z m 10,0.0403 v -8.45975 l 2.750003,0.0372 c 1.512495,0.0205 4.488925,-0.0426 6.614285,-0.14025 5.52774,-0.25386 6.77996,1.47251 6.97322,9.61366 0.13756,5.794643 -0.10598,6.899203 -1.58751,7.200103 -1.52079,0.30884 -1.75,-0.47937 -1.75,-6.017943 0,-6.78014 -1.03257,-8.77332 -4.54501,-8.77332 -3.65821,0 -5.454985,3.07272 -5.454985,9.32874 0,4.374453 -0.34299,5.671263 -1.5,5.671263 -1.215133,0 -1.500003,-1.60664 -1.500003,-8.459743 z m -9.84124,-13.84896 c -1.35917,-1.6377 -0.5444,-2.6913 2.08123,-2.6913 1.24239,0 1.79401,0.58082 1.58333,1.66713 -0.43042,2.21935 -2.25049,2.72802 -3.66456,1.02417 z M -1.3518881,56.587077 v -15 h 4 4 v 15 15 h -4 -4 z m 15.0000001,0 v -15 h 3.430735 c 3.051245,0 4.116966,0.82961 9.634525,7.5 3.41208,4.125 6.59325,7.5 7.06926,7.5 0.47601,0 0.86548,-3.375 0.86548,-7.5 v -7.5 h 4 4 v 15 15 h -3.46295 c -3.10848,0 -4.1577,-0.83061 -10.25,-8.11434 l -6.78705,-8.11434 -0.290442,8.11434 -0.290443,8.11434 H 17.60767 13.648112 Z m 43,3.0575 v -12.0575 h -4.5 c -4.33333,0 -4.5,-0.11111 -4.5,-3 v -3 h 13.5 13.5 v 3 c 0,2.92631 -0.12069,3 -4.91378,3 h -4.91379 l 0.16379,11.75 0.16378,11.75 -4.25,0.3075 -4.25,0.3075 z m 22,-3.0575 v -15 h 12 11.999998 v 3 3 h -7.999998 -8 v 3 3 h 7.06642 7.066418 l -0.31642,2.75 c -0.3064,2.66288 -0.530255,2.75937 -7.066418,3.04569 -6.74341,0.2954 -6.75,0.29857 -6.75,3.25 v 2.95431 h 8 7.999998 v 3 3 h -11.999998 -12 z m 29.999998,0 v -15 h 9.04966 c 9.70859,0 13.60414,1.23995 16.38964,5.21679 2.41827,3.45258 1.98849,9.02957 -0.9393,12.18871 -3.11729,3.36361 -3.11378,4.22698 0.036,8.86237 l 2.5361,3.73213 -3.78605,-0.0214 c -3.26465,-0.0184 -4.1737,-0.56927 -6.6009,-4 -2.18981,-3.09512 -3.46662,-3.9786 -5.75,-3.9786 -2.75767,0 -2.93515,0.24186 -2.93515,4 v 4 h -4 -4 z m 16.77749,-0.5567 c 2.75363,-1.92872 2.91219,-6.00383 0.28825,-7.40812 -1.06384,-0.56935 -3.53884,-1.03518 -5.5,-1.03518 h -3.56574 v 5 c 0,4.98296 0.0112,5 3.27749,5 1.80263,0 4.27763,-0.70052 5.5,-1.5567 z m 20.22251,-14.9433 v -6.5 h -6.5 -6.5 v -3.999998 -4 h 11 11 v 10.499998 10.5 h -4.5 -4.5 z"
         id="path40" />
      <path
         id="path57"
         d="m 120.76999,107.68357 c -2.54177,-1.60993 -0.33893,-3.00469 2.84652,-1.80232 4.35133,1.64245 8.44003,-0.0369 8.85522,-3.63716 0.29209,-2.532823 0.12802,-2.701503 -1.68426,-1.73159 -3.08849,1.65291 -6.60365,1.28381 -9.5045,-0.998003 -2.13394,-1.67856 -2.63486,-2.90991 -2.63486,-6.47695 0,-3.58715 0.46098,-4.70641 2.48445,-6.03224 1.36644,-0.89532 3.50394,-1.58193 4.75,-1.52578 1.24605,0.0561 4.17805,0.16099 6.51555,0.233 l 4.25,0.13092 v 8.73696 c 0,7.324743 -0.335,9.162843 -2.07258,11.371813 -1.76611,2.24525 -2.83815,2.6326 -7.25,2.61955 -2.84758,-0.008 -5.79757,-0.40811 -6.55554,-0.8882 z m 11.32142,-11.319003 c 2.05737,-2.93731 1.96362,-4.37057 -0.4433,-6.77749 -5.30864,-5.30864 -13.36992,1.6188 -8.34501,7.17126 2.31166,2.55435 6.8663,2.35028 8.78831,-0.39377 z M -1.3518881,90.587077 c -2.2057485,-4.201112 2.9345579,-19.38436 3,-8 0,4.25694 0.423756,4.54979 4.397485,3.03898 3.128425,-1.18943 8.2330151,0.40209 9.6236241,3.00046 1.463641,2.73484 1.18139,8.22644 -0.549851,10.69813 -1.904174,2.718593 -7.4509851,3.878833 -10.5681621,2.210573 -1.701065,-0.91038 -2.407662,-0.93444 -2.68863,-0.0915 -0.209623,0.62883 -1.01863299,1.14336 -1.79779899,1.14336 -1.14351901,0 -1.41666701,-2.31373 -1.41666701,-12.000003 z m 13.1712591,7.34501 c 2.400012,-2.17198 2.324547,-5.8492 -0.171259,-8.34501 -5.6418931,-5.64189 -12.6841111,2.3375 -7.7223211,8.75 1.371641,1.772683 5.734637,1.54883 7.8935801,-0.40499 z m 10.578741,3.574893 c -2.424734,-1.41228 -2.304607,-6.552723 0.184259,-7.884723 1.063842,-0.56935 3.763842,-1.03518 6.000001,-1.03518 2.78671,0 4.06574,-0.43336 4.06574,-1.37756 0,-2.62338 -2.82484,-3.90607 -7.097605,-3.22282 -3.001128,0.4799 -3.978557,0.32887 -3.679421,-0.56854 1.115394,-3.34618 11.847436,-2.69595 13.188596,0.79908 0.32364,0.84338 0.58843,4.42161 0.58843,7.95163 0,5.038413 -0.32247,6.418213 -1.5,6.418213 -0.825,0 -1.5,-0.46583 -1.5,-1.03518 0,-0.71358 -0.60093,-0.71358 -1.93426,0 -2.43105,1.30106 -6.038293,1.28157 -8.31574,-0.0449 z m 8.42126,-2.574893 c 2.74427,-2.48352 2.27751,-4.34501 -1.08947,-4.34501 -5.572626,0 -7.644564,2.03723 -4.88179,4.8 1.663017,1.663023 3.81181,1.499293 5.97126,-0.45499 z m 11.82874,-4.96164 c 0,-8.27058 0.0846,-8.5945 2.10732,-8.06556 1.15903,0.3031 3.18403,0.14172 4.5,-0.35861 2.59009,-0.98476 7.30401,0.30414 8.60702,2.35336 0.41527,0.65309 0.76193,4.22494 0.77035,7.93744 0.0119,5.246103 -0.30871,6.750003 -1.439,6.750003 -1.09905,0 -1.52654,-1.64391 -1.75,-6.729563 -0.27723,-6.30947 -0.46547,-6.78904 -3.01541,-7.68239 -4.46583,-1.56457 -6.78028,1.35976 -6.78028,8.56694 0,4.528903 -0.33775,5.845013 -1.5,5.845013 -1.21728,0 -1.5,-1.62407 -1.5,-8.616633 z m 23,-3.38337 c -1.240792,-10.597094 2.969666,-18.066614 3,-5 0,3.85 0.36172,7 0.80383,7 0.44211,0 2.33039,-1.575 4.19617,-3.5 1.86578,-1.925 4.28825,-3.5 5.38326,-3.5 1.82242,0 1.7635,0.23738 -0.69617,2.80472 -1.4779,1.54259 -2.68709,3.27788 -2.68709,3.8562 0,0.57831 1.59561,3.14119 3.54581,5.69528 3.11175,4.075343 3.30566,4.643803 1.58403,4.643803 -1.09778,0 -3.37308,-1.78191 -5.16626,-4.045983 -3.05698,-3.85976 -3.29099,-3.96769 -5.08403,-2.34502 -1.03375,0.93554 -1.87955,2.75623 -1.87955,4.045993 0,1.41779 -0.5931,2.34501 -1.5,2.34501 -1.25,0 -1.5,-2 -1.5,-12.000003 z m 21,3.5 c 0,-6.88889 0.28431,-8.5 1.5,-8.5 1.21569,0 1.5,1.61111 1.5,8.5 0,6.888893 -0.28431,8.500003 -1.5,8.500003 -1.21569,0 -1.5,-1.61111 -1.5,-8.500003 z m 10,0.0403 v -8.45975 l 2.750003,0.0372 c 1.512495,0.0205 4.488925,-0.0426 6.614285,-0.14025 5.52774,-0.25386 6.77996,1.47251 6.97322,9.61366 0.13756,5.794643 -0.10598,6.899203 -1.58751,7.200103 -1.52079,0.30884 -1.75,-0.47937 -1.75,-6.017943 0,-6.78014 -1.03257,-8.77332 -4.54501,-8.77332 -3.65821,0 -5.454985,3.07272 -5.454985,9.32874 0,4.374453 -0.34299,5.671263 -1.5,5.671263 -1.215133,0 -1.500003,-1.60664 -1.500003,-8.459743 z m -9.84124,-13.84896 c -15.933496,79.764093 -7.966748,39.882043 0,0 z"
         style="fill:#708087;fill-opacity:1" />
    </g>
  </g>
</svg>
