<?xml version="1.0" encoding="UTF-8" standalone="no"?>
<svg
   xmlns:dc="http://purl.org/dc/elements/1.1/"
   xmlns:cc="http://creativecommons.org/ns#"
   xmlns:rdf="http://www.w3.org/1999/02/22-rdf-syntax-ns#"
   xmlns:svg="http://www.w3.org/2000/svg"
   xmlns="http://www.w3.org/2000/svg"
   height="23"
   width="187.35803"
   xml:space="preserve"
   viewBox="0 0 187.35803 23.000001"
   y="0px"
   x="0px"
   id="Capa_1"
   version="1.1"><metadata
   id="metadata51"><rdf:RDF><cc:Work
       rdf:about=""><dc:format>image/svg+xml</dc:format><dc:type
         rdf:resource="http://purl.org/dc/dcmitype/StillImage" /><dc:title></dc:title></cc:Work></rdf:RDF></metadata><defs
   id="defs49" />
<style
   id="style2"
   type="text/css">
	.st0{fill:#4579B2;}
	.st1{fill:#E8E8E8;}
	.st2{opacity:0.25;enable-background:new    ;}
	.st3{fill:#2D5B87;}
	.st4{fill:#324A63;}
	.st5{fill:#E0C136;}
	.st6{fill:#FFFFFF;}
	.st7{fill:#5592BF;}
	.st8{fill:#5592C0;}
</style>
<g
   transform="scale(0.17567561)"
   id="g44">
	<g
   id="g24">
		<path
   style="fill:#4579b2"
   id="path4"
   d="m 285.5,27 c 17,-9 38,-22 43,-27 l 9,25 -13,7 c 0,0 -28,18 -32,18 -4,0 -7,-23 -7,-23 z"
   class="st0" />
		<path
   style="fill:#e8e8e8"
   id="path6"
   d="m 306.5,68.3 -8.9,-20.3 41.9,-25 5,25 -29.2,18.3 c 0,0 -11.8,6.7 -14.8,6.7 -3,0 6,-4.7 6,-4.7 z"
   class="st1" />
		<path
   style="opacity:0.25;enable-background:new"
   id="path8"
   d="m 287.8,25.8 19.7,44.7 10.3,-5.4 c 0,0 -15.9,-11.7 -22.6,-43.4 z"
   class="st2" />
		<path
   style="fill:#2d5b87"
   id="path10"
   d="m 323.5,93 c 0,0 -39,20 -52,20 -13,0 0,-12 0,-12 l 35,-30 15,-8 z"
   class="st3" />
		<path
   style="fill:#324a63"
   id="path12"
   d="m 266.1,111.2 -10,-25 47.4,-7.2 9,4 v 3 0 0.5 0.5 c 0,0 -9,6 -21,12 -9.4,4.7 -21,6 -25.4,12.2 z"
   class="st4" />
		<circle
   style="fill:#e0c136"
   id="circle14"
   r="9"
   cy="52"
   cx="248.5"
   class="st5" />
		<polygon
   style="fill:#ffffff"
   id="polygon16"
   points="288.5,34 292.5,37 305.5,66 286.5,63 280.5,31 "
   class="st6" />
		<path
   style="fill:#5592bf"
   id="path18"
   d="m 287.5,25 c 1.2,3 5,12 5,12 -19,-17 -84,21 -84,21 l -7,-22 c 0,0 68,-40 82,-18 1,1.5 3.2,5.1 4,7 z"
   class="st7" />
		<path
   style="fill:#5592c0"
   id="path20"
   d="m 225.5,110 c 0,0 16.6,-9.7 32,-17 19,-9 56,-16 55,-6 0,0 2,-1 0,-5 l -7,-16 c 0,0 -8,-19 -47,-3 -34,14 -44,22 -44,22 z"
   class="st8" />
		<path
   id="path22"
   d="m 265.6,113.7 -0.1,-0.3 c 0,0.1 0.1,0.3 0.1,0.3 z" />
	</g>
	<path
   id="path26"
   d="m 114,127.1 c -38.1,0 -76,0 -114,0 0,-5.3 0,-10.5 0,-16 3.4,0 6.8,0 10.3,0 5.4,0 7.8,-2.3 7.8,-7.8 0,-24.3 0,-48.6 0,-72.9 0,-5.3 -2.4,-7.6 -7.6,-7.7 -3.4,0 -6.9,0 -10.5,0 0,-5.4 0,-10.7 0,-16 23.5,0 47,0 70.6,0 0,5.3 0,10.5 0,16 -3.6,0 -7.2,0 -10.8,0 -5,0 -7.4,2.4 -7.4,7.4 0,26.6 0,53.1 0,79.7 0,0.3 0,0.6 0.1,0.9 0.2,0.1 0.3,0.3 0.4,0.3 8.1,-0.1 16.3,0.5 24.3,-0.3 11.4,-1.1 17.2,-7.1 19,-18.4 0.8,-4.8 1,-9.7 1.5,-14.7 5.3,0 10.8,0 16.5,0 -0.2,16.5 -0.2,32.9 -0.2,49.5 z" />
	<path
   id="path28"
   d="m 561.3,36.4 c 0,-4.8 0,-9.3 0,-14.1 0.9,0 1.8,0 2.7,0 21,0 42.1,0 63.1,0 4.4,0 14.4,0.5 21.4,2.6 12.6,3.8 18.9,11.1 20,24.1 1.2,14.7 -4.2,24.9 -18.7,29.8 -2.7,0.9 -5.6,1.7 -8.4,2 -6,0.7 -12.1,1.1 -18.2,1.4 -5.3,0.2 -10.6,0 -16,0 -0.1,0.8 -0.2,1.4 -0.2,2 0,7.5 0,15.1 0,22.6 0,4.4 1.9,6.4 6.2,6.5 3.4,0.1 6.7,0 10.3,0 0,4.7 0,9.1 0,13.8 -20.6,0 -41.3,0 -62,0 0,-4.5 0,-9 0,-13.8 2.6,0 5.3,0 7.9,0 6,0 7.8,-1.8 7.8,-7.7 0,-20.5 0,-40.9 0,-61.4 0,-6.2 -1.7,-7.8 -7.9,-7.8 -2.6,0 -5.2,0 -8,0 z m 45.8,31.5 c 0.9,0 1.5,0.1 2.2,0.1 4.6,0 9.3,0 13.9,-0.2 2,-0.1 4.1,-0.7 6,-1.4 6.5,-2.5 10.1,-8.2 9.6,-15.3 -0.5,-7 -4.8,-12.4 -11.4,-14.1 -0.8,-0.2 -1.6,-0.4 -2.4,-0.4 -6,0 -11.9,0 -18,0 0.1,10.4 0.1,20.7 0.1,31.3 z" />
	<path
   id="path30"
   d="m 825.8,113.2 c 0,4.7 0,9.2 0,13.8 -20.4,0 -40.6,0 -61.1,0 0,-4.5 0,-9 0,-13.8 2.8,0 5.6,0 8.4,0 5.4,0 7.3,-1.9 7.3,-7.2 0,-22.3 0,-44.6 0,-66.9 0,-0.8 0,-1.6 0,-2.7 -7,0.1 -13.4,1.1 -17.9,6.9 -4.4,5.5 -4.6,12.3 -4.9,19.1 -4.9,0 -9.7,0 -14.6,0 0,-13.3 0,-26.6 0,-40 34.9,0 69.8,0 104.7,0 0,13.4 0,26.6 0,40 -4.8,0 -9.6,0 -14.5,0 -0.2,-2.7 -0.4,-5.5 -0.8,-8.2 -1.5,-11.9 -10.1,-18.8 -22.2,-17.5 0,0.7 0,1.5 0,2.3 0,22.5 0,44.9 0,67.4 0,4.9 1.9,6.9 6.8,7 2.9,-0.1 5.8,-0.2 8.8,-0.2 z" />
	<path
   id="path32"
   d="m 967.3,36.4 c 0,-4.8 0,-9.3 0,-14 20.4,0 40.8,0 61.3,0 0,4.6 0,9.1 0,14 -3.2,0 -6.3,0 -9.4,0 -4.2,0 -6.3,2 -6.3,6.1 0,23 0,46.1 0,69.1 0,0.5 0.1,0.9 0.2,2 8.2,-0.4 16.4,-0.3 24.4,-1.4 7.4,-1 11.5,-6.5 12.9,-13.6 1,-4.7 1.3,-9.5 1.9,-14.5 4.5,0 9.2,0 14.2,0 0,14.2 0,28.4 0,42.8 -33,0 -66,0 -99.1,0 0,-4.4 0,-8.9 0,-13.7 2.7,0 5.3,0 8,0 5.8,0 7.7,-1.8 7.7,-7.6 0,-20.5 0,-41.1 0,-61.6 0,-6 -1.8,-7.7 -7.8,-7.7 -2.6,0.1 -5.2,0.1 -8,0.1 z" />
	<path
   id="path34"
   d="m 734.5,36.4 c -3.7,0 -7.1,0 -10.6,0 -3.7,0.1 -4.9,1.2 -5.2,4.8 -0.1,0.8 -0.1,1.6 -0.1,2.4 0,20.7 0,41.4 0,62.1 0,0.5 0,1 0,1.4 0.3,4.1 2.1,5.9 6.2,6.1 3,0.1 6.1,0 9.3,0 0,4.7 0,9.2 0,13.8 -20.3,0 -40.6,0 -60.9,0 0,-4.6 0,-9.1 0,-13.8 2.9,0 5.7,0 8.5,0 5.3,-0.1 7.2,-2 7.2,-7.3 0,-21.4 0,-42.8 0,-64.3 0,-3.6 -1.4,-5.1 -5.1,-5.2 -3.5,-0.1 -7,0 -10.8,0 0,-4.7 0,-9.2 0,-14 20.5,0 40.9,0 61.5,0 0,4.6 0,9.1 0,14 z" />
	<path
   id="path36"
   d="m 234.8,113.2 c -3.9,0 -6.6,-1.6 -8.1,-5.2 -0.7,-1.6 -1.4,-3.2 -2,-4.9 -2.6,-7.6 -5.2,-15.3 -7.8,-23 -5.1,-15.2 -10.2,-30.4 -15.2,-45.7 l -4,-12.3 h -32.2 l -5.1,16.4 c -6.5,19.6 -13,39.3 -19.6,58.9 -1.2,3.5 -2.4,6.9 -3.8,10.4 -1.5,3.6 -4.3,5.5 -8.3,5.4 -1.7,0 -3.5,0 -5.3,0 0,4.8 0,9.3 0,13.8 15.5,0 30.9,0 46.3,0 0,-4.6 0,-9.1 0,-13.8 -1.4,0 -2.7,0.1 -3.9,0 -2.6,-0.2 -5.1,-0.4 -7.6,-0.8 -2,-0.3 -3.1,-1.6 -2.5,-3.8 1.3,-4.5 2.5,-9.1 3.9,-13.6 0.2,-0.6 1.4,-1.1 2.2,-1.1 5.8,-0.1 11.6,-0.1 17.3,-0.1 4.2,0 8.5,0 12.9,0 1.2,4.4 2.5,8.6 3.6,12.8 1.2,5 0.3,6.1 -4.9,6.4 -2.6,0.1 -5.2,0 -7.9,0 0,5 0,9.5 0,14 19.2,0 38.1,0 57.3,0 0,-4.7 0,-9.2 0,-13.9 -1.9,0.1 -3.6,0.1 -5.3,0.1 z M 164.4,79.7 c 3.7,-11.3 7.4,-22.3 11,-33.3 0.2,0 0.3,0 0.5,0 3.7,11 7.4,22.1 11.1,33.3 -7.6,0 -14.9,0 -22.6,0 z" />
	<path
   id="path38"
   d="m 952.9,113.2 c -3.9,0 -6.6,-1.6 -8.1,-5.2 -0.7,-1.6 -1.4,-3.2 -2,-4.9 -2.6,-7.6 -5.2,-15.3 -7.8,-23 -5.1,-15.2 -10.2,-30.4 -15.2,-45.7 l -4,-12.3 h -32.2 l -5.1,16.4 c -6.5,19.6 -13,39.3 -19.6,58.9 -1.2,3.5 -2.4,6.9 -3.8,10.4 -1.5,3.6 -4.3,5.5 -8.3,5.4 -1.7,0 -3.5,0 -5.3,0 0,4.8 0,9.3 0,13.8 15.5,0 30.9,0 46.3,0 0,-4.6 0,-9.1 0,-13.8 -1.4,0 -2.7,0.1 -3.9,0 -2.6,-0.2 -5.1,-0.4 -7.6,-0.8 -2,-0.3 -3.1,-1.6 -2.5,-3.8 1.3,-4.5 2.5,-9.1 3.9,-13.6 0.2,-0.6 1.4,-1.1 2.2,-1.1 5.8,-0.1 11.6,-0.1 17.3,-0.1 4.2,0 8.5,0 12.9,0 1.2,4.4 2.5,8.6 3.6,12.8 1.2,5 0.3,6.1 -4.9,6.4 -2.6,0.1 -5.2,0 -7.9,0 0,5 0,9.5 0,14 19.2,0 38.1,0 57.3,0 0,-4.7 0,-9.2 0,-13.9 -2,0.1 -3.7,0.1 -5.3,0.1 z M 882.5,79.7 c 3.7,-11.3 7.4,-22.3 11,-33.3 0.2,0 0.3,0 0.5,0 3.7,11 7.4,22.1 11.1,33.3 -7.6,0 -15,0 -22.6,0 z" />
	<path
   id="path40"
   d="m 545.7,113.2 c -3.9,0 -6.6,-1.6 -8.1,-5.2 -0.7,-1.6 -1.4,-3.2 -2,-4.9 -2.6,-7.6 -5.2,-15.3 -7.8,-23 -5.1,-15.2 -10.2,-30.4 -15.2,-45.7 l -4,-12.3 h -32.1 l -5.1,16.4 c -6.5,19.6 -13,39.3 -19.6,58.9 -1.2,3.5 -2.4,6.9 -3.8,10.4 -1.5,3.6 -4.3,5.5 -8.3,5.4 -1.7,0 -3.5,0 -5.3,0 0,4.8 0,9.3 0,13.8 15.5,0 30.9,0 46.3,0 0,-4.6 0,-9.1 0,-13.8 -1.4,0 -2.7,0.1 -3.9,0 -2.6,-0.2 -5.1,-0.4 -7.6,-0.8 -2,-0.3 -3.1,-1.6 -2.5,-3.8 1.3,-4.5 2.5,-9.1 3.9,-13.6 0.2,-0.6 1.4,-1.1 2.2,-1.1 5.8,-0.1 11.6,-0.1 17.3,-0.1 4.2,0 8.5,0 12.9,0 1.2,4.4 2.5,8.6 3.6,12.8 1.2,5 0.3,6.1 -4.9,6.4 -2.6,0.1 -5.2,0 -7.9,0 0,5 0,9.5 0,14 19.2,0 38.1,0 57.3,0 0,-4.7 0,-9.2 0,-13.9 -2,0.1 -3.7,0.1 -5.4,0.1 z M 475.3,79.7 c 3.7,-11.3 7.4,-22.3 11,-33.3 0.2,0 0.3,0 0.5,0 3.7,11 7.4,22.1 11.1,33.3 -7.6,0 -14.9,0 -22.6,0 z" />
	<path
   id="path42"
   d="m 417.1,81.3 c -0.3,2.3 -0.4,4.5 -0.8,6.6 -2.2,14.6 -11.9,24.6 -26.2,25.8 -15.9,1.2 -27,-5.2 -31.4,-20.4 -1.8,-6.2 -2.6,-12.7 -3.1,-19.1 -0.9,-11.6 -0.3,-23.1 3.5,-34.2 2.7,-8.1 7.4,-14.6 15.6,-17.9 17.5,-7 35.9,2.2 40.6,20.4 1,3.8 1.3,7.8 2,11.9 5.4,0 10.8,0 16.4,0 0,-8.3 0,-16.5 0,-24.8 0,-8.2 0,-16.4 0,-24.7 l -16,-0.1 -3.9,9.8 c -2.2,-1.4 -4,-2.8 -6.1,-3.8 C 398.3,6.1 388.6,3.3 378.6,2.9 V 2.8 c 0,0 -55.9,-4.1 -62.7,55.5 0,0.3 -0.6,6.9 -0.6,7.3 -3,67.3 62.3,65.3 62.3,65.3 v 0 c 8.1,0.2 16.3,-0.9 24.5,-3.2 15.1,-4.2 25,-14.1 29.4,-29.3 1.6,-5.6 2.4,-11.4 2.3,-17.2 -5.7,0.1 -11.2,0.1 -16.7,0.1 z" />
</g>
</svg>