<?xml version="1.0" encoding="UTF-8" standalone="no"?>
<svg
   xmlns:dc="http://purl.org/dc/elements/1.1/"
   xmlns:cc="http://creativecommons.org/ns#"
   xmlns:rdf="http://www.w3.org/1999/02/22-rdf-syntax-ns#"
   xmlns:svg="http://www.w3.org/2000/svg"
   xmlns="http://www.w3.org/2000/svg"
   height="20"
   width="187.9283"
   xml:space="preserve"
   viewBox="0 0 187.9283 20.000001"
   y="0px"
   x="0px"
   id="Capa_1"
   version="1.1"><metadata
   id="metadata51"><rdf:RDF><cc:Work
       rdf:about=""><dc:format>image/svg+xml</dc:format><dc:type
         rdf:resource="http://purl.org/dc/dcmitype/StillImage" /><dc:title></dc:title></cc:Work></rdf:RDF></metadata><defs
   id="defs49" />
<style
   id="style2"
   type="text/css">
	.st0{fill:#4579B2;}
	.st1{fill:#E8E8E8;}
	.st2{opacity:0.25;enable-background:new    ;}
	.st3{fill:#2D5B87;}
	.st4{fill:#324A63;}
	.st5{fill:#E0C136;}
	.st6{fill:#FFFFFF;}
	.st7{fill:#5592BF;}
	.st8{fill:#5592C0;}
</style>

<g
   transform="matrix(0.26357406,0,0,0.26357406,-0.30311017,-0.29520295)"
   style="fill:#006998;fill-opacity:1"
   id="g18"><path
     style="fill:#006998;fill-opacity:1"
     id="path2"
     d="m 65.001,49.539 c 0,16.418 -12.178,20.676 -27.445,20.676 H 34.822 V 7.918 H 47.625 V 2.959 H 1.15 V 7.918 H 12.773 V 70.215 H 1.15 v 4.964 H 70.748 V 46.427 h -5.746 v 3.112 z" /><path
     style="fill:#006998;fill-opacity:1"
     id="path4-5"
     d="m 125.537,3.069 h -8.705 L 87.087,64.1 c -1.721,3.392 -4.396,6.115 -9.939,6.115 h -2.351 v 4.964 h 27.898 V 70.215 H 97.65 c -2.926,0 -5.469,-0.372 -5.469,-3.757 0,-1.146 0.598,-2.252 1.025,-3.078 l 3.98,-8.318 h 30.166 l 7.572,15.153 h -11.139 v 4.964 h 45.971 v -4.964 h -9.664 z M 99.599,50.14 111.762,25.63 h 0.991 l 12.18,24.51 z" /><path
     style="fill:#006998;fill-opacity:1"
     id="path6-5"
     d="m 301.664,2.959 h -28.69 v 4.959 h 3.466 c 5.786,0 8.93,1.896 8.93,5.83 v 31.88 h -0.266 L 248.087,2.959 h -33.571 v 4.959 h 1.982 c 4.362,0 8.819,3.177 8.819,8.075 v 46.852 c 0,6.247 -3.797,7.37 -7.838,7.37 h -1.445 -1.921 v 4.964 h 28.634 v -4.964 h -2.246 c -7.264,0 -10.153,-0.991 -10.153,-6.835 V 17.021 h 0.263 l 50.272,58.158 h 9.585 V 13.43 c 0,-2.574 2.439,-5.512 8.377,-5.512 h 2.818 V 2.959 Z" /><path
     style="fill:#006998;fill-opacity:1"
     id="path8-7"
     d="m 351.055,3.069 h -8.732 L 312.548,64.1 c -1.684,3.392 -4.377,6.115 -9.937,6.115 h -2.36 v 4.964 h 27.988 v -4.964 h -5.146 c -2.899,0 -5.433,-0.372 -5.433,-3.757 0,-1.146 0.609,-2.252 1.008,-3.078 l 4.005,-8.318 h 30.209 l 7.507,15.153 h -11.137 v 4.964 h 45.954 V 70.215 H 385.56 Z M 325.123,50.14 337.237,25.63 h 1.04 l 12.125,24.51 z" /><path
     style="fill:#006998;fill-opacity:1"
     id="path10-1"
     d="m 439.029,71.773 c -17.453,0 -20.705,-15.069 -20.705,-32.594 0,-18.248 3.611,-33.132 21.137,-33.132 14.004,0 19.795,12.213 21.924,22.639 h 5.701 V 3.069 h -3.787 c -0.117,2.191 -0.748,4.151 -3.625,4.151 -2.824,0 -8.229,-6.1 -23.582,-6.1 -20.635,0 -41.961,17.326 -41.961,38.059 0,21.049 22.047,37.82 43.729,37.82 16.932,0 30.016,-9.829 30.016,-27.461 h -6.002 c -0.001,12.839 -9.208,22.235 -22.845,22.235 z" /><polygon
     style="fill:#006998;fill-opacity:1"
     id="polygon12"
     points="523.994,75.179 523.994,70.215 512.311,70.215 512.311,7.918 523.994,7.918 523.994,2.959 478.668,2.959 478.668,7.918 490.299,7.918 490.299,70.215 478.668,70.215 478.668,75.179 " /><path
     style="fill:#006998;fill-opacity:1"
     id="path14"
     d="m 576.51,1.121 c -21.391,0 -43.041,16.622 -43.041,37.949 0,21.344 21.65,37.93 43.041,37.93 21.273,0 43.301,-16.586 43.301,-37.93 0,-21.327 -22.028,-37.949 -43.301,-37.949 z m 0.101,70.972 c -16.943,0 -19.162,-16.312 -19.162,-33.022 0,-16.804 2.293,-33.022 19.162,-33.022 17.004,0 19.193,16.087 19.193,33.022 10e-4,16.82 -2.189,33.022 -19.193,33.022 z" /><path
     style="fill:#006998;fill-opacity:1"
     id="path16"
     d="m 685.438,2.959 v 4.959 h 3.512 c 5.76,0 8.898,1.896 8.898,5.83 v 31.88 h -0.33 L 660.529,2.959 h -33.568 v 4.959 h 1.986 c 4.385,0 8.859,3.177 8.859,8.075 v 46.852 c 0,6.247 -3.795,7.37 -7.816,7.37 h -1.428 -1.957 v 4.964 h 28.592 v -4.964 h -2.254 c -7.316,0 -10.15,-0.991 -10.15,-6.835 V 17.021 h 0.238 l 50.281,58.158 H 702.9 V 13.43 c 0,-2.574 2.508,-5.512 8.404,-5.512 h 2.846 V 2.959 Z" /></g></svg>