<?xml version="1.0" encoding="UTF-8" standalone="no"?>
<svg
   xmlns:dc="http://purl.org/dc/elements/1.1/"
   xmlns:cc="http://creativecommons.org/ns#"
   xmlns:rdf="http://www.w3.org/1999/02/22-rdf-syntax-ns#"
   xmlns:svg="http://www.w3.org/2000/svg"
   xmlns="http://www.w3.org/2000/svg"
   id="svg12"
   version="1.1"
   fill="none"
   viewBox="0 0 89 24"
   height="24"
   width="89">
  <metadata
     id="metadata18">
    <rdf:RDF>
      <cc:Work
         rdf:about="">
        <dc:format>image/svg+xml</dc:format>
        <dc:type
           rdf:resource="http://purl.org/dc/dcmitype/StillImage" />
        <dc:title></dc:title>
      </cc:Work>
    </rdf:RDF>
  </metadata>
  <defs
     id="defs16" />
  <path
     id="path2"
     fill="#0061AE"
     d="M0 0H5.77675V18.9561H15.3703V23.729H0V0Z" />
  <path
     id="path4"
     fill="#0061AE"
     d="M26.9925 16.7559V15.0633H26.3392C22.488 15.0633 21.2502 15.5372 21.2502 17.6359C21.2502 19.2608 21.8691 19.9378 23.6571 19.9378C25.6859 19.9378 26.9925 19.2608 26.9925 16.7559ZM16.333 18.2114C16.333 13.0662 19.359 11.9153 26.3048 11.9153H26.9925C26.8893 10.392 26.3392 9.13957 24.4136 9.13957C22.2129 9.13957 20.5968 9.57959 19.4621 10.1212L17.3646 6.19459C19.0839 5.34834 21.4908 4.73901 24.9981 4.73901C30.3623 4.73901 32.0128 7.04084 32.0128 11.5767V18.076C32.0128 19.193 32.4942 19.4977 33.7321 19.4977V23.729C33.1819 23.7967 32.2879 23.7967 31.8065 23.7967C29.3307 23.7967 28.4023 23.5597 27.8178 22.2734C26.7862 23.4243 25.2389 23.9659 22.4536 23.9659C17.399 23.9659 16.333 21.4949 16.333 18.2114Z" />
  <path
     id="path6"
     fill="#0061AE"
     d="M67.4299 14.691C67.4299 11.509 67.0857 9.64724 64.0943 9.64724C61.1029 9.64724 60.7588 11.4752 60.7588 14.691C60.7588 17.839 61.1029 19.7684 64.0943 19.7684C67.0857 19.7684 67.4299 17.839 67.4299 14.691ZM55.5322 14.5217C55.5322 8.80099 57.2172 5.11133 64.1288 5.11133C71.0747 5.11133 72.6564 8.86869 72.6564 14.5217C72.6564 20.3778 71.0403 23.9997 64.1288 23.9997C57.286 24.0336 55.5322 20.3101 55.5322 14.5217Z" />
  <path
     id="path8"
     fill="#0061AE"
     d="M73.7227 20.5133L81.4593 9.68124H74.204V5.44995H87.9927V8.73342L80.1524 19.7686H88.302V23.7291H73.7227V20.5133Z" />
  <path
     id="path10"
     fill="#0061AE"
     d="M49.1028 17.0266C49.1373 17.0605 49.1373 17.0605 49.1373 17.0943C49.1373 17.162 49.0684 17.1959 49.034 17.1959H48.9996C48.9308 17.1959 48.8963 17.1959 48.8275 17.1959C47.8304 17.1959 46.9365 16.6543 46.4896 15.808L46.4551 15.7742C45.7329 14.7248 41.6066 0 41.6066 0H35.8643L43.4291 23.8982H49.8591L57.4585 0H51.7161L48.2085 11.7799L48.1057 12.0845C47.5555 13.9463 47.8992 15.8419 49.1028 17.0266Z" />
</svg>
