<?xml version="1.0" encoding="UTF-8" standalone="no"?>
<svg
   xmlns:dc="http://purl.org/dc/elements/1.1/"
   xmlns:cc="http://creativecommons.org/ns#"
   xmlns:rdf="http://www.w3.org/1999/02/22-rdf-syntax-ns#"
   xmlns:svg="http://www.w3.org/2000/svg"
   xmlns="http://www.w3.org/2000/svg"
   xml:space="preserve"
   enable-background="new 0 0 308 42"
   viewBox="0 0 147.22984 20"
   height="25"
   width="184.03729"
   y="0px"
   x="0px"
   id="Capa_1"
   version="1.1"><metadata
   id="metadata27"><rdf:RDF><cc:Work
       rdf:about=""><dc:format>image/svg+xml</dc:format><dc:type
         rdf:resource="http://purl.org/dc/dcmitype/StillImage" /><dc:title></dc:title></cc:Work></rdf:RDF></metadata><defs
   id="defs25" />
<g
   transform="matrix(0.51228197,0,0,0.51228197,0,-1.0035604)"
   id="g20">
	<path
   style="clip-rule:evenodd;fill:#36619a;fill-rule:evenodd"
   id="path2"
   d="M 0,39.193 H 3.975 V 3.768 H 0 V 2.681 h 27.112 v 10.484 h -1.083 v -0.723 c 0,-4.7 -3.255,-8.674 -8.679,-8.674 h -5.781 v 16.266 h 3.253 c 3.252,0 4.7,-2.168 4.7,-7.23 v -0.362 h 1.083 v 16.632 h -1.083 v -1.086 c 0,-3.615 -1.447,-6.868 -4.7,-6.868 h -3.253 v 18.074 h 6.868 c 7.953,0 9.036,-7.229 9.036,-10.12 V 28.348 H 28.2 V 40.276 H 0 Z" />
	<path
   style="clip-rule:evenodd;fill:#36619a;fill-rule:evenodd"
   id="path4"
   d="m 32.534,39.193 h 3.977 V 3.768 H 32.534 V 2.681 h 15.547 v 1.087 h -4.34 v 35.426 h 5.783 c 8.316,0 10.484,-4.339 10.484,-10.846 v -1.085 h 0.725 v 13.013 h -28.2 v -1.083 z" />
	<path
   style="clip-rule:evenodd;fill:#36619a;fill-rule:evenodd"
   id="path6"
   d="m 74.472,39.191 h 3.975 V 3.768 H 74.472 V 2.681 h 15.544 v 1.087 h -4.337 v 35.424 h 5.781 c 8.319,0 10.484,-4.337 10.484,-10.844 v -1.085 h 0.725 V 40.276 H 74.472 Z" />
	<polygon
   style="clip-rule:evenodd;fill:#36619a;fill-rule:evenodd"
   id="polygon8"
   points="122.189,2.681 122.189,3.768 118.213,3.768 118.213,39.191 122.189,39.191 122.189,40.275 107.006,40.275 107.006,39.191 110.981,39.191 110.981,3.768 107.006,3.768 107.006,2.681 " />
	<path
   style="clip-rule:evenodd;fill:#36619a;fill-rule:evenodd"
   id="path10"
   d="m 131.948,39.191 h 4.341 V 3.768 h -1.808 c -6.508,0 -7.954,4.696 -8.677,10.482 H 124.72 V 2.681 h 30.366 V 14.25 h -0.722 C 153.64,8.464 152.194,3.768 145.686,3.768 h -1.809 v 35.424 h 4.339 v 1.084 h -16.269 v -1.085 z" />
	<path
   style="clip-rule:evenodd;fill:#36619a;fill-rule:evenodd"
   id="path12"
   d="m 173.525,1.959 c 9.035,0 15.182,9.037 15.182,19.521 C 189.068,31.602 181.836,41 173.525,41 v -0.725 c 5.781,0 7.227,-5.421 7.227,-18.795 0,-16.994 -3.615,-18.8 -7.227,-18.8 z m 0,39.041 c -8.678,0 -15.549,-9.398 -15.188,-19.52 0,-10.484 6.145,-19.521 15.188,-19.521 v 0.722 c -3.617,0 -7.232,1.806 -7.232,18.8 0,13.374 1.447,18.795 7.232,18.795 z" />
	<path
   style="clip-rule:evenodd;fill:#36619a;fill-rule:evenodd"
   id="path14"
   d="m 208.229,2.681 c 5.422,0 13.016,1.45 13.016,8.678 0,6.507 -6.512,8.675 -11.572,9.036 v 0.362 c 7.232,0.362 10.846,3.616 10.846,9.398 0,8.316 0.727,9.036 2.535,9.036 0.721,0 1.441,-0.359 1.803,-0.72 l 0.363,0.72 c -1.811,1.447 -3.975,1.809 -5.781,1.809 -5.063,0 -6.51,-3.975 -6.51,-9.76 0,-7.23 -1.449,-9.4 -4.699,-9.76 v -1.447 c 3.975,-0.724 5.059,-3.253 4.699,-9.038 0,-6.145 -1.449,-7.229 -4.699,-7.229 V 2.681 Z m -15.907,36.51 h 3.617 V 3.768 h -3.617 V 2.681 h 14.824 c 0.357,0 0.723,0 1.082,0 v 1.087 c -0.359,0 -0.725,0 -1.082,0 h -3.619 v 16.627 h 2.891 c 0.729,-0.361 1.451,-0.361 1.811,-0.361 v 1.447 c -0.725,-0.361 -1.443,-0.361 -2.168,-0.361 h -2.533 v 18.072 h 3.977 v 1.084 h -15.182 v -1.085 z" />
	<path
   style="clip-rule:evenodd;fill:#36619a;fill-rule:evenodd"
   id="path16"
   d="m 238.594,10.272 2.529,-8.313 h 0.727 l 13.016,37.232 h 2.166 v 1.084 h -14.1 v -1.084 h 3.615 l -3.25,-10.844 h -4.703 v -1.085 h 4.338 l -4.338,-13.376 v 0 z m -12.289,28.919 h 0.361 c 1.807,0 2.891,-1.444 3.254,-3.251 l 8.674,-25.668 v 3.614 l -4.338,13.376 h 4.338 v 1.085 h -4.701 l -2.529,7.23 c 0,0.723 0,1.085 0,1.81 0,1.804 1.086,1.804 2.17,1.804 h 1.447 v 1.084 h -8.676 z" />
	<path
   style="clip-rule:evenodd;fill:#36619a;fill-rule:evenodd"
   id="path18"
   d="m 259.201,39.191 h 3.613 V 3.768 h -3.613 V 2.681 h 15.547 v 1.087 h -4.34 v 35.424 h 5.424 c 8.676,0 10.48,-4.337 10.48,-10.844 v -1.085 h 1.088 v 13.013 h -28.199 z" />
</g>
</svg>