<?xml version="1.0" encoding="UTF-8" standalone="no"?>
<svg
   xmlns:dc="http://purl.org/dc/elements/1.1/"
   xmlns:cc="http://creativecommons.org/ns#"
   xmlns:rdf="http://www.w3.org/1999/02/22-rdf-syntax-ns#"
   xmlns:svg="http://www.w3.org/2000/svg"
   xmlns="http://www.w3.org/2000/svg"
   xml:space="preserve"
   viewBox="0 0 144.72535 24"
   height="24"
   width="144.72534"
   y="0px"
   x="0px"
   id="meteoblue_logo"
   version="1.1"><metadata
   id="metadata36"><rdf:RDF><cc:Work
       rdf:about=""><dc:format>image/svg+xml</dc:format><dc:type
         rdf:resource="http://purl.org/dc/dcmitype/StillImage" /><dc:title></dc:title></cc:Work></rdf:RDF></metadata><defs
   id="defs34" />
    
    
    
    
    
    
    
    
    <g
   transform="matrix(0.39203664,0,0,0.39203664,-0.66411007,1.2289967e-4)"
   id="g852"><path
     style="fill:#103f78"
     id="letter_m"
     d="m 33.866,22.415 c 3.656,-3.411 8.003,-6.217 15.427,-5.456 4.309,0.442 8.375,3.279 10.348,6.397 2.41,3.806 2.524,9.191 2.419,15.083 0,7.304 0.027,15.343 0.027,22.169 -2.947,0 -5.761,0 -8.709,0 0,-5.947 -0.062,-14.866 -0.062,-21.863 0,-1.905 0.096,-3.68 -0.072,-5.229 -0.469,-4.325 -3.579,-7.878 -8.466,-7.902 -6.609,-0.032 -8.437,4.895 -8.791,11.762 0,7.408 0.136,16.464 0.136,23.232 -2.884,0 -5.769,0 -8.654,0 0,-7.236 0.122,-15.587 0.122,-22.919 0,-1.316 -0.008,-2.587 -0.122,-3.797 -0.571,-6.076 -6.935,-10.783 -13.169,-6.961 -0.872,0.533 -1.823,1.419 -2.351,2.331 -1.617,2.033 -1.423,5.473 -1.52,9.248 -0.058,2.249 0.108,17.906 0.108,22.099 -2.948,0 -5.896,0 -8.843,0 0,-10.805 0,-21.219 0,-29.727 0,-7.749 7.474,-13.179 14.675,-13.922 7.887,-0.816 13.499,1.741 17.497,5.455 z" /><path
     style="fill:#103f78"
     id="letter_e1"
     d="m 107.242,42.357 c -8.969,0 -17.937,0 -26.905,0 -1.217,11.519 13.99,13.4 19.754,6.585 2.193,1.696 4.498,3.279 6.209,5.457 -5.651,8.106 -22.072,8.709 -28.974,2.069 -5.447,-5.239 -6.948,-15.418 -5.269,-24.082 1.745,-8.996 7.938,-16.28 19.191,-15.427 11.897,0.902 17.298,11.035 15.994,25.398 z M 87.674,25.236 c -4.652,0.619 -7.08,4.547 -7.337,9.784 6.02,0 12.041,0 18.062,0 -0.233,-6.415 -4.042,-10.671 -10.725,-9.784 z" /><path
     style="fill:#103f78"
     id="letter_t"
     d="m 125.442,4.255 c 0,4.328 0,8.654 0,12.981 2.07,0 4.304,0 6.374,0 0,1.955 0.023,4.527 0.023,6.774 -2.07,0 -4.312,0 -6.382,0 0,3.833 -0.015,8.949 0.004,14.183 0.01,2.596 -0.02,5.201 -0.02,7.642 0,2.29 -0.293,5.198 1.173,6.165 1.102,0.728 3.475,0.494 5.224,0.494 0,2.698 0,5.322 0,8.017 -8.57,0.704 -14.548,-1.727 -15.052,-8.655 -0.306,-4.202 -0.082,-8.972 -0.082,-13.864 0.201,-4.786 0.082,-9.461 0.082,-13.98 -1.505,0 -3.01,0 -4.515,0 0,-2.271 -0.005,-4.868 -0.005,-6.773 1.38,0 3.127,0 4.508,0 0,-3.899 -0.025,-9.044 -0.025,-12.981 2.822,-0.003 5.871,-0.003 8.693,-0.003 z" /><path
     style="fill:#103f78"
     id="letter_e2"
     d="m 173.467,42.357 c -8.969,0 -17.936,0 -26.904,0 -0.818,11.474 13.848,13.487 19.755,6.585 2.197,1.692 4.521,3.257 6.209,5.457 -3.882,4.06 -8.358,6.773 -15.616,6.773 -12.797,0 -19.103,-8.815 -19.19,-21.824 -0.083,-12.156 5.71,-23.732 20.13,-22.389 11.577,1.078 16.988,11.114 15.616,25.398 z M 153.9,25.236 c -4.646,0.64 -7.052,4.551 -7.338,9.784 6.084,0 12.167,0 18.25,0 -0.3,-6.386 -4.13,-10.716 -10.912,-9.784 z" /><path
     style="fill:#103f78"
     id="letter_o"
     d="m 195.668,17.146 c 9.154,-1.055 15.986,3.553 18.625,9.407 2.387,5.29 2.652,20.062 -0.188,25.399 -6.86,12.886 -26.883,11.549 -31.984,-0.752 -2.945,-7.101 -2.052,-19.976 0.376,-25.023 2.258,-4.692 6.947,-8.314 13.171,-9.031 z m -5.645,13.735 c -1.541,3.764 -1.477,13.115 0.188,16.745 2.335,5.089 9.978,6.407 14.109,2.822 3.31,-2.87 4.393,-14.32 2.258,-19.567 -1.202,-2.957 -4.811,-5.492 -9.217,-5.08 -4.162,0.389 -6.252,2.428 -7.338,5.08 z" /><path
     style="fill:#103f78"
     id="letter_b"
     d="m 225.217,0.025 c 2.886,0 5.947,0 8.831,0 0,7.212 0,14.424 0,21.637 1.862,-1.078 3.257,-2.664 5.269,-3.574 8.342,-3.781 17.766,1.646 19.754,8.466 1.584,5.423 1.406,21.817 -0.939,25.963 -0.409,0.724 -0.969,1.601 -1.506,2.259 -6.938,8.484 -23.574,8.365 -29.351,-1.318 -3.303,-5.536 -2.069,-16.995 -2.068,-25.399 0,-9.562 -0.001,-18.343 0,-27.469 -0.001,0.086 0.01,-0.586 0.01,-0.565 z m 12.029,27.093 c -4.241,3.272 -4.374,18.005 -1.316,22.577 2.984,4.465 11.568,3.136 13.734,-0.941 1.607,-3.027 1.638,-9.516 1.316,-13.922 -0.457,-6.282 -3.004,-9.598 -9.408,-9.031 -2.016,0.178 -3.23,0.472 -4.326,1.317 z" /><path
     style="fill:#103f78"
     id="letter_l"
     d="m 269.429,0.025 c 2.886,0 5.948,0 8.833,0 0,11.806 -0.045,26.02 -0.045,39.322 0,2.333 0.008,7.282 0.008,10.223 0,1.074 0.334,1.871 0.691,2.194 1.239,1.126 4.127,0.563 5.556,0.753 0,2.696 0,5.395 0,8.09 -1.761,0.148 -3.466,0.171 -5.059,0.041 -5.731,-0.468 -9.083,-2.456 -10.038,-8.696 -0.027,-0.172 -0.031,-0.344 -0.031,-0.52 0,-7.327 0.074,-16.548 0.074,-25.256 0,-7.293 0,-14.497 0,-21.072 -0.001,-1.542 0.011,-5.455 0.011,-5.079 z" /><path
     style="fill:#103f78"
     id="letter_u"
     d="m 291.62,17.334 c 2.822,0 5.646,0 8.467,0 0,7.173 0.017,17.193 0.017,24.567 0,1.299 0.029,2.516 0.162,3.625 0.23,1.936 1.133,3.07 1.805,3.957 0.91,1.196 1.484,1.664 2.908,2.281 2.429,1.054 5.273,0.915 7.146,0.188 3.219,-1.247 5.111,-4.515 5.111,-8.754 0.028,-0.226 0.053,-0.454 0.074,-0.685 0,-7.594 -0.104,-18.061 -0.104,-25.168 2.555,0 5.886,-0.011 8.842,-0.011 -0.229,3.396 0.006,6.95 0.006,10.53 0,6.957 -0.006,13.84 -0.006,19.949 0,4.629 -5.396,11.114 -12.68,12.901 -7.01,1.718 -15.839,-1.06 -19.68,-6.692 -1.157,-1.698 -2.374,-3.72 -2.374,-6.266 0,-8.29 0.117,-20.768 0.117,-30.391 0.001,-0.059 -0.031,0.002 0.189,-0.031 z" /><path
     style="fill:#103f78"
     id="letter_e3"
     d="m 370.641,42.357 c -8.97,0 -17.938,0 -26.906,0 -0.963,11.427 13.896,13.479 19.754,6.585 2.312,1.451 4.143,3.385 6.211,5.081 -3.41,4.46 -8.333,7.105 -15.43,7.148 -11.602,0.07 -18.384,-7.548 -19.189,-18.626 -1.003,-13.763 4.477,-26.918 19.755,-25.587 11.733,1.024 17.21,10.988 15.805,25.399 z M 351.123,25.253 c -4.646,0.64 -7.053,4.551 -7.337,9.784 6.085,0 12.168,0 18.251,0 -0.302,-6.386 -4.129,-10.717 -10.914,-9.784 z" /></g>
    
    
    
    
    
    
    
    
    
    
    
    
    
    
    
    
    
    
    
    
</svg>