<?xml version="1.0" encoding="UTF-8" standalone="no"?>
<svg
   xmlns:dc="http://purl.org/dc/elements/1.1/"
   xmlns:cc="http://creativecommons.org/ns#"
   xmlns:rdf="http://www.w3.org/1999/02/22-rdf-syntax-ns#"
   xmlns:svg="http://www.w3.org/2000/svg"
   xmlns="http://www.w3.org/2000/svg"
   height="25"
   width="202.49304"
   xml:space="preserve"
   enable-background="new 0 0 214 114"
   viewBox="0 0 202.49304 25"
   y="0px"
   x="0px"
   id="Layer_1"
   version="1.1"><metadata
   id="metadata46"><rdf:RDF><cc:Work
       rdf:about=""><dc:format>image/svg+xml</dc:format><dc:type
         rdf:resource="http://purl.org/dc/dcmitype/StillImage" /><dc:title></dc:title></cc:Work></rdf:RDF></metadata><defs
   id="defs44">
	
	
	

</defs>

<g
   transform="matrix(0.79089059,0,0,0.79089059,88.61236,-52.698096)"
   id="g2701"><g
     id="g980"
     transform="matrix(0.85051796,0,0,0.93890195,-40.001097,30.059884)"><path
       id="path873"
       d="m -7.511045,56.02161 v 13.32032 h -7.03125 v -2.16797 -8.02735 q 0,-2.83203 -0.136719,-3.90625 -0.117187,-1.07421 -0.429687,-1.58203 -0.410157,-0.68359 -1.113282,-1.05468 -0.703125,-0.39063 -1.601562,-0.39063 -2.1875,0 -3.4375,1.69922 -1.25,1.67969 -1.25,4.66797 v 10.76172 h -6.992188 v -21.875 h 6.992188 v 3.20312 q 1.582031,-1.91406 3.359375,-2.8125 1.777344,-0.91797 3.925781,-0.91797 3.789063,0 5.742188,2.32422 1.972656,2.32422 1.972656,6.75781 z"
       style="font-style:normal;font-variant:normal;font-weight:bold;font-stretch:normal;font-size:40px;line-height:1.25;font-family:sans-serif;-inkscape-font-specification:'sans-serif Bold';letter-spacing:0px;word-spacing:0px;fill:#25b8f5;fill-opacity:1;stroke:none" /><path
       id="path875"
       d="M -5.221983,60.8263 V 47.46693 h 7.03125 v 2.1875 q 0,1.77734 -0.01953,4.47265 -0.01953,2.67578 -0.01953,3.57422 0,2.63672 0.136719,3.8086 0.136718,1.15234 0.46875,1.67968 0.429687,0.6836 1.113281,1.05469 0.703125,0.37109 1.601562,0.37109 2.1875,0 3.4375,-1.67968 1.25,-1.67969 1.25,-4.66797 V 47.46693 h 6.992188 v 21.875 H 9.778019 v -3.16407 q -1.582031,1.91407 -3.359375,2.83204 -1.757812,0.89843 -3.886718,0.89843 -3.789063,0 -5.78125,-2.32422 -1.972657,-2.32421 -1.972657,-6.75781 z"
       style="font-style:normal;font-variant:normal;font-weight:bold;font-stretch:normal;font-size:40px;line-height:1.25;font-family:sans-serif;-inkscape-font-specification:'sans-serif Bold';letter-spacing:0px;word-spacing:0px;fill:#25b8f5;fill-opacity:1;stroke:none" /><path
       id="path877"
       d="m 41.363955,58.34583 v 1.99219 H 25.016299 q 0.253906,2.46094 1.777343,3.69141 1.523438,1.23047 4.257813,1.23047 2.207031,0 4.511719,-0.64454 2.324218,-0.66406 4.765625,-1.99218 v 5.39062 q -2.480469,0.9375 -4.960938,1.40625 -2.480469,0.48828 -4.960937,0.48828 -5.9375,0 -9.238282,-3.00781 -3.28125,-3.02734 -3.28125,-8.47656 0,-5.35156 3.222657,-8.41797 3.242187,-3.06641 8.90625,-3.06641 5.15625,0 8.242187,3.10547 3.105469,3.10547 3.105469,8.30078 z m -7.1875,-2.32422 q 0,-1.99218 -1.171875,-3.20312 -1.152344,-1.23047 -3.027344,-1.23047 -2.03125,0 -3.300781,1.15234 -1.269531,1.13282 -1.582031,3.28125 z"
       style="font-style:normal;font-variant:normal;font-weight:bold;font-stretch:normal;font-size:40px;line-height:1.25;font-family:sans-serif;-inkscape-font-specification:'sans-serif Bold';letter-spacing:0px;word-spacing:0px;fill:#25b8f5;fill-opacity:1;stroke:none" /><path
       id="path879"
       d="m 59.727236,48.15052 v 5.3125 q -2.246094,-0.9375 -4.335937,-1.40625 -2.089844,-0.46875 -3.945313,-0.46875 -1.992187,0 -2.96875,0.50781 -0.957031,0.48828 -0.957031,1.52344 0,0.83984 0.722656,1.28906 0.742188,0.44922 2.636719,0.66407 l 1.230469,0.17578 q 5.371093,0.68359 7.226562,2.24609 1.855469,1.5625 1.855469,4.90234 0,3.4961 -2.578125,5.25391 -2.578125,1.75781 -7.695313,1.75781 -2.167968,0 -4.492187,-0.35156 -2.304688,-0.33203 -4.746094,-1.01562 v -5.3125 q 2.089844,1.01562 4.277344,1.52343 2.207031,0.50782 4.472656,0.50782 2.050781,0 3.085938,-0.56641 1.035156,-0.56641 1.035156,-1.67969 0,-0.9375 -0.722656,-1.38672 -0.703125,-0.46875 -2.832032,-0.72265 l -1.230468,-0.15625 q -4.667969,-0.58594 -6.542969,-2.16797 -1.875,-1.58203 -1.875,-4.80469 0,-3.47656 2.382812,-5.15625 2.382813,-1.67969 7.304688,-1.67969 1.933594,0 4.0625,0.29297 2.128906,0.29297 4.628906,0.91797 z"
       style="font-style:normal;font-variant:normal;font-weight:bold;font-stretch:normal;font-size:40px;line-height:1.25;font-family:sans-serif;-inkscape-font-specification:'sans-serif Bold';letter-spacing:0px;word-spacing:0px;fill:#25b8f5;fill-opacity:1;stroke:none" /><path
       id="path881"
       d="m 70.102236,41.25599 v 6.21094 h 7.207031 v 5 h -7.207031 v 9.27734 q 0,1.52344 0.605469,2.07031 0.605469,0.52735 2.402344,0.52735 h 3.59375 v 5 h -5.996094 q -4.140625,0 -5.878906,-1.71875 -1.71875,-1.73828 -1.71875,-5.87891 v -9.27734 h -3.476563 v -5 h 3.476563 v -6.21094 z"
       style="font-style:normal;font-variant:normal;font-weight:bold;font-stretch:normal;font-size:40px;line-height:1.25;font-family:sans-serif;-inkscape-font-specification:'sans-serif Bold';letter-spacing:0px;word-spacing:0px;fill:#25b8f5;fill-opacity:1;stroke:none" /><path
       id="path883"
       d="m 93.85614,53.42396 q -0.91797,-0.42969 -1.83593,-0.625 -0.89844,-0.21485 -1.81641,-0.21485 -2.69531,0 -4.16016,1.73829 -1.44531,1.71875 -1.44531,4.9414 v 10.07813 h -6.992188 v -21.875 h 6.992188 v 3.59375 q 1.34766,-2.14844 3.08594,-3.125 1.75781,-0.9961 4.19922,-0.9961 0.35156,0 0.76172,0.0391 0.41015,0.0195 1.1914,0.11718 z"
       style="font-style:normal;font-variant:normal;font-weight:bold;font-stretch:normal;font-size:40px;line-height:1.25;font-family:sans-serif;-inkscape-font-specification:'sans-serif Bold';letter-spacing:0px;word-spacing:0px;fill:#25b8f5;fill-opacity:1;stroke:none" /><path
       id="path885"
       d="m 103.78192,51.93958 q -2.32421,0 -3.55468,1.67969 -1.21094,1.66016 -1.21094,4.80469 0,3.14453 1.21094,4.82422 1.23047,1.66015 3.55468,1.66015 2.28516,0 3.4961,-1.66015 1.21093,-1.67969 1.21093,-4.82422 0,-3.14453 -1.21093,-4.80469 -1.21094,-1.67969 -3.4961,-1.67969 z m 0,-5 q 5.64453,0 8.8086,3.04688 3.18359,3.04687 3.18359,8.4375 0,5.39062 -3.18359,8.4375 -3.16407,3.04687 -8.8086,3.04687 -5.66406,0 -8.86718,-3.04687 -3.1836,-3.04688 -3.1836,-8.4375 0,-5.39063 3.1836,-8.4375 3.20312,-3.04688 8.86718,-3.04688 z"
       style="font-style:normal;font-variant:normal;font-weight:bold;font-stretch:normal;font-size:40px;line-height:1.25;font-family:sans-serif;-inkscape-font-specification:'sans-serif Bold';letter-spacing:0px;word-spacing:0px;fill:#25b8f5;fill-opacity:1;stroke:none" /><path
       id="path887"
       d="m 136.54755,48.15052 v 5.70313 q -1.42578,-0.97657 -2.87109,-1.44532 -1.42578,-0.46875 -2.96875,-0.46875 -2.92969,0 -4.57031,1.71875 -1.6211,1.69922 -1.6211,4.76563 0,3.0664 1.6211,4.78515 1.64062,1.69922 4.57031,1.69922 1.64062,0 3.10547,-0.48828 1.48437,-0.48828 2.73437,-1.44531 v 5.72266 q -1.64062,0.60546 -3.33984,0.89843 -1.67969,0.3125 -3.37891,0.3125 -5.91797,0 -9.25781,-3.02734 -3.33985,-3.04688 -3.33985,-8.45703 0,-5.41016 3.33985,-8.4375 3.33984,-3.04688 9.25781,-3.04688 1.71875,0 3.37891,0.3125 1.67969,0.29297 3.33984,0.89844 z"
       style="font-style:normal;font-variant:normal;font-weight:bold;font-stretch:normal;font-size:40px;line-height:1.25;font-family:sans-serif;-inkscape-font-specification:'sans-serif Bold';letter-spacing:0px;word-spacing:0px;fill:#88da09;fill-opacity:1;stroke:none" /><path
       id="path889"
       d="m 138.62177,38.9513 h 6.99219 v 30.39063 h -6.99219 z"
       style="font-style:normal;font-variant:normal;font-weight:bold;font-stretch:normal;font-size:40px;line-height:1.25;font-family:sans-serif;-inkscape-font-specification:'sans-serif Bold';letter-spacing:0px;word-spacing:0px;fill:#88da09;fill-opacity:1;stroke:none" /><path
       id="path891"
       d="m 148.37177,47.46693 h 6.99219 v 21.875 h -6.99219 z m 0,-8.51563 h 6.99219 v 5.70313 h -6.99219 z"
       style="font-style:normal;font-variant:normal;font-weight:bold;font-stretch:normal;font-size:40px;line-height:1.25;font-family:sans-serif;-inkscape-font-specification:'sans-serif Bold';letter-spacing:0px;word-spacing:0px;fill:#88da09;fill-opacity:1;stroke:none" /><path
       id="path893"
       d="m 178.39521,51.09974 q 1.32812,-2.03125 3.14453,-3.08594 1.83594,-1.07422 4.02344,-1.07422 3.76953,0 5.74219,2.32422 1.97265,2.32422 1.97265,6.75781 v 13.32032 h -7.03125 V 57.93568 q 0.0195,-0.25391 0.0195,-0.52735 0.0195,-0.27343 0.0195,-0.78125 0,-2.32422 -0.68359,-3.35937 -0.68359,-1.05469 -2.20703,-1.05469 -1.99219,0 -3.08594,1.64063 -1.07422,1.64062 -1.11328,4.74609 v 10.74219 h -7.03125 V 57.93568 q 0,-3.63282 -0.625,-4.66797 -0.625,-1.05469 -2.22656,-1.05469 -2.01172,0 -3.10547,1.66016 -1.09375,1.64062 -1.09375,4.70703 v 10.76172 h -7.03125 v -21.875 h 7.03125 v 3.20312 q 1.28906,-1.85547 2.94922,-2.79297 1.67969,-0.9375 3.6914,-0.9375 2.26563,0 4.00391,1.09375 1.73828,1.09375 2.63672,3.06641 z"
       style="font-style:normal;font-variant:normal;font-weight:bold;font-stretch:normal;font-size:40px;line-height:1.25;font-family:sans-serif;-inkscape-font-specification:'sans-serif Bold';letter-spacing:0px;word-spacing:0px;fill:#88da09;fill-opacity:1;stroke:none" /><path
       id="path895"
       d="m 205.64521,59.49818 q -2.1875,0 -3.30078,0.74218 -1.09375,0.74219 -1.09375,2.1875 0,1.32813 0.8789,2.08985 0.89844,0.74219 2.48047,0.74219 1.97266,0 3.32032,-1.40625 1.34765,-1.42579 1.34765,-3.55469 v -0.80078 z m 10.68359,-2.63672 v 12.48047 h -7.05078 v -3.24219 q -1.40625,1.99219 -3.16406,2.91016 -1.75781,0.89843 -4.27734,0.89843 -3.39844,0 -5.52735,-1.97265 -2.10937,-1.99219 -2.10937,-5.15625 0,-3.84766 2.63672,-5.64453 2.65625,-1.79688 8.32031,-1.79688 h 4.12109 v -0.54687 q 0,-1.66016 -1.30859,-2.42188 -1.3086,-0.78125 -4.08203,-0.78125 -2.2461,0 -4.17969,0.44922 -1.93359,0.44922 -3.59375,1.34766 v -5.33204 q 2.24609,-0.54687 4.51172,-0.82031 2.26562,-0.29297 4.53125,-0.29297 5.91797,0 8.53515,2.34375 2.63672,2.32422 2.63672,7.57813 z"
       style="font-style:normal;font-variant:normal;font-weight:bold;font-stretch:normal;font-size:40px;line-height:1.25;font-family:sans-serif;-inkscape-font-specification:'sans-serif Bold';letter-spacing:0px;word-spacing:0px;fill:#88da09;fill-opacity:1;stroke:none" /></g><g
     id="g2675"
     transform="translate(-28.911615,-55.391413)"><g
       style="stroke-width:3;stroke-miterlimit:4;stroke-dasharray:none"
       id="g1029"><path
         style="fill:#ffaa09;fill-opacity:1;stroke:#ffaa04;stroke-width:3;stroke-linecap:round;stroke-linejoin:miter;stroke-miterlimit:4;stroke-dasharray:none;stroke-opacity:1"
         d="m -55.796716,123.83583 v 5.39021"
         id="path1017" /><path
         id="path1019"
         d="m -48.669006,125.70478 -3.177138,4.35433"
         style="fill:#ffaa09;fill-opacity:1;stroke:#ffaa04;stroke-width:3;stroke-linecap:round;stroke-linejoin:miter;stroke-miterlimit:4;stroke-dasharray:none;stroke-opacity:1" /><path
         style="fill:#ffaa09;fill-opacity:1;stroke:#ffaa04;stroke-width:3;stroke-linecap:round;stroke-linejoin:miter;stroke-miterlimit:4;stroke-dasharray:none;stroke-opacity:1"
         d="m -43.803764,130.50764 -4.80156,2.44937"
         id="path1021" /><path
         id="path1023"
         d="m -41.972268,137.80358 h -5.39021"
         style="fill:#ffaa09;fill-opacity:1;stroke:#ffaa04;stroke-width:3;stroke-linecap:round;stroke-linejoin:miter;stroke-miterlimit:4;stroke-dasharray:none;stroke-opacity:1" /></g><path
       id="path1033"
       d="m -48.669006,149.90238 -3.177138,-4.35433"
       style="fill:#ffaa09;fill-opacity:1;stroke:#ffaa04;stroke-width:3;stroke-linecap:round;stroke-linejoin:miter;stroke-miterlimit:4;stroke-dasharray:none;stroke-opacity:1" /><path
       style="fill:#ffaa09;fill-opacity:1;stroke:#ffaa04;stroke-width:3;stroke-linecap:round;stroke-linejoin:miter;stroke-miterlimit:4;stroke-dasharray:none;stroke-opacity:1"
       d="m -43.803764,145.09952 -4.80156,-2.44937"
       id="path1035" /><path
       id="path1047"
       d="m -62.924424,125.70478 3.177138,4.35433"
       style="fill:#ffaa09;fill-opacity:1;stroke:#ffaa04;stroke-width:3;stroke-linecap:round;stroke-linejoin:miter;stroke-miterlimit:4;stroke-dasharray:none;stroke-opacity:1" /><path
       style="fill:#ffaa09;fill-opacity:1;stroke:#ffaa04;stroke-width:3;stroke-linecap:round;stroke-linejoin:miter;stroke-miterlimit:4;stroke-dasharray:none;stroke-opacity:1"
       d="m -67.789666,130.50764 4.80156,2.44937"
       id="path1049" /><path
       id="path1015"
       d="m -60.153724,147.06629 c 0.654932,-1.56766 1.786971,-11.61557 -7.126577,-11.82134 -8.913548,-0.20577 -7.427755,5.48056 -7.302244,8.25415 -5.557257,-1.40697 -10.522008,5.54446 -3.84359,8.49837 l 21.41351,0.1351 c 5.903163,0.0372 4.973721,-8.12243 0.776831,-8.47758 -1.490294,-0.19865 -3.698694,1.79825 -3.91793,3.4113 z"
       style="fill:#ffffff;fill-opacity:1;stroke:#2fb0e9;stroke-width:3;stroke-linecap:round;stroke-linejoin:round;stroke-miterlimit:4;stroke-dasharray:none;stroke-opacity:1" /></g></g></svg>