<?xml version="1.0" encoding="UTF-8" standalone="no"?>
<svg
   xmlns:dc="http://purl.org/dc/elements/1.1/"
   xmlns:cc="http://creativecommons.org/ns#"
   xmlns:rdf="http://www.w3.org/1999/02/22-rdf-syntax-ns#"
   xmlns:svg="http://www.w3.org/2000/svg"
   xmlns="http://www.w3.org/2000/svg"
   height="40"
   width="62.113819"
   id="svg12"
   version="1.1"
   viewBox="-4395.636 39.849 62.113816 39.999999">
  <metadata
     id="metadata16">
    <rdf:RDF>
      <cc:Work
         rdf:about="">
        <dc:format>image/svg+xml</dc:format>
        <dc:type
           rdf:resource="http://purl.org/dc/dcmitype/StillImage" />
        <dc:title></dc:title>
      </cc:Work>
    </rdf:RDF>
  </metadata>
  <defs
     id="defs4">
    <style
       id="style2">
      .cls-1 {
        fill: #fff;
      }
    </style>
  </defs>
  <g
     transform="matrix(0.32520325,0,0,0.32520325,-2966.1609,55.507862)"
     id="g2718">
    <path
       id="path2686"
       d="m -4395.636,13.349 v -61.499998 h 95.5 95.5 V 13.349 v 61.5 h -95.5 -95.5 z"
       style="fill:#fdfdfd" />
    <path
       id="path2676"
       d="m -4395.636,13.348998 v -61.5 h 95.5 95.5 v 61.5 V 74.849 h -95.5 -95.5 z m 76.8062,36.36943 c 4.6492,-2.37651 7.9082,-4.98774 11.0592,-8.86108 l 4.4675,-5.49165 -0.6029,3.99165 c -0.3317,2.19541 -0.9076,6.12915 -1.28,8.74165 l -0.6771,4.75 h 8.5945 c 8.0942,0 8.6243,-0.13097 9.1072,-2.25 0.282,-1.2375 2.5532,-17.1 5.047,-35.25 2.4939,-18.15 4.7825,-34.2375 5.0858,-35.75 l 0.5515,-2.75 h -8.9071 -8.907 l -1.8254,14.25 c -1.0039,7.8375 -2.2065,14.6775 -2.6724,15.2 -0.4944,0.55456 -0.847,0.0499 -0.847,-1.21249 0,-4.14972 -4.0969,-13.06606 -8.086,-17.59786 -12.025,-13.66111 -36.8151,-15.48037 -51.608,-3.78733 -18.4831,14.6101 -17.3558,50.91036 1.979,63.72095 7.2116,4.77819 14.0552,6.500222 24.0723,6.057262 7.6489,-0.33823 9.7566,-0.851342 15.4489,-3.761102 z m -24.8062,-14.67588 c -9.7884,-5.39628 -12.0484,-27.37415 -3.7829,-36.78803 8.109,-9.23567 22.4075,-4.90417 25.8516,7.83135 2.697,9.97282 -0.701,24.51043 -6.6384,28.40076 -3.9425,2.58323 -11.2738,2.84736 -15.4303,0.55592 z m 104.5326,16.28029 c 2.7679,-0.90046 6.0874,-2.4329 7.3767,-3.40542 l 2.3442,-1.76823 -3.6143,-5.65009 c -1.9879,-3.10756 -4.0008,-5.6501 -4.4731,-5.6501 -0.4724,0 -2.3905,0.76921 -4.2625,1.70936 -1.872,0.94015 -6.1457,1.88809 -9.4972,2.10654 -5.6741,0.36983 -6.2421,0.20845 -8.25,-2.34422 -4.1697,-5.30093 -3.7106,-5.47168 14.7128,-5.47168 h 16.8691 l 0.6198,-3.75 c 3.3168,-20.06637 -6.1617,-31.39138 -25.1368,-30.03372 -17.6317,1.26154 -27.9902,12.15795 -29.0122,30.51886 -0.4104,7.37343 -0.1865,8.78604 2.1394,13.5 4.5183,9.1575 13.1956,13.094842 27.1515,12.320042 4.4,-0.24428 10.2647,-1.180882 13.0326,-2.081342 z m -20.5326,-33.32782 c 0,-0.46968 1.1035,-2.04468 2.4523,-3.5 4.2215,-4.55515 12.5477,-2.94575 12.5477,2.42541 0,1.73333 -0.7593,1.92857 -7.5,1.92857 -4.125,0 -7.5,-0.38429 -7.5,-0.85398 z"
       style="fill:#93bd1e" />
    <path
       id="path2674"
       d="m -4259.636,-7.70368 c 0,-0.30397 2.7901,-4.57897 6.2003,-9.5 l 6.2004,-8.94732 h 10.0299 10.0299 l -9.4605,9.5 -9.4605,9.5 h -6.7697 c -3.7234,0 -6.7698,-0.2487 -6.7698,-0.55268 z"
       style="fill:#6e8e16" />
    <path
       id="path2672"
       d="m -4258.636,-7.99216 c 0,-0.46263 2.6219,-4.62513 5.8264,-9.25 l 5.8264,-8.40884 9.2699,-0.2888 c 5.0984,-0.15884 9.114,0.0662 8.9236,0.5 -0.1905,0.43384 -4.4256,4.7263 -9.4114,9.5388 l -9.065,8.75 h -5.685 c -3.1267,0 -5.6849,-0.37852 -5.6849,-0.84116 z"
       style="fill:#0b0e02" />
  </g>
</svg>
