<?xml version="1.0" encoding="UTF-8" standalone="no"?>
<svg
   xmlns:dc="http://purl.org/dc/elements/1.1/"
   xmlns:cc="http://creativecommons.org/ns#"
   xmlns:rdf="http://www.w3.org/1999/02/22-rdf-syntax-ns#"
   xmlns:svg="http://www.w3.org/2000/svg"
   xmlns="http://www.w3.org/2000/svg"
   id="svg21"
   version="1.1"
   viewBox="0 0 116.76968 25"
   height="25"
   width="116.76968">
  <metadata
     id="metadata25">
    <rdf:RDF>
      <cc:Work
         rdf:about="">
        <dc:format>image/svg+xml</dc:format>
        <dc:type
           rdf:resource="http://purl.org/dc/dcmitype/StillImage" />
        <dc:title>logo_pagina_12_n</dc:title>
      </cc:Work>
    </rdf:RDF>
  </metadata>
  <!-- Generator: Sketch 44.1 (41455) - http://www.bohemiancoding.com/sketch -->
  <title
     id="title2">logo_pagina_12_n</title>
  <desc
     id="desc4">Created with Sketch.</desc>
  <defs
     id="defs6" />
  <g
     style="fill:none;fill-rule:evenodd;stroke:none;stroke-width:1"
     transform="matrix(0.18550301,0,0,0.18550301,-1.8550301e-5,-5.5650903e-5)"
     id="Page-1">
    <g
       id="logo_pagina_12_n">
      <g
         id="g17">
        <path
           style="fill:#000000"
           id="Fill-1"
           d="m 45.9541,45.3559 c 0,5.539 0,6.287 6.287,6.287 16.017,0 19.31,-6.586 19.31,-14.519 0,-10.479 -7.634,-12.873 -18.861,-12.873 -6.287,0 -6.736,2.543 -6.736,7.035 z m 6.587,26.046 c -6.138,-0.299 -6.736,-0.15 -6.736,2.395 0,9.131 0.748,12.125 4.34,12.125 2.845,0 5.389,-1.047 8.084,-1.047 5.987,0 9.131,5.538 9.131,10.028 0,6.437 -4.491,11.377 -12.275,11.377 -7.634,0 -13.921,-1.497 -20.507,-1.497 -7.634,0 -15.119,1.497 -22.753,1.497 -8.083,0 -11.825,-4.94 -11.825,-11.377 0,-4.49 2.694,-10.028 7.784,-10.028 2.245,0 4.34,1.047 6.736,1.047 2.844,0 3.742,-2.844 3.742,-12.125 v -39.218 c 0,-9.431 -0.748,-12.125 -3.742,-12.125 -2.396,0 -4.491,1.047 -6.736,1.047 -5.09,0 -7.784,-5.538 -7.784,-10.029 0,-6.436 3.742,-11.376 14.37,-11.376 6.886,0 13.472,1.497 20.357,1.497 16.167,0 22.154,-1.497 27.843,-1.497 8.681,0 19.609,3.293 26.494,8.982 7.635,6.287 11.078,16.016 11.078,25.746 0,10.029 -3.593,18.861 -11.078,25.298 -8.532,7.335 -17.962,9.28 -28.889,9.28 z" />
        <path
           style="fill:#000000"
           id="Fill-3"
           d="m 137.4849,74.643 c -3.99,4.266 -19.95,2.201 -19.95,9.493 0,4.817 3.852,6.467 7.843,6.467 8.117,0 12.107,-4.815 12.107,-12.933 z m -0.963,-70.445 c 2.752,-1.514 6.054,-3.165 9.218,-3.165 5.091,0 8.531,5.228 8.531,9.907 0,5.503 -6.742,7.567 -10.87,9.218 l -9.631,3.852 c -2.751,1.101 -7.292,2.752 -10.182,2.752 -3.989,0 -6.466,-4.678 -6.466,-8.118 0,-4.815 5.778,-7.017 9.081,-8.942 z m -12.934,47.192 c 0,6.329 -6.053,9.219 -11.832,9.219 -6.742,0 -12.658,-4.816 -12.658,-11.832 0,-8.669 8.805,-16.511 29.994,-16.511 6.88,0 16.236,0.688 22.289,4.127 7.293,4.128 8.806,10.732 8.806,21.189 v 25.867 c 0,5.366 0.826,6.467 2.339,6.467 1.101,0 2.202,-0.276 3.302,-0.276 4.403,0 6.88,3.715 6.88,7.705 0,7.705 -7.705,10.594 -14.172,10.594 -6.329,0 -13.346,-2.339 -15.685,-8.806 -6.467,6.193 -14.86,8.806 -23.528,8.806 -12.52,0 -24.49,-6.604 -24.49,-20.638 0,-32.608 42.652,-15.685 42.652,-33.846 0,-5.229 -4.815,-7.705 -9.356,-7.705 -2.339,0 -4.541,0.413 -4.541,3.164 z" />
        <path
           style="fill:#000000"
           id="Fill-5"
           d="m 198.5738,56.894 c 0,5.229 4.127,9.081 9.218,9.081 5.229,0 9.356,-3.99 9.356,-9.081 0,-5.366 -3.99,-9.219 -9.356,-9.219 -5.228,0 -9.218,3.853 -9.218,9.219 z m 8.943,60.401 c 12.521,0 16.373,-2.889 16.373,-7.842 0,-3.44 -3.164,-5.641 -11.282,-5.641 -5.366,0 -10.732,-0.413 -16.236,-0.413 -2.889,0.963 -6.329,3.027 -6.329,6.467 0,3.99 3.028,7.429 17.474,7.429 z m 11.695,-29.994 c 22.014,0 27.105,11.695 27.105,21.051 0,9.769 -6.191,16.924 -14.584,21.188 -7.568,3.853 -18.3,5.229 -26.83,5.229 -7.155,0 -16.648,-1.238 -23.115,-4.265 -7.705,-3.578 -14.034,-9.907 -14.034,-18.849 0,-8.944 6.329,-13.485 14.172,-15.548 v -0.275 c -7.018,-0.826 -11.145,-5.367 -11.145,-12.659 0,-8.117 4.127,-11.695 11.282,-14.721 -3.439,-3.715 -5.091,-7.43 -5.091,-12.521 0,-15.41 16.236,-23.115 29.72,-23.115 1.788,0 3.577,0.138 5.365,0.275 -0.55,-10.181 8.531,-15.272 17.749,-15.272 7.293,0 15.548,3.852 15.548,12.108 0,4.816 -3.715,8.117 -8.393,8.117 -2.89,0 -4.678,-1.238 -6.191,-3.714 -0.688,-1.101 -1.101,-2.339 -2.615,-2.339 -2.751,0 -3.302,3.439 -2.889,5.503 8.668,2.477 13.484,10.87 13.484,19.675 0,7.017 -4.128,13.759 -9.769,18.025 -5.641,4.264 -13.896,5.503 -20.913,5.503 -5.779,0 -10.457,-1.101 -15.685,-3.44 -1.101,0.963 -2.064,2.064 -2.064,3.715 0,3.99 3.439,6.329 12.245,6.329 z" />
        <path
           style="fill:#000000"
           id="Fill-7"
           d="m 281.3306,15.893 c 0,7.154 -5.778,12.933 -12.933,12.933 -7.155,0 -12.933,-5.779 -12.933,-12.933 0,-7.155 5.778,-12.934 12.933,-12.934 7.155,0 12.933,5.779 12.933,12.934 z m -23.39,44.44 c 0,-7.154 -0.413,-9.63 -2.476,-9.63 -1.376,0 -2.752,0.962 -4.541,0.962 -4.54,0 -6.054,-3.714 -6.054,-7.842 0,-5.228 2.339,-9.494 8.255,-9.494 3.853,0 7.568,1.376 11.283,1.376 4.128,0 8.118,-1.376 12.108,-1.376 3.164,0 4.128,2.064 4.128,7.017 v 38.801 c 0,8.53 1.238,9.631 2.338,9.631 0.688,0 1.376,-0.276 2.064,-0.551 0.825,-0.274 1.651,-0.412 2.477,-0.412 4.54,0 6.054,3.715 6.054,7.842 0,5.228 -2.339,9.494 -8.118,9.494 -5.917,0 -11.42,-1.376 -17.061,-1.376 -5.229,0 -10.457,1.376 -15.41,1.376 -5.779,0 -8.118,-4.266 -8.118,-9.494 0,-4.127 1.514,-7.842 6.054,-7.842 0.963,0 1.651,0.274 2.477,0.412 0.688,0.138 1.376,0.551 2.064,0.551 1.926,0 2.476,-2.752 2.476,-9.631 z" />
        <path
           style="fill:#000000"
           id="Fill-9"
           d="m 348.8858,62.9477 c 0,-7.705 -3.164,-11.145 -8.531,-11.282 -4.541,-0.138 -13.071,2.889 -13.071,15.272 v 13.209 c 0,7.98 0.551,9.631 1.651,9.631 0.551,0 0.963,-0.275 1.514,-0.551 0.55,-0.274 1.101,-0.412 2.064,-0.412 2.062,0 3.99,2.064 3.99,7.842 0,5.229 -1.652,9.494 -5.504,9.494 -6.33,0 -11.832,-1.376 -17.474,-1.376 -5.228,0 -10.456,1.376 -15.135,1.376 -3.439,0 -5.778,-4.265 -5.778,-9.494 0,-4.127 1.513,-7.842 6.054,-7.842 0.963,0 1.651,0.275 2.476,0.412 0.688,0.138 1.376,0.551 2.064,0.551 1.927,0 2.477,-1.514 2.477,-9.631 v -19.813 c 0,-7.842 -0.688,-9.631 -2.477,-9.631 -1.376,0 -2.752,0.963 -4.54,0.963 -4.541,0 -6.054,-3.715 -6.054,-7.843 0,-5.227 2.339,-9.493 5.366,-9.493 3.164,0 6.604,1.376 11.282,1.376 3.853,0 6.329,-1.376 9.769,-1.376 3.853,0 3.853,1.651 3.853,7.154 v 3.441 h 0.274 c 5.918,-7.431 14.035,-12.659 23.941,-12.659 12.107,0 23.391,8.668 23.391,24.628 v 23.253 c 0,8.255 0.824,9.631 2.476,9.631 0.688,0 1.375,-0.275 2.063,-0.551 0.826,-0.274 1.652,-0.412 2.476,-0.412 4.541,0 6.055,3.715 6.055,7.842 0,5.229 -2.34,9.494 -8.117,9.494 -5.916,0 -11.42,-1.376 -17.063,-1.376 -5.226,0 -8.254,1.376 -13.207,1.376 -3.027,0 -5.504,-2.339 -5.504,-9.494 0,-6.191 2.338,-7.842 4.266,-7.842 0.687,0 1.238,0.275 1.65,0.412 0.551,0.276 1.102,0.551 1.514,0.551 1.65,0 1.789,-1.927 1.789,-9.631 z" />
        <path
           style="fill:#000000"
           id="Fill-11"
           d="m 424.2666,74.643 c -3.99,4.266 -19.951,2.201 -19.951,9.493 0,4.817 3.853,6.467 7.844,6.467 8.117,0 12.107,-4.815 12.107,-12.933 z M 410.3706,51.39 c 0,6.329 -6.055,9.219 -11.833,9.219 -6.742,0 -12.658,-4.816 -12.658,-11.832 0,-8.669 8.805,-16.511 29.994,-16.511 6.879,0 16.235,0.688 22.289,4.127 7.291,4.128 8.805,10.732 8.805,21.189 v 25.867 c 0,5.366 0.826,6.467 2.34,6.467 1.1,0 2.201,-0.276 3.303,-0.276 4.402,0 6.879,3.715 6.879,7.705 0,7.705 -7.705,10.594 -14.172,10.594 -6.33,0 -13.346,-2.339 -15.686,-8.806 -6.467,6.193 -14.859,8.806 -23.527,8.806 -12.52,0 -24.49,-6.604 -24.49,-20.638 0,-32.608 42.652,-15.685 42.652,-33.846 0,-5.229 -4.816,-7.705 -9.355,-7.705 -2.34,0 -4.541,0.413 -4.541,3.164 z" />
        <polygon
           style="fill:#ed1c24"
           points="461.401,1.953 461.401,107.752 478.294,107.752 478.294,1.953 "
           id="Fill-13" />
        <path
           style="fill:#000000"
           id="Fill-15"
           d="m 498.6514,34.5786 c 0,-10.328 -1.049,-12.125 -3.742,-12.125 -2.397,0 -4.492,1.048 -6.736,1.048 -5.09,0 -7.784,-5.538 -7.784,-10.029 0,-6.437 3.742,-11.376 10.477,-11.376 4.64,0 9.281,1.497 14.072,1.497 3.592,0 8.233,-1.497 12.873,-1.497 5.688,0 6.737,2.245 6.737,10.777 v 60.924 c 0,9.131 0.748,12.125 3.742,12.125 2.394,0 4.49,-1.048 6.734,-1.048 5.09,0 7.785,5.538 7.785,10.028 0,6.438 -3.742,11.377 -10.478,11.377 -7.635,0 -13.323,-1.497 -20.508,-1.497 -7.635,0 -15.119,1.497 -22.752,1.497 -4.94,0 -8.682,-4.939 -8.682,-11.377 0,-4.49 2.694,-10.028 7.784,-10.028 2.244,0 4.339,1.048 6.736,1.048 2.994,0 3.742,-2.994 3.742,-12.125 z" />
        <path
           style="fill:#000000"
           id="Fill-16"
           d="m 596.544,30.0883 c 0,-6.736 -7.186,-9.88 -12.873,-9.88 -4.041,0 -7.783,0.599 -11.078,2.994 1.947,2.395 2.994,4.64 2.994,7.784 0,8.682 -7.186,14.071 -15.268,14.071 -9.131,0 -15.267,-7.635 -15.267,-16.317 0,-21.255 22.601,-28.74 40.265,-28.74 19.758,0 39.069,8.832 39.069,31.285 0,21.406 -20.207,29.039 -37.422,34.429 -8.232,2.694 -21.705,5.838 -22.453,16.017 l 0.299,0.298 c 3.144,-5.239 8.681,-8.381 14.968,-8.381 6.287,0 11.079,3.142 15.418,6.286 4.192,3.143 7.783,6.287 11.676,6.287 1.797,0 3.293,-1.197 4.641,-2.395 -5.389,-0.598 -9.282,-4.64 -9.282,-10.178 0,-6.438 5.54,-11.377 11.827,-11.377 10.177,0 15.418,9.729 15.418,19.01 0,13.173 -10.03,26.944 -23.952,26.944 -7.783,0 -14.07,-3.892 -18.859,-7.783 -4.791,-3.892 -8.533,-7.634 -11.377,-7.634 -1.348,0 -1.797,0.448 -1.646,4.49 0,6.886 -6.288,10.927 -12.873,10.927 -12.424,0 -18.862,-11.825 -18.862,-23.052 0,-20.208 17.065,-30.985 33.981,-38.021 7.633,-3.143 20.656,-7.185 20.656,-17.064" />
      </g>
    </g>
  </g>
</svg>
