<?xml version="1.0" encoding="UTF-8" standalone="no"?>
<!-- Generator: Adobe Illustrator 16.0.0, SVG Export Plug-In . SVG Version: 6.00 Build 0)  -->

<svg
   xmlns:dc="http://purl.org/dc/elements/1.1/"
   xmlns:cc="http://creativecommons.org/ns#"
   xmlns:rdf="http://www.w3.org/1999/02/22-rdf-syntax-ns#"
   xmlns:svg="http://www.w3.org/2000/svg"
   xmlns="http://www.w3.org/2000/svg"
   xmlns:xlink="http://www.w3.org/1999/xlink"
   xmlns:sodipodi="http://sodipodi.sourceforge.net/DTD/sodipodi-0.dtd"
   xmlns:inkscape="http://www.inkscape.org/namespaces/inkscape"
   version="1.1"
   id="Layer_1"
   x="0px"
   y="0px"
   width="130.43408"
   height="40"
   viewBox="0 0 130.43408 40"
   enable-background="new 0 0 224.25 71.5"
   xml:space="preserve"
   sodipodi:docname="pami.svg"
   inkscape:version="0.92.4 (5da689c313, 2019-01-14)"><metadata
   id="metadata45"><rdf:RDF><cc:Work
       rdf:about=""><dc:format>image/svg+xml</dc:format><dc:type
         rdf:resource="http://purl.org/dc/dcmitype/StillImage" /><dc:title></dc:title></cc:Work></rdf:RDF></metadata><defs
   id="defs43" /><sodipodi:namedview
   pagecolor="#ffffff"
   bordercolor="#666666"
   borderopacity="1"
   objecttolerance="10"
   gridtolerance="10"
   guidetolerance="10"
   inkscape:pageopacity="0"
   inkscape:pageshadow="2"
   inkscape:window-width="1024"
   inkscape:window-height="705"
   id="namedview41"
   showgrid="false"
   fit-margin-top="0"
   fit-margin-left="0"
   fit-margin-right="0"
   fit-margin-bottom="0"
   inkscape:zoom="1.690078"
   inkscape:cx="110.163"
   inkscape:cy="34.752999"
   inkscape:window-x="-8"
   inkscape:window-y="-8"
   inkscape:window-maximized="1"
   inkscape:current-layer="Layer_1" />
<g
   id="g38"
   transform="matrix(0.59200497,0,0,0.59200497,-1.1615138,-1.7381267)">
	<g
   id="g24">
		<path
   d="m 98.964,11.088 h -12.42 c -2.557,0 -4.586,2.012 -4.586,4.574 v 35.659 c 0.021,0.681 0.557,1.226 1.236,1.249 h 6.676 c 0.674,-0.004 1.217,-0.539 1.248,-1.203 V 40.196 h 6.947 c 9.326,0 16.82,-4.985 16.82,-14.612 v -0.12 c 10e-4,-8.503 -5.999,-14.376 -15.921,-14.376 m 6.65,14.678 c 0,3.557 -2.668,6.297 -7.248,6.297 H 91.118 V 19.34 h 7.068 c 4.574,0 7.428,2.196 7.428,6.294 z"
   id="path2"
   inkscape:connector-curvature="0"
   style="fill:#0032a0" />
		<path
   d="m 222.288,51.299 v 0 -36.262 c 0,-2.561 -2.018,-4.586 -4.582,-4.586 -2.553,0 -4.572,2.025 -4.572,4.586 v 36.262 c 0.002,0.703 0.561,1.26 1.262,1.26 h 6.639 c 0.689,0 1.253,-0.567 1.253,-1.26"
   id="path4"
   inkscape:connector-curvature="0"
   style="fill:#0032a0" />
		<path
   d="m 155.894,51.337 c 0,-0.151 -0.018,-0.292 -0.063,-0.419 l -16.32,-36.829 c -1.01,-2.263 -2.793,-3.638 -5.289,-3.638 h -0.533 c -2.494,0 -4.338,1.375 -5.348,3.638 l -16.152,36.378 c -0.061,0.138 -0.113,0.279 -0.174,0.418 -0.059,0.143 -0.084,0.288 -0.084,0.442 0,0.704 0.563,1.265 1.271,1.265 v 0 h 6.658 c 0.508,-0.016 0.918,-0.322 1.119,-0.76 v 0 l 3.674,-8.447 h 18.313 l 3.662,8.451 c 0.188,0.439 0.629,0.752 1.133,0.764 l 6.934,-0.008 c 0.671,-0.022 1.199,-0.578 1.199,-1.255 m -27.848,-16.036 5.76,-13.727 5.76,13.727 z"
   id="path6"
   inkscape:connector-curvature="0"
   style="fill:#0032a0" />
		<rect
   x="160.82899"
   y="57.174999"
   width="1.322"
   height="12.999"
   id="rect8"
   style="fill:#00a5e1" />
		<polygon
   points="177.437,57.175 177.437,70.174 175.78,70.174 168.216,58.99 168.188,58.99 168.188,70.174 166.866,70.174 166.866,57.175 168.522,57.175 176.079,68.235 176.116,68.235 176.116,57.175 "
   id="polygon10"
   style="fill:#00a5e1" />
		<path
   d="m 188.075,59.265 c -0.273,-0.384 -0.643,-0.704 -1.076,-0.938 -0.441,-0.246 -0.979,-0.358 -1.598,-0.358 -0.318,0 -0.65,0.052 -0.971,0.147 -0.328,0.095 -0.629,0.244 -0.906,0.445 -0.264,0.205 -0.48,0.456 -0.646,0.762 -0.168,0.303 -0.252,0.668 -0.252,1.084 0,0.42 0.084,0.752 0.246,1.033 0.158,0.258 0.359,0.492 0.629,0.682 0.26,0.199 0.549,0.345 0.896,0.471 0.328,0.121 0.686,0.242 1.051,0.358 0.451,0.152 0.906,0.307 1.357,0.479 0.461,0.179 0.879,0.396 1.236,0.677 0.377,0.271 0.67,0.619 0.902,1.039 0.234,0.426 0.346,0.961 0.346,1.602 0,0.662 -0.121,1.211 -0.371,1.688 -0.244,0.477 -0.564,0.863 -0.959,1.172 -0.393,0.298 -0.854,0.527 -1.348,0.674 -0.518,0.141 -1.021,0.221 -1.545,0.221 -0.385,0 -0.777,-0.047 -1.162,-0.118 -0.404,-0.08 -0.771,-0.2 -1.125,-0.36 -0.363,-0.166 -0.691,-0.356 -0.992,-0.607 -0.311,-0.244 -0.576,-0.518 -0.813,-0.84 l 1.143,-0.835 c 0.275,0.446 0.666,0.835 1.189,1.157 0.494,0.311 1.092,0.467 1.775,0.467 0.34,0 0.676,-0.055 1.016,-0.156 0.336,-0.106 0.652,-0.27 0.926,-0.479 0.275,-0.215 0.506,-0.477 0.684,-0.795 0.168,-0.305 0.256,-0.665 0.256,-1.092 0,-0.441 -0.088,-0.832 -0.256,-1.127 -0.178,-0.296 -0.408,-0.536 -0.709,-0.752 -0.295,-0.201 -0.627,-0.371 -1.006,-0.503 -0.385,-0.136 -0.777,-0.274 -1.195,-0.406 -0.434,-0.128 -0.852,-0.288 -1.273,-0.456 -0.406,-0.169 -0.785,-0.393 -1.113,-0.672 -0.324,-0.271 -0.592,-0.605 -0.795,-1.019 -0.205,-0.4 -0.311,-0.895 -0.311,-1.485 0,-0.629 0.127,-1.163 0.377,-1.619 0.258,-0.443 0.582,-0.817 0.979,-1.111 0.41,-0.303 0.852,-0.507 1.352,-0.646 0.482,-0.131 0.971,-0.201 1.436,-0.201 0.889,0 1.639,0.152 2.264,0.467 0.625,0.311 1.092,0.693 1.416,1.111 z"
   id="path12"
   inkscape:connector-curvature="0"
   style="fill:#00a5e1" />
		<path
   d="m 199.382,59.265 c -0.277,-0.384 -0.645,-0.704 -1.082,-0.938 -0.434,-0.246 -0.971,-0.358 -1.596,-0.358 -0.316,0 -0.635,0.052 -0.979,0.147 -0.334,0.095 -0.625,0.244 -0.898,0.445 -0.27,0.205 -0.486,0.456 -0.648,0.762 -0.166,0.303 -0.248,0.668 -0.248,1.084 0,0.42 0.082,0.752 0.236,1.033 0.162,0.258 0.369,0.492 0.633,0.682 0.268,0.199 0.559,0.345 0.887,0.471 0.34,0.121 0.701,0.242 1.059,0.358 0.459,0.152 0.904,0.307 1.367,0.479 0.471,0.179 0.867,0.396 1.234,0.677 0.367,0.271 0.67,0.619 0.9,1.039 0.23,0.426 0.348,0.961 0.348,1.602 0,0.662 -0.123,1.211 -0.373,1.688 -0.25,0.477 -0.572,0.863 -0.967,1.172 -0.381,0.298 -0.84,0.527 -1.363,0.674 -0.5,0.141 -1.008,0.221 -1.523,0.221 -0.387,0 -0.781,-0.047 -1.17,-0.118 -0.398,-0.08 -0.77,-0.2 -1.127,-0.36 -0.352,-0.166 -0.678,-0.356 -0.982,-0.607 -0.305,-0.244 -0.584,-0.518 -0.805,-0.84 l 1.137,-0.835 c 0.279,0.446 0.672,0.835 1.17,1.157 0.51,0.311 1.117,0.467 1.807,0.467 0.324,0 0.658,-0.055 1,-0.156 0.34,-0.106 0.658,-0.27 0.934,-0.479 0.27,-0.215 0.5,-0.477 0.674,-0.795 0.172,-0.305 0.262,-0.665 0.262,-1.092 0,-0.441 -0.09,-0.832 -0.262,-1.127 -0.174,-0.296 -0.414,-0.536 -0.705,-0.752 -0.295,-0.201 -0.633,-0.371 -1,-0.503 -0.395,-0.136 -0.795,-0.274 -1.207,-0.406 -0.418,-0.128 -0.85,-0.288 -1.266,-0.456 -0.412,-0.169 -0.789,-0.393 -1.117,-0.672 -0.328,-0.271 -0.594,-0.605 -0.799,-1.019 -0.201,-0.4 -0.299,-0.895 -0.299,-1.485 0,-0.629 0.123,-1.163 0.383,-1.619 0.246,-0.443 0.564,-0.817 0.971,-1.111 0.406,-0.303 0.854,-0.507 1.342,-0.646 0.486,-0.131 0.971,-0.201 1.451,-0.201 0.871,0 1.631,0.152 2.252,0.467 0.627,0.311 1.1,0.693 1.414,1.111 z"
   id="path14"
   inkscape:connector-curvature="0"
   style="fill:#00a5e1" />
		<path
   d="m 203.614,67.511 c 0.096,0.511 0.332,0.951 0.689,1.29 0.371,0.348 0.834,0.523 1.422,0.523 0.455,0 0.832,-0.078 1.115,-0.25 0.291,-0.164 0.537,-0.374 0.709,-0.66 0.172,-0.291 0.307,-0.604 0.371,-0.963 0.066,-0.375 0.096,-0.743 0.096,-1.138 v -9.139 h 1.324 v 9.253 c 0,0.422 -0.045,0.881 -0.141,1.352 -0.086,0.482 -0.258,0.921 -0.521,1.321 -0.254,0.408 -0.613,0.738 -1.063,1.007 -0.457,0.262 -1.031,0.393 -1.742,0.393 -0.936,0 -1.719,-0.252 -2.326,-0.755 -0.617,-0.499 -1.006,-1.14 -1.156,-1.905 z"
   id="path16"
   inkscape:connector-curvature="0"
   style="fill:#00a5e1" />
		<path
   d="m 214.2,57.175 h 3.668 c 0.662,0 1.256,0.067 1.795,0.208 0.543,0.145 1.002,0.36 1.389,0.645 0.383,0.289 0.678,0.643 0.896,1.084 0.197,0.43 0.307,0.954 0.307,1.531 0,0.588 -0.109,1.095 -0.32,1.537 -0.221,0.437 -0.516,0.791 -0.9,1.077 -0.379,0.294 -0.852,0.497 -1.398,0.654 -0.547,0.143 -1.16,0.214 -1.811,0.214 h -2.309 v 6.049 H 214.2 Z m 1.317,5.835 h 2.234 c 1.055,0 1.836,-0.203 2.375,-0.604 0.539,-0.404 0.801,-0.989 0.801,-1.764 0,-0.809 -0.271,-1.402 -0.834,-1.776 -0.557,-0.362 -1.338,-0.55 -2.342,-0.55 h -2.234 z"
   id="path18"
   inkscape:connector-curvature="0"
   style="fill:#00a5e1" />
		<path
   d="M 205.04,51.357 V 15.066 c 0,-2.571 -2.039,-4.615 -4.615,-4.615 h -1.014 c -1.859,0 -3.178,0.789 -4.133,2.35 l -12.291,18.19 -12.346,-18.147 c -0.828,-1.367 -2.217,-2.393 -4.184,-2.393 h -1.029 c -2.564,0 -4.6,2.044 -4.6,4.615 v 36.271 0 c 0,0.665 0.516,1.21 1.182,1.255 h 6.652 c 0.654,-0.021 1.172,-0.553 1.205,-1.207 V 27.639 l 9.174,12.262 c 0.943,1.443 2.156,2.348 3.83,2.348 1.676,0 2.869,-0.904 3.826,-2.348 l 9.184,-12.438 v 23.859 c 0,0.702 0.561,1.267 1.27,1.267 h 6.613 v 0 c 0.692,-10e-4 1.245,-0.55 1.276,-1.232"
   id="path20"
   inkscape:connector-curvature="0"
   style="fill:#0032a0" />
		<path
   d="m 21.161,31.494 c 0,5.148 4.188,9.347 9.363,9.347 5.166,0 9.361,-4.198 9.361,-9.347 0,-5.182 -4.195,-9.381 -9.361,-9.381 -5.175,0 -9.363,4.2 -9.363,9.381"
   id="path22"
   inkscape:connector-curvature="0"
   style="fill:#00a5e1" />
	</g>
	<g
   id="g34">
		<defs
   id="defs27">
			<path
   id="SVGID_1_"
   d="m 11.45,31.492 c 0,-10.523 8.543,-19.063 19.07,-19.063 10.529,0 19.072,8.539 19.072,19.063 0,10.527 -8.543,19.078 -19.072,19.078 -10.527,0 -19.07,-8.55 -19.07,-19.078 m -9.488,0 c 0,15.783 12.785,28.573 28.559,28.573 15.781,0 28.559,-12.79 28.559,-28.573 C 59.08,15.717 46.303,2.935 30.521,2.935 14.747,2.936 1.962,15.717 1.962,31.492"
   inkscape:connector-curvature="0" />
		</defs>
		<clipPath
   id="SVGID_2_">
			<use
   xlink:href="#SVGID_1_"
   overflow="visible"
   id="use29"
   style="overflow:visible"
   x="0"
   y="0"
   width="100%"
   height="100%" />
		</clipPath>
		<rect
   x="1.962"
   y="2.9360001"
   clip-path="url(#SVGID_2_)"
   width="57.117001"
   height="57.130001"
   id="rect32"
   style="fill:#ffc82d" />
	</g>
	<path
   d="m 30.521,60.065 c -14.203,0 -25.992,-10.382 -28.189,-23.979 0,0 -0.926,-4.189 3.596,-5.101 5.117,-0.849 5.881,4.178 5.881,4.178 1.697,8.78 9.445,15.407 18.713,15.407 9.275,0 17.004,-6.627 18.717,-15.407 0,0 0.766,-5.026 5.887,-4.178 4.506,0.911 3.592,5.101 3.592,5.101 -2.201,13.598 -13.983,23.979 -28.197,23.979"
   id="path36"
   inkscape:connector-curvature="0"
   style="fill:#00a5e1" />
</g>
</svg>