<?xml version="1.0" encoding="UTF-8" standalone="no"?>
<!-- Generator: Adobe Illustrator 15.0.0, SVG Export Plug-In . SVG Version: 6.00 Build 0)  -->

<svg
   xmlns:dc="http://purl.org/dc/elements/1.1/"
   xmlns:cc="http://creativecommons.org/ns#"
   xmlns:rdf="http://www.w3.org/1999/02/22-rdf-syntax-ns#"
   xmlns:svg="http://www.w3.org/2000/svg"
   xmlns="http://www.w3.org/2000/svg"
   xmlns:sodipodi="http://sodipodi.sourceforge.net/DTD/sodipodi-0.dtd"
   xmlns:inkscape="http://www.inkscape.org/namespaces/inkscape"
   version="1.1"
   id="Layer_1"
   x="0px"
   y="0px"
   width="154.80513"
   height="35"
   viewBox="0 0 154.80513 35"
   enable-background="new 0 0 260.223 58.833"
   xml:space="preserve"
   sodipodi:docname="perfil.svg"
   inkscape:version="0.92.4 (5da689c313, 2019-01-14)"><metadata
   id="metadata17"><rdf:RDF><cc:Work
       rdf:about=""><dc:format>image/svg+xml</dc:format><dc:type
         rdf:resource="http://purl.org/dc/dcmitype/StillImage" /><dc:title></dc:title></cc:Work></rdf:RDF></metadata><defs
   id="defs15" /><sodipodi:namedview
   pagecolor="#ffffff"
   bordercolor="#666666"
   borderopacity="1"
   objecttolerance="10"
   gridtolerance="10"
   guidetolerance="10"
   inkscape:pageopacity="0"
   inkscape:pageshadow="2"
   inkscape:window-width="1024"
   inkscape:window-height="705"
   id="namedview13"
   showgrid="false"
   fit-margin-top="0"
   fit-margin-left="0"
   fit-margin-right="0"
   fit-margin-bottom="0"
   inkscape:zoom="1.4564432"
   inkscape:cx="130.1115"
   inkscape:cy="29.4175"
   inkscape:window-x="-8"
   inkscape:window-y="-8"
   inkscape:window-maximized="1"
   inkscape:current-layer="Layer_1" />


<g
   id="g829"
   transform="scale(0.59489411)"><g
     id="g6">
	<g
   id="g4">
		<path
   id="path2"
   d="m 259.59,46.712 0.633,-12.09 -2.436,-0.221 c -1.899,7.263 -5.456,9.876 -13.299,9.876 -2.874,0 -3.702,-0.133 -3.702,-2.348 V 19.387 c 0,-1.771 0.39,-2.346 2.484,-2.346 h 3.069 v -2.304 h -19.291 v 2.304 h 2.533 c 2.144,0 2.436,0.575 2.436,2.346 v 22.675 c 0,1.771 -0.39,2.303 -2.484,2.303 h -2.484 v 2.347 z M 225.678,14.737 h -19.145 v 2.304 h 2.68 c 2.143,0 2.483,0.575 2.483,2.346 v 22.675 c 0,1.771 -0.39,2.303 -2.483,2.303 h -2.68 v 2.347 h 19.145 v -2.347 h -2.776 c -2.095,0 -2.436,-0.531 -2.436,-2.303 V 19.387 c 0,-1.771 0.341,-2.346 2.436,-2.346 h 2.776 z m -21.88,0 h -31.81 v 2.304 h 2.484 c 2.144,0 2.484,0.575 2.484,2.346 v 22.675 c 0,1.771 -0.39,2.303 -2.484,2.303 h -2.484 v 2.347 h 19.534 v -2.347 h -3.506 c -2.095,0 -2.436,-0.531 -2.436,-2.303 V 31.39 c 0.243,0 0.438,0 0.682,0 4.287,0 6.089,1.682 6.917,6.111 h 2.436 V 22.842 h -2.436 c -0.829,4.429 -2.583,6.156 -6.917,6.156 -0.244,0 -0.439,0 -0.682,0 V 19.52 c 0,-2.214 0.73,-2.392 3.555,-2.392 7.454,0 10.816,2.348 12.667,9.123 h 2.387 z m -57.052,16.608 c 0.683,-0.044 1.364,-0.044 1.949,-0.044 5.603,0 6.625,1.462 6.966,6.333 0.146,2.436 -0.244,4.738 1.023,6.864 1.168,1.993 3.556,3.011 7.063,3.011 5.115,0 8.135,-2.833 8.135,-7.794 0,-0.133 0,-0.222 0,-0.354 h -2.484 c -0.048,2.878 -0.633,4.339 -2.046,4.339 -2.192,0 -1.704,-3.277 -3.117,-7.174 -1.267,-3.543 -3.946,-5.447 -7.502,-5.536 v -0.31 c 6.917,-0.221 10.863,-3.188 10.863,-7.838 0,-5.27 -4.432,-8.104 -13.104,-8.104 H 133.01 v 2.304 h 2.63 c 1.9,0 2.485,0.487 2.485,2.346 v 22.675 c 0,1.86 -0.585,2.303 -2.485,2.303 h -2.63 v 2.347 h 18.804 v -2.347 h -2.631 c -1.851,0 -2.436,-0.399 -2.436,-2.303 V 31.345 Z m 0,-11.868 c 0,-2.17 0.537,-2.436 3.751,-2.436 5.797,0 8.184,1.328 8.184,5.934 0,4.738 -2.922,6.111 -9.889,6.111 -0.682,0 -1.315,0 -2.046,-0.088 z M 97.05,46.712 h 32.834 l 0.634,-12.001 -2.437,-0.177 c -1.899,7.351 -5.603,9.92 -13.786,9.92 -2.972,0 -3.703,-0.221 -3.703,-2.392 V 31.39 c 0.244,0 0.438,0 0.682,0 4.287,0 6.089,1.682 6.917,6.111 h 2.436 V 22.842 h -2.436 c -0.828,4.429 -2.582,6.156 -6.917,6.156 -0.244,0 -0.438,0 -0.682,0 v -9.611 c 0,-2.214 0.73,-2.391 3.557,-2.391 7.501,0 10.912,2.391 12.666,9.255 h 2.387 l -0.39,-11.514 H 97.05 v 2.304 h 2.436 c 2.144,0 2.485,0.575 2.485,2.346 v 22.675 c 0,1.771 -0.39,2.303 -2.485,2.303 H 97.05 Z m -22.611,-4.65 v -9.079 c 1.754,0.044 3.361,0.044 4.871,0.044 10.864,0 16.174,-2.879 16.174,-9.212 0,-5.934 -4.579,-9.079 -13.396,-9.079 H 60.605 v 2.304 h 2.631 c 2.143,0 2.484,0.575 2.484,2.346 v 22.675 c 0,1.771 -0.39,2.303 -2.484,2.303 h -2.631 v 2.347 h 19.291 v -2.347 h -3.069 c -1.997,0.001 -2.388,-0.442 -2.388,-2.302 z m 0,-22.232 c 0,-2.479 0.584,-2.789 3.8,-2.789 5.699,0 7.94,1.638 7.94,6.775 0,5.359 -2.68,6.776 -9.305,6.776 -1.071,0 -1.851,-0.044 -2.436,-0.133 V 19.83 Z"
   inkscape:connector-curvature="0" />
	</g>
</g><circle
     id="circle8"
     r="29.417"
     cy="29.417"
     cx="29.417"
     style="fill:#557c9c" /><path
     id="path10"
     d="m 25.96,29.776 c -0.049,-0.007 -0.108,-0.108 -0.108,-0.108 -0.142,-0.271 -0.077,-1.204 0.251,-2.665 0.39,-1.743 1.885,-3.183 3.256,-3.804 0.986,-0.446 3.146,-1.25 4.755,-1.684 1.954,-0.526 6.157,-1.516 6.157,-1.516 0,0 2.149,-0.498 3.837,-0.789 1.579,-0.272 3.152,-0.432 3.783,-0.628 1.076,-0.335 2.188,-0.65 3.072,-1.402 -0.697,0.571 0.189,-0.122 0.044,-0.053 0.1,-0.096 0.139,-0.096 0.192,-0.168 0,0 0.888,-0.903 0.727,-1.617 -0.161,-0.714 -1.407,-0.595 -1.407,-0.595 0,0 -2.571,0.016 -3.357,0.111 -0.788,0.096 -0.898,0.349 -1.428,0.841 -0.53,0.492 -0.944,0.798 -1.795,0.83 -0.852,0.032 -4.904,-0.575 -6.592,-0.56 -1.687,0.016 -4.802,-0.016 -9.027,0.938 -1.084,0.245 -2.736,0.692 -4.932,1.667 0,0 -1.805,0.667 -3.135,2.262 0,0 -0.717,0.887 -0.773,3.202 -0.017,0.69 0.408,1.94 -0.031,2.383 -0.614,0.618 -2.286,0.454 -2.847,0.372 -1.25,-0.186 -2.326,-0.724 -2.568,-0.882 -0.443,-0.291 -1.285,-0.94 -1.392,-1.764 -0.266,-2.029 -0.797,-2.879 -2.212,-3.016 0,0 -0.866,-0.055 -2.934,0.549 0,0 -1.131,0.316 -1.992,0.413 -0.861,0.096 -1.906,0.056 -1.906,0.289 0,0.233 0.625,0.303 2.359,0.248 1.735,-0.054 2.872,0.122 3.677,0.671 0,0 0.86,0.411 1.318,1.989 0.458,1.578 0.292,1.989 1.027,2.387 0,0 1.804,0.933 3.705,1.578 1.901,0.645 1.928,2.192 1.97,2.536 0.042,0.343 0.127,2.677 0.155,3.404 0.028,0.727 0.485,2.662 1.872,4.417 0,0 0.912,1.582 4.27,3.365 3.229,1.569 3.259,1.426 3.977,1.748 0.709,0.319 1.701,0.758 1.98,1.114 0.201,0.256 0.696,0.854 1.083,0.896 0.388,0.043 11.958,0.087 11.958,0.087 0,0 0.774,0.031 0.38,-0.848 -0.245,-0.549 -0.763,-1.204 -1.523,-1.56 -0.727,-0.34 -1.25,-0.677 -2.971,-0.974 -1.72,-0.298 -3.632,-0.718 -5.74,-1.547 -2.108,-0.83 -4.664,-2.714 -5.632,-3.543 -0.968,-0.83 -2.465,-2.007 -2.831,-3.729 0,0 -0.166,-0.776 0.383,-1.745 0,0 0.252,-0.317 0.768,-0.367 0,0 0.964,0.061 1.783,0.108 0.82,0.047 2.675,0.289 3.751,0.4 1.076,0.111 4.952,0.705 6.253,0.975 1.301,0.27 6.066,1.611 6.708,1.786 0.643,0.175 3.934,1.479 4.287,1.051 0,0 0.049,-0.057 0.213,-0.462 0.237,-0.589 1.465,-7.607 1.465,-7.607 0,0 0.155,-0.918 -1.029,-0.961 -0.74,-0.027 -1.183,-0.218 -2.26,-0.155 -1.076,0.063 -2.695,0.243 -5.329,0.703 -2.634,0.461 -5.429,1.135 -5.429,1.135 0,0 -1.114,0.338 -3.623,0.723 -2.146,0.329 -5.662,0.047 -6.289,-0.179 0.002,-0.003 -0.199,-0.11 -0.324,-0.25"
     inkscape:connector-curvature="0"
     style="fill:#ffffff" /></g>
</svg>