<?xml version="1.0" encoding="UTF-8" standalone="no"?>
<svg
   xmlns:dc="http://purl.org/dc/elements/1.1/"
   xmlns:cc="http://creativecommons.org/ns#"
   xmlns:rdf="http://www.w3.org/1999/02/22-rdf-syntax-ns#"
   xmlns:svg="http://www.w3.org/2000/svg"
   xmlns="http://www.w3.org/2000/svg"
   id="svg33"
   viewBox="0 0 3669.4652 1063.0495"
   style="clip-rule:evenodd;fill-rule:evenodd;image-rendering:optimizeQuality;shape-rendering:geometricPrecision;text-rendering:geometricPrecision"
   version="1.1"
   height="40"
   width="138.08084"
   xml:space="preserve"><metadata
   id="metadata37"><rdf:RDF><cc:Work
       rdf:about=""><dc:format>image/svg+xml</dc:format><dc:type
         rdf:resource="http://purl.org/dc/dcmitype/StillImage" /><dc:title></dc:title></cc:Work></rdf:RDF></metadata>
 <defs
   id="defs4">
  <style
   id="style2"
   type="text/css">
   <![CDATA[
    .fil2 {fill:#3F4141;fill-rule:nonzero}
    .fil0 {fill:#469ED6;fill-rule:nonzero}
    .fil1 {fill:#565656;fill-rule:nonzero}
   ]]>
  </style>
 </defs>
 
<g
   id="text829"
   style="font-style:normal;font-variant:normal;font-weight:bold;font-stretch:normal;font-size:549.43225098px;line-height:1.25;font-family:sans-serif;-inkscape-font-specification:'sans-serif Bold';letter-spacing:0px;word-spacing:0px;fill:#000000;fill-opacity:1;stroke:none;stroke-width:13.73580742"
   aria-label="Radares"><path
     id="path881"
     style="stroke-width:13.73580742"
     d="m 146.69438,508.43289 q 32.46158,0 46.412,-12.07249 14.21871,-12.07249 14.21871,-39.70507 0,-27.3643 -14.21871,-39.16851 -13.95042,-11.8042 -46.412,-11.8042 h -43.46095 v 102.75027 z m -43.46095,71.3618 V 731.37146 H -0.0533917 V 330.8332 H 157.69376 q 79.14185,0 115.89586,26.55947 37.02229,26.55947 37.02229,83.97085 0,39.70506 -19.31597,65.19142 -19.0477,25.48636 -57.67966,37.55885 21.19392,4.82899 37.82712,21.99875 16.90148,16.90148 34.07124,51.50927 l 56.06999,113.74965 H 251.59087 l -48.8265,-99.53094 Q 188.00911,601.79344 172.7173,590.79407 157.69376,579.79469 132.47568,579.79469 Z" /><path
     id="path883"
     style="stroke-width:13.73580742"
     d="m 553.13475,596.15962 q -30.04707,0 -45.33889,10.19454 -15.02354,10.19454 -15.02354,30.04708 0,18.24286 12.07249,28.70569 12.34076,10.19454 34.07124,10.19454 27.09602,0 45.60717,-19.31598 18.51114,-19.58425 18.51114,-48.8265 v -10.99937 z m 146.74778,-36.21746 v 171.4293 H 603.03436 V 686.8374 q -19.31597,27.3643 -43.46095,39.97334 -24.14497,12.34077 -58.75276,12.34077 -46.68028,0 -75.92252,-27.09603 -28.97397,-27.3643 -28.97397,-70.82525 0,-52.85066 36.21746,-77.53219 36.48573,-24.68152 114.2862,-24.68152 h 56.60654 v -7.51177 q 0,-22.80359 -17.97459,-33.26641 -17.97459,-10.7311 -56.06999,-10.7311 -30.85191,0 -57.41137,6.17038 -26.55947,6.17039 -49.36306,18.51115 v -73.23975 q 30.85191,-7.51177 61.9721,-11.26765 31.12018,-4.02416 62.24037,-4.02416 81.28807,0 117.23725,32.19329 36.21746,31.92502 36.21746,104.09166 z" /><path
     id="path885"
     style="stroke-width:13.73580742"
     d="M 994.18292,474.8982 V 313.93172 h 96.57988 v 417.43974 h -96.57988 v -43.46095 q -19.85254,26.55947 -43.72923,38.90023 -23.87669,12.34077 -55.26516,12.34077 -55.53343,0 -91.21434,-43.99751 -35.6809,-44.26578 -35.6809,-113.74964 0,-69.48387 35.6809,-113.48137 35.68091,-44.26578 91.21434,-44.26578 31.12019,0 54.99688,12.60904 24.14497,12.34076 43.99751,38.63195 z m -63.31349,194.50117 q 30.85191,0 46.94856,-22.53531 16.36493,-22.53531 16.36493,-65.4597 0,-42.9244 -16.36493,-65.45971 -16.09665,-22.5353 -46.94856,-22.5353 -30.58363,0 -46.94855,22.5353 -16.09665,22.53531 -16.09665,65.45971 0,42.92439 16.09665,65.4597 16.36492,22.53531 46.94855,22.53531 z" /><path
     id="path887"
     style="stroke-width:13.73580742"
     d="m 1318.2621,596.15962 q -30.0471,0 -45.3389,10.19454 -15.0236,10.19454 -15.0236,30.04708 0,18.24286 12.0725,28.70569 12.3408,10.19454 34.0713,10.19454 27.096,0 45.6071,-19.31598 18.5112,-19.58425 18.5112,-48.8265 v -10.99937 z m 146.7477,-36.21746 v 171.4293 h -96.8481 V 686.8374 q -19.316,27.3643 -43.461,39.97334 -24.1449,12.34077 -58.7527,12.34077 -46.6803,0 -75.9226,-27.09603 -28.9739,-27.3643 -28.9739,-70.82525 0,-52.85066 36.2174,-77.53219 36.4858,-24.68152 114.2862,-24.68152 h 56.6066 v -7.51177 q 0,-22.80359 -17.9746,-33.26641 -17.9746,-10.7311 -56.07,-10.7311 -30.8519,0 -57.4114,6.17038 -26.5594,6.17039 -49.363,18.51115 v -73.23975 q 30.8519,-7.51177 61.9721,-11.26765 31.1202,-4.02416 62.2403,-4.02416 81.2881,0 117.2373,32.19329 36.2174,31.92502 36.2174,104.09166 z" /><path
     id="path889"
     style="stroke-width:13.73580742"
     d="m 1778.0897,512.72532 q -12.6091,-5.9021 -25.2181,-8.58487 -12.3408,-2.95106 -24.9498,-2.95106 -37.0223,0 -57.1431,23.8767 -19.8526,23.60842 -19.8526,67.8742 v 138.43117 h -96.0433 V 430.9007 h 96.0433 v 49.36305 q 18.5112,-29.51052 42.3879,-42.92439 24.145,-13.68215 57.6796,-13.68215 4.829,0 10.4629,0.53655 5.6338,0.26828 16.3649,1.60967 z" /><path
     id="path891"
     style="stroke-width:13.73580742"
     d="m 2126.3138,580.33125 v 27.3643 h -224.5482 q 3.4876,33.80296 24.4133,50.70444 20.9256,16.90148 58.4844,16.90148 30.3154,0 61.9721,-8.85316 31.9251,-9.12143 65.4597,-27.3643 v 74.04458 q -34.0712,12.87732 -68.1424,19.31598 -34.0713,6.70694 -68.1425,6.70694 -81.5564,0 -126.8953,-41.31473 -45.0706,-41.58301 -45.0706,-116.43242 0,-73.50803 44.2658,-115.62759 44.5341,-42.11956 122.3345,-42.11956 70.8253,0 113.2131,42.65611 42.6561,42.65612 42.6561,114.01793 z m -98.7261,-31.92502 q 0,-27.3643 -16.0966,-43.99751 -15.8284,-16.90148 -41.583,-16.90148 -27.9009,0 -45.3389,15.82837 -17.438,15.5601 -21.7305,45.07062 z" /><path
     id="path893"
     style="stroke-width:13.73580742"
     d="m 2433.4914,440.29041 v 72.97147 q -30.8519,-12.87732 -59.5576,-19.31598 -28.7057,-6.43866 -54.192,-6.43866 -27.3643,0 -40.7782,6.97522 -13.1456,6.70693 -13.1456,20.92564 0,11.53593 9.9263,17.70631 10.1945,6.17038 36.2174,9.12144 l 16.9015,2.41449 q 73.7763,9.38971 99.2627,30.85191 25.4863,21.4622 25.4863,67.33765 0,48.02166 -35.4126,72.16663 -35.4126,24.14498 -105.7013,24.14498 -29.7788,0 -61.7038,-4.829 -31.6568,-4.56071 -65.1914,-13.95043 v -72.97147 q 28.7056,13.95043 58.7527,20.92565 30.3154,6.97521 61.4356,6.97521 28.1691,0 42.3878,-7.78005 14.2187,-7.78004 14.2187,-23.07186 0,-12.87732 -9.9263,-19.0477 -9.6579,-6.43866 -38.9002,-9.92627 l -16.9015,-2.14622 q -64.1183,-8.04832 -89.8729,-29.77879 -25.7547,-21.73048 -25.7547,-65.99626 0,-47.75339 32.7299,-70.82525 32.7298,-23.07186 100.3358,-23.07186 26.5594,0 55.8017,4.02416 29.2422,4.02416 63.5817,12.60904 z" /></g><g
   transform="matrix(0.62500001,0,0,0.62500001,1917.023,-1144.4729)"
   id="g857"><g
     id="g846"><circle
       r="265.76236"
       cy="2681.5962"
       cx="1953.7089"
       id="path831"
       style="opacity:1;fill:none;fill-opacity:1;stroke:#000000;stroke-width:106.3049469;stroke-linecap:round;stroke-linejoin:bevel;stroke-miterlimit:4;stroke-dasharray:none;stroke-opacity:1;paint-order:fill markers stroke" /><circle
       r="531.52472"
       cy="2681.5962"
       cx="1953.7089"
       id="path833"
       style="opacity:1;fill:none;fill-opacity:1;stroke:#000000;stroke-width:106.3049469;stroke-linecap:round;stroke-linejoin:bevel;stroke-miterlimit:4;stroke-dasharray:none;stroke-opacity:1;paint-order:fill markers stroke" /><circle
       r="797.28711"
       cy="2681.5962"
       cx="1953.7089"
       id="path835"
       style="opacity:1;fill:none;fill-opacity:1;stroke:#000000;stroke-width:106.3049469;stroke-linecap:round;stroke-linejoin:bevel;stroke-miterlimit:4;stroke-dasharray:none;stroke-opacity:1;paint-order:fill markers stroke" /><path
       id="path837"
       d="M 1156.4218,2681.5962 H 2750.996"
       style="fill:none;stroke:#000000;stroke-width:23.74707603px;stroke-linecap:butt;stroke-linejoin:miter;stroke-opacity:1" /><path
       id="path839"
       d="M 1953.7089,1884.309 V 3478.8834"
       style="fill:none;stroke:#000000;stroke-width:25.35035896px;stroke-linecap:butt;stroke-linejoin:miter;stroke-opacity:1" /></g><path
     style="fill:#000000;stroke:#000000;stroke-width:26.57623672px;stroke-linecap:butt;stroke-linejoin:miter;stroke-opacity:1"
     d="m 2750.9959,2681.5963 h -811.6447 l 591.9274,-548.3234 z"
     id="path848" /></g></svg>