<?xml version="1.0" encoding="UTF-8" standalone="no"?>
<svg
   xmlns:dc="http://purl.org/dc/elements/1.1/"
   xmlns:cc="http://creativecommons.org/ns#"
   xmlns:rdf="http://www.w3.org/1999/02/22-rdf-syntax-ns#"
   xmlns:svg="http://www.w3.org/2000/svg"
   xmlns="http://www.w3.org/2000/svg"
   id="svg2"
   version="1.1"
   viewBox="0 0 98.354943 17.6"
   height="22"
   width="122.94368">
  <metadata
     id="metadata33">
    <rdf:RDF>
      <cc:Work
         rdf:about="">
        <dc:format>image/svg+xml</dc:format>
        <dc:type
           rdf:resource="http://purl.org/dc/dcmitype/StillImage" />
        <dc:title></dc:title>
      </cc:Work>
    </rdf:RDF>
  </metadata>
  <defs
     id="defs31" />
  <g
     transform="matrix(0.09656434,0,0,0.09656434,-17.693335,-1.4919191)"
     id="#ed1d26ff">
    <path
       style="fill:#ed1d26"
       id="path16"
       d="m 976.44,40.03 c 6.76,-8.23 13.57,-16.41 20.4,-24.58 8.01,5.84 16.05,11.65 24.07,17.48 -5.49,4.87 -10.96,9.76 -16.49,14.57 -6.24,5.44 -12.4,10.95 -18.62,16.4 -6.07,-4.37 -12.11,-8.8 -18.22,-13.13 2.9,-3.62 5.96,-7.11 8.86,-10.74 z" />
  </g>
  <g
     style="fill:#005c93;fill-opacity:1"
     transform="matrix(0.09656434,0,0,0.09656434,-17.693335,-1.4919191)"
     id="#ffffffff">
    <path
       style="fill:#005c93;fill-opacity:1"
       id="path19"
       d="m 906.82,64.81 c 17.84,-18.34 44.28,-27.28 69.62,-24.78 -2.9,3.63 -5.96,7.12 -8.86,10.74 6.11,4.33 12.15,8.76 18.22,13.13 6.22,-5.45 12.38,-10.96 18.62,-16.4 12.74,6.1 24.29,15.04 32.37,26.71 8.53,12.11 13.3,26.96 12.99,41.8 0.3,18.95 -5.69,38.22 -17.75,52.97 -9.48,11.77 -22.69,20.33 -37.1,24.75 -16.88,5.15 -35.21,5.27 -52.2,0.56 -17.37,-4.83 -33.05,-15.82 -43.05,-30.88 -9.8,-14.41 -14.12,-32.1 -13.69,-49.41 0.19,-18.3 8.04,-36.2 20.83,-49.19 m 55.68,12.75 c -14.87,1.88 -28.56,12.18 -33.92,26.26 -6.42,17.55 1.01,38.89 16.42,49.27 9.22,6.32 21.09,8.56 31.98,6.01 11.06,-2.47 20.83,-9.84 26.47,-19.64 5.57,-9.77 7.7,-21.79 4.77,-32.74 C 1002.7,87.64 982.1,74.67 962.5,77.56 Z" />
    <path
       style="fill:#005c93;fill-opacity:1"
       id="path21"
       d="m 183.24,44.49 c 12.91,-0.04 25.81,0.03 38.72,-0.04 0.1,38.52 0.01,77.03 0.04,115.55 15.33,0 30.67,-0.01 46,0 0.28,9.76 -0.57,19.62 0.43,29.31 8.4,-23.05 17.56,-45.82 26.25,-68.77 9.86,-25.35 19.35,-50.85 29.43,-76.1 14.02,0.13 28.05,-0.07 42.07,0.1 18.55,49.43 37.21,98.81 55.81,148.22 -13.82,-0.04 -27.64,0.12 -41.46,-0.07 -3.11,-8.6 -6.36,-17.15 -9.61,-25.7 -17.55,0.03 -35.1,-0.02 -52.64,0.02 -3.48,8.6 -6.66,17.31 -10.37,25.8 -41.56,-0.1 -83.12,-0.01 -124.67,-0.05 -0.01,-49.42 -0.02,-98.85 0,-148.27 m 161.4,46.38 c -5.29,15.43 -10.28,30.98 -15.7,46.36 10.49,0 20.98,0 31.48,0 -4.83,-14.73 -9.82,-29.42 -14.67,-44.15 -0.3,-0.77 -0.67,-1.51 -1.11,-2.21 z" />
    <path
       style="fill:#005c93;fill-opacity:1"
       id="path23"
       d="m 658.73,44.5 c 14.03,-0.09 28.06,0.06 42.09,-0.08 18.79,49.41 37.42,98.9 55.9,148.42 -13.76,-0.18 -27.52,0.01 -41.29,-0.1 -3.19,-8.58 -6.51,-17.12 -9.59,-25.74 -17.58,0 -35.15,0.01 -52.73,0 -3.41,8.61 -6.79,17.23 -10.28,25.8 -28.59,-0.03 -57.17,-0.09 -85.75,0.03 -12.47,-18.75 -24.1,-38.07 -36.58,-56.81 0.05,18.91 0.02,37.83 0.01,56.74 -12.89,0.05 -25.78,-0.05 -38.67,0.05 -0.21,-49.44 -0.06,-98.88 -0.07,-148.32 14.39,-0.03 28.78,0 43.17,-0.01 10.87,0.08 21.92,-0.62 32.55,2.12 10.73,2.46 20.95,8.59 26.85,18.07 5.47,8.68 7.04,19.26 6.41,29.35 -0.64,10.46 -4.73,20.96 -12.39,28.27 -5.35,5.2 -12.39,8.46 -19.67,9.86 14.75,19.17 29.48,38.35 44.15,57.57 18.69,-48.38 37.25,-96.81 55.89,-145.22 M 520.51,74.29 c -0.03,12.19 0.11,24.4 -0.07,36.59 7.19,0.04 14.76,0.03 21.39,-3.14 11.54,-5.16 11.84,-24.47 0.54,-30.06 -6.68,-3.51 -14.5,-3.5 -21.86,-3.39 m 159.01,16.2 c -5.12,15.62 -10.45,31.17 -15.74,46.74 10.5,0 20.99,0.01 31.48,-0.01 -5.3,-15.55 -10.2,-31.26 -15.74,-46.73 z" />
    <path
       style="fill:#005c93;fill-opacity:1"
       id="path25"
       d="m 770.04,44.45 c 40.94,0.05 81.88,0.03 122.83,0.01 -23.21,38.52 -46.46,77.02 -69.72,115.5 20.61,0.09 41.23,0.01 61.85,0.04 0,10.92 0.01,21.85 -0.01,32.77 -42.38,0 -84.76,-0.01 -127.14,0.01 23.3,-38.42 46.67,-76.79 69.92,-115.23 -19.25,-0.05 -38.49,-0.03 -57.74,-0.01 -0.04,-11.03 -0.07,-22.06 0.01,-33.09 z" />
    <path
       style="fill:#005c93;fill-opacity:1"
       id="path27"
       d="m 1163.04,44.45 c 12.9,0.06 25.81,0 38.72,0.04 0.02,49.42 0.01,98.85 0,148.27 -12.88,0.03 -25.75,-0.02 -38.63,0.03 -13.67,-17.37 -27.16,-34.88 -40.74,-52.32 -9.99,-12.63 -19.56,-25.62 -29.83,-38 -0.09,30.09 0,60.19 -0.05,90.29 -12.91,0.02 -25.83,0 -38.74,0.01 -0.04,-49.43 -0.04,-98.85 0,-148.28 12.85,-0.05 25.71,0.03 38.57,-0.03 23.59,30.17 47.05,60.44 70.64,90.61 0.08,-30.2 -0.05,-60.41 0.06,-90.62 z" />
  </g>
</svg>
