<?xml version="1.0" encoding="UTF-8" standalone="no"?>
<svg
   xmlns:dc="http://purl.org/dc/elements/1.1/"
   xmlns:cc="http://creativecommons.org/ns#"
   xmlns:rdf="http://www.w3.org/1999/02/22-rdf-syntax-ns#"
   xmlns:svg="http://www.w3.org/2000/svg"
   xmlns="http://www.w3.org/2000/svg"
   xmlns:xlink="http://www.w3.org/1999/xlink"
   id="svg8"
   version="1.1"
   viewBox="0 0 151.73121 40.000002"
   height="40"
   width="151.73122">
  <defs
     id="defs2">
    <linearGradient
       id="linearGradient954">
      <stop
         id="stop950"
         offset="0"
         style="stop-color:#ffef00;stop-opacity:1" />
      <stop
         id="stop952"
         offset="1"
         style="stop-color:#f7941e;stop-opacity:1" />
    </linearGradient>
    <radialGradient
       gradientUnits="userSpaceOnUse"
       gradientTransform="matrix(1.0373107,-1.2636286,1.0412472,0.85475768,-639.64411,-255.50554)"
       r="32.499535"
       fy="624.14294"
       fx="-274.53323"
       cy="624.14294"
       cx="-274.53323"
       id="radialGradient956"
       xlink:href="#linearGradient954" />
    <radialGradient
       gradientUnits="userSpaceOnUse"
       gradientTransform="matrix(-1.2968645e-7,-1.9666936,2.0000013,-1.3188281e-7,-1525.0708,84.970811)"
       r="22.511814"
       fy="625.26837"
       fx="-274.53323"
       cy="625.26837"
       cx="-274.53323"
       id="radialGradient958"
       xlink:href="#linearGradient954" />
  </defs>
  <metadata
     id="metadata5">
    <rdf:RDF>
      <cc:Work
         rdf:about="">
        <dc:format>image/svg+xml</dc:format>
        <dc:type
           rdf:resource="http://purl.org/dc/dcmitype/StillImage" />
        <dc:title></dc:title>
      </cc:Work>
    </rdf:RDF>
  </metadata>
  <g
     transform="translate(383.2163,-555.39435)"
     id="layer1">
    <g
       transform="translate(13.30756,24.928572)"
       id="g913" />
    <path
       id="path906"
       d="m -365.58315,593.97362 c -2.7019,-0.70823 -4.31138,-1.40851 -6.0549,-2.6345 -0.99689,-0.70098 -1.00464,-0.73889 -1.00464,-4.91222 v -4.2058 l 1.8485,2.02257 c 7.48311,8.18771 21.06167,4.23493 23.34002,-6.7944 0.23755,-1.14993 0.32724,-2.87609 0.19933,-3.8359 -0.12791,-0.95983 -0.0976,-1.57598 0.0675,-1.36923 0.16503,0.20674 2.23569,2.0562 4.60149,4.1099 1.55194,2.19352 6.8349,3.734 2.49427,3.734 -1.766,0 -1.81727,0.0312 -2.2501,1.36996 -1.01901,3.15178 -3.06025,6.01726 -6.11123,8.57891 -2.54406,2.13604 -5.22236,3.43068 -8.54175,4.12893 -3.30971,0.69622 -5.3754,0.64999 -8.58846,-0.19222 z"
       style="fill:#ed8829;fill-opacity:1;stroke-width:0.36532435" />
    <path
       style="fill:#f4b34c;fill-opacity:1;stroke-width:0.36532435"
       d="m -378.93414,573.73938 -4.28216,-3.69776 1.81622,-0.11042 c 1.10549,-0.0672 1.81634,-0.28166 1.81651,-0.54799 1.6e-4,-0.24066 0.49718,-1.4879 1.10448,-2.77164 2.67305,-5.65035 7.66578,-9.48602 14.06918,-10.80868 4.32177,-0.89269 7.92578,-0.34825 12.49937,1.88823 l 2.6486,1.29516 v 4.04234 4.04233 l -1.73529,-1.73584 c -0.95441,-0.95471 -2.80386,-2.25113 -4.1099,-2.88093 -2.11496,-1.01988 -2.73411,-1.14582 -5.66252,-1.15177 -2.93198,-0.006 -3.55293,0.11767 -5.73585,1.14205 -4.9168,2.3073 -7.63994,6.35795 -7.9617,11.84291 l -0.18478,3.14978 z"
       id="path908" />
    <g
       id="text912"
       style="font-style:normal;font-variant:normal;font-weight:bold;font-stretch:normal;font-size:24.44228554px;line-height:1.25;font-family:sans-serif;-inkscape-font-specification:'sans-serif Bold';letter-spacing:0px;word-spacing:0px;fill:#22aade;fill-opacity:1;stroke:none;stroke-width:0.6110571"
       transform="scale(0.96567665,1.0355433)"
       aria-label="RENTAS">
      <path
         id="path856"
         style="stroke-width:0.6110571"
         d="m -336.40786,550.18846 q 1.4441,0 2.06471,-0.53706 0.63254,-0.53707 0.63254,-1.76634 0,-1.21734 -0.63254,-1.74247 -0.62061,-0.52513 -2.06471,-0.52513 h -1.93342 v 4.571 z m -1.93342,3.17463 v 6.74311 h -4.59487 v -17.81852 h 7.01761 q 3.52074,0 5.1558,1.18154 1.64699,1.18153 1.64699,3.73556 0,1.76634 -0.8593,2.90013 -0.84736,1.1338 -2.56596,1.67086 0.94284,0.21483 1.68279,0.97865 0.75189,0.75189 1.51571,2.29146 l 2.49435,5.06032 h -4.89323 l -2.17211,-4.42778 q -0.65641,-1.33668 -1.33669,-1.82601 -0.66835,-0.48932 -1.79021,-0.48932 z" />
      <path
         id="path858"
         style="stroke-width:0.6110571"
         d="m -324.12704,542.28768 h 12.40016 v 3.473 h -7.8053 v 3.31785 h 7.33985 v 3.473 h -7.33985 v 4.08167 h 8.06786 v 3.473 h -12.66272 z" />
      <path
         id="path860"
         style="stroke-width:0.6110571"
         d="m -307.41845,542.28768 h 5.13193 l 6.48054,12.22114 v -12.22114 h 4.35617 v 17.81852 h -5.13192 l -6.48055,-12.22114 v 12.22114 h -4.35617 z" />
      <path
         id="path862"
         style="stroke-width:0.6110571"
         d="m -289.06287,542.28768 h 16.42216 v 3.473 h -5.90768 v 14.34552 h -4.59486 v -14.34552 h -5.91962 z" />
      <path
         id="path864"
         style="stroke-width:0.6110571"
         d="m -261.37434,556.85996 h -7.18469 l -1.1338,3.24624 h -4.61873 l 6.59989,-17.81852 h 5.47804 l 6.59989,17.81852 h -4.61873 z m -6.03896,-3.30591 h 4.8813 l -2.43468,-7.08922 z" />
      <path
         id="path866"
         style="stroke-width:0.6110571"
         d="m -240.88244,542.84861 v 3.77137 q -1.46797,-0.65641 -2.86433,-0.99058 -1.39636,-0.33417 -2.63757,-0.33417 -1.64699,0 -2.43468,0.45352 -0.78769,0.45351 -0.78769,1.40829 0,0.71608 0.52512,1.12186 0.53707,0.39385 1.93343,0.68028 l 1.95729,0.39385 q 2.97174,0.59673 4.22489,1.81407 1.25314,1.21734 1.25314,3.46107 0,2.94787 -1.7544,4.39197 -1.74247,1.43217 -5.33482,1.43217 -1.69473,0 -3.40139,-0.32224 -1.70666,-0.32224 -3.41333,-0.95478 v -3.87878 q 1.70667,0.90704 3.29398,1.37249 1.59926,0.45352 3.07916,0.45352 1.50377,0 2.3034,-0.50125 0.79962,-0.50126 0.79962,-1.43217 0,-0.83543 -0.54899,-1.28895 -0.53706,-0.45352 -2.16019,-0.81156 l -1.77827,-0.39384 q -2.67337,-0.57287 -3.91458,-1.82601 -1.22928,-1.25315 -1.22928,-3.37753 0,-2.66144 1.7186,-4.0936 1.7186,-1.43217 4.94097,-1.43217 1.46797,0 3.01948,0.22676 1.55152,0.21483 3.21044,0.65641 z" />
    </g>
    <g
       id="text916"
       style="font-style:normal;font-variant:normal;font-weight:normal;font-stretch:normal;font-size:11.14694595px;line-height:1.25;font-family:sans-serif;-inkscape-font-specification:sans-serif;letter-spacing:0px;word-spacing:0px;fill:#22aade;fill-opacity:1;stroke:none;stroke-width:0.27867362"
       transform="scale(0.91646664,1.0911472)"
       aria-label="CÓRDOBA">
      <path
         id="path841"
         style="stroke-width:0.27867362"
         d="m -354.79702,538.00098 v 1.15933 q -0.55517,-0.51707 -1.18654,-0.77289 -0.62593,-0.25581 -1.3335,-0.25581 -1.39337,0 -2.1336,0.85453 -0.74022,0.84908 -0.74022,2.46016 0,1.60564 0.74022,2.46017 0.74023,0.84908 2.1336,0.84908 0.70757,0 1.3335,-0.25581 0.63137,-0.25582 1.18654,-0.77289 v 1.14844 q -0.57694,0.39189 -1.22464,0.58783 -0.64226,0.19594 -1.36071,0.19594 -1.84513,0 -2.90648,-1.12667 -1.06136,-1.13211 -1.06136,-3.08609 0,-1.95942 1.06136,-3.08609 1.06135,-1.13211 2.90648,-1.13211 0.72934,0 1.37159,0.19594 0.6477,0.1905 1.21376,0.57694 z" />
      <path
         id="path843"
         style="stroke-width:0.27867362"
         d="m -349.78961,538.12072 q -1.19742,0 -1.90499,0.89263 -0.70213,0.89263 -0.70213,2.43295 0,1.53488 0.70213,2.42751 0.70757,0.89263 1.90499,0.89263 1.19743,0 1.89411,-0.89263 0.70213,-0.89263 0.70213,-2.42751 0,-1.54032 -0.70213,-2.43295 -0.69668,-0.89263 -1.89411,-0.89263 z m 0,-0.89262 q 1.70906,0 2.73231,1.14844 1.02326,1.14299 1.02326,3.06976 0,1.92133 -1.02326,3.06977 -1.02325,1.14299 -2.73231,1.14299 -1.71449,0 -2.74319,-1.14299 -1.02325,-1.143 -1.02325,-3.06977 0,-1.92677 1.02325,-3.06976 1.0287,-1.14844 2.74319,-1.14844 z m 0.29936,-2.06284 h 1.00693 l -1.24097,1.43691 h -0.83276 z" />
      <path
         id="path845"
         style="stroke-width:0.27867362"
         d="m -340.46057,541.69123 q 0.35379,0.11974 0.6858,0.51163 0.33746,0.39188 0.67491,1.07768 l 1.11578,2.22068 h -1.18109 l -1.03959,-2.08461 q -0.40277,-0.81643 -0.78377,-1.08312 -0.37555,-0.2667 -1.02869,-0.2667 h -1.19743 v 3.43443 h -1.09945 v -8.12617 h 2.48193 q 1.39337,0 2.07917,0.58239 0.6858,0.58238 0.6858,1.75804 0,0.76744 -0.35923,1.27362 -0.35378,0.50619 -1.03414,0.70213 z m -2.75408,-3.41266 v 2.8847 h 1.38248 q 0.79466,0 1.19743,-0.36467 0.40821,-0.37011 0.40821,-1.08312 0,-0.71302 -0.40821,-1.07224 -0.40277,-0.36467 -1.19743,-0.36467 z" />
      <path
         id="path847"
         style="stroke-width:0.27867362"
         d="m -335.46404,538.27857 v 6.31914 h 1.32806 q 1.68183,0 2.46016,-0.762 0.78377,-0.762 0.78377,-2.40574 0,-1.63285 -0.78377,-2.38941 -0.77833,-0.76199 -2.46016,-0.76199 z m -1.09945,-0.90352 h 2.25878 q 2.36219,0 3.46709,0.98516 1.1049,0.97971 1.1049,3.06976 0,2.10094 -1.11034,3.0861 -1.11034,0.98515 -3.46165,0.98515 h -2.25878 z" />
      <path
         id="path849"
         style="stroke-width:0.27867362"
         d="m -324.68721,538.12072 q -1.19742,0 -1.90499,0.89263 -0.70213,0.89263 -0.70213,2.43295 0,1.53488 0.70213,2.42751 0.70757,0.89263 1.90499,0.89263 1.19743,0 1.89411,-0.89263 0.70213,-0.89263 0.70213,-2.42751 0,-1.54032 -0.70213,-2.43295 -0.69668,-0.89263 -1.89411,-0.89263 z m 0,-0.89262 q 1.70906,0 2.73231,1.14844 1.02326,1.14299 1.02326,3.06976 0,1.92133 -1.02326,3.06977 -1.02325,1.14299 -2.73231,1.14299 -1.71449,0 -2.74319,-1.14299 -1.02326,-1.143 -1.02326,-3.06977 0,-1.92677 1.02326,-3.06976 1.0287,-1.14844 2.74319,-1.14844 z" />
      <path
         id="path851"
         style="stroke-width:0.27867362"
         d="m -318.11225,541.62047 v 2.97724 h 1.76348 q 0.88718,0 1.31173,-0.36467 0.42998,-0.37012 0.42998,-1.12667 0,-0.762 -0.42998,-1.12123 -0.42455,-0.36467 -1.31173,-0.36467 z m 0,-3.3419 v 2.44928 h 1.62741 q 0.80554,0 1.19743,-0.29936 0.39732,-0.3048 0.39732,-0.92528 0,-0.61505 -0.39732,-0.91984 -0.39189,-0.3048 -1.19743,-0.3048 z m -1.09946,-0.90352 h 2.80851 q 1.2573,0 1.93765,0.52252 0.68036,0.52251 0.68036,1.48589 0,0.74567 -0.34834,1.18654 -0.34834,0.44087 -1.02326,0.54973 0.81099,0.17417 1.2573,0.72934 0.45176,0.54973 0.45176,1.37704 0,1.08857 -0.74023,1.68184 -0.74023,0.59327 -2.10638,0.59327 h -2.91737 z" />
      <path
         id="path853"
         style="stroke-width:0.27867362"
         d="m -308.85397,538.45818 -1.49134,4.04403 h 2.98812 z m -0.62049,-1.08313 h 1.24642 l 3.09697,8.12617 h -1.14299 l -0.74023,-2.08461 h -3.66304 l -0.74022,2.08461 h -1.15933 z" />
    </g>
  </g>
</svg>
