<?xml version="1.0" encoding="UTF-8" standalone="no"?>
<!-- Generator: Adobe Illustrator 23.0.1, SVG Export Plug-In . SVG Version: 6.00 Build 0)  -->

<svg
   xmlns:dc="http://purl.org/dc/elements/1.1/"
   xmlns:cc="http://creativecommons.org/ns#"
   xmlns:rdf="http://www.w3.org/1999/02/22-rdf-syntax-ns#"
   xmlns:svg="http://www.w3.org/2000/svg"
   xmlns="http://www.w3.org/2000/svg"
   xmlns:sodipodi="http://sodipodi.sourceforge.net/DTD/sodipodi-0.dtd"
   xmlns:inkscape="http://www.inkscape.org/namespaces/inkscape"
   version="1.1"
   id="Capa_1"
   x="0px"
   y="0px"
   viewBox="0 0 152.22045 30"
   xml:space="preserve"
   sodipodi:docname="rosario3.svg"
   width="152.22046"
   height="30"
   inkscape:version="0.92.4 (5da689c313, 2019-01-14)"><metadata
   id="metadata37"><rdf:RDF><cc:Work
       rdf:about=""><dc:format>image/svg+xml</dc:format><dc:type
         rdf:resource="http://purl.org/dc/dcmitype/StillImage" /><dc:title></dc:title></cc:Work></rdf:RDF></metadata><defs
   id="defs35" /><sodipodi:namedview
   pagecolor="#ffffff"
   bordercolor="#666666"
   borderopacity="1"
   objecttolerance="10"
   gridtolerance="10"
   guidetolerance="10"
   inkscape:pageopacity="0"
   inkscape:pageshadow="2"
   inkscape:window-width="1024"
   inkscape:window-height="705"
   id="namedview33"
   showgrid="false"
   fit-margin-top="0"
   fit-margin-left="-0.4"
   fit-margin-right="0"
   fit-margin-bottom="0"
   inkscape:zoom="1.2416215"
   inkscape:cx="-144.84702"
   inkscape:cy="29.665"
   inkscape:window-x="-8"
   inkscape:window-y="-8"
   inkscape:window-maximized="1"
   inkscape:current-layer="Capa_1" />
<g
   id="g18"
   transform="matrix(0.49999167,0,0,0.49999167,-0.33900102,0.1679972)">
	<path
   style="fill:#eb5c14"
   d="m -0.122,16.566 h 15.804 v 6.761 h 0.169 c 2.704,-3.803 7.859,-7.606 14.619,-7.606 v 10.395 c -5.662,0 -11.408,1.521 -14.788,3.211 v 20.451 h 5.323 V 58.82 H -0.122 V 49.778 H 4.695 V 25.693 h -4.817 z"
   id="path2"
   inkscape:connector-curvature="0" />
	<path
   style="fill:#eb5c14"
   d="m 32.584,37.693 c 0,-13.268 5.662,-21.972 20.535,-21.972 14.873,0 20.451,8.704 20.451,21.972 0,13.352 -5.577,21.972 -20.451,21.972 -14.874,0 -20.535,-8.621 -20.535,-21.972 z m 11.662,0 c 0,7.859 1.944,12.929 8.873,12.929 6.929,0 8.873,-5.071 8.873,-12.929 0,-7.775 -1.944,-12.845 -8.873,-12.845 -6.929,0 -8.873,5.07 -8.873,12.845 z"
   id="path4"
   inkscape:connector-curvature="0" />
	<path
   style="fill:#eb5c14"
   d="m 103.402,29.496 v -4.31 c -3.296,-0.592 -6.254,-0.676 -8.029,-0.676 -5.071,0 -6.338,2.113 -6.338,3.549 0,2.029 1.352,3.127 6.846,4.31 8.028,1.775 17.83,3.887 17.83,13.69 0,9.296 -6.422,13.606 -16.648,13.606 -6.844,0 -14.197,-0.76 -19.267,-2.028 V 45.974 h 9.127 v 4.225 c 3.55,0.676 6.929,0.676 8.873,0.676 5.408,0 6.929,-2.535 6.929,-4.056 0,-2.113 -2.198,-3.126 -7.267,-4.141 -9.55,-1.605 -17.409,-4.732 -17.409,-14.282 0,-9.042 6.423,-12.676 16.648,-12.676 6.929,0 12.676,0.76 17.746,2.028 v 11.747 h -9.041 z"
   id="path6"
   inkscape:connector-curvature="0" />
	<path
   style="fill:#eb5c14"
   d="M 121.065,29.496 V 17.664 c 6,-1.183 12.338,-1.944 17.409,-1.944 10.733,0 16.648,2.789 16.648,14.197 v 19.859 h 4.902 v 9.042 h -15.888 v -4.225 h -0.169 c -3.719,3.718 -8.367,5.324 -13.69,4.986 -7.183,-0.423 -11.747,-5.324 -11.747,-12.929 0,-9.718 8.029,-13.183 17.577,-13.183 h 8.029 v -2.958 c 0,-4.31 -2.704,-5.662 -8.198,-5.662 -1.521,0 -3.38,0.084 -5.831,0.422 v 4.226 h -9.042 z m 23.071,10.563 h -6.254 c -5.323,0 -8.535,1.183 -8.535,5.662 0,3.718 2.958,5.493 6.592,5.493 3.465,0 6.677,-1.437 8.198,-2.62 v -8.535 z"
   id="path8"
   inkscape:connector-curvature="0" />
	<path
   style="fill:#eb5c14"
   d="m 162.558,16.566 h 15.804 v 6.761 h 0.169 c 2.704,-3.803 7.859,-7.606 14.619,-7.606 v 10.395 c -5.662,0 -11.408,1.521 -14.788,3.211 v 20.451 h 5.323 v 9.042 h -21.127 v -9.042 h 4.817 V 25.693 h -4.817 z"
   id="path10"
   inkscape:connector-curvature="0" />
	<path
   style="fill:#eb5c14"
   d="m 196.361,16.566 h 15.804 v 33.211 h 4.901 v 9.042 h -20.704 v -9.042 h 4.817 V 25.693 h -4.817 V 16.566 Z M 212.165,-0.336 V 11.326 H 201.178 V -0.336 Z"
   id="path12"
   inkscape:connector-curvature="0" />
	<path
   style="fill:#eb5c14"
   d="m 219.349,37.693 c 0,-13.268 5.662,-21.972 20.535,-21.972 14.873,0 20.451,8.704 20.451,21.972 0,13.352 -5.577,21.972 -20.451,21.972 -14.872,-10e-4 -20.535,-8.621 -20.535,-21.972 z m 11.663,0 c 0,7.859 1.944,12.929 8.873,12.929 6.929,0 8.873,-5.071 8.873,-12.929 0,-7.775 -1.944,-12.845 -8.873,-12.845 -6.93,0 -8.873,5.07 -8.873,12.845 z"
   id="path14"
   inkscape:connector-curvature="0" />
	<path
   style="fill:#aeadad"
   d="m 264.814,44.031 h 9.042 v 5.155 c 3.043,1.014 6.254,1.437 9.635,1.437 8.282,0 10.394,-4.817 10.394,-8.028 0,-5.324 -3.887,-7.944 -11.325,-7.944 h -7.605 v -9.126 h 7.098 c 8.366,0 10.479,-4.564 10.479,-8.62 0,-3.38 -2.366,-7.268 -9.042,-7.268 -3.381,0 -6,0.507 -8.873,1.437 v 5.071 h -9.043 V 4.65 c 6.761,-3.127 13.437,-4.141 19.86,-4.141 9.971,0 17.999,5.155 17.999,15.211 0,6.338 -3.802,10.817 -9.971,13.099 v 0.169 c 7.944,1.944 11.662,7.774 11.662,14.197 0,10.648 -7.691,16.479 -20.958,16.479 -7.183,0 -12.676,-0.929 -19.352,-4.141 z"
   id="path16"
   inkscape:connector-curvature="0" />
</g>
<g
   id="g20"
   transform="translate(-0.278,-29.665)">
</g>
<g
   id="g22"
   transform="translate(-0.278,-29.665)">
</g>
<g
   id="g24"
   transform="translate(-0.278,-29.665)">
</g>
<g
   id="g26"
   transform="translate(-0.278,-29.665)">
</g>
<g
   id="g28"
   transform="translate(-0.278,-29.665)">
</g>
<g
   id="g30"
   transform="translate(-0.278,-29.665)">
</g>
</svg>