<?xml version="1.0" encoding="UTF-8" standalone="no"?>
<!-- Generator: Adobe Illustrator 16.0.0, SVG Export Plug-In . SVG Version: 6.00 Build 0)  -->

<svg
   xmlns:dc="http://purl.org/dc/elements/1.1/"
   xmlns:cc="http://creativecommons.org/ns#"
   xmlns:rdf="http://www.w3.org/1999/02/22-rdf-syntax-ns#"
   xmlns:svg="http://www.w3.org/2000/svg"
   xmlns="http://www.w3.org/2000/svg"
   xmlns:sodipodi="http://sodipodi.sourceforge.net/DTD/sodipodi-0.dtd"
   xmlns:inkscape="http://www.inkscape.org/namespaces/inkscape"
   version="1.1"
   id="Capa_1"
   x="0px"
   y="0px"
   width="169.08154"
   height="25"
   viewBox="0 0 169.08154 24.999999"
   enable-background="new 0 0 386 100"
   xml:space="preserve"
   sodipodi:docname="rural.svg"
   inkscape:version="0.92.4 (5da689c313, 2019-01-14)"><metadata
   id="metadata71"><rdf:RDF><cc:Work
       rdf:about=""><dc:format>image/svg+xml</dc:format><dc:type
         rdf:resource="http://purl.org/dc/dcmitype/StillImage" /><dc:title></dc:title></cc:Work></rdf:RDF></metadata><defs
   id="defs69">
	
	
</defs><sodipodi:namedview
   pagecolor="#ffffff"
   bordercolor="#666666"
   borderopacity="1"
   objecttolerance="10"
   gridtolerance="10"
   guidetolerance="10"
   inkscape:pageopacity="0"
   inkscape:pageshadow="2"
   inkscape:window-width="1024"
   inkscape:window-height="705"
   id="namedview67"
   showgrid="false"
   fit-margin-top="0"
   fit-margin-left="0"
   fit-margin-right="0"
   fit-margin-bottom="0"
   inkscape:zoom="1.4508512"
   inkscape:cx="-127.9376"
   inkscape:cy="44.877302"
   inkscape:window-x="-8"
   inkscape:window-y="-8"
   inkscape:window-maximized="1"
   inkscape:current-layer="g60" />
<g
   id="g62"
   transform="matrix(0.48198241,0,0,0.48198241,26.447638,-73.49704)">
		<g
   id="g60">
			
			
			
			
			
			
			
			
			
			
			
			
			
			
			
			
			
			
			
			
			
			
		<path
   style="fill:#fed10b;fill-opacity:1;stroke-width:1.44459212"
   d="m 114.86695,203.11619 c -1.58905,-0.65728 -4.41684,-2.83989 -6.28397,-4.85024 -4.14373,-4.46156 -4.35091,-10.18539 -0.88114,-24.34404 2.32415,-9.48398 2.33505,-10.35708 0.14445,-11.58301 -1.30305,-0.72922 -2.36918,-2.9571 -2.36918,-4.95082 0,-2.04877 0.62812,-3.23675 1.44458,-2.73214 0.79453,0.49104 1.4446,0.17589 1.4446,-0.70033 0,-1.05365 3.54658,-1.44941 10.4733,-1.1687 10.23075,0.41462 10.48388,0.51641 10.93032,4.39636 0.35703,3.1029 -0.31467,4.26533 -3.07005,5.31292 -2.91788,1.10939 -3.93245,3.13612 -5.87424,11.73464 -3.04032,13.4629 -2.95957,16.83282 0.44703,18.65598 8.08846,4.3288 13.77883,-1.28532 16.98289,-16.7554 2.28285,-11.0222 2.2826,-11.90118 -0.004,-14.18797 -2.91824,-2.91825 -2.94929,-3.6019 -0.32103,-7.07109 1.86289,-2.45895 4.02612,-2.62923 27.04015,-2.12843 31.55912,0.68674 35.84972,2.4166 35.84972,14.45366 0,4.35589 -6.77679,12.8587 -11.48346,14.40825 -1.74703,0.57516 -1.62747,1.48508 0.7223,5.49687 6.28376,10.72833 9.76744,9.78989 19.02361,-5.12462 3.40899,-5.49286 7.16358,-11.12465 8.34355,-12.51508 1.17998,-1.39042 1.81177,-2.52802 1.40396,-2.52802 -1.01076,0 3.53534,-7.20234 7.06661,-11.1956 1.62167,-1.83382 4.54687,-3.25033 6.71216,-3.25033 5.13612,0 6.54254,3.24012 9.40571,21.66888 3.26306,21.00272 3.03908,20.46723 8.34197,19.94546 4.46674,-0.43949 4.53773,-0.57606 7.92802,-15.24747 3.11188,-13.46664 3.21558,-15.00937 1.14778,-17.07714 -2.72655,-2.72657 -2.75565,-3.47695 -0.26217,-6.7617 1.50277,-1.97965 4.08967,-2.52803 11.92582,-2.52803 h 10.00674 l 0.33222,4.36003 c 0.26555,3.48493 -0.39765,4.63757 -3.3042,5.74262 -2.00003,0.76043 -3.63642,1.73058 -3.63642,2.15593 0,0.42533 -1.32507,6.72213 -2.9446,13.99287 -1.61954,7.27074 -2.43155,13.73259 -1.80449,14.35966 2.2713,2.27131 12.66974,-1.42629 16.71887,-5.94509 2.8908,-3.22612 4.8238,-4.23765 6.86182,-3.59082 3.67172,1.16537 3.59507,1.98591 -1.07514,11.50827 l -3.91227,7.97726 h -32.20238 c -26.83592,0 -32.2024,-0.34142 -32.2024,-2.04874 0,-3.98362 1.78698,-6.61882 4.48834,-6.61882 1.77156,0 2.73463,-1.01749 2.73463,-2.88918 0,-2.4879 -0.96307,-2.88919 -6.93405,-2.88919 -6.39456,0 -10.40106,1.78068 -10.40106,4.6227 0,0.63562 1.01828,1.15567 2.26284,1.15567 1.61631,0 2.13225,1.13507 1.80574,3.97263 -0.43918,3.8169 -0.85351,4.00586 -10.56924,4.82024 -5.56168,0.4662 -13.0927,0.55087 -16.73562,0.18816 -6.4205,-0.63925 -6.77136,-0.93082 -11.44999,-9.51516 -6.87792,-12.61958 -8.83912,-13.3765 -10.78096,-4.16079 -0.79983,3.79585 -0.53397,4.69492 1.38835,4.69492 1.74151,0 2.25533,1.06283 1.92051,3.97263 -0.45291,3.93639 -0.56576,3.97646 -12.37497,4.39219 l -11.91789,0.41958 v -3.70566 c 0,-2.58041 1.05084,-4.10518 3.46062,-5.02138 2.93389,-1.11546 3.92333,-3.32541 6.50066,-14.51929 4.02772,-17.49317 4.01797,-17.59786 -1.58535,-17.04947 -4.57161,0.44741 -4.6608,0.60522 -7.66953,13.57074 -3.63014,15.6433 -6.92305,21.7457 -13.6852,25.36139 -5.20081,2.78086 -14.46919,3.40427 -19.52452,1.31324 z m 114.13076,-24.63741 c 0.49545,-0.80163 0.44911,-2.88067 -0.10299,-4.6201 l -1.00376,-3.16259 -2.69321,3.32599 c -1.48127,1.82929 -2.33331,3.90833 -1.89342,4.6201 1.07719,1.74295 4.57727,1.64249 5.69336,-0.1634 z m -43.89947,-6.59192 c 0.70181,-0.43374 1.27602,-2.06648 1.27602,-3.62831 0,-2.73787 -4.87284,-5.65736 -9.44259,-5.65736 -2.02685,0 -5.1511,8.35694 -3.94118,10.5421 0.64137,1.15834 9.72591,0.21564 12.10775,-1.25643 z m -239.007796,30.19985 c -0.529686,-0.52967 -0.963064,-2.26318 -0.963064,-3.85224 0,-1.58905 0.394234,-2.49495 0.876073,-2.01311 2.197797,2.19779 6.3676,-5.03123 9.115658,-15.80345 3.287973,-12.88863 3.805759,-19.26131 1.565009,-19.26131 -0.794525,0 -1.444596,-1.62516 -1.444596,-3.61147 v -3.61149 h 20.02803 20.0280315 l 2.570148,6.72984 c 2.4643917,6.45292 2.46426004,6.80725 -0.00348,8.61157 -2.6191862,1.91523 -7.9526685,0.42929 -7.9526685,-2.21564 0,-2.10376 -8.111446,-4.68724 -13.19118,-4.20137 -4.318694,0.41309 -4.917157,0.99371 -5.318896,5.16038 -0.546376,5.66672 1.517418,6.03302 6.104523,1.08344 6.565668,-7.08447 8.893876,-4.15413 6.377842,8.02732 -2.298066,11.12613 -7.431678,14.51048 -10.283983,6.77975 -1.263685,-3.42501 -4.971527,-3.20118 -5.982139,0.36115 -0.450806,1.58905 -1.188481,4.18931 -1.639287,5.77836 -0.721849,2.54447 -0.129798,2.8892 4.962031,2.8892 8.006358,0 13.269538,-2.22653 17.63926,-7.46208 3.2570099,-3.90238 4.1176807,-4.25162 6.8603012,-2.78382 2.9787251,1.59417 3.0293647,1.93372 1.0093798,6.76822 -1.1696677,2.79943 -3.4884907,7.00235 -5.1529264,9.33984 l -3.0262506,4.24998 h -20.607458 c -11.334094,0 -21.040829,-0.43339 -21.570508,-0.96307 z m 50.6006924,0.04 c -2.1506535,-2.15067 -0.8399498,-6.43338 2.33878509,-7.64195 2.83809291,-1.07904 3.83641551,-3.48577 6.62311061,-15.96686 3.1110576,-13.93382 3.1521717,-14.83897 0.7925891,-17.44628 -2.0333184,-2.24679 -2.15552,-3.15145 -0.66786,-4.94397 1.3489359,-1.6254 4.7954198,-2.19402 13.2980438,-2.19402 11.235259,0 11.456143,0.0684 10.478102,3.25034 -0.549502,1.78768 -1.080858,3.25033 -1.180794,3.25033 -0.09992,0 -1.481819,0.72091 -3.070869,1.60202 -2.116014,1.17331 -3.745692,5.23246 -6.089776,15.16822 -1.760326,7.4614 -3.222976,14.05374 -3.250332,14.64963 -0.07577,1.65047 8.394785,1.29158 11.963109,-0.50686 1.735455,-0.87467 4.784344,-3.50013 6.775329,-5.83434 3.324944,-3.89818 3.854721,-4.06959 6.500664,-2.10339 2.846915,2.11556 2.829864,2.23907 -1.453076,10.52929 l -4.333774,8.3886 -18.860104,0.40112 c -10.3730636,0.22062 -19.3114736,-0.0503 -19.8631476,-0.6019 z M 45.71638,201.91238 c -1.549209,-2.50666 0.902321,-7.37853 3.930042,-7.81012 2.533396,-0.36112 3.57557,-2.29875 5.67683,-10.55446 4.102711,-16.11942 4.476816,-20.42645 1.861368,-21.43009 -2.839847,-1.08976 -2.949641,-5.82019 -0.188256,-8.11193 3.070277,-2.5481 29.636612,-1.09778 37.152888,2.02825 3.456633,1.43763 5.981198,8.53597 4.856717,13.65568 -0.903792,4.11497 -8.015784,11.6912 -10.974809,11.6912 -2.171417,0 -1.542717,2.60711 1.916583,7.94764 1.787684,2.75985 4.387942,5.02597 5.778367,5.03581 2.594125,0.0183 3.1996,2.36529 1.651183,6.40039 -0.633683,1.65138 -2.830275,2.28504 -7.920916,2.28504 -6.954351,0 -7.088451,-0.0875 -10.528201,-6.87559 -1.916267,-3.78158 -4.802025,-8.49457 -6.412793,-10.4733 l -2.928649,-3.59769 -1.556807,4.06667 c -2.16471,5.65462 -1.944829,8.21236 0.706031,8.21236 1.616309,0 2.132244,1.13506 1.805735,3.97263 -0.45249,3.93252 -0.576203,3.97685 -12.254817,4.39026 -6.488748,0.22969 -12.145468,-0.14504 -12.570496,-0.83275 z m 37.730696,-30.98735 c 0.993159,-0.80005 1.805734,-2.36625 1.805734,-3.48042 0,-2.23408 -6.465759,-5.20122 -9.894451,-4.54057 -2.300561,0.44329 -4.985914,7.93764 -3.63019,10.13124 0.924769,1.49631 9.060507,0.0313 11.718907,-2.11025 z"
   id="path955"
   inkscape:connector-curvature="0"
   sodipodi:nodetypes="cccsscssccsccccssssccsssscsccscccsssscccssssssscscccscscscscscccccccccccsscccscssscccscssscscssscccccsccccsccscssscsccscscccccscscscccssccsscsccsccc" /></g>
	</g>
</svg>