<?xml version="1.0" encoding="UTF-8" standalone="no"?>
<svg
   xmlns:dc="http://purl.org/dc/elements/1.1/"
   xmlns:cc="http://creativecommons.org/ns#"
   xmlns:rdf="http://www.w3.org/1999/02/22-rdf-syntax-ns#"
   xmlns:svg="http://www.w3.org/2000/svg"
   xmlns="http://www.w3.org/2000/svg"
   id="svg8"
   version="1.1"
   viewBox="0 0 170.73306 29.999998"
   height="29.999996"
   width="170.73306">
  <defs
     id="defs2" />
  <metadata
     id="metadata5">
    <rdf:RDF>
      <cc:Work
         rdf:about="">
        <dc:format>image/svg+xml</dc:format>
        <dc:type
           rdf:resource="http://purl.org/dc/dcmitype/StillImage" />
        <dc:title></dc:title>
      </cc:Work>
    </rdf:RDF>
  </metadata>
  <g
     transform="translate(357.73777,-568.41845)"
     id="layer1">
    <path
       id="path866"
       d="m -348.44346,597.8994 c -5.58302,-1.58622 -9.29431,-4.95175 -9.29431,-8.42841 0,-2.15326 2.50448,-5.14245 5.41725,-6.4657 2.70039,-1.22676 3.22029,-1.19837 3.64067,0.19881 0.19225,0.63898 1.75589,3.81717 3.47476,7.06264 2.84591,5.37348 3.16758,5.7888 3.5993,4.64715 0.80253,-2.12221 0.10188,-4.76209 -2.46413,-9.28433 -2.63863,-4.6502 -3.37215,-7.79535 -2.28976,-9.81781 0.62238,-1.16292 0.66929,-1.17222 1.03261,-0.20469 0.20934,0.55746 1.90737,3.78519 3.7734,7.17273 3.3289,6.0432 3.40332,6.13143 3.95267,4.68654 0.78935,-2.07614 0.22996,-3.99937 -2.64951,-9.10921 -1.98068,-3.51488 -2.5131,-4.95541 -2.5131,-6.79941 0,-4.55737 0.48051,-4.32981 3.9066,1.85002 1.79231,3.23289 3.40647,6.46661 3.58704,7.18604 0.23841,0.9499 0.86553,1.46901 2.29036,1.8959 1.07914,0.32332 2.93762,1.45862 4.12995,2.5229 1.67953,1.49915 2.22761,2.40034 2.43302,4.00047 0.39111,3.04697 -1.2802,5.24452 -5.66139,7.44399 -3.19469,1.60382 -3.99246,1.77952 -8.77796,1.93334 -3.23424,0.10395 -6.15982,-0.0854 -7.58747,-0.49097 z m 29.94831,-0.30926 c -0.99527,-0.27454 -1.32905,-0.75069 -1.45756,-2.07934 -0.1567,-1.62016 -0.0872,-1.70331 1.16214,-1.38975 4.94474,1.24105 8.14126,0.6129 8.46757,-1.66399 0.23467,-1.63745 -0.54968,-2.40638 -4.65559,-4.56397 -3.85237,-2.02436 -5.06561,-3.5775 -5.06561,-6.48477 0,-4.30237 4.51947,-6.49136 10.8063,-5.23399 1.46983,0.29396 1.62475,0.49602 1.4845,1.93631 -0.0995,1.02189 -0.4102,1.55492 -0.85234,1.46223 -2.74636,-0.57576 -5.19812,-0.63575 -6.43679,-0.15751 -1.23891,0.47834 -1.42888,0.8079 -1.29087,2.23936 0.14459,1.49971 0.54575,1.8802 3.76677,3.57274 4.6173,2.42623 5.94753,3.94658 5.94753,6.79758 0,2.61874 -0.91077,4.05453 -3.28735,5.18229 -1.80085,0.85455 -6.17221,1.0494 -8.5887,0.38281 z m 17.5997,-0.41988 c -2.35494,-1.2397 -3.65824,-3.83924 -3.65824,-7.29661 0,-5.71131 2.61163,-8.34733 8.2616,-8.33871 6.06001,0.009 5.67985,-0.54713 5.67985,8.31285 v 7.68503 h -1.54905 c -1.09718,0 -1.54905,-0.24929 -1.54905,-0.85456 0,-0.78733 -0.0762,-0.78559 -0.96866,0.022 -1.48103,1.34031 -4.17607,1.54404 -6.21645,0.46993 z m 5.852,-2.53261 c 0.66355,-0.25464 0.81676,-1.21188 0.81676,-5.10329 0,-4.27199 -0.10609,-4.8176 -0.98131,-5.04647 -3.30111,-0.86326 -5.73124,1.4816 -5.73124,5.53012 0,4.01429 2.45679,5.9393 5.89579,4.61964 z m 26.81861,2.89951 c -2.49527,-1.00696 -2.76609,-2.17548 -2.76609,-11.93509 v -9.11922 l 1.41702,-0.27088 c 0.77936,-0.14899 1.59262,-0.16237 1.80723,-0.0298 0.21461,0.13264 0.3902,1.50542 0.3902,3.05061 v 2.80946 h 2.32358 c 2.13424,0 2.32357,0.10518 2.32357,1.29088 0,1.18569 -0.18933,1.29087 -2.32357,1.29087 h -2.32358 v 4.58393 c 0,5.14414 0.47943,6.01727 3.09338,5.63363 1.40135,-0.20568 1.55377,-0.0908 1.55377,1.17135 0,1.01474 -0.31934,1.48498 -1.16178,1.71074 -1.55386,0.41643 -2.99308,0.35447 -4.33373,-0.18655 z m 10.2544,-0.24049 c -3.37796,-1.51674 -4.74944,-7.65105 -2.67066,-11.94523 1.35896,-2.80724 3.45836,-3.82548 7.88732,-3.82548 5.29666,0 4.99861,-0.4959 4.99861,8.31685 v 7.69001 h -1.54905 c -1.09718,0 -1.54905,-0.24929 -1.54905,-0.85456 0,-0.78733 -0.0762,-0.78559 -0.96866,0.022 -1.3554,1.22662 -4.14273,1.49696 -6.14851,0.59634 z m 5.78407,-2.65902 c 0.66363,-0.25467 0.81675,-1.21233 0.81675,-5.10826 0,-5.27596 -0.23494,-5.65868 -3.11952,-5.08177 -2.27772,0.45554 -3.59303,2.41036 -3.59303,5.33994 0,4.03894 2.54779,6.13484 5.8958,4.85009 z m 27.1944,2.53261 c -2.35493,-1.2397 -3.65824,-3.83924 -3.65824,-7.29661 0,-5.37609 2.73289,-8.34769 7.67711,-8.34769 h 2.64989 v -2.33636 c 0,-2.03281 0.17208,-2.40178 1.3245,-2.83992 0.72847,-0.27697 1.54171,-0.50358 1.80722,-0.50358 0.28409,0 0.48274,4.46206 0.48274,10.84336 v 10.84336 h -1.54905 c -1.09718,0 -1.54905,-0.24929 -1.54905,-0.85456 0,-0.78733 -0.0762,-0.78559 -0.96867,0.022 -1.48103,1.34031 -4.17606,1.54404 -6.21645,0.46993 z m 5.85201,-2.53261 c 0.66362,-0.25467 0.81675,-1.21226 0.81675,-5.10753 0,-4.64658 -0.0386,-4.8038 -1.25504,-5.1091 -3.1203,-0.78315 -5.45751,1.63318 -5.45751,5.64225 0,3.96721 2.47463,5.8872 5.8958,4.57438 z m 11.99189,2.8806 c -5.5504,-1.6633 -6.90567,-11.11788 -2.13194,-14.87289 1.70264,-1.3393 5.7147,-1.52477 7.95238,-0.36762 1.81401,0.93806 3.14208,3.65418 3.14208,6.42607 v 2.11645 h -5.1635 c -5.73166,0 -6.32409,0.4354 -3.89609,2.86339 1.38334,1.38336 3.43144,1.62476 6.44705,0.7599 2.11645,-0.60699 2.24448,-0.52126 1.80955,1.21164 -0.50945,2.02981 -4.53551,2.94909 -8.15953,1.86306 z M -201.8,587.3045 c 0,-1.75472 -1.31632,-2.88698 -3.35627,-2.88698 -2.03996,0 -3.35628,1.13226 -3.35628,2.88698 0,0.80532 0.46244,0.93401 3.35628,0.93401 2.89383,0 3.35627,-0.12869 3.35627,-0.93401 z m -85.71414,2.72845 v -7.49985 l 1.32449,-0.50357 c 1.98461,-0.75454 7.81292,-0.61123 9.44399,0.23222 2.17518,1.12484 2.65663,2.82064 2.65663,9.35733 v 5.91374 h -1.80723 -1.80722 v -5.87481 c 0,-6.26039 -0.21773,-6.85567 -2.58788,-7.07544 -3.76959,-0.34952 -3.60832,-0.63983 -3.60832,6.49587 v 6.45438 h -1.80723 -1.80723 z m 43.37342,-0.22199 v -7.72186 l 1.81793,-0.34104 c 0.99985,-0.18757 3.35473,-0.24319 5.23306,-0.12359 2.94437,0.18749 3.58351,0.4132 4.63646,1.63733 1.14268,1.32844 1.22131,1.83351 1.22131,7.84543 v 6.42559 h -1.54905 -1.54905 l -0.008,-5.03442 c -0.005,-2.95872 -0.2706,-5.5518 -0.64545,-6.28929 -0.71105,-1.39896 -2.66488,-2.11358 -4.70986,-1.72266 l -1.34966,0.258 v 6.39418 6.39419 h -1.54905 -1.54905 z m 48.53693,0.0368 c 0,-8.8329 -0.3489,-8.30172 5.46133,-8.31477 l 3.13776,-0.007 -0.2337,1.59228 c -0.1935,1.3184 -0.41968,1.54365 -1.31496,1.30953 -0.5947,-0.15552 -1.61108,-0.14978 -2.25863,0.0127 -1.14633,0.28772 -1.17735,0.46409 -1.17735,6.6939 v 6.3984 h -1.80723 -1.80722 v -7.68502 z"
       style="fill:#e20717;fill-opacity:1;stroke-width:0.51635027" />
  </g>
</svg>
