<?xml version="1.0" encoding="UTF-8" standalone="no"?>
<svg
   xmlns:dc="http://purl.org/dc/elements/1.1/"
   xmlns:cc="http://creativecommons.org/ns#"
   xmlns:rdf="http://www.w3.org/1999/02/22-rdf-syntax-ns#"
   xmlns:svg="http://www.w3.org/2000/svg"
   xmlns="http://www.w3.org/2000/svg"
   id="svg8"
   version="1.1"
   viewBox="0 0 134.50239 40.000002"
   height="40"
   width="134.5024">
  <defs
     id="defs2" />
  <metadata
     id="metadata5">
    <rdf:RDF>
      <cc:Work
         rdf:about="">
        <dc:format>image/svg+xml</dc:format>
        <dc:type
           rdf:resource="http://purl.org/dc/dcmitype/StillImage" />
        <dc:title></dc:title>
      </cc:Work>
    </rdf:RDF>
  </metadata>
  <g
     transform="translate(55.351723,-255.976)"
     id="layer1">
    <g
       transform="matrix(0.17486696,0,0,0.17486696,-45.672535,244.21958)"
       id="g859">
      <path
         id="path843"
         d="m 44.116702,227.97468 -0.64943,-0.64943 v -14.60947 -14.60947 l 1.14845,-1.10041 c 2.53337,-2.42739 8.33776,-5.7264 13.40363,-7.61816 8.149342,-3.04321 16.642179,-4.23886 30.030213,-4.22775 12.781645,0.0106 21.104255,1.00554 42.465625,5.0766 15.46579,2.94748 21.34224,3.78906 29.96128,4.29079 8.68988,0.50587 17.65669,-0.23736 24.20155,-2.00597 6.32579,-1.70941 12.42343,-4.8166 16.86634,-8.59462 1.87746,-1.59648 2.93855,-1.7747 3.82871,-0.64304 0.5392,0.68546 0.54838,0.93323 0.54838,14.7929 v 14.09577 l -1.02066,1.29122 c -2.87978,3.6432 -8.57366,7.55847 -14.53105,9.99195 -7.07729,2.89095 -13.50533,3.94007 -24.26809,3.9608 -10.32535,0.0199 -16.14562,-0.64934 -32.41146,-3.72676 -18.35344,-3.4724 -25.2757,-4.541 -33.99908,-5.2485 -5.643557,-0.45772 -17.201587,-0.52784 -22.252602,-0.135 -11.859544,0.92235 -20.827336,3.5922 -28.731186,8.5537 -1.54581,0.97035 -3.06496,1.76428 -3.37588,1.76428 -0.31092,0 -0.85755,-0.29225 -1.21474,-0.64943 z m 0,-49.21251 -0.64943,-0.64943 v -14.60946 -14.60946 l 1.22453,-1.17331 c 3.63546,-3.48339 11.59305,-7.39499 18.994359,-9.33681 6.837757,-1.79396 13.4515,-2.46368 24.231112,-2.45371 12.697927,0.0118 21.094437,0.98384 40.745837,4.71729 15.10006,2.86878 18.97005,3.49416 26.34529,4.25736 5.10256,0.52801 15.61578,0.59967 19.9568,0.13601 10.73245,-1.14632 19.6487,-4.58675 26.29228,-10.14519 1.36998,-1.14621 2.02242,-1.52035 2.64586,-1.5173 2.05869,0.0101 2.01811,-0.30286 2.01811,15.56472 v 14.01605 l -1.19399,1.46575 c -4.52374,5.55337 -13.96495,10.61091 -23.27431,12.46778 -5.47018,1.0911 -8.08953,1.30734 -15.74837,1.3001 -9.93377,-0.009 -16.00565,-0.70567 -31.22084,-3.58018 -18.47167,-3.48975 -23.47665,-4.30631 -31.48542,-5.13682 -8.650366,-0.89705 -22.262375,-0.902 -29.812462,-0.0108 -9.815838,1.1586 -18.620776,4.1918 -25.431806,8.76096 -2.0154,1.35203 -2.71834,1.4557 -3.63755,0.53649 z"
         style="fill:#1191d0;fill-opacity:1;stroke-width:0.26458335" />
      <path
         style="fill:#fcb426;fill-opacity:1;stroke-width:0.26458335"
         d="m 50.875602,295.82121 c -14.86251,-1.14845 -28.37282,-4.74348 -41.6718697,-11.08869 -7.1962,-3.43342 -15.5597603,-8.71413 -22.0927103,-13.94925 -4.18333,-3.35226 -11.1819,-10.10987 -14.75361,-14.24562 -13.64935,-15.80488 -22.75563,-35.08304 -26.24564,-55.5625 -1.25837,-7.38414 -1.46662,-10.15139 -1.46346,-19.44688 0.004,-11.17866 0.7406,-17.55013 3.16673,-27.38437 7.87468,-31.91979 29.24782,-59.005918 58.4892704,-74.123335 C 43.918692,60.574463 89.219206,63.473608 124.01923,87.554092 c 15.16817,10.49589 27.92557,24.950608 36.23639,41.057518 1.819,3.52534 2.11786,4.29206 2.12896,5.46177 0.0155,1.63332 -0.44705,2.25396 -2.17024,2.91205 -1.08397,0.41397 -1.5318,0.42498 -4.92854,0.12115 -5.22276,-0.46717 -11.18351,-1.37558 -20.27269,-3.08953 -14.93441,-2.81619 -17.88971,-3.34077 -22.97507,-4.07824 -4.83975,-0.70184 -5.16799,-0.78617 -6.08541,-1.56349 -10.485924,-8.88453 -21.858801,-14.28598 -34.968691,-16.60808 -4.702064,-0.83286 -14.271637,-1.14997 -19.123717,-0.63371 -23.85049,2.5377 -44.7140297,16.77655 -55.6551997,37.98329 -5.4225503,10.51025 -7.8448403,20.45142 -7.8652203,32.27916 -0.0129,7.51237 0.70663,12.88236 2.64116,19.71023 6.8183203,24.06505 26.37907,43.07979 50.63423,49.22087 5.57807,1.41229 9.17416,1.88433 15.51211,2.03621 6.71418,0.16089 10.290104,-0.11981 15.994428,-1.25551 6.529229,-1.29993 11.680085,-3.08926 17.838251,-6.19673 7.255,-3.66095 12.624419,-7.56779 18.577079,-13.51686 l 3.49582,-3.49372 2.32501,0.36662 c 1.27876,0.20163 5.83735,1.02748 10.13022,1.8352 16.61585,3.12636 23.69652,4.29542 28.83958,4.76158 4.3416,0.39351 4.95405,1.78007 2.56734,5.81237 -7.05363,11.91699 -17.528,23.57406 -28.90689,32.17087 -16.75718,12.66014 -36.066639,20.29659 -57.136493,22.59614 -4.476057,0.48853 -15.777865,0.70236 -19.976045,0.37796 z"
         id="path826" />
    </g>
    <g
       id="text847"
       style="font-style:normal;font-variant:normal;font-weight:bold;font-stretch:normal;font-size:10.647542px;line-height:1.25;font-family:sans-serif;-inkscape-font-specification:'sans-serif Bold';letter-spacing:0px;word-spacing:0px;fill:#000000;fill-opacity:1;stroke:#ffffff;stroke-width:0.2661885"
       aria-label="Servicio Meteorológico Nacional">
      <path
         id="path822"
         style="font-style:normal;font-variant:normal;font-weight:bold;font-stretch:normal;font-family:sans-serif;-inkscape-font-specification:'sans-serif Bold';stroke:#ffffff;stroke-width:0.2661885"
         d="m -0.09033544,259.11827 v 1.64288 q -0.6394764,-0.28594 -1.24775886,-0.43151 -0.6082824,-0.14558 -1.1489779,-0.14558 -0.7174613,0 -1.060595,0.19757 -0.3431337,0.19756 -0.3431337,0.61348 0,0.31194 0.2287558,0.4887 0.2339548,0.17157 0.8422372,0.29635 l 0.8526352,0.17156 q 1.29454981,0.25995 1.84044429,0.79025 0.54589449,0.5303 0.54589449,1.50771 0,1.28415 -0.76425228,1.91323 -0.7590533,0.62388 -2.3239508,0.62388 -0.7382573,0 -1.4817136,-0.14038 -0.7434563,-0.14037 -1.4869126,-0.41591 v -1.68968 q 0.7434563,0.39513 1.4349226,0.59789 0.6966654,0.19756 1.3413408,0.19756 0.6550733,0 1.003406,-0.21836 0.3483327,-0.21836 0.3483327,-0.62388 0,-0.36393 -0.2391538,-0.56149 -0.2339548,-0.19756 -0.9410181,-0.35353 l -0.7746503,-0.17157 q -1.1645749,-0.24955 -1.7052704,-0.79545 -0.5354965,-0.54589 -0.5354965,-1.47131 0,-1.15938 0.7486553,-1.78326 0.7486553,-0.62388 2.152384,-0.62388 0.6394764,0 1.3153458,0.0988 0.67586934,0.0936 1.39852966,0.28594 z" />
      <path
         id="path824"
         style="font-style:normal;font-variant:normal;font-weight:bold;font-stretch:normal;font-family:sans-serif;-inkscape-font-specification:'sans-serif Bold';stroke:#ffffff;stroke-width:0.2661885"
         d="m 7.9109183,263.70898 v 0.5303 H 3.5593594 q 0.067587,0.65507 0.4731085,0.98261 0.4055216,0.32754 1.133381,0.32754 0.5874864,0 1.2009678,-0.17157 0.6186804,-0.17677 1.2685548,-0.5303 v 1.43493 q -0.6602723,0.24955 -1.3205447,0.37432 -0.6602724,0.12998 -1.3205448,0.12998 -1.5804945,0 -2.4591247,-0.80065 -0.8734312,-0.80584 -0.8734312,-2.25636 0,-1.42453 0.8578342,-2.24077 0.8630332,-0.81624 2.3707418,-0.81624 1.3725347,0 2.193976,0.82664 0.8266402,0.82664 0.8266402,2.20957 z M 5.9976881,263.0903 q 0,-0.5303 -0.3119397,-0.85263 -0.3067407,-0.32754 -0.8058443,-0.32754 -0.5406955,0 -0.8786302,0.30674 -0.3379346,0.30154 -0.4211186,0.87343 z" />
      <path
         id="path827"
         style="font-style:normal;font-variant:normal;font-weight:bold;font-stretch:normal;font-family:sans-serif;-inkscape-font-specification:'sans-serif Bold';stroke:#ffffff;stroke-width:0.2661885"
         d="m 13.640211,262.39884 q -0.244353,-0.11438 -0.488706,-0.16637 -0.239154,-0.0572 -0.483506,-0.0572 -0.717462,0 -1.107386,0.46271 -0.384726,0.45751 -0.384726,1.31535 v 2.68268 H 9.3146469 v -5.82288 h 1.8612401 v 0.95662 q 0.358731,-0.57189 0.821441,-0.83184 0.46791,-0.26515 1.117784,-0.26515 0.09358,0 0.202761,0.0104 0.109179,0.005 0.317139,0.0312 z" />
      <path
         id="path829"
         style="font-style:normal;font-variant:normal;font-weight:bold;font-stretch:normal;font-family:sans-serif;-inkscape-font-specification:'sans-serif Bold';stroke:#ffffff;stroke-width:0.2661885"
         d="m 13.842973,260.81314 h 1.86124 l 1.450519,4.02402 1.445321,-4.02402 h 1.866439 l -2.292757,5.82288 H 16.13053 Z" />
      <path
         id="path831"
         style="font-style:normal;font-variant:normal;font-weight:bold;font-stretch:normal;font-family:sans-serif;-inkscape-font-specification:'sans-serif Bold';stroke:#ffffff;stroke-width:0.2661885"
         d="m 21.521887,260.81314 h 1.86124 v 5.82288 h -1.86124 z m 0,-2.26676 h 1.86124 v 1.51811 h -1.86124 z" />
      <path
         id="path833"
         style="font-style:normal;font-variant:normal;font-weight:bold;font-stretch:normal;font-family:sans-serif;-inkscape-font-specification:'sans-serif Bold';stroke:#ffffff;stroke-width:0.2661885"
         d="m 29.887071,260.99511 v 1.5181 q -0.379527,-0.25995 -0.764252,-0.38472 -0.379527,-0.12478 -0.790248,-0.12478 -0.779849,0 -1.216565,0.45751 -0.431516,0.45232 -0.431516,1.26856 0,0.81624 0.431516,1.27375 0.436716,0.45231 1.216565,0.45231 0.436716,0 0.826641,-0.12997 0.395123,-0.12997 0.727859,-0.38473 v 1.52331 q -0.436716,0.16117 -0.889028,0.23915 -0.447114,0.0832 -0.899426,0.0832 -1.575296,0 -2.464324,-0.80585 -0.889028,-0.81104 -0.889028,-2.25116 0,-1.44012 0.889028,-2.24597 0.889028,-0.81104 2.464324,-0.81104 0.457511,0 0.899426,0.0832 0.447113,0.078 0.889028,0.23916 z" />
      <path
         id="path835"
         style="font-style:normal;font-variant:normal;font-weight:bold;font-stretch:normal;font-family:sans-serif;-inkscape-font-specification:'sans-serif Bold';stroke:#ffffff;stroke-width:0.2661885"
         d="m 31.50396,260.81314 h 1.86124 v 5.82288 h -1.86124 z m 0,-2.26676 h 1.86124 v 1.51811 h -1.86124 z" />
      <path
         id="path837"
         style="font-style:normal;font-variant:normal;font-weight:bold;font-stretch:normal;font-family:sans-serif;-inkscape-font-specification:'sans-serif Bold';stroke:#ffffff;stroke-width:0.2661885"
         d="m 37.935116,262.00371 q -0.618681,0 -0.946218,0.44712 -0.322337,0.44191 -0.322337,1.27895 0,0.83704 0.322337,1.28415 0.327537,0.44191 0.946218,0.44191 0.608282,0 0.93062,-0.44191 0.322337,-0.44711 0.322337,-1.28415 0,-0.83704 -0.322337,-1.27895 -0.322338,-0.44712 -0.93062,-0.44712 z m 0,-1.33094 q 1.502509,0 2.344746,0.81104 0.847437,0.81105 0.847437,2.24597 0,1.43492 -0.847437,2.24596 -0.842237,0.81105 -2.344746,0.81105 -1.507709,0 -2.360344,-0.81105 -0.847436,-0.81104 -0.847436,-2.24596 0,-1.43492 0.847436,-2.24597 0.852635,-0.81104 2.360344,-0.81104 z" />
      <path
         id="path839"
         style="font-style:normal;font-variant:normal;font-weight:bold;font-stretch:normal;font-family:sans-serif;-inkscape-font-specification:'sans-serif Bold';stroke:#ffffff;stroke-width:0.2661885"
         d="m -5.4920914,272.18334 h 2.5475076 l 1.7676584,4.154 1.77805631,-4.154 H 3.1434395 v 7.7621 H 1.2510053 v -5.6773 l -1.78845432,4.18519 H -1.8060038 l -1.7884543,-4.18519 v 5.6773 h -1.8976333 z" />
      <path
         id="path841"
         style="font-style:normal;font-variant:normal;font-weight:bold;font-stretch:normal;font-family:sans-serif;-inkscape-font-specification:'sans-serif Bold';stroke:#ffffff;stroke-width:0.2661885"
         d="m 10.843152,277.01841 v 0.5303 H 6.4915927 q 0.067587,0.65507 0.4731086,0.98261 0.4055216,0.32753 1.1333809,0.32753 0.5874864,0 1.2009679,-0.17156 0.6186804,-0.17677 1.2685549,-0.5303 v 1.43492 q -0.6602725,0.24955 -1.3205449,0.37433 -0.6602724,0.12998 -1.3205448,0.12998 -1.5804945,0 -2.4591246,-0.80065 -0.8734312,-0.80584 -0.8734312,-2.25636 0,-1.42453 0.8578342,-2.24077 0.8630332,-0.81624 2.3707417,-0.81624 1.3725348,0 2.1939756,0.82664 0.826641,0.82664 0.826641,2.20957 z m -1.9132306,-0.61868 q 0,-0.5303 -0.3119397,-0.85264 -0.3067407,-0.32753 -0.8058442,-0.32753 -0.5406955,0 -0.8786302,0.30674 -0.3379347,0.30154 -0.4211186,0.87343 z" />
      <path
         id="path844"
         style="font-style:normal;font-variant:normal;font-weight:bold;font-stretch:normal;font-family:sans-serif;-inkscape-font-specification:'sans-serif Bold';stroke:#ffffff;stroke-width:0.2661885"
         d="m 14.279687,272.46929 v 1.65328 h 1.918429 v 1.33094 h -1.918429 v 2.46953 q 0,0.40552 0.161169,0.55109 0.161168,0.14037 0.639476,0.14037 h 0.956615 v 1.33094 h -1.596091 q -1.102187,0 -1.564898,-0.45751 -0.457511,-0.46271 -0.457511,-1.56489 v -2.46953 h -0.925422 v -1.33094 h 0.925422 v -1.65328 z" />
      <path
         id="path846"
         style="font-style:normal;font-variant:normal;font-weight:bold;font-stretch:normal;font-family:sans-serif;-inkscape-font-specification:'sans-serif Bold';stroke:#ffffff;stroke-width:0.2661885"
         d="m 23.154373,277.01841 v 0.5303 h -4.351559 q 0.06759,0.65507 0.473108,0.98261 0.405522,0.32753 1.133381,0.32753 0.587487,0 1.200968,-0.17156 0.618681,-0.17677 1.268555,-0.5303 v 1.43492 q -0.660272,0.24955 -1.320545,0.37433 -0.660272,0.12998 -1.320545,0.12998 -1.580494,0 -2.459124,-0.80065 -0.873431,-0.80584 -0.873431,-2.25636 0,-1.42453 0.857834,-2.24077 0.863033,-0.81624 2.370742,-0.81624 1.372534,0 2.193976,0.82664 0.82664,0.82664 0.82664,2.20957 z m -1.91323,-0.61868 q 0,-0.5303 -0.31194,-0.85264 -0.306741,-0.32753 -0.805844,-0.32753 -0.540696,0 -0.878631,0.30674 -0.337934,0.30154 -0.421118,0.87343 z" />
      <path
         id="path848"
         style="font-style:normal;font-variant:normal;font-weight:bold;font-stretch:normal;font-family:sans-serif;-inkscape-font-specification:'sans-serif Bold';stroke:#ffffff;stroke-width:0.2661885"
         d="m 27.329164,275.31314 q -0.61868,0 -0.946217,0.44711 -0.322338,0.44192 -0.322338,1.27896 0,0.83703 0.322338,1.28415 0.327537,0.44191 0.946217,0.44191 0.608283,0 0.93062,-0.44191 0.322338,-0.44712 0.322338,-1.28415 0,-0.83704 -0.322338,-1.27896 -0.322337,-0.44711 -0.93062,-0.44711 z m 0,-1.33094 q 1.50251,0 2.344747,0.81104 0.847436,0.81104 0.847436,2.24597 0,1.43492 -0.847436,2.24596 -0.842237,0.81105 -2.344747,0.81105 -1.507708,0 -2.360344,-0.81105 -0.847436,-0.81104 -0.847436,-2.24596 0,-1.43493 0.847436,-2.24597 0.852636,-0.81104 2.360344,-0.81104 z" />
      <path
         id="path850"
         style="font-style:normal;font-variant:normal;font-weight:bold;font-stretch:normal;font-family:sans-serif;-inkscape-font-specification:'sans-serif Bold';stroke:#ffffff;stroke-width:0.2661885"
         d="m 36.203849,275.70826 q -0.244353,-0.11437 -0.488706,-0.16636 -0.239154,-0.0572 -0.483507,-0.0572 -0.717461,0 -1.107386,0.46271 -0.384725,0.45751 -0.384725,1.31534 v 2.68268 h -1.86124 v -5.82287 h 1.86124 v 0.95661 q 0.358731,-0.57188 0.821441,-0.83183 0.46791,-0.26515 1.117784,-0.26515 0.09358,0 0.202761,0.0104 0.109179,0.005 0.317139,0.0312 z" />
      <path
         id="path852"
         style="font-style:normal;font-variant:normal;font-weight:bold;font-stretch:normal;font-family:sans-serif;-inkscape-font-specification:'sans-serif Bold';stroke:#ffffff;stroke-width:0.2661885"
         d="m 39.910732,275.31314 q -0.61868,0 -0.946217,0.44711 -0.322338,0.44192 -0.322338,1.27896 0,0.83703 0.322338,1.28415 0.327537,0.44191 0.946217,0.44191 0.608282,0 0.93062,-0.44191 0.322338,-0.44712 0.322338,-1.28415 0,-0.83704 -0.322338,-1.27896 -0.322338,-0.44711 -0.93062,-0.44711 z m 0,-1.33094 q 1.50251,0 2.344747,0.81104 0.847436,0.81104 0.847436,2.24597 0,1.43492 -0.847436,2.24596 -0.842237,0.81105 -2.344747,0.81105 -1.507709,0 -2.360344,-0.81105 -0.847436,-0.81104 -0.847436,-2.24596 0,-1.43493 0.847436,-2.24597 0.852635,-0.81104 2.360344,-0.81104 z" />
      <path
         id="path854"
         style="font-style:normal;font-variant:normal;font-weight:bold;font-stretch:normal;font-family:sans-serif;-inkscape-font-specification:'sans-serif Bold';stroke:#ffffff;stroke-width:0.2661885"
         d="m 44.459854,271.85581 h 1.861241 v 8.08963 h -1.861241 z" />
      <path
         id="path856"
         style="font-style:normal;font-variant:normal;font-weight:bold;font-stretch:normal;font-family:sans-serif;-inkscape-font-specification:'sans-serif Bold';stroke:#ffffff;stroke-width:0.2661885"
         d="m 50.89101,275.31314 q -0.61868,0 -0.946217,0.44711 -0.322338,0.44192 -0.322338,1.27896 0,0.83703 0.322338,1.28415 0.327537,0.44191 0.946217,0.44191 0.608282,0 0.93062,-0.44191 0.322338,-0.44712 0.322338,-1.28415 0,-0.83704 -0.322338,-1.27896 -0.322338,-0.44711 -0.93062,-0.44711 z m 0,-1.33094 q 1.50251,0 2.344747,0.81104 0.847436,0.81104 0.847436,2.24597 0,1.43492 -0.847436,2.24596 -0.842237,0.81105 -2.344747,0.81105 -1.507709,0 -2.360344,-0.81105 -0.847436,-0.81104 -0.847436,-2.24596 0,-1.43493 0.847436,-2.24597 0.852635,-0.81104 2.360344,-0.81104 z m 0.816242,-2.55271 h 1.471316 l -1.918429,1.95482 h -1.019003 z" />
      <path
         id="path858"
         style="font-style:normal;font-variant:normal;font-weight:bold;font-stretch:normal;font-family:sans-serif;-inkscape-font-specification:'sans-serif Bold';stroke:#ffffff;stroke-width:0.2661885"
         d="m 59.401767,278.95764 q -0.384726,0.5095 -0.847437,0.74865 -0.46271,0.23915 -1.070993,0.23915 -1.065794,0 -1.762459,-0.83703 -0.696665,-0.84224 -0.696665,-2.14199 0,-1.30495 0.696665,-2.13679 0.696665,-0.83704 1.762459,-0.83704 0.608283,0 1.070993,0.23916 0.462711,0.23915 0.847437,0.75385 v -0.86303 h 1.871638 v 5.23539 q 0,1.40373 -0.889028,2.14198 -0.88383,0.74346 -2.568304,0.74346 -0.545894,0 -1.055396,-0.0832 -0.509501,-0.0832 -1.024202,-0.25475 v -1.45052 q 0.488706,0.28074 0.956615,0.41592 0.46791,0.14037 0.941018,0.14037 0.915023,0 1.341341,-0.40032 0.426318,-0.40033 0.426318,-1.25296 z m -1.226963,-3.6237 q -0.577089,0 -0.899426,0.42631 -0.322338,0.42632 -0.322338,1.20617 0,0.80065 0.31194,1.21657 0.311939,0.41072 0.909824,0.41072 0.582287,0 0.904625,-0.42632 0.322338,-0.42632 0.322338,-1.20097 0,-0.77985 -0.322338,-1.20617 -0.322338,-0.42631 -0.904625,-0.42631 z" />
      <path
         id="path860"
         style="font-style:normal;font-variant:normal;font-weight:bold;font-stretch:normal;font-family:sans-serif;-inkscape-font-specification:'sans-serif Bold';stroke:#ffffff;stroke-width:0.2661885"
         d="m 63.072254,274.12257 h 1.861241 v 5.82287 h -1.861241 z m 0,-2.26676 h 1.861241 v 1.5181 h -1.861241 z" />
      <path
         id="path862"
         style="font-style:normal;font-variant:normal;font-weight:bold;font-stretch:normal;font-family:sans-serif;-inkscape-font-specification:'sans-serif Bold';stroke:#ffffff;stroke-width:0.2661885"
         d="m 71.43744,274.30453 v 1.51811 q -0.379527,-0.25995 -0.764252,-0.38472 -0.379527,-0.12478 -0.790247,-0.12478 -0.77985,0 -1.216565,0.45751 -0.431517,0.45231 -0.431517,1.26856 0,0.81624 0.431517,1.27375 0.436715,0.45231 1.216565,0.45231 0.436715,0 0.82664,-0.12997 0.395123,-0.12998 0.727859,-0.38473 v 1.52331 q -0.436715,0.16117 -0.889028,0.23915 -0.447114,0.0832 -0.899426,0.0832 -1.575296,0 -2.464324,-0.80585 -0.889028,-0.81104 -0.889028,-2.25116 0,-1.44013 0.889028,-2.24597 0.889028,-0.81104 2.464324,-0.81104 0.457511,0 0.899426,0.0832 0.447114,0.078 0.889028,0.23915 z" />
      <path
         id="path864"
         style="font-style:normal;font-variant:normal;font-weight:bold;font-stretch:normal;font-family:sans-serif;-inkscape-font-specification:'sans-serif Bold';stroke:#ffffff;stroke-width:0.2661885"
         d="m 75.82539,275.31314 q -0.618681,0 -0.946217,0.44711 -0.322338,0.44192 -0.322338,1.27896 0,0.83703 0.322338,1.28415 0.327536,0.44191 0.946217,0.44191 0.608282,0 0.93062,-0.44191 0.322337,-0.44712 0.322337,-1.28415 0,-0.83704 -0.322337,-1.27896 -0.322338,-0.44711 -0.93062,-0.44711 z m 0,-1.33094 q 1.502509,0 2.344746,0.81104 0.847437,0.81104 0.847437,2.24597 0,1.43492 -0.847437,2.24596 -0.842237,0.81105 -2.344746,0.81105 -1.507709,0 -2.360344,-0.81105 -0.847436,-0.81104 -0.847436,-2.24596 0,-1.43493 0.847436,-2.24597 0.852635,-0.81104 2.360344,-0.81104 z" />
      <path
         id="path866"
         style="font-style:normal;font-variant:normal;font-weight:bold;font-stretch:normal;font-family:sans-serif;-inkscape-font-specification:'sans-serif Bold';stroke:#ffffff;stroke-width:0.2661885"
         d="m -5.4920914,285.49277 h 2.2355679 l 2.82305438,5.32377 v -5.32377 H 1.4641641 v 7.7621 h -2.2355679 l -2.8230543,-5.32377 v 5.32377 h -1.8976333 z" />
      <path
         id="path868"
         style="font-style:normal;font-variant:normal;font-weight:bold;font-stretch:normal;font-family:sans-serif;-inkscape-font-specification:'sans-serif Bold';stroke:#ffffff;stroke-width:0.2661885"
         d="m 5.9560957,290.63458 q -0.5822875,0 -0.8786302,0.19756 -0.2911437,0.19756 -0.2911437,0.58229 0,0.35353 0.2339547,0.55629 0.2391538,0.19756 0.6602724,0.19756 0.5250985,0 0.8838292,-0.37433 0.3587307,-0.37952 0.3587307,-0.94621 v -0.21316 z m 2.8438503,-0.70187 v 3.32216 H 6.9231088 v -0.86303 q -0.3743277,0.5303 -0.8422372,0.77465 -0.4679096,0.23915 -1.13858,0.23915 -0.9046251,0 -1.4713156,-0.5251 -0.5614915,-0.53029 -0.5614915,-1.37253 0,-1.0242 0.7018644,-1.50251 0.7070633,-0.47831 2.2147719,-0.47831 h 1.096988 v -0.14557 q 0,-0.44191 -0.3483327,-0.64467 -0.3483327,-0.20796 -1.08659,-0.20796 -0.5978844,0 -1.1125849,0.11957 -0.5147006,0.11958 -0.9566151,0.35873 v -1.41932 q 0.5978844,-0.14557 1.2009678,-0.21836 0.6030835,-0.078 1.2061669,-0.078 1.5752955,0 2.2719609,0.62388 0.7018643,0.61868 0.7018643,2.01721 z" />
      <path
         id="path870"
         style="font-style:normal;font-variant:normal;font-weight:bold;font-stretch:normal;font-family:sans-serif;-inkscape-font-specification:'sans-serif Bold';stroke:#ffffff;stroke-width:0.2661885"
         d="m 15.2467,287.61396 v 1.51811 q -0.379527,-0.25995 -0.764253,-0.38473 -0.379526,-0.12477 -0.790247,-0.12477 -0.779849,0 -1.216565,0.45751 -0.431516,0.45231 -0.431516,1.26855 0,0.81625 0.431516,1.27376 0.436716,0.45231 1.216565,0.45231 0.436716,0 0.82664,-0.12997 0.395124,-0.12998 0.72786,-0.38473 v 1.52331 q -0.436716,0.16116 -0.889029,0.23915 -0.447113,0.0832 -0.899426,0.0832 -1.575295,0 -2.464323,-0.80584 -0.889029,-0.81104 -0.889029,-2.25117 0,-1.44012 0.889029,-2.24596 0.889028,-0.81105 2.464323,-0.81105 0.457512,0 0.899426,0.0832 0.447114,0.078 0.889029,0.23915 z" />
      <path
         id="path872"
         style="font-style:normal;font-variant:normal;font-weight:bold;font-stretch:normal;font-family:sans-serif;-inkscape-font-specification:'sans-serif Bold';stroke:#ffffff;stroke-width:0.2661885"
         d="m 16.863587,287.432 h 1.86124 v 5.82287 h -1.86124 z m 0,-2.26676 h 1.86124 v 1.5181 h -1.86124 z" />
      <path
         id="path874"
         style="font-style:normal;font-variant:normal;font-weight:bold;font-stretch:normal;font-family:sans-serif;-inkscape-font-specification:'sans-serif Bold';stroke:#ffffff;stroke-width:0.2661885"
         d="m 23.294744,288.62257 q -0.61868,0 -0.946217,0.44711 -0.322338,0.44192 -0.322338,1.27895 0,0.83704 0.322338,1.28416 0.327537,0.44191 0.946217,0.44191 0.608283,0 0.93062,-0.44191 0.322338,-0.44712 0.322338,-1.28416 0,-0.83703 -0.322338,-1.27895 -0.322337,-0.44711 -0.93062,-0.44711 z m 0,-1.33095 q 1.50251,0 2.344747,0.81105 0.847436,0.81104 0.847436,2.24596 0,1.43493 -0.847436,2.24597 -0.842237,0.81104 -2.344747,0.81104 -1.507708,0 -2.360344,-0.81104 -0.847436,-0.81104 -0.847436,-2.24597 0,-1.43492 0.847436,-2.24596 0.852636,-0.81105 2.360344,-0.81105 z" />
      <path
         id="path876"
         style="font-style:normal;font-variant:normal;font-weight:bold;font-stretch:normal;font-family:sans-serif;-inkscape-font-specification:'sans-serif Bold';stroke:#ffffff;stroke-width:0.2661885"
         d="m 33.697933,289.70916 v 3.54571 h -1.871638 v -0.57709 -2.13678 q 0,-0.75386 -0.03639,-1.0398 -0.03119,-0.28595 -0.114378,-0.42112 -0.109179,-0.18197 -0.296343,-0.28075 -0.187164,-0.10398 -0.426317,-0.10398 -0.582288,0 -0.915023,0.45232 -0.332736,0.44711 -0.332736,1.24256 v 2.86464 h -1.86124 V 287.432 h 1.86124 v 0.85263 q 0.421118,-0.5095 0.894227,-0.74865 0.473109,-0.24436 1.044998,-0.24436 1.008605,0 1.528505,0.61868 0.525098,0.61869 0.525098,1.79886 z" />
      <path
         id="path878"
         style="font-style:normal;font-variant:normal;font-weight:bold;font-stretch:normal;font-family:sans-serif;-inkscape-font-specification:'sans-serif Bold';stroke:#ffffff;stroke-width:0.2661885"
         d="m 38.044294,290.63458 q -0.582287,0 -0.87863,0.19756 -0.291144,0.19756 -0.291144,0.58229 0,0.35353 0.233955,0.55629 0.239154,0.19756 0.660273,0.19756 0.525098,0 0.883829,-0.37433 0.35873,-0.37952 0.35873,-0.94621 v -0.21316 z m 2.843851,-0.70187 v 3.32216 h -1.876838 v -0.86303 q -0.374327,0.5303 -0.842237,0.77465 -0.467909,0.23915 -1.13858,0.23915 -0.904625,0 -1.471315,-0.5251 -0.561492,-0.53029 -0.561492,-1.37253 0,-1.0242 0.701865,-1.50251 0.707063,-0.47831 2.214771,-0.47831 h 1.096988 v -0.14557 q 0,-0.44191 -0.348332,-0.64467 -0.348333,-0.20796 -1.08659,-0.20796 -0.597885,0 -1.112585,0.11957 -0.514701,0.11958 -0.956615,0.35873 v -1.41932 q 0.597884,-0.14557 1.200968,-0.21836 0.603083,-0.078 1.206166,-0.078 1.575296,0 2.271961,0.62388 0.701865,0.61868 0.701865,2.01721 z" />
      <path
         id="path880"
         style="font-style:normal;font-variant:normal;font-weight:bold;font-stretch:normal;font-family:sans-serif;-inkscape-font-specification:'sans-serif Bold';stroke:#ffffff;stroke-width:0.2661885"
         d="m 42.629807,285.16524 h 1.86124 v 8.08963 h -1.86124 z" />
    </g>
  </g>
</svg>
