<?xml version="1.0" encoding="UTF-8" standalone="no"?>
<svg
   xmlns:dc="http://purl.org/dc/elements/1.1/"
   xmlns:cc="http://creativecommons.org/ns#"
   xmlns:rdf="http://www.w3.org/1999/02/22-rdf-syntax-ns#"
   xmlns:svg="http://www.w3.org/2000/svg"
   xmlns="http://www.w3.org/2000/svg"
   height="40"
   width="133.11572"
   id="svg30"
   version="1.1"
   viewBox="0 0 133.11572 40.000001">
  <metadata
     id="metadata34">
    <rdf:RDF>
      <cc:Work
         rdf:about="">
        <dc:format>image/svg+xml</dc:format>
        <dc:type
           rdf:resource="http://purl.org/dc/dcmitype/StillImage" />
        <dc:title>main-logo</dc:title>
      </cc:Work>
    </rdf:RDF>
  </metadata>
  <defs
     id="defs4">
    <style
       id="style2">.cls-1{fill:#ae619b;}.cls-1,.cls-10,.cls-11,.cls-12,.cls-13,.cls-2,.cls-3,.cls-4,.cls-5,.cls-6,.cls-7,.cls-8,.cls-9{fill-rule:evenodd;}.cls-2{fill:#006a6b;}.cls-3{fill:#eb2130;}.cls-4{fill:#00aa85;}.cls-5{fill:#008a8f;}.cls-6{fill:#c12632;}.cls-7{fill:#9f4388;}.cls-8{fill:#d5c540;}.cls-9{fill:#98b449;}.cls-10{fill:#3da150;}.cls-11{fill:#83242a;}.cls-12{fill:#98272e;}.cls-13{fill:#fff;}</style>
  </defs>
  <title
     id="title6">main-logo</title>
  <g
     transform="matrix(0.81471731,0,0,0.81471731,0.40735866,-3.0646467)"
     id="g958">
    <g
       id="g937"
       transform="translate(0,3.7672582)">
      <path
         style="fill:#ae619b;fill-rule:evenodd"
         d="m 159,8.71 c -1.4,-3 -3.11,-5.27 -5,-6.23 A 17.24,17.24 0 0 0 149.78,1 a 52.17,52.17 0 0 1 2.69,7.87 c 2.19,-0.12 4.38,-0.19 6.52,-0.2 z"
         class="cls-1"
         data-name="Trazado 329"
         id="Trazado_329" />
      <path
         style="fill:#006a6b;fill-rule:evenodd"
         d="m 145.7,40.11 a 88.69,88.69 0 0 1 -17.34,7 c -2.19,0.68 -4.46,1.32 -6.75,1.91 a 37.51,37.51 0 0 0 7.78,-0.33 70.17,70.17 0 0 0 24.83,-8.69 c -2.83,0.14 -5.73,0.17 -8.52,0.1 z"
         class="cls-2"
         data-name="Trazado 330"
         id="Trazado_330" />
      <path
         style="fill:#eb2130;fill-rule:evenodd"
         d="m 161.15,34.29 c 3.22,-4.45 1.66,-17.5 -2.16,-25.58 -2.14,0 -4.33,0.08 -6.53,0.2 2.06,8.12 2.34,17.68 -2.77,24.22 a 10.1,10.1 0 0 1 -1,4.55 9.56,9.56 0 0 1 -3,2.43 c 2.78,0.06 5.69,0 8.52,-0.1 a 24,24 0 0 0 6.93,-5.72 z"
         class="cls-3"
         data-name="Trazado 331"
         id="Trazado_331" />
      <path
         style="fill:#00aa85;fill-rule:evenodd"
         d="m 123.87,37.63 a 157.78,157.78 0 0 1 -16.42,-0.08 c 1.71,4.23 3.94,7.7 6.52,9.35 a 16.93,16.93 0 0 0 7.64,2.1 c 2.29,-0.59 4.56,-1.23 6.75,-1.91 a 51.24,51.24 0 0 1 -4.49,-9.5 z"
         class="cls-4"
         data-name="Trazado 332"
         id="Trazado_332" />
      <path
         style="fill:#008a8f;fill-rule:evenodd"
         d="m 129.17,37.32 c -1.71,0.13 -3.49,0.23 -5.3,0.31 a 51.55,51.55 0 0 0 4.49,9.5 88.11,88.11 0 0 0 17.34,-7 c -7.81,-0.19 -14.66,-1.16 -16.26,-2.54 l -0.27,-0.24 z"
         class="cls-5"
         data-name="Trazado 333"
         id="Trazado_333" />
      <path
         style="fill:#c12632;fill-rule:evenodd"
         d="m 148.7,37.68 a 10.24,10.24 0 0 0 1,-4.55 l -0.12,0.15 c -1.24,1.55 -9.69,3.23 -20.41,4 l 0.27,0.24 c 1.56,1.48 8.45,2.39 16.26,2.58 a 9.43,9.43 0 0 0 3,-2.43 z"
         class="cls-6"
         data-name="Trazado 334"
         id="Trazado_334" />
      <path
         style="fill:#9f4388;fill-rule:evenodd"
         d="m 149.78,1 c -7.38,-1.62 -19.56,-1.28 -29.43,1 a 43.46,43.46 0 0 0 -9.27,3 c 3,-0.23 6.19,-0.32 9.28,-0.29 8.83,0.09 17.25,1.19 21.79,3.2 a 5.7,5.7 0 0 1 2,1.67 c 2.71,-0.31 5.51,-0.55 8.31,-0.7 A 52.17,52.17 0 0 0 149.78,1 Z"
         class="cls-7"
         data-name="Trazado 335"
         id="Trazado_335" />
      <path
         style="fill:#d5c540;fill-rule:evenodd"
         d="M 121.7,18 A 93.26,93.26 0 0 1 120.36,4.77 c -3.09,0 -6.24,0.06 -9.28,0.29 a 14,14 0 0 0 -5.41,4.1 c -3.42,4.82 -2.18,18.65 1.78,28.42 a 160.6,160.6 0 0 0 16.42,0.09 C 121.19,30.19 120.09,22.29 121.7,18 Z"
         class="cls-8"
         data-name="Trazado 336"
         id="Trazado_336" />
      <path
         style="fill:#98b449;fill-rule:evenodd"
         d="m 144.16,9.61 a 5.81,5.81 0 0 0 -2,-1.67 c -4.54,-2 -13,-3.11 -21.79,-3.2 a 93.12,93.12 0 0 0 1.33,13.26 5.83,5.83 0 0 1 1,-1.83 c 2.72,-3.15 11.45,-5.36 21.41,-6.52 z"
         class="cls-9"
         data-name="Trazado 337"
         id="Trazado_337" />
      <path
         style="fill:#3da150;fill-rule:evenodd"
         d="m 121.7,18 c -1.61,4.29 -0.51,12.19 2.18,19.67 1.81,-0.08 3.58,-0.18 5.3,-0.31 C 125.57,33.91 123.09,26 121.7,18 Z"
         class="cls-10"
         data-name="Trazado 338"
         id="Trazado_338" />
      <path
         style="fill:#83242a;fill-rule:evenodd"
         d="m 153.33,13.19 c -0.23,-1.46 -0.53,-2.88 -0.88,-4.27 -2.8,0.15 -5.6,0.38 -8.31,0.7 a 19.85,19.85 0 0 1 3,5.91 24.26,24.26 0 0 1 4.42,-2.12 4.87,4.87 0 0 1 1.77,-0.22 z"
         class="cls-11"
         data-name="Trazado 339"
         id="Trazado_339" />
      <path
         style="fill:#98272e;fill-rule:evenodd"
         d="m 149.69,33.14 c 4.22,-5.42 4.75,-12.92 3.64,-20 a 4.87,4.87 0 0 0 -1.82,0.22 24.26,24.26 0 0 0 -4.42,2.12 53.38,53.38 0 0 1 2.6,17.66 z"
         class="cls-12"
         data-name="Trazado 340"
         id="Trazado_340" />
    </g>
    <g
       id="g923"
       transform="translate(0,3.4940024)">
      <path
         style="fill:#ffffff;fill-rule:evenodd;stroke:#000000"
         d="m 23.05,26.24 c -0.2,7.25 5,8.91 7.51,8.91 A 11.88,11.88 0 0 0 37,32.65 c 0.83,-0.62 0.93,-0.72 1.24,-0.72 0.31,0 0.47,2 0.47,2.24 0,0.78 -1.14,1.51 -1.92,2 a 13.35,13.35 0 0 1 -7.56,2.4 11.29,11.29 0 0 1 -11.31,-11.08 12.31,12.31 0 0 1 12.59,-12 c 1.09,0 5.7,0.06 7.77,4.49 a 11.23,11.23 0 0 1 1,4.53 c 0,1.57 -0.16,1.83 -2.07,1.83 -1.3,0 -7,-0.11 -8.09,-0.11 z M 30.2,18 a 7.32,7.32 0 0 0 -6.63,5.47 c 1.45,0.05 10.15,-0.06 11.55,-0.16 0,-0.94 -0.36,-5.32 -4.92,-5.32 z"
         class="cls-13"
         data-name="Trazado 341"
         id="Trazado_341" />
      <path
         style="fill:#ffffff;fill-rule:evenodd;stroke:#000000"
         d="m 48.25,19.49 a 6.2,6.2 0 0 1 3,-3.11 11.39,11.39 0 0 1 4.09,-1 c 0.52,0 0.73,0 0.73,2.38 0,1.21 -0.26,1.26 -2.95,1.79 -4.25,0.79 -4.41,3.17 -4.56,4.86 -0.26,3.38 -0.31,5.55 -0.37,11.14 -0.05,1.91 -0.05,2.11 -0.72,2.22 a 17.41,17.41 0 0 1 -2.28,0.11 c -1.66,0 -1.92,0 -1.92,-1.38 0,-6.07 0.37,-19.43 0.47,-20 0.1,-0.57 0.26,-0.42 1.5,-0.42 0.36,0 2,-0.11 2.33,-0.11 0.67,0 0.67,0.48 0.67,1.48 v 2 z"
         class="cls-13"
         data-name="Trazado 342"
         id="Trazado_342" />
      <path
         style="fill:#ffffff;fill-rule:evenodd;stroke:#000000"
         d="m 64,19.49 a 6.14,6.14 0 0 1 3,-3.11 11.39,11.39 0 0 1 4.1,-1 c 0.51,0 0.72,0 0.72,2.38 0,1.21 -0.26,1.26 -3,1.79 -4.25,0.79 -4.4,3.17 -4.56,4.86 C 64.06,27.78 64,30 64,35.54 c -0.06,1.91 -0.06,2.11 -0.73,2.22 a 17.41,17.41 0 0 1 -2.28,0.11 c -1.66,0 -1.91,0 -1.91,-1.38 0,-6.07 0.36,-19.43 0.46,-20 0.1,-0.57 0.26,-0.42 1.5,-0.42 0.37,0 2,-0.11 2.33,-0.11 0.68,0 0.68,0.48 0.68,1.48 v 2 z"
         class="cls-13"
         data-name="Trazado 343"
         id="Trazado_343" />
      <path
         style="fill:#ffffff;fill-rule:evenodd;stroke:#000000"
         d="m 17.16,35.93 a 5.11,5.11 0 0 0 -0.39,-1.26 c -0.15,-0.32 -0.4,-0.29 -0.83,-0.08 a 7.22,7.22 0 0 1 -3.48,1 C 9,35.59 8.13,33.15 8.05,28.95 8,26.34 8.23,23.17 8.49,19.95 c 2.85,-0.1 5.7,-0.19 7,-0.2 0.32,0 0.61,-0.18 0.65,-0.69 0.04,-0.51 0.06,-1.27 0.06,-1.74 0,-0.68 -0.07,-0.93 -0.67,-0.93 -1.07,0 -3.89,0.14 -6.77,0.31 0.17,-1.74 0.41,-4.15 0.44,-4.8 0.03,-0.65 -0.13,-1 -1,-0.86 a 29.29,29.29 0 0 0 -2.92,0.8 c -1,0.34 -1.09,0.55 -1.23,2.25 -0.06,0.82 -0.16,1.82 -0.28,2.92 -1.1,0.07 -2,0.13 -2.36,0.17 -0.62,0.05 -1,0.1 -1.09,0.65 A 8.65,8.65 0 0 0 0,19.48 c 0,0.46 0.19,0.8 1,0.74 L 3.41,20.1 a 83.06,83.06 0 0 0 -0.55,8.49 c 0,6.26 2.3,9.66 7.29,10 a 10.3,10.3 0 0 0 6.45,-1.65 c 0.45,-0.32 0.65,-0.61 0.58,-1 z"
         class="cls-13"
         data-name="Trazado 344"
         id="Trazado_344" />
      <path
         style="fill:#ffffff;fill-rule:evenodd;stroke:#000000"
         d="m 78.84,18.8 c -1.15,0 -2.2,0.31 -2.93,0.31 -0.73,0 -1,-1.78 -1,-2.19 0,-0.63 0.52,-1.47 5,-1.47 4.28,0 7.2,1.42 8.82,3.24 1.94,2.14 2.46,4.81 2.46,9.14 0,1.72 0,4.92 -0.21,7.28 0,0.36 -0.05,1.1 -1.15,1.17 -0.42,0 -2.26,0 -2.66,0.06 C 86,36.58 86,37 83.38,37.8 A 13.73,13.73 0 0 1 78.89,38.59 7.48,7.48 0 0 1 74,37.12 5,5 0 0 1 72.17,33.21 c 0,-4.13 4.38,-7 9.19,-7.63 a 36.6,36.6 0 0 1 4.91,-0.21 c 0,-1.72 -0.1,-6.57 -7.47,-6.57 z m -1.78,14 c 0,1.57 1.2,2.72 3.55,2.72 a 14.69,14.69 0 0 0 5.48,-1.47 c 0.11,-1.46 0.16,-5 0.16,-6.52 -6.53,0.78 -9.19,2.92 -9.19,5.27 z"
         class="cls-13"
         data-name="Trazado 345"
         id="Trazado_345" />
    </g>
  </g>
</svg>
