<?xml version="1.0" encoding="UTF-8" standalone="no"?>
<svg
   id="svg8"
   version="1.1"
   viewBox="0 0 155.80207 46.058825"
   height="46.058823"
   width="155.80208"
   sodipodi:docname="todoagro.svg"
   inkscape:version="1.2.2 (b0a8486541, 2022-12-01)"
   xmlns:inkscape="http://www.inkscape.org/namespaces/inkscape"
   xmlns:sodipodi="http://sodipodi.sourceforge.net/DTD/sodipodi-0.dtd"
   xmlns="http://www.w3.org/2000/svg"
   xmlns:svg="http://www.w3.org/2000/svg"
   xmlns:rdf="http://www.w3.org/1999/02/22-rdf-syntax-ns#"
   xmlns:cc="http://creativecommons.org/ns#"
   xmlns:dc="http://purl.org/dc/elements/1.1/">
  <sodipodi:namedview
     id="namedview14"
     pagecolor="#505050"
     bordercolor="#eeeeee"
     borderopacity="1"
     inkscape:showpageshadow="0"
     inkscape:pageopacity="0"
     inkscape:pagecheckerboard="0"
     inkscape:deskcolor="#505050"
     showgrid="false"
     inkscape:zoom="3.3421066"
     inkscape:cx="27.228336"
     inkscape:cy="9.7244056"
     inkscape:window-width="1600"
     inkscape:window-height="826"
     inkscape:window-x="0"
     inkscape:window-y="0"
     inkscape:window-maximized="1"
     inkscape:current-layer="svg8" />
  <defs
     id="defs2" />
  <metadata
     id="metadata5">
    <rdf:RDF>
      <cc:Work
         rdf:about="">
        <dc:format>image/svg+xml</dc:format>
        <dc:type
           rdf:resource="http://purl.org/dc/dcmitype/StillImage" />
      </cc:Work>
    </rdf:RDF>
  </metadata>
  <g
     transform="translate(72.4043,-91.180575)"
     id="layer1">
    <g
       transform="matrix(2.1105765,0,0,2.1105765,80.410514,-150.77571)"
       id="g861">
      <g
         aria-label="Todo"
         transform="scale(0.86937431,1.1502525)"
         style="font-style:normal;font-weight:normal;font-size:15.5698px;line-height:1.25;font-family:sans-serif;letter-spacing:0px;word-spacing:0px;fill:#00622d;fill-opacity:1;stroke:none;stroke-width:0.389244"
         id="text839">
        <path
           d="m -83.283229,102.31445 h 10.460932 v 2.2123 h -3.763199 v 9.13811 h -2.926932 v -9.13811 h -3.770801 z"
           style="font-style:normal;font-variant:normal;font-weight:bold;font-stretch:normal;font-family:sans-serif;-inkscape-font-specification:'sans-serif Bold';fill:#00622d;fill-opacity:1;stroke-width:0.389244"
           id="path841" />
        <path
           d="m -69.454425,106.89111 q -0.904688,0 -1.383641,0.6538 -0.47135,0.64621 -0.47135,1.8702 0,1.22399 0.47135,1.8778 0.478953,0.6462 1.383641,0.6462 0.889483,0 1.360834,-0.6462 0.47135,-0.65381 0.47135,-1.8778 0,-1.22399 -0.47135,-1.8702 -0.471351,-0.6538 -1.360834,-0.6538 z m 0,-1.94622 q 2.1971,0 3.428692,1.18597 1.239195,1.18598 1.239195,3.28425 0,2.09827 -1.239195,3.28425 -1.231592,1.18597 -3.428692,1.18597 -2.204702,0 -3.451499,-1.18597 -1.239195,-1.18598 -1.239195,-3.28425 0,-2.09827 1.239195,-3.28425 1.246797,-1.18597 3.451499,-1.18597 z"
           style="font-style:normal;font-variant:normal;font-weight:bold;font-stretch:normal;font-family:sans-serif;-inkscape-font-specification:'sans-serif Bold';fill:#00622d;fill-opacity:1;stroke-width:0.389244"
           id="path843" />
        <path
           d="m -57.009261,106.39695 v -4.56145 h 2.736871 v 11.82936 h -2.736871 v -1.23159 q -0.562579,0.75264 -1.239195,1.10235 -0.676615,0.34971 -1.566098,0.34971 -1.573702,0 -2.584824,-1.24679 -1.011122,-1.2544 -1.011122,-3.22343 0,-1.96903 1.011122,-3.21582 1.011122,-1.2544 2.584824,-1.2544 0.88188,0 1.558496,0.35731 0.684218,0.34971 1.246797,1.09475 z m -1.794171,5.51175 q 0.874278,0 1.330423,-0.6386 0.463748,-0.6386 0.463748,-1.85499 0,-1.21639 -0.463748,-1.85499 -0.456145,-0.6386 -1.330423,-0.6386 -0.866676,0 -1.330424,0.6386 -0.456145,0.6386 -0.456145,1.85499 0,1.21639 0.456145,1.85499 0.463748,0.6386 1.330424,0.6386 z"
           style="font-style:normal;font-variant:normal;font-weight:bold;font-stretch:normal;font-family:sans-serif;-inkscape-font-specification:'sans-serif Bold';fill:#00622d;fill-opacity:1;stroke-width:0.389244"
           id="path845" />
        <path
           d="m -47.589861,106.89111 q -0.904688,0 -1.383641,0.6538 -0.47135,0.64621 -0.47135,1.8702 0,1.22399 0.47135,1.8778 0.478953,0.6462 1.383641,0.6462 0.889483,0 1.360833,-0.6462 0.471351,-0.65381 0.471351,-1.8778 0,-1.22399 -0.471351,-1.8702 -0.47135,-0.6538 -1.360833,-0.6538 z m 0,-1.94622 q 2.1971,0 3.428692,1.18597 1.239195,1.18598 1.239195,3.28425 0,2.09827 -1.239195,3.28425 -1.231592,1.18597 -3.428692,1.18597 -2.204702,0 -3.451499,-1.18597 -1.239195,-1.18598 -1.239195,-3.28425 0,-2.09827 1.239195,-3.28425 1.246797,-1.18597 3.451499,-1.18597 z"
           style="font-style:normal;font-variant:normal;font-weight:bold;font-stretch:normal;font-family:sans-serif;-inkscape-font-specification:'sans-serif Bold';fill:#00622d;fill-opacity:1;stroke-width:0.389244"
           id="path847" />
      </g>
      <text
         xml:space="preserve"
         style="font-style:normal;font-variant:normal;font-weight:bold;font-stretch:normal;font-size:19.3644px;line-height:1.25;font-family:'Sitka Banner';-inkscape-font-specification:'Sitka Banner Bold';letter-spacing:0px;word-spacing:0px;fill:#00622d;fill-opacity:1;stroke:none;stroke-width:0.484109"
         x="-43.471626"
         y="111.23508"
         id="text852"
         transform="scale(0.84918788,1.1775957)"><tspan
           id="tspan850"
           x="-43.471626"
           y="111.23508"
           style="font-style:normal;font-variant:normal;font-weight:bold;font-stretch:normal;font-family:'Sitka Banner';-inkscape-font-specification:'Sitka Banner Bold';fill:#00622d;fill-opacity:1;stroke-width:0.484109">Agro</tspan></text>
    </g>
  </g>
</svg>
