<?xml version="1.0" encoding="UTF-8" standalone="no"?>
<svg
   xmlns:dc="http://purl.org/dc/elements/1.1/"
   xmlns:cc="http://creativecommons.org/ns#"
   xmlns:rdf="http://www.w3.org/1999/02/22-rdf-syntax-ns#"
   xmlns:svg="http://www.w3.org/2000/svg"
   xmlns="http://www.w3.org/2000/svg"
   id="svg33"
   viewBox="0 0 1921.1237 930.16831"
   style="clip-rule:evenodd;fill-rule:evenodd;image-rendering:optimizeQuality;shape-rendering:geometricPrecision;text-rendering:geometricPrecision"
   version="1.1"
   height="35"
   width="72.29129"
   xml:space="preserve"><metadata
   id="metadata37"><rdf:RDF><cc:Work
       rdf:about=""><dc:format>image/svg+xml</dc:format><dc:type
         rdf:resource="http://purl.org/dc/dcmitype/StillImage" /><dc:title></dc:title></cc:Work></rdf:RDF></metadata>
 <defs
   id="defs4">
  <style
   id="style2"
   type="text/css">
   <![CDATA[
    .fil2 {fill:#3F4141;fill-rule:nonzero}
    .fil0 {fill:#469ED6;fill-rule:nonzero}
    .fil1 {fill:#565656;fill-rule:nonzero}
   ]]>
  </style>
 </defs>
 <g
   transform="matrix(0.18621988,0,0,0.18621988,-0.06100641,0)"
   id="Capa_x0020_1">
  <metadata
   id="CorelCorpID_0Corel-Layer" />
  <g
   id="_988380960">
   <g
   id="g29">
    <path
   style="fill:#469ed6;fill-rule:nonzero"
   id="path7"
   d="m 2157,251 1,1963 c 0,381 -118,645 -520,645 -457,0 -524,-298 -524,-645 l -1,-1961 c 0,-79 -63,-142 -142,-142 H 0 v 1981 c 0,1210 585,1625 1638,1625 1129,0 1634,-493 1634,-1620 V 111 l -972,-2 c -79,0 -143,64 -143,142 z"
   class="fil0" />
    <path
   style="fill:#469ed6;fill-rule:nonzero"
   id="path9"
   d="M 8473,0 C 7657,0 7034,402 6771,1066 l -1,-793 c 0,-79 -63,-142 -142,-142 l -900,-1 v 1117 l 41,800 L 4582,130 H 3562 v 3513 h 901 c 79,0 142,-64 142,-142 v -971 l -41,-800 1186,1913 h 1021 v -998 c 262,691 880,1072 1702,1072 1039,0 1844,-677 1844,-1878 C 10317,907 9727,0 8473,0 Z m 0,2854 v 0 c -552,0 -689,-564 -689,-1015 0,-446 157,-976 679,-976 508,-15 703,495 703,976 0,584 -195,1015 -693,1015 z"
   class="fil0" />
    <polygon
   style="fill:#565656;fill-rule:nonzero"
   id="polygon11"
   points="0,4260 4852,4260 4423,4849 0,4849 "
   class="fil1" />
    <g
   id="g27">
     <path
   style="fill:#3f4141;fill-rule:nonzero"
   id="path13"
   d="m 5146,4858 c 46,28 113,52 184,52 105,0 166,-55 166,-136 0,-74 -42,-116 -150,-158 -129,-46 -210,-113 -210,-225 0,-124 103,-216 257,-216 82,0 141,19 176,39 l -28,84 c -26,-14 -79,-38 -151,-38 -109,0 -150,65 -150,119 0,75 48,111 158,154 135,52 203,117 203,233 0,123 -91,229 -278,229 -77,0 -161,-23 -203,-51 z"
   class="fil2" />
     <path
   style="fill:#3f4141;fill-rule:nonzero"
   id="path15"
   d="m 5857,4733 -83,250 h -106 l 270,-795 h 124 l 271,795 h -110 l -85,-250 z m 260,-80 v 0 l -78,-229 c -17,-52 -29,-99 -41,-145 h -2 c -12,47 -25,96 -40,144 l -78,230 z"
   class="fil2" />
     <path
   style="fill:#3f4141;fill-rule:nonzero"
   id="path17"
   d="m 6450,4983 v -795 h 112 l 254,402 c 59,94 105,177 143,259 l 2,-1 c -9,-107 -11,-203 -11,-327 v -333 h 96 v 795 h -104 l -252,-403 c -55,-89 -108,-179 -148,-265 l -4,1 c 6,100 8,196 8,327 v 340 z"
   class="fil2" />
     <polygon
   style="fill:#3f4141;fill-rule:nonzero"
   id="polygon19"
   points="7135,4188 7723,4188 7723,4276 7480,4276 7480,4983 7376,4983 7376,4276 7135,4276 "
   class="fil2" />
     <path
   style="fill:#3f4141;fill-rule:nonzero"
   id="path21"
   d="m 7865,4733 -82,250 h -106 l 270,-795 h 124 l 271,795 h -110 l -85,-250 z m 261,-80 v 0 l -78,-229 c -18,-52 -29,-99 -41,-145 h -2 c -12,47 -25,96 -41,144 l -77,230 z"
   class="fil2" />
     <polygon
   style="fill:#3f4141;fill-rule:nonzero"
   id="polygon23"
   points="8780,4983 8678,4983 8678,4188 9106,4188 9106,4274 8780,4274 8780,4539 9081,4539 9081,4624 8780,4624 "
   class="fil2" />
     <polygon
   style="fill:#3f4141;fill-rule:nonzero"
   id="polygon25"
   points="9252,4188 9681,4188 9681,4274 9354,4274 9354,4526 9663,4526 9663,4611 9354,4611 9354,4897 9699,4897 9699,4983 9252,4983 "
   class="fil2" />
    </g>
   </g>
  </g>
 </g>
</svg>