<?xml version="1.0" encoding="UTF-8" standalone="no"?>
<svg
   xmlns:dc="http://purl.org/dc/elements/1.1/"
   xmlns:cc="http://creativecommons.org/ns#"
   xmlns:rdf="http://www.w3.org/1999/02/22-rdf-syntax-ns#"
   xmlns:svg="http://www.w3.org/2000/svg"
   xmlns="http://www.w3.org/2000/svg"
   xmlns:xlink="http://www.w3.org/1999/xlink"
   height="35"
   width="175.53448"
   xml:space="preserve"
   enable-background="new 0 0 214 114"
   viewBox="0 0 175.53448 35"
   y="0px"
   x="0px"
   id="Layer_1"
   version="1.1"><metadata
   id="metadata46"><rdf:RDF><cc:Work
       rdf:about=""><dc:format>image/svg+xml</dc:format><dc:type
         rdf:resource="http://purl.org/dc/dcmitype/StillImage" /><dc:title></dc:title></cc:Work></rdf:RDF></metadata><defs
   id="defs44" />
<g
   transform="translate(90.588785,-13.524659)"
   id="g39">
	
	<g
   transform="matrix(0.58030079,0,0,0.58030079,-38.020041,18.3832)"
   style="stroke:#286ec3;stroke-opacity:1"
   id="g18">
		<path
   style="fill:#286ec3;stroke:#286ec3;stroke-opacity:1"
   id="path2"
   d="m 30.6,29.3 c 0.4,1.6 0.8,4 0.8,4 0,0 0.4,-2.4 0.9,-4 L 39.4,1.7 C 39.5,1.3 39.8,1 40.2,1 h 1.4 c 0.5,0 0.7,0.2 0.5,0.7 L 33,37.5 c -0.1,0.4 -0.4,0.7 -0.8,0.7 h -1.6 c -0.4,0 -0.7,-0.2 -0.8,-0.7 L 22.7,9.5 C 22.4,8.3 22,6.3 22,5.9 l -0.8,3.5 -7.1,28 c -0.1,0.4 -0.4,0.7 -0.8,0.7 h -1.6 c -0.4,0 -0.7,-0.2 -0.8,-0.7 L 1.8,1.7 C 1.7,1.2 1.8,1 2.3,1 H 4 c 0.4,0 0.7,0.2 0.8,0.7 l 7,27.6 0.9,3.8 c 0.1,-0.3 0.5,-2.5 0.9,-3.8 L 20.7,1.7 C 20.7,1.3 20.8,1 21.3,1 h 1.5 c 0.4,0 0.7,0.2 0.8,0.7 z" />
		<path
   style="fill:#286ec3;stroke:#286ec3;stroke-opacity:1"
   id="path4"
   d="m 51,5.8 c 0,0.4 -0.2,0.7 -0.7,0.7 H 48.8 C 48.3,6.5 48.1,6.3 48.1,5.8 V 0.7 C 48.1,0.3 48.3,0 48.8,0 h 1.5 C 50.8,0 51,0.2 51,0.7 Z m 0,31.7 c 0,0.4 -0.2,0.7 -0.7,0.7 h -1.5 c -0.5,0 -0.7,-0.2 -0.7,-0.7 V 12 c 0,-0.5 0.2,-0.7 0.7,-0.7 h 1.5 c 0.4,0 0.7,0.2 0.7,0.7 z" />
		<path
   style="fill:#286ec3;stroke:#286ec3;stroke-opacity:1"
   id="path6"
   d="m 62.9,11.9 0.1,2.3 c 1.6,-1.3 4.8,-3.4 9.5,-3.4 5.1,0 7.5,2.7 7.5,6.5 v 20.1 c 0,0.4 -0.2,0.7 -0.6,0.7 h -1.6 c -0.4,0 -0.6,-0.2 -0.6,-0.7 V 17.9 c 0,-2.7 -1.6,-4.5 -5.3,-4.5 -4.4,0 -7.5,2.2 -8.7,3.3 v 20.8 c 0,0.4 -0.2,0.7 -0.7,0.7 H 61 c -0.5,0 -0.7,-0.2 -0.7,-0.7 V 11.9 c 0,-0.4 0.2,-0.7 0.7,-0.7 h 1.4 c 0.3,0 0.5,0.3 0.5,0.7 z" />
		<path
   style="fill:#286ec3;stroke:#286ec3;stroke-opacity:1"
   id="path8"
   d="m 105.2,35.2 c -1.6,1.3 -4.8,3.3 -9.5,3.3 -5.2,0 -7.5,-2.7 -7.5,-6.7 V 17.5 c 0,-4 2.3,-6.7 7.5,-6.7 4.6,0 7.8,2.1 9.4,3.3 V 0.7 c 0,-0.4 0.2,-0.7 0.6,-0.7 h 1.6 c 0.5,0 0.7,0.2 0.7,0.7 v 36.8 c 0,0.4 -0.2,0.7 -0.7,0.7 h -1.4 c -0.5,0 -0.7,-0.2 -0.7,-0.7 z M 91,31.5 c 0,2.5 1.5,4.5 5.3,4.5 4.4,0 7.5,-2.3 8.7,-3.2 V 16.7 c -1.3,-1 -4.4,-3.3 -8.7,-3.3 -3.8,0 -5.3,2 -5.3,4.5 z" />
		<path
   style="fill:#286ec3;stroke:#286ec3;stroke-opacity:1"
   id="path10"
   d="M 116.6,31.9 V 17.5 c 0,-4 2.3,-6.7 7.5,-6.7 4.7,0 7.9,2.1 9.5,3.4 l 0.1,-2.2 c 0,-0.5 0.2,-0.7 0.7,-0.7 h 1.4 c 0.5,0 0.7,0.2 0.7,0.7 v 30.8 c 0,4 -2.5,6.8 -9.8,6.8 h -7.4 c -0.4,0 -0.7,-0.2 -0.7,-0.7 v -1.1 c 0,-0.4 0.2,-0.7 0.7,-0.7 h 7.4 c 5.3,0 6.9,-1.9 6.9,-4.5 v -7.2 c -1.6,1.3 -4.8,3.3 -9.4,3.3 -5.3,-0.1 -7.6,-2.9 -7.6,-6.8 z m 2.8,-0.4 c 0,2.5 1.5,4.5 5.3,4.5 4.4,0 7.5,-2.3 8.7,-3.2 V 16.7 c -1.3,-1 -4.4,-3.3 -8.7,-3.3 -3.8,0 -5.3,2 -5.3,4.5 z" />
		<path
   style="fill:#286ec3;stroke:#286ec3;stroke-opacity:1"
   id="path12"
   d="m 161.9,35.3 c -1.5,1.3 -4.5,3.3 -9.1,3.3 -5.1,0 -7.5,-2.7 -7.5,-6.5 V 12 c 0,-0.5 0.2,-0.7 0.6,-0.7 h 1.6 c 0.4,0 0.7,0.2 0.7,0.7 v 19.5 c 0,2.7 1.5,4.5 5.3,4.5 4.3,0 7.1,-2.2 8.4,-3.2 V 12 c 0,-0.5 0.2,-0.7 0.6,-0.7 h 1.6 c 0.4,0 0.6,0.2 0.6,0.7 v 25.5 c 0,0.5 -0.2,0.7 -0.6,0.7 h -1.4 c -0.4,0 -0.7,-0.2 -0.7,-0.7 z" />
		<path
   style="fill:#286ec3;stroke:#286ec3;stroke-opacity:1"
   id="path14"
   d="m 186.6,11.5 v 1.3 c 0,0.5 -0.3,0.7 -0.7,0.7 -4.1,0.2 -7.9,2.7 -9.2,3.8 v 20.2 c 0,0.4 -0.2,0.7 -0.7,0.7 h -1.5 c -0.5,0 -0.7,-0.2 -0.7,-0.7 V 11.9 c 0,-0.4 0.2,-0.7 0.7,-0.7 h 1.4 c 0.4,0 0.7,0.2 0.7,0.7 l 0.1,2.9 c 1.6,-1.4 5.1,-4 9.2,-4 0.5,0.1 0.7,0.2 0.7,0.7 z" />
		<path
   style="fill:#286ec3;stroke:#286ec3;stroke-opacity:1"
   id="path16"
   d="m 208.6,35.3 c -1.5,1.3 -4.5,3.3 -9.1,3.3 -5.1,0 -7.5,-2.7 -7.5,-6.5 V 12 c 0,-0.5 0.2,-0.7 0.6,-0.7 h 1.6 c 0.4,0 0.7,0.2 0.7,0.7 v 19.5 c 0,2.7 1.5,4.5 5.3,4.5 4.3,0 7.1,-2.2 8.4,-3.2 V 12 c 0,-0.5 0.2,-0.7 0.6,-0.7 h 1.6 c 0.4,0 0.6,0.2 0.6,0.7 v 25.5 c 0,0.5 -0.2,0.7 -0.6,0.7 h -1.4 c -0.4,0 -0.7,-0.2 -0.7,-0.7 z" />
	</g><g
   transform="matrix(0.58030079,0,0,0.58030079,-166.59477,-17.579463)"
   id="g35">
		<defs
   id="defs21">
			<path
   d="m 168.8,53.7 c -33.6,1.9 -34.7,22.8 -33.2,28 0.2,0.6 0.4,1.3 0.7,2 2.5,6.7 9.2,12.2 20,15.4 14.9,4.3 27.6,0.8 29.7,0 2.1,-0.8 4.1,-1.8 4.1,-1.8 0,0 -4.8,10.4 -26.1,8.8 -12.6,-0.9 -23.2,-5.4 -29.8,-8.9 -4.6,-2.4 -4.4,-0.3 1.4,4.3 7.9,6.3 21.3,13.4 40.6,12.3 33.6,-1.9 34.7,-22.8 33.2,-28 -0.2,-0.7 -0.4,-1.3 -0.7,-2 -2.5,-6.7 -9.2,-12.2 -20,-15.4 -14.9,-4.3 -27.6,-0.8 -29.7,0 -2.1,0.8 -4.1,1.8 -4.1,1.8 0,0 4.8,-10.4 26.1,-8.8 12.6,0.9 23.2,5.4 29.8,8.9 4.6,2.4 4.4,0.3 -1.4,-4.3 -7.4,-5.8 -19.5,-12.4 -36.8,-12.4 -1.3,0 -2.5,0.1 -3.8,0.1"
   id="SVGID_1_" />
		</defs>
		<clipPath
   id="SVGID_2_">
			<use
   height="100%"
   width="100%"
   y="0"
   x="0"
   style="overflow:visible"
   id="use23"
   overflow="visible"
   xlink:href="#SVGID_1_" />
		</clipPath>
		
			<linearGradient
   gradientTransform="matrix(82.9342,0,0,-82.9342,305.8673,-16581.24)"
   y2="-200.9483"
   x2="-1.1077"
   y1="-200.9483"
   x1="-2.1111"
   gradientUnits="userSpaceOnUse"
   id="SVGID_3_">
			<stop
   id="stop26"
   style="stop-color:#78509B"
   offset="0" />
			<stop
   id="stop28"
   style="stop-color:#78509B"
   offset="0.3408" />
			<stop
   id="stop30"
   style="stop-color:#E73956"
   offset="1" />
		</linearGradient>
		<rect
   style="fill:url(#SVGID_3_)"
   id="rect33"
   height="61.200001"
   width="85.900002"
   clip-path="url(#SVGID_2_)"
   y="53.599998"
   x="129.39999" />
	</g>
	
</g>
</svg>