<?xml version="1.0" encoding="UTF-8" standalone="no"?>
<svg
   id="svg8"
   version="1.1"
   viewBox="0 0 39.999999 40"
   height="40"
   width="40"
   sodipodi:docname="yr.svg"
   inkscape:version="1.2.2 (b0a8486541, 2022-12-01)"
   xmlns:inkscape="http://www.inkscape.org/namespaces/inkscape"
   xmlns:sodipodi="http://sodipodi.sourceforge.net/DTD/sodipodi-0.dtd"
   xmlns="http://www.w3.org/2000/svg"
   xmlns:svg="http://www.w3.org/2000/svg"
   xmlns:rdf="http://www.w3.org/1999/02/22-rdf-syntax-ns#"
   xmlns:cc="http://creativecommons.org/ns#"
   xmlns:dc="http://purl.org/dc/elements/1.1/">
  <sodipodi:namedview
     id="namedview404"
     pagecolor="#505050"
     bordercolor="#eeeeee"
     borderopacity="1"
     inkscape:showpageshadow="0"
     inkscape:pageopacity="0"
     inkscape:pagecheckerboard="0"
     inkscape:deskcolor="#505050"
     showgrid="false"
     inkscape:zoom="8.075"
     inkscape:cx="21.795666"
     inkscape:cy="26.315789"
     inkscape:window-width="1600"
     inkscape:window-height="826"
     inkscape:window-x="0"
     inkscape:window-y="0"
     inkscape:window-maximized="1"
     inkscape:current-layer="svg8" />
  <defs
     id="defs2">
    <clipPath
       clipPathUnits="userSpaceOnUse"
       id="clipPath6783">
      <path
         id="path6785"
         d="M -0.09960937,0 V 2.9863281 L 6.2734375,11.869141 0.2265625,54.390625 27.158203,64.785156 54.087891,54.390625 48.041016,11.869141 54.414062,2.9863281 V 0 L 27.158203,0.24609375 Z"
         style="fill:none;fill-opacity:1;stroke:#000000;stroke-width:0.529167;stroke-linecap:butt;stroke-linejoin:miter;stroke-miterlimit:4;stroke-dasharray:none;stroke-opacity:1"
         inkscape:connector-curvature="0" />
    </clipPath>
  </defs>
  <metadata
     id="metadata5">
    <rdf:RDF>
      <cc:Work
         rdf:about="">
        <dc:format>image/svg+xml</dc:format>
        <dc:type
           rdf:resource="http://purl.org/dc/dcmitype/StillImage" />
      </cc:Work>
    </rdf:RDF>
  </metadata>
  <circle
     style="fill:#63aedc;fill-opacity:1;stroke-width:19.8843;stroke-linecap:round;stop-color:#000000"
     id="path1631"
     cx="20"
     cy="20"
     r="20" />
  <g
     transform="translate(-46.795748,-156.51336)"
     id="layer1">
    <g
       transform="matrix(0.44896646,0,0,0.44896646,34.663662,110.16513)"
       id="g27">
      <path
         style="fill:#ffffff;fill-opacity:1;stroke-width:0.264583"
         d="m 62.161971,165.03136 c 1.4786,-1.0051 3.707234,-3.49092 4.456734,-4.97106 1.58459,-3.12929 1.57121,-2.98978 1.67274,-17.43316 l 0.0935,-13.30288 -3.65362,0.0737 -3.653634,0.0737 -0.13229,6.78915 -0.13229,6.78915 -0.82196,1.01487 c -2.62707,3.24363 -8.917449,3.48152 -11.797707,0.44616 -0.39238,-0.41351 -0.978816,-1.34715 -1.30319,-2.07475 -0.537775,-1.20628 -0.600363,-1.84258 -0.709912,-7.21734 l -0.12014,-5.89442 -3.471461,0.0736 -3.471461,0.0736 0.0181,6.08541 c 0.01649,5.5423 0.07183,6.26252 0.620053,8.0698 1.476316,4.86678 4.90945,8.20475 9.943985,9.66832 3.390292,0.98559 7.610893,0.36994 10.169303,-1.48337 l 1.07668,-0.77994 v 1.9025 c 0,3.32983 -1.41337,5.24377 -5.907727,8.00002 -0.437018,0.26801 -0.690148,0.61063 -0.608442,0.82355 0.07696,0.20053 1.068557,1.495 2.203562,2.87658 l 2.063647,2.51198 1.19063,-0.68908 c 0.65484,-0.37899 1.67854,-1.02073 2.27488,-1.4261 z m 17.876834,-3.79099 c 0.0797,-3.89859 0.14543,-4.42392 0.63689,-5.09323 0.8527,-1.1613 2.11637,-1.67379 4.08223,-1.65557 l 1.71979,0.0159 4.09938,5.05383 c 2.25465,2.77961 4.45731,5.27212 4.89479,5.53892 0.63439,0.38687 1.34444,0.48527 3.5074,0.48606 l 2.711985,0.001 v -2.91041 -2.91042 h -0.86717 c -1.338525,0 -2.191365,-0.72851 -4.828445,-4.12455 -0.65417,-0.84244 -1.09878,-1.60918 -0.98804,-1.70388 0.11074,-0.0947 0.61807,-0.33109 1.1274,-0.52533 1.46443,-0.55846 3.62514,-2.07051 4.666065,-3.26527 2.38569,-2.73827 3.6579,-7.27678 3.08227,-10.9957 -0.74588,-4.81879 -3.87808,-8.44122 -8.756285,-10.12676 -1.65419,-0.57156 -2.1776,-0.61164 -7.98789,-0.61164 h -6.21771 l -1.78349,0.84485 c -2.30833,1.09348 -4.21568,3.00083 -5.30916,5.30916 l -0.84485,1.78349 -0.0747,14.61823 -0.0747,14.61823 h 3.55766 3.55766 z m -0.0376,-17.83781 c 0.005,-4.01505 0.0763,-4.82579 0.50838,-5.77739 0.85038,-1.87303 1.50735,-2.06935 6.89415,-2.06021 4.42085,0.008 4.69728,0.039 6.11371,0.69564 0.90657,0.42031 1.7812,1.07807 2.24896,1.69134 0.69821,0.91541 0.76545,1.19129 0.76545,3.14082 0,2.55929 -0.5631,3.87083 -2.14023,4.98485 -1.35278,0.95556 -3.25089,1.25001 -8.07032,1.25192 -2.5452,0.001 -4.28055,0.12793 -5.09323,0.37251 l -1.23268,0.37098 0.006,-4.67046 z"
         id="path21-3"
         sodipodi:nodetypes="ssscccccsssscccscsscsssscssscsccssscccsssssssscssccccccccccsssssccc" />
    </g>
  </g>
</svg>
