<?xml version="1.0" encoding="UTF-8" standalone="no"?>
<svg
   height="40.29269"
   width="343.59158"
   xml:space="preserve"
   viewBox="0 0 343.59159 40.292692"
   y="0px"
   x="0px"
   id="Capa_1"
   version="1.1"
   sodipodi:docname="logo.svg"
   inkscape:version="1.2.2 (b0a8486541, 2022-12-01)"
   xmlns:inkscape="http://www.inkscape.org/namespaces/inkscape"
   xmlns:sodipodi="http://sodipodi.sourceforge.net/DTD/sodipodi-0.dtd"
   xmlns="http://www.w3.org/2000/svg"
   xmlns:svg="http://www.w3.org/2000/svg"
   xmlns:rdf="http://www.w3.org/1999/02/22-rdf-syntax-ns#"
   xmlns:cc="http://creativecommons.org/ns#"
   xmlns:dc="http://purl.org/dc/elements/1.1/"><sodipodi:namedview
   pagecolor="#ffffff"
   bordercolor="#666666"
   borderopacity="1"
   objecttolerance="10"
   gridtolerance="10"
   guidetolerance="10"
   inkscape:pageopacity="0"
   inkscape:pageshadow="2"
   inkscape:window-width="1600"
   inkscape:window-height="826"
   id="namedview16"
   showgrid="false"
   inkscape:zoom="1.1525311"
   inkscape:cx="19.956078"
   inkscape:cy="-19.52225"
   inkscape:window-x="0"
   inkscape:window-y="0"
   inkscape:window-maximized="1"
   inkscape:current-layer="text834-5"
   inkscape:showpageshadow="0"
   inkscape:pagecheckerboard="0"
   inkscape:deskcolor="#d1d1d1" /><metadata
   id="metadata51"><rdf:RDF><cc:Work
       rdf:about=""><dc:format>image/svg+xml</dc:format><dc:type
         rdf:resource="http://purl.org/dc/dcmitype/StillImage" /><dc:title /></cc:Work></rdf:RDF></metadata><defs
   id="defs49" />
<style
   id="style2"
   type="text/css">
	.st0{fill:#4579B2;}
	.st1{fill:#E8E8E8;}
	.st2{opacity:0.25;enable-background:new    ;}
	.st3{fill:#2D5B87;}
	.st4{fill:#324A63;}
	.st5{fill:#E0C136;}
	.st6{fill:#FFFFFF;}
	.st7{fill:#5592BF;}
	.st8{fill:#5592C0;}
</style>

<g
   id="text834-5"
   style="font-style:italic;font-variant:normal;font-weight:bold;font-stretch:normal;font-size:53.82391739px;line-height:1.25;font-family:sans-serif;-inkscape-font-specification:'sans-serif Bold Italic';letter-spacing:0px;word-spacing:0px;fill:#d40000;fill-opacity:1;stroke:none;stroke-width:1.34559798"
   aria-label="UTURNET"><path
     id="path862"
     style="fill:#0044aa;stroke-width:1.34559798;fill-opacity:1"
     d="M 64.642838,0.29269063 H 74.761104 L 70.188173,23.788092 q -0.262812,1.261498 -0.394218,2.233903 -0.105125,0.972405 -0.105125,1.708279 0,2.575558 1.366623,3.863337 1.392904,1.261498 4.12615,1.261498 3.679369,0 5.65046,-2.049934 1.971091,-2.076216 2.917214,-6.990802 L 88.322208,0.29269063 H 98.440474 L 93.867543,23.814373 q -1.708279,8.672799 -6.491459,12.5887 -4.756899,3.889619 -13.639947,3.889619 -6.964521,0 -10.591328,-2.969777 -3.626807,-2.996058 -3.626807,-8.672799 0,-0.946124 0.131406,-2.102497 0.131406,-1.182654 0.420499,-2.733246 z" /><path
     id="path864"
     style="fill:#0044aa;stroke-width:1.34559798;fill-opacity:1"
     d="m 103.69672,0.29269063 h 36.16294 l -1.49803,7.64783197 h -13.03548 l -6.1498,31.5900144 h -10.11827 l 6.14981,-31.5900144 h -13.03548 z" /><path
     id="path866"
     style="fill:#0044aa;stroke-width:1.34559798;fill-opacity:1"
     d="m 145.06334,0.29269063 h 10.11827 L 150.60867,23.788092 q -0.26281,1.261498 -0.39421,2.233903 -0.10513,0.972405 -0.10513,1.708279 0,2.575558 1.36662,3.863337 1.39291,1.261498 4.12615,1.261498 3.67937,0 5.65046,-2.049934 1.9711,-2.076216 2.91722,-6.990802 l 4.57293,-23.52168237 h 10.11827 L 174.28804,23.814373 q -1.70827,8.672799 -6.49145,12.5887 -4.7569,3.889619 -13.63995,3.889619 -6.96452,0 -10.59133,-2.969777 -3.62681,-2.996058 -3.62681,-8.672799 0,-0.946124 0.13141,-2.102497 0.13141,-1.182654 0.4205,-2.733246 z" /><path
     id="path868"
     style="fill:#0044aa;stroke-width:1.34559798;fill-opacity:1"
     d="m 199.78082,17.690851 q 3.44284,0 5.20368,-1.603153 1.78712,-1.603154 1.78712,-4.704337 0,-1.9448094 -1.23522,-2.8383705 -1.20893,-0.9198424 -3.83705,-0.9198424 h -4.17872 l -1.99737,10.0657029 z m -5.5979,6.990802 -2.91721,14.848884 h -10.11827 l 7.64783,-39.23784637 h 14.95401 q 6.46518,0 9.80289,2.41787127 3.33772,2.4178713 3.33772,7.1222078 0,4.7568993 -2.62812,7.8318003 -2.62813,3.074902 -7.12221,3.521682 2.04993,0.4205 3.41655,2.102497 1.36663,1.655716 2.39159,5.098555 l 3.33772,11.143233 h -10.0657 l -2.9435,-9.750329 q -0.89356,-2.917214 -2.18134,-3.994744 -1.2615,-1.103811 -3.67937,-1.103811 z" /><path
     id="path870"
     style="fill:#d40000;stroke-width:1.34559798"
     d="m 230.21446,0.29269063 h 11.30092 l 8.98818,27.17477037 5.28252,-27.17477037 h 9.56636 L 257.70461,39.530537 h -11.30092 l -8.98818,-27.174771 -5.25624,27.174771 h -9.59264 z" /><path
     id="path872"
     style="fill:#d40000;stroke-width:1.34559798"
     d="m 275.31302,0.29269063 h 27.27989 l -1.49802,7.64783197 h -17.16163 l -1.41919,7.3061764 h 16.16294 l -1.52431,7.647832 h -16.13666 l -1.73456,8.988174 h 17.71354 l -1.44547,7.647832 h -27.88436 z" /><path
     id="path874"
     style="fill:#d40000;stroke-width:1.34559798"
     d="m 307.42865,0.29269063 h 36.16294 l -1.49802,7.64783197 h -13.03548 l -6.14981,31.5900144 h -10.11826 l 6.1498,-31.5900144 h -13.03548 z" /></g>
<g
   transform="matrix(1.3717346,0,0,1.3717346,30.399348,-126.81219)"
   id="text842"
   style="font-style:italic;font-variant:normal;font-weight:bold;font-stretch:normal;font-size:40px;line-height:1.25;font-family:sans-serif;-inkscape-font-specification:'sans-serif Bold Italic';letter-spacing:0px;word-spacing:0px;fill:#0044aa;fill-opacity:1;stroke:none"
   aria-label="F"><path
     style="fill:#0044aa;fill-opacity:1"
     id="path844"
     d="M -2.2518317,92.446594 H 18.021605 l -1.113281,5.683594 H 4.1544183 l -1.054688,5.429682 H 15.111449 l -1.132813,5.6836 H 1.9864493 l -2.402344,12.36328 h -7.519531 l -14.2258203,-1.82251 14.9343399,-1.82251 -14.2258199,-1.82251 14.93434,-1.82251 -14.22582,-1.82251 14.9343401,-1.82251 -14.2258201,-1.82251 14.9343404,-1.82251 -14.2258194,-1.82251 14.9343395,-1.82251 -14.2258195,-1.82251 14.9343396,-1.822507 -14.2258196,-1.822508 14.9343397,-1.822512 -14.2258197,-1.822508 z" /></g></svg>
