<?xml version="1.0" encoding="UTF-8" standalone="no"?>
<svg
   xmlns:dc="http://purl.org/dc/elements/1.1/"
   xmlns:cc="http://creativecommons.org/ns#"
   xmlns:rdf="http://www.w3.org/1999/02/22-rdf-syntax-ns#"
   xmlns:svg="http://www.w3.org/2000/svg"
   xmlns="http://www.w3.org/2000/svg"
   xmlns:sodipodi="http://sodipodi.sourceforge.net/DTD/sodipodi-0.dtd"
   xmlns:inkscape="http://www.inkscape.org/namespaces/inkscape"
   height="49"
   width="177"
   xml:space="preserve"
   viewBox="0 0 177 49.000003"
   y="0px"
   x="0px"
   id="Capa_1"
   version="1.1"
   sodipodi:docname="roundcube_logo.svg"
   inkscape:version="0.92.5 (2060ec1f9f, 2020-04-08)"
   inkscape:export-filename="C:\Users\Familia\httpdocs\IMG\roundcube_logo.png"
   inkscape:export-xdpi="96"
   inkscape:export-ydpi="96"><sodipodi:namedview
   pagecolor="#ffffff"
   bordercolor="#666666"
   borderopacity="1"
   objecttolerance="10"
   gridtolerance="10"
   guidetolerance="10"
   inkscape:pageopacity="0"
   inkscape:pageshadow="2"
   inkscape:window-width="1024"
   inkscape:window-height="705"
   id="namedview16"
   showgrid="false"
   inkscape:zoom="1.1525311"
   inkscape:cx="179.14833"
   inkscape:cy="-19.461876"
   inkscape:window-x="-8"
   inkscape:window-y="-8"
   inkscape:window-maximized="1"
   inkscape:current-layer="Capa_1"
   inkscape:pagecheckerboard="true" /><metadata
   id="metadata51"><rdf:RDF><cc:Work
       rdf:about=""><dc:format>image/svg+xml</dc:format><dc:type
         rdf:resource="http://purl.org/dc/dcmitype/StillImage" /><dc:title></dc:title></cc:Work></rdf:RDF></metadata><defs
   id="defs49" />
<style
   id="style2"
   type="text/css">
	.st0{fill:#4579B2;}
	.st1{fill:#E8E8E8;}
	.st2{opacity:0.25;enable-background:new    ;}
	.st3{fill:#2D5B87;}
	.st4{fill:#324A63;}
	.st5{fill:#E0C136;}
	.st6{fill:#FFFFFF;}
	.st7{fill:#5592BF;}
	.st8{fill:#5592C0;}
</style>

<g
   id="text834-5"
   style="font-style:italic;font-variant:normal;font-weight:bold;font-stretch:normal;font-size:53.82391739px;line-height:1.25;font-family:sans-serif;-inkscape-font-specification:'sans-serif Bold Italic';letter-spacing:0px;word-spacing:0px;fill:#d40000;fill-opacity:1;stroke:none;stroke-width:1.34559798"
   aria-label="UTURNET"
   transform="translate(5.0196042e-7,8.7073083)" />
<g
   id="g852"
   transform="translate(0,-14.121682)"><path
     inkscape:connector-curvature="0"
     d="m 33.30053,19.686832 h 5.21239 l -2.35573,12.103574 q -0.135387,0.649856 -0.20308,1.150786 -0.05416,0.500932 -0.05416,0.880015 0,1.326789 0.704011,1.990184 0.71755,0.649856 2.125572,0.649856 1.895414,0 2.910815,-1.056016 1.015401,-1.069555 1.502793,-3.601287 l 2.35573,-12.117112 h 5.21239 l -2.35573,12.117112 q -0.880014,4.467762 -3.344056,6.485025 -2.450499,2.003723 -7.026569,2.003723 -3.587748,0 -5.456085,-1.52987 -1.868337,-1.543409 -1.868337,-4.467762 0,-0.487393 0.06769,-1.083094 0.06769,-0.60924 0.216619,-1.408022 z"
     style="font-style:italic;font-variant:normal;font-weight:bold;font-stretch:normal;font-size:53.82391739px;line-height:1.25;font-family:sans-serif;-inkscape-font-specification:'sans-serif Bold Italic';letter-spacing:0px;word-spacing:0px;fill:#ffffff;fill-opacity:1;stroke:none;stroke-width:0.69318002"
     id="path862"
     transform="translate(5.0196042e-7,8.7073083)" /><path
     inkscape:connector-curvature="0"
     d="m 53.418999,19.686832 h 18.629213 l -0.771706,3.939754 H 64.561327 L 61.393275,39.90007 h -5.21239 l 3.168052,-16.273484 h -6.715179 z"
     style="font-style:italic;font-variant:normal;font-weight:bold;font-stretch:normal;font-size:53.82391739px;line-height:1.25;font-family:sans-serif;-inkscape-font-specification:'sans-serif Bold Italic';letter-spacing:0px;word-spacing:0px;fill:#ffffff;fill-opacity:1;stroke:none;stroke-width:0.69318002"
     id="path864"
     transform="translate(5.0196042e-7,8.7073083)" /><path
     inkscape:connector-curvature="0"
     d="m 74.728869,19.686832 h 5.212389 l -2.35573,12.103574 q -0.135388,0.649856 -0.203076,1.150786 -0.05416,0.500932 -0.05416,0.880015 0,1.326789 0.70401,1.990184 0.717553,0.649856 2.125569,0.649856 1.895416,0 2.910818,-1.056016 1.015402,-1.069555 1.502793,-3.601287 l 2.35573,-12.117112 h 5.21239 L 89.78387,31.803944 q -0.88001,4.467762 -3.344047,6.485025 -2.450499,2.003723 -7.026571,2.003723 -3.587751,0 -5.45609,-1.52987 -1.868334,-1.543409 -1.868334,-4.467762 0,-0.487393 0.06769,-1.083094 0.0677,-0.60924 0.216618,-1.408022 z"
     style="font-style:italic;font-variant:normal;font-weight:bold;font-stretch:normal;font-size:53.82391739px;line-height:1.25;font-family:sans-serif;-inkscape-font-specification:'sans-serif Bold Italic';letter-spacing:0px;word-spacing:0px;fill:#ffffff;fill-opacity:1;stroke:none;stroke-width:0.69318002"
     id="path866"
     transform="translate(5.0196042e-7,8.7073083)" /><path
     inkscape:connector-curvature="0"
     d="m 102.91639,28.649433 q 1.77356,0 2.68065,-0.825859 0.92063,-0.825859 0.92063,-2.423422 0,-1.001862 -0.63632,-1.462177 -0.62277,-0.473853 -1.97664,-0.473853 h -2.15265 l -1.02894,5.185311 z m -2.88374,3.601287 -1.502793,7.64935 h -5.21239 l 3.939754,-20.213238 h 7.703499 q 3.33052,0 5.04993,1.245558 1.71941,1.245558 1.71941,3.66898 0,2.4505 -1.35386,4.034525 -1.35388,1.584024 -3.66899,1.814182 1.05602,0.216619 1.76003,1.083094 0.70402,0.852936 1.23202,2.626502 l 1.71941,5.740397 h -5.18531 l -1.51633,-5.022847 q -0.46032,-1.502792 -1.12371,-2.057878 -0.64986,-0.568625 -1.89542,-0.568625 z"
     style="font-style:italic;font-variant:normal;font-weight:bold;font-stretch:normal;font-size:53.82391739px;line-height:1.25;font-family:sans-serif;-inkscape-font-specification:'sans-serif Bold Italic';letter-spacing:0px;word-spacing:0px;fill:#ffffff;fill-opacity:1;stroke:none;stroke-width:0.69318002"
     id="path868"
     transform="translate(5.0196042e-7,8.7073083)" /><path
     inkscape:connector-curvature="0"
     d="m 118.59417,19.686832 h 5.82163 l 4.63023,13.998987 2.72127,-13.998987 h 4.92807 l -3.93974,20.213238 h -5.82164 l -4.63023,-13.998987 -2.70773,13.998987 h -4.94161 z"
     style="font-style:italic;font-variant:normal;font-weight:bold;font-stretch:normal;font-size:53.82391739px;line-height:1.25;font-family:sans-serif;-inkscape-font-specification:'sans-serif Bold Italic';letter-spacing:0px;word-spacing:0px;fill:#d40000;fill-opacity:1;stroke:none;stroke-width:0.69318002"
     id="path870"
     transform="translate(5.0196042e-7,8.7073083)" /><path
     inkscape:connector-curvature="0"
     d="m 141.82653,19.686832 h 14.05314 l -0.7717,3.939754 h -8.84075 l -0.73109,3.763751 h 8.32628 l -0.78524,3.939754 h -8.31275 l -0.89355,4.630226 h 9.12507 l -0.74463,3.939753 h -14.36453 z"
     style="font-style:italic;font-variant:normal;font-weight:bold;font-stretch:normal;font-size:53.82391739px;line-height:1.25;font-family:sans-serif;-inkscape-font-specification:'sans-serif Bold Italic';letter-spacing:0px;word-spacing:0px;fill:#d40000;fill-opacity:1;stroke:none;stroke-width:0.69318002"
     id="path872"
     transform="translate(5.0196042e-7,8.7073083)" /><path
     inkscape:connector-curvature="0"
     d="M 158.37079,19.686832 H 177 l -0.7717,3.939754 h -6.71518 l -3.16806,16.273484 h -5.21238 l 3.16804,-16.273484 h -6.71517 z"
     style="font-style:italic;font-variant:normal;font-weight:bold;font-stretch:normal;font-size:53.82391739px;line-height:1.25;font-family:sans-serif;-inkscape-font-specification:'sans-serif Bold Italic';letter-spacing:0px;word-spacing:0px;fill:#d40000;fill-opacity:1;stroke:none;stroke-width:0.69318002"
     id="path874"
     transform="translate(5.0196042e-7,8.7073083)" /><g
     aria-label="F"
     style="font-style:italic;font-variant:normal;font-weight:bold;font-stretch:normal;font-size:40px;line-height:1.25;font-family:sans-serif;-inkscape-font-specification:'sans-serif Bold Italic';letter-spacing:0px;word-spacing:0px;fill:#ffffff;fill-opacity:1;stroke:none"
     id="text842"
     transform="matrix(0.70664427,0,0,0.70664427,15.660118,-37.083492)"><path
       inkscape:connector-curvature="0"
       d="M -2.2518317,92.446594 H 18.021605 l -1.113281,5.683594 H 4.1544183 l -1.054688,5.429682 H 15.111449 l -1.132813,5.6836 H 1.9864493 l -2.402344,12.36328 h -7.519531 l -14.2258203,-1.82251 14.9343399,-1.82251 -14.2258199,-1.82251 14.93434,-1.82251 -14.22582,-1.82251 14.9343401,-1.82251 -14.2258201,-1.82251 14.9343404,-1.82251 -14.2258194,-1.82251 14.9343395,-1.82251 -14.2258195,-1.82251 14.9343396,-1.822507 -14.2258196,-1.822508 14.9343397,-1.822512 -14.2258197,-1.822508 z"
       id="path844"
       style="fill:#ffffff" /></g></g></svg>