<?xml version="1.0" encoding="UTF-8" standalone="no"?>
<svg
   viewBox="0 0 49.999995 47.775222"
   version="1.1"
   id="svg22"
   sodipodi:docname="WhatsApp.svg"
   width="49.999996"
   height="47.775223"
   inkscape:version="1.2.2 (b0a8486541, 2022-12-01)"
   xmlns:inkscape="http://www.inkscape.org/namespaces/inkscape"
   xmlns:sodipodi="http://sodipodi.sourceforge.net/DTD/sodipodi-0.dtd"
   xmlns="http://www.w3.org/2000/svg"
   xmlns:svg="http://www.w3.org/2000/svg">
  <sodipodi:namedview
     id="namedview24"
     pagecolor="#505050"
     bordercolor="#eeeeee"
     borderopacity="1"
     inkscape:showpageshadow="0"
     inkscape:pageopacity="0"
     inkscape:pagecheckerboard="0"
     inkscape:deskcolor="#505050"
     showgrid="false"
     inkscape:zoom="2.6020266"
     inkscape:cx="71.482743"
     inkscape:cy="37.855109"
     inkscape:window-width="1600"
     inkscape:window-height="826"
     inkscape:window-x="0"
     inkscape:window-y="0"
     inkscape:window-maximized="1"
     inkscape:current-layer="svg22" />
  <defs
     id="defs10">
    <linearGradient
       id="b"
       x1="85.915001"
       x2="86.535004"
       y1="32.567001"
       y2="137.092"
       gradientUnits="userSpaceOnUse">
      <stop
         offset="0"
         stop-color="#57d163"
         id="stop2" />
      <stop
         offset="1"
         stop-color="#23b33a"
         id="stop4" />
    </linearGradient>
    <filter
       id="a"
       width="1.1146948"
       height="1.1141825"
       x="-0.057347413"
       y="-0.05709127"
       color-interpolation-filters="sRGB">
      <feGaussianBlur
         stdDeviation="3.531"
         id="feGaussianBlur7" />
    </filter>
  </defs>
  <path
     fill="#ffffff"
     d="M 0,47.775224 3.359869,35.507951 A 23.63077,23.63077 0 0 1 0.198908,23.672611 C 0.204379,10.619363 10.826961,0 23.880531,0 c 6.334475,0.0032 12.280147,2.468324 16.751712,6.943108 4.471564,4.474783 6.931842,10.422707 6.929589,16.748493 -0.0058,13.052282 -10.629984,23.673576 -23.681623,23.673576 h -0.0103 c -3.96303,-0.0016 -7.857183,-0.995826 -11.316184,-2.881911 z"
     id="path14"
     style="stroke-width:0.321857" />
  <path
     fill="url(#linearGradient1780)"
     d="m 30.32476,3.999078 c -10.857216,0 -19.68673,8.826295 -19.690592,19.675142 a 19.626864,19.626864 0 0 0 3.009045,10.471631 l 0.468302,0.744134 -1.988756,7.260781 7.449711,-1.953353 0.719351,0.426139 c 3.021275,1.793068 6.485426,2.741582 10.018133,2.743513 h 0.0074 c 10.848847,0 19.678361,-8.827261 19.682545,-19.676752 A 19.552836,19.552836 0 0 0 44.240264,9.769659 19.552836,19.552836 0 0 0 30.32476,3.999078 Z"
     id="path16"
     style="stroke-width:0.321857" />
  <path
     fill="url(#b)"
     d="m 23.887612,3.999078 c -10.857216,0 -19.686729,8.826295 -19.690592,19.675142 a 19.626864,19.626864 0 0 0 3.009045,10.471631 l 0.468303,0.744456 -1.988757,7.260459 7.449711,-1.953353 0.719351,0.426139 c 3.021276,1.793068 6.485427,2.74126 10.018133,2.743191 h 0.0074 c 10.848847,0 19.678361,-8.827261 19.682545,-19.676752 A 19.552836,19.552836 0 0 0 37.803116,9.769337 19.552836,19.552836 0 0 0 23.887612,3.999078 Z"
     id="path18"
     style="fill:url(#b);stroke-width:0.321857" />
  <path
     fill="#ffffff"
     fill-rule="evenodd"
     d="m 17.961574,13.775818 c -0.44352,-0.985205 -0.910213,-1.00516 -1.331524,-1.022219 l -1.134226,-0.01384 c -0.394597,0 -1.035737,0.148055 -1.577745,0.740272 -0.542008,0.592218 -2.071152,2.023518 -2.071152,4.934718 0,2.9112 2.120396,5.724233 2.415861,6.119474 0.295465,0.395241 4.093383,6.559776 10.107932,8.931543 4.998123,1.971055 6.015193,1.579032 7.100496,1.480544 1.085303,-0.09849 3.500842,-1.4313 3.993606,-2.813034 0.492764,-1.381733 0.493086,-2.565525 0.345353,-2.813033 -0.147732,-0.247509 -0.54233,-0.394597 -1.134547,-0.690706 -0.592218,-0.296109 -3.500843,-1.727409 -4.043173,-1.925029 -0.542329,-0.197621 -0.936605,-0.295787 -1.331524,0.29643 -0.394919,0.592218 -1.527535,1.924386 -1.872888,2.319305 -0.345353,0.394919 -0.690062,0.444485 -1.28228,0.148698 -0.592217,-0.295787 -2.497613,-0.920834 -4.758339,-2.936627 -1.758951,-1.568411 -2.946283,-3.505349 -3.291958,-4.097245 -0.345675,-0.591895 -0.03669,-0.912465 0.260061,-1.207287 0.265532,-0.26521 0.591574,-0.691027 0.888005,-1.03638 0.29643,-0.345353 0.393953,-0.592218 0.59093,-0.986493 0.196976,-0.394276 0.09881,-0.740594 -0.04925,-1.036381 -0.148054,-0.295787 -1.297728,-3.222115 -1.823643,-4.392388"
     id="path20"
     style="stroke-width:0.321857" />
</svg>
